<?xml version="1.0" encoding="UTF-8" standalone="no"?>
<!DOCTYPE svg PUBLIC "-//W3C//DTD SVG 1.1//EN" "http://www.w3.org/Graphics/SVG/1.1/DTD/svg11.dtd">
<svg width="100%" height="100%" viewBox="0 0 615 380" version="1.1" xmlns="http://www.w3.org/2000/svg" xmlns:xlink="http://www.w3.org/1999/xlink" xml:space="preserve" xmlns:serif="http://www.serif.com/" style="fill-rule:evenodd;clip-rule:evenodd;stroke-linecap:round;stroke-linejoin:round;stroke-miterlimit:1.5;">
    <g id="panel" transform="matrix(0.834722,0,0,1.04324,-803.837,250.623)">
        <g transform="matrix(12.2795,0,0,0.958552,963,-240.235)">
            <rect x="0" y="0" width="60" height="380" style="fill:rgb(128,187,254);"/>
        </g>
        <g transform="matrix(1.198,0,0,0.958552,1295.11,-205.504)">
            <g transform="matrix(13,0,0,13,6.75391,0)">
                <path d="M0.744,0L0.568,0L0.511,-0.173L0.236,-0.173L0.181,0L0.006,0L0.283,-0.756L0.472,-0.756L0.744,0ZM0.473,-0.298L0.387,-0.56C0.382,-0.577 0.378,-0.599 0.375,-0.626L0.371,-0.626C0.369,-0.604 0.365,-0.583 0.358,-0.562L0.271,-0.298L0.473,-0.298Z" style="fill-rule:nonzero;"/>
            </g>
            <g transform="matrix(13,0,0,13,16.5293,0)">
                <path d="M0.711,0L0.526,0L0.407,-0.197C0.383,-0.237 0.363,-0.264 0.347,-0.275C0.332,-0.287 0.315,-0.293 0.297,-0.293L0.249,-0.293L0.249,0L0.087,0L0.087,-0.756L0.353,-0.756C0.533,-0.756 0.623,-0.688 0.623,-0.551C0.623,-0.5 0.608,-0.456 0.577,-0.419C0.547,-0.382 0.506,-0.356 0.453,-0.341L0.453,-0.339C0.488,-0.328 0.527,-0.289 0.569,-0.224L0.711,0ZM0.249,-0.634L0.249,-0.416L0.328,-0.416C0.365,-0.416 0.396,-0.427 0.419,-0.449C0.442,-0.471 0.453,-0.498 0.453,-0.531C0.453,-0.6 0.412,-0.634 0.331,-0.634L0.249,-0.634Z" style="fill-rule:nonzero;"/>
            </g>
            <g transform="matrix(13,0,0,13,25.6065,0)">
                <path d="M0.535,0L0.087,0L0.087,-0.756L0.518,-0.756L0.518,-0.625L0.249,-0.625L0.249,-0.446L0.499,-0.446L0.499,-0.315L0.249,-0.315L0.249,-0.132L0.535,-0.132L0.535,0Z" style="fill-rule:nonzero;"/>
            </g>
            <g transform="matrix(13,0,0,13,33.0396,0)">
                <path d="M0.76,0L0.595,0L0.274,-0.489C0.258,-0.515 0.246,-0.535 0.238,-0.551L0.236,-0.551C0.239,-0.525 0.24,-0.485 0.24,-0.43L0.24,0L0.087,0L0.087,-0.756L0.263,-0.756L0.572,-0.281C0.592,-0.249 0.605,-0.229 0.609,-0.221L0.612,-0.221C0.609,-0.239 0.607,-0.274 0.607,-0.325L0.607,-0.756L0.76,-0.756L0.76,0Z" style="fill-rule:nonzero;"/>
            </g>
            <g transform="matrix(13,0,0,13,44.0654,0)">
                <path d="M0.744,0L0.568,0L0.511,-0.173L0.236,-0.173L0.181,0L0.006,0L0.283,-0.756L0.472,-0.756L0.744,0ZM0.473,-0.298L0.387,-0.56C0.382,-0.577 0.378,-0.599 0.375,-0.626L0.371,-0.626C0.369,-0.604 0.365,-0.583 0.358,-0.562L0.271,-0.298L0.473,-0.298Z" style="fill-rule:nonzero;"/>
            </g>
        </g>
        <g transform="matrix(1,0,0,1,341.293,0)">
            <g transform="matrix(1.198,0,0,0.958552,893.633,-224.914)">
                <g transform="matrix(9,0,0,9,64.0056,347.267)">
                    <path d="M0.919,0L0.762,0L0.762,-0.308C0.762,-0.391 0.732,-0.432 0.671,-0.432C0.643,-0.432 0.62,-0.42 0.602,-0.395C0.583,-0.369 0.574,-0.339 0.574,-0.303L0.574,0L0.417,0L0.417,-0.312C0.417,-0.392 0.387,-0.432 0.327,-0.432C0.298,-0.432 0.274,-0.42 0.256,-0.396C0.238,-0.372 0.229,-0.341 0.229,-0.301L0.229,0L0.072,0L0.072,-0.54L0.229,-0.54L0.229,-0.456L0.231,-0.456C0.25,-0.486 0.275,-0.51 0.307,-0.528C0.338,-0.545 0.371,-0.553 0.405,-0.553C0.481,-0.553 0.533,-0.519 0.561,-0.451C0.603,-0.519 0.663,-0.553 0.743,-0.553C0.86,-0.553 0.919,-0.481 0.919,-0.335L0.919,0Z" style="fill:rgb(10,1,1);fill-rule:nonzero;"/>
                </g>
                <g transform="matrix(9,0,0,9,72.978,347.267)">
                    <path d="M0.551,-0.226L0.196,-0.226C0.201,-0.142 0.252,-0.1 0.347,-0.1C0.407,-0.1 0.459,-0.115 0.505,-0.144L0.505,-0.028C0.456,-0.001 0.391,0.013 0.312,0.013C0.226,0.013 0.159,-0.011 0.111,-0.06C0.063,-0.108 0.04,-0.176 0.04,-0.262C0.04,-0.348 0.065,-0.419 0.116,-0.472C0.167,-0.526 0.23,-0.553 0.307,-0.553C0.384,-0.553 0.443,-0.53 0.487,-0.484C0.53,-0.437 0.551,-0.374 0.551,-0.292L0.551,-0.226ZM0.404,-0.324C0.404,-0.405 0.372,-0.445 0.306,-0.445C0.279,-0.445 0.255,-0.434 0.234,-0.412C0.214,-0.39 0.201,-0.361 0.195,-0.324L0.404,-0.324Z" style="fill:rgb(10,1,1);fill-rule:nonzero;"/>
                </g>
                <g transform="matrix(9,0,0,9,78.3513,347.267)">
                    <rect x="0.069" y="-0.799" width="0.157" height="0.799" style="fill:rgb(10,1,1);fill-rule:nonzero;"/>
                </g>
                <g transform="matrix(9,0,0,9,81.1494,347.267)">
                    <path d="M0.593,0L0.436,0L0.436,-0.076L0.433,-0.076C0.395,-0.017 0.339,0.013 0.264,0.013C0.195,0.013 0.141,-0.011 0.1,-0.06C0.06,-0.108 0.04,-0.174 0.04,-0.258C0.04,-0.346 0.062,-0.418 0.108,-0.472C0.153,-0.526 0.212,-0.553 0.286,-0.553C0.356,-0.553 0.405,-0.528 0.433,-0.477L0.436,-0.477L0.438,-0.707L0.593,-0.658L0.593,0ZM0.438,-0.306C0.438,-0.342 0.427,-0.372 0.405,-0.396C0.383,-0.42 0.356,-0.432 0.323,-0.432C0.284,-0.432 0.254,-0.417 0.232,-0.386C0.21,-0.356 0.199,-0.315 0.199,-0.263C0.199,-0.213 0.21,-0.175 0.231,-0.148C0.252,-0.121 0.281,-0.108 0.318,-0.108C0.353,-0.108 0.382,-0.122 0.404,-0.15C0.427,-0.179 0.438,-0.215 0.438,-0.261L0.438,-0.306Z" style="fill:rgb(10,1,1);fill-rule:nonzero;"/>
                </g>
                <g transform="matrix(9,0,0,9,87.2654,347.267)">
                    <path d="M0.551,-0.226L0.196,-0.226C0.201,-0.142 0.252,-0.1 0.347,-0.1C0.407,-0.1 0.459,-0.115 0.505,-0.144L0.505,-0.028C0.456,-0.001 0.391,0.013 0.312,0.013C0.226,0.013 0.159,-0.011 0.111,-0.06C0.063,-0.108 0.04,-0.176 0.04,-0.262C0.04,-0.348 0.065,-0.419 0.116,-0.472C0.167,-0.526 0.23,-0.553 0.307,-0.553C0.384,-0.553 0.443,-0.53 0.487,-0.484C0.53,-0.437 0.551,-0.374 0.551,-0.292L0.551,-0.226ZM0.404,-0.324C0.404,-0.405 0.372,-0.445 0.306,-0.445C0.279,-0.445 0.255,-0.434 0.234,-0.412C0.214,-0.39 0.201,-0.361 0.195,-0.324L0.404,-0.324Z" style="fill:rgb(10,1,1);fill-rule:nonzero;"/>
                </g>
                <g transform="matrix(9,0,0,9,92.6386,347.267)">
                    <path d="M0.416,-0.397C0.397,-0.408 0.374,-0.414 0.346,-0.414C0.31,-0.414 0.282,-0.4 0.261,-0.373C0.24,-0.345 0.229,-0.308 0.229,-0.26L0.229,0L0.072,0L0.072,-0.54L0.229,-0.54L0.229,-0.438L0.231,-0.438C0.257,-0.512 0.305,-0.549 0.374,-0.549C0.392,-0.549 0.406,-0.547 0.416,-0.543L0.416,-0.397Z" style="fill:rgb(10,1,1);fill-rule:nonzero;"/>
                </g>
            </g>
            <g transform="matrix(1.198,0,0,0.958552,893.495,-231.786)">
                <g transform="matrix(9,0,0,9,68.6657,347.267)">
                    <path d="M0.058,-0.145C0.112,-0.112 0.165,-0.096 0.216,-0.096C0.281,-0.096 0.314,-0.113 0.314,-0.148C0.314,-0.173 0.287,-0.193 0.233,-0.21C0.166,-0.231 0.12,-0.254 0.095,-0.28C0.07,-0.305 0.058,-0.34 0.058,-0.383C0.058,-0.436 0.079,-0.478 0.122,-0.508C0.165,-0.538 0.221,-0.553 0.291,-0.553C0.34,-0.553 0.388,-0.546 0.434,-0.531L0.434,-0.407C0.392,-0.432 0.346,-0.444 0.295,-0.444C0.27,-0.444 0.25,-0.44 0.235,-0.431C0.22,-0.422 0.212,-0.41 0.212,-0.396C0.212,-0.371 0.235,-0.351 0.28,-0.335C0.329,-0.319 0.366,-0.304 0.39,-0.291C0.415,-0.278 0.434,-0.26 0.447,-0.238C0.459,-0.216 0.466,-0.191 0.466,-0.163C0.466,-0.107 0.444,-0.064 0.399,-0.033C0.354,-0.002 0.295,0.013 0.22,0.013C0.162,0.013 0.107,0.004 0.058,-0.015L0.058,-0.145Z" style="fill:rgb(10,1,1);fill-rule:nonzero;"/>
                </g>
                <g transform="matrix(9,0,0,9,73.2436,347.267)">
                    <path d="M0.39,-0.006C0.366,0.007 0.33,0.013 0.282,0.013C0.167,0.013 0.11,-0.047 0.11,-0.167L0.11,-0.422L0.021,-0.422L0.021,-0.54L0.11,-0.54L0.11,-0.659L0.267,-0.704L0.267,-0.54L0.39,-0.54L0.39,-0.422L0.267,-0.422L0.267,-0.195C0.267,-0.137 0.289,-0.108 0.335,-0.108C0.353,-0.108 0.371,-0.114 0.39,-0.124L0.39,-0.006Z" style="fill:rgb(10,1,1);fill-rule:nonzero;"/>
                </g>
                <g transform="matrix(6.6,0,0,6.6,77.1051,347.267)">
                    <path d="M0.106,0.032L0.043,-0.021L0.122,-0.115C0.067,-0.183 0.04,-0.268 0.04,-0.368C0.04,-0.487 0.075,-0.584 0.144,-0.658C0.213,-0.732 0.305,-0.769 0.418,-0.769C0.5,-0.769 0.571,-0.748 0.63,-0.706L0.698,-0.785L0.761,-0.733L0.689,-0.65C0.748,-0.581 0.778,-0.493 0.778,-0.384C0.778,-0.266 0.743,-0.17 0.674,-0.097C0.605,-0.023 0.516,0.013 0.406,0.013C0.32,0.013 0.246,-0.011 0.182,-0.059L0.106,0.032ZM0.54,-0.6C0.506,-0.628 0.463,-0.642 0.413,-0.642C0.349,-0.642 0.297,-0.617 0.258,-0.569C0.218,-0.52 0.199,-0.455 0.199,-0.375C0.199,-0.319 0.208,-0.273 0.227,-0.234L0.54,-0.6ZM0.275,-0.165C0.311,-0.131 0.356,-0.114 0.409,-0.114C0.473,-0.114 0.524,-0.137 0.563,-0.184C0.601,-0.231 0.62,-0.294 0.62,-0.374C0.62,-0.435 0.61,-0.488 0.588,-0.533L0.275,-0.165Z" style="fill-rule:nonzero;"/>
                </g>
                <g transform="matrix(9,0,0,9,82.6053,347.267)">
                    <path d="M0.551,-0.226L0.196,-0.226C0.201,-0.142 0.252,-0.1 0.347,-0.1C0.407,-0.1 0.459,-0.115 0.505,-0.144L0.505,-0.028C0.456,-0.001 0.391,0.013 0.312,0.013C0.226,0.013 0.159,-0.011 0.111,-0.06C0.063,-0.108 0.04,-0.176 0.04,-0.262C0.04,-0.348 0.065,-0.419 0.116,-0.472C0.167,-0.526 0.23,-0.553 0.307,-0.553C0.384,-0.553 0.443,-0.53 0.487,-0.484C0.53,-0.437 0.551,-0.374 0.551,-0.292L0.551,-0.226ZM0.404,-0.324C0.404,-0.405 0.372,-0.445 0.306,-0.445C0.279,-0.445 0.255,-0.434 0.234,-0.412C0.214,-0.39 0.201,-0.361 0.195,-0.324L0.404,-0.324Z" style="fill:rgb(10,1,1);fill-rule:nonzero;"/>
                </g>
                <g transform="matrix(9,0,0,9,87.9786,347.267)">
                    <path d="M0.416,-0.397C0.397,-0.408 0.374,-0.414 0.346,-0.414C0.31,-0.414 0.282,-0.4 0.261,-0.373C0.24,-0.345 0.229,-0.308 0.229,-0.26L0.229,0L0.072,0L0.072,-0.54L0.229,-0.54L0.229,-0.438L0.231,-0.438C0.257,-0.512 0.305,-0.549 0.374,-0.549C0.392,-0.549 0.406,-0.547 0.416,-0.543L0.416,-0.397Z" style="fill:rgb(10,1,1);fill-rule:nonzero;"/>
                </g>
            </g>
        </g>
        <g transform="matrix(4.35697,0,0,2.03501,1093.86,-617.315)">
            <rect x="-30.034" y="347.456" width="169.102" height="16.91" style="fill:rgb(4,4,4);fill-opacity:0.3;"/>
        </g>
        <g transform="matrix(4.35697,0,0,2.38646,1093.86,-1069.43)">
            <rect x="-30.034" y="347.456" width="169.102" height="16.91" style="fill:rgb(4,4,4);fill-opacity:0.3;"/>
        </g>
        <g transform="matrix(32.8962,0,0,25.5659,-266.911,-292.473)">
            <rect x="37.388" y="2.043" width="22.397" height="14.247" style="fill:none;stroke:black;stroke-opacity:0.6;stroke-width:0.02px;"/>
        </g>
        <g transform="matrix(1.61979,0,0,1.10775,1207.6,-7.81784)">
            <path d="M73.138,60.385C73.138,58.475 71.812,56.924 70.179,56.924L5.107,56.924L5.107,83.704L70.179,83.704C71.812,83.704 73.138,82.153 73.138,80.243L73.138,60.385Z" style="fill:white;fill-opacity:0.7;"/>
        </g>
        <g transform="matrix(1.198,-1.2326e-32,0,0.958552,1176.1,22.2406)">
            <g transform="matrix(6.4,0,0,6.4,36.5339,51.8924)">
                <path d="M0.052,-0.139L0.212,-0.373L0.077,-0.581C0.064,-0.601 0.055,-0.619 0.049,-0.633C0.042,-0.648 0.039,-0.661 0.039,-0.675C0.039,-0.688 0.045,-0.701 0.057,-0.712C0.07,-0.723 0.084,-0.728 0.102,-0.728C0.122,-0.728 0.138,-0.722 0.149,-0.71C0.16,-0.698 0.176,-0.676 0.196,-0.644L0.303,-0.47L0.418,-0.644C0.427,-0.659 0.435,-0.671 0.442,-0.682C0.449,-0.692 0.455,-0.701 0.461,-0.708C0.468,-0.714 0.475,-0.719 0.482,-0.723C0.49,-0.726 0.499,-0.728 0.509,-0.728C0.527,-0.728 0.542,-0.723 0.553,-0.712C0.565,-0.701 0.571,-0.688 0.571,-0.673C0.571,-0.651 0.558,-0.621 0.533,-0.584L0.392,-0.373L0.544,-0.139C0.558,-0.119 0.568,-0.102 0.574,-0.088C0.58,-0.075 0.583,-0.062 0.583,-0.05C0.583,-0.038 0.58,-0.028 0.575,-0.019C0.569,-0.009 0.561,-0.002 0.551,0.004C0.541,0.009 0.53,0.012 0.517,0.012C0.503,0.012 0.492,0.009 0.482,0.004C0.473,-0.002 0.465,-0.009 0.459,-0.018C0.454,-0.026 0.443,-0.042 0.427,-0.067L0.301,-0.265L0.167,-0.061C0.157,-0.045 0.149,-0.033 0.145,-0.027C0.14,-0.02 0.135,-0.014 0.129,-0.008C0.123,-0.002 0.115,0.003 0.107,0.007C0.098,0.01 0.089,0.012 0.077,0.012C0.06,0.012 0.045,0.007 0.033,-0.004C0.022,-0.015 0.016,-0.03 0.016,-0.051C0.016,-0.075 0.028,-0.104 0.052,-0.139Z" style="fill-rule:nonzero;"/>
            </g>
            <g transform="matrix(6.4,0,0,6.4,40.2716,51.8924)">
                <path d="M0.258,-0.629L0.121,-0.066C0.117,-0.047 0.113,-0.033 0.109,-0.022C0.106,-0.011 0.101,-0.003 0.094,0.003C0.087,0.009 0.076,0.012 0.063,0.012C0.03,0.012 0.013,-0.002 0.013,-0.031C0.013,-0.038 0.016,-0.057 0.023,-0.087L0.159,-0.65C0.166,-0.68 0.173,-0.7 0.18,-0.711C0.186,-0.722 0.199,-0.728 0.218,-0.728C0.234,-0.728 0.247,-0.724 0.255,-0.716C0.264,-0.708 0.268,-0.698 0.268,-0.684C0.268,-0.674 0.265,-0.656 0.258,-0.629Z" style="fill-rule:nonzero;"/>
            </g>
            <g transform="matrix(6.4,0,0,6.4,41.9404,51.8924)">
                <path d="M0.238,-0.076L0.238,-0.303L0.063,-0.574C0.048,-0.599 0.037,-0.618 0.031,-0.631C0.024,-0.645 0.021,-0.657 0.021,-0.667C0.021,-0.684 0.027,-0.698 0.04,-0.71C0.053,-0.722 0.069,-0.728 0.088,-0.728C0.108,-0.728 0.123,-0.722 0.133,-0.711C0.143,-0.7 0.159,-0.678 0.179,-0.644L0.313,-0.427L0.448,-0.644C0.456,-0.657 0.463,-0.669 0.469,-0.678C0.474,-0.687 0.48,-0.695 0.487,-0.703C0.494,-0.711 0.501,-0.717 0.509,-0.722C0.517,-0.726 0.527,-0.728 0.539,-0.728C0.557,-0.728 0.573,-0.722 0.585,-0.71C0.597,-0.698 0.603,-0.685 0.603,-0.669C0.603,-0.656 0.6,-0.644 0.594,-0.631C0.588,-0.618 0.577,-0.601 0.562,-0.578L0.383,-0.303L0.383,-0.076C0.383,-0.047 0.376,-0.024 0.362,-0.01C0.349,0.005 0.331,0.012 0.31,0.012C0.289,0.012 0.271,0.005 0.258,-0.01C0.244,-0.024 0.238,-0.046 0.238,-0.076Z" style="fill-rule:nonzero;"/>
            </g>
        </g>
        <g transform="matrix(0.859518,0,0,1.10775,1153.01,-7.81784)">
            <path d="M73.138,56.924L10.682,56.924C7.605,56.924 5.107,58.475 5.107,60.385L5.107,80.243C5.107,82.153 7.605,83.704 10.682,83.704L73.138,83.704L73.138,56.924Z" style="fill-opacity:0.8;"/>
        </g>
        <g transform="matrix(2.53404,0,0,1.09885,960.653,-7.31091)">
            <path d="M73.138,60.413C73.138,58.487 72.29,56.924 71.246,56.924L6.998,56.924C5.954,56.924 5.107,58.487 5.107,60.413L5.107,80.215C5.107,82.14 5.954,83.704 6.998,83.704L71.246,83.704C72.29,83.704 73.138,82.14 73.138,80.215L73.138,60.413Z" style="fill-opacity:0.8;"/>
        </g>
        <g transform="matrix(2.53404,0,0,1.09885,1503.84,-7.31091)">
            <path d="M73.138,60.413C73.138,58.487 72.29,56.924 71.246,56.924L6.998,56.924C5.954,56.924 5.107,58.487 5.107,60.413L5.107,80.215C5.107,82.14 5.954,83.704 6.998,83.704L71.246,83.704C72.29,83.704 73.138,82.14 73.138,80.215L73.138,60.413Z" style="fill-opacity:0.8;"/>
        </g>
        <g transform="matrix(1.198,-1.2326e-32,0,0.958552,1122.04,22.2406)">
            <g transform="matrix(6.4,0,0,6.4,33.9276,51.8924)">
                <path d="M0.32,-0.108L0.205,-0.564L0.205,-0.07C0.205,-0.042 0.199,-0.022 0.187,-0.008C0.175,0.005 0.158,0.012 0.138,0.012C0.119,0.012 0.103,0.005 0.09,-0.008C0.078,-0.022 0.072,-0.042 0.072,-0.07L0.072,-0.636C0.072,-0.667 0.08,-0.689 0.096,-0.699C0.112,-0.71 0.134,-0.716 0.162,-0.716L0.207,-0.716C0.234,-0.716 0.254,-0.713 0.266,-0.708C0.278,-0.704 0.287,-0.695 0.293,-0.682C0.299,-0.669 0.306,-0.649 0.313,-0.62L0.417,-0.228L0.521,-0.62C0.528,-0.649 0.535,-0.669 0.541,-0.682C0.547,-0.695 0.556,-0.704 0.568,-0.708C0.58,-0.713 0.6,-0.716 0.627,-0.716L0.672,-0.716C0.7,-0.716 0.722,-0.71 0.738,-0.699C0.754,-0.689 0.762,-0.667 0.762,-0.636L0.762,-0.07C0.762,-0.042 0.756,-0.022 0.744,-0.008C0.732,0.005 0.715,0.012 0.695,0.012C0.676,0.012 0.66,0.005 0.647,-0.008C0.635,-0.022 0.629,-0.042 0.629,-0.07L0.629,-0.564L0.514,-0.108C0.507,-0.078 0.501,-0.057 0.496,-0.043C0.491,-0.029 0.482,-0.016 0.47,-0.005C0.457,0.007 0.439,0.012 0.417,0.012C0.4,0.012 0.386,0.009 0.374,0.001C0.362,-0.006 0.353,-0.015 0.347,-0.027C0.34,-0.038 0.335,-0.051 0.331,-0.065C0.328,-0.079 0.324,-0.093 0.32,-0.108Z" style="fill:white;fill-rule:nonzero;"/>
            </g>
            <g transform="matrix(6.4,0,0,6.4,39.1309,51.8924)">
                <path d="M0.084,-0.076L0.084,-0.64C0.084,-0.669 0.091,-0.691 0.104,-0.706C0.117,-0.721 0.135,-0.728 0.156,-0.728C0.178,-0.728 0.195,-0.721 0.209,-0.706C0.222,-0.692 0.229,-0.67 0.229,-0.64L0.229,-0.076C0.229,-0.047 0.222,-0.024 0.209,-0.01C0.195,0.005 0.178,0.012 0.156,0.012C0.135,0.012 0.118,0.005 0.104,-0.01C0.091,-0.025 0.084,-0.047 0.084,-0.076Z" style="fill:white;fill-rule:nonzero;"/>
            </g>
            <g transform="matrix(6.4,0,0,6.4,41.006,51.8924)">
                <path d="M0.052,-0.139L0.212,-0.373L0.077,-0.581C0.064,-0.601 0.055,-0.619 0.049,-0.633C0.042,-0.648 0.039,-0.661 0.039,-0.675C0.039,-0.688 0.045,-0.701 0.057,-0.712C0.07,-0.723 0.084,-0.728 0.102,-0.728C0.122,-0.728 0.138,-0.722 0.149,-0.71C0.16,-0.698 0.176,-0.676 0.196,-0.644L0.303,-0.47L0.418,-0.644C0.427,-0.659 0.435,-0.671 0.442,-0.682C0.449,-0.692 0.455,-0.701 0.461,-0.708C0.468,-0.714 0.475,-0.719 0.482,-0.723C0.49,-0.726 0.499,-0.728 0.509,-0.728C0.527,-0.728 0.542,-0.723 0.553,-0.712C0.565,-0.701 0.571,-0.688 0.571,-0.673C0.571,-0.651 0.558,-0.621 0.533,-0.584L0.392,-0.373L0.544,-0.139C0.558,-0.119 0.568,-0.102 0.574,-0.088C0.58,-0.075 0.583,-0.062 0.583,-0.05C0.583,-0.038 0.58,-0.028 0.575,-0.019C0.569,-0.009 0.561,-0.002 0.551,0.004C0.541,0.009 0.53,0.012 0.517,0.012C0.503,0.012 0.492,0.009 0.482,0.004C0.473,-0.002 0.465,-0.009 0.459,-0.018C0.454,-0.026 0.443,-0.042 0.427,-0.067L0.301,-0.265L0.167,-0.061C0.157,-0.045 0.149,-0.033 0.145,-0.027C0.14,-0.02 0.135,-0.014 0.129,-0.008C0.123,-0.002 0.115,0.003 0.107,0.007C0.098,0.01 0.089,0.012 0.077,0.012C0.06,0.012 0.045,0.007 0.033,-0.004C0.022,-0.015 0.016,-0.03 0.016,-0.051C0.016,-0.075 0.028,-0.104 0.052,-0.139Z" style="fill:white;fill-rule:nonzero;"/>
            </g>
            <g transform="matrix(6.4,0,0,6.4,44.7436,51.8924)">
                <path d="M0.282,-0.067L0.282,-0.511C0.2,-0.448 0.144,-0.416 0.115,-0.416C0.102,-0.416 0.089,-0.421 0.079,-0.432C0.068,-0.443 0.063,-0.456 0.063,-0.47C0.063,-0.487 0.068,-0.499 0.079,-0.507C0.089,-0.515 0.107,-0.525 0.134,-0.537C0.173,-0.556 0.205,-0.575 0.228,-0.596C0.252,-0.616 0.273,-0.639 0.291,-0.665C0.309,-0.69 0.321,-0.706 0.327,-0.711C0.332,-0.717 0.343,-0.72 0.358,-0.72C0.375,-0.72 0.389,-0.714 0.399,-0.7C0.41,-0.687 0.415,-0.668 0.415,-0.645L0.415,-0.086C0.415,-0.021 0.393,0.012 0.348,0.012C0.328,0.012 0.312,0.006 0.3,-0.008C0.288,-0.021 0.282,-0.041 0.282,-0.067Z" style="fill:white;fill-rule:nonzero;"/>
            </g>
        </g>
        <g transform="matrix(1.198,-1.2326e-32,0,0.958552,1082.03,22.2406)">
            <g transform="matrix(6.4,0,0,6.4,34.3996,51.8924)">
                <path d="M0.393,-0.728C0.467,-0.728 0.531,-0.713 0.584,-0.683C0.637,-0.653 0.678,-0.61 0.705,-0.554C0.732,-0.499 0.746,-0.434 0.746,-0.359C0.746,-0.304 0.739,-0.253 0.724,-0.208C0.709,-0.163 0.686,-0.124 0.656,-0.09C0.626,-0.057 0.59,-0.032 0.546,-0.014C0.502,0.003 0.452,0.012 0.396,0.012C0.34,0.012 0.29,0.003 0.246,-0.015C0.201,-0.033 0.164,-0.058 0.135,-0.091C0.105,-0.124 0.083,-0.164 0.068,-0.21C0.052,-0.256 0.045,-0.306 0.045,-0.36C0.045,-0.415 0.053,-0.465 0.069,-0.511C0.084,-0.557 0.107,-0.596 0.137,-0.628C0.167,-0.661 0.204,-0.685 0.247,-0.702C0.29,-0.719 0.338,-0.728 0.393,-0.728ZM0.599,-0.36C0.599,-0.412 0.591,-0.458 0.574,-0.496C0.557,-0.535 0.533,-0.564 0.501,-0.583C0.47,-0.603 0.434,-0.613 0.393,-0.613C0.364,-0.613 0.337,-0.607 0.313,-0.596C0.288,-0.586 0.267,-0.57 0.249,-0.549C0.232,-0.528 0.218,-0.501 0.207,-0.469C0.197,-0.437 0.192,-0.4 0.192,-0.36C0.192,-0.319 0.197,-0.282 0.207,-0.25C0.218,-0.217 0.232,-0.189 0.251,-0.168C0.269,-0.146 0.291,-0.13 0.315,-0.119C0.339,-0.108 0.366,-0.103 0.395,-0.103C0.432,-0.103 0.466,-0.112 0.497,-0.131C0.528,-0.149 0.553,-0.178 0.572,-0.217C0.59,-0.256 0.599,-0.303 0.599,-0.36Z" style="fill:white;fill-rule:nonzero;"/>
            </g>
            <g transform="matrix(6.4,0,0,6.4,39.3403,51.8924)">
                <path d="M0.079,-0.296L0.079,-0.64C0.079,-0.669 0.086,-0.691 0.099,-0.706C0.112,-0.721 0.129,-0.728 0.151,-0.728C0.173,-0.728 0.191,-0.721 0.204,-0.706C0.218,-0.691 0.224,-0.669 0.224,-0.64L0.224,-0.288C0.224,-0.248 0.229,-0.215 0.238,-0.188C0.247,-0.161 0.262,-0.14 0.285,-0.125C0.308,-0.11 0.34,-0.103 0.381,-0.103C0.438,-0.103 0.478,-0.118 0.501,-0.148C0.524,-0.178 0.536,-0.224 0.536,-0.285L0.536,-0.64C0.536,-0.67 0.543,-0.692 0.556,-0.706C0.569,-0.721 0.586,-0.728 0.608,-0.728C0.63,-0.728 0.647,-0.721 0.661,-0.706C0.674,-0.692 0.681,-0.67 0.681,-0.64L0.681,-0.296C0.681,-0.24 0.676,-0.193 0.665,-0.156C0.654,-0.118 0.633,-0.085 0.603,-0.057C0.577,-0.033 0.547,-0.015 0.512,-0.004C0.478,0.007 0.437,0.012 0.391,0.012C0.336,0.012 0.289,0.006 0.249,-0.006C0.209,-0.017 0.177,-0.036 0.152,-0.061C0.127,-0.086 0.108,-0.118 0.097,-0.156C0.085,-0.195 0.079,-0.242 0.079,-0.296Z" style="fill:white;fill-rule:nonzero;"/>
            </g>
            <g transform="matrix(6.4,0,0,6.4,44.0748,51.8924)">
                <path d="M0.543,-0.596L0.385,-0.596L0.385,-0.076C0.385,-0.046 0.378,-0.024 0.365,-0.01C0.351,0.005 0.334,0.012 0.313,0.012C0.292,0.012 0.274,0.005 0.26,-0.01C0.247,-0.024 0.24,-0.047 0.24,-0.076L0.24,-0.596L0.082,-0.596C0.057,-0.596 0.039,-0.602 0.027,-0.613C0.015,-0.623 0.009,-0.638 0.009,-0.656C0.009,-0.674 0.015,-0.689 0.028,-0.7C0.04,-0.71 0.058,-0.716 0.082,-0.716L0.543,-0.716C0.568,-0.716 0.587,-0.71 0.599,-0.699C0.611,-0.688 0.617,-0.674 0.617,-0.656C0.617,-0.638 0.611,-0.623 0.599,-0.613C0.586,-0.602 0.568,-0.596 0.543,-0.596Z" style="fill:white;fill-rule:nonzero;"/>
            </g>
        </g>
        <g transform="matrix(1.198,-1.2326e-32,0,0.958552,1481.67,21.9814)">
            <g transform="matrix(6.4,0,0,6.4,34.3996,51.8924)">
                <path d="M0.393,-0.728C0.467,-0.728 0.531,-0.713 0.584,-0.683C0.637,-0.653 0.678,-0.61 0.705,-0.554C0.732,-0.499 0.746,-0.434 0.746,-0.359C0.746,-0.304 0.739,-0.253 0.724,-0.208C0.709,-0.163 0.686,-0.124 0.656,-0.09C0.626,-0.057 0.59,-0.032 0.546,-0.014C0.502,0.003 0.452,0.012 0.396,0.012C0.34,0.012 0.29,0.003 0.246,-0.015C0.201,-0.033 0.164,-0.058 0.135,-0.091C0.105,-0.124 0.083,-0.164 0.068,-0.21C0.052,-0.256 0.045,-0.306 0.045,-0.36C0.045,-0.415 0.053,-0.465 0.069,-0.511C0.084,-0.557 0.107,-0.596 0.137,-0.628C0.167,-0.661 0.204,-0.685 0.247,-0.702C0.29,-0.719 0.338,-0.728 0.393,-0.728ZM0.599,-0.36C0.599,-0.412 0.591,-0.458 0.574,-0.496C0.557,-0.535 0.533,-0.564 0.501,-0.583C0.47,-0.603 0.434,-0.613 0.393,-0.613C0.364,-0.613 0.337,-0.607 0.313,-0.596C0.288,-0.586 0.267,-0.57 0.249,-0.549C0.232,-0.528 0.218,-0.501 0.207,-0.469C0.197,-0.437 0.192,-0.4 0.192,-0.36C0.192,-0.319 0.197,-0.282 0.207,-0.25C0.218,-0.217 0.232,-0.189 0.251,-0.168C0.269,-0.146 0.291,-0.13 0.315,-0.119C0.339,-0.108 0.366,-0.103 0.395,-0.103C0.432,-0.103 0.466,-0.112 0.497,-0.131C0.528,-0.149 0.553,-0.178 0.572,-0.217C0.59,-0.256 0.599,-0.303 0.599,-0.36Z" style="fill:white;fill-rule:nonzero;"/>
            </g>
            <g transform="matrix(6.4,0,0,6.4,39.3403,51.8924)">
                <path d="M0.079,-0.296L0.079,-0.64C0.079,-0.669 0.086,-0.691 0.099,-0.706C0.112,-0.721 0.129,-0.728 0.151,-0.728C0.173,-0.728 0.191,-0.721 0.204,-0.706C0.218,-0.691 0.224,-0.669 0.224,-0.64L0.224,-0.288C0.224,-0.248 0.229,-0.215 0.238,-0.188C0.247,-0.161 0.262,-0.14 0.285,-0.125C0.308,-0.11 0.34,-0.103 0.381,-0.103C0.438,-0.103 0.478,-0.118 0.501,-0.148C0.524,-0.178 0.536,-0.224 0.536,-0.285L0.536,-0.64C0.536,-0.67 0.543,-0.692 0.556,-0.706C0.569,-0.721 0.586,-0.728 0.608,-0.728C0.63,-0.728 0.647,-0.721 0.661,-0.706C0.674,-0.692 0.681,-0.67 0.681,-0.64L0.681,-0.296C0.681,-0.24 0.676,-0.193 0.665,-0.156C0.654,-0.118 0.633,-0.085 0.603,-0.057C0.577,-0.033 0.547,-0.015 0.512,-0.004C0.478,0.007 0.437,0.012 0.391,0.012C0.336,0.012 0.289,0.006 0.249,-0.006C0.209,-0.017 0.177,-0.036 0.152,-0.061C0.127,-0.086 0.108,-0.118 0.097,-0.156C0.085,-0.195 0.079,-0.242 0.079,-0.296Z" style="fill:white;fill-rule:nonzero;"/>
            </g>
            <g transform="matrix(6.4,0,0,6.4,44.0748,51.8924)">
                <path d="M0.543,-0.596L0.385,-0.596L0.385,-0.076C0.385,-0.046 0.378,-0.024 0.365,-0.01C0.351,0.005 0.334,0.012 0.313,0.012C0.292,0.012 0.274,0.005 0.26,-0.01C0.247,-0.024 0.24,-0.047 0.24,-0.076L0.24,-0.596L0.082,-0.596C0.057,-0.596 0.039,-0.602 0.027,-0.613C0.015,-0.623 0.009,-0.638 0.009,-0.656C0.009,-0.674 0.015,-0.689 0.028,-0.7C0.04,-0.71 0.058,-0.716 0.082,-0.716L0.543,-0.716C0.568,-0.716 0.587,-0.71 0.599,-0.699C0.611,-0.688 0.617,-0.674 0.617,-0.656C0.617,-0.638 0.611,-0.623 0.599,-0.613C0.586,-0.602 0.568,-0.596 0.543,-0.596Z" style="fill:white;fill-rule:nonzero;"/>
            </g>
        </g>
        <g transform="matrix(2.53404,0,0,4.20435,960.653,-401.948)">
            <rect x="5.107" y="56.924" width="68.031" height="26.78" style="fill:white;fill-opacity:0.5;"/>
        </g>
        <g transform="matrix(2.53404,0,0,2.55336,960.653,-195.374)">
            <path d="M73.138,56.924L5.107,56.924L5.107,82.202C5.107,83.031 5.954,83.704 6.998,83.704L71.246,83.704C72.29,83.704 73.138,83.031 73.138,82.202L73.138,56.924Z" style="fill:white;fill-opacity:0.8;"/>
        </g>
        <g transform="matrix(2.53404,0,0,1.09779,960.653,-254.51)">
            <path d="M73.138,60.416C73.138,58.489 72.29,56.924 71.246,56.924L6.998,56.924C5.954,56.924 5.107,58.489 5.107,60.416L5.107,83.704L73.138,83.704L73.138,60.416Z" style="fill:white;fill-opacity:0.8;"/>
        </g>
        <g transform="matrix(2.53404,0,0,4.20435,1503.84,-401.948)">
            <rect x="5.107" y="56.924" width="68.031" height="26.78" style="fill:white;fill-opacity:0.5;"/>
        </g>
        <g transform="matrix(2.53404,0,0,2.55336,1503.84,-195.374)">
            <path d="M73.138,56.924L5.107,56.924L5.107,82.202C5.107,83.031 5.954,83.704 6.998,83.704L71.246,83.704C72.29,83.704 73.138,83.031 73.138,82.202L73.138,56.924Z" style="fill:white;fill-opacity:0.8;"/>
        </g>
        <g transform="matrix(2.53404,0,0,1.09779,1503.84,-254.51)">
            <path d="M73.138,60.416C73.138,58.489 72.29,56.924 71.246,56.924L6.998,56.924C5.954,56.924 5.107,58.489 5.107,60.416L5.107,83.704L73.138,83.704L73.138,60.416Z" style="fill:white;fill-opacity:0.8;"/>
        </g>
        <g transform="matrix(1.61979,0,0,1.10775,1328.43,-7.81784)">
            <path d="M73.138,56.924L8.065,56.924C6.433,56.924 5.107,58.475 5.107,60.385L5.107,80.243C5.107,82.153 6.433,83.704 8.065,83.704L73.138,83.704L73.138,56.924Z" style="fill:white;fill-opacity:0.7;"/>
        </g>
        <g transform="matrix(0.859518,0,0,1.10775,1442.51,-7.81784)">
            <path d="M73.138,60.385C73.138,58.475 70.639,56.924 67.562,56.924L5.107,56.924L5.107,83.704L67.562,83.704C70.639,83.704 73.138,82.153 73.138,80.243L73.138,60.385Z" style="fill-opacity:0.8;"/>
        </g>
        <g transform="matrix(1.198,0,0,0.958552,1388.47,22.2406)">
            <g transform="matrix(6.4,0,0,6.4,36.5339,51.8924)">
                <path d="M0.052,-0.139L0.212,-0.373L0.077,-0.581C0.064,-0.601 0.055,-0.619 0.049,-0.633C0.042,-0.648 0.039,-0.661 0.039,-0.675C0.039,-0.688 0.045,-0.701 0.057,-0.712C0.07,-0.723 0.084,-0.728 0.102,-0.728C0.122,-0.728 0.138,-0.722 0.149,-0.71C0.16,-0.698 0.176,-0.676 0.196,-0.644L0.303,-0.47L0.418,-0.644C0.427,-0.659 0.435,-0.671 0.442,-0.682C0.449,-0.692 0.455,-0.701 0.461,-0.708C0.468,-0.714 0.475,-0.719 0.482,-0.723C0.49,-0.726 0.499,-0.728 0.509,-0.728C0.527,-0.728 0.542,-0.723 0.553,-0.712C0.565,-0.701 0.571,-0.688 0.571,-0.673C0.571,-0.651 0.558,-0.621 0.533,-0.584L0.392,-0.373L0.544,-0.139C0.558,-0.119 0.568,-0.102 0.574,-0.088C0.58,-0.075 0.583,-0.062 0.583,-0.05C0.583,-0.038 0.58,-0.028 0.575,-0.019C0.569,-0.009 0.561,-0.002 0.551,0.004C0.541,0.009 0.53,0.012 0.517,0.012C0.503,0.012 0.492,0.009 0.482,0.004C0.473,-0.002 0.465,-0.009 0.459,-0.018C0.454,-0.026 0.443,-0.042 0.427,-0.067L0.301,-0.265L0.167,-0.061C0.157,-0.045 0.149,-0.033 0.145,-0.027C0.14,-0.02 0.135,-0.014 0.129,-0.008C0.123,-0.002 0.115,0.003 0.107,0.007C0.098,0.01 0.089,0.012 0.077,0.012C0.06,0.012 0.045,0.007 0.033,-0.004C0.022,-0.015 0.016,-0.03 0.016,-0.051C0.016,-0.075 0.028,-0.104 0.052,-0.139Z" style="fill-rule:nonzero;"/>
            </g>
            <g transform="matrix(6.4,0,0,6.4,40.2716,51.8924)">
                <path d="M0.258,-0.629L0.121,-0.066C0.117,-0.047 0.113,-0.033 0.109,-0.022C0.106,-0.011 0.101,-0.003 0.094,0.003C0.087,0.009 0.076,0.012 0.063,0.012C0.03,0.012 0.013,-0.002 0.013,-0.031C0.013,-0.038 0.016,-0.057 0.023,-0.087L0.159,-0.65C0.166,-0.68 0.173,-0.7 0.18,-0.711C0.186,-0.722 0.199,-0.728 0.218,-0.728C0.234,-0.728 0.247,-0.724 0.255,-0.716C0.264,-0.708 0.268,-0.698 0.268,-0.684C0.268,-0.674 0.265,-0.656 0.258,-0.629Z" style="fill-rule:nonzero;"/>
            </g>
            <g transform="matrix(6.4,0,0,6.4,41.9404,51.8924)">
                <path d="M0.238,-0.076L0.238,-0.303L0.063,-0.574C0.048,-0.599 0.037,-0.618 0.031,-0.631C0.024,-0.645 0.021,-0.657 0.021,-0.667C0.021,-0.684 0.027,-0.698 0.04,-0.71C0.053,-0.722 0.069,-0.728 0.088,-0.728C0.108,-0.728 0.123,-0.722 0.133,-0.711C0.143,-0.7 0.159,-0.678 0.179,-0.644L0.313,-0.427L0.448,-0.644C0.456,-0.657 0.463,-0.669 0.469,-0.678C0.474,-0.687 0.48,-0.695 0.487,-0.703C0.494,-0.711 0.501,-0.717 0.509,-0.722C0.517,-0.726 0.527,-0.728 0.539,-0.728C0.557,-0.728 0.573,-0.722 0.585,-0.71C0.597,-0.698 0.603,-0.685 0.603,-0.669C0.603,-0.656 0.6,-0.644 0.594,-0.631C0.588,-0.618 0.577,-0.601 0.562,-0.578L0.383,-0.303L0.383,-0.076C0.383,-0.047 0.376,-0.024 0.362,-0.01C0.349,0.005 0.331,0.012 0.31,0.012C0.289,0.012 0.271,0.005 0.258,-0.01C0.244,-0.024 0.238,-0.046 0.238,-0.076Z" style="fill-rule:nonzero;"/>
            </g>
        </g>
        <g transform="matrix(1.198,0,0,0.958552,1442.01,22.2406)">
            <g transform="matrix(6.4,0,0,6.4,33.9276,51.8924)">
                <path d="M0.32,-0.108L0.205,-0.564L0.205,-0.07C0.205,-0.042 0.199,-0.022 0.187,-0.008C0.175,0.005 0.158,0.012 0.138,0.012C0.119,0.012 0.103,0.005 0.09,-0.008C0.078,-0.022 0.072,-0.042 0.072,-0.07L0.072,-0.636C0.072,-0.667 0.08,-0.689 0.096,-0.699C0.112,-0.71 0.134,-0.716 0.162,-0.716L0.207,-0.716C0.234,-0.716 0.254,-0.713 0.266,-0.708C0.278,-0.704 0.287,-0.695 0.293,-0.682C0.299,-0.669 0.306,-0.649 0.313,-0.62L0.417,-0.228L0.521,-0.62C0.528,-0.649 0.535,-0.669 0.541,-0.682C0.547,-0.695 0.556,-0.704 0.568,-0.708C0.58,-0.713 0.6,-0.716 0.627,-0.716L0.672,-0.716C0.7,-0.716 0.722,-0.71 0.738,-0.699C0.754,-0.689 0.762,-0.667 0.762,-0.636L0.762,-0.07C0.762,-0.042 0.756,-0.022 0.744,-0.008C0.732,0.005 0.715,0.012 0.695,0.012C0.676,0.012 0.66,0.005 0.647,-0.008C0.635,-0.022 0.629,-0.042 0.629,-0.07L0.629,-0.564L0.514,-0.108C0.507,-0.078 0.501,-0.057 0.496,-0.043C0.491,-0.029 0.482,-0.016 0.47,-0.005C0.457,0.007 0.439,0.012 0.417,0.012C0.4,0.012 0.386,0.009 0.374,0.001C0.362,-0.006 0.353,-0.015 0.347,-0.027C0.34,-0.038 0.335,-0.051 0.331,-0.065C0.328,-0.079 0.324,-0.093 0.32,-0.108Z" style="fill:white;fill-rule:nonzero;"/>
            </g>
            <g transform="matrix(6.4,0,0,6.4,39.1309,51.8924)">
                <path d="M0.084,-0.076L0.084,-0.64C0.084,-0.669 0.091,-0.691 0.104,-0.706C0.117,-0.721 0.135,-0.728 0.156,-0.728C0.178,-0.728 0.195,-0.721 0.209,-0.706C0.222,-0.692 0.229,-0.67 0.229,-0.64L0.229,-0.076C0.229,-0.047 0.222,-0.024 0.209,-0.01C0.195,0.005 0.178,0.012 0.156,0.012C0.135,0.012 0.118,0.005 0.104,-0.01C0.091,-0.025 0.084,-0.047 0.084,-0.076Z" style="fill:white;fill-rule:nonzero;"/>
            </g>
            <g transform="matrix(6.4,0,0,6.4,41.006,51.8924)">
                <path d="M0.052,-0.139L0.212,-0.373L0.077,-0.581C0.064,-0.601 0.055,-0.619 0.049,-0.633C0.042,-0.648 0.039,-0.661 0.039,-0.675C0.039,-0.688 0.045,-0.701 0.057,-0.712C0.07,-0.723 0.084,-0.728 0.102,-0.728C0.122,-0.728 0.138,-0.722 0.149,-0.71C0.16,-0.698 0.176,-0.676 0.196,-0.644L0.303,-0.47L0.418,-0.644C0.427,-0.659 0.435,-0.671 0.442,-0.682C0.449,-0.692 0.455,-0.701 0.461,-0.708C0.468,-0.714 0.475,-0.719 0.482,-0.723C0.49,-0.726 0.499,-0.728 0.509,-0.728C0.527,-0.728 0.542,-0.723 0.553,-0.712C0.565,-0.701 0.571,-0.688 0.571,-0.673C0.571,-0.651 0.558,-0.621 0.533,-0.584L0.392,-0.373L0.544,-0.139C0.558,-0.119 0.568,-0.102 0.574,-0.088C0.58,-0.075 0.583,-0.062 0.583,-0.05C0.583,-0.038 0.58,-0.028 0.575,-0.019C0.569,-0.009 0.561,-0.002 0.551,0.004C0.541,0.009 0.53,0.012 0.517,0.012C0.503,0.012 0.492,0.009 0.482,0.004C0.473,-0.002 0.465,-0.009 0.459,-0.018C0.454,-0.026 0.443,-0.042 0.427,-0.067L0.301,-0.265L0.167,-0.061C0.157,-0.045 0.149,-0.033 0.145,-0.027C0.14,-0.02 0.135,-0.014 0.129,-0.008C0.123,-0.002 0.115,0.003 0.107,0.007C0.098,0.01 0.089,0.012 0.077,0.012C0.06,0.012 0.045,0.007 0.033,-0.004C0.022,-0.015 0.016,-0.03 0.016,-0.051C0.016,-0.075 0.028,-0.104 0.052,-0.139Z" style="fill:white;fill-rule:nonzero;"/>
            </g>
            <g transform="matrix(6.4,0,0,6.4,44.7436,51.8924)">
                <path d="M0.223,-0.115L0.478,-0.115C0.503,-0.115 0.523,-0.11 0.536,-0.1C0.549,-0.089 0.556,-0.075 0.556,-0.057C0.556,-0.041 0.551,-0.028 0.54,-0.017C0.53,-0.006 0.514,0 0.492,0L0.133,0C0.108,0 0.089,-0.007 0.076,-0.02C0.062,-0.034 0.055,-0.05 0.055,-0.068C0.055,-0.08 0.06,-0.095 0.068,-0.115C0.077,-0.134 0.087,-0.149 0.097,-0.16C0.14,-0.205 0.18,-0.244 0.214,-0.276C0.249,-0.308 0.274,-0.329 0.289,-0.339C0.316,-0.358 0.338,-0.377 0.356,-0.396C0.373,-0.415 0.387,-0.434 0.396,-0.454C0.406,-0.474 0.41,-0.494 0.41,-0.513C0.41,-0.534 0.405,-0.553 0.395,-0.569C0.385,-0.586 0.372,-0.598 0.355,-0.607C0.338,-0.617 0.319,-0.621 0.299,-0.621C0.256,-0.621 0.223,-0.602 0.198,-0.565C0.195,-0.56 0.19,-0.547 0.182,-0.525C0.174,-0.503 0.166,-0.486 0.156,-0.475C0.146,-0.463 0.132,-0.457 0.114,-0.457C0.097,-0.457 0.084,-0.462 0.073,-0.473C0.063,-0.484 0.057,-0.499 0.057,-0.517C0.057,-0.54 0.062,-0.563 0.072,-0.587C0.082,-0.612 0.097,-0.634 0.117,-0.654C0.137,-0.674 0.163,-0.69 0.194,-0.702C0.224,-0.714 0.26,-0.72 0.302,-0.72C0.352,-0.72 0.394,-0.712 0.429,-0.697C0.452,-0.686 0.472,-0.672 0.489,-0.654C0.507,-0.636 0.52,-0.615 0.53,-0.591C0.539,-0.567 0.544,-0.542 0.544,-0.516C0.544,-0.476 0.534,-0.439 0.514,-0.406C0.494,-0.373 0.473,-0.347 0.453,-0.328C0.432,-0.31 0.397,-0.28 0.348,-0.24C0.299,-0.2 0.265,-0.169 0.247,-0.147C0.239,-0.138 0.231,-0.128 0.223,-0.115Z" style="fill:white;fill-rule:nonzero;"/>
            </g>
        </g>
        <g transform="matrix(1.70034,0,0,1.15425,1134.77,-252.978)">
            <path d="M217.954,56.134C217.954,54.301 216.692,52.812 215.136,52.812L16.126,52.812C14.57,52.812 13.307,54.301 13.307,56.134L13.307,255.788C13.307,257.621 14.57,259.11 16.126,259.11L215.136,259.11C216.692,259.11 217.954,257.621 217.954,255.788L217.954,56.134Z" style="fill-opacity:0.9;"/>
        </g>
        <g transform="matrix(4.98339,0,0,8.50738,1136.42,-671.147)">
            <path d="M73.138,57.149C73.138,57.025 72.922,56.924 72.657,56.924L5.588,56.924C5.322,56.924 5.107,57.025 5.107,57.149L5.107,83.479C5.107,83.603 5.322,83.704 5.588,83.704L72.657,83.704C72.922,83.704 73.138,83.603 73.138,83.479L73.138,57.149Z" style="fill:rgb(0,10,57);"/>
        </g>
        <g transform="matrix(1.67494,0,0,0.958552,953.06,-240.235)">
            <path d="M25.865,66.635C25.865,66.083 25.544,65.635 25.149,65.635L23.719,65.635C23.324,65.635 23.004,66.083 23.004,66.635L23.004,325.377C23.004,325.929 23.324,326.377 23.719,326.377L25.149,326.377C25.544,326.377 25.865,325.929 25.865,325.377L25.865,66.635Z" style="fill:rgb(128,187,254);fill-opacity:0.8;"/>
        </g>
        <g transform="matrix(1.67494,0,0,0.958552,1062.43,-240.235)">
            <path d="M25.865,66.635C25.865,66.083 25.544,65.635 25.149,65.635L23.719,65.635C23.324,65.635 23.004,66.083 23.004,66.635L23.004,325.377C23.004,325.929 23.324,326.377 23.719,326.377L25.149,326.377C25.544,326.377 25.865,325.929 25.865,325.377L25.865,66.635Z" style="fill:rgb(128,187,254);fill-opacity:0.8;"/>
        </g>
        <g transform="matrix(1.67494,0,0,0.958552,989.515,-240.235)">
            <path d="M25.865,66.635C25.865,66.083 25.544,65.635 25.149,65.635L23.719,65.635C23.324,65.635 23.004,66.083 23.004,66.635L23.004,325.377C23.004,325.929 23.324,326.377 23.719,326.377L25.149,326.377C25.544,326.377 25.865,325.929 25.865,325.377L25.865,66.635Z" style="fill:rgb(128,187,254);fill-opacity:0.8;"/>
        </g>
        <g transform="matrix(1.67494,0,0,0.958552,1025.97,-240.235)">
            <path d="M25.865,66.635C25.865,66.083 25.544,65.635 25.149,65.635L23.719,65.635C23.324,65.635 23.004,66.083 23.004,66.635L23.004,325.377C23.004,325.929 23.324,326.377 23.719,326.377L25.149,326.377C25.544,326.377 25.865,325.929 25.865,325.377L25.865,66.635Z" style="fill:rgb(128,187,254);fill-opacity:0.8;"/>
        </g>
        <g transform="matrix(1.67494,0,0,0.958552,1627.86,-240.235)">
            <path d="M25.865,66.635C25.865,66.083 25.544,65.635 25.149,65.635L23.719,65.635C23.324,65.635 23.004,66.083 23.004,66.635L23.004,325.377C23.004,325.929 23.324,326.377 23.719,326.377L25.149,326.377C25.544,326.377 25.865,325.929 25.865,325.377L25.865,66.635Z" style="fill:rgb(128,187,254);fill-opacity:0.8;"/>
        </g>
        <g transform="matrix(1.67494,0,0,0.958552,1591.29,-240.235)">
            <path d="M25.865,66.635C25.865,66.083 25.544,65.635 25.149,65.635L23.719,65.635C23.324,65.635 23.004,66.083 23.004,66.635L23.004,325.377C23.004,325.929 23.324,326.377 23.719,326.377L25.149,326.377C25.544,326.377 25.865,325.929 25.865,325.377L25.865,66.635Z" style="fill:rgb(128,187,254);fill-opacity:0.8;"/>
        </g>
        <g transform="matrix(1.67494,0,0,0.958552,1554.72,-240.235)">
            <path d="M25.865,66.635C25.865,66.083 25.544,65.635 25.149,65.635L23.719,65.635C23.324,65.635 23.004,66.083 23.004,66.635L23.004,325.377C23.004,325.929 23.324,326.377 23.719,326.377L25.149,326.377C25.544,326.377 25.865,325.929 25.865,325.377L25.865,66.635Z" style="fill:rgb(128,187,254);fill-opacity:0.8;"/>
        </g>
        <g transform="matrix(1.67494,0,0,0.958552,1518.15,-240.235)">
            <path d="M25.865,66.635C25.865,66.083 25.544,65.635 25.149,65.635L23.719,65.635C23.324,65.635 23.004,66.083 23.004,66.635L23.004,325.377C23.004,325.929 23.324,326.377 23.719,326.377L25.149,326.377C25.544,326.377 25.865,325.929 25.865,325.377L25.865,66.635Z" style="fill:rgb(128,187,254);fill-opacity:0.8;"/>
        </g>
        <g transform="matrix(1.198,0,0,0.958552,1081.89,-194.435)">
            <g transform="matrix(6.4,0,0,6.4,39.3044,51.8924)">
                <path d="M0.052,-0.139L0.212,-0.373L0.077,-0.581C0.064,-0.601 0.055,-0.619 0.049,-0.633C0.042,-0.648 0.039,-0.661 0.039,-0.675C0.039,-0.688 0.045,-0.701 0.057,-0.712C0.07,-0.723 0.084,-0.728 0.102,-0.728C0.122,-0.728 0.138,-0.722 0.149,-0.71C0.16,-0.698 0.176,-0.676 0.196,-0.644L0.303,-0.47L0.418,-0.644C0.427,-0.659 0.435,-0.671 0.442,-0.682C0.449,-0.692 0.455,-0.701 0.461,-0.708C0.468,-0.714 0.475,-0.719 0.482,-0.723C0.49,-0.726 0.499,-0.728 0.509,-0.728C0.527,-0.728 0.542,-0.723 0.553,-0.712C0.565,-0.701 0.571,-0.688 0.571,-0.673C0.571,-0.651 0.558,-0.621 0.533,-0.584L0.392,-0.373L0.544,-0.139C0.558,-0.119 0.568,-0.102 0.574,-0.088C0.58,-0.075 0.583,-0.062 0.583,-0.05C0.583,-0.038 0.58,-0.028 0.575,-0.019C0.569,-0.009 0.561,-0.002 0.551,0.004C0.541,0.009 0.53,0.012 0.517,0.012C0.503,0.012 0.492,0.009 0.482,0.004C0.473,-0.002 0.465,-0.009 0.459,-0.018C0.454,-0.026 0.443,-0.042 0.427,-0.067L0.301,-0.265L0.167,-0.061C0.157,-0.045 0.149,-0.033 0.145,-0.027C0.14,-0.02 0.135,-0.014 0.129,-0.008C0.123,-0.002 0.115,0.003 0.107,0.007C0.098,0.01 0.089,0.012 0.077,0.012C0.06,0.012 0.045,0.007 0.033,-0.004C0.022,-0.015 0.016,-0.03 0.016,-0.051C0.016,-0.075 0.028,-0.104 0.052,-0.139Z" style="fill-rule:nonzero;"/>
            </g>
        </g>
        <g transform="matrix(1.198,0,0,0.958552,1081.88,-112.554)">
            <g transform="matrix(6.4,0,0,6.4,39.2372,51.8924)">
                <path d="M0.238,-0.076L0.238,-0.303L0.063,-0.574C0.048,-0.599 0.037,-0.618 0.031,-0.631C0.024,-0.645 0.021,-0.657 0.021,-0.667C0.021,-0.684 0.027,-0.698 0.04,-0.71C0.053,-0.722 0.069,-0.728 0.088,-0.728C0.108,-0.728 0.123,-0.722 0.133,-0.711C0.143,-0.7 0.159,-0.678 0.179,-0.644L0.313,-0.427L0.448,-0.644C0.456,-0.657 0.463,-0.669 0.469,-0.678C0.474,-0.687 0.48,-0.695 0.487,-0.703C0.494,-0.711 0.501,-0.717 0.509,-0.722C0.517,-0.726 0.527,-0.728 0.539,-0.728C0.557,-0.728 0.573,-0.722 0.585,-0.71C0.597,-0.698 0.603,-0.685 0.603,-0.669C0.603,-0.656 0.6,-0.644 0.594,-0.631C0.588,-0.618 0.577,-0.601 0.562,-0.578L0.383,-0.303L0.383,-0.076C0.383,-0.047 0.376,-0.024 0.362,-0.01C0.349,0.005 0.331,0.012 0.31,0.012C0.289,0.012 0.271,0.005 0.258,-0.01C0.244,-0.024 0.238,-0.046 0.238,-0.076Z" style="fill-rule:nonzero;"/>
            </g>
        </g>
        <g transform="matrix(1.198,0,0,0.958552,1082.09,-44.365)">
            <g transform="matrix(6.4,0,0,6.4,36.6324,51.8924)">
                <path d="M0.393,-0.728C0.467,-0.728 0.531,-0.713 0.584,-0.683C0.637,-0.653 0.678,-0.61 0.705,-0.554C0.732,-0.499 0.746,-0.434 0.746,-0.359C0.746,-0.304 0.739,-0.253 0.724,-0.208C0.709,-0.163 0.686,-0.124 0.656,-0.09C0.626,-0.057 0.59,-0.032 0.546,-0.014C0.502,0.003 0.452,0.012 0.396,0.012C0.34,0.012 0.29,0.003 0.246,-0.015C0.201,-0.033 0.164,-0.058 0.135,-0.091C0.105,-0.124 0.083,-0.164 0.068,-0.21C0.052,-0.256 0.045,-0.306 0.045,-0.36C0.045,-0.415 0.053,-0.465 0.069,-0.511C0.084,-0.557 0.107,-0.596 0.137,-0.628C0.167,-0.661 0.204,-0.685 0.247,-0.702C0.29,-0.719 0.338,-0.728 0.393,-0.728ZM0.599,-0.36C0.599,-0.412 0.591,-0.458 0.574,-0.496C0.557,-0.535 0.533,-0.564 0.501,-0.583C0.47,-0.603 0.434,-0.613 0.393,-0.613C0.364,-0.613 0.337,-0.607 0.313,-0.596C0.288,-0.586 0.267,-0.57 0.249,-0.549C0.232,-0.528 0.218,-0.501 0.207,-0.469C0.197,-0.437 0.192,-0.4 0.192,-0.36C0.192,-0.319 0.197,-0.282 0.207,-0.25C0.218,-0.217 0.232,-0.189 0.251,-0.168C0.269,-0.146 0.291,-0.13 0.315,-0.119C0.339,-0.108 0.366,-0.103 0.395,-0.103C0.432,-0.103 0.466,-0.112 0.497,-0.131C0.528,-0.149 0.553,-0.178 0.572,-0.217C0.59,-0.256 0.599,-0.303 0.599,-0.36Z" style="fill-rule:nonzero;"/>
            </g>
            <g transform="matrix(6.4,0,0,6.4,41.5732,51.8924)">
                <path d="M0.356,-0.279L0.223,-0.279L0.223,-0.076C0.223,-0.047 0.216,-0.025 0.203,-0.01C0.189,0.005 0.172,0.012 0.151,0.012C0.129,0.012 0.111,0.005 0.098,-0.01C0.085,-0.025 0.078,-0.047 0.078,-0.075L0.078,-0.627C0.078,-0.659 0.085,-0.682 0.1,-0.695C0.115,-0.709 0.138,-0.716 0.17,-0.716L0.356,-0.716C0.411,-0.716 0.453,-0.712 0.483,-0.703C0.512,-0.695 0.538,-0.681 0.559,-0.663C0.58,-0.644 0.596,-0.621 0.607,-0.593C0.618,-0.566 0.624,-0.535 0.624,-0.501C0.624,-0.428 0.602,-0.373 0.557,-0.335C0.512,-0.298 0.445,-0.279 0.356,-0.279ZM0.321,-0.607L0.223,-0.607L0.223,-0.388L0.321,-0.388C0.355,-0.388 0.384,-0.392 0.406,-0.399C0.429,-0.406 0.447,-0.418 0.459,-0.434C0.471,-0.45 0.477,-0.472 0.477,-0.498C0.477,-0.53 0.468,-0.555 0.449,-0.575C0.428,-0.596 0.386,-0.607 0.321,-0.607Z" style="fill-rule:nonzero;"/>
            </g>
        </g>
        <g transform="matrix(1.198,0,0,0.958552,1481.92,-225.126)">
            <g transform="matrix(6.4,0,0,6.4,37.8684,51.8924)">
                <path d="M0.084,-0.076L0.084,-0.64C0.084,-0.669 0.091,-0.691 0.104,-0.706C0.117,-0.721 0.135,-0.728 0.156,-0.728C0.178,-0.728 0.195,-0.721 0.209,-0.706C0.222,-0.692 0.229,-0.67 0.229,-0.64L0.229,-0.076C0.229,-0.047 0.222,-0.024 0.209,-0.01C0.195,0.005 0.178,0.012 0.156,0.012C0.135,0.012 0.118,0.005 0.104,-0.01C0.091,-0.025 0.084,-0.047 0.084,-0.076Z" style="fill-rule:nonzero;"/>
            </g>
            <g transform="matrix(6.4,0,0,6.4,39.7435,51.8924)">
                <path d="M0.267,-0.641L0.546,-0.219L0.546,-0.645C0.546,-0.673 0.552,-0.693 0.564,-0.707C0.576,-0.721 0.592,-0.728 0.612,-0.728C0.633,-0.728 0.649,-0.721 0.661,-0.707C0.673,-0.693 0.679,-0.673 0.679,-0.645L0.679,-0.082C0.679,-0.019 0.653,0.012 0.601,0.012C0.588,0.012 0.576,0.01 0.566,0.007C0.556,0.003 0.546,-0.003 0.537,-0.011C0.528,-0.019 0.519,-0.029 0.511,-0.04C0.503,-0.051 0.496,-0.062 0.488,-0.073L0.216,-0.49L0.216,-0.071C0.216,-0.043 0.209,-0.023 0.197,-0.009C0.184,0.005 0.168,0.012 0.148,0.012C0.127,0.012 0.111,0.005 0.099,-0.009C0.086,-0.023 0.08,-0.044 0.08,-0.071L0.08,-0.623C0.08,-0.646 0.083,-0.665 0.088,-0.678C0.094,-0.693 0.104,-0.705 0.119,-0.714C0.133,-0.723 0.148,-0.728 0.165,-0.728C0.178,-0.728 0.189,-0.726 0.198,-0.722C0.208,-0.717 0.216,-0.712 0.223,-0.705C0.23,-0.697 0.237,-0.688 0.244,-0.677C0.252,-0.665 0.259,-0.653 0.267,-0.641Z" style="fill-rule:nonzero;"/>
            </g>
        </g>
        <g transform="matrix(1.198,0,0,0.958552,1082.16,-224.866)">
            <g transform="matrix(6.4,0,0,6.4,37.8684,51.8924)">
                <path d="M0.084,-0.076L0.084,-0.64C0.084,-0.669 0.091,-0.691 0.104,-0.706C0.117,-0.721 0.135,-0.728 0.156,-0.728C0.178,-0.728 0.195,-0.721 0.209,-0.706C0.222,-0.692 0.229,-0.67 0.229,-0.64L0.229,-0.076C0.229,-0.047 0.222,-0.024 0.209,-0.01C0.195,0.005 0.178,0.012 0.156,0.012C0.135,0.012 0.118,0.005 0.104,-0.01C0.091,-0.025 0.084,-0.047 0.084,-0.076Z" style="fill-rule:nonzero;"/>
            </g>
            <g transform="matrix(6.4,0,0,6.4,39.7435,51.8924)">
                <path d="M0.267,-0.641L0.546,-0.219L0.546,-0.645C0.546,-0.673 0.552,-0.693 0.564,-0.707C0.576,-0.721 0.592,-0.728 0.612,-0.728C0.633,-0.728 0.649,-0.721 0.661,-0.707C0.673,-0.693 0.679,-0.673 0.679,-0.645L0.679,-0.082C0.679,-0.019 0.653,0.012 0.601,0.012C0.588,0.012 0.576,0.01 0.566,0.007C0.556,0.003 0.546,-0.003 0.537,-0.011C0.528,-0.019 0.519,-0.029 0.511,-0.04C0.503,-0.051 0.496,-0.062 0.488,-0.073L0.216,-0.49L0.216,-0.071C0.216,-0.043 0.209,-0.023 0.197,-0.009C0.184,0.005 0.168,0.012 0.148,0.012C0.127,0.012 0.111,0.005 0.099,-0.009C0.086,-0.023 0.08,-0.044 0.08,-0.071L0.08,-0.623C0.08,-0.646 0.083,-0.665 0.088,-0.678C0.094,-0.693 0.104,-0.705 0.119,-0.714C0.133,-0.723 0.148,-0.728 0.165,-0.728C0.178,-0.728 0.189,-0.726 0.198,-0.722C0.208,-0.717 0.216,-0.712 0.223,-0.705C0.23,-0.697 0.237,-0.688 0.244,-0.677C0.252,-0.665 0.259,-0.653 0.267,-0.641Z" style="fill-rule:nonzero;"/>
            </g>
        </g>
        <g transform="matrix(1.198,0,0,0.958552,1481.95,-194.695)">
            <g transform="matrix(6.4,0,0,6.4,39.3044,51.8924)">
                <path d="M0.052,-0.139L0.212,-0.373L0.077,-0.581C0.064,-0.601 0.055,-0.619 0.049,-0.633C0.042,-0.648 0.039,-0.661 0.039,-0.675C0.039,-0.688 0.045,-0.701 0.057,-0.712C0.07,-0.723 0.084,-0.728 0.102,-0.728C0.122,-0.728 0.138,-0.722 0.149,-0.71C0.16,-0.698 0.176,-0.676 0.196,-0.644L0.303,-0.47L0.418,-0.644C0.427,-0.659 0.435,-0.671 0.442,-0.682C0.449,-0.692 0.455,-0.701 0.461,-0.708C0.468,-0.714 0.475,-0.719 0.482,-0.723C0.49,-0.726 0.499,-0.728 0.509,-0.728C0.527,-0.728 0.542,-0.723 0.553,-0.712C0.565,-0.701 0.571,-0.688 0.571,-0.673C0.571,-0.651 0.558,-0.621 0.533,-0.584L0.392,-0.373L0.544,-0.139C0.558,-0.119 0.568,-0.102 0.574,-0.088C0.58,-0.075 0.583,-0.062 0.583,-0.05C0.583,-0.038 0.58,-0.028 0.575,-0.019C0.569,-0.009 0.561,-0.002 0.551,0.004C0.541,0.009 0.53,0.012 0.517,0.012C0.503,0.012 0.492,0.009 0.482,0.004C0.473,-0.002 0.465,-0.009 0.459,-0.018C0.454,-0.026 0.443,-0.042 0.427,-0.067L0.301,-0.265L0.167,-0.061C0.157,-0.045 0.149,-0.033 0.145,-0.027C0.14,-0.02 0.135,-0.014 0.129,-0.008C0.123,-0.002 0.115,0.003 0.107,0.007C0.098,0.01 0.089,0.012 0.077,0.012C0.06,0.012 0.045,0.007 0.033,-0.004C0.022,-0.015 0.016,-0.03 0.016,-0.051C0.016,-0.075 0.028,-0.104 0.052,-0.139Z" style="fill-rule:nonzero;"/>
            </g>
        </g>
        <g transform="matrix(1.198,0,0,0.958552,1481.94,-112.814)">
            <g transform="matrix(6.4,0,0,6.4,39.2372,51.8924)">
                <path d="M0.238,-0.076L0.238,-0.303L0.063,-0.574C0.048,-0.599 0.037,-0.618 0.031,-0.631C0.024,-0.645 0.021,-0.657 0.021,-0.667C0.021,-0.684 0.027,-0.698 0.04,-0.71C0.053,-0.722 0.069,-0.728 0.088,-0.728C0.108,-0.728 0.123,-0.722 0.133,-0.711C0.143,-0.7 0.159,-0.678 0.179,-0.644L0.313,-0.427L0.448,-0.644C0.456,-0.657 0.463,-0.669 0.469,-0.678C0.474,-0.687 0.48,-0.695 0.487,-0.703C0.494,-0.711 0.501,-0.717 0.509,-0.722C0.517,-0.726 0.527,-0.728 0.539,-0.728C0.557,-0.728 0.573,-0.722 0.585,-0.71C0.597,-0.698 0.603,-0.685 0.603,-0.669C0.603,-0.656 0.6,-0.644 0.594,-0.631C0.588,-0.618 0.577,-0.601 0.562,-0.578L0.383,-0.303L0.383,-0.076C0.383,-0.047 0.376,-0.024 0.362,-0.01C0.349,0.005 0.331,0.012 0.31,0.012C0.289,0.012 0.271,0.005 0.258,-0.01C0.244,-0.024 0.238,-0.046 0.238,-0.076Z" style="fill-rule:nonzero;"/>
            </g>
        </g>
        <g transform="matrix(1.198,0,0,0.958552,1481.81,-44.6242)">
            <g transform="matrix(6.4,0,0,6.4,36.6324,51.8924)">
                <path d="M0.393,-0.728C0.467,-0.728 0.531,-0.713 0.584,-0.683C0.637,-0.653 0.678,-0.61 0.705,-0.554C0.732,-0.499 0.746,-0.434 0.746,-0.359C0.746,-0.304 0.739,-0.253 0.724,-0.208C0.709,-0.163 0.686,-0.124 0.656,-0.09C0.626,-0.057 0.59,-0.032 0.546,-0.014C0.502,0.003 0.452,0.012 0.396,0.012C0.34,0.012 0.29,0.003 0.246,-0.015C0.201,-0.033 0.164,-0.058 0.135,-0.091C0.105,-0.124 0.083,-0.164 0.068,-0.21C0.052,-0.256 0.045,-0.306 0.045,-0.36C0.045,-0.415 0.053,-0.465 0.069,-0.511C0.084,-0.557 0.107,-0.596 0.137,-0.628C0.167,-0.661 0.204,-0.685 0.247,-0.702C0.29,-0.719 0.338,-0.728 0.393,-0.728ZM0.599,-0.36C0.599,-0.412 0.591,-0.458 0.574,-0.496C0.557,-0.535 0.533,-0.564 0.501,-0.583C0.47,-0.603 0.434,-0.613 0.393,-0.613C0.364,-0.613 0.337,-0.607 0.313,-0.596C0.288,-0.586 0.267,-0.57 0.249,-0.549C0.232,-0.528 0.218,-0.501 0.207,-0.469C0.197,-0.437 0.192,-0.4 0.192,-0.36C0.192,-0.319 0.197,-0.282 0.207,-0.25C0.218,-0.217 0.232,-0.189 0.251,-0.168C0.269,-0.146 0.291,-0.13 0.315,-0.119C0.339,-0.108 0.366,-0.103 0.395,-0.103C0.432,-0.103 0.466,-0.112 0.497,-0.131C0.528,-0.149 0.553,-0.178 0.572,-0.217C0.59,-0.256 0.599,-0.303 0.599,-0.36Z" style="fill-rule:nonzero;"/>
            </g>
            <g transform="matrix(6.4,0,0,6.4,41.5732,51.8924)">
                <path d="M0.356,-0.279L0.223,-0.279L0.223,-0.076C0.223,-0.047 0.216,-0.025 0.203,-0.01C0.189,0.005 0.172,0.012 0.151,0.012C0.129,0.012 0.111,0.005 0.098,-0.01C0.085,-0.025 0.078,-0.047 0.078,-0.075L0.078,-0.627C0.078,-0.659 0.085,-0.682 0.1,-0.695C0.115,-0.709 0.138,-0.716 0.17,-0.716L0.356,-0.716C0.411,-0.716 0.453,-0.712 0.483,-0.703C0.512,-0.695 0.538,-0.681 0.559,-0.663C0.58,-0.644 0.596,-0.621 0.607,-0.593C0.618,-0.566 0.624,-0.535 0.624,-0.501C0.624,-0.428 0.602,-0.373 0.557,-0.335C0.512,-0.298 0.445,-0.279 0.356,-0.279ZM0.321,-0.607L0.223,-0.607L0.223,-0.388L0.321,-0.388C0.355,-0.388 0.384,-0.392 0.406,-0.399C0.429,-0.406 0.447,-0.418 0.459,-0.434C0.471,-0.45 0.477,-0.472 0.477,-0.498C0.477,-0.53 0.468,-0.555 0.449,-0.575C0.428,-0.596 0.386,-0.607 0.321,-0.607Z" style="fill-rule:nonzero;"/>
            </g>
        </g>
        <g transform="matrix(1.25309,0,0,1.34672,961.596,-321.956)">
            <path d="M38.128,207.245C38.128,206.459 37.271,205.822 36.216,205.822L14.743,205.822C13.688,205.822 12.831,206.459 12.831,207.245L12.831,213.815C12.831,214.601 13.688,215.238 14.743,215.238L36.216,215.238C37.271,215.238 38.128,214.601 38.128,213.815L38.128,207.245Z" style="fill:rgb(0,16,90);stroke:rgb(77,77,77);stroke-width:0.34px;stroke-linecap:square;"/>
        </g>
        <g transform="matrix(1.255,0,0,1.34672,998.464,-321.956)">
            <path d="M38.128,207.245C38.128,206.459 37.272,205.822 36.218,205.822L14.74,205.822C13.687,205.822 12.831,206.459 12.831,207.245L12.831,213.815C12.831,214.601 13.687,215.238 14.74,215.238L36.218,215.238C37.272,215.238 38.128,214.601 38.128,213.815L38.128,207.245Z" style="fill:rgb(0,16,90);stroke:rgb(77,77,77);stroke-width:0.34px;stroke-linecap:square;"/>
        </g>
        <g transform="matrix(1.255,0,0,1.34672,1034.92,-321.956)">
            <path d="M38.128,207.245C38.128,206.459 37.272,205.822 36.218,205.822L14.74,205.822C13.687,205.822 12.831,206.459 12.831,207.245L12.831,213.815C12.831,214.601 13.687,215.238 14.74,215.238L36.218,215.238C37.272,215.238 38.128,214.601 38.128,213.815L38.128,207.245Z" style="fill:rgb(0,16,90);stroke:rgb(77,77,77);stroke-width:0.34px;stroke-linecap:square;"/>
        </g>
        <g transform="matrix(1.255,0,0,1.34672,1071.37,-321.956)">
            <path d="M38.128,207.245C38.128,206.459 37.272,205.822 36.218,205.822L14.74,205.822C13.687,205.822 12.831,206.459 12.831,207.245L12.831,213.815C12.831,214.601 13.687,215.238 14.74,215.238L36.218,215.238C37.272,215.238 38.128,214.601 38.128,213.815L38.128,207.245Z" style="fill:rgb(0,16,90);stroke:rgb(77,77,77);stroke-width:0.34px;stroke-linecap:square;"/>
        </g>
        <g transform="matrix(1.25309,0,0,1.34672,1527.08,-322.067)">
            <path d="M38.128,207.245C38.128,206.459 37.271,205.822 36.216,205.822L14.743,205.822C13.688,205.822 12.831,206.459 12.831,207.245L12.831,213.815C12.831,214.601 13.688,215.238 14.743,215.238L36.216,215.238C37.271,215.238 38.128,214.601 38.128,213.815L38.128,207.245Z" style="fill:rgb(0,16,90);stroke:rgb(77,77,77);stroke-width:0.34px;stroke-linecap:square;"/>
        </g>
        <g transform="matrix(1.255,0,0,1.34672,1563.94,-322.067)">
            <path d="M38.128,207.245C38.128,206.459 37.272,205.822 36.218,205.822L14.74,205.822C13.687,205.822 12.831,206.459 12.831,207.245L12.831,213.815C12.831,214.601 13.687,215.238 14.74,215.238L36.218,215.238C37.272,215.238 38.128,214.601 38.128,213.815L38.128,207.245Z" style="fill:rgb(0,16,90);stroke:rgb(77,77,77);stroke-width:0.34px;stroke-linecap:square;"/>
        </g>
        <g transform="matrix(1.255,0,0,1.34672,1600.4,-322.067)">
            <path d="M38.128,207.245C38.128,206.459 37.272,205.822 36.218,205.822L14.74,205.822C13.687,205.822 12.831,206.459 12.831,207.245L12.831,213.815C12.831,214.601 13.687,215.238 14.74,215.238L36.218,215.238C37.272,215.238 38.128,214.601 38.128,213.815L38.128,207.245Z" style="fill:rgb(0,16,90);stroke:rgb(77,77,77);stroke-width:0.34px;stroke-linecap:square;"/>
        </g>
        <g transform="matrix(1.255,0,0,1.34672,1636.85,-322.067)">
            <path d="M38.128,207.245C38.128,206.459 37.272,205.822 36.218,205.822L14.74,205.822C13.687,205.822 12.831,206.459 12.831,207.245L12.831,213.815C12.831,214.601 13.687,215.238 14.74,215.238L36.218,215.238C37.272,215.238 38.128,214.601 38.128,213.815L38.128,207.245Z" style="fill:rgb(0,16,90);stroke:rgb(77,77,77);stroke-width:0.34px;stroke-linecap:square;"/>
        </g>
    </g>
</svg>
