<?xml version="1.0" encoding="UTF-8" standalone="no"?>
<!DOCTYPE svg PUBLIC "-//W3C//DTD SVG 1.1//EN" "http://www.w3.org/Graphics/SVG/1.1/DTD/svg11.dtd">
<svg width="100%" height="100%" viewBox="0 0 615 380" version="1.1" xmlns="http://www.w3.org/2000/svg" xmlns:xlink="http://www.w3.org/1999/xlink" xml:space="preserve" xmlns:serif="http://www.serif.com/" style="fill-rule:evenodd;clip-rule:evenodd;stroke-linecap:round;stroke-linejoin:round;stroke-miterlimit:1.5;">
    <g id="panel" transform="matrix(0.834722,0,0,1.04324,-803.837,250.623)">
        <g transform="matrix(12.2795,0,0,0.958552,963,-240.235)">
            <rect x="0" y="0" width="60" height="380" style="fill:rgb(128,187,254);"/>
        </g>
        <g transform="matrix(1.198,0,0,0.958552,1295.11,-205.504)">
            <g transform="matrix(13,0,0,13,6.75391,0)">
                <path d="M0.744,0L0.568,0L0.511,-0.173L0.236,-0.173L0.181,0L0.006,0L0.283,-0.756L0.472,-0.756L0.744,0ZM0.473,-0.298L0.387,-0.56C0.382,-0.577 0.378,-0.599 0.375,-0.626L0.371,-0.626C0.369,-0.604 0.365,-0.583 0.358,-0.562L0.271,-0.298L0.473,-0.298Z" style="fill-rule:nonzero;"/>
            </g>
            <g transform="matrix(13,0,0,13,16.5293,0)">
                <path d="M0.711,0L0.526,0L0.407,-0.197C0.383,-0.237 0.363,-0.264 0.347,-0.275C0.332,-0.287 0.315,-0.293 0.297,-0.293L0.249,-0.293L0.249,0L0.087,0L0.087,-0.756L0.353,-0.756C0.533,-0.756 0.623,-0.688 0.623,-0.551C0.623,-0.5 0.608,-0.456 0.577,-0.419C0.547,-0.382 0.506,-0.356 0.453,-0.341L0.453,-0.339C0.488,-0.328 0.527,-0.289 0.569,-0.224L0.711,0ZM0.249,-0.634L0.249,-0.416L0.328,-0.416C0.365,-0.416 0.396,-0.427 0.419,-0.449C0.442,-0.471 0.453,-0.498 0.453,-0.531C0.453,-0.6 0.412,-0.634 0.331,-0.634L0.249,-0.634Z" style="fill-rule:nonzero;"/>
            </g>
            <g transform="matrix(13,0,0,13,25.6065,0)">
                <path d="M0.535,0L0.087,0L0.087,-0.756L0.518,-0.756L0.518,-0.625L0.249,-0.625L0.249,-0.446L0.499,-0.446L0.499,-0.315L0.249,-0.315L0.249,-0.132L0.535,-0.132L0.535,0Z" style="fill-rule:nonzero;"/>
            </g>
            <g transform="matrix(13,0,0,13,33.0396,0)">
                <path d="M0.76,0L0.595,0L0.274,-0.489C0.258,-0.515 0.246,-0.535 0.238,-0.551L0.236,-0.551C0.239,-0.525 0.24,-0.485 0.24,-0.43L0.24,0L0.087,0L0.087,-0.756L0.263,-0.756L0.572,-0.281C0.592,-0.249 0.605,-0.229 0.609,-0.221L0.612,-0.221C0.609,-0.239 0.607,-0.274 0.607,-0.325L0.607,-0.756L0.76,-0.756L0.76,0Z" style="fill-rule:nonzero;"/>
            </g>
            <g transform="matrix(13,0,0,13,44.0654,0)">
                <path d="M0.744,0L0.568,0L0.511,-0.173L0.236,-0.173L0.181,0L0.006,0L0.283,-0.756L0.472,-0.756L0.744,0ZM0.473,-0.298L0.387,-0.56C0.382,-0.577 0.378,-0.599 0.375,-0.626L0.371,-0.626C0.369,-0.604 0.365,-0.583 0.358,-0.562L0.271,-0.298L0.473,-0.298Z" style="fill-rule:nonzero;"/>
            </g>
        </g>
        <g transform="matrix(1,0,0,1,341.293,0)">
            <g transform="matrix(1.198,0,0,0.958552,893.633,-224.914)">
                <g transform="matrix(9,0,0,9,64.0056,347.267)">
                    <path d="M0.919,0L0.762,0L0.762,-0.308C0.762,-0.391 0.732,-0.432 0.671,-0.432C0.643,-0.432 0.62,-0.42 0.602,-0.395C0.583,-0.369 0.574,-0.339 0.574,-0.303L0.574,0L0.417,0L0.417,-0.312C0.417,-0.392 0.387,-0.432 0.327,-0.432C0.298,-0.432 0.274,-0.42 0.256,-0.396C0.238,-0.372 0.229,-0.341 0.229,-0.301L0.229,0L0.072,0L0.072,-0.54L0.229,-0.54L0.229,-0.456L0.231,-0.456C0.25,-0.486 0.275,-0.51 0.307,-0.528C0.338,-0.545 0.371,-0.553 0.405,-0.553C0.481,-0.553 0.533,-0.519 0.561,-0.451C0.603,-0.519 0.663,-0.553 0.743,-0.553C0.86,-0.553 0.919,-0.481 0.919,-0.335L0.919,0Z" style="fill:rgb(10,1,1);fill-rule:nonzero;"/>
                </g>
                <g transform="matrix(9,0,0,9,72.978,347.267)">
                    <path d="M0.551,-0.226L0.196,-0.226C0.201,-0.142 0.252,-0.1 0.347,-0.1C0.407,-0.1 0.459,-0.115 0.505,-0.144L0.505,-0.028C0.456,-0.001 0.391,0.013 0.312,0.013C0.226,0.013 0.159,-0.011 0.111,-0.06C0.063,-0.108 0.04,-0.176 0.04,-0.262C0.04,-0.348 0.065,-0.419 0.116,-0.472C0.167,-0.526 0.23,-0.553 0.307,-0.553C0.384,-0.553 0.443,-0.53 0.487,-0.484C0.53,-0.437 0.551,-0.374 0.551,-0.292L0.551,-0.226ZM0.404,-0.324C0.404,-0.405 0.372,-0.445 0.306,-0.445C0.279,-0.445 0.255,-0.434 0.234,-0.412C0.214,-0.39 0.201,-0.361 0.195,-0.324L0.404,-0.324Z" style="fill:rgb(10,1,1);fill-rule:nonzero;"/>
                </g>
                <g transform="matrix(9,0,0,9,78.3513,347.267)">
                    <rect x="0.069" y="-0.799" width="0.157" height="0.799" style="fill:rgb(10,1,1);fill-rule:nonzero;"/>
                </g>
                <g transform="matrix(9,0,0,9,81.1494,347.267)">
                    <path d="M0.593,0L0.436,0L0.436,-0.076L0.433,-0.076C0.395,-0.017 0.339,0.013 0.264,0.013C0.195,0.013 0.141,-0.011 0.1,-0.06C0.06,-0.108 0.04,-0.174 0.04,-0.258C0.04,-0.346 0.062,-0.418 0.108,-0.472C0.153,-0.526 0.212,-0.553 0.286,-0.553C0.356,-0.553 0.405,-0.528 0.433,-0.477L0.436,-0.477L0.438,-0.707L0.593,-0.658L0.593,0ZM0.438,-0.306C0.438,-0.342 0.427,-0.372 0.405,-0.396C0.383,-0.42 0.356,-0.432 0.323,-0.432C0.284,-0.432 0.254,-0.417 0.232,-0.386C0.21,-0.356 0.199,-0.315 0.199,-0.263C0.199,-0.213 0.21,-0.175 0.231,-0.148C0.252,-0.121 0.281,-0.108 0.318,-0.108C0.353,-0.108 0.382,-0.122 0.404,-0.15C0.427,-0.179 0.438,-0.215 0.438,-0.261L0.438,-0.306Z" style="fill:rgb(10,1,1);fill-rule:nonzero;"/>
                </g>
                <g transform="matrix(9,0,0,9,87.2654,347.267)">
                    <path d="M0.551,-0.226L0.196,-0.226C0.201,-0.142 0.252,-0.1 0.347,-0.1C0.407,-0.1 0.459,-0.115 0.505,-0.144L0.505,-0.028C0.456,-0.001 0.391,0.013 0.312,0.013C0.226,0.013 0.159,-0.011 0.111,-0.06C0.063,-0.108 0.04,-0.176 0.04,-0.262C0.04,-0.348 0.065,-0.419 0.116,-0.472C0.167,-0.526 0.23,-0.553 0.307,-0.553C0.384,-0.553 0.443,-0.53 0.487,-0.484C0.53,-0.437 0.551,-0.374 0.551,-0.292L0.551,-0.226ZM0.404,-0.324C0.404,-0.405 0.372,-0.445 0.306,-0.445C0.279,-0.445 0.255,-0.434 0.234,-0.412C0.214,-0.39 0.201,-0.361 0.195,-0.324L0.404,-0.324Z" style="fill:rgb(10,1,1);fill-rule:nonzero;"/>
                </g>
                <g transform="matrix(9,0,0,9,92.6386,347.267)">
                    <path d="M0.416,-0.397C0.397,-0.408 0.374,-0.414 0.346,-0.414C0.31,-0.414 0.282,-0.4 0.261,-0.373C0.24,-0.345 0.229,-0.308 0.229,-0.26L0.229,0L0.072,0L0.072,-0.54L0.229,-0.54L0.229,-0.438L0.231,-0.438C0.257,-0.512 0.305,-0.549 0.374,-0.549C0.392,-0.549 0.406,-0.547 0.416,-0.543L0.416,-0.397Z" style="fill:rgb(10,1,1);fill-rule:nonzero;"/>
                </g>
            </g>
            <g transform="matrix(1.198,0,0,0.958552,893.495,-231.786)">
                <g transform="matrix(9,0,0,9,68.6657,347.267)">
                    <path d="M0.058,-0.145C0.112,-0.112 0.165,-0.096 0.216,-0.096C0.281,-0.096 0.314,-0.113 0.314,-0.148C0.314,-0.173 0.287,-0.193 0.233,-0.21C0.166,-0.231 0.12,-0.254 0.095,-0.28C0.07,-0.305 0.058,-0.34 0.058,-0.383C0.058,-0.436 0.079,-0.478 0.122,-0.508C0.165,-0.538 0.221,-0.553 0.291,-0.553C0.34,-0.553 0.388,-0.546 0.434,-0.531L0.434,-0.407C0.392,-0.432 0.346,-0.444 0.295,-0.444C0.27,-0.444 0.25,-0.44 0.235,-0.431C0.22,-0.422 0.212,-0.41 0.212,-0.396C0.212,-0.371 0.235,-0.351 0.28,-0.335C0.329,-0.319 0.366,-0.304 0.39,-0.291C0.415,-0.278 0.434,-0.26 0.447,-0.238C0.459,-0.216 0.466,-0.191 0.466,-0.163C0.466,-0.107 0.444,-0.064 0.399,-0.033C0.354,-0.002 0.295,0.013 0.22,0.013C0.162,0.013 0.107,0.004 0.058,-0.015L0.058,-0.145Z" style="fill:rgb(10,1,1);fill-rule:nonzero;"/>
                </g>
                <g transform="matrix(9,0,0,9,73.2436,347.267)">
                    <path d="M0.39,-0.006C0.366,0.007 0.33,0.013 0.282,0.013C0.167,0.013 0.11,-0.047 0.11,-0.167L0.11,-0.422L0.021,-0.422L0.021,-0.54L0.11,-0.54L0.11,-0.659L0.267,-0.704L0.267,-0.54L0.39,-0.54L0.39,-0.422L0.267,-0.422L0.267,-0.195C0.267,-0.137 0.289,-0.108 0.335,-0.108C0.353,-0.108 0.371,-0.114 0.39,-0.124L0.39,-0.006Z" style="fill:rgb(10,1,1);fill-rule:nonzero;"/>
                </g>
                <g transform="matrix(6.6,0,0,6.6,77.1051,347.267)">
                    <path d="M0.106,0.032L0.043,-0.021L0.122,-0.115C0.067,-0.183 0.04,-0.268 0.04,-0.368C0.04,-0.487 0.075,-0.584 0.144,-0.658C0.213,-0.732 0.305,-0.769 0.418,-0.769C0.5,-0.769 0.571,-0.748 0.63,-0.706L0.698,-0.785L0.761,-0.733L0.689,-0.65C0.748,-0.581 0.778,-0.493 0.778,-0.384C0.778,-0.266 0.743,-0.17 0.674,-0.097C0.605,-0.023 0.516,0.013 0.406,0.013C0.32,0.013 0.246,-0.011 0.182,-0.059L0.106,0.032ZM0.54,-0.6C0.506,-0.628 0.463,-0.642 0.413,-0.642C0.349,-0.642 0.297,-0.617 0.258,-0.569C0.218,-0.52 0.199,-0.455 0.199,-0.375C0.199,-0.319 0.208,-0.273 0.227,-0.234L0.54,-0.6ZM0.275,-0.165C0.311,-0.131 0.356,-0.114 0.409,-0.114C0.473,-0.114 0.524,-0.137 0.563,-0.184C0.601,-0.231 0.62,-0.294 0.62,-0.374C0.62,-0.435 0.61,-0.488 0.588,-0.533L0.275,-0.165Z" style="fill-rule:nonzero;"/>
                </g>
                <g transform="matrix(9,0,0,9,82.6053,347.267)">
                    <path d="M0.551,-0.226L0.196,-0.226C0.201,-0.142 0.252,-0.1 0.347,-0.1C0.407,-0.1 0.459,-0.115 0.505,-0.144L0.505,-0.028C0.456,-0.001 0.391,0.013 0.312,0.013C0.226,0.013 0.159,-0.011 0.111,-0.06C0.063,-0.108 0.04,-0.176 0.04,-0.262C0.04,-0.348 0.065,-0.419 0.116,-0.472C0.167,-0.526 0.23,-0.553 0.307,-0.553C0.384,-0.553 0.443,-0.53 0.487,-0.484C0.53,-0.437 0.551,-0.374 0.551,-0.292L0.551,-0.226ZM0.404,-0.324C0.404,-0.405 0.372,-0.445 0.306,-0.445C0.279,-0.445 0.255,-0.434 0.234,-0.412C0.214,-0.39 0.201,-0.361 0.195,-0.324L0.404,-0.324Z" style="fill:rgb(10,1,1);fill-rule:nonzero;"/>
                </g>
                <g transform="matrix(9,0,0,9,87.9786,347.267)">
                    <path d="M0.416,-0.397C0.397,-0.408 0.374,-0.414 0.346,-0.414C0.31,-0.414 0.282,-0.4 0.261,-0.373C0.24,-0.345 0.229,-0.308 0.229,-0.26L0.229,0L0.072,0L0.072,-0.54L0.229,-0.54L0.229,-0.438L0.231,-0.438C0.257,-0.512 0.305,-0.549 0.374,-0.549C0.392,-0.549 0.406,-0.547 0.416,-0.543L0.416,-0.397Z" style="fill:rgb(10,1,1);fill-rule:nonzero;"/>
                </g>
            </g>
        </g>
        <g transform="matrix(4.35697,0,0,2.03501,1093.86,-617.315)">
            <rect x="-30.034" y="347.456" width="169.102" height="16.91" style="fill:rgb(4,4,4);fill-opacity:0.3;"/>
        </g>
        <g transform="matrix(4.35697,0,0,2.38646,1093.86,-1069.43)">
            <rect x="-30.034" y="347.456" width="169.102" height="16.91" style="fill:rgb(4,4,4);fill-opacity:0.3;"/>
        </g>
        <g transform="matrix(32.8962,0,0,25.5659,-266.911,-292.473)">
            <rect x="37.388" y="2.043" width="22.397" height="14.247" style="fill:none;stroke:black;stroke-opacity:0.6;stroke-width:0.02px;"/>
        </g>
        <g transform="matrix(2.53404,0,0,1.14809,1503.84,-10.994)">
            <path d="M73.138,60.263C73.138,58.42 72.29,56.924 71.246,56.924L6.998,56.924C5.954,56.924 5.107,58.42 5.107,60.263L5.107,80.364C5.107,82.208 5.954,83.704 6.998,83.704L71.246,83.704C72.29,83.704 73.138,82.208 73.138,80.364L73.138,60.263Z" style="fill:white;fill-opacity:0.5;"/>
        </g>
        <g transform="matrix(1.198,-1.2326e-32,0,0.958552,1481.84,12.7458)">
            <g transform="matrix(6.4,0,0,6.4,36.5339,51.8924)">
                <path d="M0.052,-0.139L0.212,-0.373L0.077,-0.581C0.064,-0.601 0.055,-0.619 0.049,-0.633C0.042,-0.648 0.039,-0.661 0.039,-0.675C0.039,-0.688 0.045,-0.701 0.057,-0.712C0.07,-0.723 0.084,-0.728 0.102,-0.728C0.122,-0.728 0.138,-0.722 0.149,-0.71C0.16,-0.698 0.176,-0.676 0.196,-0.644L0.303,-0.47L0.418,-0.644C0.427,-0.659 0.435,-0.671 0.442,-0.682C0.449,-0.692 0.455,-0.701 0.461,-0.708C0.468,-0.714 0.475,-0.719 0.482,-0.723C0.49,-0.726 0.499,-0.728 0.509,-0.728C0.527,-0.728 0.542,-0.723 0.553,-0.712C0.565,-0.701 0.571,-0.688 0.571,-0.673C0.571,-0.651 0.558,-0.621 0.533,-0.584L0.392,-0.373L0.544,-0.139C0.558,-0.119 0.568,-0.102 0.574,-0.088C0.58,-0.075 0.583,-0.062 0.583,-0.05C0.583,-0.038 0.58,-0.028 0.575,-0.019C0.569,-0.009 0.561,-0.002 0.551,0.004C0.541,0.009 0.53,0.012 0.517,0.012C0.503,0.012 0.492,0.009 0.482,0.004C0.473,-0.002 0.465,-0.009 0.459,-0.018C0.454,-0.026 0.443,-0.042 0.427,-0.067L0.301,-0.265L0.167,-0.061C0.157,-0.045 0.149,-0.033 0.145,-0.027C0.14,-0.02 0.135,-0.014 0.129,-0.008C0.123,-0.002 0.115,0.003 0.107,0.007C0.098,0.01 0.089,0.012 0.077,0.012C0.06,0.012 0.045,0.007 0.033,-0.004C0.022,-0.015 0.016,-0.03 0.016,-0.051C0.016,-0.075 0.028,-0.104 0.052,-0.139Z" style="fill-rule:nonzero;"/>
            </g>
            <g transform="matrix(6.4,0,0,6.4,40.2716,51.8924)">
                <path d="M0.258,-0.629L0.121,-0.066C0.117,-0.047 0.113,-0.033 0.109,-0.022C0.106,-0.011 0.101,-0.003 0.094,0.003C0.087,0.009 0.076,0.012 0.063,0.012C0.03,0.012 0.013,-0.002 0.013,-0.031C0.013,-0.038 0.016,-0.057 0.023,-0.087L0.159,-0.65C0.166,-0.68 0.173,-0.7 0.18,-0.711C0.186,-0.722 0.199,-0.728 0.218,-0.728C0.234,-0.728 0.247,-0.724 0.255,-0.716C0.264,-0.708 0.268,-0.698 0.268,-0.684C0.268,-0.674 0.265,-0.656 0.258,-0.629Z" style="fill-rule:nonzero;"/>
            </g>
            <g transform="matrix(6.4,0,0,6.4,41.9404,51.8924)">
                <path d="M0.238,-0.076L0.238,-0.303L0.063,-0.574C0.048,-0.599 0.037,-0.618 0.031,-0.631C0.024,-0.645 0.021,-0.657 0.021,-0.667C0.021,-0.684 0.027,-0.698 0.04,-0.71C0.053,-0.722 0.069,-0.728 0.088,-0.728C0.108,-0.728 0.123,-0.722 0.133,-0.711C0.143,-0.7 0.159,-0.678 0.179,-0.644L0.313,-0.427L0.448,-0.644C0.456,-0.657 0.463,-0.669 0.469,-0.678C0.474,-0.687 0.48,-0.695 0.487,-0.703C0.494,-0.711 0.501,-0.717 0.509,-0.722C0.517,-0.726 0.527,-0.728 0.539,-0.728C0.557,-0.728 0.573,-0.722 0.585,-0.71C0.597,-0.698 0.603,-0.685 0.603,-0.669C0.603,-0.656 0.6,-0.644 0.594,-0.631C0.588,-0.618 0.577,-0.601 0.562,-0.578L0.383,-0.303L0.383,-0.076C0.383,-0.047 0.376,-0.024 0.362,-0.01C0.349,0.005 0.331,0.012 0.31,0.012C0.289,0.012 0.271,0.005 0.258,-0.01C0.244,-0.024 0.238,-0.046 0.238,-0.076Z" style="fill-rule:nonzero;"/>
            </g>
        </g>
        <g transform="matrix(0.859518,0,0,1.14809,1447.36,-10.9386)">
            <path d="M73.138,60.263C73.138,58.42 70.639,56.924 67.562,56.924L10.682,56.924C7.605,56.924 5.107,58.42 5.107,60.263L5.107,80.364C5.107,82.208 7.605,83.704 10.682,83.704L67.562,83.704C70.639,83.704 73.138,82.208 73.138,80.364L73.138,60.263Z" style="fill-opacity:0.8;"/>
        </g>
        <g transform="matrix(2.53404,0,0,1.09885,960.653,-44.1978)">
            <path d="M73.138,60.413C73.138,58.487 72.29,56.924 71.246,56.924L6.998,56.924C5.954,56.924 5.107,58.487 5.107,60.413L5.107,80.215C5.107,82.14 5.954,83.704 6.998,83.704L71.246,83.704C72.29,83.704 73.138,82.14 73.138,80.215L73.138,60.413Z" style="fill-opacity:0.8;"/>
        </g>
        <g transform="matrix(2.53404,0,0,1.09885,1503.84,-44.1978)">
            <path d="M73.138,60.413C73.138,58.487 72.29,56.924 71.246,56.924L6.998,56.924C5.954,56.924 5.107,58.487 5.107,60.413L5.107,80.215C5.107,82.14 5.954,83.704 6.998,83.704L71.246,83.704C72.29,83.704 73.138,82.14 73.138,80.215L73.138,60.413Z" style="fill-opacity:0.8;"/>
        </g>
        <g transform="matrix(1.198,-1.2326e-32,0,0.958552,1447.16,12.8013)">
            <g transform="matrix(6.4,0,0,6.4,33.9276,51.8924)">
                <path d="M0.32,-0.108L0.205,-0.564L0.205,-0.07C0.205,-0.042 0.199,-0.022 0.187,-0.008C0.175,0.005 0.158,0.012 0.138,0.012C0.119,0.012 0.103,0.005 0.09,-0.008C0.078,-0.022 0.072,-0.042 0.072,-0.07L0.072,-0.636C0.072,-0.667 0.08,-0.689 0.096,-0.699C0.112,-0.71 0.134,-0.716 0.162,-0.716L0.207,-0.716C0.234,-0.716 0.254,-0.713 0.266,-0.708C0.278,-0.704 0.287,-0.695 0.293,-0.682C0.299,-0.669 0.306,-0.649 0.313,-0.62L0.417,-0.228L0.521,-0.62C0.528,-0.649 0.535,-0.669 0.541,-0.682C0.547,-0.695 0.556,-0.704 0.568,-0.708C0.58,-0.713 0.6,-0.716 0.627,-0.716L0.672,-0.716C0.7,-0.716 0.722,-0.71 0.738,-0.699C0.754,-0.689 0.762,-0.667 0.762,-0.636L0.762,-0.07C0.762,-0.042 0.756,-0.022 0.744,-0.008C0.732,0.005 0.715,0.012 0.695,0.012C0.676,0.012 0.66,0.005 0.647,-0.008C0.635,-0.022 0.629,-0.042 0.629,-0.07L0.629,-0.564L0.514,-0.108C0.507,-0.078 0.501,-0.057 0.496,-0.043C0.491,-0.029 0.482,-0.016 0.47,-0.005C0.457,0.007 0.439,0.012 0.417,0.012C0.4,0.012 0.386,0.009 0.374,0.001C0.362,-0.006 0.353,-0.015 0.347,-0.027C0.34,-0.038 0.335,-0.051 0.331,-0.065C0.328,-0.079 0.324,-0.093 0.32,-0.108Z" style="fill:white;fill-rule:nonzero;"/>
            </g>
            <g transform="matrix(6.4,0,0,6.4,39.1309,51.8924)">
                <path d="M0.084,-0.076L0.084,-0.64C0.084,-0.669 0.091,-0.691 0.104,-0.706C0.117,-0.721 0.135,-0.728 0.156,-0.728C0.178,-0.728 0.195,-0.721 0.209,-0.706C0.222,-0.692 0.229,-0.67 0.229,-0.64L0.229,-0.076C0.229,-0.047 0.222,-0.024 0.209,-0.01C0.195,0.005 0.178,0.012 0.156,0.012C0.135,0.012 0.118,0.005 0.104,-0.01C0.091,-0.025 0.084,-0.047 0.084,-0.076Z" style="fill:white;fill-rule:nonzero;"/>
            </g>
            <g transform="matrix(6.4,0,0,6.4,41.006,51.8924)">
                <path d="M0.052,-0.139L0.212,-0.373L0.077,-0.581C0.064,-0.601 0.055,-0.619 0.049,-0.633C0.042,-0.648 0.039,-0.661 0.039,-0.675C0.039,-0.688 0.045,-0.701 0.057,-0.712C0.07,-0.723 0.084,-0.728 0.102,-0.728C0.122,-0.728 0.138,-0.722 0.149,-0.71C0.16,-0.698 0.176,-0.676 0.196,-0.644L0.303,-0.47L0.418,-0.644C0.427,-0.659 0.435,-0.671 0.442,-0.682C0.449,-0.692 0.455,-0.701 0.461,-0.708C0.468,-0.714 0.475,-0.719 0.482,-0.723C0.49,-0.726 0.499,-0.728 0.509,-0.728C0.527,-0.728 0.542,-0.723 0.553,-0.712C0.565,-0.701 0.571,-0.688 0.571,-0.673C0.571,-0.651 0.558,-0.621 0.533,-0.584L0.392,-0.373L0.544,-0.139C0.558,-0.119 0.568,-0.102 0.574,-0.088C0.58,-0.075 0.583,-0.062 0.583,-0.05C0.583,-0.038 0.58,-0.028 0.575,-0.019C0.569,-0.009 0.561,-0.002 0.551,0.004C0.541,0.009 0.53,0.012 0.517,0.012C0.503,0.012 0.492,0.009 0.482,0.004C0.473,-0.002 0.465,-0.009 0.459,-0.018C0.454,-0.026 0.443,-0.042 0.427,-0.067L0.301,-0.265L0.167,-0.061C0.157,-0.045 0.149,-0.033 0.145,-0.027C0.14,-0.02 0.135,-0.014 0.129,-0.008C0.123,-0.002 0.115,0.003 0.107,0.007C0.098,0.01 0.089,0.012 0.077,0.012C0.06,0.012 0.045,0.007 0.033,-0.004C0.022,-0.015 0.016,-0.03 0.016,-0.051C0.016,-0.075 0.028,-0.104 0.052,-0.139Z" style="fill:white;fill-rule:nonzero;"/>
            </g>
            <g transform="matrix(6.4,0,0,6.4,44.7436,51.8924)">
                <path d="M0.223,-0.115L0.478,-0.115C0.503,-0.115 0.523,-0.11 0.536,-0.1C0.549,-0.089 0.556,-0.075 0.556,-0.057C0.556,-0.041 0.551,-0.028 0.54,-0.017C0.53,-0.006 0.514,0 0.492,0L0.133,0C0.108,0 0.089,-0.007 0.076,-0.02C0.062,-0.034 0.055,-0.05 0.055,-0.068C0.055,-0.08 0.06,-0.095 0.068,-0.115C0.077,-0.134 0.087,-0.149 0.097,-0.16C0.14,-0.205 0.18,-0.244 0.214,-0.276C0.249,-0.308 0.274,-0.329 0.289,-0.339C0.316,-0.358 0.338,-0.377 0.356,-0.396C0.373,-0.415 0.387,-0.434 0.396,-0.454C0.406,-0.474 0.41,-0.494 0.41,-0.513C0.41,-0.534 0.405,-0.553 0.395,-0.569C0.385,-0.586 0.372,-0.598 0.355,-0.607C0.338,-0.617 0.319,-0.621 0.299,-0.621C0.256,-0.621 0.223,-0.602 0.198,-0.565C0.195,-0.56 0.19,-0.547 0.182,-0.525C0.174,-0.503 0.166,-0.486 0.156,-0.475C0.146,-0.463 0.132,-0.457 0.114,-0.457C0.097,-0.457 0.084,-0.462 0.073,-0.473C0.063,-0.484 0.057,-0.499 0.057,-0.517C0.057,-0.54 0.062,-0.563 0.072,-0.587C0.082,-0.612 0.097,-0.634 0.117,-0.654C0.137,-0.674 0.163,-0.69 0.194,-0.702C0.224,-0.714 0.26,-0.72 0.302,-0.72C0.352,-0.72 0.394,-0.712 0.429,-0.697C0.452,-0.686 0.472,-0.672 0.489,-0.654C0.507,-0.636 0.52,-0.615 0.53,-0.591C0.539,-0.567 0.544,-0.542 0.544,-0.516C0.544,-0.476 0.534,-0.439 0.514,-0.406C0.494,-0.373 0.473,-0.347 0.453,-0.328C0.432,-0.31 0.397,-0.28 0.348,-0.24C0.299,-0.2 0.265,-0.169 0.247,-0.147C0.239,-0.138 0.231,-0.128 0.223,-0.115Z" style="fill:white;fill-rule:nonzero;"/>
            </g>
        </g>
        <g transform="matrix(1.198,-1.2326e-32,0,0.958552,1082.03,-14.6463)">
            <g transform="matrix(6.4,0,0,6.4,34.3996,51.8924)">
                <path d="M0.393,-0.728C0.467,-0.728 0.531,-0.713 0.584,-0.683C0.637,-0.653 0.678,-0.61 0.705,-0.554C0.732,-0.499 0.746,-0.434 0.746,-0.359C0.746,-0.304 0.739,-0.253 0.724,-0.208C0.709,-0.163 0.686,-0.124 0.656,-0.09C0.626,-0.057 0.59,-0.032 0.546,-0.014C0.502,0.003 0.452,0.012 0.396,0.012C0.34,0.012 0.29,0.003 0.246,-0.015C0.201,-0.033 0.164,-0.058 0.135,-0.091C0.105,-0.124 0.083,-0.164 0.068,-0.21C0.052,-0.256 0.045,-0.306 0.045,-0.36C0.045,-0.415 0.053,-0.465 0.069,-0.511C0.084,-0.557 0.107,-0.596 0.137,-0.628C0.167,-0.661 0.204,-0.685 0.247,-0.702C0.29,-0.719 0.338,-0.728 0.393,-0.728ZM0.599,-0.36C0.599,-0.412 0.591,-0.458 0.574,-0.496C0.557,-0.535 0.533,-0.564 0.501,-0.583C0.47,-0.603 0.434,-0.613 0.393,-0.613C0.364,-0.613 0.337,-0.607 0.313,-0.596C0.288,-0.586 0.267,-0.57 0.249,-0.549C0.232,-0.528 0.218,-0.501 0.207,-0.469C0.197,-0.437 0.192,-0.4 0.192,-0.36C0.192,-0.319 0.197,-0.282 0.207,-0.25C0.218,-0.217 0.232,-0.189 0.251,-0.168C0.269,-0.146 0.291,-0.13 0.315,-0.119C0.339,-0.108 0.366,-0.103 0.395,-0.103C0.432,-0.103 0.466,-0.112 0.497,-0.131C0.528,-0.149 0.553,-0.178 0.572,-0.217C0.59,-0.256 0.599,-0.303 0.599,-0.36Z" style="fill:white;fill-rule:nonzero;"/>
            </g>
            <g transform="matrix(6.4,0,0,6.4,39.3403,51.8924)">
                <path d="M0.079,-0.296L0.079,-0.64C0.079,-0.669 0.086,-0.691 0.099,-0.706C0.112,-0.721 0.129,-0.728 0.151,-0.728C0.173,-0.728 0.191,-0.721 0.204,-0.706C0.218,-0.691 0.224,-0.669 0.224,-0.64L0.224,-0.288C0.224,-0.248 0.229,-0.215 0.238,-0.188C0.247,-0.161 0.262,-0.14 0.285,-0.125C0.308,-0.11 0.34,-0.103 0.381,-0.103C0.438,-0.103 0.478,-0.118 0.501,-0.148C0.524,-0.178 0.536,-0.224 0.536,-0.285L0.536,-0.64C0.536,-0.67 0.543,-0.692 0.556,-0.706C0.569,-0.721 0.586,-0.728 0.608,-0.728C0.63,-0.728 0.647,-0.721 0.661,-0.706C0.674,-0.692 0.681,-0.67 0.681,-0.64L0.681,-0.296C0.681,-0.24 0.676,-0.193 0.665,-0.156C0.654,-0.118 0.633,-0.085 0.603,-0.057C0.577,-0.033 0.547,-0.015 0.512,-0.004C0.478,0.007 0.437,0.012 0.391,0.012C0.336,0.012 0.289,0.006 0.249,-0.006C0.209,-0.017 0.177,-0.036 0.152,-0.061C0.127,-0.086 0.108,-0.118 0.097,-0.156C0.085,-0.195 0.079,-0.242 0.079,-0.296Z" style="fill:white;fill-rule:nonzero;"/>
            </g>
            <g transform="matrix(6.4,0,0,6.4,44.0748,51.8924)">
                <path d="M0.543,-0.596L0.385,-0.596L0.385,-0.076C0.385,-0.046 0.378,-0.024 0.365,-0.01C0.351,0.005 0.334,0.012 0.313,0.012C0.292,0.012 0.274,0.005 0.26,-0.01C0.247,-0.024 0.24,-0.047 0.24,-0.076L0.24,-0.596L0.082,-0.596C0.057,-0.596 0.039,-0.602 0.027,-0.613C0.015,-0.623 0.009,-0.638 0.009,-0.656C0.009,-0.674 0.015,-0.689 0.028,-0.7C0.04,-0.71 0.058,-0.716 0.082,-0.716L0.543,-0.716C0.568,-0.716 0.587,-0.71 0.599,-0.699C0.611,-0.688 0.617,-0.674 0.617,-0.656C0.617,-0.638 0.611,-0.623 0.599,-0.613C0.586,-0.602 0.568,-0.596 0.543,-0.596Z" style="fill:white;fill-rule:nonzero;"/>
            </g>
        </g>
        <g transform="matrix(1.198,-1.2326e-32,0,0.958552,1481.67,-14.9055)">
            <g transform="matrix(6.4,0,0,6.4,34.3996,51.8924)">
                <path d="M0.393,-0.728C0.467,-0.728 0.531,-0.713 0.584,-0.683C0.637,-0.653 0.678,-0.61 0.705,-0.554C0.732,-0.499 0.746,-0.434 0.746,-0.359C0.746,-0.304 0.739,-0.253 0.724,-0.208C0.709,-0.163 0.686,-0.124 0.656,-0.09C0.626,-0.057 0.59,-0.032 0.546,-0.014C0.502,0.003 0.452,0.012 0.396,0.012C0.34,0.012 0.29,0.003 0.246,-0.015C0.201,-0.033 0.164,-0.058 0.135,-0.091C0.105,-0.124 0.083,-0.164 0.068,-0.21C0.052,-0.256 0.045,-0.306 0.045,-0.36C0.045,-0.415 0.053,-0.465 0.069,-0.511C0.084,-0.557 0.107,-0.596 0.137,-0.628C0.167,-0.661 0.204,-0.685 0.247,-0.702C0.29,-0.719 0.338,-0.728 0.393,-0.728ZM0.599,-0.36C0.599,-0.412 0.591,-0.458 0.574,-0.496C0.557,-0.535 0.533,-0.564 0.501,-0.583C0.47,-0.603 0.434,-0.613 0.393,-0.613C0.364,-0.613 0.337,-0.607 0.313,-0.596C0.288,-0.586 0.267,-0.57 0.249,-0.549C0.232,-0.528 0.218,-0.501 0.207,-0.469C0.197,-0.437 0.192,-0.4 0.192,-0.36C0.192,-0.319 0.197,-0.282 0.207,-0.25C0.218,-0.217 0.232,-0.189 0.251,-0.168C0.269,-0.146 0.291,-0.13 0.315,-0.119C0.339,-0.108 0.366,-0.103 0.395,-0.103C0.432,-0.103 0.466,-0.112 0.497,-0.131C0.528,-0.149 0.553,-0.178 0.572,-0.217C0.59,-0.256 0.599,-0.303 0.599,-0.36Z" style="fill:white;fill-rule:nonzero;"/>
            </g>
            <g transform="matrix(6.4,0,0,6.4,39.3403,51.8924)">
                <path d="M0.079,-0.296L0.079,-0.64C0.079,-0.669 0.086,-0.691 0.099,-0.706C0.112,-0.721 0.129,-0.728 0.151,-0.728C0.173,-0.728 0.191,-0.721 0.204,-0.706C0.218,-0.691 0.224,-0.669 0.224,-0.64L0.224,-0.288C0.224,-0.248 0.229,-0.215 0.238,-0.188C0.247,-0.161 0.262,-0.14 0.285,-0.125C0.308,-0.11 0.34,-0.103 0.381,-0.103C0.438,-0.103 0.478,-0.118 0.501,-0.148C0.524,-0.178 0.536,-0.224 0.536,-0.285L0.536,-0.64C0.536,-0.67 0.543,-0.692 0.556,-0.706C0.569,-0.721 0.586,-0.728 0.608,-0.728C0.63,-0.728 0.647,-0.721 0.661,-0.706C0.674,-0.692 0.681,-0.67 0.681,-0.64L0.681,-0.296C0.681,-0.24 0.676,-0.193 0.665,-0.156C0.654,-0.118 0.633,-0.085 0.603,-0.057C0.577,-0.033 0.547,-0.015 0.512,-0.004C0.478,0.007 0.437,0.012 0.391,0.012C0.336,0.012 0.289,0.006 0.249,-0.006C0.209,-0.017 0.177,-0.036 0.152,-0.061C0.127,-0.086 0.108,-0.118 0.097,-0.156C0.085,-0.195 0.079,-0.242 0.079,-0.296Z" style="fill:white;fill-rule:nonzero;"/>
            </g>
            <g transform="matrix(6.4,0,0,6.4,44.0748,51.8924)">
                <path d="M0.543,-0.596L0.385,-0.596L0.385,-0.076C0.385,-0.046 0.378,-0.024 0.365,-0.01C0.351,0.005 0.334,0.012 0.313,0.012C0.292,0.012 0.274,0.005 0.26,-0.01C0.247,-0.024 0.24,-0.047 0.24,-0.076L0.24,-0.596L0.082,-0.596C0.057,-0.596 0.039,-0.602 0.027,-0.613C0.015,-0.623 0.009,-0.638 0.009,-0.656C0.009,-0.674 0.015,-0.689 0.028,-0.7C0.04,-0.71 0.058,-0.716 0.082,-0.716L0.543,-0.716C0.568,-0.716 0.587,-0.71 0.599,-0.699C0.611,-0.688 0.617,-0.674 0.617,-0.656C0.617,-0.638 0.611,-0.623 0.599,-0.613C0.586,-0.602 0.568,-0.596 0.543,-0.596Z" style="fill:white;fill-rule:nonzero;"/>
            </g>
        </g>
        <g transform="matrix(2.53404,0,0,4.20435,960.653,-401.948)">
            <rect x="5.107" y="56.924" width="68.031" height="26.78" style="fill:white;fill-opacity:0.5;"/>
        </g>
        <g transform="matrix(2.53404,0,0,2.55336,960.653,-195.374)">
            <path d="M73.138,56.924L5.107,56.924L5.107,82.202C5.107,83.031 5.954,83.704 6.998,83.704L71.246,83.704C72.29,83.704 73.138,83.031 73.138,82.202L73.138,56.924Z" style="fill:white;fill-opacity:0.8;"/>
        </g>
        <g transform="matrix(2.53404,0,0,1.09779,960.653,-254.51)">
            <path d="M73.138,60.416C73.138,58.489 72.29,56.924 71.246,56.924L6.998,56.924C5.954,56.924 5.107,58.489 5.107,60.416L5.107,83.704L73.138,83.704L73.138,60.416Z" style="fill:white;fill-opacity:0.8;"/>
        </g>
        <g transform="matrix(1.69313,0,0,1.14809,1202.38,-10.994)">
            <path d="M73.138,60.263C73.138,58.42 71.869,56.924 70.307,56.924L7.937,56.924C6.375,56.924 5.107,58.42 5.107,60.263L5.107,80.364C5.107,82.208 6.375,83.704 7.937,83.704L70.307,83.704C71.869,83.704 73.138,82.208 73.138,80.364L73.138,60.263Z" style="fill:white;fill-opacity:0.8;"/>
        </g>
        <g transform="matrix(1.6923,0,0,1.14809,1327.98,-10.994)">
            <path d="M73.138,60.263C73.138,58.42 71.869,56.924 70.306,56.924L7.939,56.924C6.376,56.924 5.107,58.42 5.107,60.263L5.107,80.364C5.107,82.208 6.376,83.704 7.939,83.704L70.306,83.704C71.869,83.704 73.138,82.208 73.138,80.364L73.138,60.263Z" style="fill:white;fill-opacity:0.8;"/>
        </g>
        <g transform="matrix(2.53404,0,0,4.20435,1503.84,-401.948)">
            <rect x="5.107" y="56.924" width="68.031" height="26.78" style="fill:white;fill-opacity:0.5;"/>
        </g>
        <g transform="matrix(2.53404,0,0,2.55336,1503.84,-195.374)">
            <path d="M73.138,56.924L5.107,56.924L5.107,82.202C5.107,83.031 5.954,83.704 6.998,83.704L71.246,83.704C72.29,83.704 73.138,83.031 73.138,82.202L73.138,56.924Z" style="fill:white;fill-opacity:0.8;"/>
        </g>
        <g transform="matrix(2.53404,0,0,1.09779,1503.84,-254.51)">
            <path d="M73.138,60.416C73.138,58.489 72.29,56.924 71.246,56.924L6.998,56.924C5.954,56.924 5.107,58.489 5.107,60.416L5.107,83.704L73.138,83.704L73.138,60.416Z" style="fill:white;fill-opacity:0.8;"/>
        </g>
        <g transform="matrix(2.53404,0,0,1.14809,960.653,-10.994)">
            <path d="M73.138,60.263C73.138,58.42 72.29,56.924 71.246,56.924L6.998,56.924C5.954,56.924 5.107,58.42 5.107,60.263L5.107,80.364C5.107,82.208 5.954,83.704 6.998,83.704L71.246,83.704C72.29,83.704 73.138,82.208 73.138,80.364L73.138,60.263Z" style="fill:white;fill-opacity:0.5;"/>
        </g>
        <g transform="matrix(0.859518,0,0,1.14809,1148.16,-10.9663)">
            <path d="M73.138,60.263C73.138,58.42 70.639,56.924 67.562,56.924L10.682,56.924C7.605,56.924 5.107,58.42 5.107,60.263L5.107,80.364C5.107,82.208 7.605,83.704 10.682,83.704L67.562,83.704C70.639,83.704 73.138,82.208 73.138,80.364L73.138,60.263Z" style="fill-opacity:0.8;"/>
        </g>
        <g transform="matrix(1.198,0,0,0.958552,1081.9,12.8013)">
            <g transform="matrix(6.4,0,0,6.4,36.5339,51.8924)">
                <path d="M0.052,-0.139L0.212,-0.373L0.077,-0.581C0.064,-0.601 0.055,-0.619 0.049,-0.633C0.042,-0.648 0.039,-0.661 0.039,-0.675C0.039,-0.688 0.045,-0.701 0.057,-0.712C0.07,-0.723 0.084,-0.728 0.102,-0.728C0.122,-0.728 0.138,-0.722 0.149,-0.71C0.16,-0.698 0.176,-0.676 0.196,-0.644L0.303,-0.47L0.418,-0.644C0.427,-0.659 0.435,-0.671 0.442,-0.682C0.449,-0.692 0.455,-0.701 0.461,-0.708C0.468,-0.714 0.475,-0.719 0.482,-0.723C0.49,-0.726 0.499,-0.728 0.509,-0.728C0.527,-0.728 0.542,-0.723 0.553,-0.712C0.565,-0.701 0.571,-0.688 0.571,-0.673C0.571,-0.651 0.558,-0.621 0.533,-0.584L0.392,-0.373L0.544,-0.139C0.558,-0.119 0.568,-0.102 0.574,-0.088C0.58,-0.075 0.583,-0.062 0.583,-0.05C0.583,-0.038 0.58,-0.028 0.575,-0.019C0.569,-0.009 0.561,-0.002 0.551,0.004C0.541,0.009 0.53,0.012 0.517,0.012C0.503,0.012 0.492,0.009 0.482,0.004C0.473,-0.002 0.465,-0.009 0.459,-0.018C0.454,-0.026 0.443,-0.042 0.427,-0.067L0.301,-0.265L0.167,-0.061C0.157,-0.045 0.149,-0.033 0.145,-0.027C0.14,-0.02 0.135,-0.014 0.129,-0.008C0.123,-0.002 0.115,0.003 0.107,0.007C0.098,0.01 0.089,0.012 0.077,0.012C0.06,0.012 0.045,0.007 0.033,-0.004C0.022,-0.015 0.016,-0.03 0.016,-0.051C0.016,-0.075 0.028,-0.104 0.052,-0.139Z" style="fill-rule:nonzero;"/>
            </g>
            <g transform="matrix(6.4,0,0,6.4,40.2716,51.8924)">
                <path d="M0.258,-0.629L0.121,-0.066C0.117,-0.047 0.113,-0.033 0.109,-0.022C0.106,-0.011 0.101,-0.003 0.094,0.003C0.087,0.009 0.076,0.012 0.063,0.012C0.03,0.012 0.013,-0.002 0.013,-0.031C0.013,-0.038 0.016,-0.057 0.023,-0.087L0.159,-0.65C0.166,-0.68 0.173,-0.7 0.18,-0.711C0.186,-0.722 0.199,-0.728 0.218,-0.728C0.234,-0.728 0.247,-0.724 0.255,-0.716C0.264,-0.708 0.268,-0.698 0.268,-0.684C0.268,-0.674 0.265,-0.656 0.258,-0.629Z" style="fill-rule:nonzero;"/>
            </g>
            <g transform="matrix(6.4,0,0,6.4,41.9404,51.8924)">
                <path d="M0.238,-0.076L0.238,-0.303L0.063,-0.574C0.048,-0.599 0.037,-0.618 0.031,-0.631C0.024,-0.645 0.021,-0.657 0.021,-0.667C0.021,-0.684 0.027,-0.698 0.04,-0.71C0.053,-0.722 0.069,-0.728 0.088,-0.728C0.108,-0.728 0.123,-0.722 0.133,-0.711C0.143,-0.7 0.159,-0.678 0.179,-0.644L0.313,-0.427L0.448,-0.644C0.456,-0.657 0.463,-0.669 0.469,-0.678C0.474,-0.687 0.48,-0.695 0.487,-0.703C0.494,-0.711 0.501,-0.717 0.509,-0.722C0.517,-0.726 0.527,-0.728 0.539,-0.728C0.557,-0.728 0.573,-0.722 0.585,-0.71C0.597,-0.698 0.603,-0.685 0.603,-0.669C0.603,-0.656 0.6,-0.644 0.594,-0.631C0.588,-0.618 0.577,-0.601 0.562,-0.578L0.383,-0.303L0.383,-0.076C0.383,-0.047 0.376,-0.024 0.362,-0.01C0.349,0.005 0.331,0.012 0.31,0.012C0.289,0.012 0.271,0.005 0.258,-0.01C0.244,-0.024 0.238,-0.046 0.238,-0.076Z" style="fill-rule:nonzero;"/>
            </g>
        </g>
        <g transform="matrix(1.198,0,0,0.958552,1116.55,12.829)">
            <g transform="matrix(6.4,0,0,6.4,33.9276,51.8924)">
                <path d="M0.32,-0.108L0.205,-0.564L0.205,-0.07C0.205,-0.042 0.199,-0.022 0.187,-0.008C0.175,0.005 0.158,0.012 0.138,0.012C0.119,0.012 0.103,0.005 0.09,-0.008C0.078,-0.022 0.072,-0.042 0.072,-0.07L0.072,-0.636C0.072,-0.667 0.08,-0.689 0.096,-0.699C0.112,-0.71 0.134,-0.716 0.162,-0.716L0.207,-0.716C0.234,-0.716 0.254,-0.713 0.266,-0.708C0.278,-0.704 0.287,-0.695 0.293,-0.682C0.299,-0.669 0.306,-0.649 0.313,-0.62L0.417,-0.228L0.521,-0.62C0.528,-0.649 0.535,-0.669 0.541,-0.682C0.547,-0.695 0.556,-0.704 0.568,-0.708C0.58,-0.713 0.6,-0.716 0.627,-0.716L0.672,-0.716C0.7,-0.716 0.722,-0.71 0.738,-0.699C0.754,-0.689 0.762,-0.667 0.762,-0.636L0.762,-0.07C0.762,-0.042 0.756,-0.022 0.744,-0.008C0.732,0.005 0.715,0.012 0.695,0.012C0.676,0.012 0.66,0.005 0.647,-0.008C0.635,-0.022 0.629,-0.042 0.629,-0.07L0.629,-0.564L0.514,-0.108C0.507,-0.078 0.501,-0.057 0.496,-0.043C0.491,-0.029 0.482,-0.016 0.47,-0.005C0.457,0.007 0.439,0.012 0.417,0.012C0.4,0.012 0.386,0.009 0.374,0.001C0.362,-0.006 0.353,-0.015 0.347,-0.027C0.34,-0.038 0.335,-0.051 0.331,-0.065C0.328,-0.079 0.324,-0.093 0.32,-0.108Z" style="fill:white;fill-rule:nonzero;"/>
            </g>
            <g transform="matrix(6.4,0,0,6.4,39.1309,51.8924)">
                <path d="M0.084,-0.076L0.084,-0.64C0.084,-0.669 0.091,-0.691 0.104,-0.706C0.117,-0.721 0.135,-0.728 0.156,-0.728C0.178,-0.728 0.195,-0.721 0.209,-0.706C0.222,-0.692 0.229,-0.67 0.229,-0.64L0.229,-0.076C0.229,-0.047 0.222,-0.024 0.209,-0.01C0.195,0.005 0.178,0.012 0.156,0.012C0.135,0.012 0.118,0.005 0.104,-0.01C0.091,-0.025 0.084,-0.047 0.084,-0.076Z" style="fill:white;fill-rule:nonzero;"/>
            </g>
            <g transform="matrix(6.4,0,0,6.4,41.006,51.8924)">
                <path d="M0.052,-0.139L0.212,-0.373L0.077,-0.581C0.064,-0.601 0.055,-0.619 0.049,-0.633C0.042,-0.648 0.039,-0.661 0.039,-0.675C0.039,-0.688 0.045,-0.701 0.057,-0.712C0.07,-0.723 0.084,-0.728 0.102,-0.728C0.122,-0.728 0.138,-0.722 0.149,-0.71C0.16,-0.698 0.176,-0.676 0.196,-0.644L0.303,-0.47L0.418,-0.644C0.427,-0.659 0.435,-0.671 0.442,-0.682C0.449,-0.692 0.455,-0.701 0.461,-0.708C0.468,-0.714 0.475,-0.719 0.482,-0.723C0.49,-0.726 0.499,-0.728 0.509,-0.728C0.527,-0.728 0.542,-0.723 0.553,-0.712C0.565,-0.701 0.571,-0.688 0.571,-0.673C0.571,-0.651 0.558,-0.621 0.533,-0.584L0.392,-0.373L0.544,-0.139C0.558,-0.119 0.568,-0.102 0.574,-0.088C0.58,-0.075 0.583,-0.062 0.583,-0.05C0.583,-0.038 0.58,-0.028 0.575,-0.019C0.569,-0.009 0.561,-0.002 0.551,0.004C0.541,0.009 0.53,0.012 0.517,0.012C0.503,0.012 0.492,0.009 0.482,0.004C0.473,-0.002 0.465,-0.009 0.459,-0.018C0.454,-0.026 0.443,-0.042 0.427,-0.067L0.301,-0.265L0.167,-0.061C0.157,-0.045 0.149,-0.033 0.145,-0.027C0.14,-0.02 0.135,-0.014 0.129,-0.008C0.123,-0.002 0.115,0.003 0.107,0.007C0.098,0.01 0.089,0.012 0.077,0.012C0.06,0.012 0.045,0.007 0.033,-0.004C0.022,-0.015 0.016,-0.03 0.016,-0.051C0.016,-0.075 0.028,-0.104 0.052,-0.139Z" style="fill:white;fill-rule:nonzero;"/>
            </g>
            <g transform="matrix(6.4,0,0,6.4,44.7436,51.8924)">
                <path d="M0.282,-0.067L0.282,-0.511C0.2,-0.448 0.144,-0.416 0.115,-0.416C0.102,-0.416 0.089,-0.421 0.079,-0.432C0.068,-0.443 0.063,-0.456 0.063,-0.47C0.063,-0.487 0.068,-0.499 0.079,-0.507C0.089,-0.515 0.107,-0.525 0.134,-0.537C0.173,-0.556 0.205,-0.575 0.228,-0.596C0.252,-0.616 0.273,-0.639 0.291,-0.665C0.309,-0.69 0.321,-0.706 0.327,-0.711C0.332,-0.717 0.343,-0.72 0.358,-0.72C0.375,-0.72 0.389,-0.714 0.399,-0.7C0.41,-0.687 0.415,-0.668 0.415,-0.645L0.415,-0.086C0.415,-0.021 0.393,0.012 0.348,0.012C0.328,0.012 0.312,0.006 0.3,-0.008C0.288,-0.021 0.282,-0.041 0.282,-0.067Z" style="fill:white;fill-rule:nonzero;"/>
            </g>
        </g>
        <g transform="matrix(1.74775,0,0,1.1624,1129.29,-253.499)">
            <path d="M217.954,56.111C217.954,54.29 216.726,52.812 215.213,52.812L16.049,52.812C14.536,52.812 13.307,54.29 13.307,56.111L13.307,255.811C13.307,257.632 14.536,259.11 16.049,259.11L215.213,259.11C216.726,259.11 217.954,257.632 217.954,255.811L217.954,56.111Z" style="fill-opacity:0.9;"/>
        </g>
        <g transform="matrix(5.10679,0,0,8.64441,1131.6,-679.955)">
            <path d="M73.138,57.145C73.138,57.023 72.927,56.924 72.668,56.924L5.576,56.924C5.317,56.924 5.107,57.023 5.107,57.145L5.107,83.482C5.107,83.605 5.317,83.704 5.576,83.704L72.668,83.704C72.927,83.704 73.138,83.605 73.138,83.482L73.138,57.145Z" style="fill:rgb(0,16,90);stroke:white;stroke-opacity:0.1;stroke-width:0.14px;stroke-linecap:butt;stroke-miterlimit:1.41421;"/>
        </g>
        <g transform="matrix(1.67494,0,0,0.817083,953.06,-230.95)">
            <path d="M25.865,66.808C25.865,66.161 25.544,65.635 25.149,65.635L23.719,65.635C23.324,65.635 23.004,66.161 23.004,66.808L23.004,325.204C23.004,325.852 23.324,326.377 23.719,326.377L25.149,326.377C25.544,326.377 25.865,325.852 25.865,325.204L25.865,66.808Z" style="fill:rgb(128,187,254);fill-opacity:0.8;"/>
        </g>
        <g transform="matrix(1.67494,0,0,0.817083,1062.43,-230.95)">
            <path d="M25.865,66.808C25.865,66.161 25.544,65.635 25.149,65.635L23.719,65.635C23.324,65.635 23.004,66.161 23.004,66.808L23.004,325.204C23.004,325.852 23.324,326.377 23.719,326.377L25.149,326.377C25.544,326.377 25.865,325.852 25.865,325.204L25.865,66.808Z" style="fill:rgb(128,187,254);fill-opacity:0.8;"/>
        </g>
        <g transform="matrix(1.67494,0,0,0.817083,989.515,-230.95)">
            <path d="M25.865,66.808C25.865,66.161 25.544,65.635 25.149,65.635L23.719,65.635C23.324,65.635 23.004,66.161 23.004,66.808L23.004,325.204C23.004,325.852 23.324,326.377 23.719,326.377L25.149,326.377C25.544,326.377 25.865,325.852 25.865,325.204L25.865,66.808Z" style="fill:rgb(128,187,254);fill-opacity:0.8;"/>
        </g>
        <g transform="matrix(1.67494,0,0,0.817083,1025.97,-230.95)">
            <path d="M25.865,66.808C25.865,66.161 25.544,65.635 25.149,65.635L23.719,65.635C23.324,65.635 23.004,66.161 23.004,66.808L23.004,325.204C23.004,325.852 23.324,326.377 23.719,326.377L25.149,326.377C25.544,326.377 25.865,325.852 25.865,325.204L25.865,66.808Z" style="fill:rgb(128,187,254);fill-opacity:0.8;"/>
        </g>
        <g transform="matrix(1.67494,0,0,0.807872,1627.86,-230.771)">
            <path d="M25.865,66.822C25.865,66.167 25.544,65.635 25.149,65.635L23.719,65.635C23.324,65.635 23.004,66.167 23.004,66.822L23.004,325.191C23.004,325.846 23.324,326.377 23.719,326.377L25.149,326.377C25.544,326.377 25.865,325.846 25.865,325.191L25.865,66.822Z" style="fill:rgb(128,187,254);fill-opacity:0.8;"/>
        </g>
        <g transform="matrix(1.67494,0,0,0.806878,1591.29,-230.28)">
            <path d="M25.865,66.823C25.865,66.167 25.544,65.635 25.149,65.635L23.719,65.635C23.324,65.635 23.004,66.167 23.004,66.823L23.004,325.189C23.004,325.845 23.324,326.377 23.719,326.377L25.149,326.377C25.544,326.377 25.865,325.845 25.865,325.189L25.865,66.823Z" style="fill:rgb(128,187,254);fill-opacity:0.8;"/>
        </g>
        <g transform="matrix(1.67494,0,0,0.806878,1554.72,-230.28)">
            <path d="M25.865,66.823C25.865,66.167 25.544,65.635 25.149,65.635L23.719,65.635C23.324,65.635 23.004,66.167 23.004,66.823L23.004,325.189C23.004,325.845 23.324,326.377 23.719,326.377L25.149,326.377C25.544,326.377 25.865,325.845 25.865,325.189L25.865,66.823Z" style="fill:rgb(128,187,254);fill-opacity:0.8;"/>
        </g>
        <g transform="matrix(1.67494,0,0,0.806878,1518.15,-230.28)">
            <path d="M25.865,66.823C25.865,66.167 25.544,65.635 25.149,65.635L23.719,65.635C23.324,65.635 23.004,66.167 23.004,66.823L23.004,325.189C23.004,325.845 23.324,326.377 23.719,326.377L25.149,326.377C25.544,326.377 25.865,325.845 25.865,325.189L25.865,66.823Z" style="fill:rgb(128,187,254);fill-opacity:0.8;"/>
        </g>
        <g transform="matrix(1.198,0,0,0.958552,1081.89,-194.435)">
            <g transform="matrix(6.4,0,0,6.4,39.3044,51.8924)">
                <path d="M0.052,-0.139L0.212,-0.373L0.077,-0.581C0.064,-0.601 0.055,-0.619 0.049,-0.633C0.042,-0.648 0.039,-0.661 0.039,-0.675C0.039,-0.688 0.045,-0.701 0.057,-0.712C0.07,-0.723 0.084,-0.728 0.102,-0.728C0.122,-0.728 0.138,-0.722 0.149,-0.71C0.16,-0.698 0.176,-0.676 0.196,-0.644L0.303,-0.47L0.418,-0.644C0.427,-0.659 0.435,-0.671 0.442,-0.682C0.449,-0.692 0.455,-0.701 0.461,-0.708C0.468,-0.714 0.475,-0.719 0.482,-0.723C0.49,-0.726 0.499,-0.728 0.509,-0.728C0.527,-0.728 0.542,-0.723 0.553,-0.712C0.565,-0.701 0.571,-0.688 0.571,-0.673C0.571,-0.651 0.558,-0.621 0.533,-0.584L0.392,-0.373L0.544,-0.139C0.558,-0.119 0.568,-0.102 0.574,-0.088C0.58,-0.075 0.583,-0.062 0.583,-0.05C0.583,-0.038 0.58,-0.028 0.575,-0.019C0.569,-0.009 0.561,-0.002 0.551,0.004C0.541,0.009 0.53,0.012 0.517,0.012C0.503,0.012 0.492,0.009 0.482,0.004C0.473,-0.002 0.465,-0.009 0.459,-0.018C0.454,-0.026 0.443,-0.042 0.427,-0.067L0.301,-0.265L0.167,-0.061C0.157,-0.045 0.149,-0.033 0.145,-0.027C0.14,-0.02 0.135,-0.014 0.129,-0.008C0.123,-0.002 0.115,0.003 0.107,0.007C0.098,0.01 0.089,0.012 0.077,0.012C0.06,0.012 0.045,0.007 0.033,-0.004C0.022,-0.015 0.016,-0.03 0.016,-0.051C0.016,-0.075 0.028,-0.104 0.052,-0.139Z" style="fill-rule:nonzero;"/>
            </g>
        </g>
        <g transform="matrix(1.198,0,0,0.958552,933.08,-210.116)">
            <g transform="matrix(6.4,0,0,6.4,39.3356,51.8924)">
                <path d="M0.282,-0.067L0.282,-0.511C0.2,-0.448 0.144,-0.416 0.115,-0.416C0.102,-0.416 0.089,-0.421 0.079,-0.432C0.068,-0.443 0.063,-0.456 0.063,-0.47C0.063,-0.487 0.068,-0.499 0.079,-0.507C0.089,-0.515 0.107,-0.525 0.134,-0.537C0.173,-0.556 0.205,-0.575 0.228,-0.596C0.252,-0.616 0.273,-0.639 0.291,-0.665C0.309,-0.69 0.321,-0.706 0.327,-0.711C0.332,-0.717 0.343,-0.72 0.358,-0.72C0.375,-0.72 0.389,-0.714 0.399,-0.7C0.41,-0.687 0.415,-0.668 0.415,-0.645L0.415,-0.086C0.415,-0.021 0.393,0.012 0.348,0.012C0.328,0.012 0.312,0.006 0.3,-0.008C0.288,-0.021 0.282,-0.041 0.282,-0.067Z" style="fill-rule:nonzero;"/>
            </g>
        </g>
        <g transform="matrix(1.198,0,0,0.958552,969.596,-210.116)">
            <g transform="matrix(6.4,0,0,6.4,39.3356,51.8924)">
                <path d="M0.223,-0.115L0.478,-0.115C0.503,-0.115 0.523,-0.11 0.536,-0.1C0.549,-0.089 0.556,-0.075 0.556,-0.057C0.556,-0.041 0.551,-0.028 0.54,-0.017C0.53,-0.006 0.514,0 0.492,0L0.133,0C0.108,0 0.089,-0.007 0.076,-0.02C0.062,-0.034 0.055,-0.05 0.055,-0.068C0.055,-0.08 0.06,-0.095 0.068,-0.115C0.077,-0.134 0.087,-0.149 0.097,-0.16C0.14,-0.205 0.18,-0.244 0.214,-0.276C0.249,-0.308 0.274,-0.329 0.289,-0.339C0.316,-0.358 0.338,-0.377 0.356,-0.396C0.373,-0.415 0.387,-0.434 0.396,-0.454C0.406,-0.474 0.41,-0.494 0.41,-0.513C0.41,-0.534 0.405,-0.553 0.395,-0.569C0.385,-0.586 0.372,-0.598 0.355,-0.607C0.338,-0.617 0.319,-0.621 0.299,-0.621C0.256,-0.621 0.223,-0.602 0.198,-0.565C0.195,-0.56 0.19,-0.547 0.182,-0.525C0.174,-0.503 0.166,-0.486 0.156,-0.475C0.146,-0.463 0.132,-0.457 0.114,-0.457C0.097,-0.457 0.084,-0.462 0.073,-0.473C0.063,-0.484 0.057,-0.499 0.057,-0.517C0.057,-0.54 0.062,-0.563 0.072,-0.587C0.082,-0.612 0.097,-0.634 0.117,-0.654C0.137,-0.674 0.163,-0.69 0.194,-0.702C0.224,-0.714 0.26,-0.72 0.302,-0.72C0.352,-0.72 0.394,-0.712 0.429,-0.697C0.452,-0.686 0.472,-0.672 0.489,-0.654C0.507,-0.636 0.52,-0.615 0.53,-0.591C0.539,-0.567 0.544,-0.542 0.544,-0.516C0.544,-0.476 0.534,-0.439 0.514,-0.406C0.494,-0.373 0.473,-0.347 0.453,-0.328C0.432,-0.31 0.397,-0.28 0.348,-0.24C0.299,-0.2 0.265,-0.169 0.247,-0.147C0.239,-0.138 0.231,-0.128 0.223,-0.115Z" style="fill-rule:nonzero;"/>
            </g>
        </g>
        <g transform="matrix(1.198,0,0,0.958552,1006.1,-210.194)">
            <g transform="matrix(6.4,0,0,6.4,39.3356,51.8924)">
                <path d="M0.274,-0.432C0.304,-0.432 0.33,-0.441 0.351,-0.458C0.373,-0.476 0.384,-0.501 0.384,-0.534C0.384,-0.559 0.375,-0.581 0.358,-0.599C0.341,-0.617 0.317,-0.626 0.288,-0.626C0.268,-0.626 0.252,-0.623 0.239,-0.618C0.226,-0.612 0.216,-0.605 0.208,-0.596C0.201,-0.587 0.194,-0.575 0.187,-0.561C0.181,-0.546 0.174,-0.533 0.169,-0.52C0.166,-0.513 0.16,-0.508 0.151,-0.504C0.143,-0.5 0.133,-0.498 0.122,-0.498C0.109,-0.498 0.097,-0.503 0.086,-0.514C0.075,-0.524 0.07,-0.539 0.07,-0.556C0.07,-0.573 0.075,-0.591 0.085,-0.61C0.095,-0.628 0.11,-0.646 0.13,-0.663C0.15,-0.68 0.174,-0.694 0.204,-0.704C0.233,-0.714 0.266,-0.719 0.302,-0.719C0.333,-0.719 0.362,-0.715 0.388,-0.706C0.414,-0.698 0.437,-0.685 0.456,-0.669C0.475,-0.653 0.49,-0.634 0.5,-0.612C0.509,-0.591 0.514,-0.568 0.514,-0.543C0.514,-0.51 0.507,-0.483 0.493,-0.459C0.479,-0.436 0.458,-0.413 0.432,-0.391C0.458,-0.377 0.479,-0.362 0.496,-0.344C0.514,-0.327 0.527,-0.307 0.536,-0.286C0.544,-0.265 0.549,-0.242 0.549,-0.217C0.549,-0.187 0.543,-0.159 0.531,-0.131C0.519,-0.103 0.502,-0.079 0.479,-0.057C0.455,-0.035 0.428,-0.018 0.396,-0.006C0.365,0.006 0.329,0.012 0.291,0.012C0.252,0.012 0.217,0.005 0.186,-0.009C0.155,-0.023 0.13,-0.04 0.11,-0.061C0.09,-0.082 0.074,-0.104 0.064,-0.126C0.054,-0.149 0.049,-0.167 0.049,-0.182C0.049,-0.201 0.055,-0.216 0.067,-0.228C0.079,-0.239 0.095,-0.245 0.113,-0.245C0.122,-0.245 0.131,-0.242 0.139,-0.237C0.148,-0.232 0.153,-0.225 0.156,-0.218C0.173,-0.173 0.191,-0.139 0.21,-0.117C0.23,-0.095 0.257,-0.084 0.292,-0.084C0.312,-0.084 0.332,-0.089 0.35,-0.099C0.369,-0.109 0.385,-0.124 0.397,-0.143C0.409,-0.163 0.415,-0.185 0.415,-0.211C0.415,-0.249 0.405,-0.279 0.384,-0.301C0.363,-0.322 0.334,-0.333 0.297,-0.333C0.29,-0.333 0.28,-0.332 0.267,-0.331C0.253,-0.33 0.244,-0.329 0.24,-0.329C0.222,-0.329 0.208,-0.334 0.199,-0.343C0.189,-0.351 0.184,-0.364 0.184,-0.38C0.184,-0.396 0.19,-0.408 0.202,-0.418C0.213,-0.427 0.231,-0.432 0.254,-0.432L0.274,-0.432Z" style="fill-rule:nonzero;"/>
            </g>
        </g>
        <g transform="matrix(1.198,0,0,0.958552,1042.84,-210.086)">
            <g transform="matrix(6.4,0,0,6.4,39.3356,51.8924)">
                <path d="M0.35,-0.062L0.35,-0.153L0.105,-0.153C0.074,-0.153 0.051,-0.16 0.035,-0.174C0.02,-0.188 0.012,-0.207 0.012,-0.231C0.012,-0.237 0.013,-0.243 0.016,-0.25C0.018,-0.256 0.021,-0.263 0.026,-0.27C0.03,-0.277 0.035,-0.284 0.04,-0.29C0.045,-0.297 0.051,-0.305 0.058,-0.314L0.317,-0.66C0.334,-0.683 0.348,-0.699 0.359,-0.71C0.37,-0.72 0.383,-0.725 0.398,-0.725C0.447,-0.725 0.472,-0.697 0.472,-0.64L0.472,-0.262L0.493,-0.262C0.518,-0.262 0.538,-0.259 0.553,-0.252C0.569,-0.245 0.576,-0.23 0.576,-0.207C0.576,-0.188 0.57,-0.174 0.558,-0.166C0.545,-0.157 0.527,-0.153 0.502,-0.153L0.472,-0.153L0.472,-0.062C0.472,-0.037 0.467,-0.018 0.456,-0.006C0.444,0.006 0.43,0.012 0.411,0.012C0.393,0.012 0.378,0.006 0.367,-0.007C0.356,-0.019 0.35,-0.038 0.35,-0.062ZM0.14,-0.262L0.35,-0.262L0.35,-0.546L0.14,-0.262Z" style="fill-rule:nonzero;"/>
            </g>
        </g>
        <g transform="matrix(1.198,0,0,0.958552,1520.83,-210.086)">
            <g transform="matrix(6.4,0,0,6.4,39.3356,51.8924)">
                <path d="M0.463,-0.595L0.231,-0.595L0.203,-0.437C0.249,-0.462 0.292,-0.474 0.331,-0.474C0.362,-0.474 0.392,-0.468 0.419,-0.457C0.446,-0.445 0.47,-0.429 0.49,-0.408C0.511,-0.387 0.527,-0.363 0.539,-0.334C0.55,-0.306 0.556,-0.276 0.556,-0.243C0.556,-0.196 0.546,-0.153 0.524,-0.114C0.503,-0.076 0.473,-0.045 0.433,-0.022C0.393,0.001 0.347,0.012 0.295,0.012C0.237,0.012 0.189,0.001 0.153,-0.02C0.117,-0.042 0.091,-0.066 0.076,-0.094C0.061,-0.122 0.053,-0.146 0.053,-0.167C0.053,-0.18 0.059,-0.192 0.069,-0.203C0.08,-0.215 0.093,-0.22 0.109,-0.22C0.136,-0.22 0.157,-0.204 0.17,-0.173C0.183,-0.144 0.201,-0.121 0.223,-0.105C0.245,-0.089 0.27,-0.081 0.297,-0.081C0.322,-0.081 0.344,-0.088 0.363,-0.101C0.382,-0.114 0.396,-0.132 0.406,-0.154C0.417,-0.177 0.422,-0.203 0.422,-0.232C0.422,-0.263 0.416,-0.29 0.405,-0.312C0.394,-0.334 0.379,-0.351 0.361,-0.362C0.342,-0.372 0.322,-0.378 0.299,-0.378C0.271,-0.378 0.251,-0.375 0.239,-0.368C0.227,-0.361 0.209,-0.349 0.187,-0.332C0.164,-0.315 0.146,-0.306 0.131,-0.306C0.115,-0.306 0.101,-0.312 0.088,-0.323C0.076,-0.335 0.07,-0.348 0.07,-0.363C0.07,-0.364 0.072,-0.375 0.075,-0.396L0.116,-0.63C0.121,-0.658 0.129,-0.678 0.142,-0.691C0.154,-0.704 0.174,-0.71 0.202,-0.71L0.46,-0.71C0.511,-0.71 0.536,-0.691 0.536,-0.652C0.536,-0.635 0.53,-0.621 0.518,-0.611C0.505,-0.6 0.487,-0.595 0.463,-0.595Z" style="fill-rule:nonzero;"/>
            </g>
        </g>
        <g transform="matrix(1.198,0,0,0.958552,1557.55,-210.086)">
            <g transform="matrix(6.4,0,0,6.4,39.3356,51.8924)">
                <path d="M0.181,-0.387C0.203,-0.414 0.227,-0.433 0.253,-0.446C0.279,-0.458 0.309,-0.465 0.341,-0.465C0.372,-0.465 0.4,-0.459 0.427,-0.448C0.453,-0.436 0.476,-0.42 0.495,-0.398C0.515,-0.377 0.53,-0.352 0.541,-0.323C0.552,-0.294 0.557,-0.264 0.557,-0.232C0.557,-0.186 0.547,-0.144 0.526,-0.107C0.505,-0.069 0.475,-0.04 0.438,-0.019C0.4,0.002 0.358,0.012 0.31,0.012C0.255,0.012 0.208,-0.001 0.168,-0.028C0.129,-0.055 0.098,-0.094 0.077,-0.146C0.056,-0.198 0.046,-0.262 0.046,-0.338C0.046,-0.399 0.052,-0.454 0.065,-0.503C0.078,-0.551 0.096,-0.592 0.12,-0.624C0.143,-0.655 0.172,-0.68 0.206,-0.696C0.24,-0.712 0.278,-0.72 0.322,-0.72C0.363,-0.72 0.4,-0.712 0.432,-0.696C0.464,-0.68 0.488,-0.659 0.504,-0.635C0.52,-0.611 0.528,-0.588 0.528,-0.566C0.528,-0.553 0.523,-0.54 0.513,-0.53C0.503,-0.519 0.49,-0.513 0.474,-0.513C0.46,-0.513 0.448,-0.517 0.436,-0.526C0.424,-0.535 0.416,-0.547 0.41,-0.562C0.403,-0.582 0.391,-0.597 0.375,-0.609C0.358,-0.621 0.339,-0.627 0.318,-0.627C0.301,-0.627 0.283,-0.622 0.266,-0.612C0.249,-0.602 0.235,-0.589 0.223,-0.572C0.199,-0.537 0.185,-0.476 0.181,-0.387ZM0.313,-0.084C0.346,-0.084 0.373,-0.097 0.395,-0.124C0.416,-0.151 0.427,-0.186 0.427,-0.23C0.427,-0.26 0.422,-0.285 0.412,-0.306C0.402,-0.328 0.388,-0.344 0.37,-0.355C0.353,-0.366 0.333,-0.372 0.312,-0.372C0.292,-0.372 0.273,-0.367 0.254,-0.356C0.236,-0.345 0.221,-0.33 0.21,-0.309C0.198,-0.289 0.193,-0.265 0.193,-0.238C0.193,-0.194 0.204,-0.157 0.227,-0.128C0.25,-0.099 0.278,-0.084 0.313,-0.084Z" style="fill-rule:nonzero;"/>
            </g>
        </g>
        <g transform="matrix(1.198,0,0,0.958552,1593.96,-210.086)">
            <g transform="matrix(6.4,0,0,6.4,39.3356,51.8924)">
                <path d="M0.156,-0.709L0.481,-0.709C0.512,-0.709 0.535,-0.704 0.549,-0.694C0.563,-0.685 0.57,-0.668 0.57,-0.646C0.57,-0.632 0.562,-0.614 0.545,-0.592C0.529,-0.569 0.51,-0.545 0.489,-0.517C0.468,-0.49 0.446,-0.456 0.424,-0.416C0.402,-0.376 0.381,-0.326 0.363,-0.268C0.355,-0.242 0.349,-0.221 0.346,-0.204C0.343,-0.187 0.339,-0.165 0.335,-0.138C0.332,-0.111 0.328,-0.09 0.325,-0.076C0.318,-0.043 0.309,-0.02 0.296,-0.007C0.284,0.006 0.267,0.012 0.246,0.012C0.226,0.012 0.21,0.005 0.198,-0.009C0.186,-0.022 0.18,-0.043 0.18,-0.07C0.18,-0.091 0.185,-0.119 0.193,-0.155C0.202,-0.191 0.216,-0.233 0.236,-0.283C0.256,-0.333 0.281,-0.385 0.311,-0.437C0.341,-0.49 0.376,-0.542 0.417,-0.594L0.156,-0.594C0.128,-0.594 0.108,-0.599 0.094,-0.609C0.081,-0.619 0.074,-0.635 0.074,-0.656C0.074,-0.678 0.081,-0.693 0.096,-0.699C0.11,-0.706 0.13,-0.709 0.156,-0.709Z" style="fill-rule:nonzero;"/>
            </g>
        </g>
        <g transform="matrix(1.198,0,0,0.958552,1630.74,-210.011)">
            <g transform="matrix(6.4,0,0,6.4,39.3356,51.8924)">
                <path d="M0.067,-0.534C0.067,-0.567 0.076,-0.597 0.094,-0.626C0.111,-0.655 0.137,-0.678 0.172,-0.695C0.206,-0.713 0.246,-0.721 0.292,-0.721C0.331,-0.721 0.365,-0.716 0.394,-0.706C0.423,-0.696 0.448,-0.682 0.467,-0.664C0.487,-0.647 0.501,-0.627 0.511,-0.604C0.52,-0.582 0.525,-0.558 0.525,-0.533C0.525,-0.501 0.517,-0.473 0.5,-0.448C0.484,-0.423 0.459,-0.402 0.427,-0.386C0.454,-0.375 0.477,-0.361 0.496,-0.344C0.514,-0.327 0.528,-0.306 0.537,-0.283C0.546,-0.26 0.551,-0.235 0.551,-0.207C0.551,-0.166 0.541,-0.129 0.521,-0.095C0.501,-0.062 0.472,-0.036 0.434,-0.017C0.395,0.002 0.35,0.011 0.298,0.011C0.244,0.011 0.198,0.002 0.159,-0.017C0.121,-0.036 0.092,-0.062 0.072,-0.095C0.053,-0.128 0.043,-0.165 0.043,-0.206C0.043,-0.294 0.084,-0.354 0.167,-0.386C0.1,-0.417 0.067,-0.467 0.067,-0.534ZM0.417,-0.211C0.417,-0.236 0.412,-0.258 0.401,-0.277C0.391,-0.296 0.376,-0.311 0.357,-0.321C0.339,-0.331 0.317,-0.336 0.294,-0.336C0.261,-0.336 0.233,-0.325 0.21,-0.303C0.188,-0.281 0.177,-0.25 0.177,-0.21C0.177,-0.185 0.182,-0.162 0.193,-0.143C0.203,-0.123 0.218,-0.108 0.236,-0.098C0.254,-0.087 0.274,-0.082 0.297,-0.082C0.32,-0.082 0.34,-0.087 0.358,-0.098C0.377,-0.109 0.391,-0.124 0.401,-0.144C0.412,-0.163 0.417,-0.186 0.417,-0.211ZM0.295,-0.628C0.264,-0.628 0.24,-0.618 0.221,-0.599C0.202,-0.58 0.193,-0.556 0.193,-0.526C0.193,-0.498 0.202,-0.475 0.222,-0.457C0.241,-0.438 0.266,-0.429 0.296,-0.429C0.311,-0.429 0.325,-0.432 0.338,-0.437C0.35,-0.441 0.361,-0.448 0.37,-0.457C0.379,-0.465 0.386,-0.476 0.391,-0.488C0.396,-0.499 0.398,-0.513 0.398,-0.527C0.398,-0.546 0.394,-0.563 0.385,-0.579C0.376,-0.594 0.364,-0.606 0.349,-0.615C0.333,-0.624 0.315,-0.628 0.295,-0.628Z" style="fill-rule:nonzero;"/>
            </g>
        </g>
        <g transform="matrix(1.198,0,0,0.958552,1081.88,-112.554)">
            <g transform="matrix(6.4,0,0,6.4,39.2372,51.8924)">
                <path d="M0.238,-0.076L0.238,-0.303L0.063,-0.574C0.048,-0.599 0.037,-0.618 0.031,-0.631C0.024,-0.645 0.021,-0.657 0.021,-0.667C0.021,-0.684 0.027,-0.698 0.04,-0.71C0.053,-0.722 0.069,-0.728 0.088,-0.728C0.108,-0.728 0.123,-0.722 0.133,-0.711C0.143,-0.7 0.159,-0.678 0.179,-0.644L0.313,-0.427L0.448,-0.644C0.456,-0.657 0.463,-0.669 0.469,-0.678C0.474,-0.687 0.48,-0.695 0.487,-0.703C0.494,-0.711 0.501,-0.717 0.509,-0.722C0.517,-0.726 0.527,-0.728 0.539,-0.728C0.557,-0.728 0.573,-0.722 0.585,-0.71C0.597,-0.698 0.603,-0.685 0.603,-0.669C0.603,-0.656 0.6,-0.644 0.594,-0.631C0.588,-0.618 0.577,-0.601 0.562,-0.578L0.383,-0.303L0.383,-0.076C0.383,-0.047 0.376,-0.024 0.362,-0.01C0.349,0.005 0.331,0.012 0.31,0.012C0.289,0.012 0.271,0.005 0.258,-0.01C0.244,-0.024 0.238,-0.046 0.238,-0.076Z" style="fill-rule:nonzero;"/>
            </g>
        </g>
        <g transform="matrix(1.198,0,0,0.958552,1082.09,-44.365)">
            <g transform="matrix(6.4,0,0,6.4,36.6324,51.8924)">
                <path d="M0.393,-0.728C0.467,-0.728 0.531,-0.713 0.584,-0.683C0.637,-0.653 0.678,-0.61 0.705,-0.554C0.732,-0.499 0.746,-0.434 0.746,-0.359C0.746,-0.304 0.739,-0.253 0.724,-0.208C0.709,-0.163 0.686,-0.124 0.656,-0.09C0.626,-0.057 0.59,-0.032 0.546,-0.014C0.502,0.003 0.452,0.012 0.396,0.012C0.34,0.012 0.29,0.003 0.246,-0.015C0.201,-0.033 0.164,-0.058 0.135,-0.091C0.105,-0.124 0.083,-0.164 0.068,-0.21C0.052,-0.256 0.045,-0.306 0.045,-0.36C0.045,-0.415 0.053,-0.465 0.069,-0.511C0.084,-0.557 0.107,-0.596 0.137,-0.628C0.167,-0.661 0.204,-0.685 0.247,-0.702C0.29,-0.719 0.338,-0.728 0.393,-0.728ZM0.599,-0.36C0.599,-0.412 0.591,-0.458 0.574,-0.496C0.557,-0.535 0.533,-0.564 0.501,-0.583C0.47,-0.603 0.434,-0.613 0.393,-0.613C0.364,-0.613 0.337,-0.607 0.313,-0.596C0.288,-0.586 0.267,-0.57 0.249,-0.549C0.232,-0.528 0.218,-0.501 0.207,-0.469C0.197,-0.437 0.192,-0.4 0.192,-0.36C0.192,-0.319 0.197,-0.282 0.207,-0.25C0.218,-0.217 0.232,-0.189 0.251,-0.168C0.269,-0.146 0.291,-0.13 0.315,-0.119C0.339,-0.108 0.366,-0.103 0.395,-0.103C0.432,-0.103 0.466,-0.112 0.497,-0.131C0.528,-0.149 0.553,-0.178 0.572,-0.217C0.59,-0.256 0.599,-0.303 0.599,-0.36Z" style="fill-rule:nonzero;"/>
            </g>
            <g transform="matrix(6.4,0,0,6.4,41.5732,51.8924)">
                <path d="M0.356,-0.279L0.223,-0.279L0.223,-0.076C0.223,-0.047 0.216,-0.025 0.203,-0.01C0.189,0.005 0.172,0.012 0.151,0.012C0.129,0.012 0.111,0.005 0.098,-0.01C0.085,-0.025 0.078,-0.047 0.078,-0.075L0.078,-0.627C0.078,-0.659 0.085,-0.682 0.1,-0.695C0.115,-0.709 0.138,-0.716 0.17,-0.716L0.356,-0.716C0.411,-0.716 0.453,-0.712 0.483,-0.703C0.512,-0.695 0.538,-0.681 0.559,-0.663C0.58,-0.644 0.596,-0.621 0.607,-0.593C0.618,-0.566 0.624,-0.535 0.624,-0.501C0.624,-0.428 0.602,-0.373 0.557,-0.335C0.512,-0.298 0.445,-0.279 0.356,-0.279ZM0.321,-0.607L0.223,-0.607L0.223,-0.388L0.321,-0.388C0.355,-0.388 0.384,-0.392 0.406,-0.399C0.429,-0.406 0.447,-0.418 0.459,-0.434C0.471,-0.45 0.477,-0.472 0.477,-0.498C0.477,-0.53 0.468,-0.555 0.449,-0.575C0.428,-0.596 0.386,-0.607 0.321,-0.607Z" style="fill-rule:nonzero;"/>
            </g>
        </g>
        <g transform="matrix(1.198,0,0,0.958552,1481.92,-225.126)">
            <g transform="matrix(6.4,0,0,6.4,37.8684,51.8924)">
                <path d="M0.084,-0.076L0.084,-0.64C0.084,-0.669 0.091,-0.691 0.104,-0.706C0.117,-0.721 0.135,-0.728 0.156,-0.728C0.178,-0.728 0.195,-0.721 0.209,-0.706C0.222,-0.692 0.229,-0.67 0.229,-0.64L0.229,-0.076C0.229,-0.047 0.222,-0.024 0.209,-0.01C0.195,0.005 0.178,0.012 0.156,0.012C0.135,0.012 0.118,0.005 0.104,-0.01C0.091,-0.025 0.084,-0.047 0.084,-0.076Z" style="fill-rule:nonzero;"/>
            </g>
            <g transform="matrix(6.4,0,0,6.4,39.7435,51.8924)">
                <path d="M0.267,-0.641L0.546,-0.219L0.546,-0.645C0.546,-0.673 0.552,-0.693 0.564,-0.707C0.576,-0.721 0.592,-0.728 0.612,-0.728C0.633,-0.728 0.649,-0.721 0.661,-0.707C0.673,-0.693 0.679,-0.673 0.679,-0.645L0.679,-0.082C0.679,-0.019 0.653,0.012 0.601,0.012C0.588,0.012 0.576,0.01 0.566,0.007C0.556,0.003 0.546,-0.003 0.537,-0.011C0.528,-0.019 0.519,-0.029 0.511,-0.04C0.503,-0.051 0.496,-0.062 0.488,-0.073L0.216,-0.49L0.216,-0.071C0.216,-0.043 0.209,-0.023 0.197,-0.009C0.184,0.005 0.168,0.012 0.148,0.012C0.127,0.012 0.111,0.005 0.099,-0.009C0.086,-0.023 0.08,-0.044 0.08,-0.071L0.08,-0.623C0.08,-0.646 0.083,-0.665 0.088,-0.678C0.094,-0.693 0.104,-0.705 0.119,-0.714C0.133,-0.723 0.148,-0.728 0.165,-0.728C0.178,-0.728 0.189,-0.726 0.198,-0.722C0.208,-0.717 0.216,-0.712 0.223,-0.705C0.23,-0.697 0.237,-0.688 0.244,-0.677C0.252,-0.665 0.259,-0.653 0.267,-0.641Z" style="fill-rule:nonzero;"/>
            </g>
        </g>
        <g transform="matrix(1.198,0,0,0.958552,1082.16,-224.866)">
            <g transform="matrix(6.4,0,0,6.4,37.8684,51.8924)">
                <path d="M0.084,-0.076L0.084,-0.64C0.084,-0.669 0.091,-0.691 0.104,-0.706C0.117,-0.721 0.135,-0.728 0.156,-0.728C0.178,-0.728 0.195,-0.721 0.209,-0.706C0.222,-0.692 0.229,-0.67 0.229,-0.64L0.229,-0.076C0.229,-0.047 0.222,-0.024 0.209,-0.01C0.195,0.005 0.178,0.012 0.156,0.012C0.135,0.012 0.118,0.005 0.104,-0.01C0.091,-0.025 0.084,-0.047 0.084,-0.076Z" style="fill-rule:nonzero;"/>
            </g>
            <g transform="matrix(6.4,0,0,6.4,39.7435,51.8924)">
                <path d="M0.267,-0.641L0.546,-0.219L0.546,-0.645C0.546,-0.673 0.552,-0.693 0.564,-0.707C0.576,-0.721 0.592,-0.728 0.612,-0.728C0.633,-0.728 0.649,-0.721 0.661,-0.707C0.673,-0.693 0.679,-0.673 0.679,-0.645L0.679,-0.082C0.679,-0.019 0.653,0.012 0.601,0.012C0.588,0.012 0.576,0.01 0.566,0.007C0.556,0.003 0.546,-0.003 0.537,-0.011C0.528,-0.019 0.519,-0.029 0.511,-0.04C0.503,-0.051 0.496,-0.062 0.488,-0.073L0.216,-0.49L0.216,-0.071C0.216,-0.043 0.209,-0.023 0.197,-0.009C0.184,0.005 0.168,0.012 0.148,0.012C0.127,0.012 0.111,0.005 0.099,-0.009C0.086,-0.023 0.08,-0.044 0.08,-0.071L0.08,-0.623C0.08,-0.646 0.083,-0.665 0.088,-0.678C0.094,-0.693 0.104,-0.705 0.119,-0.714C0.133,-0.723 0.148,-0.728 0.165,-0.728C0.178,-0.728 0.189,-0.726 0.198,-0.722C0.208,-0.717 0.216,-0.712 0.223,-0.705C0.23,-0.697 0.237,-0.688 0.244,-0.677C0.252,-0.665 0.259,-0.653 0.267,-0.641Z" style="fill-rule:nonzero;"/>
            </g>
        </g>
        <g transform="matrix(1.198,0,0,0.958552,1481.95,-194.695)">
            <g transform="matrix(6.4,0,0,6.4,39.3044,51.8924)">
                <path d="M0.052,-0.139L0.212,-0.373L0.077,-0.581C0.064,-0.601 0.055,-0.619 0.049,-0.633C0.042,-0.648 0.039,-0.661 0.039,-0.675C0.039,-0.688 0.045,-0.701 0.057,-0.712C0.07,-0.723 0.084,-0.728 0.102,-0.728C0.122,-0.728 0.138,-0.722 0.149,-0.71C0.16,-0.698 0.176,-0.676 0.196,-0.644L0.303,-0.47L0.418,-0.644C0.427,-0.659 0.435,-0.671 0.442,-0.682C0.449,-0.692 0.455,-0.701 0.461,-0.708C0.468,-0.714 0.475,-0.719 0.482,-0.723C0.49,-0.726 0.499,-0.728 0.509,-0.728C0.527,-0.728 0.542,-0.723 0.553,-0.712C0.565,-0.701 0.571,-0.688 0.571,-0.673C0.571,-0.651 0.558,-0.621 0.533,-0.584L0.392,-0.373L0.544,-0.139C0.558,-0.119 0.568,-0.102 0.574,-0.088C0.58,-0.075 0.583,-0.062 0.583,-0.05C0.583,-0.038 0.58,-0.028 0.575,-0.019C0.569,-0.009 0.561,-0.002 0.551,0.004C0.541,0.009 0.53,0.012 0.517,0.012C0.503,0.012 0.492,0.009 0.482,0.004C0.473,-0.002 0.465,-0.009 0.459,-0.018C0.454,-0.026 0.443,-0.042 0.427,-0.067L0.301,-0.265L0.167,-0.061C0.157,-0.045 0.149,-0.033 0.145,-0.027C0.14,-0.02 0.135,-0.014 0.129,-0.008C0.123,-0.002 0.115,0.003 0.107,0.007C0.098,0.01 0.089,0.012 0.077,0.012C0.06,0.012 0.045,0.007 0.033,-0.004C0.022,-0.015 0.016,-0.03 0.016,-0.051C0.016,-0.075 0.028,-0.104 0.052,-0.139Z" style="fill-rule:nonzero;"/>
            </g>
        </g>
        <g transform="matrix(1.198,0,0,0.958552,1481.94,-112.814)">
            <g transform="matrix(6.4,0,0,6.4,39.2372,51.8924)">
                <path d="M0.238,-0.076L0.238,-0.303L0.063,-0.574C0.048,-0.599 0.037,-0.618 0.031,-0.631C0.024,-0.645 0.021,-0.657 0.021,-0.667C0.021,-0.684 0.027,-0.698 0.04,-0.71C0.053,-0.722 0.069,-0.728 0.088,-0.728C0.108,-0.728 0.123,-0.722 0.133,-0.711C0.143,-0.7 0.159,-0.678 0.179,-0.644L0.313,-0.427L0.448,-0.644C0.456,-0.657 0.463,-0.669 0.469,-0.678C0.474,-0.687 0.48,-0.695 0.487,-0.703C0.494,-0.711 0.501,-0.717 0.509,-0.722C0.517,-0.726 0.527,-0.728 0.539,-0.728C0.557,-0.728 0.573,-0.722 0.585,-0.71C0.597,-0.698 0.603,-0.685 0.603,-0.669C0.603,-0.656 0.6,-0.644 0.594,-0.631C0.588,-0.618 0.577,-0.601 0.562,-0.578L0.383,-0.303L0.383,-0.076C0.383,-0.047 0.376,-0.024 0.362,-0.01C0.349,0.005 0.331,0.012 0.31,0.012C0.289,0.012 0.271,0.005 0.258,-0.01C0.244,-0.024 0.238,-0.046 0.238,-0.076Z" style="fill-rule:nonzero;"/>
            </g>
        </g>
        <g transform="matrix(1.198,0,0,0.958552,1481.81,-44.6242)">
            <g transform="matrix(6.4,0,0,6.4,36.6324,51.8924)">
                <path d="M0.393,-0.728C0.467,-0.728 0.531,-0.713 0.584,-0.683C0.637,-0.653 0.678,-0.61 0.705,-0.554C0.732,-0.499 0.746,-0.434 0.746,-0.359C0.746,-0.304 0.739,-0.253 0.724,-0.208C0.709,-0.163 0.686,-0.124 0.656,-0.09C0.626,-0.057 0.59,-0.032 0.546,-0.014C0.502,0.003 0.452,0.012 0.396,0.012C0.34,0.012 0.29,0.003 0.246,-0.015C0.201,-0.033 0.164,-0.058 0.135,-0.091C0.105,-0.124 0.083,-0.164 0.068,-0.21C0.052,-0.256 0.045,-0.306 0.045,-0.36C0.045,-0.415 0.053,-0.465 0.069,-0.511C0.084,-0.557 0.107,-0.596 0.137,-0.628C0.167,-0.661 0.204,-0.685 0.247,-0.702C0.29,-0.719 0.338,-0.728 0.393,-0.728ZM0.599,-0.36C0.599,-0.412 0.591,-0.458 0.574,-0.496C0.557,-0.535 0.533,-0.564 0.501,-0.583C0.47,-0.603 0.434,-0.613 0.393,-0.613C0.364,-0.613 0.337,-0.607 0.313,-0.596C0.288,-0.586 0.267,-0.57 0.249,-0.549C0.232,-0.528 0.218,-0.501 0.207,-0.469C0.197,-0.437 0.192,-0.4 0.192,-0.36C0.192,-0.319 0.197,-0.282 0.207,-0.25C0.218,-0.217 0.232,-0.189 0.251,-0.168C0.269,-0.146 0.291,-0.13 0.315,-0.119C0.339,-0.108 0.366,-0.103 0.395,-0.103C0.432,-0.103 0.466,-0.112 0.497,-0.131C0.528,-0.149 0.553,-0.178 0.572,-0.217C0.59,-0.256 0.599,-0.303 0.599,-0.36Z" style="fill-rule:nonzero;"/>
            </g>
            <g transform="matrix(6.4,0,0,6.4,41.5732,51.8924)">
                <path d="M0.356,-0.279L0.223,-0.279L0.223,-0.076C0.223,-0.047 0.216,-0.025 0.203,-0.01C0.189,0.005 0.172,0.012 0.151,0.012C0.129,0.012 0.111,0.005 0.098,-0.01C0.085,-0.025 0.078,-0.047 0.078,-0.075L0.078,-0.627C0.078,-0.659 0.085,-0.682 0.1,-0.695C0.115,-0.709 0.138,-0.716 0.17,-0.716L0.356,-0.716C0.411,-0.716 0.453,-0.712 0.483,-0.703C0.512,-0.695 0.538,-0.681 0.559,-0.663C0.58,-0.644 0.596,-0.621 0.607,-0.593C0.618,-0.566 0.624,-0.535 0.624,-0.501C0.624,-0.428 0.602,-0.373 0.557,-0.335C0.512,-0.298 0.445,-0.279 0.356,-0.279ZM0.321,-0.607L0.223,-0.607L0.223,-0.388L0.321,-0.388C0.355,-0.388 0.384,-0.392 0.406,-0.399C0.429,-0.406 0.447,-0.418 0.459,-0.434C0.471,-0.45 0.477,-0.472 0.477,-0.498C0.477,-0.53 0.468,-0.555 0.449,-0.575C0.428,-0.596 0.386,-0.607 0.321,-0.607Z" style="fill-rule:nonzero;"/>
            </g>
        </g>
        <g transform="matrix(1.25309,0,0,1.34672,961.596,-321.956)">
            <path d="M38.128,207.245C38.128,206.459 37.271,205.822 36.216,205.822L14.743,205.822C13.688,205.822 12.831,206.459 12.831,207.245L12.831,213.815C12.831,214.601 13.688,215.238 14.743,215.238L36.216,215.238C37.271,215.238 38.128,214.601 38.128,213.815L38.128,207.245Z" style="fill:rgb(0,16,90);stroke:rgb(77,77,77);stroke-width:0.34px;stroke-linecap:square;"/>
        </g>
        <g transform="matrix(1.255,0,0,1.34672,998.464,-321.956)">
            <path d="M38.128,207.245C38.128,206.459 37.272,205.822 36.218,205.822L14.74,205.822C13.687,205.822 12.831,206.459 12.831,207.245L12.831,213.815C12.831,214.601 13.687,215.238 14.74,215.238L36.218,215.238C37.272,215.238 38.128,214.601 38.128,213.815L38.128,207.245Z" style="fill:rgb(0,16,90);stroke:rgb(77,77,77);stroke-width:0.34px;stroke-linecap:square;"/>
        </g>
        <g transform="matrix(1.255,0,0,1.34672,1034.92,-321.956)">
            <path d="M38.128,207.245C38.128,206.459 37.272,205.822 36.218,205.822L14.74,205.822C13.687,205.822 12.831,206.459 12.831,207.245L12.831,213.815C12.831,214.601 13.687,215.238 14.74,215.238L36.218,215.238C37.272,215.238 38.128,214.601 38.128,213.815L38.128,207.245Z" style="fill:rgb(0,16,90);stroke:rgb(77,77,77);stroke-width:0.34px;stroke-linecap:square;"/>
        </g>
        <g transform="matrix(1.255,0,0,1.34672,1071.37,-321.956)">
            <path d="M38.128,207.245C38.128,206.459 37.272,205.822 36.218,205.822L14.74,205.822C13.687,205.822 12.831,206.459 12.831,207.245L12.831,213.815C12.831,214.601 13.687,215.238 14.74,215.238L36.218,215.238C37.272,215.238 38.128,214.601 38.128,213.815L38.128,207.245Z" style="fill:rgb(0,16,90);stroke:rgb(77,77,77);stroke-width:0.34px;stroke-linecap:square;"/>
        </g>
        <g transform="matrix(1.25309,0,0,1.34672,1527.08,-322.067)">
            <path d="M38.128,207.245C38.128,206.459 37.271,205.822 36.216,205.822L14.743,205.822C13.688,205.822 12.831,206.459 12.831,207.245L12.831,213.815C12.831,214.601 13.688,215.238 14.743,215.238L36.216,215.238C37.271,215.238 38.128,214.601 38.128,213.815L38.128,207.245Z" style="fill:rgb(0,16,90);stroke:rgb(77,77,77);stroke-width:0.34px;stroke-linecap:square;"/>
        </g>
        <g transform="matrix(1.255,0,0,1.34672,1563.94,-322.067)">
            <path d="M38.128,207.245C38.128,206.459 37.272,205.822 36.218,205.822L14.74,205.822C13.687,205.822 12.831,206.459 12.831,207.245L12.831,213.815C12.831,214.601 13.687,215.238 14.74,215.238L36.218,215.238C37.272,215.238 38.128,214.601 38.128,213.815L38.128,207.245Z" style="fill:rgb(0,16,90);stroke:rgb(77,77,77);stroke-width:0.34px;stroke-linecap:square;"/>
        </g>
        <g transform="matrix(1.255,0,0,1.34672,1600.4,-322.067)">
            <path d="M38.128,207.245C38.128,206.459 37.272,205.822 36.218,205.822L14.74,205.822C13.687,205.822 12.831,206.459 12.831,207.245L12.831,213.815C12.831,214.601 13.687,215.238 14.74,215.238L36.218,215.238C37.272,215.238 38.128,214.601 38.128,213.815L38.128,207.245Z" style="fill:rgb(0,16,90);stroke:rgb(77,77,77);stroke-width:0.34px;stroke-linecap:square;"/>
        </g>
        <g transform="matrix(1.255,0,0,1.34672,1636.85,-322.067)">
            <path d="M38.128,207.245C38.128,206.459 37.272,205.822 36.218,205.822L14.74,205.822C13.687,205.822 12.831,206.459 12.831,207.245L12.831,213.815C12.831,214.601 13.687,215.238 14.74,215.238L36.218,215.238C37.272,215.238 38.128,214.601 38.128,213.815L38.128,207.245Z" style="fill:rgb(0,16,90);stroke:rgb(77,77,77);stroke-width:0.34px;stroke-linecap:square;"/>
        </g>
        <g transform="matrix(1.0256e-16,-1.34016,1.20536,5.90546e-17,914.41,102.506)">
            <path d="M25.865,66.629C25.865,66.081 25.544,65.635 25.149,65.635L23.719,65.635C23.324,65.635 23.004,66.081 23.004,66.629L23.004,325.383C23.004,325.932 23.324,326.377 23.719,326.377L25.149,326.377C25.544,326.377 25.865,325.932 25.865,325.383L25.865,66.629Z" style="fill:rgb(128,187,254);fill-opacity:0.8;"/>
        </g>
        <g transform="matrix(1.0256e-16,-1.34016,1.20499,5.90369e-17,1275.87,102.506)">
            <path d="M25.865,66.629C25.865,66.081 25.544,65.635 25.149,65.635L23.719,65.635C23.324,65.635 23.004,66.081 23.004,66.629L23.004,325.383C23.004,325.932 23.324,326.377 23.719,326.377L25.149,326.377C25.544,326.377 25.865,325.932 25.865,325.383L25.865,66.629Z" style="fill:rgb(128,187,254);fill-opacity:0.8;"/>
        </g>
        <g>
            <g transform="matrix(1.198,0,0,0.958552,963,-233.119)">
                <path d="M162.555,167.946L452.499,167.946" style="fill:none;stroke:white;stroke-opacity:0.1;stroke-width:0.76px;stroke-linecap:butt;"/>
            </g>
            <g transform="matrix(1.198,0,0,0.958552,963,-202.957)">
                <path d="M162.555,167.946L452.499,167.946" style="fill:none;stroke:white;stroke-opacity:0.1;stroke-width:0.76px;stroke-linecap:butt;"/>
            </g>
            <g transform="matrix(1.198,0,0,0.958552,963,-172.795)">
                <path d="M162.555,167.946L452.499,167.946" style="fill:none;stroke:white;stroke-opacity:0.1;stroke-width:0.76px;stroke-linecap:butt;"/>
            </g>
            <g transform="matrix(1.198,0,0,0.958552,963,-142.632)">
                <path d="M162.555,167.946L452.499,167.946" style="fill:none;stroke:white;stroke-opacity:0.1;stroke-width:0.76px;stroke-linecap:butt;"/>
            </g>
            <g transform="matrix(1.198,0,0,0.958552,963,-263.282)">
                <path d="M162.555,167.946L452.499,167.946" style="fill:none;stroke:white;stroke-opacity:0.1;stroke-width:0.76px;stroke-linecap:butt;"/>
            </g>
            <g transform="matrix(1.198,0,0,0.958552,963,-293.444)">
                <path d="M162.555,167.946L452.499,167.946" style="fill:none;stroke:white;stroke-opacity:0.1;stroke-width:0.76px;stroke-linecap:butt;"/>
            </g>
            <g transform="matrix(1.198,0,0,0.958552,963,-323.606)">
                <path d="M162.555,167.946L452.499,167.946" style="fill:none;stroke:white;stroke-opacity:0.1;stroke-width:0.76px;stroke-linecap:butt;"/>
            </g>
        </g>
        <g transform="matrix(1,0,0,1,7.5321,0)">
            <g transform="matrix(1.198,0,0,0.958552,971.341,-323.606)">
                <path d="M294.25,141.591L294.25,383.101" style="fill:none;stroke:white;stroke-opacity:0.1;stroke-width:0.84px;stroke-linecap:butt;"/>
            </g>
            <g transform="matrix(1.198,0,0,0.958552,1015,-323.606)">
                <path d="M294.25,141.591L294.25,383.101" style="fill:none;stroke:white;stroke-opacity:0.1;stroke-width:0.84px;stroke-linecap:butt;"/>
            </g>
            <g transform="matrix(1.198,0,0,0.958552,1058.66,-323.606)">
                <path d="M294.25,141.591L294.25,383.101" style="fill:none;stroke:white;stroke-opacity:0.1;stroke-width:0.84px;stroke-linecap:butt;"/>
            </g>
            <g transform="matrix(1.198,0,0,0.958552,1102.31,-323.599)">
                <path d="M294.25,141.591L294.25,383.101" style="fill:none;stroke:white;stroke-opacity:0.1;stroke-width:0.84px;stroke-linecap:butt;"/>
            </g>
            <g transform="matrix(1.198,0,0,0.958552,840.367,-323.599)">
                <path d="M294.25,141.591L294.25,383.101" style="fill:none;stroke:white;stroke-opacity:0.1;stroke-width:0.84px;stroke-linecap:butt;"/>
            </g>
            <g transform="matrix(1.198,0,0,0.958552,927.683,-323.606)">
                <path d="M294.25,141.591L294.25,383.101" style="fill:none;stroke:white;stroke-opacity:0.1;stroke-width:0.84px;stroke-linecap:butt;"/>
            </g>
            <g transform="matrix(1.198,0,0,0.958552,884.025,-323.606)">
                <path d="M294.25,141.591L294.25,383.101" style="fill:none;stroke:white;stroke-opacity:0.1;stroke-width:0.84px;stroke-linecap:butt;"/>
            </g>
        </g>
        <g transform="matrix(0.799203,0,0,1.34672,1248.47,-211.847)">
            <path d="M38.128,207.245C38.128,206.459 36.784,205.822 35.13,205.822L15.829,205.822C14.175,205.822 12.831,206.459 12.831,207.245L12.831,213.815C12.831,214.601 14.175,215.238 15.829,215.238L35.13,215.238C36.784,215.238 38.128,214.601 38.128,213.815L38.128,207.245Z" style="fill:rgb(0,16,90);stroke:rgb(77,77,77);stroke-width:0.39px;stroke-linecap:square;"/>
        </g>
        <g transform="matrix(0.799203,0,0,1.34672,1373.61,-211.847)">
            <path d="M38.128,207.245C38.128,206.459 36.784,205.822 35.13,205.822L15.829,205.822C14.175,205.822 12.831,206.459 12.831,207.245L12.831,213.815C12.831,214.601 14.175,215.238 15.829,215.238L35.13,215.238C36.784,215.238 38.128,214.601 38.128,213.815L38.128,207.245Z" style="fill:rgb(0,16,90);stroke:rgb(77,77,77);stroke-width:0.39px;stroke-linecap:square;"/>
        </g>
        <g transform="matrix(1.198,-1.2326e-32,0,0.958552,1201.32,12.8013)">
            <g transform="matrix(6.4,0,0,6.4,36.6324,51.8924)">
                <path d="M0.622,-0.215C0.622,-0.172 0.611,-0.133 0.589,-0.098C0.566,-0.064 0.534,-0.037 0.491,-0.017C0.448,0.002 0.397,0.012 0.338,0.012C0.267,0.012 0.209,-0.001 0.163,-0.028C0.131,-0.047 0.104,-0.073 0.084,-0.105C0.063,-0.137 0.053,-0.168 0.053,-0.198C0.053,-0.216 0.059,-0.231 0.072,-0.243C0.084,-0.256 0.099,-0.262 0.118,-0.262C0.133,-0.262 0.146,-0.257 0.157,-0.248C0.168,-0.238 0.177,-0.223 0.184,-0.204C0.193,-0.181 0.203,-0.162 0.214,-0.147C0.224,-0.132 0.239,-0.119 0.258,-0.109C0.278,-0.099 0.303,-0.094 0.334,-0.094C0.377,-0.094 0.412,-0.104 0.439,-0.124C0.466,-0.144 0.479,-0.169 0.479,-0.199C0.479,-0.223 0.472,-0.242 0.457,-0.257C0.443,-0.272 0.424,-0.283 0.401,-0.291C0.378,-0.299 0.347,-0.307 0.309,-0.316C0.258,-0.328 0.215,-0.342 0.18,-0.358C0.145,-0.374 0.118,-0.396 0.097,-0.424C0.077,-0.452 0.067,-0.486 0.067,-0.528C0.067,-0.567 0.078,-0.602 0.099,-0.633C0.121,-0.663 0.152,-0.687 0.192,-0.703C0.233,-0.72 0.281,-0.728 0.336,-0.728C0.38,-0.728 0.418,-0.723 0.45,-0.712C0.482,-0.701 0.509,-0.686 0.53,-0.668C0.551,-0.65 0.566,-0.631 0.576,-0.611C0.586,-0.591 0.591,-0.572 0.591,-0.553C0.591,-0.536 0.585,-0.52 0.573,-0.507C0.56,-0.493 0.545,-0.486 0.527,-0.486C0.51,-0.486 0.498,-0.49 0.489,-0.498C0.48,-0.507 0.471,-0.52 0.461,-0.539C0.448,-0.566 0.432,-0.587 0.414,-0.602C0.396,-0.617 0.367,-0.625 0.326,-0.625C0.289,-0.625 0.259,-0.617 0.236,-0.6C0.213,-0.584 0.201,-0.564 0.201,-0.541C0.201,-0.527 0.205,-0.514 0.213,-0.504C0.221,-0.493 0.231,-0.485 0.245,-0.477C0.259,-0.47 0.273,-0.464 0.287,-0.459C0.301,-0.455 0.324,-0.449 0.356,-0.441C0.396,-0.431 0.433,-0.421 0.466,-0.41C0.498,-0.398 0.526,-0.384 0.549,-0.368C0.572,-0.352 0.59,-0.331 0.603,-0.306C0.616,-0.281 0.622,-0.251 0.622,-0.215Z" style="fill-rule:nonzero;"/>
            </g>
            <g transform="matrix(6.4,0,0,6.4,40.7732,51.8924)">
                <path d="M0.654,-0.089C0.675,-0.075 0.698,-0.061 0.723,-0.047C0.748,-0.034 0.765,-0.023 0.773,-0.015C0.781,-0.007 0.785,0.004 0.785,0.019C0.785,0.029 0.78,0.04 0.771,0.05C0.761,0.061 0.75,0.066 0.736,0.066C0.725,0.066 0.711,0.062 0.696,0.055C0.68,0.048 0.661,0.038 0.64,0.024C0.619,0.01 0.595,-0.006 0.57,-0.024C0.523,0 0.465,0.012 0.396,0.012C0.34,0.012 0.29,0.003 0.246,-0.014C0.202,-0.032 0.165,-0.058 0.135,-0.091C0.105,-0.124 0.083,-0.164 0.068,-0.21C0.052,-0.256 0.045,-0.306 0.045,-0.36C0.045,-0.415 0.053,-0.465 0.069,-0.511C0.084,-0.557 0.107,-0.596 0.137,-0.628C0.167,-0.661 0.204,-0.685 0.247,-0.702C0.29,-0.719 0.338,-0.728 0.393,-0.728C0.467,-0.728 0.531,-0.713 0.584,-0.683C0.637,-0.653 0.678,-0.61 0.705,-0.554C0.732,-0.499 0.746,-0.434 0.746,-0.359C0.746,-0.245 0.715,-0.155 0.654,-0.089ZM0.54,-0.168C0.56,-0.191 0.575,-0.218 0.585,-0.25C0.594,-0.282 0.599,-0.318 0.599,-0.36C0.599,-0.412 0.591,-0.458 0.574,-0.496C0.557,-0.535 0.533,-0.564 0.501,-0.583C0.47,-0.603 0.434,-0.613 0.393,-0.613C0.364,-0.613 0.337,-0.607 0.313,-0.596C0.288,-0.586 0.267,-0.57 0.249,-0.549C0.232,-0.528 0.218,-0.501 0.207,-0.469C0.197,-0.437 0.192,-0.4 0.192,-0.36C0.192,-0.278 0.211,-0.214 0.25,-0.17C0.288,-0.125 0.336,-0.103 0.395,-0.103C0.419,-0.103 0.444,-0.108 0.469,-0.118C0.454,-0.13 0.435,-0.141 0.412,-0.152C0.389,-0.164 0.373,-0.173 0.365,-0.179C0.356,-0.185 0.352,-0.194 0.352,-0.205C0.352,-0.215 0.356,-0.223 0.364,-0.231C0.372,-0.238 0.381,-0.242 0.391,-0.242C0.421,-0.242 0.47,-0.217 0.54,-0.168Z" style="fill-rule:nonzero;"/>
            </g>
        </g>
        <g transform="matrix(1.198,-1.2326e-32,0,0.958552,1362.29,12.829)">
            <g transform="matrix(6.4,0,0,6.4,36.6324,51.8924)">
                <path d="M0.622,-0.215C0.622,-0.172 0.611,-0.133 0.589,-0.098C0.566,-0.064 0.534,-0.037 0.491,-0.017C0.448,0.002 0.397,0.012 0.338,0.012C0.267,0.012 0.209,-0.001 0.163,-0.028C0.131,-0.047 0.104,-0.073 0.084,-0.105C0.063,-0.137 0.053,-0.168 0.053,-0.198C0.053,-0.216 0.059,-0.231 0.072,-0.243C0.084,-0.256 0.099,-0.262 0.118,-0.262C0.133,-0.262 0.146,-0.257 0.157,-0.248C0.168,-0.238 0.177,-0.223 0.184,-0.204C0.193,-0.181 0.203,-0.162 0.214,-0.147C0.224,-0.132 0.239,-0.119 0.258,-0.109C0.278,-0.099 0.303,-0.094 0.334,-0.094C0.377,-0.094 0.412,-0.104 0.439,-0.124C0.466,-0.144 0.479,-0.169 0.479,-0.199C0.479,-0.223 0.472,-0.242 0.457,-0.257C0.443,-0.272 0.424,-0.283 0.401,-0.291C0.378,-0.299 0.347,-0.307 0.309,-0.316C0.258,-0.328 0.215,-0.342 0.18,-0.358C0.145,-0.374 0.118,-0.396 0.097,-0.424C0.077,-0.452 0.067,-0.486 0.067,-0.528C0.067,-0.567 0.078,-0.602 0.099,-0.633C0.121,-0.663 0.152,-0.687 0.192,-0.703C0.233,-0.72 0.281,-0.728 0.336,-0.728C0.38,-0.728 0.418,-0.723 0.45,-0.712C0.482,-0.701 0.509,-0.686 0.53,-0.668C0.551,-0.65 0.566,-0.631 0.576,-0.611C0.586,-0.591 0.591,-0.572 0.591,-0.553C0.591,-0.536 0.585,-0.52 0.573,-0.507C0.56,-0.493 0.545,-0.486 0.527,-0.486C0.51,-0.486 0.498,-0.49 0.489,-0.498C0.48,-0.507 0.471,-0.52 0.461,-0.539C0.448,-0.566 0.432,-0.587 0.414,-0.602C0.396,-0.617 0.367,-0.625 0.326,-0.625C0.289,-0.625 0.259,-0.617 0.236,-0.6C0.213,-0.584 0.201,-0.564 0.201,-0.541C0.201,-0.527 0.205,-0.514 0.213,-0.504C0.221,-0.493 0.231,-0.485 0.245,-0.477C0.259,-0.47 0.273,-0.464 0.287,-0.459C0.301,-0.455 0.324,-0.449 0.356,-0.441C0.396,-0.431 0.433,-0.421 0.466,-0.41C0.498,-0.398 0.526,-0.384 0.549,-0.368C0.572,-0.352 0.59,-0.331 0.603,-0.306C0.616,-0.281 0.622,-0.251 0.622,-0.215Z" style="fill-rule:nonzero;"/>
            </g>
            <g transform="matrix(6.4,0,0,6.4,40.7732,51.8924)">
                <path d="M0.654,-0.089C0.675,-0.075 0.698,-0.061 0.723,-0.047C0.748,-0.034 0.765,-0.023 0.773,-0.015C0.781,-0.007 0.785,0.004 0.785,0.019C0.785,0.029 0.78,0.04 0.771,0.05C0.761,0.061 0.75,0.066 0.736,0.066C0.725,0.066 0.711,0.062 0.696,0.055C0.68,0.048 0.661,0.038 0.64,0.024C0.619,0.01 0.595,-0.006 0.57,-0.024C0.523,0 0.465,0.012 0.396,0.012C0.34,0.012 0.29,0.003 0.246,-0.014C0.202,-0.032 0.165,-0.058 0.135,-0.091C0.105,-0.124 0.083,-0.164 0.068,-0.21C0.052,-0.256 0.045,-0.306 0.045,-0.36C0.045,-0.415 0.053,-0.465 0.069,-0.511C0.084,-0.557 0.107,-0.596 0.137,-0.628C0.167,-0.661 0.204,-0.685 0.247,-0.702C0.29,-0.719 0.338,-0.728 0.393,-0.728C0.467,-0.728 0.531,-0.713 0.584,-0.683C0.637,-0.653 0.678,-0.61 0.705,-0.554C0.732,-0.499 0.746,-0.434 0.746,-0.359C0.746,-0.245 0.715,-0.155 0.654,-0.089ZM0.54,-0.168C0.56,-0.191 0.575,-0.218 0.585,-0.25C0.594,-0.282 0.599,-0.318 0.599,-0.36C0.599,-0.412 0.591,-0.458 0.574,-0.496C0.557,-0.535 0.533,-0.564 0.501,-0.583C0.47,-0.603 0.434,-0.613 0.393,-0.613C0.364,-0.613 0.337,-0.607 0.313,-0.596C0.288,-0.586 0.267,-0.57 0.249,-0.549C0.232,-0.528 0.218,-0.501 0.207,-0.469C0.197,-0.437 0.192,-0.4 0.192,-0.36C0.192,-0.278 0.211,-0.214 0.25,-0.17C0.288,-0.125 0.336,-0.103 0.395,-0.103C0.419,-0.103 0.444,-0.108 0.469,-0.118C0.454,-0.13 0.435,-0.141 0.412,-0.152C0.389,-0.164 0.373,-0.173 0.365,-0.179C0.356,-0.185 0.352,-0.194 0.352,-0.205C0.352,-0.215 0.356,-0.223 0.364,-0.231C0.372,-0.238 0.381,-0.242 0.391,-0.242C0.421,-0.242 0.47,-0.217 0.54,-0.168Z" style="fill-rule:nonzero;"/>
            </g>
        </g>
        <g transform="matrix(1.198,-1.2326e-32,0,0.958552,1237.32,12.8013)">
            <g transform="matrix(6.4,0,0,6.4,36.7356,51.8924)">
                <path d="M0.356,-0.279L0.223,-0.279L0.223,-0.076C0.223,-0.047 0.216,-0.025 0.203,-0.01C0.189,0.005 0.172,0.012 0.151,0.012C0.129,0.012 0.111,0.005 0.098,-0.01C0.085,-0.025 0.078,-0.047 0.078,-0.075L0.078,-0.627C0.078,-0.659 0.085,-0.682 0.1,-0.695C0.115,-0.709 0.138,-0.716 0.17,-0.716L0.356,-0.716C0.411,-0.716 0.453,-0.712 0.483,-0.703C0.512,-0.695 0.538,-0.681 0.559,-0.663C0.58,-0.644 0.596,-0.621 0.607,-0.593C0.618,-0.566 0.624,-0.535 0.624,-0.501C0.624,-0.428 0.602,-0.373 0.557,-0.335C0.512,-0.298 0.445,-0.279 0.356,-0.279ZM0.321,-0.607L0.223,-0.607L0.223,-0.388L0.321,-0.388C0.355,-0.388 0.384,-0.392 0.406,-0.399C0.429,-0.406 0.447,-0.418 0.459,-0.434C0.471,-0.45 0.477,-0.472 0.477,-0.498C0.477,-0.53 0.468,-0.555 0.449,-0.575C0.428,-0.596 0.386,-0.607 0.321,-0.607Z" style="fill-rule:nonzero;"/>
            </g>
            <g transform="matrix(6.4,0,0,6.4,40.8763,51.8924)">
                <path d="M0.224,-0.64L0.224,-0.435L0.537,-0.435L0.537,-0.64C0.537,-0.669 0.544,-0.691 0.557,-0.706C0.57,-0.721 0.587,-0.728 0.609,-0.728C0.631,-0.728 0.648,-0.721 0.662,-0.706C0.675,-0.692 0.682,-0.67 0.682,-0.64L0.682,-0.076C0.682,-0.047 0.675,-0.024 0.662,-0.01C0.648,0.005 0.63,0.012 0.609,0.012C0.587,0.012 0.57,0.005 0.557,-0.01C0.544,-0.025 0.537,-0.047 0.537,-0.076L0.537,-0.317L0.224,-0.317L0.224,-0.076C0.224,-0.047 0.217,-0.024 0.204,-0.01C0.19,0.005 0.172,0.012 0.151,0.012C0.129,0.012 0.112,0.005 0.099,-0.01C0.086,-0.025 0.079,-0.047 0.079,-0.076L0.079,-0.64C0.079,-0.669 0.086,-0.691 0.098,-0.706C0.111,-0.721 0.129,-0.728 0.151,-0.728C0.173,-0.728 0.19,-0.721 0.204,-0.706C0.217,-0.692 0.224,-0.67 0.224,-0.64Z" style="fill-rule:nonzero;"/>
            </g>
        </g>
        <g transform="matrix(1.198,-1.2326e-32,0,0.958552,1326.64,12.8013)">
            <g transform="matrix(6.4,0,0,6.4,36.7356,51.8924)">
                <path d="M0.356,-0.279L0.223,-0.279L0.223,-0.076C0.223,-0.047 0.216,-0.025 0.203,-0.01C0.189,0.005 0.172,0.012 0.151,0.012C0.129,0.012 0.111,0.005 0.098,-0.01C0.085,-0.025 0.078,-0.047 0.078,-0.075L0.078,-0.627C0.078,-0.659 0.085,-0.682 0.1,-0.695C0.115,-0.709 0.138,-0.716 0.17,-0.716L0.356,-0.716C0.411,-0.716 0.453,-0.712 0.483,-0.703C0.512,-0.695 0.538,-0.681 0.559,-0.663C0.58,-0.644 0.596,-0.621 0.607,-0.593C0.618,-0.566 0.624,-0.535 0.624,-0.501C0.624,-0.428 0.602,-0.373 0.557,-0.335C0.512,-0.298 0.445,-0.279 0.356,-0.279ZM0.321,-0.607L0.223,-0.607L0.223,-0.388L0.321,-0.388C0.355,-0.388 0.384,-0.392 0.406,-0.399C0.429,-0.406 0.447,-0.418 0.459,-0.434C0.471,-0.45 0.477,-0.472 0.477,-0.498C0.477,-0.53 0.468,-0.555 0.449,-0.575C0.428,-0.596 0.386,-0.607 0.321,-0.607Z" style="fill-rule:nonzero;"/>
            </g>
            <g transform="matrix(6.4,0,0,6.4,40.8763,51.8924)">
                <path d="M0.224,-0.64L0.224,-0.435L0.537,-0.435L0.537,-0.64C0.537,-0.669 0.544,-0.691 0.557,-0.706C0.57,-0.721 0.587,-0.728 0.609,-0.728C0.631,-0.728 0.648,-0.721 0.662,-0.706C0.675,-0.692 0.682,-0.67 0.682,-0.64L0.682,-0.076C0.682,-0.047 0.675,-0.024 0.662,-0.01C0.648,0.005 0.63,0.012 0.609,0.012C0.587,0.012 0.57,0.005 0.557,-0.01C0.544,-0.025 0.537,-0.047 0.537,-0.076L0.537,-0.317L0.224,-0.317L0.224,-0.076C0.224,-0.047 0.217,-0.024 0.204,-0.01C0.19,0.005 0.172,0.012 0.151,0.012C0.129,0.012 0.112,0.005 0.099,-0.01C0.086,-0.025 0.079,-0.047 0.079,-0.076L0.079,-0.64C0.079,-0.669 0.086,-0.691 0.098,-0.706C0.111,-0.721 0.129,-0.728 0.151,-0.728C0.173,-0.728 0.19,-0.721 0.204,-0.706C0.217,-0.692 0.224,-0.67 0.224,-0.64Z" style="fill-rule:nonzero;"/>
            </g>
        </g>
    </g>
</svg>
