<?xml version="1.0" encoding="UTF-8" standalone="no"?>
<!DOCTYPE svg PUBLIC "-//W3C//DTD SVG 1.1//EN" "http://www.w3.org/Graphics/SVG/1.1/DTD/svg11.dtd">
<svg width="100%" height="100%" viewBox="0 0 151 380" version="1.1" xmlns="http://www.w3.org/2000/svg" xmlns:xlink="http://www.w3.org/1999/xlink" xml:space="preserve" xmlns:serif="http://www.serif.com/" style="fill-rule:evenodd;clip-rule:evenodd;stroke-linejoin:round;stroke-miterlimit:1.41421;">
    <g id="Layer-1" serif:id="Layer 1" transform="matrix(0.834722,0,0,1.04324,-803.837,250.623)">
        <g transform="matrix(3.01847,0,0,0.959028,963,-240.415)">
            <rect x="0" y="0" width="60" height="380" style="fill:rgb(229,229,229);"/>
        </g>
        <g transform="matrix(1.03899,0,0,1.44687,996.707,-653.268)">
            <rect x="-30.034" y="347.456" width="169.102" height="16.91" style="fill:rgb(161,158,158);"/>
        </g>
        <g transform="matrix(1.03909,0,0,1.55539,996.655,-450.668)">
            <rect x="-30.034" y="347.456" width="169.102" height="16.91" style="fill:rgb(161,158,158);"/>
        </g>
        <g id="path3052" transform="matrix(1.25724,0,0,1.0755,-247.861,-9.16649)">
            <rect x="963.532" y="121.41" width="142.941" height="2.074" style="fill:url(#_Linear1);"/>
        </g>
        <g id="path40444" transform="matrix(1.2559,0,0,1.0005,-246.426,-0.0614164)">
            <path d="M1107,-240.235L963,-240.235L963,124.015L1107,124.015L1107,-240.235ZM1106.47,123.484L963.531,123.484L963.531,-239.708L1106.47,-239.708L1106.47,123.484Z" style="fill:rgb(81,85,88);fill-rule:nonzero;"/>
        </g>
        <g id="text1122" transform="matrix(1.198,0,0,0.958553,1053.08,113.185)">
            <path d="M-11.644,-3.338L-11.644,-2.997L-12.471,-2.997L-12.471,-7.191L-11.644,-7.191L-11.644,-5.398L-11.633,-5.398C-11.417,-5.732 -11.107,-5.9 -10.706,-5.9C-10.349,-5.9 -10.069,-5.775 -9.867,-5.526C-9.665,-5.276 -9.563,-4.932 -9.563,-4.493C-9.563,-4.024 -9.68,-3.645 -9.912,-3.358C-10.144,-3.071 -10.452,-2.928 -10.837,-2.928C-11.189,-2.928 -11.454,-3.064 -11.633,-3.338L-11.644,-3.338ZM-11.657,-4.222C-11.657,-4.035 -11.601,-3.879 -11.49,-3.753C-11.379,-3.626 -11.238,-3.563 -11.067,-3.563C-10.861,-3.563 -10.7,-3.643 -10.584,-3.804C-10.469,-3.965 -10.411,-4.192 -10.411,-4.486C-10.411,-4.73 -10.464,-4.921 -10.569,-5.058C-10.674,-5.196 -10.824,-5.264 -11.019,-5.264C-11.203,-5.264 -11.356,-5.195 -11.476,-5.057C-11.596,-4.919 -11.657,-4.741 -11.657,-4.524L-11.657,-4.222Z" style="fill-rule:nonzero;"/>
            <path d="M-7.244,-1.182L-4.357,-1.182L-4.357,0L-8.883,0L-8.883,-0.505C-8.883,-0.86 -8.818,-1.184 -8.688,-1.477C-8.557,-1.77 -8.378,-2.043 -8.149,-2.296C-7.921,-2.55 -7.566,-2.846 -7.086,-3.186C-6.646,-3.514 -6.339,-3.805 -6.163,-4.058C-5.987,-4.312 -5.899,-4.581 -5.899,-4.865C-5.899,-5.477 -6.233,-5.783 -6.901,-5.783C-7.487,-5.783 -8.047,-5.549 -8.58,-5.08L-8.58,-6.346C-7.985,-6.729 -7.317,-6.921 -6.576,-6.921C-5.896,-6.921 -5.359,-6.748 -4.963,-6.401C-4.568,-6.053 -4.37,-5.575 -4.37,-4.966C-4.37,-4.626 -4.427,-4.319 -4.541,-4.045C-4.656,-3.771 -4.821,-3.514 -5.038,-3.274C-5.255,-3.034 -5.602,-2.745 -6.079,-2.408C-6.539,-2.08 -6.848,-1.827 -7.007,-1.648C-7.165,-1.469 -7.244,-1.314 -7.244,-1.182Z" style="fill-rule:nonzero;"/>
            <path d="M-3.46,-3.292C-3.46,-4.469 -3.243,-5.369 -2.81,-5.99C-2.376,-6.611 -1.749,-6.921 -0.929,-6.921C0.635,-6.921 1.418,-5.764 1.418,-3.45C1.418,-2.31 1.205,-1.43 0.78,-0.811C0.356,-0.191 -0.258,0.119 -1.061,0.119C-2.66,0.119 -3.46,-1.018 -3.46,-3.292ZM-2.023,-3.327C-2.023,-1.756 -1.688,-0.971 -1.017,-0.971C-0.358,-0.971 -0.028,-1.78 -0.028,-3.397C-0.028,-5.02 -0.349,-5.832 -0.991,-5.832C-1.679,-5.832 -2.023,-4.997 -2.023,-3.327Z" style="fill-rule:nonzero;"/>
            <path d="M5.566,-6.957L5.566,0L4.138,0L4.138,-5.357C3.962,-5.205 3.722,-5.068 3.417,-4.946C3.113,-4.824 2.833,-4.749 2.578,-4.72L2.578,-5.937C3.381,-6.171 4.075,-6.511 4.661,-6.957L5.566,-6.957Z" style="fill-rule:nonzero;"/>
            <path d="M9.407,-1.182L12.294,-1.182L12.294,0L7.768,0L7.768,-0.505C7.768,-0.86 7.833,-1.184 7.963,-1.477C8.094,-1.77 8.273,-2.043 8.502,-2.296C8.73,-2.55 9.085,-2.846 9.565,-3.186C10.005,-3.514 10.312,-3.805 10.488,-4.058C10.664,-4.312 10.752,-4.581 10.752,-4.865C10.752,-5.477 10.418,-5.783 9.75,-5.783C9.164,-5.783 8.604,-5.549 8.071,-5.08L8.071,-6.346C8.666,-6.729 9.334,-6.921 10.075,-6.921C10.755,-6.921 11.292,-6.748 11.688,-6.401C12.083,-6.053 12.281,-5.575 12.281,-4.966C12.281,-4.626 12.224,-4.319 12.11,-4.045C11.995,-3.771 11.83,-3.514 11.613,-3.274C11.396,-3.034 11.049,-2.745 10.572,-2.408C10.112,-2.08 9.802,-1.827 9.644,-1.648C9.486,-1.469 9.407,-1.314 9.407,-1.182Z" style="fill-rule:nonzero;"/>
        </g>
        <g transform="matrix(1.198,0,0,0.958552,1022.24,-215.123)">
            <path d="M7.523,-0.328C6.863,-0.004 6.002,0.158 4.939,0.158C3.572,0.158 2.487,-0.251 1.685,-1.069C0.882,-1.888 0.48,-2.979 0.48,-4.342C0.48,-5.775 0.929,-6.948 1.825,-7.86C2.722,-8.772 3.879,-9.229 5.297,-9.229C6.184,-9.229 6.926,-9.113 7.523,-8.883L7.523,-7.014C6.91,-7.373 6.215,-7.553 5.438,-7.553C4.551,-7.553 3.842,-7.27 3.311,-6.703C2.779,-6.137 2.514,-5.396 2.514,-4.482C2.514,-3.592 2.766,-2.875 3.27,-2.332C3.773,-1.789 4.455,-1.518 5.314,-1.518C6.123,-1.518 6.859,-1.713 7.523,-2.104L7.523,-0.328Z" style="fill-rule:nonzero;"/>
            <path d="M16.594,-9.076L13.441,0L11.256,0L8.145,-9.076L10.23,-9.076L12.193,-2.66C12.291,-2.344 12.352,-2.045 12.375,-1.764L12.41,-1.764C12.441,-2.053 12.508,-2.359 12.609,-2.684L14.572,-9.076L16.594,-9.076Z" style="fill-rule:nonzero;"/>
            <rect x="17.561" y="-4.143" width="3.463" height="1.336" style="fill-rule:nonzero;"/>
            <path d="M31.254,0L31.254,-5.508C31.254,-6.016 31.279,-6.654 31.33,-7.424L31.283,-7.424C31.166,-6.842 31.072,-6.453 31.002,-6.258L28.764,0L27.223,0L24.955,-6.199C24.9,-6.348 24.805,-6.756 24.668,-7.424L24.615,-7.424C24.666,-6.662 24.691,-5.898 24.691,-5.133L24.691,0L22.945,0L22.945,-9.076L25.758,-9.076L27.715,-3.592C27.879,-3.139 27.99,-2.713 28.049,-2.314L28.09,-2.314C28.211,-2.811 28.336,-3.24 28.465,-3.604L30.428,-9.076L33.164,-9.076L33.164,0L31.254,0Z" style="fill-rule:nonzero;"/>
            <path d="M43.16,0L41.051,0L40.371,-2.08L37.072,-2.08L36.404,0L34.307,0L37.629,-9.076L39.902,-9.076L43.16,0ZM39.914,-3.574L38.883,-6.721C38.816,-6.92 38.77,-7.184 38.742,-7.512L38.689,-7.512C38.666,-7.246 38.613,-6.99 38.531,-6.744L37.494,-3.574L39.914,-3.574Z" style="fill-rule:nonzero;"/>
            <path d="M46.242,-3.164L46.242,0L44.309,0L44.309,-9.076L47.432,-9.076C49.689,-9.076 50.818,-8.119 50.818,-6.205C50.818,-5.275 50.478,-4.53 49.796,-3.97C49.114,-3.409 48.262,-3.141 47.238,-3.164L46.242,-3.164ZM46.242,-7.576L46.242,-4.646L47.08,-4.646C48.217,-4.646 48.785,-5.141 48.785,-6.129C48.785,-7.094 48.223,-7.576 47.098,-7.576L46.242,-7.576Z" style="fill-rule:nonzero;"/>
        </g>
        <g transform="matrix(1.198,0,0,0.958552,963.611,-250.864)">
            <g transform="matrix(1,0,0,1,18.836,56.275)">
                <path d="M1.491,-1.582L1.491,0L0.524,0L0.524,-4.538L2.086,-4.538C3.215,-4.538 3.779,-4.06 3.779,-3.103C3.779,-2.638 3.609,-2.265 3.268,-1.985C2.927,-1.705 2.501,-1.57 1.989,-1.582L1.491,-1.582ZM1.491,-3.788L1.491,-2.323L1.91,-2.323C2.479,-2.323 2.763,-2.57 2.763,-3.064C2.763,-3.547 2.481,-3.788 1.919,-3.788L1.491,-3.788Z" style="fill-rule:nonzero;"/>
                <path d="M4.184,-2.209C4.184,-2.92 4.391,-3.499 4.806,-3.945C5.221,-4.391 5.77,-4.614 6.451,-4.614C7.1,-4.614 7.622,-4.398 8.017,-3.967C8.413,-3.535 8.61,-2.98 8.61,-2.303C8.61,-1.596 8.405,-1.022 7.994,-0.582C7.583,-0.141 7.044,0.079 6.378,0.079C5.728,0.079 5.199,-0.134 4.793,-0.561C4.387,-0.988 4.184,-1.537 4.184,-2.209ZM5.2,-2.262C5.2,-1.82 5.307,-1.459 5.52,-1.179C5.732,-0.899 6.024,-0.759 6.396,-0.759C6.774,-0.759 7.069,-0.893 7.28,-1.162C7.491,-1.43 7.597,-1.791 7.597,-2.244C7.597,-2.717 7.494,-3.09 7.289,-3.365C7.084,-3.639 6.795,-3.776 6.422,-3.776C6.043,-3.776 5.745,-3.636 5.527,-3.354C5.309,-3.073 5.2,-2.709 5.2,-2.262Z" style="fill-rule:nonzero;"/>
                <path d="M12.041,0L9.378,0L9.378,-4.538L10.345,-4.538L10.345,-0.791L12.041,-0.791L12.041,0Z" style="fill-rule:nonzero;"/>
            </g>
            <g transform="matrix(1,0,0,1,30.514,56.275)">
                <path d="M3.896,-4.538L2.414,-1.62L2.414,0L1.447,0L1.447,-1.603L0.006,-4.538L1.11,-4.538L1.872,-2.804C1.888,-2.769 1.924,-2.649 1.98,-2.446L1.992,-2.446C2.016,-2.583 2.048,-2.699 2.089,-2.795L2.871,-4.538L3.896,-4.538Z" style="fill-rule:nonzero;"/>
                <path d="M8.224,-4.638L8.224,0L7.271,0L7.271,-3.571C7.154,-3.47 6.994,-3.378 6.791,-3.297C6.588,-3.216 6.401,-3.166 6.231,-3.146L6.231,-3.958C6.767,-4.114 7.229,-4.341 7.62,-4.638L8.224,-4.638Z" style="fill-rule:nonzero;"/>
                <rect x="9.829" y="-2.071" width="1.731" height="0.668" style="fill-rule:nonzero;"/>
                <path d="M14.543,-4.638L14.543,0L13.591,0L13.591,-3.571C13.474,-3.47 13.313,-3.378 13.11,-3.297C12.907,-3.216 12.721,-3.166 12.551,-3.146L12.551,-3.958C13.086,-4.114 13.549,-4.341 13.939,-4.638L14.543,-4.638Z" style="fill-rule:nonzero;"/>
                <path d="M18.864,-3.691C18.634,-3.822 18.383,-3.888 18.111,-3.888C17.762,-3.888 17.482,-3.75 17.272,-3.476C17.062,-3.202 16.957,-2.847 16.957,-2.411L16.975,-2.411C17.191,-2.743 17.513,-2.909 17.938,-2.909C18.319,-2.909 18.622,-2.779 18.845,-2.518C19.069,-2.257 19.181,-1.918 19.181,-1.5C19.181,-1.043 19.035,-0.666 18.744,-0.368C18.453,-0.07 18.081,0.079 17.628,0.079C17.108,0.079 16.71,-0.108 16.434,-0.483C16.158,-0.858 16.02,-1.372 16.02,-2.024C16.02,-2.792 16.199,-3.416 16.557,-3.895C16.916,-4.375 17.414,-4.614 18.053,-4.614C18.396,-4.614 18.667,-4.573 18.864,-4.491L18.864,-3.691ZM16.989,-1.491C16.989,-1.257 17.048,-1.058 17.165,-0.894C17.282,-0.729 17.437,-0.647 17.628,-0.647C17.821,-0.647 17.974,-0.723 18.085,-0.873C18.196,-1.023 18.252,-1.212 18.252,-1.438C18.252,-1.948 18.042,-2.203 17.622,-2.203C17.433,-2.203 17.28,-2.136 17.164,-2.001C17.047,-1.866 16.989,-1.696 16.989,-1.491Z" style="fill-rule:nonzero;"/>
            </g>
        </g>
        <g transform="matrix(1.198,0,0,0.958552,1055.92,-250.864)">
            <g transform="matrix(1,0,0,1,18.836,56.275)">
                <path d="M1.491,-1.582L1.491,0L0.524,0L0.524,-4.538L2.086,-4.538C3.215,-4.538 3.779,-4.06 3.779,-3.103C3.779,-2.638 3.609,-2.265 3.268,-1.985C2.927,-1.705 2.501,-1.57 1.989,-1.582L1.491,-1.582ZM1.491,-3.788L1.491,-2.323L1.91,-2.323C2.479,-2.323 2.763,-2.57 2.763,-3.064C2.763,-3.547 2.481,-3.788 1.919,-3.788L1.491,-3.788Z" style="fill-rule:nonzero;"/>
                <path d="M4.184,-2.209C4.184,-2.92 4.391,-3.499 4.806,-3.945C5.221,-4.391 5.77,-4.614 6.451,-4.614C7.1,-4.614 7.622,-4.398 8.017,-3.967C8.413,-3.535 8.61,-2.98 8.61,-2.303C8.61,-1.596 8.405,-1.022 7.994,-0.582C7.583,-0.141 7.044,0.079 6.378,0.079C5.728,0.079 5.199,-0.134 4.793,-0.561C4.387,-0.988 4.184,-1.537 4.184,-2.209ZM5.2,-2.262C5.2,-1.82 5.307,-1.459 5.52,-1.179C5.732,-0.899 6.024,-0.759 6.396,-0.759C6.774,-0.759 7.069,-0.893 7.28,-1.162C7.491,-1.43 7.597,-1.791 7.597,-2.244C7.597,-2.717 7.494,-3.09 7.289,-3.365C7.084,-3.639 6.795,-3.776 6.422,-3.776C6.043,-3.776 5.745,-3.636 5.527,-3.354C5.309,-3.073 5.2,-2.709 5.2,-2.262Z" style="fill-rule:nonzero;"/>
                <path d="M12.041,0L9.378,0L9.378,-4.538L10.345,-4.538L10.345,-0.791L12.041,-0.791L12.041,0Z" style="fill-rule:nonzero;"/>
            </g>
            <g transform="matrix(1,0,0,1,30.514,56.275)">
                <path d="M3.896,-4.538L2.414,-1.62L2.414,0L1.447,0L1.447,-1.603L0.006,-4.538L1.11,-4.538L1.872,-2.804C1.888,-2.769 1.924,-2.649 1.98,-2.446L1.992,-2.446C2.016,-2.583 2.048,-2.699 2.089,-2.795L2.871,-4.538L3.896,-4.538Z" style="fill-rule:nonzero;"/>
                <path d="M8.224,-4.638L8.224,0L7.271,0L7.271,-3.571C7.154,-3.47 6.994,-3.378 6.791,-3.297C6.588,-3.216 6.401,-3.166 6.231,-3.146L6.231,-3.958C6.767,-4.114 7.229,-4.341 7.62,-4.638L8.224,-4.638Z" style="fill-rule:nonzero;"/>
                <path d="M12.823,-3.961C12.456,-3.303 12.182,-2.772 12.001,-2.37C11.821,-1.968 11.674,-1.576 11.561,-1.195C11.447,-0.814 11.36,-0.416 11.3,0L10.283,0C10.381,-0.592 10.553,-1.191 10.8,-1.797C11.047,-2.404 11.389,-3.058 11.824,-3.759L9.659,-3.759L9.659,-4.538L12.823,-4.538L12.823,-3.961Z" style="fill-rule:nonzero;"/>
                <rect x="13.529" y="-2.071" width="1.731" height="0.668" style="fill-rule:nonzero;"/>
                <path d="M16.16,-0.987C16.463,-0.761 16.816,-0.647 17.221,-0.647C17.477,-0.647 17.68,-0.704 17.83,-0.817C17.98,-0.931 18.056,-1.092 18.056,-1.301C18.056,-1.516 17.966,-1.68 17.788,-1.793C17.609,-1.906 17.358,-1.963 17.036,-1.963L16.632,-1.963L16.632,-2.692L17.004,-2.692C17.613,-2.692 17.918,-2.897 17.918,-3.308C17.918,-3.694 17.685,-3.888 17.218,-3.888C16.913,-3.888 16.617,-3.788 16.33,-3.589L16.33,-4.371C16.643,-4.533 17.011,-4.614 17.435,-4.614C17.864,-4.614 18.213,-4.515 18.48,-4.317C18.748,-4.119 18.882,-3.844 18.882,-3.492C18.882,-2.898 18.581,-2.525 17.979,-2.373L17.979,-2.358C18.296,-2.323 18.549,-2.208 18.738,-2.011C18.928,-1.815 19.022,-1.576 19.022,-1.295C19.022,-0.863 18.865,-0.526 18.549,-0.284C18.234,-0.042 17.813,0.079 17.288,0.079C16.821,0.079 16.445,0.002 16.16,-0.152L16.16,-0.987Z" style="fill-rule:nonzero;"/>
                <path d="M20.804,-0.788L22.729,-0.788L22.729,0L19.711,0L19.711,-0.337C19.711,-0.573 19.754,-0.789 19.841,-0.984C19.928,-1.18 20.048,-1.362 20.2,-1.531C20.353,-1.7 20.589,-1.897 20.909,-2.124C21.202,-2.343 21.407,-2.537 21.524,-2.706C21.642,-2.875 21.7,-3.054 21.7,-3.243C21.7,-3.651 21.478,-3.855 21.032,-3.855C20.642,-3.855 20.269,-3.699 19.913,-3.387L19.913,-4.23C20.31,-4.486 20.755,-4.614 21.249,-4.614C21.702,-4.614 22.061,-4.499 22.324,-4.267C22.588,-4.036 22.72,-3.717 22.72,-3.311C22.72,-3.084 22.682,-2.879 22.605,-2.697C22.529,-2.514 22.419,-2.343 22.274,-2.183C22.13,-2.022 21.898,-1.83 21.58,-1.605C21.273,-1.387 21.067,-1.218 20.962,-1.099C20.856,-0.979 20.804,-0.876 20.804,-0.788Z" style="fill-rule:nonzero;"/>
            </g>
        </g>
        <g transform="matrix(1.198,0,0,0.958552,971.101,-247.125)">
            <g transform="matrix(1,0,0,1,17.203,40.103)">
                <path d="M3.547,-3.782L2.234,0L1.323,0L0.027,-3.782L0.896,-3.782L1.714,-1.108C1.755,-0.977 1.78,-0.852 1.79,-0.735L1.804,-0.735C1.817,-0.855 1.845,-0.983 1.887,-1.118L2.705,-3.782L3.547,-3.782Z" style="fill:rgb(107,107,107);fill-rule:nonzero;"/>
                <path d="M3.762,-1.841C3.762,-2.433 3.935,-2.915 4.281,-3.287C4.627,-3.659 5.084,-3.845 5.652,-3.845C6.192,-3.845 6.627,-3.665 6.957,-3.306C7.286,-2.946 7.451,-2.484 7.451,-1.919C7.451,-1.33 7.28,-0.852 6.937,-0.485C6.595,-0.118 6.146,0.066 5.591,0.066C5.049,0.066 4.609,-0.112 4.27,-0.468C3.931,-0.823 3.762,-1.281 3.762,-1.841ZM4.609,-1.885C4.609,-1.517 4.698,-1.216 4.875,-0.983C5.053,-0.749 5.296,-0.632 5.605,-0.632C5.921,-0.632 6.167,-0.744 6.343,-0.968C6.519,-1.192 6.606,-1.493 6.606,-1.87C6.606,-2.264 6.521,-2.575 6.35,-2.804C6.179,-3.033 5.938,-3.147 5.627,-3.147C5.312,-3.147 5.063,-3.03 4.882,-2.795C4.7,-2.561 4.609,-2.257 4.609,-1.885Z" style="fill:rgb(107,107,107);fill-rule:nonzero;"/>
                <path d="M10.31,0L8.091,0L8.091,-3.782L8.896,-3.782L8.896,-0.659L10.31,-0.659L10.31,0Z" style="fill:rgb(107,107,107);fill-rule:nonzero;"/>
            </g>
            <g transform="matrix(1,0,0,1,27.242,40.103)">
                <path d="M3.047,-3.123L1.968,-3.123L1.968,0L1.16,0L1.16,-3.123L0.083,-3.123L0.083,-3.782L3.047,-3.782L3.047,-3.123Z" style="fill:rgb(107,107,107);fill-rule:nonzero;"/>
                <path d="M6.467,0L5.588,0L5.305,-0.867L3.931,-0.867L3.652,0L2.778,0L4.163,-3.782L5.11,-3.782L6.467,0ZM5.115,-1.489L4.685,-2.8C4.657,-2.883 4.638,-2.993 4.626,-3.13L4.604,-3.13C4.595,-3.019 4.573,-2.913 4.539,-2.81L4.106,-1.489L5.115,-1.489Z" style="fill:rgb(107,107,107);fill-rule:nonzero;"/>
                <path d="M9.961,-0.254C9.591,-0.041 9.137,0.066 8.599,0.066C7.996,0.066 7.521,-0.103 7.173,-0.442C6.825,-0.78 6.65,-1.243 6.65,-1.831C6.65,-2.427 6.842,-2.911 7.225,-3.285C7.609,-3.658 8.114,-3.845 8.74,-3.845C9.144,-3.845 9.496,-3.788 9.797,-3.674L9.797,-2.91C9.504,-3.081 9.146,-3.167 8.723,-3.167C8.359,-3.167 8.063,-3.048 7.837,-2.81C7.611,-2.572 7.498,-2.259 7.498,-1.87C7.498,-1.475 7.6,-1.166 7.804,-0.945C8.008,-0.723 8.287,-0.613 8.64,-0.613C8.85,-0.613 9.022,-0.645 9.155,-0.71L9.155,-1.487L8.391,-1.487L8.391,-2.134L9.961,-2.134L9.961,-0.254Z" style="fill:rgb(107,107,107);fill-rule:nonzero;"/>
                <path d="M12.952,0L10.713,0L10.713,-3.782L12.864,-3.782L12.864,-3.123L11.519,-3.123L11.519,-2.231L12.769,-2.231L12.769,-1.575L11.519,-1.575L11.519,-0.659L12.952,-0.659L12.952,0Z" style="fill:rgb(107,107,107);fill-rule:nonzero;"/>
                <path d="M17.759,-0.137C17.484,-0.002 17.125,0.066 16.682,0.066C16.112,0.066 15.66,-0.105 15.326,-0.446C14.991,-0.787 14.824,-1.241 14.824,-1.809C14.824,-2.406 15.011,-2.895 15.385,-3.275C15.758,-3.655 16.24,-3.845 16.831,-3.845C17.201,-3.845 17.51,-3.797 17.759,-3.701L17.759,-2.922C17.503,-3.072 17.214,-3.147 16.89,-3.147C16.52,-3.147 16.225,-3.029 16.003,-2.793C15.782,-2.557 15.671,-2.249 15.671,-1.868C15.671,-1.497 15.776,-1.198 15.986,-0.972C16.196,-0.745 16.48,-0.632 16.838,-0.632C17.175,-0.632 17.482,-0.714 17.759,-0.876L17.759,-0.137Z" style="fill:rgb(107,107,107);fill-rule:nonzero;"/>
                <path d="M18.125,-1.841C18.125,-2.433 18.298,-2.915 18.644,-3.287C18.99,-3.659 19.447,-3.845 20.015,-3.845C20.555,-3.845 20.99,-3.665 21.32,-3.306C21.649,-2.946 21.814,-2.484 21.814,-1.919C21.814,-1.33 21.643,-0.852 21.3,-0.485C20.957,-0.118 20.509,0.066 19.954,0.066C19.412,0.066 18.971,-0.112 18.633,-0.468C18.294,-0.823 18.125,-1.281 18.125,-1.841ZM18.972,-1.885C18.972,-1.517 19.061,-1.216 19.238,-0.983C19.416,-0.749 19.659,-0.632 19.968,-0.632C20.284,-0.632 20.53,-0.744 20.706,-0.968C20.881,-1.192 20.969,-1.493 20.969,-1.87C20.969,-2.264 20.884,-2.575 20.713,-2.804C20.542,-3.033 20.301,-3.147 19.99,-3.147C19.674,-3.147 19.426,-3.03 19.244,-2.795C19.063,-2.561 18.972,-2.257 18.972,-1.885Z" style="fill:rgb(107,107,107);fill-rule:nonzero;"/>
                <path d="M25.815,0L24.99,0L23.389,-2.446C23.306,-2.573 23.245,-2.676 23.208,-2.754L23.196,-2.754C23.21,-2.624 23.218,-2.423 23.218,-2.151L23.218,0L22.454,0L22.454,-3.782L23.333,-3.782L24.875,-1.404C24.978,-1.246 25.041,-1.146 25.063,-1.104L25.076,-1.104C25.059,-1.195 25.051,-1.369 25.051,-1.626L25.051,-3.782L25.815,-3.782L25.815,0Z" style="fill:rgb(107,107,107);fill-rule:nonzero;"/>
                <path d="M29.304,-3.123L28.225,-3.123L28.225,0L27.417,0L27.417,-3.123L26.34,-3.123L26.34,-3.782L29.304,-3.782L29.304,-3.123Z" style="fill:rgb(107,107,107);fill-rule:nonzero;"/>
                <path d="M32.942,0L32.014,0L31.421,-0.984C31.299,-1.187 31.199,-1.318 31.121,-1.377C31.042,-1.436 30.959,-1.465 30.872,-1.465L30.627,-1.465L30.627,0L29.822,0L29.822,-3.782L31.147,-3.782C32.048,-3.782 32.498,-3.44 32.498,-2.756C32.498,-2.499 32.422,-2.279 32.272,-2.095C32.121,-1.911 31.914,-1.781 31.65,-1.707L31.65,-1.697C31.825,-1.638 32.017,-1.446 32.229,-1.121L32.942,0ZM30.627,-3.169L30.627,-2.08L31.023,-2.08C31.212,-2.08 31.364,-2.135 31.478,-2.245C31.593,-2.355 31.65,-2.492 31.65,-2.656C31.65,-2.998 31.446,-3.169 31.038,-3.169L30.627,-3.169Z" style="fill:rgb(107,107,107);fill-rule:nonzero;"/>
                <path d="M33.02,-1.841C33.02,-2.433 33.193,-2.915 33.539,-3.287C33.885,-3.659 34.342,-3.845 34.91,-3.845C35.45,-3.845 35.885,-3.665 36.215,-3.306C36.544,-2.946 36.709,-2.484 36.709,-1.919C36.709,-1.33 36.538,-0.852 36.195,-0.485C35.852,-0.118 35.404,0.066 34.849,0.066C34.307,0.066 33.866,-0.112 33.528,-0.468C33.189,-0.823 33.02,-1.281 33.02,-1.841ZM33.867,-1.885C33.867,-1.517 33.956,-1.216 34.133,-0.983C34.311,-0.749 34.554,-0.632 34.863,-0.632C35.179,-0.632 35.425,-0.744 35.601,-0.968C35.776,-1.192 35.864,-1.493 35.864,-1.87C35.864,-2.264 35.779,-2.575 35.608,-2.804C35.437,-3.033 35.196,-3.147 34.885,-3.147C34.569,-3.147 34.321,-3.03 34.139,-2.795C33.958,-2.561 33.867,-2.257 33.867,-1.885Z" style="fill:rgb(107,107,107);fill-rule:nonzero;"/>
                <path d="M39.568,0L37.349,0L37.349,-3.782L38.154,-3.782L38.154,-0.659L39.568,-0.659L39.568,0Z" style="fill:rgb(107,107,107);fill-rule:nonzero;"/>
                <path d="M42.302,0L40.083,0L40.083,-3.782L40.889,-3.782L40.889,-0.659L42.302,-0.659L42.302,0Z" style="fill:rgb(107,107,107);fill-rule:nonzero;"/>
                <path d="M45.056,0L42.817,0L42.817,-3.782L44.968,-3.782L44.968,-3.123L43.623,-3.123L43.623,-2.231L44.873,-2.231L44.873,-1.575L43.623,-1.575L43.623,-0.659L45.056,-0.659L45.056,0Z" style="fill:rgb(107,107,107);fill-rule:nonzero;"/>
                <path d="M45.676,0L45.676,-3.782L46.982,-3.782C48.325,-3.782 48.997,-3.167 48.997,-1.938C48.997,-1.354 48.809,-0.885 48.433,-0.531C48.057,-0.177 47.572,0 46.978,0L45.676,0ZM46.482,-3.123L46.482,-0.659L46.921,-0.659C47.304,-0.659 47.604,-0.773 47.822,-1.001C48.04,-1.229 48.149,-1.537 48.149,-1.926C48.149,-2.302 48.035,-2.596 47.808,-2.806C47.58,-3.017 47.284,-3.123 46.919,-3.123L46.482,-3.123Z" style="fill:rgb(107,107,107);fill-rule:nonzero;"/>
                <path d="M51.929,-1.318L51.929,0L51.123,0L51.123,-3.782L52.424,-3.782C53.365,-3.782 53.835,-3.383 53.835,-2.585C53.835,-2.198 53.693,-1.888 53.409,-1.654C53.125,-1.42 52.77,-1.309 52.344,-1.318L51.929,-1.318ZM51.929,-3.157L51.929,-1.936L52.278,-1.936C52.751,-1.936 52.988,-2.142 52.988,-2.554C52.988,-2.956 52.754,-3.157 52.285,-3.157L51.929,-3.157Z" style="fill:rgb(107,107,107);fill-rule:nonzero;"/>
            </g>
            <g transform="matrix(1,0,0,1,80.884,40.103)">
                <path d="M3.718,0L2.839,0L2.556,-0.867L1.182,-0.867L0.903,0L0.029,0L1.414,-3.782L2.361,-3.782L3.718,0ZM2.366,-1.489L1.936,-2.8C1.908,-2.883 1.889,-2.993 1.877,-3.13L1.855,-3.13C1.846,-3.019 1.824,-2.913 1.79,-2.81L1.357,-1.489L2.366,-1.489Z" style="fill:rgb(107,107,107);fill-rule:nonzero;"/>
                <path d="M7.317,0L6.389,0L5.796,-0.984C5.674,-1.187 5.574,-1.318 5.496,-1.377C5.417,-1.436 5.334,-1.465 5.247,-1.465L5.002,-1.465L5.002,0L4.197,0L4.197,-3.782L5.522,-3.782C6.423,-3.782 6.873,-3.44 6.873,-2.756C6.873,-2.499 6.797,-2.279 6.647,-2.095C6.496,-1.911 6.289,-1.781 6.025,-1.707L6.025,-1.697C6.2,-1.638 6.392,-1.446 6.604,-1.121L7.317,0ZM5.002,-3.169L5.002,-2.08L5.398,-2.08C5.587,-2.08 5.739,-2.135 5.853,-2.245C5.968,-2.355 6.025,-2.492 6.025,-2.656C6.025,-2.998 5.821,-3.169 5.413,-3.169L5.002,-3.169Z" style="fill:rgb(107,107,107);fill-rule:nonzero;"/>
                <path d="M10.969,0L10.09,0L9.807,-0.867L8.433,-0.867L8.154,0L7.28,0L8.665,-3.782L9.612,-3.782L10.969,0ZM9.617,-1.489L9.187,-2.8C9.159,-2.883 9.14,-2.993 9.128,-3.13L9.106,-3.13C9.097,-3.019 9.075,-2.913 9.041,-2.81L8.608,-1.489L9.617,-1.489Z" style="fill:rgb(107,107,107);fill-rule:nonzero;"/>
                <rect x="11.387" y="-1.726" width="1.443" height="0.557" style="fill:rgb(107,107,107);fill-rule:nonzero;"/>
                <path d="M13.394,-1.841C13.394,-2.433 13.566,-2.915 13.912,-3.287C14.258,-3.659 14.715,-3.845 15.283,-3.845C15.824,-3.845 16.259,-3.665 16.588,-3.306C16.918,-2.946 17.083,-2.484 17.083,-1.919C17.083,-1.33 16.911,-0.852 16.569,-0.485C16.226,-0.118 15.777,0.066 15.222,0.066C14.68,0.066 14.24,-0.112 13.901,-0.468C13.563,-0.823 13.394,-1.281 13.394,-1.841ZM14.241,-1.885C14.241,-1.517 14.329,-1.216 14.507,-0.983C14.684,-0.749 14.928,-0.632 15.237,-0.632C15.553,-0.632 15.798,-0.744 15.974,-0.968C16.15,-1.192 16.238,-1.493 16.238,-1.87C16.238,-2.264 16.152,-2.575 15.981,-2.804C15.811,-3.033 15.57,-3.147 15.259,-3.147C14.943,-3.147 14.694,-3.03 14.513,-2.795C14.331,-2.561 14.241,-2.257 14.241,-1.885Z" style="fill:rgb(107,107,107);fill-rule:nonzero;"/>
                <rect x="17.661" y="-1.726" width="1.443" height="0.557" style="fill:rgb(107,107,107);fill-rule:nonzero;"/>
                <path d="M23.367,0L23.367,-2.295C23.367,-2.507 23.377,-2.773 23.398,-3.093L23.379,-3.093C23.33,-2.851 23.291,-2.689 23.262,-2.607L22.329,0L21.687,0L20.742,-2.583C20.719,-2.645 20.68,-2.815 20.623,-3.093L20.601,-3.093C20.622,-2.776 20.632,-2.458 20.632,-2.139L20.632,0L19.905,0L19.905,-3.782L21.077,-3.782L21.892,-1.497C21.96,-1.308 22.007,-1.13 22.031,-0.964L22.048,-0.964C22.099,-1.171 22.151,-1.35 22.205,-1.501L23.022,-3.782L24.163,-3.782L24.163,0L23.367,0Z" style="fill:rgb(107,107,107);fill-rule:nonzero;"/>
                <path d="M28.328,0L27.449,0L27.166,-0.867L25.791,-0.867L25.513,0L24.639,0L26.023,-3.782L26.97,-3.782L28.328,0ZM26.975,-1.489L26.545,-2.8C26.518,-2.883 26.498,-2.993 26.487,-3.13L26.465,-3.13C26.455,-3.019 26.433,-2.913 26.399,-2.81L25.967,-1.489L26.975,-1.489Z" style="fill:rgb(107,107,107);fill-rule:nonzero;"/>
            </g>
            <g transform="matrix(1,0,0,1,108.875,40.103)">
                <path d="M3.047,-3.123L1.968,-3.123L1.968,0L1.16,0L1.16,-3.123L0.083,-3.123L0.083,-3.782L3.047,-3.782L3.047,-3.123Z" style="fill:rgb(107,107,107);fill-rule:nonzero;"/>
                <path d="M3.123,-1.841C3.123,-2.433 3.295,-2.915 3.641,-3.287C3.987,-3.659 4.444,-3.845 5.012,-3.845C5.553,-3.845 5.988,-3.665 6.317,-3.306C6.647,-2.946 6.812,-2.484 6.812,-1.919C6.812,-1.33 6.64,-0.852 6.298,-0.485C5.955,-0.118 5.506,0.066 4.951,0.066C4.409,0.066 3.969,-0.112 3.63,-0.468C3.292,-0.823 3.123,-1.281 3.123,-1.841ZM3.97,-1.885C3.97,-1.517 4.058,-1.216 4.236,-0.983C4.413,-0.749 4.657,-0.632 4.966,-0.632C5.282,-0.632 5.527,-0.744 5.703,-0.968C5.879,-1.192 5.967,-1.493 5.967,-1.87C5.967,-2.264 5.881,-2.575 5.71,-2.804C5.54,-3.033 5.299,-3.147 4.988,-3.147C4.672,-3.147 4.423,-3.03 4.242,-2.795C4.06,-2.561 3.97,-2.257 3.97,-1.885Z" style="fill:rgb(107,107,107);fill-rule:nonzero;"/>
                <path d="M10.571,0L9.644,0L9.05,-0.984C8.928,-1.187 8.828,-1.318 8.75,-1.377C8.672,-1.436 8.589,-1.465 8.501,-1.465L8.257,-1.465L8.257,0L7.451,0L7.451,-3.782L8.777,-3.782C9.677,-3.782 10.127,-3.44 10.127,-2.756C10.127,-2.499 10.052,-2.279 9.901,-2.095C9.751,-1.911 9.543,-1.781 9.28,-1.707L9.28,-1.697C9.454,-1.638 9.647,-1.446 9.858,-1.121L10.571,0ZM8.257,-3.169L8.257,-2.08L8.652,-2.08C8.841,-2.08 8.993,-2.135 9.108,-2.245C9.222,-2.355 9.28,-2.492 9.28,-2.656C9.28,-2.998 9.076,-3.169 8.667,-3.169L8.257,-3.169Z" style="fill:rgb(107,107,107);fill-rule:nonzero;"/>
            </g>
        </g>
    </g>
    <defs>
        <linearGradient id="_Linear1" x1="0" y1="0" x2="1" y2="0" gradientUnits="userSpaceOnUse" gradientTransform="matrix(9.31062e-17,1.52054,-1.52054,9.31062e-17,1036.87,122.284)"><stop offset="0" style="stop-color:rgb(165,165,165);stop-opacity:1"/><stop offset="1" style="stop-color:black;stop-opacity:1"/></linearGradient>
    </defs>
</svg>
