<?xml version="1.0" encoding="UTF-8" standalone="no"?>
<!DOCTYPE svg PUBLIC "-//W3C//DTD SVG 1.1//EN" "http://www.w3.org/Graphics/SVG/1.1/DTD/svg11.dtd">
<svg width="100%" height="100%" viewBox="0 0 151 380" version="1.1" xmlns="http://www.w3.org/2000/svg" xmlns:xlink="http://www.w3.org/1999/xlink" xml:space="preserve" xmlns:serif="http://www.serif.com/" style="fill-rule:evenodd;clip-rule:evenodd;stroke-linejoin:round;stroke-miterlimit:1.41421;">
    <g id="Layer-1" serif:id="Layer 1">
        <rect x="0" y="0.068" width="150.943" height="379.934" style="fill:rgb(128,187,254);"/>
        <rect x="-7.204" y="93.569" width="164.074" height="25.525" style="fill-opacity:0.25098;"/>
        <rect x="-10.531" y="344.266" width="169.314" height="27.439" style="fill:rgb(4,4,4);fill-opacity:0.25098;"/>
        <rect id="path3052" x="0.443" y="377.283" width="150.009" height="2.327" style="fill:url(#_Linear1);"/>
        <path id="path40444" d="M150.987,0.02L0.005,0.02L0.005,380.001L150.987,380.001L150.987,0.02ZM150.432,379.447L0.562,379.447L0.562,0.569L150.432,0.569L150.432,379.447Z" style="fill:rgb(51,51,51);fill-rule:nonzero;"/>
        <path d="M71.2,38.908C71.2,37.528 70.079,36.406 68.698,36.406L13.402,36.406C12.021,36.406 10.9,37.528 10.9,38.908L10.9,75.604C10.9,76.985 12.021,78.106 13.402,78.106L68.698,78.106C70.079,78.106 71.2,76.985 71.2,75.604L71.2,38.908Z" style="fill:white;fill-opacity:0.701961;"/>
        <path d="M139.772,38.908C139.772,37.528 138.651,36.406 137.27,36.406L81.934,36.406C80.553,36.406 79.432,37.528 79.432,38.908L79.432,75.604C79.432,76.985 80.553,78.106 81.934,78.106L137.27,78.106C138.651,78.106 139.772,76.985 139.772,75.604L139.772,38.908Z" style="fill:white;fill-opacity:0.701961;"/>
        <g transform="matrix(1,0,0,1,-4.64378,20.7531)">
            <path d="M49.982,345.817C50.523,346.145 51.052,346.31 51.569,346.31C52.22,346.31 52.546,346.136 52.546,345.787C52.546,345.54 52.277,345.333 51.74,345.167C51.07,344.959 50.609,344.727 50.358,344.471C50.108,344.216 49.982,343.87 49.982,343.434C49.982,342.903 50.197,342.487 50.627,342.186C51.057,341.885 51.62,341.735 52.316,341.735C52.811,341.735 53.288,341.808 53.747,341.954L53.747,343.195C53.327,342.947 52.865,342.823 52.36,342.823C52.11,342.823 51.908,342.868 51.755,342.958C51.602,343.047 51.525,343.165 51.525,343.312C51.525,343.559 51.753,343.759 52.209,343.912C52.697,344.075 53.064,344.223 53.31,344.357C53.556,344.49 53.743,344.666 53.871,344.884C54,345.102 54.064,345.354 54.064,345.641C54.064,346.197 53.841,346.63 53.395,346.937C52.949,347.245 52.354,347.399 51.608,347.399C51.022,347.399 50.48,347.306 49.982,347.12L49.982,345.817Z" style="fill:rgb(10,1,1);fill-rule:nonzero;"/>
            <path d="M58.389,347.203C58.152,347.334 57.792,347.399 57.31,347.399C56.164,347.399 55.591,346.796 55.591,345.592L55.591,343.043L54.703,343.043L54.703,341.866L55.591,341.866L55.591,340.68L57.159,340.231L57.159,341.866L58.389,341.866L58.389,343.043L57.159,343.043L57.159,345.319C57.159,345.895 57.387,346.183 57.842,346.183C58.018,346.183 58.2,346.131 58.389,346.027L58.389,347.203Z" style="fill:rgb(10,1,1);fill-rule:nonzero;"/>
            <path d="M59.525,347.489L59.084,347.123L59.638,346.464C59.255,345.985 59.064,345.394 59.064,344.69C59.064,343.856 59.306,343.179 59.792,342.661C60.277,342.143 60.916,341.883 61.709,341.883C62.286,341.883 62.78,342.032 63.192,342.328L63.668,341.771L64.112,342.133L63.609,342.717C64.022,343.198 64.228,343.819 64.228,344.58C64.228,345.407 63.987,346.077 63.504,346.59C63.02,347.103 62.394,347.359 61.624,347.359C61.027,347.359 60.505,347.19 60.058,346.853L59.525,347.489ZM62.564,343.066C62.322,342.872 62.026,342.776 61.675,342.776C61.226,342.776 60.864,342.946 60.588,343.287C60.312,343.627 60.174,344.08 60.174,344.645C60.174,345.03 60.239,345.357 60.369,345.626L62.564,343.066ZM60.708,346.112C60.963,346.351 61.275,346.47 61.644,346.47C62.093,346.47 62.452,346.306 62.721,345.977C62.99,345.647 63.124,345.206 63.124,344.652C63.124,344.224 63.05,343.852 62.902,343.538L60.708,346.112Z" style="fill-rule:nonzero;"/>
            <path d="M70.13,345.011L66.575,345.011C66.63,345.848 67.135,346.266 68.089,346.266C68.684,346.266 69.21,346.119 69.666,345.826L69.666,346.984C69.174,347.26 68.53,347.399 67.732,347.399C66.873,347.399 66.205,347.156 65.728,346.671C65.251,346.186 65.012,345.511 65.012,344.645C65.012,343.782 65.266,343.081 65.774,342.543C66.282,342.004 66.92,341.735 67.688,341.735C68.453,341.735 69.051,341.967 69.483,342.43C69.914,342.894 70.13,343.531 70.13,344.342L70.13,345.011ZM68.66,344.025C68.66,343.217 68.333,342.814 67.678,342.814C67.408,342.814 67.169,342.924 66.961,343.146C66.752,343.367 66.622,343.66 66.57,344.025L68.66,344.025Z" style="fill:rgb(10,1,1);fill-rule:nonzero;"/>
            <path d="M74.747,343.297C74.555,343.186 74.322,343.131 74.049,343.131C73.691,343.131 73.407,343.268 73.197,343.541C72.987,343.815 72.882,344.191 72.882,344.669L72.882,347.267L71.305,347.267L71.305,341.866L72.882,341.866L72.882,342.882L72.902,342.882C73.162,342.143 73.636,341.774 74.322,341.774C74.508,341.774 74.65,341.795 74.747,341.837L74.747,343.297Z" style="fill:rgb(10,1,1);fill-rule:nonzero;"/>
            <path d="M84.189,347.267L82.617,347.267L82.617,344.186C82.617,343.359 82.316,342.946 81.714,342.946C81.434,342.946 81.201,343.071 81.015,343.321C80.83,343.572 80.737,343.878 80.737,344.239L80.737,347.267L79.165,347.267L79.165,344.147C79.165,343.346 78.867,342.946 78.271,342.946C77.975,342.946 77.738,343.065 77.561,343.304C77.383,343.544 77.295,343.86 77.295,344.254L77.295,347.267L75.718,347.267L75.718,341.866L77.295,341.866L77.295,342.711L77.314,342.711C77.503,342.402 77.754,342.162 78.066,341.991C78.379,341.82 78.708,341.735 79.053,341.735C79.811,341.735 80.33,342.075 80.61,342.755C81.027,342.075 81.632,341.735 82.427,341.735C83.602,341.735 84.189,342.46 84.189,343.912L84.189,347.267Z" style="fill:rgb(10,1,1);fill-rule:nonzero;"/>
            <path d="M90.482,345.011L86.927,345.011C86.983,345.848 87.487,346.266 88.441,346.266C89.037,346.266 89.562,346.119 90.018,345.826L90.018,346.984C89.526,347.26 88.882,347.399 88.084,347.399C87.225,347.399 86.557,347.156 86.08,346.671C85.603,346.186 85.365,345.511 85.365,344.645C85.365,343.782 85.619,343.081 86.126,342.543C86.634,342.004 87.272,341.735 88.04,341.735C88.805,341.735 89.404,341.967 89.835,342.43C90.266,342.894 90.482,343.531 90.482,344.342L90.482,345.011ZM89.012,344.025C89.012,343.217 88.685,342.814 88.031,342.814C87.761,342.814 87.521,342.924 87.313,343.146C87.105,343.367 86.974,343.66 86.922,344.025L89.012,344.025Z" style="fill:rgb(10,1,1);fill-rule:nonzero;"/>
            <rect x="91.633" y="339.274" width="1.572" height="7.993" style="fill:rgb(10,1,1);fill-rule:nonzero;"/>
            <path d="M99.976,347.267L98.404,347.267L98.404,346.505L98.38,346.505C97.999,347.101 97.436,347.399 96.69,347.399C96.003,347.399 95.457,347.156 95.052,346.671C94.647,346.186 94.444,345.525 94.444,344.689C94.444,343.803 94.671,343.09 95.125,342.548C95.579,342.006 96.172,341.735 96.905,341.735C97.608,341.735 98.1,341.988 98.38,342.496L98.404,342.496L98.404,339.274L99.976,339.274L99.976,347.267ZM98.428,344.21C98.428,343.846 98.318,343.544 98.099,343.304C97.879,343.065 97.605,342.946 97.276,342.946C96.892,342.946 96.59,343.098 96.37,343.402C96.151,343.706 96.041,344.119 96.041,344.64C96.041,345.135 96.146,345.516 96.358,345.785C96.57,346.053 96.861,346.188 97.232,346.188C97.58,346.188 97.867,346.046 98.091,345.763C98.316,345.48 98.428,345.112 98.428,344.659L98.428,344.21Z" style="fill:rgb(10,1,1);fill-rule:nonzero;"/>
            <path d="M106.357,345.011L102.802,345.011C102.857,345.848 103.362,346.266 104.316,346.266C104.911,346.266 105.437,346.119 105.893,345.826L105.893,346.984C105.401,347.26 104.757,347.399 103.959,347.399C103.1,347.399 102.432,347.156 101.955,346.671C101.478,346.186 101.239,345.511 101.239,344.645C101.239,343.782 101.493,343.081 102.001,342.543C102.509,342.004 103.147,341.735 103.915,341.735C104.68,341.735 105.278,341.967 105.71,342.43C106.141,342.894 106.357,343.531 106.357,344.342L106.357,345.011ZM104.887,344.025C104.887,343.217 104.56,342.814 103.905,342.814C103.635,342.814 103.396,342.924 103.188,343.146C102.979,343.367 102.849,343.66 102.797,344.025L104.887,344.025Z" style="fill:rgb(10,1,1);fill-rule:nonzero;"/>
            <path d="M110.974,343.297C110.782,343.186 110.55,343.131 110.276,343.131C109.918,343.131 109.634,343.268 109.424,343.541C109.214,343.815 109.109,344.191 109.109,344.669L109.109,347.267L107.532,347.267L107.532,341.866L109.109,341.866L109.109,342.882L109.129,342.882C109.389,342.143 109.863,341.774 110.55,341.774C110.735,341.774 110.877,341.795 110.974,341.837L110.974,343.297Z" style="fill:rgb(10,1,1);fill-rule:nonzero;"/>
        </g>
        <g>
            <path d="M55.864,19.642C55.148,19.993 54.215,20.169 53.064,20.169C51.583,20.169 50.408,19.726 49.538,18.839C48.669,17.953 48.234,16.771 48.234,15.294C48.234,13.741 48.719,12.47 49.691,11.482C50.662,10.494 51.915,10 53.451,10C54.412,10 55.216,10.125 55.864,10.375L55.864,12.399C55.199,12.01 54.446,11.815 53.604,11.815C52.643,11.815 51.875,12.122 51.3,12.736C50.724,13.349 50.436,14.151 50.436,15.142C50.436,16.106 50.709,16.883 51.255,17.471C51.801,18.059 52.54,18.354 53.471,18.354C54.346,18.354 55.144,18.142 55.864,17.719L55.864,19.642Z" style="fill-rule:nonzero;"/>
            <path d="M65.69,10.165L62.275,19.998L59.907,19.998L56.536,10.165L58.796,10.165L60.923,17.116C61.028,17.458 61.094,17.782 61.119,18.087L61.158,18.087C61.191,17.774 61.263,17.442 61.373,17.09L63.5,10.165L65.69,10.165Z" style="fill-rule:nonzero;"/>
            <rect x="66.737" y="15.51" width="3.751" height="1.447" style="fill-rule:nonzero;"/>
            <path d="M81.572,19.998L81.572,14.031C81.572,13.481 81.599,12.789 81.654,11.955L81.603,11.955C81.476,12.586 81.375,13.007 81.299,13.218L78.874,19.998L77.204,19.998L74.748,13.282C74.689,13.121 74.585,12.679 74.437,11.955L74.38,11.955C74.435,12.78 74.462,13.608 74.462,14.437L74.462,19.998L72.571,19.998L72.571,10.165L75.617,10.165L77.738,16.106C77.915,16.597 78.036,17.059 78.099,17.49L78.144,17.49C78.275,16.953 78.41,16.487 78.55,16.094L80.676,10.165L83.641,10.165L83.641,19.998L81.572,19.998Z" style="fill-rule:nonzero;"/>
            <path d="M94.47,19.998L92.185,19.998L91.448,17.744L87.875,17.744L87.151,19.998L84.879,19.998L88.478,10.165L90.941,10.165L94.47,19.998ZM90.953,16.125L89.836,12.717C89.764,12.501 89.713,12.215 89.684,11.86L89.627,11.86C89.601,12.148 89.544,12.425 89.455,12.691L88.332,16.125L90.953,16.125Z" style="fill-rule:nonzero;"/>
            <path d="M97.809,16.57L97.809,19.998L95.714,19.998L95.714,10.165L99.097,10.165C101.543,10.165 102.766,11.202 102.766,13.275C102.766,14.283 102.397,15.09 101.659,15.697C100.92,16.304 99.997,16.595 98.888,16.57L97.809,16.57ZM97.809,11.79L97.809,14.964L98.716,14.964C99.948,14.964 100.564,14.429 100.564,13.358C100.564,12.313 99.954,11.79 98.736,11.79L97.809,11.79Z" style="fill-rule:nonzero;"/>
        </g>
        <path d="M16.694,25.117L17.667,27.997L18.642,25.097C18.693,24.944 18.731,24.838 18.756,24.779C18.782,24.719 18.824,24.665 18.882,24.618C18.941,24.57 19.021,24.546 19.123,24.546C19.197,24.546 19.266,24.564 19.329,24.601C19.393,24.639 19.442,24.688 19.479,24.749C19.515,24.811 19.533,24.873 19.533,24.935C19.533,24.978 19.527,25.025 19.515,25.075C19.503,25.124 19.489,25.173 19.471,25.221C19.454,25.269 19.436,25.318 19.418,25.369L18.378,28.176C18.341,28.283 18.304,28.385 18.267,28.482C18.23,28.579 18.187,28.663 18.138,28.737C18.089,28.81 18.024,28.87 17.943,28.917C17.862,28.964 17.763,28.987 17.646,28.987C17.529,28.987 17.43,28.964 17.349,28.918C17.268,28.872 17.202,28.812 17.152,28.737C17.103,28.662 17.059,28.576 17.022,28.48C16.985,28.385 16.948,28.283 16.911,28.176L15.888,25.392C15.871,25.342 15.853,25.292 15.834,25.243C15.815,25.194 15.8,25.141 15.787,25.085C15.774,25.028 15.768,24.98 15.768,24.941C15.768,24.842 15.808,24.751 15.888,24.669C15.968,24.587 16.069,24.546 16.19,24.546C16.338,24.546 16.443,24.591 16.505,24.682C16.566,24.773 16.629,24.918 16.694,25.117Z" style="fill:rgb(5,5,5);fill-opacity:0.8;fill-rule:nonzero;"/>
        <path d="M21.997,24.546C22.442,24.546 22.824,24.636 23.144,24.817C23.463,24.997 23.705,25.254 23.869,25.587C24.033,25.92 24.115,26.311 24.115,26.761C24.115,27.093 24.07,27.394 23.98,27.666C23.89,27.937 23.755,28.173 23.576,28.372C23.396,28.571 23.175,28.724 22.914,28.829C22.652,28.934 22.352,28.987 22.014,28.987C21.678,28.987 21.377,28.933 21.112,28.825C20.846,28.716 20.625,28.563 20.447,28.366C20.269,28.169 20.135,27.932 20.044,27.654C19.953,27.377 19.908,27.077 19.908,26.755C19.908,26.425 19.955,26.122 20.05,25.847C20.145,25.571 20.282,25.337 20.461,25.143C20.641,24.95 20.86,24.802 21.118,24.7C21.375,24.597 21.668,24.546 21.997,24.546ZM23.233,26.755C23.233,26.44 23.182,26.168 23.081,25.937C22.979,25.707 22.834,25.533 22.646,25.414C22.457,25.296 22.241,25.237 21.997,25.237C21.823,25.237 21.662,25.27 21.515,25.335C21.367,25.401 21.24,25.496 21.134,25.621C21.027,25.746 20.943,25.906 20.882,26.1C20.82,26.294 20.79,26.513 20.79,26.755C20.79,26.999 20.82,27.22 20.882,27.417C20.943,27.614 21.03,27.778 21.143,27.908C21.255,28.037 21.384,28.135 21.529,28.199C21.675,28.264 21.834,28.296 22.008,28.296C22.231,28.296 22.436,28.24 22.622,28.129C22.809,28.017 22.957,27.846 23.067,27.613C23.178,27.381 23.233,27.095 23.233,26.755Z" style="fill:rgb(5,5,5);fill-opacity:0.8;fill-rule:nonzero;"/>
        <path d="M25.711,25.073L25.711,28.199L27.475,28.199C27.616,28.199 27.724,28.233 27.799,28.302C27.874,28.37 27.912,28.456 27.912,28.559C27.912,28.665 27.875,28.75 27.8,28.816C27.726,28.881 27.618,28.914 27.475,28.914L25.375,28.914C25.185,28.914 25.049,28.872 24.966,28.788C24.883,28.704 24.841,28.568 24.841,28.381L24.841,25.073C24.841,24.897 24.881,24.766 24.96,24.678C25.039,24.59 25.143,24.546 25.272,24.546C25.403,24.546 25.509,24.589 25.59,24.676C25.671,24.763 25.711,24.895 25.711,25.073Z" style="fill:rgb(5,5,5);fill-opacity:0.8;fill-rule:nonzero;"/>
        <path d="M30.522,25.337L29.573,25.337L29.573,28.457C29.573,28.637 29.533,28.77 29.453,28.857C29.373,28.944 29.269,28.987 29.142,28.987C29.013,28.987 28.908,28.943 28.827,28.855C28.746,28.767 28.706,28.635 28.706,28.457L28.706,25.337L27.756,25.337C27.608,25.337 27.498,25.304 27.425,25.239C27.353,25.173 27.317,25.087 27.317,24.979C27.317,24.868 27.354,24.78 27.43,24.716C27.505,24.651 27.614,24.619 27.756,24.619L30.522,24.619C30.672,24.619 30.784,24.652 30.857,24.719C30.931,24.785 30.967,24.872 30.967,24.979C30.967,25.087 30.93,25.173 30.856,25.239C30.782,25.304 30.67,25.337 30.522,25.337Z" style="fill:rgb(5,5,5);fill-opacity:0.8;fill-rule:nonzero;"/>
        <path d="M33.853,28.428L33.648,27.889L31.902,27.889L31.697,28.439C31.617,28.654 31.548,28.799 31.492,28.874C31.435,28.95 31.342,28.987 31.213,28.987C31.104,28.987 31.007,28.947 30.923,28.867C30.839,28.787 30.797,28.696 30.797,28.595C30.797,28.536 30.807,28.475 30.827,28.413C30.846,28.35 30.878,28.264 30.923,28.152L32.022,25.363C32.053,25.283 32.091,25.187 32.135,25.075C32.179,24.962 32.226,24.869 32.275,24.795C32.325,24.721 32.391,24.661 32.472,24.615C32.553,24.569 32.653,24.546 32.772,24.546C32.893,24.546 32.994,24.569 33.075,24.615C33.156,24.661 33.222,24.72 33.271,24.792C33.321,24.864 33.363,24.942 33.397,25.025C33.432,25.108 33.475,25.219 33.528,25.357L34.65,28.129C34.738,28.34 34.782,28.493 34.782,28.589C34.782,28.688 34.74,28.78 34.657,28.863C34.574,28.946 34.474,28.987 34.357,28.987C34.289,28.987 34.23,28.975 34.181,28.951C34.132,28.926 34.091,28.893 34.058,28.851C34.025,28.809 33.989,28.745 33.951,28.658C33.913,28.571 33.88,28.494 33.853,28.428ZM32.13,27.235L33.414,27.235L32.766,25.463L32.13,27.235Z" style="fill:rgb(5,5,5);fill-opacity:0.8;fill-rule:nonzero;"/>
        <path d="M39.194,27.168L39.194,27.991C39.194,28.1 39.183,28.188 39.162,28.253C39.14,28.319 39.101,28.378 39.043,28.431C38.985,28.483 38.912,28.534 38.822,28.583C38.562,28.724 38.312,28.826 38.072,28.891C37.832,28.955 37.57,28.987 37.287,28.987C36.957,28.987 36.656,28.936 36.384,28.835C36.113,28.733 35.881,28.586 35.69,28.392C35.499,28.199 35.352,27.965 35.249,27.689C35.146,27.414 35.095,27.106 35.095,26.766C35.095,26.433 35.145,26.127 35.245,25.849C35.344,25.572 35.491,25.337 35.684,25.143C35.877,24.95 36.113,24.802 36.39,24.7C36.667,24.597 36.982,24.546 37.333,24.546C37.623,24.546 37.878,24.584 38.101,24.662C38.324,24.739 38.504,24.836 38.643,24.953C38.782,25.07 38.886,25.194 38.957,25.325C39.027,25.456 39.062,25.572 39.062,25.674C39.062,25.783 39.021,25.876 38.94,25.954C38.859,26.031 38.762,26.069 38.649,26.069C38.586,26.069 38.526,26.055 38.469,26.025C38.411,25.996 38.363,25.955 38.324,25.902C38.216,25.734 38.125,25.607 38.051,25.521C37.977,25.435 37.877,25.363 37.751,25.305C37.625,25.246 37.464,25.217 37.269,25.217C37.068,25.217 36.888,25.251 36.73,25.321C36.572,25.39 36.437,25.491 36.324,25.622C36.212,25.754 36.126,25.916 36.066,26.107C36.007,26.299 35.977,26.511 35.977,26.743C35.977,27.247 36.093,27.635 36.324,27.906C36.556,28.178 36.878,28.313 37.292,28.313C37.494,28.313 37.683,28.287 37.859,28.234C38.036,28.182 38.215,28.106 38.397,28.009L38.397,27.311L37.723,27.311C37.561,27.311 37.438,27.287 37.355,27.238C37.272,27.189 37.231,27.106 37.231,26.989C37.231,26.893 37.266,26.814 37.335,26.752C37.404,26.689 37.499,26.658 37.618,26.658L38.605,26.658C38.726,26.658 38.829,26.669 38.913,26.69C38.997,26.712 39.064,26.76 39.116,26.834C39.168,26.908 39.194,27.019 39.194,27.168Z" style="fill:rgb(5,5,5);fill-opacity:0.8;fill-rule:nonzero;"/>
        <path d="M42.853,25.29L40.893,25.29L40.893,26.345L42.698,26.345C42.831,26.345 42.93,26.374 42.995,26.434C43.061,26.494 43.093,26.572 43.093,26.67C43.093,26.767 43.061,26.847 42.997,26.909C42.932,26.97 42.833,27.001 42.698,27.001L40.893,27.001L40.893,28.223L42.92,28.223C43.057,28.223 43.16,28.254 43.229,28.318C43.299,28.381 43.333,28.466 43.333,28.571C43.333,28.673 43.299,28.755 43.229,28.819C43.16,28.882 43.057,28.914 42.92,28.914L40.556,28.914C40.367,28.914 40.23,28.872 40.147,28.788C40.064,28.704 40.023,28.568 40.023,28.381L40.023,25.152C40.023,25.027 40.042,24.925 40.079,24.846C40.116,24.767 40.174,24.709 40.253,24.673C40.332,24.637 40.433,24.619 40.556,24.619L42.853,24.619C42.992,24.619 43.095,24.65 43.162,24.711C43.229,24.773 43.263,24.853 43.263,24.953C43.263,25.055 43.229,25.136 43.162,25.198C43.095,25.259 42.992,25.29 42.853,25.29Z" style="fill:rgb(5,5,5);fill-opacity:0.8;fill-rule:nonzero;"/>
        <path d="M49.184,27.558C49.184,27.694 49.15,27.842 49.083,28.001C49.016,28.161 48.91,28.317 48.765,28.47C48.621,28.623 48.436,28.748 48.211,28.844C47.987,28.939 47.725,28.987 47.426,28.987C47.2,28.987 46.994,28.966 46.808,28.923C46.623,28.88 46.454,28.813 46.303,28.722C46.151,28.631 46.012,28.512 45.885,28.363C45.772,28.228 45.675,28.078 45.595,27.911C45.515,27.744 45.455,27.565 45.415,27.376C45.375,27.186 45.355,26.985 45.355,26.772C45.355,26.427 45.405,26.117 45.506,25.844C45.606,25.57 45.75,25.336 45.938,25.142C46.125,24.948 46.345,24.8 46.597,24.698C46.849,24.597 47.118,24.546 47.403,24.546C47.75,24.546 48.06,24.615 48.332,24.754C48.603,24.892 48.811,25.064 48.956,25.268C49.1,25.472 49.172,25.665 49.172,25.847C49.172,25.946 49.137,26.034 49.067,26.11C48.997,26.186 48.912,26.224 48.812,26.224C48.701,26.224 48.617,26.198 48.562,26.145C48.506,26.093 48.444,26.002 48.375,25.873C48.262,25.66 48.129,25.501 47.976,25.395C47.822,25.29 47.633,25.237 47.409,25.237C47.051,25.237 46.767,25.373 46.555,25.644C46.343,25.916 46.237,26.302 46.237,26.802C46.237,27.136 46.284,27.413 46.377,27.635C46.471,27.857 46.604,28.022 46.776,28.132C46.948,28.241 47.149,28.296 47.379,28.296C47.629,28.296 47.841,28.234 48.014,28.11C48.187,27.986 48.317,27.804 48.405,27.563C48.442,27.45 48.488,27.358 48.542,27.287C48.597,27.215 48.685,27.18 48.806,27.18C48.91,27.18 48.999,27.216 49.073,27.288C49.147,27.36 49.184,27.45 49.184,27.558Z" style="fill:rgb(5,5,5);fill-opacity:0.8;fill-rule:nonzero;"/>
        <path d="M51.856,24.546C52.301,24.546 52.684,24.636 53.003,24.817C53.322,24.997 53.564,25.254 53.728,25.587C53.892,25.92 53.974,26.311 53.974,26.761C53.974,27.093 53.929,27.394 53.839,27.666C53.75,27.937 53.615,28.173 53.435,28.372C53.255,28.571 53.035,28.724 52.773,28.829C52.511,28.934 52.211,28.987 51.874,28.987C51.538,28.987 51.237,28.933 50.971,28.825C50.706,28.716 50.484,28.563 50.306,28.366C50.128,28.169 49.994,27.932 49.903,27.654C49.812,27.377 49.767,27.077 49.767,26.755C49.767,26.425 49.814,26.122 49.909,25.847C50.004,25.571 50.141,25.337 50.321,25.143C50.5,24.95 50.719,24.802 50.977,24.7C51.235,24.597 51.528,24.546 51.856,24.546ZM53.092,26.755C53.092,26.44 53.042,26.168 52.94,25.937C52.838,25.707 52.693,25.533 52.505,25.414C52.316,25.296 52.1,25.237 51.856,25.237C51.682,25.237 51.521,25.27 51.374,25.335C51.227,25.401 51.1,25.496 50.993,25.621C50.887,25.746 50.803,25.906 50.741,26.1C50.68,26.294 50.649,26.513 50.649,26.755C50.649,26.999 50.68,27.22 50.741,27.417C50.803,27.614 50.89,27.778 51.002,27.908C51.114,28.037 51.243,28.135 51.389,28.199C51.534,28.264 51.694,28.296 51.868,28.296C52.09,28.296 52.295,28.24 52.481,28.129C52.668,28.017 52.816,27.846 52.927,27.613C53.037,27.381 53.092,27.095 53.092,26.755Z" style="fill:rgb(5,5,5);fill-opacity:0.8;fill-rule:nonzero;"/>
        <path d="M55.852,25.067L57.525,27.599L57.525,25.044C57.525,24.878 57.561,24.753 57.632,24.67C57.703,24.587 57.799,24.546 57.92,24.546C58.045,24.546 58.144,24.587 58.216,24.67C58.289,24.753 58.325,24.878 58.325,25.044L58.325,28.422C58.325,28.799 58.168,28.987 57.856,28.987C57.778,28.987 57.708,28.976 57.645,28.954C57.583,28.931 57.524,28.895 57.469,28.847C57.415,28.798 57.364,28.741 57.317,28.675C57.27,28.61 57.223,28.543 57.176,28.474L55.544,25.973L55.544,28.489C55.544,28.653 55.506,28.777 55.43,28.861C55.354,28.945 55.256,28.987 55.137,28.987C55.014,28.987 54.916,28.945 54.841,28.86C54.767,28.775 54.73,28.651 54.73,28.489L54.73,25.176C54.73,25.035 54.746,24.925 54.777,24.845C54.814,24.757 54.875,24.685 54.961,24.629C55.047,24.574 55.14,24.546 55.24,24.546C55.318,24.546 55.385,24.558 55.44,24.584C55.496,24.609 55.545,24.643 55.587,24.686C55.629,24.729 55.672,24.785 55.716,24.853C55.76,24.922 55.805,24.993 55.852,25.067Z" style="fill:rgb(5,5,5);fill-opacity:0.8;fill-rule:nonzero;"/>
        <path d="M62.066,25.337L61.117,25.337L61.117,28.457C61.117,28.637 61.077,28.77 60.997,28.857C60.917,28.944 60.813,28.987 60.686,28.987C60.557,28.987 60.452,28.943 60.371,28.855C60.29,28.767 60.25,28.635 60.25,28.457L60.25,25.337L59.3,25.337C59.152,25.337 59.042,25.304 58.969,25.239C58.897,25.173 58.861,25.087 58.861,24.979C58.861,24.868 58.898,24.78 58.974,24.716C59.049,24.651 59.158,24.619 59.3,24.619L62.066,24.619C62.216,24.619 62.328,24.652 62.401,24.719C62.475,24.785 62.511,24.872 62.511,24.979C62.511,25.087 62.474,25.173 62.4,25.239C62.326,25.304 62.214,25.337 62.066,25.337Z" style="fill:rgb(5,5,5);fill-opacity:0.8;fill-rule:nonzero;"/>
        <path d="M64.196,27.077L63.891,27.077L63.891,28.457C63.891,28.639 63.851,28.772 63.771,28.858C63.691,28.944 63.586,28.987 63.458,28.987C63.319,28.987 63.211,28.942 63.135,28.852C63.059,28.763 63.021,28.631 63.021,28.457L63.021,25.152C63.021,24.965 63.063,24.829 63.147,24.745C63.231,24.661 63.367,24.619 63.554,24.619L64.969,24.619C65.165,24.619 65.332,24.627 65.47,24.644C65.609,24.661 65.734,24.694 65.845,24.745C65.98,24.802 66.099,24.883 66.203,24.988C66.306,25.094 66.385,25.216 66.438,25.356C66.492,25.495 66.519,25.643 66.519,25.8C66.519,26.12 66.429,26.376 66.248,26.567C66.067,26.759 65.793,26.894 65.426,26.974C65.581,27.057 65.728,27.178 65.869,27.338C66.009,27.498 66.135,27.668 66.245,27.849C66.355,28.03 66.441,28.193 66.503,28.338C66.564,28.484 66.595,28.584 66.595,28.639C66.595,28.695 66.577,28.751 66.541,28.807C66.505,28.863 66.456,28.907 66.393,28.939C66.331,28.971 66.258,28.987 66.176,28.987C66.079,28.987 65.997,28.964 65.93,28.918C65.864,28.872 65.807,28.814 65.759,28.744C65.711,28.674 65.646,28.57 65.564,28.433L65.215,27.853C65.09,27.641 64.979,27.478 64.88,27.367C64.781,27.256 64.681,27.18 64.58,27.139C64.478,27.098 64.35,27.077 64.196,27.077ZM64.694,25.272L63.891,25.272L63.891,26.453L64.67,26.453C64.879,26.453 65.055,26.435 65.198,26.399C65.34,26.363 65.449,26.301 65.524,26.214C65.6,26.127 65.637,26.008 65.637,25.855C65.637,25.736 65.607,25.631 65.546,25.54C65.486,25.45 65.402,25.382 65.294,25.337C65.193,25.294 64.993,25.272 64.694,25.272Z" style="fill:rgb(5,5,5);fill-opacity:0.8;fill-rule:nonzero;"/>
        <path d="M69.232,24.546C69.677,24.546 70.06,24.636 70.379,24.817C70.698,24.997 70.94,25.254 71.104,25.587C71.268,25.92 71.35,26.311 71.35,26.761C71.35,27.093 71.305,27.394 71.215,27.666C71.125,27.937 70.991,28.173 70.811,28.372C70.631,28.571 70.411,28.724 70.149,28.829C69.887,28.934 69.587,28.987 69.25,28.987C68.914,28.987 68.613,28.933 68.347,28.825C68.082,28.716 67.86,28.563 67.682,28.366C67.504,28.169 67.37,27.932 67.279,27.654C67.188,27.377 67.143,27.077 67.143,26.755C67.143,26.425 67.19,26.122 67.285,25.847C67.38,25.571 67.517,25.337 67.697,25.143C67.876,24.95 68.095,24.802 68.353,24.7C68.611,24.597 68.904,24.546 69.232,24.546ZM70.468,26.755C70.468,26.44 70.417,26.168 70.316,25.937C70.214,25.707 70.069,25.533 69.881,25.414C69.692,25.296 69.476,25.237 69.232,25.237C69.058,25.237 68.897,25.27 68.75,25.335C68.603,25.401 68.476,25.496 68.369,25.621C68.263,25.746 68.179,25.906 68.117,26.1C68.056,26.294 68.025,26.513 68.025,26.755C68.025,26.999 68.056,27.22 68.117,27.417C68.179,27.614 68.266,27.778 68.378,27.908C68.49,28.037 68.619,28.135 68.765,28.199C68.91,28.264 69.07,28.296 69.244,28.296C69.466,28.296 69.671,28.24 69.857,28.129C70.044,28.017 70.192,27.846 70.303,27.613C70.413,27.381 70.468,27.095 70.468,26.755Z" style="fill:rgb(5,5,5);fill-opacity:0.8;fill-rule:nonzero;"/>
        <path d="M72.947,25.073L72.947,28.199L74.71,28.199C74.851,28.199 74.959,28.233 75.034,28.302C75.109,28.37 75.147,28.456 75.147,28.559C75.147,28.665 75.11,28.75 75.036,28.816C74.961,28.881 74.853,28.914 74.71,28.914L72.61,28.914C72.42,28.914 72.284,28.872 72.201,28.788C72.118,28.704 72.077,28.568 72.077,28.381L72.077,25.073C72.077,24.897 72.116,24.766 72.195,24.678C72.274,24.59 72.378,24.546 72.507,24.546C72.638,24.546 72.744,24.589 72.825,24.676C72.906,24.763 72.947,24.895 72.947,25.073Z" style="fill:rgb(5,5,5);fill-opacity:0.8;fill-rule:nonzero;"/>
        <path d="M76.571,25.073L76.571,28.199L78.334,28.199C78.475,28.199 78.583,28.233 78.658,28.302C78.733,28.37 78.771,28.456 78.771,28.559C78.771,28.665 78.734,28.75 78.66,28.816C78.585,28.881 78.477,28.914 78.334,28.914L76.234,28.914C76.044,28.914 75.908,28.872 75.825,28.788C75.742,28.704 75.701,28.568 75.701,28.381L75.701,25.073C75.701,24.897 75.74,24.766 75.819,24.678C75.898,24.59 76.002,24.546 76.131,24.546C76.262,24.546 76.368,24.589 76.449,24.676C76.53,24.763 76.571,24.895 76.571,25.073Z" style="fill:rgb(5,5,5);fill-opacity:0.8;fill-rule:nonzero;"/>
        <path d="M82.172,25.29L80.212,25.29L80.212,26.345L82.017,26.345C82.15,26.345 82.249,26.374 82.314,26.434C82.38,26.494 82.413,26.572 82.413,26.67C82.413,26.767 82.38,26.847 82.316,26.909C82.251,26.97 82.152,27.001 82.017,27.001L80.212,27.001L80.212,28.223L82.24,28.223C82.376,28.223 82.479,28.254 82.549,28.318C82.618,28.381 82.653,28.466 82.653,28.571C82.653,28.673 82.618,28.755 82.549,28.819C82.479,28.882 82.376,28.914 82.24,28.914L79.875,28.914C79.686,28.914 79.55,28.872 79.467,28.788C79.384,28.704 79.342,28.568 79.342,28.381L79.342,25.152C79.342,25.027 79.361,24.925 79.398,24.846C79.435,24.767 79.493,24.709 79.572,24.673C79.651,24.637 79.752,24.619 79.875,24.619L82.172,24.619C82.311,24.619 82.414,24.65 82.481,24.711C82.549,24.773 82.583,24.853 82.583,24.953C82.583,25.055 82.549,25.136 82.481,25.198C82.414,25.259 82.311,25.29 82.172,25.29Z" style="fill:rgb(5,5,5);fill-opacity:0.8;fill-rule:nonzero;"/>
        <path d="M83.883,24.619L85.017,24.619C85.312,24.619 85.565,24.646 85.776,24.701C85.987,24.756 86.178,24.858 86.35,25.009C86.797,25.391 87.021,25.974 87.021,26.755C87.021,27.013 86.999,27.248 86.954,27.461C86.909,27.674 86.839,27.866 86.746,28.037C86.652,28.207 86.532,28.36 86.385,28.495C86.27,28.599 86.144,28.682 86.007,28.744C85.871,28.807 85.724,28.85 85.566,28.876C85.409,28.901 85.232,28.914 85.035,28.914L83.901,28.914C83.743,28.914 83.624,28.89 83.543,28.842C83.463,28.794 83.411,28.727 83.387,28.64C83.362,28.553 83.35,28.44 83.35,28.302L83.35,25.152C83.35,24.965 83.392,24.829 83.476,24.745C83.56,24.661 83.696,24.619 83.883,24.619ZM84.22,25.308L84.22,28.223L84.879,28.223C85.024,28.223 85.137,28.219 85.219,28.211C85.301,28.203 85.386,28.183 85.474,28.152C85.562,28.121 85.638,28.077 85.703,28.02C85.994,27.774 86.139,27.35 86.139,26.749C86.139,26.325 86.075,26.008 85.947,25.797C85.819,25.586 85.662,25.452 85.474,25.394C85.287,25.336 85.06,25.308 84.794,25.308L84.22,25.308Z" style="fill:rgb(5,5,5);fill-opacity:0.8;fill-rule:nonzero;"/>
        <path d="M90.953,27.241L90.156,27.241L90.156,28.457C90.156,28.631 90.115,28.763 90.033,28.852C89.951,28.942 89.847,28.987 89.722,28.987C89.591,28.987 89.486,28.943 89.406,28.854C89.326,28.765 89.286,28.635 89.286,28.463L89.286,25.152C89.286,24.961 89.33,24.824 89.417,24.742C89.505,24.66 89.645,24.619 89.836,24.619L90.953,24.619C91.283,24.619 91.537,24.644 91.714,24.695C91.89,24.744 92.042,24.825 92.17,24.938C92.298,25.052 92.395,25.19 92.461,25.354C92.528,25.518 92.561,25.703 92.561,25.908C92.561,26.346 92.426,26.677 92.157,26.903C91.887,27.128 91.486,27.241 90.953,27.241ZM90.742,25.272L90.156,25.272L90.156,26.585L90.742,26.585C90.947,26.585 91.118,26.563 91.256,26.52C91.394,26.477 91.499,26.407 91.571,26.309C91.643,26.212 91.679,26.084 91.679,25.926C91.679,25.736 91.624,25.582 91.512,25.463C91.387,25.336 91.13,25.272 90.742,25.272Z" style="fill:rgb(5,5,5);fill-opacity:0.8;fill-rule:nonzero;"/>
        <path d="M95.508,28.428L95.303,27.889L93.557,27.889L93.352,28.439C93.272,28.654 93.204,28.799 93.147,28.874C93.09,28.95 92.998,28.987 92.869,28.987C92.759,28.987 92.663,28.947 92.579,28.867C92.495,28.787 92.453,28.696 92.453,28.595C92.453,28.536 92.462,28.475 92.482,28.413C92.501,28.35 92.534,28.264 92.579,28.152L93.677,25.363C93.708,25.283 93.746,25.187 93.79,25.075C93.834,24.962 93.881,24.869 93.931,24.795C93.98,24.721 94.046,24.661 94.127,24.615C94.208,24.569 94.308,24.546 94.427,24.546C94.548,24.546 94.649,24.569 94.73,24.615C94.812,24.661 94.877,24.72 94.927,24.792C94.977,24.864 95.019,24.942 95.053,25.025C95.087,25.108 95.13,25.219 95.183,25.357L96.305,28.129C96.393,28.34 96.437,28.493 96.437,28.589C96.437,28.688 96.396,28.78 96.312,28.863C96.229,28.946 96.129,28.987 96.012,28.987C95.944,28.987 95.885,28.975 95.836,28.951C95.788,28.926 95.747,28.893 95.713,28.851C95.68,28.809 95.645,28.745 95.606,28.658C95.568,28.571 95.536,28.494 95.508,28.428ZM93.786,27.235L95.069,27.235L94.421,25.463L93.786,27.235Z" style="fill:rgb(5,5,5);fill-opacity:0.8;fill-rule:nonzero;"/>
        <path d="M98.245,27.077L97.94,27.077L97.94,28.457C97.94,28.639 97.9,28.772 97.82,28.858C97.74,28.944 97.635,28.987 97.506,28.987C97.368,28.987 97.26,28.942 97.184,28.852C97.108,28.763 97.07,28.631 97.07,28.457L97.07,25.152C97.07,24.965 97.112,24.829 97.196,24.745C97.28,24.661 97.416,24.619 97.603,24.619L99.018,24.619C99.213,24.619 99.38,24.627 99.519,24.644C99.658,24.661 99.783,24.694 99.894,24.745C100.029,24.802 100.148,24.883 100.251,24.988C100.355,25.094 100.434,25.216 100.487,25.356C100.541,25.495 100.568,25.643 100.568,25.8C100.568,26.12 100.478,26.376 100.297,26.567C100.116,26.759 99.842,26.894 99.475,26.974C99.629,27.057 99.777,27.178 99.917,27.338C100.058,27.498 100.184,27.668 100.294,27.849C100.404,28.03 100.49,28.193 100.552,28.338C100.613,28.484 100.644,28.584 100.644,28.639C100.644,28.695 100.626,28.751 100.59,28.807C100.554,28.863 100.504,28.907 100.442,28.939C100.379,28.971 100.307,28.987 100.225,28.987C100.127,28.987 100.045,28.964 99.979,28.918C99.913,28.872 99.855,28.814 99.808,28.744C99.76,28.674 99.695,28.57 99.613,28.433L99.264,27.853C99.139,27.641 99.027,27.478 98.929,27.367C98.83,27.256 98.73,27.18 98.628,27.139C98.527,27.098 98.399,27.077 98.245,27.077ZM98.743,25.272L97.94,25.272L97.94,26.453L98.719,26.453C98.928,26.453 99.104,26.435 99.247,26.399C99.389,26.363 99.498,26.301 99.573,26.214C99.648,26.127 99.686,26.008 99.686,25.855C99.686,25.736 99.656,25.631 99.595,25.54C99.535,25.45 99.451,25.382 99.343,25.337C99.242,25.294 99.042,25.272 98.743,25.272Z" style="fill:rgb(5,5,5);fill-opacity:0.8;fill-rule:nonzero;"/>
        <path d="M104.139,28.428L103.934,27.889L102.188,27.889L101.983,28.439C101.903,28.654 101.834,28.799 101.778,28.874C101.721,28.95 101.628,28.987 101.5,28.987C101.39,28.987 101.293,28.947 101.209,28.867C101.125,28.787 101.083,28.696 101.083,28.595C101.083,28.536 101.093,28.475 101.113,28.413C101.132,28.35 101.165,28.264 101.209,28.152L102.308,25.363C102.339,25.283 102.377,25.187 102.421,25.075C102.465,24.962 102.512,24.869 102.562,24.795C102.611,24.721 102.677,24.661 102.758,24.615C102.839,24.569 102.939,24.546 103.058,24.546C103.179,24.546 103.28,24.569 103.361,24.615C103.442,24.661 103.508,24.72 103.558,24.792C103.607,24.864 103.649,24.942 103.684,25.025C103.718,25.108 103.761,25.219 103.814,25.357L104.936,28.129C105.024,28.34 105.068,28.493 105.068,28.589C105.068,28.688 105.026,28.78 104.943,28.863C104.86,28.946 104.76,28.987 104.643,28.987C104.575,28.987 104.516,28.975 104.467,28.951C104.418,28.926 104.377,28.893 104.344,28.851C104.311,28.809 104.275,28.745 104.237,28.658C104.199,28.571 104.167,28.494 104.139,28.428ZM102.417,27.235L103.7,27.235L103.052,25.463L102.417,27.235Z" style="fill:rgb(5,5,5);fill-opacity:0.8;fill-rule:nonzero;"/>
        <path d="M106.703,27.707L105.777,27.707C105.636,27.707 105.529,27.674 105.456,27.609C105.383,27.543 105.346,27.459 105.346,27.355C105.346,27.25 105.382,27.164 105.453,27.099C105.524,27.034 105.632,27.001 105.777,27.001L106.703,27.001C106.847,27.001 106.955,27.034 107.026,27.099C107.098,27.164 107.133,27.25 107.133,27.355C107.133,27.459 107.098,27.543 107.028,27.609C106.958,27.674 106.849,27.707 106.703,27.707Z" style="fill:rgb(5,5,5);fill-opacity:0.8;fill-rule:nonzero;"/>
        <path d="M109.594,24.546C110.04,24.546 110.422,24.636 110.741,24.817C111.061,24.997 111.302,25.254 111.466,25.587C111.63,25.92 111.712,26.311 111.712,26.761C111.712,27.093 111.667,27.394 111.578,27.666C111.488,27.937 111.353,28.173 111.173,28.372C110.994,28.571 110.773,28.724 110.511,28.829C110.25,28.934 109.95,28.987 109.612,28.987C109.276,28.987 108.975,28.933 108.709,28.825C108.444,28.716 108.222,28.563 108.044,28.366C107.867,28.169 107.732,27.932 107.642,27.654C107.551,27.377 107.505,27.077 107.505,26.755C107.505,26.425 107.553,26.122 107.647,25.847C107.742,25.571 107.879,25.337 108.059,25.143C108.239,24.95 108.458,24.802 108.715,24.7C108.973,24.597 109.266,24.546 109.594,24.546ZM110.831,26.755C110.831,26.44 110.78,26.168 110.678,25.937C110.577,25.707 110.432,25.533 110.243,25.414C110.055,25.296 109.838,25.237 109.594,25.237C109.42,25.237 109.26,25.27 109.112,25.335C108.965,25.401 108.838,25.496 108.731,25.621C108.625,25.746 108.541,25.906 108.479,26.1C108.418,26.294 108.387,26.513 108.387,26.755C108.387,26.999 108.418,27.22 108.479,27.417C108.541,27.614 108.628,27.778 108.74,27.908C108.853,28.037 108.981,28.135 109.127,28.199C109.272,28.264 109.432,28.296 109.606,28.296C109.829,28.296 110.033,28.24 110.22,28.129C110.406,28.017 110.555,27.846 110.665,27.613C110.775,27.381 110.831,27.095 110.831,26.755Z" style="fill:rgb(5,5,5);fill-opacity:0.8;fill-rule:nonzero;"/>
        <path d="M113.453,27.707L112.527,27.707C112.386,27.707 112.279,27.674 112.206,27.609C112.133,27.543 112.096,27.459 112.096,27.355C112.096,27.25 112.132,27.164 112.203,27.099C112.274,27.034 112.382,27.001 112.527,27.001L113.453,27.001C113.597,27.001 113.705,27.034 113.776,27.099C113.848,27.164 113.883,27.25 113.883,27.355C113.883,27.459 113.848,27.543 113.778,27.609C113.708,27.674 113.599,27.707 113.453,27.707Z" style="fill:rgb(5,5,5);fill-opacity:0.8;fill-rule:nonzero;"/>
        <path d="M115.905,28.266L115.216,25.53L115.216,28.495C115.216,28.659 115.18,28.782 115.106,28.864C115.033,28.946 114.936,28.987 114.815,28.987C114.698,28.987 114.602,28.947 114.528,28.866C114.454,28.785 114.417,28.661 114.417,28.495L114.417,25.097C114.417,24.909 114.465,24.783 114.563,24.717C114.661,24.652 114.792,24.619 114.958,24.619L115.228,24.619C115.39,24.619 115.508,24.634 115.581,24.663C115.654,24.692 115.708,24.745 115.744,24.821C115.779,24.897 115.819,25.021 115.864,25.193L116.488,27.546L117.112,25.193C117.157,25.021 117.197,24.897 117.232,24.821C117.267,24.745 117.321,24.692 117.395,24.663C117.468,24.634 117.585,24.619 117.748,24.619L118.017,24.619C118.183,24.619 118.315,24.652 118.413,24.717C118.51,24.783 118.559,24.909 118.559,25.097L118.559,28.495C118.559,28.659 118.522,28.782 118.449,28.864C118.376,28.946 118.278,28.987 118.155,28.987C118.04,28.987 117.945,28.946 117.871,28.864C117.796,28.782 117.759,28.659 117.759,28.495L117.759,25.53L117.071,28.266C117.026,28.444 116.989,28.575 116.961,28.658C116.933,28.741 116.88,28.816 116.804,28.885C116.728,28.953 116.623,28.987 116.488,28.987C116.386,28.987 116.3,28.965 116.23,28.921C116.16,28.877 116.105,28.821 116.066,28.753C116.027,28.684 115.996,28.609 115.974,28.526C115.951,28.443 115.928,28.356 115.905,28.266Z" style="fill:rgb(5,5,5);fill-opacity:0.8;fill-rule:nonzero;"/>
        <path d="M122.201,28.428L121.996,27.889L120.25,27.889L120.044,28.439C119.964,28.654 119.896,28.799 119.839,28.874C119.783,28.95 119.69,28.987 119.561,28.987C119.452,28.987 119.355,28.947 119.271,28.867C119.187,28.787 119.145,28.696 119.145,28.595C119.145,28.536 119.155,28.475 119.174,28.413C119.194,28.35 119.226,28.264 119.271,28.152L120.37,25.363C120.401,25.283 120.438,25.187 120.482,25.075C120.526,24.962 120.573,24.869 120.623,24.795C120.673,24.721 120.738,24.661 120.819,24.615C120.9,24.569 121,24.546 121.12,24.546C121.241,24.546 121.342,24.569 121.423,24.615C121.504,24.661 121.569,24.72 121.619,24.792C121.669,24.864 121.711,24.942 121.745,25.025C121.779,25.108 121.823,25.219 121.875,25.357L122.998,28.129C123.085,28.34 123.129,28.493 123.129,28.589C123.129,28.688 123.088,28.78 123.005,28.863C122.922,28.946 122.822,28.987 122.705,28.987C122.636,28.987 122.578,28.975 122.529,28.951C122.48,28.926 122.439,28.893 122.406,28.851C122.373,28.809 122.337,28.745 122.299,28.658C122.261,28.571 122.228,28.494 122.201,28.428ZM120.478,27.235L121.761,27.235L121.114,25.463L120.478,27.235Z" style="fill:rgb(5,5,5);fill-opacity:0.8;fill-rule:nonzero;"/>
        <path d="M126.03,25.337L125.081,25.337L125.081,28.457C125.081,28.637 125.041,28.77 124.96,28.857C124.88,28.944 124.777,28.987 124.65,28.987C124.521,28.987 124.416,28.943 124.335,28.855C124.254,28.767 124.213,28.635 124.213,28.457L124.213,25.337L123.264,25.337C123.116,25.337 123.005,25.304 122.933,25.239C122.861,25.173 122.825,25.087 122.825,24.979C122.825,24.868 122.862,24.78 122.937,24.716C123.013,24.651 123.122,24.619 123.264,24.619L126.03,24.619C126.18,24.619 126.292,24.652 126.365,24.719C126.438,24.785 126.475,24.872 126.475,24.979C126.475,25.087 126.438,25.173 126.364,25.239C126.29,25.304 126.178,25.337 126.03,25.337Z" style="fill:rgb(5,5,5);fill-opacity:0.8;fill-rule:nonzero;"/>
        <path d="M128.801,24.546C129.247,24.546 129.629,24.636 129.948,24.817C130.268,24.997 130.509,25.254 130.673,25.587C130.837,25.92 130.919,26.311 130.919,26.761C130.919,27.093 130.875,27.394 130.785,27.666C130.695,27.937 130.56,28.173 130.38,28.372C130.201,28.571 129.98,28.724 129.718,28.829C129.457,28.934 129.157,28.987 128.819,28.987C128.483,28.987 128.182,28.933 127.917,28.825C127.651,28.716 127.429,28.563 127.251,28.366C127.074,28.169 126.939,27.932 126.849,27.654C126.758,27.377 126.712,27.077 126.712,26.755C126.712,26.425 126.76,26.122 126.854,25.847C126.949,25.571 127.086,25.337 127.266,25.143C127.446,24.95 127.665,24.802 127.922,24.7C128.18,24.597 128.473,24.546 128.801,24.546ZM130.038,26.755C130.038,26.44 129.987,26.168 129.885,25.937C129.784,25.707 129.639,25.533 129.45,25.414C129.262,25.296 129.045,25.237 128.801,25.237C128.627,25.237 128.467,25.27 128.319,25.335C128.172,25.401 128.045,25.496 127.938,25.621C127.832,25.746 127.748,25.906 127.687,26.1C127.625,26.294 127.594,26.513 127.594,26.755C127.594,26.999 127.625,27.22 127.687,27.417C127.748,27.614 127.835,27.778 127.947,27.908C128.06,28.037 128.188,28.135 128.334,28.199C128.479,28.264 128.639,28.296 128.813,28.296C129.036,28.296 129.24,28.24 129.427,28.129C129.613,28.017 129.762,27.846 129.872,27.613C129.982,27.381 130.038,27.095 130.038,26.755Z" style="fill:rgb(5,5,5);fill-opacity:0.8;fill-rule:nonzero;"/>
        <path d="M132.833,27.077L132.528,27.077L132.528,28.457C132.528,28.639 132.488,28.772 132.408,28.858C132.328,28.944 132.223,28.987 132.094,28.987C131.956,28.987 131.848,28.942 131.772,28.852C131.696,28.763 131.658,28.631 131.658,28.457L131.658,25.152C131.658,24.965 131.7,24.829 131.784,24.745C131.868,24.661 132.003,24.619 132.191,24.619L133.606,24.619C133.801,24.619 133.968,24.627 134.107,24.644C134.246,24.661 134.371,24.694 134.482,24.745C134.617,24.802 134.736,24.883 134.839,24.988C134.943,25.094 135.021,25.216 135.075,25.356C135.129,25.495 135.156,25.643 135.156,25.8C135.156,26.12 135.065,26.376 134.885,26.567C134.704,26.759 134.43,26.894 134.063,26.974C134.217,27.057 134.365,27.178 134.505,27.338C134.646,27.498 134.771,27.668 134.882,27.849C134.992,28.03 135.078,28.193 135.14,28.338C135.201,28.484 135.232,28.584 135.232,28.639C135.232,28.695 135.214,28.751 135.178,28.807C135.142,28.863 135.092,28.907 135.03,28.939C134.967,28.971 134.895,28.987 134.813,28.987C134.715,28.987 134.633,28.964 134.567,28.918C134.5,28.872 134.443,28.814 134.396,28.744C134.348,28.674 134.283,28.57 134.201,28.433L133.852,27.853C133.727,27.641 133.615,27.478 133.517,27.367C133.418,27.256 133.318,27.18 133.216,27.139C133.115,27.098 132.987,27.077 132.833,27.077ZM133.331,25.272L132.528,25.272L132.528,26.453L133.307,26.453C133.516,26.453 133.692,26.435 133.834,26.399C133.977,26.363 134.086,26.301 134.161,26.214C134.236,26.127 134.274,26.008 134.274,25.855C134.274,25.736 134.244,25.631 134.183,25.54C134.123,25.45 134.039,25.382 133.931,25.337C133.83,25.294 133.629,25.272 133.331,25.272Z" style="fill:rgb(5,5,5);fill-opacity:0.8;fill-rule:nonzero;"/>
        <path d="M25.147,43.158L24.35,43.158L24.35,44.374C24.35,44.548 24.309,44.68 24.227,44.77C24.145,44.86 24.041,44.904 23.916,44.904C23.785,44.904 23.68,44.86 23.6,44.771C23.52,44.682 23.48,44.552 23.48,44.38L23.48,41.07C23.48,40.878 23.524,40.741 23.612,40.659C23.7,40.577 23.839,40.536 24.031,40.536L25.147,40.536C25.477,40.536 25.731,40.562 25.908,40.612C26.084,40.661 26.236,40.742 26.364,40.856C26.492,40.969 26.589,41.108 26.656,41.272C26.722,41.436 26.755,41.62 26.755,41.825C26.755,42.263 26.62,42.594 26.351,42.82C26.081,43.046 25.68,43.158 25.147,43.158ZM24.936,41.19L24.35,41.19L24.35,42.502L24.936,42.502C25.141,42.502 25.312,42.481 25.45,42.438C25.588,42.395 25.693,42.324 25.765,42.227C25.837,42.129 25.873,42.001 25.873,41.843C25.873,41.653 25.818,41.499 25.706,41.38C25.581,41.253 25.325,41.19 24.936,41.19Z" style="fill-rule:nonzero;"/>
        <path d="M29.491,40.463C29.937,40.463 30.319,40.553 30.638,40.734C30.958,40.915 31.199,41.172 31.363,41.505C31.528,41.838 31.61,42.229 31.61,42.678C31.61,43.01 31.565,43.312 31.475,43.583C31.385,43.855 31.25,44.09 31.07,44.289C30.891,44.488 30.67,44.641 30.408,44.746C30.147,44.852 29.847,44.904 29.509,44.904C29.173,44.904 28.872,44.85 28.607,44.742C28.341,44.633 28.119,44.481 27.942,44.283C27.764,44.086 27.63,43.849 27.539,43.571C27.448,43.294 27.403,42.994 27.403,42.672C27.403,42.342 27.45,42.039 27.545,41.764C27.639,41.488 27.777,41.254 27.956,41.061C28.136,40.867 28.355,40.719 28.612,40.617C28.87,40.514 29.163,40.463 29.491,40.463ZM30.728,42.672C30.728,42.358 30.677,42.085 30.575,41.855C30.474,41.624 30.329,41.45 30.14,41.332C29.952,41.214 29.736,41.154 29.491,41.154C29.318,41.154 29.157,41.187 29.009,41.253C28.862,41.318 28.735,41.413 28.629,41.538C28.522,41.663 28.438,41.823 28.377,42.017C28.315,42.212 28.284,42.43 28.284,42.672C28.284,42.916 28.315,43.137 28.377,43.334C28.438,43.531 28.525,43.695 28.637,43.825C28.75,43.955 28.879,44.052 29.024,44.116C29.17,44.181 29.329,44.213 29.503,44.213C29.726,44.213 29.93,44.157 30.117,44.046C30.303,43.935 30.452,43.763 30.562,43.53C30.673,43.298 30.728,43.012 30.728,42.672Z" style="fill-rule:nonzero;"/>
        <path d="M33.326,40.99L33.326,44.116L35.09,44.116C35.231,44.116 35.338,44.151 35.414,44.219C35.489,44.287 35.526,44.373 35.526,44.477C35.526,44.582 35.489,44.668 35.415,44.733C35.341,44.799 35.232,44.831 35.09,44.831L32.989,44.831C32.8,44.831 32.664,44.789 32.581,44.705C32.498,44.621 32.456,44.486 32.456,44.298L32.456,40.99C32.456,40.815 32.496,40.683 32.575,40.595C32.654,40.507 32.758,40.463 32.887,40.463C33.018,40.463 33.124,40.507 33.205,40.593C33.286,40.68 33.326,40.813 33.326,40.99Z" style="fill-rule:nonzero;"/>
        <path d="M36.42,44.374L36.42,43.012L35.371,41.386C35.279,41.239 35.214,41.125 35.176,41.043C35.138,40.961 35.119,40.89 35.119,40.829C35.119,40.73 35.158,40.644 35.235,40.571C35.312,40.499 35.407,40.463 35.52,40.463C35.64,40.463 35.73,40.497 35.791,40.564C35.853,40.632 35.945,40.766 36.068,40.967L36.871,42.271L37.683,40.967C37.731,40.887 37.772,40.82 37.806,40.765C37.839,40.71 37.875,40.659 37.915,40.611C37.956,40.563 38,40.527 38.049,40.501C38.098,40.476 38.157,40.463 38.227,40.463C38.337,40.463 38.428,40.499 38.501,40.57C38.575,40.641 38.611,40.724 38.611,40.818C38.611,40.894 38.593,40.97 38.556,41.046C38.518,41.122 38.455,41.228 38.365,41.362L37.29,43.012L37.29,44.374C37.29,44.552 37.249,44.685 37.167,44.773C37.085,44.861 36.98,44.904 36.853,44.904C36.725,44.904 36.62,44.861 36.54,44.774C36.46,44.687 36.42,44.554 36.42,44.374Z" style="fill-rule:nonzero;"/>
        <path d="M45.384,42.725C45.384,43.045 45.365,43.32 45.326,43.551C45.287,43.781 45.214,43.99 45.109,44.178C44.976,44.408 44.804,44.586 44.593,44.711C44.382,44.836 44.148,44.899 43.89,44.899C43.593,44.899 43.327,44.815 43.092,44.647C42.857,44.479 42.679,44.246 42.56,43.949C42.5,43.787 42.455,43.608 42.427,43.412C42.399,43.216 42.384,43.003 42.384,42.775C42.384,42.48 42.4,42.214 42.431,41.978C42.462,41.741 42.511,41.538 42.578,41.368C42.693,41.087 42.86,40.873 43.08,40.725C43.3,40.578 43.562,40.504 43.867,40.504C44.068,40.504 44.251,40.537 44.415,40.602C44.579,40.668 44.723,40.763 44.847,40.889C44.971,41.015 45.076,41.171 45.162,41.357C45.31,41.679 45.384,42.135 45.384,42.725ZM44.582,42.666C44.582,42.309 44.56,42.016 44.517,41.789C44.474,41.561 44.402,41.389 44.3,41.273C44.199,41.157 44.058,41.099 43.878,41.099C43.621,41.099 43.441,41.229 43.341,41.488C43.24,41.748 43.19,42.149 43.19,42.69C43.19,43.057 43.212,43.358 43.254,43.592C43.297,43.826 43.37,44.004 43.471,44.124C43.573,44.244 43.711,44.304 43.884,44.304C44.064,44.304 44.205,44.241 44.306,44.116C44.408,43.991 44.479,43.813 44.52,43.58C44.561,43.348 44.582,43.043 44.582,42.666Z" style="fill-rule:nonzero;"/>
        <path d="M47.482,44.43L47.482,41.764C46.986,42.145 46.652,42.335 46.48,42.335C46.398,42.335 46.325,42.302 46.262,42.237C46.198,42.172 46.166,42.096 46.166,42.01C46.166,41.91 46.198,41.837 46.26,41.79C46.323,41.743 46.433,41.683 46.591,41.609C46.828,41.497 47.017,41.38 47.158,41.257C47.3,41.134 47.425,40.996 47.535,40.844C47.644,40.692 47.715,40.598 47.748,40.563C47.782,40.528 47.844,40.51 47.936,40.51C48.04,40.51 48.123,40.55 48.185,40.63C48.248,40.71 48.279,40.82 48.279,40.961L48.279,44.316C48.279,44.708 48.145,44.904 47.877,44.904C47.758,44.904 47.663,44.864 47.59,44.784C47.518,44.704 47.482,44.586 47.482,44.43Z" style="fill-rule:nonzero;"/>
        <path d="M50.939,43.624L50.013,43.624C49.872,43.624 49.765,43.591 49.692,43.526C49.619,43.461 49.582,43.376 49.582,43.273C49.582,43.167 49.618,43.082 49.689,43.016C49.761,42.951 49.868,42.918 50.013,42.918L50.939,42.918C51.083,42.918 51.191,42.951 51.263,43.016C51.334,43.082 51.369,43.167 51.369,43.273C51.369,43.376 51.334,43.461 51.264,43.526C51.194,43.591 51.085,43.624 50.939,43.624Z" style="fill-rule:nonzero;"/>
        <path d="M53.285,44.43L53.285,41.764C52.789,42.145 52.455,42.335 52.283,42.335C52.201,42.335 52.129,42.302 52.065,42.237C52.002,42.172 51.97,42.096 51.97,42.01C51.97,41.91 52.001,41.837 52.064,41.79C52.126,41.743 52.237,41.683 52.395,41.609C52.631,41.497 52.82,41.38 52.962,41.257C53.103,41.134 53.229,40.996 53.338,40.844C53.447,40.692 53.519,40.598 53.552,40.563C53.585,40.528 53.648,40.51 53.739,40.51C53.843,40.51 53.926,40.55 53.988,40.63C54.051,40.71 54.082,40.82 54.082,40.961L54.082,44.316C54.082,44.708 53.948,44.904 53.681,44.904C53.562,44.904 53.466,44.864 53.394,44.784C53.322,44.704 53.285,44.586 53.285,44.43Z" style="fill-rule:nonzero;"/>
        <path d="M56.364,42.508C56.497,42.35 56.642,42.233 56.798,42.156C56.954,42.08 57.129,42.042 57.322,42.042C57.508,42.042 57.679,42.077 57.837,42.146C57.994,42.216 58.131,42.314 58.25,42.442C58.368,42.57 58.459,42.721 58.524,42.895C58.588,43.069 58.62,43.25 58.62,43.44C58.62,43.715 58.557,43.965 58.431,44.19C58.305,44.414 58.129,44.59 57.904,44.716C57.678,44.841 57.423,44.904 57.138,44.904C56.81,44.904 56.526,44.824 56.288,44.664C56.05,44.504 55.868,44.267 55.742,43.954C55.616,43.64 55.553,43.257 55.553,42.804C55.553,42.435 55.591,42.105 55.667,41.814C55.743,41.523 55.853,41.281 55.995,41.09C56.138,40.899 56.311,40.754 56.514,40.656C56.717,40.559 56.948,40.51 57.208,40.51C57.458,40.51 57.678,40.559 57.869,40.656C58.059,40.754 58.203,40.875 58.299,41.02C58.396,41.164 58.444,41.303 58.444,41.436C58.444,41.516 58.414,41.589 58.354,41.654C58.293,41.719 58.216,41.752 58.122,41.752C58.04,41.752 57.964,41.726 57.894,41.674C57.823,41.623 57.772,41.551 57.738,41.459C57.693,41.342 57.622,41.248 57.525,41.176C57.427,41.105 57.314,41.07 57.185,41.07C57.081,41.07 56.978,41.099 56.876,41.159C56.773,41.218 56.687,41.299 56.616,41.401C56.474,41.608 56.39,41.977 56.364,42.508ZM57.155,44.327C57.353,44.327 57.516,44.247 57.645,44.086C57.774,43.924 57.838,43.713 57.838,43.451C57.838,43.274 57.808,43.121 57.747,42.993C57.687,42.865 57.604,42.767 57.498,42.7C57.393,42.632 57.276,42.599 57.15,42.599C57.028,42.599 56.913,42.631 56.802,42.695C56.692,42.76 56.603,42.853 56.536,42.975C56.468,43.097 56.435,43.24 56.435,43.404C56.435,43.668 56.503,43.888 56.64,44.064C56.776,44.239 56.948,44.327 57.155,44.327Z" style="fill-rule:nonzero;"/>
        <path d="M93.702,43.195L92.905,43.195L92.905,44.411C92.905,44.585 92.864,44.717 92.782,44.807C92.7,44.896 92.596,44.941 92.471,44.941C92.34,44.941 92.235,44.897 92.155,44.808C92.075,44.719 92.035,44.589 92.035,44.417L92.035,41.106C92.035,40.915 92.079,40.778 92.167,40.696C92.255,40.614 92.394,40.573 92.586,40.573L93.702,40.573C94.032,40.573 94.286,40.599 94.464,40.649C94.639,40.698 94.791,40.779 94.919,40.893C95.047,41.006 95.144,41.145 95.211,41.309C95.277,41.473 95.31,41.657 95.31,41.862C95.31,42.3 95.175,42.631 94.906,42.857C94.636,43.083 94.235,43.195 93.702,43.195ZM93.491,41.227L92.905,41.227L92.905,42.539L93.491,42.539C93.696,42.539 93.867,42.518 94.005,42.475C94.143,42.432 94.248,42.361 94.32,42.264C94.392,42.166 94.428,42.038 94.428,41.88C94.428,41.69 94.373,41.536 94.261,41.417C94.136,41.29 93.88,41.227 93.491,41.227Z" style="fill-rule:nonzero;"/>
        <path d="M98.046,40.5C98.492,40.5 98.874,40.59 99.193,40.771C99.513,40.952 99.754,41.208 99.918,41.542C100.083,41.875 100.165,42.266 100.165,42.715C100.165,43.047 100.12,43.349 100.03,43.62C99.94,43.892 99.805,44.127 99.626,44.326C99.446,44.525 99.225,44.678 98.963,44.783C98.702,44.889 98.402,44.941 98.064,44.941C97.728,44.941 97.427,44.887 97.162,44.779C96.896,44.67 96.674,44.518 96.497,44.32C96.319,44.123 96.185,43.886 96.094,43.608C96.003,43.331 95.958,43.031 95.958,42.709C95.958,42.379 96.005,42.076 96.1,41.801C96.194,41.525 96.332,41.291 96.511,41.098C96.691,40.904 96.91,40.756 97.167,40.654C97.425,40.551 97.718,40.5 98.046,40.5ZM99.283,42.709C99.283,42.395 99.232,42.122 99.13,41.892C99.029,41.661 98.884,41.487 98.695,41.369C98.507,41.25 98.291,41.191 98.046,41.191C97.873,41.191 97.712,41.224 97.564,41.29C97.417,41.355 97.29,41.45 97.184,41.575C97.077,41.7 96.993,41.86 96.932,42.054C96.87,42.249 96.839,42.467 96.839,42.709C96.839,42.953 96.87,43.174 96.932,43.371C96.993,43.568 97.08,43.732 97.192,43.862C97.305,43.992 97.434,44.089 97.579,44.153C97.725,44.218 97.884,44.25 98.058,44.25C98.281,44.25 98.485,44.194 98.672,44.083C98.858,43.972 99.007,43.8 99.117,43.567C99.228,43.335 99.283,43.049 99.283,42.709Z" style="fill-rule:nonzero;"/>
        <path d="M101.881,41.027L101.881,44.153L103.645,44.153C103.786,44.153 103.893,44.187 103.969,44.256C104.044,44.324 104.081,44.41 104.081,44.514C104.081,44.619 104.044,44.705 103.97,44.77C103.896,44.835 103.787,44.868 103.645,44.868L101.544,44.868C101.355,44.868 101.219,44.826 101.136,44.742C101.053,44.658 101.011,44.522 101.011,44.335L101.011,41.027C101.011,40.852 101.051,40.72 101.13,40.632C101.209,40.544 101.313,40.5 101.442,40.5C101.573,40.5 101.679,40.543 101.76,40.63C101.841,40.717 101.881,40.85 101.881,41.027Z" style="fill-rule:nonzero;"/>
        <path d="M104.975,44.411L104.975,43.049L103.926,41.423C103.834,41.276 103.769,41.162 103.731,41.08C103.693,40.998 103.674,40.927 103.674,40.866C103.674,40.767 103.713,40.681 103.79,40.608C103.867,40.536 103.962,40.5 104.075,40.5C104.195,40.5 104.285,40.534 104.346,40.601C104.408,40.668 104.5,40.803 104.623,41.004L105.426,42.308L106.238,41.004C106.286,40.924 106.327,40.856 106.361,40.802C106.394,40.747 106.43,40.696 106.47,40.648C106.511,40.6 106.555,40.563 106.604,40.538C106.653,40.513 106.712,40.5 106.782,40.5C106.892,40.5 106.983,40.536 107.056,40.607C107.13,40.678 107.166,40.761 107.166,40.854C107.166,40.931 107.148,41.007 107.111,41.083C107.074,41.159 107.01,41.265 106.92,41.399L105.845,43.049L105.845,44.411C105.845,44.589 105.804,44.722 105.722,44.81C105.64,44.897 105.535,44.941 105.408,44.941C105.28,44.941 105.175,44.898 105.095,44.811C105.015,44.724 104.975,44.591 104.975,44.411Z" style="fill-rule:nonzero;"/>
        <path d="M112.351,44.467L112.351,41.801C111.855,42.182 111.521,42.372 111.35,42.372C111.267,42.372 111.195,42.339 111.131,42.274C111.068,42.208 111.036,42.133 111.036,42.047C111.036,41.947 111.067,41.874 111.13,41.827C111.192,41.78 111.303,41.72 111.461,41.646C111.697,41.534 111.886,41.417 112.028,41.294C112.169,41.171 112.295,41.033 112.404,40.881C112.514,40.729 112.585,40.635 112.618,40.6C112.651,40.564 112.714,40.547 112.806,40.547C112.909,40.547 112.992,40.587 113.055,40.667C113.117,40.747 113.148,40.857 113.148,40.998L113.148,44.353C113.148,44.745 113.015,44.941 112.747,44.941C112.628,44.941 112.532,44.901 112.46,44.821C112.388,44.741 112.351,44.623 112.351,44.467Z" style="fill-rule:nonzero;"/>
        <path d="M115.278,40.614L117.229,40.614C117.417,40.614 117.553,40.644 117.637,40.702C117.721,40.761 117.762,40.857 117.762,40.992C117.762,41.074 117.713,41.183 117.615,41.317C117.516,41.452 117.404,41.601 117.278,41.764C117.152,41.927 117.022,42.13 116.888,42.372C116.754,42.614 116.632,42.91 116.52,43.26C116.473,43.414 116.44,43.542 116.421,43.644C116.401,43.745 116.38,43.877 116.356,44.039C116.333,44.201 116.312,44.325 116.295,44.411C116.254,44.61 116.196,44.749 116.12,44.826C116.045,44.903 115.945,44.941 115.82,44.941C115.701,44.941 115.605,44.9 115.533,44.817C115.461,44.734 115.425,44.611 115.425,44.449C115.425,44.324 115.451,44.154 115.504,43.939C115.556,43.725 115.642,43.467 115.762,43.167C115.881,42.868 116.03,42.56 116.208,42.245C116.387,41.929 116.599,41.615 116.846,41.303L115.278,41.303C115.114,41.303 114.992,41.273 114.91,41.213C114.829,41.154 114.789,41.061 114.789,40.934C114.789,40.799 114.832,40.712 114.918,40.673C115.004,40.634 115.124,40.614 115.278,40.614Z" style="fill-rule:nonzero;"/>
        <path d="M119.494,43.661L118.568,43.661C118.427,43.661 118.32,43.628 118.247,43.563C118.174,43.498 118.137,43.413 118.137,43.31C118.137,43.204 118.173,43.119 118.244,43.053C118.316,42.988 118.424,42.955 118.568,42.955L119.494,42.955C119.638,42.955 119.746,42.988 119.818,43.053C119.889,43.119 119.924,43.204 119.924,43.31C119.924,43.413 119.889,43.498 119.819,43.563C119.749,43.628 119.64,43.661 119.494,43.661Z" style="fill-rule:nonzero;"/>
        <path d="M121.791,42.275C121.97,42.275 122.125,42.223 122.255,42.117C122.385,42.012 122.45,41.86 122.45,41.663C122.45,41.513 122.398,41.383 122.294,41.275C122.191,41.167 122.051,41.112 121.876,41.112C121.756,41.112 121.658,41.129 121.581,41.162C121.504,41.195 121.443,41.239 121.398,41.294C121.353,41.349 121.311,41.419 121.271,41.505C121.231,41.591 121.194,41.672 121.161,41.748C121.141,41.789 121.106,41.821 121.055,41.845C121.004,41.868 120.946,41.88 120.879,41.88C120.801,41.88 120.73,41.848 120.664,41.785C120.599,41.721 120.566,41.637 120.566,41.531C120.566,41.43 120.597,41.323 120.658,41.21C120.72,41.098 120.81,40.991 120.928,40.89C121.046,40.788 121.193,40.707 121.369,40.645C121.544,40.583 121.741,40.553 121.958,40.553C122.147,40.553 122.32,40.579 122.476,40.63C122.632,40.682 122.768,40.757 122.883,40.854C122.999,40.952 123.086,41.065 123.144,41.194C123.203,41.323 123.232,41.462 123.232,41.61C123.232,41.806 123.19,41.973 123.105,42.113C123.02,42.252 122.898,42.389 122.74,42.521C122.892,42.604 123.021,42.697 123.125,42.803C123.23,42.908 123.308,43.025 123.361,43.153C123.414,43.281 123.44,43.419 123.44,43.567C123.44,43.745 123.404,43.917 123.333,44.083C123.262,44.249 123.157,44.397 123.018,44.527C122.879,44.657 122.715,44.758 122.524,44.832C122.334,44.905 122.124,44.941 121.893,44.941C121.659,44.941 121.449,44.899 121.263,44.815C121.078,44.731 120.925,44.626 120.805,44.5C120.685,44.375 120.594,44.244 120.532,44.109C120.471,43.975 120.44,43.863 120.44,43.775C120.44,43.662 120.477,43.571 120.55,43.501C120.623,43.432 120.714,43.397 120.824,43.397C120.878,43.397 120.931,43.414 120.982,43.446C121.033,43.478 121.066,43.517 121.082,43.562C121.183,43.833 121.292,44.035 121.408,44.167C121.524,44.298 121.688,44.364 121.899,44.364C122.02,44.364 122.137,44.334 122.249,44.275C122.361,44.215 122.454,44.127 122.527,44.01C122.601,43.893 122.637,43.757 122.637,43.603C122.637,43.374 122.575,43.195 122.45,43.065C122.325,42.935 122.151,42.87 121.928,42.87C121.889,42.87 121.829,42.874 121.747,42.882C121.665,42.89 121.612,42.894 121.588,42.894C121.481,42.894 121.398,42.867 121.339,42.813C121.281,42.759 121.252,42.685 121.252,42.589C121.252,42.495 121.287,42.419 121.357,42.362C121.427,42.304 121.532,42.275 121.67,42.275L121.791,42.275Z" style="fill-rule:nonzero;"/>
        <path d="M125.171,44.177L126.701,44.177C126.853,44.177 126.969,44.208 127.049,44.271C127.129,44.333 127.169,44.418 127.169,44.525C127.169,44.621 127.138,44.702 127.074,44.769C127.011,44.835 126.914,44.868 126.786,44.868L124.629,44.868C124.483,44.868 124.369,44.828 124.287,44.747C124.205,44.666 124.164,44.57 124.164,44.461C124.164,44.391 124.19,44.297 124.243,44.181C124.295,44.065 124.353,43.974 124.415,43.907C124.675,43.638 124.91,43.407 125.119,43.214C125.328,43.022 125.477,42.896 125.567,42.835C125.727,42.722 125.86,42.608 125.967,42.494C126.073,42.379 126.154,42.262 126.21,42.142C126.266,42.022 126.293,41.904 126.293,41.789C126.293,41.664 126.264,41.552 126.204,41.454C126.144,41.355 126.063,41.278 125.961,41.224C125.858,41.169 125.747,41.142 125.625,41.142C125.37,41.142 125.168,41.254 125.022,41.479C125.002,41.508 124.97,41.588 124.924,41.719C124.878,41.85 124.826,41.95 124.768,42.021C124.711,42.091 124.626,42.126 124.515,42.126C124.417,42.126 124.336,42.094 124.272,42.029C124.207,41.965 124.175,41.877 124.175,41.766C124.175,41.631 124.206,41.49 124.266,41.344C124.327,41.197 124.417,41.064 124.537,40.945C124.657,40.826 124.81,40.73 124.994,40.657C125.179,40.583 125.395,40.547 125.643,40.547C125.942,40.547 126.197,40.594 126.408,40.688C126.544,40.75 126.664,40.836 126.768,40.945C126.872,41.055 126.952,41.181 127.01,41.325C127.067,41.468 127.096,41.617 127.096,41.771C127.096,42.014 127.036,42.234 126.916,42.432C126.796,42.63 126.673,42.786 126.548,42.898C126.423,43.01 126.214,43.187 125.92,43.427C125.626,43.667 125.424,43.854 125.315,43.986C125.268,44.039 125.22,44.103 125.171,44.177Z" style="fill-rule:nonzero;"/>
    </g>
    <defs>
        <linearGradient id="_Linear1" x1="0" y1="0" x2="1" y2="0" gradientUnits="userSpaceOnUse" gradientTransform="matrix(9.77099e-17,1.70605,-1.59572,1.04466e-16,77.4069,378.263)"><stop offset="0" style="stop-color:rgb(165,165,165);stop-opacity:1"/><stop offset="1" style="stop-color:black;stop-opacity:1"/></linearGradient>
    </defs>
</svg>
