<?xml version="1.0" encoding="UTF-8" standalone="no"?>
<!DOCTYPE svg PUBLIC "-//W3C//DTD SVG 1.1//EN" "http://www.w3.org/Graphics/SVG/1.1/DTD/svg11.dtd">
<svg width="100%" height="100%" viewBox="0 0 151 380" version="1.1" xmlns="http://www.w3.org/2000/svg" xmlns:xlink="http://www.w3.org/1999/xlink" xml:space="preserve" xmlns:serif="http://www.serif.com/" style="fill-rule:evenodd;clip-rule:evenodd;stroke-linejoin:round;stroke-miterlimit:1.41421;">
    <g id="Layer-1" serif:id="Layer 1" transform="matrix(0.834722,0,0,1.04324,-803.837,250.623)">
        <g transform="matrix(3.01847,0,0,0.959028,963,-240.415)">
            <rect x="0" y="0" width="60" height="380" style="fill:rgb(255,171,171);"/>
        </g>
        <g transform="matrix(1.01703,0,0,1.44687,998.111,-653.268)">
            <rect x="-30.034" y="347.456" width="169.102" height="16.91" style="fill-opacity:0.301961;"/>
        </g>
        <g transform="matrix(1.01896,0,0,1.55539,997.804,-450.668)">
            <rect x="-30.034" y="347.456" width="169.102" height="16.91" style="fill:rgb(4,4,4);fill-opacity:0.301961;"/>
        </g>
        <g id="path3052" transform="matrix(1.25724,0,0,1.0755,-247.861,-9.16649)">
            <rect x="963.532" y="121.41" width="142.941" height="2.074" style="fill:url(#_Linear1);"/>
        </g>
        <g id="path40444" transform="matrix(1.2559,0,0,1.0005,-246.426,-0.0614164)">
            <path d="M1107,-240.235L963,-240.235L963,124.015L1107,124.015L1107,-240.235ZM1106.47,123.484L963.531,123.484L963.531,-239.708L1106.47,-239.708L1106.47,123.484Z" style="fill:rgb(81,85,88);fill-rule:nonzero;"/>
        </g>
        <g transform="matrix(1.198,0,0,0.958552,957.436,-220.342)">
            <path d="M67.292,343.558L67.292,343.937L66.372,343.937L66.372,339.277L67.292,339.277L67.292,341.269L67.303,341.269C67.544,340.897 67.888,340.712 68.334,340.712C68.73,340.712 69.041,340.85 69.266,341.127C69.491,341.404 69.603,341.787 69.603,342.274C69.603,342.796 69.474,343.217 69.216,343.535C68.958,343.854 68.616,344.014 68.189,344.014C67.798,344.014 67.503,343.862 67.303,343.558L67.292,343.558ZM67.278,342.576C67.278,342.783 67.339,342.957 67.463,343.097C67.586,343.237 67.743,343.308 67.932,343.308C68.162,343.308 68.341,343.218 68.469,343.04C68.597,342.862 68.661,342.609 68.661,342.283C68.661,342.011 68.603,341.799 68.486,341.647C68.369,341.494 68.203,341.417 67.986,341.417C67.782,341.417 67.612,341.494 67.478,341.648C67.345,341.802 67.278,341.999 67.278,342.24L67.278,342.576Z" style="fill:rgb(10,1,1);fill-rule:nonzero;"/>
            <path d="M72.181,345.953L75.389,345.953L75.389,347.267L70.359,347.267L70.359,346.705C70.359,346.311 70.432,345.952 70.577,345.626C70.721,345.301 70.921,344.997 71.175,344.716C71.429,344.434 71.822,344.104 72.356,343.727C72.845,343.362 73.186,343.039 73.382,342.758C73.577,342.476 73.675,342.177 73.675,341.862C73.675,341.181 73.304,340.841 72.561,340.841C71.91,340.841 71.289,341.101 70.696,341.622L70.696,340.216C71.357,339.79 72.099,339.576 72.923,339.576C73.678,339.576 74.275,339.769 74.715,340.155C75.154,340.541 75.374,341.072 75.374,341.749C75.374,342.127 75.31,342.468 75.183,342.772C75.057,343.077 74.873,343.362 74.632,343.629C74.391,343.896 74.005,344.217 73.475,344.591C72.963,344.956 72.62,345.237 72.444,345.436C72.268,345.634 72.181,345.807 72.181,345.953Z" style="fill:rgb(10,1,1);fill-rule:nonzero;"/>
            <path d="M76.385,343.61C76.385,342.301 76.626,341.302 77.107,340.612C77.589,339.921 78.286,339.576 79.197,339.576C80.935,339.576 81.805,340.862 81.805,343.434C81.805,344.7 81.569,345.677 81.097,346.366C80.625,347.054 79.943,347.399 79.051,347.399C77.273,347.399 76.385,346.136 76.385,343.61ZM77.981,343.571C77.981,345.315 78.354,346.188 79.1,346.188C79.832,346.188 80.198,345.289 80.198,343.492C80.198,341.689 79.842,340.787 79.129,340.787C78.364,340.787 77.981,341.715 77.981,343.571Z" style="fill:rgb(10,1,1);fill-rule:nonzero;"/>
            <path d="M86.414,339.537L86.414,347.267L84.827,347.267L84.827,341.315C84.632,341.484 84.365,341.636 84.026,341.771C83.688,341.906 83.377,341.99 83.094,342.023L83.094,340.67C83.986,340.41 84.757,340.032 85.408,339.537L86.414,339.537Z" style="fill:rgb(10,1,1);fill-rule:nonzero;"/>
            <path d="M90.682,345.953L93.89,345.953L93.89,347.267L88.86,347.267L88.86,346.705C88.86,346.311 88.933,345.952 89.078,345.626C89.222,345.301 89.422,344.997 89.676,344.716C89.93,344.434 90.323,344.104 90.857,343.727C91.346,343.362 91.687,343.039 91.883,342.758C92.078,342.476 92.176,342.177 92.176,341.862C92.176,341.181 91.805,340.841 91.062,340.841C90.411,340.841 89.79,341.101 89.197,341.622L89.197,340.216C89.858,339.79 90.6,339.576 91.424,339.576C92.179,339.576 92.776,339.769 93.216,340.155C93.655,340.541 93.875,341.072 93.875,341.749C93.875,342.127 93.811,342.468 93.684,342.772C93.558,343.077 93.374,343.362 93.133,343.629C92.892,343.896 92.506,344.217 91.975,344.591C91.464,344.956 91.121,345.237 90.945,345.436C90.769,345.634 90.682,345.807 90.682,345.953Z" style="fill:rgb(10,1,1);fill-rule:nonzero;"/>
        </g>
        <g transform="matrix(1.198,0,0,0.958552,1021.19,-215.123)">
            <path d="M8.15,-0.355C7.435,-0.004 6.502,0.171 5.351,0.171C3.87,0.171 2.695,-0.272 1.825,-1.158C0.955,-2.045 0.521,-3.227 0.521,-4.704C0.521,-6.257 1.006,-7.527 1.977,-8.515C2.948,-9.504 4.202,-9.998 5.738,-9.998C6.699,-9.998 7.503,-9.873 8.15,-9.623L8.15,-7.598C7.486,-7.987 6.733,-8.182 5.891,-8.182C4.93,-8.182 4.162,-7.875 3.586,-7.262C3.011,-6.648 2.723,-5.846 2.723,-4.856C2.723,-3.891 2.996,-3.115 3.542,-2.526C4.088,-1.938 4.826,-1.644 5.757,-1.644C6.633,-1.644 7.431,-1.856 8.15,-2.279L8.15,-0.355Z" style="fill-rule:nonzero;"/>
            <path d="M17.977,-9.833L14.562,0L12.194,0L8.823,-9.833L11.083,-9.833L13.209,-2.882C13.315,-2.539 13.381,-2.215 13.406,-1.911L13.444,-1.911C13.478,-2.224 13.55,-2.556 13.66,-2.907L15.787,-9.833L17.977,-9.833Z" style="fill-rule:nonzero;"/>
            <rect x="19.024" y="-4.488" width="3.751" height="1.447" style="fill-rule:nonzero;"/>
            <path d="M33.858,0L33.858,-5.967C33.858,-6.517 33.886,-7.209 33.941,-8.042L33.89,-8.042C33.763,-7.412 33.662,-6.991 33.585,-6.779L31.161,0L29.491,0L27.035,-6.716C26.975,-6.877 26.872,-7.319 26.724,-8.042L26.667,-8.042C26.722,-7.217 26.749,-6.39 26.749,-5.561L26.749,0L24.857,0L24.857,-9.833L27.904,-9.833L30.024,-3.891C30.202,-3.4 30.323,-2.939 30.386,-2.507L30.431,-2.507C30.562,-3.045 30.697,-3.51 30.837,-3.904L32.963,-9.833L35.928,-9.833L35.928,0L33.858,0Z" style="fill-rule:nonzero;"/>
            <path d="M46.757,0L44.472,0L43.735,-2.253L40.162,-2.253L39.438,0L37.166,0L40.765,-9.833L43.228,-9.833L46.757,0ZM43.24,-3.872L42.123,-7.281C42.051,-7.497 42,-7.782 41.971,-8.138L41.914,-8.138C41.888,-7.85 41.831,-7.573 41.742,-7.306L40.619,-3.872L43.24,-3.872Z" style="fill-rule:nonzero;"/>
            <path d="M50.096,-3.428L50.096,0L48.001,0L48.001,-9.833L51.384,-9.833C53.83,-9.833 55.053,-8.796 55.053,-6.722C55.053,-5.715 54.684,-4.908 53.946,-4.301C53.207,-3.693 52.284,-3.402 51.175,-3.428L50.096,-3.428ZM50.096,-8.208L50.096,-5.034L51.003,-5.034C52.235,-5.034 52.851,-5.569 52.851,-6.64C52.851,-7.685 52.241,-8.208 51.022,-8.208L50.096,-8.208Z" style="fill-rule:nonzero;"/>
        </g>
        <g transform="matrix(1.198,0,0,0.958552,968.168,-259.638)">
            <path d="M23.517,49.575L22.204,53.356L21.293,53.356L19.997,49.575L20.866,49.575L21.684,52.248C21.724,52.38 21.75,52.504 21.759,52.621L21.774,52.621C21.787,52.501 21.815,52.373 21.857,52.238L22.675,49.575L23.517,49.575Z" style="fill:rgb(5,5,5);fill-opacity:0.501961;fill-rule:nonzero;"/>
            <path d="M23.732,51.516C23.732,50.923 23.905,50.441 24.251,50.069C24.597,49.697 25.054,49.511 25.622,49.511C26.162,49.511 26.597,49.691 26.927,50.051C27.256,50.41 27.421,50.873 27.421,51.437C27.421,52.027 27.25,52.505 26.907,52.872C26.564,53.239 26.116,53.422 25.561,53.422C25.019,53.422 24.578,53.244 24.24,52.889C23.901,52.533 23.732,52.075 23.732,51.516ZM24.579,51.472C24.579,51.839 24.668,52.14 24.845,52.374C25.023,52.607 25.266,52.724 25.575,52.724C25.891,52.724 26.137,52.612 26.313,52.388C26.488,52.165 26.576,51.864 26.576,51.486C26.576,51.092 26.491,50.781 26.32,50.552C26.149,50.324 25.908,50.209 25.597,50.209C25.281,50.209 25.033,50.327 24.851,50.561C24.67,50.795 24.579,51.099 24.579,51.472Z" style="fill:rgb(5,5,5);fill-opacity:0.501961;fill-rule:nonzero;"/>
            <path d="M30.28,53.356L28.061,53.356L28.061,49.575L28.866,49.575L28.866,52.697L30.28,52.697L30.28,53.356Z" style="fill:rgb(5,5,5);fill-opacity:0.501961;fill-rule:nonzero;"/>
            <path d="M33.056,50.234L31.977,50.234L31.977,53.356L31.169,53.356L31.169,50.234L30.092,50.234L30.092,49.575L33.056,49.575L33.056,50.234Z" style="fill:rgb(5,5,5);fill-opacity:0.501961;fill-rule:nonzero;"/>
            <path d="M36.476,53.356L35.597,53.356L35.314,52.49L33.94,52.49L33.661,53.356L32.787,53.356L34.171,49.575L35.119,49.575L36.476,53.356ZM35.124,51.867L34.694,50.556C34.666,50.473 34.647,50.363 34.635,50.226L34.613,50.226C34.604,50.337 34.582,50.444 34.547,50.546L34.115,51.867L35.124,51.867Z" style="fill:rgb(5,5,5);fill-opacity:0.501961;fill-rule:nonzero;"/>
            <path d="M39.97,53.102C39.6,53.316 39.146,53.422 38.608,53.422C38.005,53.422 37.53,53.253 37.182,52.914C36.833,52.576 36.659,52.113 36.659,51.525C36.659,50.93 36.851,50.445 37.234,50.071C37.618,49.698 38.122,49.511 38.749,49.511C39.153,49.511 39.505,49.568 39.806,49.682L39.806,50.446C39.513,50.275 39.155,50.19 38.732,50.19C38.367,50.19 38.072,50.309 37.846,50.546C37.62,50.784 37.506,51.097 37.506,51.486C37.506,51.882 37.609,52.19 37.813,52.412C38.017,52.633 38.296,52.744 38.649,52.744C38.859,52.744 39.031,52.711 39.164,52.646L39.164,51.87L38.4,51.87L38.4,51.223L39.97,51.223L39.97,53.102Z" style="fill:rgb(5,5,5);fill-opacity:0.501961;fill-rule:nonzero;"/>
            <path d="M42.961,53.356L40.722,53.356L40.722,49.575L42.873,49.575L42.873,50.234L41.527,50.234L41.527,51.125L42.777,51.125L42.777,51.782L41.527,51.782L41.527,52.697L42.961,52.697L42.961,53.356Z" style="fill:rgb(5,5,5);fill-opacity:0.501961;fill-rule:nonzero;"/>
            <path d="M47.768,53.22C47.493,53.355 47.134,53.422 46.691,53.422C46.121,53.422 45.669,53.252 45.335,52.911C45,52.57 44.833,52.115 44.833,51.547C44.833,50.95 45.02,50.461 45.393,50.081C45.767,49.701 46.249,49.511 46.84,49.511C47.209,49.511 47.519,49.559 47.768,49.655L47.768,50.434C47.512,50.284 47.222,50.209 46.899,50.209C46.529,50.209 46.234,50.327 46.012,50.563C45.791,50.799 45.68,51.108 45.68,51.489C45.68,51.86 45.785,52.158 45.995,52.385C46.205,52.611 46.489,52.724 46.847,52.724C47.184,52.724 47.491,52.643 47.768,52.48L47.768,53.22Z" style="fill:rgb(5,5,5);fill-opacity:0.501961;fill-rule:nonzero;"/>
            <path d="M48.134,51.516C48.134,50.923 48.307,50.441 48.653,50.069C48.999,49.697 49.455,49.511 50.024,49.511C50.564,49.511 50.999,49.691 51.328,50.051C51.658,50.41 51.823,50.873 51.823,51.437C51.823,52.027 51.652,52.505 51.309,52.872C50.966,53.239 50.517,53.422 49.962,53.422C49.42,53.422 48.98,53.244 48.642,52.889C48.303,52.533 48.134,52.075 48.134,51.516ZM48.981,51.472C48.981,51.839 49.07,52.14 49.247,52.374C49.425,52.607 49.668,52.724 49.977,52.724C50.293,52.724 50.539,52.612 50.714,52.388C50.89,52.165 50.978,51.864 50.978,51.486C50.978,51.092 50.893,50.781 50.722,50.552C50.551,50.324 50.31,50.209 49.999,50.209C49.683,50.209 49.435,50.327 49.253,50.561C49.072,50.795 48.981,51.099 48.981,51.472Z" style="fill:rgb(5,5,5);fill-opacity:0.501961;fill-rule:nonzero;"/>
            <path d="M55.824,53.356L54.999,53.356L53.398,50.91C53.315,50.783 53.254,50.681 53.217,50.602L53.205,50.602C53.219,50.733 53.227,50.934 53.227,51.205L53.227,53.356L52.462,53.356L52.462,49.575L53.341,49.575L54.884,51.953C54.987,52.11 55.05,52.211 55.072,52.253L55.085,52.253C55.068,52.162 55.06,51.988 55.06,51.73L55.06,49.575L55.824,49.575L55.824,53.356Z" style="fill:rgb(5,5,5);fill-opacity:0.501961;fill-rule:nonzero;"/>
            <path d="M59.313,50.234L58.234,50.234L58.234,53.356L57.426,53.356L57.426,50.234L56.349,50.234L56.349,49.575L59.313,49.575L59.313,50.234Z" style="fill:rgb(5,5,5);fill-opacity:0.501961;fill-rule:nonzero;"/>
            <path d="M62.951,53.356L62.023,53.356L61.43,52.372C61.308,52.169 61.208,52.038 61.129,51.979C61.051,51.921 60.968,51.892 60.88,51.892L60.636,51.892L60.636,53.356L59.831,53.356L59.831,49.575L61.156,49.575C62.056,49.575 62.506,49.916 62.506,50.6C62.506,50.857 62.431,51.078 62.281,51.262C62.13,51.446 61.923,51.575 61.659,51.65L61.659,51.66C61.833,51.718 62.026,51.91 62.238,52.236L62.951,53.356ZM60.636,50.187L60.636,51.276L61.032,51.276C61.221,51.276 61.372,51.221 61.487,51.111C61.602,51.002 61.659,50.864 61.659,50.7C61.659,50.358 61.455,50.187 61.046,50.187L60.636,50.187Z" style="fill:rgb(5,5,5);fill-opacity:0.501961;fill-rule:nonzero;"/>
            <path d="M63.029,51.516C63.029,50.923 63.202,50.441 63.548,50.069C63.894,49.697 64.351,49.511 64.919,49.511C65.459,49.511 65.894,49.691 66.223,50.051C66.553,50.41 66.718,50.873 66.718,51.437C66.718,52.027 66.547,52.505 66.204,52.872C65.861,53.239 65.413,53.422 64.858,53.422C64.316,53.422 63.875,53.244 63.537,52.889C63.198,52.533 63.029,52.075 63.029,51.516ZM63.876,51.472C63.876,51.839 63.965,52.14 64.142,52.374C64.32,52.607 64.563,52.724 64.872,52.724C65.188,52.724 65.434,52.612 65.609,52.388C65.785,52.165 65.873,51.864 65.873,51.486C65.873,51.092 65.788,50.781 65.617,50.552C65.446,50.324 65.205,50.209 64.894,50.209C64.578,50.209 64.33,50.327 64.148,50.561C63.967,50.795 63.876,51.099 63.876,51.472Z" style="fill:rgb(5,5,5);fill-opacity:0.501961;fill-rule:nonzero;"/>
            <path d="M69.577,53.356L67.358,53.356L67.358,49.575L68.163,49.575L68.163,52.697L69.577,52.697L69.577,53.356Z" style="fill:rgb(5,5,5);fill-opacity:0.501961;fill-rule:nonzero;"/>
            <path d="M72.311,53.356L70.092,53.356L70.092,49.575L70.898,49.575L70.898,52.697L72.311,52.697L72.311,53.356Z" style="fill:rgb(5,5,5);fill-opacity:0.501961;fill-rule:nonzero;"/>
            <path d="M75.065,53.356L72.826,53.356L72.826,49.575L74.977,49.575L74.977,50.234L73.632,50.234L73.632,51.125L74.882,51.125L74.882,51.782L73.632,51.782L73.632,52.697L75.065,52.697L75.065,53.356Z" style="fill:rgb(5,5,5);fill-opacity:0.501961;fill-rule:nonzero;"/>
            <path d="M75.685,53.356L75.685,49.575L76.991,49.575C78.334,49.575 79.005,50.189 79.005,51.418C79.005,52.002 78.817,52.471 78.441,52.825C78.066,53.179 77.58,53.356 76.986,53.356L75.685,53.356ZM76.491,50.234L76.491,52.697L76.93,52.697C77.313,52.697 77.613,52.583 77.831,52.355C78.049,52.128 78.158,51.819 78.158,51.43C78.158,51.054 78.044,50.761 77.816,50.55C77.589,50.339 77.292,50.234 76.928,50.234L76.491,50.234Z" style="fill:rgb(5,5,5);fill-opacity:0.501961;fill-rule:nonzero;"/>
            <path d="M81.938,52.038L81.938,53.356L81.132,53.356L81.132,49.575L82.433,49.575C83.374,49.575 83.844,49.973 83.844,50.771C83.844,51.158 83.702,51.469 83.418,51.702C83.134,51.936 82.779,52.048 82.353,52.038L81.938,52.038ZM81.938,50.2L81.938,51.42L82.287,51.42C82.76,51.42 82.997,51.214 82.997,50.803C82.997,50.401 82.763,50.2 82.294,50.2L81.938,50.2Z" style="fill:rgb(5,5,5);fill-opacity:0.501961;fill-rule:nonzero;"/>
            <path d="M87.37,53.356L86.491,53.356L86.208,52.49L84.833,52.49L84.555,53.356L83.681,53.356L85.065,49.575L86.012,49.575L87.37,53.356ZM86.017,51.867L85.587,50.556C85.56,50.473 85.54,50.363 85.529,50.226L85.507,50.226C85.497,50.337 85.475,50.444 85.441,50.546L85.009,51.867L86.017,51.867Z" style="fill:rgb(5,5,5);fill-opacity:0.501961;fill-rule:nonzero;"/>
            <path d="M90.968,53.356L90.041,53.356L89.447,52.372C89.325,52.169 89.225,52.038 89.147,51.979C89.069,51.921 88.986,51.892 88.898,51.892L88.654,51.892L88.654,53.356L87.848,53.356L87.848,49.575L89.174,49.575C90.074,49.575 90.524,49.916 90.524,50.6C90.524,50.857 90.449,51.078 90.298,51.262C90.148,51.446 89.941,51.575 89.677,51.65L89.677,51.66C89.851,51.718 90.044,51.91 90.255,52.236L90.968,53.356ZM88.654,50.187L88.654,51.276L89.049,51.276C89.238,51.276 89.39,51.221 89.505,51.111C89.619,51.002 89.677,50.864 89.677,50.7C89.677,50.358 89.473,50.187 89.064,50.187L88.654,50.187Z" style="fill:rgb(5,5,5);fill-opacity:0.501961;fill-rule:nonzero;"/>
            <path d="M94.621,53.356L93.742,53.356L93.459,52.49L92.084,52.49L91.806,53.356L90.932,53.356L92.316,49.575L93.263,49.575L94.621,53.356ZM93.268,51.867L92.838,50.556C92.811,50.473 92.791,50.363 92.78,50.226L92.758,50.226C92.748,50.337 92.726,50.444 92.692,50.546L92.26,51.867L93.268,51.867Z" style="fill:rgb(5,5,5);fill-opacity:0.501961;fill-rule:nonzero;"/>
            <rect x="95.038" y="51.63" width="1.443" height="0.557" style="fill:rgb(5,5,5);fill-opacity:0.501961;fill-rule:nonzero;"/>
            <path d="M97.045,51.516C97.045,50.923 97.218,50.441 97.564,50.069C97.91,49.697 98.367,49.511 98.935,49.511C99.475,49.511 99.91,49.691 100.24,50.051C100.569,50.41 100.734,50.873 100.734,51.437C100.734,52.027 100.563,52.505 100.22,52.872C99.877,53.239 99.429,53.422 98.874,53.422C98.332,53.422 97.891,53.244 97.553,52.889C97.214,52.533 97.045,52.075 97.045,51.516ZM97.892,51.472C97.892,51.839 97.981,52.14 98.158,52.374C98.336,52.607 98.579,52.724 98.888,52.724C99.204,52.724 99.45,52.612 99.626,52.388C99.801,52.165 99.889,51.864 99.889,51.486C99.889,51.092 99.804,50.781 99.633,50.552C99.462,50.324 99.221,50.209 98.91,50.209C98.594,50.209 98.346,50.327 98.164,50.561C97.983,50.795 97.892,51.099 97.892,51.472Z" style="fill:rgb(5,5,5);fill-opacity:0.501961;fill-rule:nonzero;"/>
            <rect x="101.313" y="51.63" width="1.443" height="0.557" style="fill:rgb(5,5,5);fill-opacity:0.501961;fill-rule:nonzero;"/>
            <path d="M107.018,53.356L107.018,51.061C107.018,50.85 107.029,50.584 107.05,50.263L107.03,50.263C106.982,50.506 106.942,50.668 106.913,50.749L105.981,53.356L105.338,53.356L104.394,50.773C104.371,50.711 104.331,50.541 104.274,50.263L104.252,50.263C104.273,50.58 104.284,50.899 104.284,51.218L104.284,53.356L103.556,53.356L103.556,49.575L104.728,49.575L105.544,51.86C105.612,52.049 105.658,52.226 105.683,52.392L105.7,52.392C105.75,52.185 105.802,52.006 105.856,51.855L106.674,49.575L107.814,49.575L107.814,53.356L107.018,53.356Z" style="fill:rgb(5,5,5);fill-opacity:0.501961;fill-rule:nonzero;"/>
            <path d="M111.979,53.356L111.1,53.356L110.817,52.49L109.442,52.49L109.164,53.356L108.29,53.356L109.674,49.575L110.622,49.575L111.979,53.356ZM110.627,51.867L110.197,50.556C110.169,50.473 110.15,50.363 110.138,50.226L110.116,50.226C110.107,50.337 110.085,50.444 110.05,50.546L109.618,51.867L110.627,51.867Z" style="fill:rgb(5,5,5);fill-opacity:0.501961;fill-rule:nonzero;"/>
            <path d="M114.689,50.234L113.61,50.234L113.61,53.356L112.802,53.356L112.802,50.234L111.725,50.234L111.725,49.575L114.689,49.575L114.689,50.234Z" style="fill:rgb(5,5,5);fill-opacity:0.501961;fill-rule:nonzero;"/>
            <path d="M114.765,51.516C114.765,50.923 114.938,50.441 115.284,50.069C115.629,49.697 116.086,49.511 116.654,49.511C117.195,49.511 117.63,49.691 117.959,50.051C118.289,50.41 118.454,50.873 118.454,51.437C118.454,52.027 118.282,52.505 117.94,52.872C117.597,53.239 117.148,53.422 116.593,53.422C116.051,53.422 115.611,53.244 115.273,52.889C114.934,52.533 114.765,52.075 114.765,51.516ZM115.612,51.472C115.612,51.839 115.701,52.14 115.878,52.374C116.055,52.607 116.299,52.724 116.608,52.724C116.924,52.724 117.17,52.612 117.345,52.388C117.521,52.165 117.609,51.864 117.609,51.486C117.609,51.092 117.524,50.781 117.353,50.552C117.182,50.324 116.941,50.209 116.63,50.209C116.314,50.209 116.066,50.327 115.884,50.561C115.703,50.795 115.612,51.099 115.612,51.472Z" style="fill:rgb(5,5,5);fill-opacity:0.501961;fill-rule:nonzero;"/>
            <path d="M122.213,53.356L121.286,53.356L120.692,52.372C120.57,52.169 120.47,52.038 120.392,51.979C120.314,51.921 120.231,51.892 120.143,51.892L119.899,51.892L119.899,53.356L119.093,53.356L119.093,49.575L120.419,49.575C121.319,49.575 121.769,49.916 121.769,50.6C121.769,50.857 121.694,51.078 121.543,51.262C121.393,51.446 121.186,51.575 120.922,51.65L120.922,51.66C121.096,51.718 121.289,51.91 121.501,52.236L122.213,53.356ZM119.899,50.187L119.899,51.276L120.295,51.276C120.483,51.276 120.635,51.221 120.75,51.111C120.865,51.002 120.922,50.864 120.922,50.7C120.922,50.358 120.718,50.187 120.309,50.187L119.899,50.187Z" style="fill:rgb(5,5,5);fill-opacity:0.501961;fill-rule:nonzero;"/>
        </g>
        <g transform="matrix(1.198,0,0,0.958552,956.524,-247.004)">
            <path d="M20.48,50.31L20.48,51.892L19.514,51.892L19.514,47.354L21.075,47.354C22.204,47.354 22.768,47.833 22.768,48.79C22.768,49.255 22.598,49.627 22.257,49.908C21.916,50.188 21.49,50.322 20.978,50.31L20.48,50.31ZM20.48,48.104L20.48,49.569L20.899,49.569C21.468,49.569 21.752,49.322 21.752,48.828C21.752,48.346 21.471,48.104 20.908,48.104L20.48,48.104Z" style="fill-rule:nonzero;"/>
            <path d="M23.173,49.683C23.173,48.973 23.38,48.394 23.795,47.948C24.21,47.501 24.759,47.278 25.44,47.278C26.089,47.278 26.611,47.494 27.006,47.926C27.402,48.357 27.599,48.912 27.599,49.59C27.599,50.297 27.394,50.87 26.983,51.311C26.572,51.751 26.033,51.972 25.367,51.972C24.717,51.972 24.188,51.758 23.782,51.331C23.376,50.905 23.173,50.355 23.173,49.683ZM24.189,49.631C24.189,50.072 24.296,50.433 24.509,50.713C24.722,50.994 25.014,51.134 25.385,51.134C25.764,51.134 26.058,50.999 26.269,50.731C26.48,50.462 26.586,50.101 26.586,49.648C26.586,49.176 26.483,48.802 26.278,48.528C26.073,48.253 25.784,48.116 25.411,48.116C25.032,48.116 24.734,48.257 24.516,48.538C24.298,48.819 24.189,49.183 24.189,49.631Z" style="fill-rule:nonzero;"/>
            <path d="M31.03,51.892L28.367,51.892L28.367,47.354L29.334,47.354L29.334,51.101L31.03,51.101L31.03,51.892Z" style="fill-rule:nonzero;"/>
            <path d="M34.563,47.354L33.081,50.272L33.081,51.892L32.114,51.892L32.114,50.29L30.673,47.354L31.777,47.354L32.539,49.089C32.555,49.124 32.591,49.243 32.647,49.446L32.659,49.446C32.682,49.309 32.715,49.193 32.756,49.098L33.538,47.354L34.563,47.354Z" style="fill-rule:nonzero;"/>
            <rect x="35.009" y="49.821" width="1.731" height="0.668" style="fill-rule:nonzero;"/>
            <rect x="37.698" y="47.354" width="0.967" height="4.538" style="fill-rule:nonzero;"/>
            <path d="M43.748,51.892L42.758,51.892L40.836,48.957C40.736,48.805 40.664,48.682 40.619,48.588L40.604,48.588C40.622,48.744 40.631,48.985 40.631,49.311L40.631,51.892L39.714,51.892L39.714,47.354L40.768,47.354L42.62,50.208C42.743,50.397 42.818,50.517 42.846,50.568L42.86,50.568C42.841,50.459 42.831,50.25 42.831,49.941L42.831,47.354L43.748,47.354L43.748,51.892Z" style="fill-rule:nonzero;"/>
            <path d="M46.294,49.698C46.294,48.913 46.438,48.313 46.727,47.899C47.016,47.485 47.434,47.278 47.981,47.278C49.024,47.278 49.546,48.05 49.546,49.593C49.546,50.352 49.404,50.939 49.121,51.352C48.838,51.765 48.429,51.972 47.893,51.972C46.827,51.972 46.294,51.214 46.294,49.698ZM47.252,49.675C47.252,50.722 47.475,51.245 47.923,51.245C48.362,51.245 48.582,50.706 48.582,49.628C48.582,48.546 48.368,48.005 47.94,48.005C47.481,48.005 47.252,48.561 47.252,49.675Z" style="fill-rule:nonzero;"/>
            <path d="M52.311,47.255L52.311,51.892L51.359,51.892L51.359,48.321C51.242,48.423 51.082,48.514 50.879,48.595C50.676,48.676 50.489,48.726 50.319,48.746L50.319,47.934C50.854,47.778 51.317,47.552 51.708,47.255L52.311,47.255Z" style="fill-rule:nonzero;"/>
            <rect x="53.917" y="49.821" width="1.731" height="0.668" style="fill-rule:nonzero;"/>
            <path d="M58.631,47.255L58.631,51.892L57.679,51.892L57.679,48.321C57.561,48.423 57.401,48.514 57.198,48.595C56.995,48.676 56.808,48.726 56.639,48.746L56.639,47.934C57.174,47.778 57.637,47.552 58.027,47.255L58.631,47.255Z" style="fill-rule:nonzero;"/>
            <path d="M62.952,48.201C62.722,48.07 62.471,48.005 62.199,48.005C61.849,48.005 61.57,48.142 61.36,48.416C61.15,48.691 61.045,49.046 61.045,49.481L61.062,49.481C61.279,49.149 61.6,48.983 62.026,48.983C62.407,48.983 62.709,49.114 62.933,49.374C63.157,49.635 63.268,49.974 63.268,50.392C63.268,50.849 63.123,51.227 62.832,51.525C62.541,51.823 62.169,51.972 61.716,51.972C61.196,51.972 60.798,51.784 60.522,51.409C60.245,51.034 60.107,50.52 60.107,49.868C60.107,49.1 60.286,48.477 60.645,47.997C61.003,47.518 61.502,47.278 62.141,47.278C62.484,47.278 62.755,47.319 62.952,47.401L62.952,48.201ZM61.077,50.401C61.077,50.636 61.136,50.835 61.253,50.999C61.37,51.163 61.524,51.245 61.716,51.245C61.909,51.245 62.061,51.17 62.173,51.019C62.284,50.869 62.34,50.681 62.34,50.454C62.34,49.944 62.13,49.689 61.71,49.689C61.52,49.689 61.368,49.757 61.251,49.891C61.135,50.026 61.077,50.196 61.077,50.401Z" style="fill-rule:nonzero;"/>
        </g>
        <g transform="matrix(1.198,0,0,0.958552,1049.8,-246.756)">
            <path d="M20.48,50.31L20.48,51.892L19.514,51.892L19.514,47.354L21.075,47.354C22.204,47.354 22.768,47.833 22.768,48.79C22.768,49.255 22.598,49.627 22.257,49.908C21.916,50.188 21.49,50.322 20.978,50.31L20.48,50.31ZM20.48,48.104L20.48,49.569L20.899,49.569C21.468,49.569 21.752,49.322 21.752,48.828C21.752,48.346 21.471,48.104 20.908,48.104L20.48,48.104Z" style="fill-rule:nonzero;"/>
            <path d="M23.173,49.683C23.173,48.973 23.38,48.394 23.795,47.948C24.21,47.501 24.759,47.278 25.44,47.278C26.089,47.278 26.611,47.494 27.006,47.926C27.402,48.357 27.599,48.912 27.599,49.59C27.599,50.297 27.394,50.87 26.983,51.311C26.572,51.751 26.033,51.972 25.367,51.972C24.717,51.972 24.188,51.758 23.782,51.331C23.376,50.905 23.173,50.355 23.173,49.683ZM24.189,49.631C24.189,50.072 24.296,50.433 24.509,50.713C24.722,50.994 25.014,51.134 25.385,51.134C25.764,51.134 26.058,50.999 26.269,50.731C26.48,50.462 26.586,50.101 26.586,49.648C26.586,49.176 26.483,48.802 26.278,48.528C26.073,48.253 25.784,48.116 25.411,48.116C25.032,48.116 24.734,48.257 24.516,48.538C24.298,48.819 24.189,49.183 24.189,49.631Z" style="fill-rule:nonzero;"/>
            <path d="M31.03,51.892L28.367,51.892L28.367,47.354L29.334,47.354L29.334,51.101L31.03,51.101L31.03,51.892Z" style="fill-rule:nonzero;"/>
            <path d="M34.563,47.354L33.081,50.272L33.081,51.892L32.114,51.892L32.114,50.29L30.673,47.354L31.777,47.354L32.539,49.089C32.555,49.124 32.591,49.243 32.647,49.446L32.659,49.446C32.682,49.309 32.715,49.193 32.756,49.098L33.538,47.354L34.563,47.354Z" style="fill-rule:nonzero;"/>
            <rect x="35.009" y="49.821" width="1.731" height="0.668" style="fill-rule:nonzero;"/>
            <rect x="37.698" y="47.354" width="0.967" height="4.538" style="fill-rule:nonzero;"/>
            <path d="M43.748,51.892L42.758,51.892L40.836,48.957C40.736,48.805 40.664,48.682 40.619,48.588L40.604,48.588C40.622,48.744 40.631,48.985 40.631,49.311L40.631,51.892L39.714,51.892L39.714,47.354L40.768,47.354L42.62,50.208C42.743,50.397 42.818,50.517 42.846,50.568L42.86,50.568C42.841,50.459 42.831,50.25 42.831,49.941L42.831,47.354L43.748,47.354L43.748,51.892Z" style="fill-rule:nonzero;"/>
            <path d="M48.611,47.255L48.611,51.892L47.659,51.892L47.659,48.321C47.542,48.423 47.382,48.514 47.179,48.595C46.975,48.676 46.789,48.726 46.619,48.746L46.619,47.934C47.154,47.778 47.617,47.552 48.008,47.255L48.611,47.255Z" style="fill-rule:nonzero;"/>
            <path d="M53.211,47.932C52.844,48.59 52.57,49.12 52.389,49.522C52.208,49.925 52.061,50.316 51.948,50.697C51.835,51.078 51.748,51.476 51.687,51.892L50.671,51.892C50.768,51.301 50.941,50.702 51.188,50.095C51.435,49.489 51.776,48.835 52.212,48.134L50.047,48.134L50.047,47.354L53.211,47.354L53.211,47.932Z" style="fill-rule:nonzero;"/>
            <rect x="53.917" y="49.821" width="1.731" height="0.668" style="fill-rule:nonzero;"/>
            <path d="M56.548,50.905C56.85,51.132 57.204,51.245 57.608,51.245C57.864,51.245 58.067,51.188 58.218,51.075C58.368,50.962 58.443,50.801 58.443,50.592C58.443,50.377 58.354,50.213 58.175,50.099C57.996,49.986 57.746,49.93 57.424,49.93L57.019,49.93L57.019,49.2L57.391,49.2C58.001,49.2 58.306,48.995 58.306,48.585C58.306,48.198 58.072,48.005 57.605,48.005C57.301,48.005 57.005,48.104 56.718,48.304L56.718,47.521C57.03,47.359 57.398,47.278 57.822,47.278C58.252,47.278 58.6,47.377 58.868,47.576C59.136,47.774 59.269,48.049 59.269,48.4C59.269,48.994 58.969,49.367 58.367,49.519L58.367,49.534C58.683,49.569 58.936,49.685 59.126,49.881C59.315,50.078 59.41,50.316 59.41,50.598C59.41,51.029 59.252,51.366 58.937,51.608C58.621,51.85 58.201,51.972 57.676,51.972C57.209,51.972 56.833,51.894 56.548,51.74L56.548,50.905Z" style="fill-rule:nonzero;"/>
            <path d="M61.191,51.104L63.116,51.104L63.116,51.892L60.099,51.892L60.099,51.556C60.099,51.319 60.142,51.103 60.229,50.908C60.316,50.713 60.435,50.531 60.588,50.362C60.74,50.193 60.976,49.995 61.297,49.768C61.59,49.55 61.795,49.356 61.912,49.187C62.029,49.018 62.088,48.839 62.088,48.649C62.088,48.241 61.865,48.037 61.42,48.037C61.029,48.037 60.656,48.193 60.301,48.506L60.301,47.662C60.697,47.406 61.142,47.278 61.637,47.278C62.09,47.278 62.448,47.394 62.712,47.625C62.975,47.857 63.107,48.176 63.107,48.582C63.107,48.808 63.069,49.013 62.993,49.196C62.917,49.378 62.807,49.55 62.662,49.71C62.517,49.87 62.286,50.062 61.968,50.287C61.661,50.506 61.455,50.675 61.349,50.794C61.244,50.913 61.191,51.016 61.191,51.104Z" style="fill-rule:nonzero;"/>
        </g>
    </g>
    <defs>
        <linearGradient id="_Linear1" x1="0" y1="0" x2="1" y2="0" gradientUnits="userSpaceOnUse" gradientTransform="matrix(9.31062e-17,1.52054,-1.52054,9.31062e-17,1036.87,122.284)"><stop offset="0" style="stop-color:rgb(165,165,165);stop-opacity:1"/><stop offset="1" style="stop-color:black;stop-opacity:1"/></linearGradient>
    </defs>
</svg>
