<?xml version="1.0" encoding="UTF-8" standalone="no"?>
<!DOCTYPE svg PUBLIC "-//W3C//DTD SVG 1.1//EN" "http://www.w3.org/Graphics/SVG/1.1/DTD/svg11.dtd">
<svg width="121px" height="380px" version="1.1" xmlns="http://www.w3.org/2000/svg" xmlns:xlink="http://www.w3.org/1999/xlink" xml:space="preserve" xmlns:serif="http://www.serif.com/" style="fill-rule:evenodd;clip-rule:evenodd;stroke-linejoin:round;stroke-miterlimit:1.41421;">
    <g id="Layer-1" serif:id="Layer 1" transform="matrix(0.834722,0,0,1.04324,-803.837,250.623)">
        <g transform="matrix(2.3893,0,0,0.958553,963,-240.235)">
            <rect x="0" y="0" width="60" height="380" style="fill:rgb(229,229,229);"/>
        </g>
        <g transform="matrix(0.8273,0,0,1.44687,989.707,-653.268)">
            <rect x="-30.034" y="347.456" width="169.102" height="16.91" style="fill:rgb(161,158,158);"/>
        </g>
        <g transform="matrix(0.8273,0,0,1.55539,989.707,-449.709)">
            <rect x="-30.034" y="347.456" width="169.102" height="16.91" style="fill:rgb(161,158,158);"/>
        </g>
        <path id="path40444" d="M1107,-240.235L963,-240.235L963,124.015L1107,124.015L1107,-240.235ZM1106.47,123.484L963.531,123.484L963.531,-239.708L1106.47,-239.708L1106.47,123.484Z" style="fill:rgb(81,85,88);fill-rule:nonzero;"/>
        <rect id="path3052" x="963.532" y="121.41" width="142.941" height="2.074" style="fill:url(#_Linear1);fill-rule:nonzero;"/>
        <g id="Layer1" transform="matrix(1.198,0,0,1,947.426,-240.235)">
            <g transform="matrix(1,0,0,0.958553,39.9003,46.3611)">
                <g id="text1122">
                    <path d="M-11.153,-1.582L-11.153,0L-12.12,0L-12.12,-4.538L-10.559,-4.538C-9.43,-4.538 -8.865,-4.06 -8.865,-3.103C-8.865,-2.638 -9.036,-2.265 -9.376,-1.985C-9.717,-1.705 -10.144,-1.57 -10.655,-1.582L-11.153,-1.582ZM-11.153,-3.788L-11.153,-2.323L-10.734,-2.323C-10.166,-2.323 -9.882,-2.57 -9.882,-3.064C-9.882,-3.547 -10.163,-3.788 -10.726,-3.788L-11.153,-3.788Z" style="fill-rule:nonzero;"/>
                    <path d="M-8.461,-2.209C-8.461,-2.92 -8.253,-3.499 -7.838,-3.945C-7.423,-4.391 -6.875,-4.614 -6.193,-4.614C-5.545,-4.614 -5.023,-4.398 -4.627,-3.967C-4.232,-3.535 -4.034,-2.98 -4.034,-2.303C-4.034,-1.596 -4.24,-1.022 -4.651,-0.582C-5.062,-0.141 -5.601,0.079 -6.267,0.079C-6.917,0.079 -7.445,-0.134 -7.852,-0.561C-8.258,-0.988 -8.461,-1.537 -8.461,-2.209ZM-7.444,-2.262C-7.444,-1.82 -7.338,-1.459 -7.125,-1.179C-6.912,-0.899 -6.62,-0.759 -6.249,-0.759C-5.87,-0.759 -5.575,-0.893 -5.364,-1.162C-5.153,-1.43 -5.048,-1.791 -5.048,-2.244C-5.048,-2.717 -5.15,-3.09 -5.355,-3.365C-5.561,-3.639 -5.85,-3.776 -6.223,-3.776C-6.602,-3.776 -6.9,-3.636 -7.118,-3.354C-7.335,-3.073 -7.444,-2.709 -7.444,-2.262Z" style="fill-rule:nonzero;"/>
                    <path d="M-0.604,0L-3.267,0L-3.267,-4.538L-2.3,-4.538L-2.3,-0.791L-0.604,-0.791L-0.604,0Z" style="fill-rule:nonzero;"/>
                    <path d="M2.93,-4.538L1.447,-1.62L1.447,0L0.48,0L0.48,-1.603L-0.961,-4.538L0.144,-4.538L0.905,-2.804C0.921,-2.769 0.957,-2.649 1.014,-2.446L1.025,-2.446C1.049,-2.583 1.081,-2.699 1.122,-2.795L1.904,-4.538L2.93,-4.538Z" style="fill-rule:nonzero;"/>
                    <rect x="3.375" y="-2.071" width="1.731" height="0.668" style="fill-rule:nonzero;"/>
                    <rect x="6.064" y="-4.538" width="0.967" height="4.538" style="fill-rule:nonzero;"/>
                    <path d="M12.114,0L11.124,0L9.202,-2.936C9.103,-3.088 9.03,-3.211 8.985,-3.305L8.971,-3.305C8.988,-3.148 8.997,-2.907 8.997,-2.581L8.997,0L8.08,0L8.08,-4.538L9.135,-4.538L10.986,-1.685C11.109,-1.495 11.185,-1.375 11.212,-1.324L11.227,-1.324C11.207,-1.434 11.197,-1.643 11.197,-1.951L11.197,-4.538L12.114,-4.538L12.114,0Z" style="fill-rule:nonzero;"/>
                </g>
            </g>
            <g transform="matrix(1,0,0,0.958553,73.1885,353.42)">
                <g id="text11221" serif:id="text1122">
                    <g>
                        <path d="M-11.644,-3.338L-11.644,-2.997L-12.471,-2.997L-12.471,-7.191L-11.644,-7.191L-11.644,-5.398L-11.633,-5.398C-11.417,-5.732 -11.107,-5.9 -10.706,-5.9C-10.349,-5.9 -10.069,-5.775 -9.867,-5.526C-9.665,-5.276 -9.563,-4.932 -9.563,-4.493C-9.563,-4.024 -9.68,-3.645 -9.912,-3.358C-10.144,-3.071 -10.452,-2.928 -10.837,-2.928C-11.189,-2.928 -11.454,-3.064 -11.633,-3.338L-11.644,-3.338ZM-11.657,-4.222C-11.657,-4.035 -11.601,-3.879 -11.49,-3.753C-11.379,-3.626 -11.238,-3.563 -11.067,-3.563C-10.861,-3.563 -10.7,-3.643 -10.584,-3.804C-10.469,-3.965 -10.411,-4.192 -10.411,-4.486C-10.411,-4.73 -10.464,-4.921 -10.569,-5.058C-10.674,-5.196 -10.824,-5.264 -11.019,-5.264C-11.203,-5.264 -11.356,-5.195 -11.476,-5.057C-11.596,-4.919 -11.657,-4.741 -11.657,-4.524L-11.657,-4.222Z" style="fill-rule:nonzero;"/>
                        <path d="M-7.244,-1.182L-4.357,-1.182L-4.357,0L-8.883,0L-8.883,-0.505C-8.883,-0.86 -8.818,-1.184 -8.688,-1.477C-8.557,-1.77 -8.378,-2.043 -8.149,-2.296C-7.921,-2.55 -7.566,-2.846 -7.086,-3.186C-6.646,-3.514 -6.339,-3.805 -6.163,-4.058C-5.987,-4.312 -5.899,-4.581 -5.899,-4.865C-5.899,-5.477 -6.233,-5.783 -6.901,-5.783C-7.487,-5.783 -8.047,-5.549 -8.58,-5.08L-8.58,-6.346C-7.985,-6.729 -7.317,-6.921 -6.576,-6.921C-5.896,-6.921 -5.359,-6.748 -4.963,-6.401C-4.568,-6.053 -4.37,-5.575 -4.37,-4.966C-4.37,-4.626 -4.427,-4.319 -4.541,-4.045C-4.656,-3.771 -4.821,-3.514 -5.038,-3.274C-5.255,-3.034 -5.602,-2.745 -6.079,-2.408C-6.539,-2.08 -6.848,-1.827 -7.007,-1.648C-7.165,-1.469 -7.244,-1.314 -7.244,-1.182Z" style="fill-rule:nonzero;"/>
                        <path d="M-3.46,-3.292C-3.46,-4.469 -3.243,-5.369 -2.81,-5.99C-2.376,-6.611 -1.749,-6.921 -0.929,-6.921C0.635,-6.921 1.418,-5.764 1.418,-3.45C1.418,-2.31 1.205,-1.43 0.78,-0.811C0.356,-0.191 -0.258,0.119 -1.061,0.119C-2.66,0.119 -3.46,-1.018 -3.46,-3.292ZM-2.023,-3.327C-2.023,-1.756 -1.688,-0.971 -1.017,-0.971C-0.358,-0.971 -0.028,-1.78 -0.028,-3.397C-0.028,-5.02 -0.349,-5.832 -0.991,-5.832C-1.679,-5.832 -2.023,-4.997 -2.023,-3.327Z" style="fill-rule:nonzero;"/>
                        <path d="M5.566,-6.957L5.566,0L4.138,0L4.138,-5.357C3.962,-5.205 3.722,-5.068 3.417,-4.946C3.113,-4.824 2.833,-4.749 2.578,-4.72L2.578,-5.937C3.381,-6.171 4.075,-6.511 4.661,-6.957L5.566,-6.957Z" style="fill-rule:nonzero;"/>
                        <path d="M9.407,-1.182L12.294,-1.182L12.294,0L7.768,0L7.768,-0.505C7.768,-0.86 7.833,-1.184 7.963,-1.477C8.094,-1.77 8.273,-2.043 8.502,-2.296C8.73,-2.55 9.085,-2.846 9.565,-3.186C10.005,-3.514 10.312,-3.805 10.488,-4.058C10.664,-4.312 10.752,-4.581 10.752,-4.865C10.752,-5.477 10.418,-5.783 9.75,-5.783C9.164,-5.783 8.604,-5.549 8.071,-5.08L8.071,-6.346C8.666,-6.729 9.334,-6.921 10.075,-6.921C10.755,-6.921 11.292,-6.748 11.688,-6.401C12.083,-6.053 12.281,-5.575 12.281,-4.966C12.281,-4.626 12.224,-4.319 12.11,-4.045C11.995,-3.771 11.83,-3.514 11.613,-3.274C11.396,-3.034 11.049,-2.745 10.572,-2.408C10.112,-2.08 9.802,-1.827 9.644,-1.648C9.486,-1.469 9.407,-1.314 9.407,-1.182Z" style="fill-rule:nonzero;"/>
                    </g>
                </g>
            </g>
            <g transform="matrix(1,0,0,1,73.0555,33.5386)">
                <g id="text352">
                    <path d="M-45.571,-3.625L-46.83,0L-47.703,0L-48.946,-3.625L-48.113,-3.625L-47.329,-1.062C-47.29,-0.936 -47.265,-0.817 -47.256,-0.704L-47.242,-0.704C-47.229,-0.82 -47.203,-0.942 -47.162,-1.072L-46.378,-3.625L-45.571,-3.625Z" style="fill:rgb(102,102,102);fill-rule:nonzero;"/>
                    <path d="M-45.365,-1.765C-45.365,-2.332 -45.199,-2.795 -44.868,-3.151C-44.536,-3.508 -44.098,-3.686 -43.554,-3.686C-43.036,-3.686 -42.619,-3.513 -42.303,-3.169C-41.987,-2.824 -41.829,-2.381 -41.829,-1.839C-41.829,-1.275 -41.993,-0.816 -42.322,-0.465C-42.65,-0.113 -43.08,0.063 -43.612,0.063C-44.132,0.063 -44.554,-0.107 -44.878,-0.448C-45.203,-0.789 -45.365,-1.228 -45.365,-1.765ZM-44.553,-1.807C-44.553,-1.454 -44.468,-1.166 -44.298,-0.942C-44.128,-0.718 -43.895,-0.606 -43.598,-0.606C-43.296,-0.606 -43.06,-0.713 -42.891,-0.928C-42.723,-1.142 -42.639,-1.431 -42.639,-1.793C-42.639,-2.17 -42.721,-2.469 -42.884,-2.688C-43.048,-2.907 -43.279,-3.017 -43.577,-3.017C-43.88,-3.017 -44.118,-2.904 -44.292,-2.68C-44.466,-2.455 -44.553,-2.164 -44.553,-1.807Z" style="fill:rgb(102,102,102);fill-rule:nonzero;"/>
                    <path d="M-39.089,0L-41.216,0L-41.216,-3.625L-40.444,-3.625L-40.444,-0.632L-39.089,-0.632L-39.089,0Z" style="fill:rgb(102,102,102);fill-rule:nonzero;"/>
                    <path d="M-36.428,-2.993L-37.462,-2.993L-37.462,0L-38.237,0L-38.237,-2.993L-39.269,-2.993L-39.269,-3.625L-36.428,-3.625L-36.428,-2.993Z" style="fill:rgb(102,102,102);fill-rule:nonzero;"/>
                    <path d="M-33.149,0L-33.992,0L-34.263,-0.831L-35.581,-0.831L-35.847,0L-36.685,0L-35.358,-3.625L-34.45,-3.625L-33.149,0ZM-34.446,-1.428L-34.858,-2.684C-34.884,-2.764 -34.903,-2.869 -34.914,-3L-34.935,-3C-34.944,-2.894 -34.965,-2.792 -34.998,-2.694L-35.412,-1.428L-34.446,-1.428Z" style="fill:rgb(102,102,102);fill-rule:nonzero;"/>
                    <path d="M-29.8,-0.243C-30.154,-0.039 -30.59,0.063 -31.106,0.063C-31.683,0.063 -32.139,-0.099 -32.473,-0.424C-32.807,-0.748 -32.974,-1.192 -32.974,-1.755C-32.974,-2.326 -32.79,-2.791 -32.423,-3.149C-32.055,-3.507 -31.571,-3.686 -30.97,-3.686C-30.584,-3.686 -30.246,-3.631 -29.957,-3.522L-29.957,-2.79C-30.238,-2.953 -30.581,-3.035 -30.987,-3.035C-31.336,-3.035 -31.619,-2.921 -31.836,-2.694C-32.053,-2.466 -32.162,-2.165 -32.162,-1.793C-32.162,-1.413 -32.064,-1.118 -31.868,-0.906C-31.672,-0.693 -31.405,-0.587 -31.066,-0.587C-30.865,-0.587 -30.701,-0.619 -30.573,-0.681L-30.573,-1.425L-31.305,-1.425L-31.305,-2.045L-29.8,-2.045L-29.8,-0.243Z" style="fill:rgb(102,102,102);fill-rule:nonzero;"/>
                    <path d="M-26.934,0L-29.08,0L-29.08,-3.625L-27.018,-3.625L-27.018,-2.993L-28.307,-2.993L-28.307,-2.139L-27.109,-2.139L-27.109,-1.509L-28.307,-1.509L-28.307,-0.632L-26.934,-0.632L-26.934,0Z" style="fill:rgb(102,102,102);fill-rule:nonzero;"/>
                    <path d="M-22.326,-0.131C-22.589,-0.002 -22.933,0.063 -23.358,0.063C-23.904,0.063 -24.337,-0.1 -24.658,-0.427C-24.978,-0.754 -25.139,-1.19 -25.139,-1.734C-25.139,-2.307 -24.96,-2.775 -24.602,-3.139C-24.243,-3.504 -23.781,-3.686 -23.215,-3.686C-22.861,-3.686 -22.564,-3.64 -22.326,-3.548L-22.326,-2.801C-22.571,-2.945 -22.848,-3.017 -23.159,-3.017C-23.513,-3.017 -23.796,-2.903 -24.008,-2.677C-24.22,-2.451 -24.327,-2.155 -24.327,-1.79C-24.327,-1.435 -24.226,-1.148 -24.025,-0.931C-23.823,-0.715 -23.551,-0.606 -23.208,-0.606C-22.885,-0.606 -22.591,-0.684 -22.326,-0.84L-22.326,-0.131Z" style="fill:rgb(102,102,102);fill-rule:nonzero;"/>
                    <path d="M-21.975,-1.765C-21.975,-2.332 -21.809,-2.795 -21.477,-3.151C-21.146,-3.508 -20.708,-3.686 -20.163,-3.686C-19.645,-3.686 -19.228,-3.513 -18.912,-3.169C-18.597,-2.824 -18.439,-2.381 -18.439,-1.839C-18.439,-1.275 -18.603,-0.816 -18.931,-0.465C-19.26,-0.113 -19.69,0.063 -20.222,0.063C-20.741,0.063 -21.163,-0.107 -21.488,-0.448C-21.812,-0.789 -21.975,-1.228 -21.975,-1.765ZM-21.163,-1.807C-21.163,-1.454 -21.078,-1.166 -20.907,-0.942C-20.737,-0.718 -20.504,-0.606 -20.208,-0.606C-19.905,-0.606 -19.67,-0.713 -19.501,-0.928C-19.333,-1.142 -19.248,-1.431 -19.248,-1.793C-19.248,-2.17 -19.33,-2.469 -19.494,-2.688C-19.658,-2.907 -19.889,-3.017 -20.187,-3.017C-20.489,-3.017 -20.728,-2.904 -20.902,-2.68C-21.076,-2.455 -21.163,-2.164 -21.163,-1.807Z" style="fill:rgb(102,102,102);fill-rule:nonzero;"/>
                    <path d="M-14.603,0L-15.394,0L-16.929,-2.345C-17.009,-2.467 -17.066,-2.565 -17.102,-2.64L-17.114,-2.64C-17.1,-2.515 -17.093,-2.322 -17.093,-2.062L-17.093,0L-17.825,0L-17.825,-3.625L-16.983,-3.625L-15.504,-1.346C-15.406,-1.194 -15.346,-1.098 -15.324,-1.058L-15.312,-1.058C-15.328,-1.145 -15.335,-1.312 -15.335,-1.559L-15.335,-3.625L-14.603,-3.625L-14.603,0Z" style="fill:rgb(102,102,102);fill-rule:nonzero;"/>
                    <path d="M-11.259,-2.993L-12.293,-2.993L-12.293,0L-13.068,0L-13.068,-2.993L-14.1,-2.993L-14.1,-3.625L-11.259,-3.625L-11.259,-2.993Z" style="fill:rgb(102,102,102);fill-rule:nonzero;"/>
                    <path d="M-7.772,0L-8.661,0L-9.23,-0.943C-9.347,-1.138 -9.443,-1.264 -9.518,-1.32C-9.593,-1.376 -9.672,-1.404 -9.756,-1.404L-9.99,-1.404L-9.99,0L-10.763,0L-10.763,-3.625L-9.492,-3.625C-8.629,-3.625 -8.198,-3.297 -8.198,-2.642C-8.198,-2.396 -8.27,-2.184 -8.414,-2.008C-8.559,-1.832 -8.757,-1.708 -9.01,-1.636L-9.01,-1.626C-8.843,-1.57 -8.658,-1.386 -8.455,-1.074L-7.772,0ZM-9.99,-3.038L-9.99,-1.994L-9.611,-1.994C-9.43,-1.994 -9.285,-2.047 -9.175,-2.152C-9.065,-2.257 -9.01,-2.389 -9.01,-2.546C-9.01,-2.874 -9.206,-3.038 -9.597,-3.038L-9.99,-3.038Z" style="fill:rgb(102,102,102);fill-rule:nonzero;"/>
                    <path d="M-7.697,-1.765C-7.697,-2.332 -7.531,-2.795 -7.2,-3.151C-6.868,-3.508 -6.43,-3.686 -5.886,-3.686C-5.368,-3.686 -4.951,-3.513 -4.635,-3.169C-4.319,-2.824 -4.161,-2.381 -4.161,-1.839C-4.161,-1.275 -4.325,-0.816 -4.654,-0.465C-4.982,-0.113 -5.412,0.063 -5.944,0.063C-6.464,0.063 -6.886,-0.107 -7.21,-0.448C-7.535,-0.789 -7.697,-1.228 -7.697,-1.765ZM-6.885,-1.807C-6.885,-1.454 -6.8,-1.166 -6.63,-0.942C-6.46,-0.718 -6.227,-0.606 -5.93,-0.606C-5.627,-0.606 -5.392,-0.713 -5.223,-0.928C-5.055,-1.142 -4.971,-1.431 -4.971,-1.793C-4.971,-2.17 -5.053,-2.469 -5.216,-2.688C-5.38,-2.907 -5.611,-3.017 -5.909,-3.017C-6.212,-3.017 -6.45,-2.904 -6.624,-2.68C-6.798,-2.455 -6.885,-2.164 -6.885,-1.807Z" style="fill:rgb(102,102,102);fill-rule:nonzero;"/>
                    <path d="M-1.421,0L-3.548,0L-3.548,-3.625L-2.775,-3.625L-2.775,-0.632L-1.421,-0.632L-1.421,0Z" style="fill:rgb(102,102,102);fill-rule:nonzero;"/>
                    <path d="M1.201,0L-0.927,0L-0.927,-3.625L-0.154,-3.625L-0.154,-0.632L1.201,-0.632L1.201,0Z" style="fill:rgb(102,102,102);fill-rule:nonzero;"/>
                    <path d="M3.84,0L1.694,0L1.694,-3.625L3.756,-3.625L3.756,-2.993L2.467,-2.993L2.467,-2.139L3.665,-2.139L3.665,-1.509L2.467,-1.509L2.467,-0.632L3.84,-0.632L3.84,0Z" style="fill:rgb(102,102,102);fill-rule:nonzero;"/>
                    <path d="M4.435,0L4.435,-3.625L5.687,-3.625C6.974,-3.625 7.617,-3.036 7.617,-1.858C7.617,-1.298 7.437,-0.848 7.077,-0.509C6.716,-0.17 6.251,0 5.682,0L4.435,0ZM5.207,-2.993L5.207,-0.632L5.628,-0.632C5.995,-0.632 6.283,-0.741 6.492,-0.959C6.701,-1.178 6.805,-1.474 6.805,-1.846C6.805,-2.207 6.696,-2.488 6.478,-2.69C6.259,-2.892 5.975,-2.993 5.626,-2.993L5.207,-2.993Z" style="fill:rgb(102,102,102);fill-rule:nonzero;"/>
                    <path d="M10.428,-1.264L10.428,0L9.656,0L9.656,-3.625L10.903,-3.625C11.805,-3.625 12.256,-3.243 12.256,-2.478C12.256,-2.107 12.12,-1.809 11.847,-1.585C11.575,-1.362 11.235,-1.254 10.826,-1.264L10.428,-1.264ZM10.428,-3.026L10.428,-1.856L10.763,-1.856C11.217,-1.856 11.444,-2.053 11.444,-2.448C11.444,-2.833 11.219,-3.026 10.77,-3.026L10.428,-3.026Z" style="fill:rgb(102,102,102);fill-rule:nonzero;"/>
                    <path d="M15.635,0L14.793,0L14.521,-0.831L13.204,-0.831L12.937,0L12.099,0L13.426,-3.625L14.334,-3.625L15.635,0ZM14.339,-1.428L13.927,-2.684C13.9,-2.764 13.881,-2.869 13.87,-3L13.849,-3C13.84,-2.894 13.819,-2.792 13.786,-2.694L13.372,-1.428L14.339,-1.428Z" style="fill:rgb(102,102,102);fill-rule:nonzero;"/>
                    <path d="M19.084,0L18.195,0L17.627,-0.943C17.509,-1.138 17.414,-1.264 17.339,-1.32C17.264,-1.376 17.184,-1.404 17.1,-1.404L16.866,-1.404L16.866,0L16.094,0L16.094,-3.625L17.364,-3.625C18.227,-3.625 18.659,-3.297 18.659,-2.642C18.659,-2.396 18.586,-2.184 18.442,-2.008C18.298,-1.832 18.099,-1.708 17.846,-1.636L17.846,-1.626C18.013,-1.57 18.198,-1.386 18.401,-1.074L19.084,0ZM16.866,-3.038L16.866,-1.994L17.245,-1.994C17.426,-1.994 17.572,-2.047 17.682,-2.152C17.791,-2.257 17.846,-2.389 17.846,-2.546C17.846,-2.874 17.651,-3.038 17.259,-3.038L16.866,-3.038Z" style="fill:rgb(102,102,102);fill-rule:nonzero;"/>
                    <path d="M22.585,0L21.743,0L21.471,-0.831L20.154,-0.831L19.887,0L19.049,0L20.376,-3.625L21.284,-3.625L22.585,0ZM21.289,-1.428L20.877,-2.684C20.851,-2.764 20.832,-2.869 20.821,-3L20.8,-3C20.79,-2.894 20.769,-2.792 20.737,-2.694L20.322,-1.428L21.289,-1.428Z" style="fill:rgb(102,102,102);fill-rule:nonzero;"/>
                    <rect x="22.986" y="-1.655" width="1.383" height="0.534" style="fill:rgb(102,102,102);fill-rule:nonzero;"/>
                    <path d="M24.909,-1.765C24.909,-2.332 25.075,-2.795 25.407,-3.151C25.738,-3.508 26.176,-3.686 26.721,-3.686C27.239,-3.686 27.656,-3.513 27.971,-3.169C28.287,-2.824 28.445,-2.381 28.445,-1.839C28.445,-1.275 28.281,-0.816 27.953,-0.465C27.624,-0.113 27.194,0.063 26.662,0.063C26.143,0.063 25.721,-0.107 25.396,-0.448C25.072,-0.789 24.909,-1.228 24.909,-1.765ZM25.721,-1.807C25.721,-1.454 25.806,-1.166 25.976,-0.942C26.146,-0.718 26.38,-0.606 26.676,-0.606C26.979,-0.606 27.214,-0.713 27.383,-0.928C27.551,-1.142 27.636,-1.431 27.636,-1.793C27.636,-2.17 27.554,-2.469 27.39,-2.688C27.226,-2.907 26.995,-3.017 26.697,-3.017C26.395,-3.017 26.156,-2.904 25.982,-2.68C25.808,-2.455 25.721,-2.164 25.721,-1.807Z" style="fill:rgb(102,102,102);fill-rule:nonzero;"/>
                    <rect x="29" y="-1.655" width="1.383" height="0.534" style="fill:rgb(102,102,102);fill-rule:nonzero;"/>
                    <path d="M34.469,0L34.469,-2.2C34.469,-2.403 34.479,-2.658 34.499,-2.965L34.481,-2.965C34.434,-2.733 34.396,-2.577 34.368,-2.499L33.474,0L32.859,0L31.953,-2.476C31.931,-2.535 31.893,-2.698 31.839,-2.965L31.818,-2.965C31.838,-2.661 31.848,-2.356 31.848,-2.05L31.848,0L31.151,0L31.151,-3.625L32.274,-3.625L33.056,-1.435C33.121,-1.254 33.166,-1.084 33.189,-0.924L33.205,-0.924C33.254,-1.123 33.304,-1.294 33.355,-1.439L34.139,-3.625L35.232,-3.625L35.232,0L34.469,0Z" style="fill:rgb(102,102,102);fill-rule:nonzero;"/>
                    <path d="M39.224,0L38.382,0L38.11,-0.831L36.793,-0.831L36.526,0L35.688,0L37.015,-3.625L37.923,-3.625L39.224,0ZM37.928,-1.428L37.516,-2.684C37.489,-2.764 37.471,-2.869 37.46,-3L37.439,-3C37.429,-2.894 37.408,-2.792 37.376,-2.694L36.961,-1.428L37.928,-1.428Z" style="fill:rgb(102,102,102);fill-rule:nonzero;"/>
                    <path d="M41.822,-2.993L40.788,-2.993L40.788,0L40.013,0L40.013,-2.993L38.981,-2.993L38.981,-3.625L41.822,-3.625L41.822,-2.993Z" style="fill:rgb(102,102,102);fill-rule:nonzero;"/>
                    <path d="M41.895,-1.765C41.895,-2.332 42.06,-2.795 42.392,-3.151C42.723,-3.508 43.161,-3.686 43.706,-3.686C44.224,-3.686 44.641,-3.513 44.957,-3.169C45.273,-2.824 45.431,-2.381 45.431,-1.839C45.431,-1.275 45.266,-0.816 44.938,-0.465C44.61,-0.113 44.179,0.063 43.647,0.063C43.128,0.063 42.706,-0.107 42.381,-0.448C42.057,-0.789 41.895,-1.228 41.895,-1.765ZM42.707,-1.807C42.707,-1.454 42.792,-1.166 42.962,-0.942C43.132,-0.718 43.365,-0.606 43.661,-0.606C43.964,-0.606 44.2,-0.713 44.368,-0.928C44.537,-1.142 44.621,-1.431 44.621,-1.793C44.621,-2.17 44.539,-2.469 44.375,-2.688C44.211,-2.907 43.98,-3.017 43.682,-3.017C43.38,-3.017 43.141,-2.904 42.968,-2.68C42.794,-2.455 42.707,-2.164 42.707,-1.807Z" style="fill:rgb(102,102,102);fill-rule:nonzero;"/>
                    <path d="M49.035,0L48.145,0L47.577,-0.943C47.46,-1.138 47.364,-1.264 47.289,-1.32C47.214,-1.376 47.134,-1.404 47.05,-1.404L46.816,-1.404L46.816,0L46.044,0L46.044,-3.625L47.314,-3.625C48.177,-3.625 48.609,-3.297 48.609,-2.642C48.609,-2.396 48.536,-2.184 48.392,-2.008C48.248,-1.832 48.049,-1.708 47.797,-1.636L47.797,-1.626C47.964,-1.57 48.148,-1.386 48.351,-1.074L49.035,0ZM46.816,-3.038L46.816,-1.994L47.195,-1.994C47.376,-1.994 47.522,-2.047 47.632,-2.152C47.742,-2.257 47.797,-2.389 47.797,-2.546C47.797,-2.874 47.601,-3.038 47.209,-3.038L46.816,-3.038Z" style="fill:rgb(102,102,102);fill-rule:nonzero;"/>
                </g>
            </g>
            <g transform="matrix(1,0,0,1,73.027,26.1939)">
                <g id="text131">
                    <path d="M-17.302,-0.315C-17.934,-0.004 -18.76,0.152 -19.779,0.152C-21.089,0.152 -22.129,-0.241 -22.899,-1.025C-23.668,-1.809 -24.053,-2.855 -24.053,-4.162C-24.053,-5.536 -23.623,-6.66 -22.764,-7.535C-21.904,-8.409 -20.795,-8.846 -19.436,-8.846C-18.586,-8.846 -17.875,-8.736 -17.302,-8.515L-17.302,-6.723C-17.89,-7.067 -18.556,-7.24 -19.301,-7.24C-20.151,-7.24 -20.831,-6.968 -21.34,-6.425C-21.849,-5.882 -22.104,-5.173 -22.104,-4.297C-22.104,-3.443 -21.862,-2.756 -21.379,-2.235C-20.896,-1.715 -20.243,-1.455 -19.419,-1.455C-18.644,-1.455 -17.938,-1.642 -17.302,-2.016L-17.302,-0.315Z" style="fill-rule:nonzero;"/>
                    <path d="M-8.607,-8.7L-11.629,0L-13.724,0L-16.706,-8.7L-14.707,-8.7L-12.825,-2.55C-12.732,-2.247 -12.674,-1.96 -12.651,-1.691L-12.618,-1.691C-12.588,-1.968 -12.524,-2.262 -12.427,-2.572L-10.545,-8.7L-8.607,-8.7Z" style="fill-rule:nonzero;"/>
                    <rect x="-7.681" y="-3.971" width="3.319" height="1.281" style="fill-rule:nonzero;"/>
                    <path d="M5.445,0L5.445,-5.28C5.445,-5.766 5.47,-6.378 5.518,-7.116L5.473,-7.116C5.361,-6.558 5.271,-6.186 5.204,-5.998L3.058,0L1.581,0L-0.593,-5.942C-0.645,-6.085 -0.737,-6.476 -0.868,-7.116L-0.918,-7.116C-0.87,-6.386 -0.845,-5.654 -0.845,-4.92L-0.845,0L-2.519,0L-2.519,-8.7L0.177,-8.7L2.053,-3.443C2.21,-3.009 2.317,-2.6 2.373,-2.219L2.412,-2.219C2.528,-2.694 2.648,-3.106 2.772,-3.454L4.653,-8.7L7.276,-8.7L7.276,0L5.445,0Z" style="fill-rule:nonzero;"/>
                    <path d="M16.858,0L14.836,0L14.185,-1.994L11.022,-1.994L10.382,0L8.371,0L11.556,-8.7L13.735,-8.7L16.858,0ZM13.746,-3.426L12.758,-6.442C12.694,-6.633 12.649,-6.886 12.623,-7.2L12.573,-7.2C12.55,-6.946 12.5,-6.701 12.421,-6.465L11.427,-3.426L13.746,-3.426Z" style="fill-rule:nonzero;"/>
                    <path d="M19.812,-3.033L19.812,0L17.959,0L17.959,-8.7L20.952,-8.7C23.117,-8.7 24.199,-7.783 24.199,-5.948C24.199,-5.057 23.872,-4.343 23.219,-3.805C22.565,-3.268 21.748,-3.01 20.767,-3.033L19.812,-3.033ZM19.812,-7.262L19.812,-4.454L20.615,-4.454C21.705,-4.454 22.25,-4.928 22.25,-5.875C22.25,-6.8 21.711,-7.262 20.632,-7.262L19.812,-7.262Z" style="fill-rule:nonzero;"/>
                </g>
            </g>
            <g transform="matrix(1,0,0,1,98.9014,46.359)">
                <g id="text165">
                    <path d="M-12.679,-0.157C-12.996,-0.002 -13.409,0.076 -13.918,0.076C-14.573,0.076 -15.093,-0.12 -15.478,-0.513C-15.862,-0.905 -16.055,-1.428 -16.055,-2.081C-16.055,-2.768 -15.84,-3.33 -15.41,-3.767C-14.981,-4.204 -14.426,-4.423 -13.746,-4.423C-13.321,-4.423 -12.966,-4.368 -12.679,-4.257L-12.679,-3.361C-12.973,-3.534 -13.306,-3.62 -13.679,-3.62C-14.104,-3.62 -14.444,-3.484 -14.698,-3.213C-14.953,-2.941 -15.08,-2.586 -15.08,-2.148C-15.08,-1.721 -14.96,-1.378 -14.718,-1.118C-14.477,-0.857 -14.15,-0.727 -13.738,-0.727C-13.35,-0.727 -12.998,-0.821 -12.679,-1.008L-12.679,-0.157Z" style="fill-rule:nonzero;"/>
                    <path d="M-8.203,0L-9.13,0L-9.13,-1.794L-10.983,-1.794L-10.983,0L-11.91,0L-11.91,-4.35L-10.983,-4.35L-10.983,-2.595L-9.13,-2.595L-9.13,-4.35L-8.203,-4.35L-8.203,0Z" style="fill-rule:nonzero;"/>
                    <path d="M-3.412,0L-4.423,0L-4.749,-0.997L-6.33,-0.997L-6.65,0L-7.655,0L-6.063,-4.35L-4.973,-4.35L-3.412,0ZM-4.968,-1.713L-5.462,-3.221C-5.494,-3.317 -5.516,-3.443 -5.529,-3.6L-5.555,-3.6C-5.566,-3.473 -5.591,-3.35 -5.631,-3.232L-6.128,-1.713L-4.968,-1.713Z" style="fill-rule:nonzero;"/>
                    <path d="M1.005,0L0.056,0L-1.786,-2.814C-1.882,-2.96 -1.951,-3.078 -1.994,-3.168L-2.008,-3.168C-1.991,-3.018 -1.983,-2.787 -1.983,-2.474L-1.983,0L-2.862,0L-2.862,-4.35L-1.851,-4.35L-0.076,-1.615C0.042,-1.433 0.114,-1.318 0.14,-1.269L0.154,-1.269C0.136,-1.374 0.126,-1.574 0.126,-1.87L0.126,-4.35L1.005,-4.35L1.005,0Z" style="fill-rule:nonzero;"/>
                    <path d="M5.883,0L4.934,0L3.092,-2.814C2.996,-2.96 2.927,-3.078 2.884,-3.168L2.87,-3.168C2.887,-3.018 2.895,-2.787 2.895,-2.474L2.895,0L2.016,0L2.016,-4.35L3.027,-4.35L4.802,-1.615C4.92,-1.433 4.992,-1.318 5.018,-1.269L5.032,-1.269C5.014,-1.374 5.004,-1.574 5.004,-1.87L5.004,-4.35L5.883,-4.35L5.883,0Z" style="fill-rule:nonzero;"/>
                    <path d="M9.469,0L6.894,0L6.894,-4.35L9.368,-4.35L9.368,-3.592L7.821,-3.592L7.821,-2.567L9.259,-2.567L9.259,-1.811L7.821,-1.811L7.821,-0.758L9.469,-0.758L9.469,0Z" style="fill-rule:nonzero;"/>
                    <path d="M12.735,0L10.183,0L10.183,-4.35L11.109,-4.35L11.109,-0.758L12.735,-0.758L12.735,0Z" style="fill-rule:nonzero;"/>
                    <path d="M13.129,-1.095C13.479,-0.805 13.877,-0.66 14.322,-0.66C14.575,-0.66 14.765,-0.703 14.892,-0.791C15.02,-0.878 15.083,-0.989 15.083,-1.126C15.083,-1.244 15.033,-1.355 14.932,-1.46C14.83,-1.565 14.564,-1.707 14.131,-1.887C13.452,-2.175 13.112,-2.595 13.112,-3.145C13.112,-3.55 13.266,-3.864 13.574,-4.087C13.882,-4.311 14.289,-4.423 14.797,-4.423C15.222,-4.423 15.578,-4.368 15.867,-4.257L15.867,-3.387C15.575,-3.585 15.233,-3.684 14.842,-3.684C14.613,-3.684 14.431,-3.643 14.294,-3.559C14.157,-3.476 14.089,-3.364 14.089,-3.224C14.089,-3.112 14.136,-3.008 14.229,-2.914C14.323,-2.819 14.554,-2.691 14.923,-2.53C15.356,-2.345 15.653,-2.149 15.815,-1.943C15.977,-1.737 16.058,-1.492 16.058,-1.208C16.058,-0.79 15.91,-0.472 15.614,-0.253C15.318,-0.034 14.898,0.076 14.353,0.076C13.855,0.076 13.447,-0.005 13.129,-0.166L13.129,-1.095Z" style="fill-rule:nonzero;"/>
                </g>
            </g>
        </g>
    </g>
    <defs>
        <linearGradient id="_Linear1" x1="0" y1="0" x2="1" y2="0" gradientUnits="userSpaceOnUse" gradientTransform="matrix(9.31065e-17,1.52054,-1.52054,9.31065e-17,1036.87,122.284)"><stop offset="0" style="stop-color:rgb(165,165,165);stop-opacity:1"/><stop offset="1" style="stop-color:black;stop-opacity:1"/></linearGradient>
    </defs>
</svg>
