<?xml version="1.0" encoding="UTF-8" standalone="no"?>
<!DOCTYPE svg PUBLIC "-//W3C//DTD SVG 1.1//EN" "http://www.w3.org/Graphics/SVG/1.1/DTD/svg11.dtd">
<svg width="100%" height="100%" viewBox="0 0 151 380" version="1.1" xmlns="http://www.w3.org/2000/svg" xmlns:xlink="http://www.w3.org/1999/xlink" xml:space="preserve" xmlns:serif="http://www.serif.com/" style="fill-rule:evenodd;clip-rule:evenodd;stroke-linejoin:round;stroke-miterlimit:1.41421;">
    <g id="Layer-1" serif:id="Layer 1">
        <rect x="0" y="0.068" width="150.943" height="379.934" style="fill:rgb(128,187,254);"/>
        <rect x="-6.666" y="93.569" width="164.224" height="25.525" style="fill-opacity:0.25098;"/>
        <rect x="-7.688" y="344.266" width="162.774" height="27.439" style="fill:rgb(4,4,4);fill-opacity:0.25098;"/>
        <rect id="path3052" x="0.443" y="377.283" width="150.009" height="2.327" style="fill:url(#_Linear1);"/>
        <path id="path40444" d="M151.065,-0.016L0.005,-0.016L0.005,380.001L151.065,380.001L151.065,-0.016ZM150.509,379.447L0.562,379.447L0.562,0.534L150.509,0.534L150.509,379.447Z" style="fill:rgb(51,51,51);fill-rule:nonzero;"/>
        <g>
            <path d="M56.721,19.643C56.006,19.994 55.073,20.169 53.921,20.169C52.44,20.169 51.265,19.726 50.395,18.84C49.526,17.953 49.091,16.771 49.091,15.294C49.091,13.741 49.577,12.471 50.548,11.483C51.519,10.495 52.773,10.001 54.309,10.001C55.269,10.001 56.073,10.125 56.721,10.375L56.721,12.4C56.056,12.011 55.303,11.816 54.461,11.816C53.5,11.816 52.732,12.123 52.157,12.736C51.581,13.35 51.294,14.152 51.294,15.142C51.294,16.107 51.567,16.883 52.112,17.472C52.658,18.06 53.397,18.354 54.328,18.354C55.204,18.354 56.001,18.142 56.721,17.719L56.721,19.643Z" style="fill-rule:nonzero;"/>
            <path d="M66.547,10.166L63.132,19.998L60.764,19.998L57.394,10.166L59.653,10.166L61.78,17.116C61.886,17.459 61.951,17.783 61.977,18.087L62.015,18.087C62.049,17.774 62.121,17.442 62.231,17.091L64.357,10.166L66.547,10.166Z" style="fill-rule:nonzero;"/>
            <rect x="67.594" y="15.51" width="3.751" height="1.447" style="fill-rule:nonzero;"/>
            <path d="M93.364,20.2L93.364,14.01C93.364,13.44 93.338,12.722 93.286,11.857L93.334,11.857C93.454,12.511 93.551,12.948 93.623,13.167L95.925,20.2L97.51,20.2L99.842,13.233C99.898,13.066 99.997,12.608 100.137,11.857L100.192,11.857C100.139,12.713 100.113,13.571 100.113,14.432L100.113,20.2L101.909,20.2L101.909,10L99.016,10L97.004,16.163C96.835,16.673 96.72,17.151 96.66,17.599L96.618,17.599C96.493,17.041 96.365,16.559 96.232,16.15L94.214,10L91.399,10L91.399,20.2L93.364,20.2Z" style="fill-rule:nonzero;"/>
            <path d="M81.119,20.2L83.288,20.2L83.987,17.862L87.38,17.862L88.067,20.2L90.224,20.2L86.807,10L84.469,10L81.119,20.2ZM84.457,16.183L85.518,12.647C85.586,12.423 85.634,12.127 85.662,11.758L85.717,11.758C85.741,12.057 85.795,12.344 85.879,12.621L86.946,16.183L84.457,16.183Z" style="fill-rule:nonzero;"/>
            <path d="M77.949,16.644L77.949,20.2L79.937,20.2L79.937,10L76.725,10C74.403,10 73.242,11.076 73.242,13.227C73.242,14.271 73.593,15.109 74.294,15.739C74.995,16.369 75.872,16.67 76.924,16.644L77.949,16.644ZM77.949,11.686L77.949,14.978L77.087,14.978C75.918,14.978 75.333,14.423 75.333,13.312C75.333,12.228 75.912,11.686 77.069,11.686L77.949,11.686Z" style="fill-rule:nonzero;"/>
        </g>
        <path d="M22.155,27.242L21.358,27.242L21.358,28.457C21.358,28.631 21.317,28.763 21.235,28.853C21.153,28.943 21.049,28.988 20.924,28.988C20.793,28.988 20.688,28.943 20.608,28.854C20.528,28.766 20.488,28.635 20.488,28.463L20.488,25.153C20.488,24.961 20.532,24.825 20.62,24.743C20.708,24.661 20.847,24.62 21.039,24.62L22.155,24.62C22.485,24.62 22.739,24.645 22.917,24.696C23.092,24.745 23.244,24.826 23.372,24.939C23.5,25.052 23.597,25.191 23.664,25.355C23.73,25.519 23.763,25.704 23.763,25.909C23.763,26.346 23.628,26.678 23.359,26.903C23.089,27.129 22.688,27.242 22.155,27.242ZM21.944,25.273L21.358,25.273L21.358,26.585L21.944,26.585C22.149,26.585 22.32,26.564 22.458,26.521C22.596,26.478 22.701,26.408 22.773,26.31C22.845,26.212 22.881,26.084 22.881,25.926C22.881,25.737 22.826,25.582 22.714,25.463C22.589,25.336 22.333,25.273 21.944,25.273Z" style="fill:rgb(5,5,5);fill-opacity:0.8;fill-rule:nonzero;"/>
        <path d="M26.71,28.428L26.505,27.889L24.759,27.889L24.554,28.44C24.474,28.655 24.406,28.8 24.349,28.875C24.292,28.95 24.2,28.988 24.071,28.988C23.961,28.988 23.865,28.948 23.781,28.868C23.697,28.788 23.655,28.697 23.655,28.595C23.655,28.537 23.665,28.476 23.684,28.413C23.704,28.351 23.736,28.264 23.781,28.153L24.879,25.364C24.911,25.284 24.948,25.187 24.992,25.075C25.036,24.963 25.083,24.87 25.133,24.795C25.183,24.721 25.248,24.661 25.329,24.615C25.41,24.569 25.51,24.546 25.629,24.546C25.75,24.546 25.852,24.569 25.933,24.615C26.014,24.661 26.079,24.72 26.129,24.792C26.179,24.865 26.221,24.942 26.255,25.025C26.289,25.108 26.333,25.219 26.385,25.358L27.507,28.129C27.595,28.34 27.639,28.494 27.639,28.589C27.639,28.689 27.598,28.78 27.515,28.863C27.432,28.946 27.332,28.988 27.214,28.988C27.146,28.988 27.087,28.976 27.039,28.951C26.99,28.927 26.949,28.893 26.916,28.851C26.882,28.809 26.847,28.745 26.809,28.658C26.771,28.571 26.738,28.495 26.71,28.428ZM24.988,27.236L26.271,27.236L25.624,25.463L24.988,27.236Z" style="fill:rgb(5,5,5);fill-opacity:0.8;fill-rule:nonzero;"/>
        <path d="M29.447,27.078L29.142,27.078L29.142,28.457C29.142,28.639 29.102,28.773 29.022,28.859C28.942,28.945 28.837,28.988 28.708,28.988C28.57,28.988 28.462,28.943 28.386,28.853C28.31,28.763 28.272,28.631 28.272,28.457L28.272,25.153C28.272,24.965 28.314,24.83 28.398,24.746C28.482,24.662 28.618,24.62 28.805,24.62L30.22,24.62C30.416,24.62 30.583,24.628 30.721,24.644C30.86,24.661 30.985,24.695 31.096,24.746C31.231,24.802 31.35,24.883 31.454,24.989C31.557,25.094 31.636,25.217 31.689,25.356C31.743,25.496 31.77,25.644 31.77,25.8C31.77,26.121 31.68,26.376 31.499,26.568C31.318,26.759 31.044,26.895 30.677,26.975C30.832,27.057 30.979,27.178 31.12,27.338C31.26,27.498 31.386,27.669 31.496,27.85C31.606,28.03 31.692,28.193 31.754,28.339C31.815,28.484 31.846,28.584 31.846,28.639C31.846,28.696 31.828,28.752 31.792,28.808C31.756,28.863 31.707,28.907 31.644,28.939C31.582,28.972 31.509,28.988 31.427,28.988C31.33,28.988 31.248,28.965 31.181,28.919C31.115,28.873 31.058,28.815 31.01,28.745C30.962,28.674 30.897,28.571 30.815,28.434L30.466,27.854C30.341,27.641 30.229,27.479 30.131,27.368C30.032,27.256 29.932,27.18 29.831,27.139C29.729,27.098 29.601,27.078 29.447,27.078ZM29.945,25.273L29.142,25.273L29.142,26.454L29.921,26.454C30.13,26.454 30.306,26.435 30.449,26.399C30.591,26.363 30.7,26.302 30.775,26.215C30.851,26.128 30.888,26.008 30.888,25.856C30.888,25.737 30.858,25.632 30.797,25.541C30.737,25.45 30.653,25.382 30.545,25.337C30.444,25.294 30.244,25.273 29.945,25.273Z" style="fill:rgb(5,5,5);fill-opacity:0.8;fill-rule:nonzero;"/>
        <path d="M35.341,28.428L35.136,27.889L33.39,27.889L33.185,28.44C33.105,28.655 33.037,28.8 32.98,28.875C32.923,28.95 32.831,28.988 32.702,28.988C32.592,28.988 32.496,28.948 32.412,28.868C32.328,28.788 32.286,28.697 32.286,28.595C32.286,28.537 32.295,28.476 32.315,28.413C32.334,28.351 32.367,28.264 32.412,28.153L33.51,25.364C33.542,25.284 33.579,25.187 33.623,25.075C33.667,24.963 33.714,24.87 33.764,24.795C33.813,24.721 33.879,24.661 33.96,24.615C34.041,24.569 34.141,24.546 34.26,24.546C34.381,24.546 34.482,24.569 34.563,24.615C34.645,24.661 34.71,24.72 34.76,24.792C34.81,24.865 34.852,24.942 34.886,25.025C34.92,25.108 34.963,25.219 35.016,25.358L36.138,28.129C36.226,28.34 36.27,28.494 36.27,28.589C36.27,28.689 36.229,28.78 36.146,28.863C36.063,28.946 35.962,28.988 35.845,28.988C35.777,28.988 35.718,28.976 35.669,28.951C35.621,28.927 35.58,28.893 35.546,28.851C35.513,28.809 35.478,28.745 35.439,28.658C35.401,28.571 35.369,28.495 35.341,28.428ZM33.619,27.236L34.902,27.236L34.254,25.463L33.619,27.236Z" style="fill:rgb(5,5,5);fill-opacity:0.8;fill-rule:nonzero;"/>
        <path d="M38.359,28.267L37.67,25.531L37.67,28.496C37.67,28.66 37.634,28.783 37.561,28.865C37.487,28.947 37.39,28.988 37.269,28.988C37.152,28.988 37.056,28.947 36.982,28.866C36.908,28.785 36.871,28.662 36.871,28.496L36.871,25.097C36.871,24.91 36.919,24.783 37.017,24.718C37.115,24.652 37.247,24.62 37.413,24.62L37.682,24.62C37.844,24.62 37.962,24.634 38.035,24.663C38.108,24.693 38.163,24.746 38.198,24.822C38.233,24.898 38.273,25.022 38.318,25.194L38.942,27.546L39.566,25.194C39.611,25.022 39.651,24.898 39.686,24.822C39.721,24.746 39.775,24.693 39.849,24.663C39.922,24.634 40.04,24.62 40.202,24.62L40.471,24.62C40.637,24.62 40.769,24.652 40.867,24.718C40.964,24.783 41.013,24.91 41.013,25.097L41.013,28.496C41.013,28.66 40.977,28.783 40.903,28.865C40.83,28.947 40.732,28.988 40.609,28.988C40.494,28.988 40.399,28.947 40.325,28.865C40.25,28.783 40.213,28.66 40.213,28.496L40.213,25.531L39.525,28.267C39.48,28.445 39.443,28.575 39.415,28.658C39.387,28.741 39.334,28.817 39.258,28.885C39.182,28.954 39.077,28.988 38.942,28.988C38.84,28.988 38.754,28.966 38.684,28.922C38.614,28.878 38.559,28.822 38.52,28.753C38.481,28.685 38.45,28.609 38.428,28.526C38.405,28.443 38.382,28.357 38.359,28.267Z" style="fill:rgb(5,5,5);fill-opacity:0.8;fill-rule:nonzero;"/>
        <path d="M44.737,25.29L42.777,25.29L42.777,26.345L44.582,26.345C44.714,26.345 44.813,26.375 44.879,26.434C44.944,26.494 44.977,26.573 44.977,26.67C44.977,26.768 44.945,26.848 44.88,26.909C44.816,26.971 44.716,27.001 44.582,27.001L42.777,27.001L42.777,28.223L44.804,28.223C44.941,28.223 45.044,28.255 45.113,28.318C45.183,28.382 45.217,28.466 45.217,28.572C45.217,28.673 45.183,28.756 45.113,28.819C45.044,28.883 44.941,28.914 44.804,28.914L42.44,28.914C42.25,28.914 42.114,28.872 42.031,28.788C41.948,28.705 41.907,28.569 41.907,28.381L41.907,25.153C41.907,25.028 41.925,24.926 41.962,24.847C42,24.768 42.058,24.71 42.137,24.674C42.216,24.638 42.317,24.62 42.44,24.62L44.737,24.62C44.875,24.62 44.979,24.65 45.046,24.712C45.113,24.773 45.147,24.854 45.147,24.954C45.147,25.055 45.113,25.137 45.046,25.198C44.979,25.26 44.875,25.29 44.737,25.29Z" style="fill:rgb(5,5,5);fill-opacity:0.8;fill-rule:nonzero;"/>
        <path d="M48.698,25.337L47.749,25.337L47.749,28.457C47.749,28.637 47.708,28.77 47.628,28.857C47.548,28.944 47.445,28.988 47.318,28.988C47.189,28.988 47.084,28.944 47.003,28.856C46.922,28.768 46.881,28.635 46.881,28.457L46.881,25.337L45.932,25.337C45.784,25.337 45.673,25.305 45.601,25.239C45.529,25.174 45.493,25.087 45.493,24.98C45.493,24.869 45.53,24.781 45.605,24.716C45.681,24.652 45.79,24.62 45.932,24.62L48.698,24.62C48.848,24.62 48.96,24.653 49.033,24.719C49.106,24.786 49.143,24.872 49.143,24.98C49.143,25.087 49.106,25.174 49.032,25.239C48.958,25.305 48.846,25.337 48.698,25.337Z" style="fill:rgb(5,5,5);fill-opacity:0.8;fill-rule:nonzero;"/>
        <path d="M52.489,25.29L50.529,25.29L50.529,26.345L52.333,26.345C52.466,26.345 52.565,26.375 52.631,26.434C52.696,26.494 52.729,26.573 52.729,26.67C52.729,26.768 52.697,26.848 52.632,26.909C52.568,26.971 52.468,27.001 52.333,27.001L50.529,27.001L50.529,28.223L52.556,28.223C52.693,28.223 52.796,28.255 52.865,28.318C52.935,28.382 52.969,28.466 52.969,28.572C52.969,28.673 52.935,28.756 52.865,28.819C52.796,28.883 52.693,28.914 52.556,28.914L50.192,28.914C50.002,28.914 49.866,28.872 49.783,28.788C49.7,28.705 49.659,28.569 49.659,28.381L49.659,25.153C49.659,25.028 49.677,24.926 49.714,24.847C49.751,24.768 49.81,24.71 49.889,24.674C49.968,24.638 50.069,24.62 50.192,24.62L52.489,24.62C52.627,24.62 52.73,24.65 52.798,24.712C52.865,24.773 52.899,24.854 52.899,24.954C52.899,25.055 52.865,25.137 52.798,25.198C52.73,25.26 52.627,25.29 52.489,25.29Z" style="fill:rgb(5,5,5);fill-opacity:0.8;fill-rule:nonzero;"/>
        <path d="M54.83,27.078L54.525,27.078L54.525,28.457C54.525,28.639 54.485,28.773 54.405,28.859C54.325,28.945 54.22,28.988 54.091,28.988C53.953,28.988 53.845,28.943 53.769,28.853C53.693,28.763 53.655,28.631 53.655,28.457L53.655,25.153C53.655,24.965 53.697,24.83 53.781,24.746C53.865,24.662 54,24.62 54.188,24.62L55.603,24.62C55.798,24.62 55.965,24.628 56.104,24.644C56.243,24.661 56.368,24.695 56.479,24.746C56.614,24.802 56.733,24.883 56.836,24.989C56.94,25.094 57.019,25.217 57.072,25.356C57.126,25.496 57.153,25.644 57.153,25.8C57.153,26.121 57.063,26.376 56.882,26.568C56.701,26.759 56.427,26.895 56.06,26.975C56.214,27.057 56.362,27.178 56.502,27.338C56.643,27.498 56.769,27.669 56.879,27.85C56.989,28.03 57.075,28.193 57.137,28.339C57.198,28.484 57.229,28.584 57.229,28.639C57.229,28.696 57.211,28.752 57.175,28.808C57.139,28.863 57.089,28.907 57.027,28.939C56.964,28.972 56.892,28.988 56.81,28.988C56.712,28.988 56.63,28.965 56.564,28.919C56.498,28.873 56.44,28.815 56.393,28.745C56.345,28.674 56.28,28.571 56.198,28.434L55.849,27.854C55.724,27.641 55.612,27.479 55.514,27.368C55.415,27.256 55.315,27.18 55.213,27.139C55.112,27.098 54.984,27.078 54.83,27.078ZM55.328,25.273L54.525,25.273L54.525,26.454L55.304,26.454C55.513,26.454 55.689,26.435 55.832,26.399C55.974,26.363 56.083,26.302 56.158,26.215C56.233,26.128 56.271,26.008 56.271,25.856C56.271,25.737 56.241,25.632 56.18,25.541C56.12,25.45 56.036,25.382 55.928,25.337C55.827,25.294 55.626,25.273 55.328,25.273Z" style="fill:rgb(5,5,5);fill-opacity:0.8;fill-rule:nonzero;"/>
        <path d="M63.135,27.558C63.135,27.695 63.102,27.843 63.034,28.002C62.967,28.161 62.861,28.317 62.716,28.471C62.572,28.624 62.387,28.748 62.163,28.844C61.938,28.94 61.676,28.988 61.377,28.988C61.151,28.988 60.945,28.966 60.759,28.923C60.574,28.88 60.405,28.813 60.254,28.723C60.103,28.632 59.963,28.512 59.836,28.364C59.723,28.229 59.626,28.078 59.546,27.911C59.466,27.744 59.406,27.566 59.366,27.376C59.326,27.187 59.306,26.986 59.306,26.773C59.306,26.427 59.356,26.118 59.457,25.844C59.558,25.571 59.702,25.337 59.889,25.143C60.077,24.948 60.296,24.8 60.548,24.699C60.8,24.597 61.069,24.546 61.354,24.546C61.702,24.546 62.011,24.616 62.283,24.754C62.554,24.893 62.762,25.064 62.907,25.268C63.051,25.473 63.124,25.665 63.124,25.847C63.124,25.947 63.088,26.035 63.018,26.111C62.948,26.187 62.863,26.225 62.763,26.225C62.652,26.225 62.568,26.199 62.513,26.146C62.457,26.093 62.395,26.002 62.327,25.873C62.213,25.661 62.08,25.501 61.927,25.396C61.773,25.29 61.584,25.238 61.36,25.238C61.002,25.238 60.718,25.373 60.506,25.645C60.294,25.916 60.188,26.302 60.188,26.802C60.188,27.136 60.235,27.414 60.329,27.636C60.422,27.857 60.555,28.023 60.727,28.132C60.899,28.242 61.1,28.296 61.331,28.296C61.581,28.296 61.792,28.234 61.965,28.11C62.138,27.986 62.268,27.804 62.356,27.564C62.393,27.451 62.439,27.358 62.494,27.287C62.548,27.216 62.636,27.18 62.757,27.18C62.861,27.18 62.95,27.216 63.024,27.288C63.098,27.361 63.135,27.451 63.135,27.558Z" style="fill:rgb(5,5,5);fill-opacity:0.8;fill-rule:nonzero;"/>
        <path d="M65.807,24.546C66.252,24.546 66.635,24.637 66.954,24.817C67.273,24.998 67.515,25.255 67.679,25.588C67.843,25.921 67.925,26.312 67.925,26.761C67.925,27.093 67.88,27.395 67.791,27.666C67.701,27.938 67.566,28.173 67.386,28.372C67.207,28.572 66.986,28.724 66.724,28.83C66.462,28.935 66.163,28.988 65.825,28.988C65.489,28.988 65.188,28.934 64.922,28.825C64.657,28.717 64.435,28.564 64.257,28.367C64.08,28.169 63.945,27.932 63.854,27.655C63.764,27.377 63.718,27.078 63.718,26.755C63.718,26.425 63.766,26.122 63.86,25.847C63.955,25.572 64.092,25.337 64.272,25.144C64.452,24.951 64.67,24.803 64.928,24.7C65.186,24.598 65.479,24.546 65.807,24.546ZM67.043,26.755C67.043,26.441 66.993,26.168 66.891,25.938C66.79,25.707 66.645,25.533 66.456,25.415C66.268,25.297 66.051,25.238 65.807,25.238C65.633,25.238 65.473,25.27 65.325,25.336C65.178,25.401 65.051,25.497 64.944,25.622C64.838,25.747 64.754,25.906 64.692,26.101C64.631,26.295 64.6,26.513 64.6,26.755C64.6,26.999 64.631,27.22 64.692,27.417C64.754,27.615 64.841,27.778 64.953,27.908C65.065,28.038 65.194,28.135 65.34,28.2C65.485,28.264 65.645,28.296 65.819,28.296C66.042,28.296 66.246,28.241 66.433,28.129C66.619,28.018 66.768,27.846 66.878,27.614C66.988,27.381 67.043,27.095 67.043,26.755Z" style="fill:rgb(5,5,5);fill-opacity:0.8;fill-rule:nonzero;"/>
        <path d="M69.803,25.068L71.476,27.599L71.476,25.044C71.476,24.878 71.512,24.754 71.583,24.671C71.654,24.588 71.75,24.546 71.872,24.546C71.997,24.546 72.095,24.588 72.167,24.671C72.24,24.754 72.276,24.878 72.276,25.044L72.276,28.422C72.276,28.799 72.12,28.988 71.807,28.988C71.729,28.988 71.659,28.976 71.596,28.954C71.534,28.932 71.475,28.896 71.42,28.847C71.366,28.798 71.315,28.741 71.268,28.676C71.221,28.61 71.174,28.543 71.127,28.475L69.496,25.973L69.496,28.49C69.496,28.654 69.458,28.778 69.381,28.862C69.305,28.946 69.208,28.988 69.088,28.988C68.965,28.988 68.867,28.945 68.792,28.86C68.718,28.775 68.681,28.652 68.681,28.49L68.681,25.176C68.681,25.036 68.697,24.925 68.728,24.845C68.765,24.757 68.827,24.685 68.913,24.63C68.999,24.574 69.091,24.546 69.191,24.546C69.269,24.546 69.336,24.559 69.392,24.584C69.447,24.61 69.496,24.644 69.538,24.687C69.58,24.73 69.623,24.786 69.667,24.854C69.711,24.922 69.756,24.994 69.803,25.068Z" style="fill:rgb(5,5,5);fill-opacity:0.8;fill-rule:nonzero;"/>
        <path d="M76.017,25.337L75.068,25.337L75.068,28.457C75.068,28.637 75.028,28.77 74.948,28.857C74.868,28.944 74.764,28.988 74.637,28.988C74.508,28.988 74.403,28.944 74.322,28.856C74.241,28.768 74.201,28.635 74.201,28.457L74.201,25.337L73.251,25.337C73.103,25.337 72.993,25.305 72.92,25.239C72.848,25.174 72.812,25.087 72.812,24.98C72.812,24.869 72.85,24.781 72.925,24.716C73,24.652 73.109,24.62 73.251,24.62L76.017,24.62C76.167,24.62 76.279,24.653 76.353,24.719C76.426,24.786 76.462,24.872 76.462,24.98C76.462,25.087 76.425,25.174 76.351,25.239C76.277,25.305 76.166,25.337 76.017,25.337Z" style="fill:rgb(5,5,5);fill-opacity:0.8;fill-rule:nonzero;"/>
        <path d="M78.147,27.078L77.842,27.078L77.842,28.457C77.842,28.639 77.802,28.773 77.722,28.859C77.642,28.945 77.538,28.988 77.409,28.988C77.27,28.988 77.163,28.943 77.086,28.853C77.01,28.763 76.972,28.631 76.972,28.457L76.972,25.153C76.972,24.965 77.014,24.83 77.098,24.746C77.182,24.662 77.318,24.62 77.505,24.62L78.92,24.62C79.116,24.62 79.283,24.628 79.421,24.644C79.56,24.661 79.685,24.695 79.796,24.746C79.931,24.802 80.05,24.883 80.154,24.989C80.257,25.094 80.336,25.217 80.39,25.356C80.443,25.496 80.47,25.644 80.47,25.8C80.47,26.121 80.38,26.376 80.199,26.568C80.019,26.759 79.745,26.895 79.377,26.975C79.532,27.057 79.679,27.178 79.82,27.338C79.96,27.498 80.086,27.669 80.196,27.85C80.307,28.03 80.393,28.193 80.454,28.339C80.516,28.484 80.546,28.584 80.546,28.639C80.546,28.696 80.528,28.752 80.492,28.808C80.456,28.863 80.407,28.907 80.344,28.939C80.282,28.972 80.209,28.988 80.127,28.988C80.03,28.988 79.948,28.965 79.881,28.919C79.815,28.873 79.758,28.815 79.71,28.745C79.662,28.674 79.597,28.571 79.515,28.434L79.167,27.854C79.042,27.641 78.93,27.479 78.831,27.368C78.732,27.256 78.632,27.18 78.531,27.139C78.429,27.098 78.301,27.078 78.147,27.078ZM78.645,25.273L77.842,25.273L77.842,26.454L78.622,26.454C78.831,26.454 79.006,26.435 79.149,26.399C79.292,26.363 79.4,26.302 79.476,26.215C79.551,26.128 79.588,26.008 79.588,25.856C79.588,25.737 79.558,25.632 79.498,25.541C79.437,25.45 79.353,25.382 79.246,25.337C79.144,25.294 78.944,25.273 78.645,25.273Z" style="fill:rgb(5,5,5);fill-opacity:0.8;fill-rule:nonzero;"/>
        <path d="M83.183,24.546C83.628,24.546 84.011,24.637 84.33,24.817C84.649,24.998 84.891,25.255 85.055,25.588C85.219,25.921 85.301,26.312 85.301,26.761C85.301,27.093 85.256,27.395 85.167,27.666C85.077,27.938 84.942,28.173 84.762,28.372C84.583,28.572 84.362,28.724 84.1,28.83C83.838,28.935 83.539,28.988 83.201,28.988C82.865,28.988 82.564,28.934 82.298,28.825C82.033,28.717 81.811,28.564 81.633,28.367C81.456,28.169 81.321,27.932 81.23,27.655C81.14,27.377 81.094,27.078 81.094,26.755C81.094,26.425 81.142,26.122 81.236,25.847C81.331,25.572 81.468,25.337 81.648,25.144C81.828,24.951 82.046,24.803 82.304,24.7C82.562,24.598 82.855,24.546 83.183,24.546ZM84.419,26.755C84.419,26.441 84.369,26.168 84.267,25.938C84.166,25.707 84.021,25.533 83.832,25.415C83.644,25.297 83.427,25.238 83.183,25.238C83.009,25.238 82.849,25.27 82.701,25.336C82.554,25.401 82.427,25.497 82.32,25.622C82.214,25.747 82.13,25.906 82.068,26.101C82.007,26.295 81.976,26.513 81.976,26.755C81.976,26.999 82.007,27.22 82.068,27.417C82.13,27.615 82.217,27.778 82.329,27.908C82.441,28.038 82.57,28.135 82.716,28.2C82.861,28.264 83.021,28.296 83.195,28.296C83.417,28.296 83.622,28.241 83.809,28.129C83.995,28.018 84.144,27.846 84.254,27.614C84.364,27.381 84.419,27.095 84.419,26.755Z" style="fill:rgb(5,5,5);fill-opacity:0.8;fill-rule:nonzero;"/>
        <path d="M86.898,25.074L86.898,28.2L88.662,28.2C88.802,28.2 88.91,28.234 88.985,28.302C89.061,28.371 89.098,28.456 89.098,28.56C89.098,28.665 89.061,28.751 88.987,28.816C88.913,28.882 88.804,28.914 88.662,28.914L86.561,28.914C86.372,28.914 86.235,28.872 86.152,28.788C86.069,28.705 86.028,28.569 86.028,28.381L86.028,25.074C86.028,24.898 86.067,24.766 86.146,24.678C86.226,24.59 86.33,24.546 86.458,24.546C86.589,24.546 86.695,24.59 86.776,24.677C86.857,24.764 86.898,24.896 86.898,25.074Z" style="fill:rgb(5,5,5);fill-opacity:0.8;fill-rule:nonzero;"/>
        <path d="M90.522,25.074L90.522,28.2L92.286,28.2C92.426,28.2 92.534,28.234 92.609,28.302C92.685,28.371 92.722,28.456 92.722,28.56C92.722,28.665 92.685,28.751 92.611,28.816C92.537,28.882 92.428,28.914 92.286,28.914L90.185,28.914C89.996,28.914 89.859,28.872 89.776,28.788C89.693,28.705 89.652,28.569 89.652,28.381L89.652,25.074C89.652,24.898 89.691,24.766 89.771,24.678C89.85,24.59 89.954,24.546 90.083,24.546C90.213,24.546 90.319,24.59 90.4,24.677C90.481,24.764 90.522,24.896 90.522,25.074Z" style="fill:rgb(5,5,5);fill-opacity:0.8;fill-rule:nonzero;"/>
        <path d="M96.124,25.29L94.164,25.29L94.164,26.345L95.968,26.345C96.101,26.345 96.2,26.375 96.266,26.434C96.331,26.494 96.364,26.573 96.364,26.67C96.364,26.768 96.332,26.848 96.267,26.909C96.203,26.971 96.103,27.001 95.968,27.001L94.164,27.001L94.164,28.223L96.191,28.223C96.328,28.223 96.431,28.255 96.5,28.318C96.569,28.382 96.604,28.466 96.604,28.572C96.604,28.673 96.569,28.756 96.5,28.819C96.431,28.883 96.328,28.914 96.191,28.914L93.827,28.914C93.637,28.914 93.501,28.872 93.418,28.788C93.335,28.705 93.293,28.569 93.293,28.381L93.293,25.153C93.293,25.028 93.312,24.926 93.349,24.847C93.386,24.768 93.444,24.71 93.523,24.674C93.603,24.638 93.704,24.62 93.827,24.62L96.124,24.62C96.262,24.62 96.365,24.65 96.433,24.712C96.5,24.773 96.534,24.854 96.534,24.954C96.534,25.055 96.5,25.137 96.433,25.198C96.365,25.26 96.262,25.29 96.124,25.29Z" style="fill:rgb(5,5,5);fill-opacity:0.8;fill-rule:nonzero;"/>
        <path d="M97.834,24.62L98.968,24.62C99.263,24.62 99.516,24.647 99.727,24.702C99.938,24.756 100.129,24.859 100.301,25.009C100.749,25.392 100.972,25.974 100.972,26.755C100.972,27.013 100.95,27.248 100.905,27.461C100.86,27.674 100.791,27.866 100.697,28.037C100.603,28.208 100.483,28.361 100.336,28.496C100.221,28.599 100.095,28.682 99.958,28.745C99.822,28.807 99.675,28.851 99.518,28.876C99.36,28.902 99.183,28.914 98.986,28.914L97.852,28.914C97.694,28.914 97.575,28.891 97.495,28.843C97.415,28.795 97.362,28.727 97.338,28.641C97.313,28.554 97.301,28.441 97.301,28.302L97.301,25.153C97.301,24.965 97.343,24.83 97.427,24.746C97.511,24.662 97.647,24.62 97.834,24.62ZM98.171,25.308L98.171,28.223L98.831,28.223C98.975,28.223 99.088,28.219 99.17,28.211C99.252,28.204 99.337,28.184 99.425,28.153C99.513,28.122 99.589,28.078 99.654,28.021C99.945,27.775 100.09,27.351 100.09,26.749C100.09,26.326 100.026,26.008 99.898,25.797C99.771,25.586 99.613,25.452 99.425,25.394C99.238,25.337 99.011,25.308 98.746,25.308L98.171,25.308Z" style="fill:rgb(5,5,5);fill-opacity:0.8;fill-rule:nonzero;"/>
        <path d="M103.873,25.118L104.845,27.997L105.821,25.097C105.872,24.945 105.91,24.839 105.935,24.779C105.96,24.72 106.002,24.666 106.061,24.618C106.12,24.57 106.2,24.546 106.301,24.546C106.375,24.546 106.444,24.565 106.508,24.602C106.571,24.639 106.621,24.688 106.657,24.75C106.693,24.811 106.711,24.873 106.711,24.936C106.711,24.979 106.706,25.025 106.694,25.075C106.682,25.125 106.667,25.174 106.65,25.222C106.632,25.269 106.615,25.319 106.597,25.37L105.557,28.176C105.52,28.284 105.483,28.386 105.446,28.482C105.409,28.579 105.366,28.664 105.317,28.737C105.268,28.81 105.203,28.871 105.122,28.917C105.041,28.964 104.942,28.988 104.825,28.988C104.708,28.988 104.608,28.965 104.527,28.919C104.446,28.873 104.381,28.812 104.331,28.737C104.281,28.662 104.238,28.577 104.201,28.481C104.164,28.385 104.126,28.284 104.089,28.176L103.067,25.393C103.049,25.342 103.031,25.292 103.013,25.244C102.994,25.195 102.979,25.142 102.966,25.085C102.953,25.029 102.947,24.981 102.947,24.942C102.947,24.842 102.987,24.751 103.067,24.669C103.147,24.587 103.248,24.546 103.369,24.546C103.517,24.546 103.622,24.592 103.684,24.683C103.745,24.773 103.808,24.918 103.873,25.118Z" style="fill:rgb(5,5,5);fill-opacity:0.8;fill-rule:nonzero;"/>
        <path d="M109.175,24.546C109.621,24.546 110.003,24.637 110.322,24.817C110.642,24.998 110.883,25.255 111.047,25.588C111.211,25.921 111.293,26.312 111.293,26.761C111.293,27.093 111.249,27.395 111.159,27.666C111.069,27.938 110.934,28.173 110.754,28.372C110.575,28.572 110.354,28.724 110.092,28.83C109.831,28.935 109.531,28.988 109.193,28.988C108.857,28.988 108.556,28.934 108.291,28.825C108.025,28.717 107.803,28.564 107.625,28.367C107.448,28.169 107.313,27.932 107.223,27.655C107.132,27.377 107.086,27.078 107.086,26.755C107.086,26.425 107.134,26.122 107.229,25.847C107.323,25.572 107.46,25.337 107.64,25.144C107.82,24.951 108.039,24.803 108.296,24.7C108.554,24.598 108.847,24.546 109.175,24.546ZM110.412,26.755C110.412,26.441 110.361,26.168 110.259,25.938C110.158,25.707 110.013,25.533 109.824,25.415C109.636,25.297 109.419,25.238 109.175,25.238C109.001,25.238 108.841,25.27 108.693,25.336C108.546,25.401 108.419,25.497 108.312,25.622C108.206,25.747 108.122,25.906 108.061,26.101C107.999,26.295 107.968,26.513 107.968,26.755C107.968,26.999 107.999,27.22 108.061,27.417C108.122,27.615 108.209,27.778 108.321,27.908C108.434,28.038 108.563,28.135 108.708,28.2C108.854,28.264 109.013,28.296 109.187,28.296C109.41,28.296 109.614,28.241 109.801,28.129C109.987,28.018 110.136,27.846 110.246,27.614C110.356,27.381 110.412,27.095 110.412,26.755Z" style="fill:rgb(5,5,5);fill-opacity:0.8;fill-rule:nonzero;"/>
        <path d="M112.89,25.074L112.89,28.2L114.654,28.2C114.794,28.2 114.902,28.234 114.978,28.302C115.053,28.371 115.09,28.456 115.09,28.56C115.09,28.665 115.053,28.751 114.979,28.816C114.905,28.882 114.796,28.914 114.654,28.914L112.553,28.914C112.364,28.914 112.228,28.872 112.145,28.788C112.062,28.705 112.02,28.569 112.02,28.381L112.02,25.074C112.02,24.898 112.06,24.766 112.139,24.678C112.218,24.59 112.322,24.546 112.451,24.546C112.582,24.546 112.688,24.59 112.769,24.677C112.85,24.764 112.89,24.896 112.89,25.074Z" style="fill:rgb(5,5,5);fill-opacity:0.8;fill-rule:nonzero;"/>
        <path d="M117.701,25.337L116.751,25.337L116.751,28.457C116.751,28.637 116.711,28.77 116.631,28.857C116.551,28.944 116.448,28.988 116.321,28.988C116.192,28.988 116.087,28.944 116.006,28.856C115.925,28.768 115.884,28.635 115.884,28.457L115.884,25.337L114.935,25.337C114.787,25.337 114.676,25.305 114.604,25.239C114.532,25.174 114.496,25.087 114.496,24.98C114.496,24.869 114.533,24.781 114.608,24.716C114.684,24.652 114.792,24.62 114.935,24.62L117.701,24.62C117.851,24.62 117.963,24.653 118.036,24.719C118.109,24.786 118.146,24.872 118.146,24.98C118.146,25.087 118.109,25.174 118.035,25.239C117.96,25.305 117.849,25.337 117.701,25.337Z" style="fill:rgb(5,5,5);fill-opacity:0.8;fill-rule:nonzero;"/>
        <path d="M121.032,28.428L120.827,27.889L119.081,27.889L118.875,28.44C118.795,28.655 118.727,28.8 118.67,28.875C118.614,28.95 118.521,28.988 118.392,28.988C118.283,28.988 118.186,28.948 118.102,28.868C118.018,28.788 117.976,28.697 117.976,28.595C117.976,28.537 117.986,28.476 118.005,28.413C118.025,28.351 118.057,28.264 118.102,28.153L119.201,25.364C119.232,25.284 119.27,25.187 119.313,25.075C119.357,24.963 119.404,24.87 119.454,24.795C119.504,24.721 119.569,24.661 119.65,24.615C119.731,24.569 119.832,24.546 119.951,24.546C120.072,24.546 120.173,24.569 120.254,24.615C120.335,24.661 120.4,24.72 120.45,24.792C120.5,24.865 120.542,24.942 120.576,25.025C120.61,25.108 120.654,25.219 120.707,25.358L121.829,28.129C121.917,28.34 121.96,28.494 121.96,28.589C121.96,28.689 121.919,28.78 121.836,28.863C121.753,28.946 121.653,28.988 121.536,28.988C121.467,28.988 121.409,28.976 121.36,28.951C121.311,28.927 121.27,28.893 121.237,28.851C121.204,28.809 121.168,28.745 121.13,28.658C121.092,28.571 121.059,28.495 121.032,28.428ZM119.309,27.236L120.592,27.236L119.945,25.463L119.309,27.236Z" style="fill:rgb(5,5,5);fill-opacity:0.8;fill-rule:nonzero;"/>
        <path d="M126.373,27.168L126.373,27.992C126.373,28.101 126.362,28.188 126.34,28.254C126.319,28.319 126.279,28.378 126.222,28.431C126.164,28.484 126.09,28.535 126,28.583C125.741,28.724 125.491,28.827 125.25,28.891C125.01,28.955 124.749,28.988 124.465,28.988C124.135,28.988 123.834,28.937 123.563,28.835C123.292,28.734 123.06,28.586 122.869,28.393C122.677,28.2 122.53,27.965 122.428,27.69C122.325,27.414 122.274,27.107 122.274,26.767C122.274,26.433 122.324,26.127 122.423,25.85C122.523,25.573 122.669,25.337 122.863,25.144C123.056,24.951 123.292,24.803 123.569,24.7C123.846,24.598 124.161,24.546 124.512,24.546C124.801,24.546 125.057,24.585 125.28,24.662C125.502,24.739 125.683,24.836 125.822,24.954C125.96,25.071 126.065,25.195 126.135,25.326C126.206,25.456 126.241,25.573 126.241,25.674C126.241,25.784 126.2,25.877 126.119,25.954C126.038,26.031 125.941,26.07 125.828,26.07C125.765,26.07 125.705,26.055 125.647,26.026C125.59,25.997 125.542,25.955 125.502,25.903C125.395,25.735 125.304,25.608 125.23,25.522C125.156,25.436 125.056,25.364 124.93,25.305C124.804,25.247 124.643,25.217 124.448,25.217C124.247,25.217 124.067,25.252 123.909,25.321C123.75,25.391 123.615,25.491 123.503,25.623C123.391,25.755 123.305,25.916 123.245,26.108C123.186,26.299 123.156,26.511 123.156,26.744C123.156,27.247 123.271,27.635 123.503,27.907C123.734,28.178 124.057,28.314 124.471,28.314C124.672,28.314 124.861,28.288 125.038,28.235C125.215,28.182 125.394,28.107 125.576,28.009L125.576,27.312L124.902,27.312C124.74,27.312 124.617,27.288 124.534,27.239C124.451,27.19 124.41,27.107 124.41,26.99C124.41,26.894 124.444,26.815 124.514,26.752C124.583,26.69 124.677,26.659 124.796,26.659L125.784,26.659C125.905,26.659 126.007,26.669 126.091,26.691C126.175,26.712 126.243,26.76 126.295,26.834C126.347,26.909 126.373,27.02 126.373,27.168Z" style="fill:rgb(5,5,5);fill-opacity:0.8;fill-rule:nonzero;"/>
        <path d="M130.032,25.29L128.072,25.29L128.072,26.345L129.876,26.345C130.009,26.345 130.108,26.375 130.174,26.434C130.239,26.494 130.272,26.573 130.272,26.67C130.272,26.768 130.24,26.848 130.175,26.909C130.111,26.971 130.011,27.001 129.876,27.001L128.072,27.001L128.072,28.223L130.099,28.223C130.236,28.223 130.339,28.255 130.408,28.318C130.478,28.382 130.512,28.466 130.512,28.572C130.512,28.673 130.478,28.756 130.408,28.819C130.339,28.883 130.236,28.914 130.099,28.914L127.735,28.914C127.545,28.914 127.409,28.872 127.326,28.788C127.243,28.705 127.202,28.569 127.202,28.381L127.202,25.153C127.202,25.028 127.22,24.926 127.257,24.847C127.294,24.768 127.353,24.71 127.432,24.674C127.511,24.638 127.612,24.62 127.735,24.62L130.032,24.62C130.17,24.62 130.273,24.65 130.341,24.712C130.408,24.773 130.442,24.854 130.442,24.954C130.442,25.055 130.408,25.137 130.341,25.198C130.273,25.26 130.17,25.29 130.032,25.29Z" style="fill:rgb(5,5,5);fill-opacity:0.8;fill-rule:nonzero;"/>
        <g transform="matrix(1,0,0,1,-4.97839,20.7531)">
            <path d="M49.982,345.817C50.523,346.145 51.052,346.31 51.569,346.31C52.22,346.31 52.546,346.136 52.546,345.787C52.546,345.54 52.277,345.333 51.74,345.167C51.07,344.959 50.609,344.727 50.358,344.471C50.108,344.216 49.982,343.87 49.982,343.434C49.982,342.903 50.197,342.487 50.627,342.186C51.057,341.885 51.62,341.735 52.316,341.735C52.811,341.735 53.288,341.808 53.747,341.954L53.747,343.195C53.327,342.947 52.865,342.823 52.36,342.823C52.11,342.823 51.908,342.868 51.755,342.958C51.602,343.047 51.525,343.165 51.525,343.312C51.525,343.559 51.753,343.759 52.209,343.912C52.697,344.075 53.064,344.223 53.31,344.357C53.556,344.49 53.743,344.666 53.871,344.884C54,345.102 54.064,345.354 54.064,345.641C54.064,346.197 53.841,346.63 53.395,346.937C52.949,347.245 52.354,347.399 51.608,347.399C51.022,347.399 50.48,347.306 49.982,347.12L49.982,345.817Z" style="fill:rgb(10,1,1);fill-rule:nonzero;"/>
            <path d="M58.389,347.203C58.152,347.334 57.792,347.399 57.31,347.399C56.164,347.399 55.591,346.796 55.591,345.592L55.591,343.043L54.703,343.043L54.703,341.866L55.591,341.866L55.591,340.68L57.159,340.231L57.159,341.866L58.389,341.866L58.389,343.043L57.159,343.043L57.159,345.319C57.159,345.895 57.387,346.183 57.842,346.183C58.018,346.183 58.2,346.131 58.389,346.027L58.389,347.203Z" style="fill:rgb(10,1,1);fill-rule:nonzero;"/>
            <path d="M59.525,347.489L59.084,347.123L59.638,346.464C59.255,345.985 59.064,345.394 59.064,344.69C59.064,343.856 59.306,343.179 59.792,342.661C60.277,342.143 60.916,341.883 61.709,341.883C62.286,341.883 62.78,342.032 63.192,342.328L63.668,341.771L64.112,342.133L63.609,342.717C64.022,343.198 64.228,343.819 64.228,344.58C64.228,345.407 63.987,346.077 63.504,346.59C63.02,347.103 62.394,347.359 61.624,347.359C61.027,347.359 60.505,347.19 60.058,346.853L59.525,347.489ZM62.564,343.066C62.322,342.872 62.026,342.776 61.675,342.776C61.226,342.776 60.864,342.946 60.588,343.287C60.312,343.627 60.174,344.08 60.174,344.645C60.174,345.03 60.239,345.357 60.369,345.626L62.564,343.066ZM60.708,346.112C60.963,346.351 61.275,346.47 61.644,346.47C62.093,346.47 62.452,346.306 62.721,345.977C62.99,345.647 63.124,345.206 63.124,344.652C63.124,344.224 63.05,343.852 62.902,343.538L60.708,346.112Z" style="fill-rule:nonzero;"/>
            <path d="M70.13,345.011L66.575,345.011C66.63,345.848 67.135,346.266 68.089,346.266C68.684,346.266 69.21,346.119 69.666,345.826L69.666,346.984C69.174,347.26 68.53,347.399 67.732,347.399C66.873,347.399 66.205,347.156 65.728,346.671C65.251,346.186 65.012,345.511 65.012,344.645C65.012,343.782 65.266,343.081 65.774,342.543C66.282,342.004 66.92,341.735 67.688,341.735C68.453,341.735 69.051,341.967 69.483,342.43C69.914,342.894 70.13,343.531 70.13,344.342L70.13,345.011ZM68.66,344.025C68.66,343.217 68.333,342.814 67.678,342.814C67.408,342.814 67.169,342.924 66.961,343.146C66.752,343.367 66.622,343.66 66.57,344.025L68.66,344.025Z" style="fill:rgb(10,1,1);fill-rule:nonzero;"/>
            <path d="M74.747,343.297C74.555,343.186 74.322,343.131 74.049,343.131C73.691,343.131 73.407,343.268 73.197,343.541C72.987,343.815 72.882,344.191 72.882,344.669L72.882,347.267L71.305,347.267L71.305,341.866L72.882,341.866L72.882,342.882L72.902,342.882C73.162,342.143 73.636,341.774 74.322,341.774C74.508,341.774 74.65,341.795 74.747,341.837L74.747,343.297Z" style="fill:rgb(10,1,1);fill-rule:nonzero;"/>
            <path d="M84.189,347.267L82.617,347.267L82.617,344.186C82.617,343.359 82.316,342.946 81.714,342.946C81.434,342.946 81.201,343.071 81.015,343.321C80.83,343.572 80.737,343.878 80.737,344.239L80.737,347.267L79.165,347.267L79.165,344.147C79.165,343.346 78.867,342.946 78.271,342.946C77.975,342.946 77.738,343.065 77.561,343.304C77.383,343.544 77.295,343.86 77.295,344.254L77.295,347.267L75.718,347.267L75.718,341.866L77.295,341.866L77.295,342.711L77.314,342.711C77.503,342.402 77.754,342.162 78.066,341.991C78.379,341.82 78.708,341.735 79.053,341.735C79.811,341.735 80.33,342.075 80.61,342.755C81.027,342.075 81.632,341.735 82.427,341.735C83.602,341.735 84.189,342.46 84.189,343.912L84.189,347.267Z" style="fill:rgb(10,1,1);fill-rule:nonzero;"/>
            <path d="M90.482,345.011L86.927,345.011C86.983,345.848 87.487,346.266 88.441,346.266C89.037,346.266 89.562,346.119 90.018,345.826L90.018,346.984C89.526,347.26 88.882,347.399 88.084,347.399C87.225,347.399 86.557,347.156 86.08,346.671C85.603,346.186 85.365,345.511 85.365,344.645C85.365,343.782 85.619,343.081 86.126,342.543C86.634,342.004 87.272,341.735 88.04,341.735C88.805,341.735 89.404,341.967 89.835,342.43C90.266,342.894 90.482,343.531 90.482,344.342L90.482,345.011ZM89.012,344.025C89.012,343.217 88.685,342.814 88.031,342.814C87.761,342.814 87.521,342.924 87.313,343.146C87.105,343.367 86.974,343.66 86.922,344.025L89.012,344.025Z" style="fill:rgb(10,1,1);fill-rule:nonzero;"/>
            <rect x="91.633" y="339.274" width="1.572" height="7.993" style="fill:rgb(10,1,1);fill-rule:nonzero;"/>
            <path d="M99.976,347.267L98.404,347.267L98.404,346.505L98.38,346.505C97.999,347.101 97.436,347.399 96.69,347.399C96.003,347.399 95.457,347.156 95.052,346.671C94.647,346.186 94.444,345.525 94.444,344.689C94.444,343.803 94.671,343.09 95.125,342.548C95.579,342.006 96.172,341.735 96.905,341.735C97.608,341.735 98.1,341.988 98.38,342.496L98.404,342.496L98.404,339.274L99.976,339.274L99.976,347.267ZM98.428,344.21C98.428,343.846 98.318,343.544 98.099,343.304C97.879,343.065 97.605,342.946 97.276,342.946C96.892,342.946 96.59,343.098 96.37,343.402C96.151,343.706 96.041,344.119 96.041,344.64C96.041,345.135 96.146,345.516 96.358,345.785C96.57,346.053 96.861,346.188 97.232,346.188C97.58,346.188 97.867,346.046 98.091,345.763C98.316,345.48 98.428,345.112 98.428,344.659L98.428,344.21Z" style="fill:rgb(10,1,1);fill-rule:nonzero;"/>
            <path d="M106.357,345.011L102.802,345.011C102.857,345.848 103.362,346.266 104.316,346.266C104.911,346.266 105.437,346.119 105.893,345.826L105.893,346.984C105.401,347.26 104.757,347.399 103.959,347.399C103.1,347.399 102.432,347.156 101.955,346.671C101.478,346.186 101.239,345.511 101.239,344.645C101.239,343.782 101.493,343.081 102.001,342.543C102.509,342.004 103.147,341.735 103.915,341.735C104.68,341.735 105.278,341.967 105.71,342.43C106.141,342.894 106.357,343.531 106.357,344.342L106.357,345.011ZM104.887,344.025C104.887,343.217 104.56,342.814 103.905,342.814C103.635,342.814 103.396,342.924 103.188,343.146C102.979,343.367 102.849,343.66 102.797,344.025L104.887,344.025Z" style="fill:rgb(10,1,1);fill-rule:nonzero;"/>
            <path d="M110.974,343.297C110.782,343.186 110.55,343.131 110.276,343.131C109.918,343.131 109.634,343.268 109.424,343.541C109.214,343.815 109.109,344.191 109.109,344.669L109.109,347.267L107.532,347.267L107.532,341.866L109.109,341.866L109.109,342.882L109.129,342.882C109.389,342.143 109.863,341.774 110.55,341.774C110.735,341.774 110.877,341.795 110.974,341.837L110.974,343.297Z" style="fill:rgb(10,1,1);fill-rule:nonzero;"/>
        </g>
        <path d="M71.2,38.908C71.2,37.528 70.079,36.406 68.698,36.406L13.402,36.406C12.021,36.406 10.9,37.528 10.9,38.908L10.9,75.604C10.9,76.985 12.021,78.106 13.402,78.106L68.698,78.106C70.079,78.106 71.2,76.985 71.2,75.604L71.2,38.908Z" style="fill-opacity:0.8;"/>
        <path d="M139.772,38.908C139.772,37.528 138.651,36.406 137.27,36.406L81.934,36.406C80.553,36.406 79.432,37.528 79.432,38.908L79.432,75.604C79.432,76.985 80.553,78.106 81.934,78.106L137.27,78.106C138.651,78.106 139.772,76.985 139.772,75.604L139.772,38.908Z" style="fill-opacity:0.8;"/>
        <path d="M25.147,43.158L24.35,43.158L24.35,44.374C24.35,44.548 24.309,44.68 24.227,44.77C24.145,44.86 24.041,44.904 23.916,44.904C23.785,44.904 23.68,44.86 23.6,44.771C23.52,44.682 23.48,44.552 23.48,44.38L23.48,41.07C23.48,40.878 23.524,40.741 23.612,40.659C23.7,40.577 23.839,40.536 24.031,40.536L25.147,40.536C25.477,40.536 25.731,40.562 25.908,40.612C26.084,40.661 26.236,40.742 26.364,40.856C26.492,40.969 26.589,41.108 26.656,41.272C26.722,41.436 26.755,41.62 26.755,41.825C26.755,42.263 26.62,42.594 26.351,42.82C26.081,43.046 25.68,43.158 25.147,43.158ZM24.936,41.19L24.35,41.19L24.35,42.502L24.936,42.502C25.141,42.502 25.312,42.481 25.45,42.438C25.588,42.395 25.693,42.324 25.765,42.227C25.837,42.129 25.873,42.001 25.873,41.843C25.873,41.653 25.818,41.499 25.706,41.38C25.581,41.253 25.325,41.19 24.936,41.19Z" style="fill:white;fill-rule:nonzero;"/>
        <path d="M29.491,40.463C29.937,40.463 30.319,40.553 30.638,40.734C30.958,40.915 31.199,41.172 31.363,41.505C31.528,41.838 31.61,42.229 31.61,42.678C31.61,43.01 31.565,43.312 31.475,43.583C31.385,43.855 31.25,44.09 31.07,44.289C30.891,44.488 30.67,44.641 30.408,44.746C30.147,44.852 29.847,44.904 29.509,44.904C29.173,44.904 28.872,44.85 28.607,44.742C28.341,44.633 28.119,44.481 27.942,44.283C27.764,44.086 27.63,43.849 27.539,43.571C27.448,43.294 27.403,42.994 27.403,42.672C27.403,42.342 27.45,42.039 27.545,41.764C27.639,41.488 27.777,41.254 27.956,41.061C28.136,40.867 28.355,40.719 28.612,40.617C28.87,40.514 29.163,40.463 29.491,40.463ZM30.728,42.672C30.728,42.358 30.677,42.085 30.575,41.855C30.474,41.624 30.329,41.45 30.14,41.332C29.952,41.214 29.736,41.154 29.491,41.154C29.318,41.154 29.157,41.187 29.009,41.253C28.862,41.318 28.735,41.413 28.629,41.538C28.522,41.663 28.438,41.823 28.377,42.017C28.315,42.212 28.284,42.43 28.284,42.672C28.284,42.916 28.315,43.137 28.377,43.334C28.438,43.531 28.525,43.695 28.637,43.825C28.75,43.955 28.879,44.052 29.024,44.116C29.17,44.181 29.329,44.213 29.503,44.213C29.726,44.213 29.93,44.157 30.117,44.046C30.303,43.935 30.452,43.763 30.562,43.53C30.673,43.298 30.728,43.012 30.728,42.672Z" style="fill:white;fill-rule:nonzero;"/>
        <path d="M33.326,40.99L33.326,44.116L35.09,44.116C35.231,44.116 35.338,44.151 35.414,44.219C35.489,44.287 35.526,44.373 35.526,44.477C35.526,44.582 35.489,44.668 35.415,44.733C35.341,44.799 35.232,44.831 35.09,44.831L32.989,44.831C32.8,44.831 32.664,44.789 32.581,44.705C32.498,44.621 32.456,44.486 32.456,44.298L32.456,40.99C32.456,40.815 32.496,40.683 32.575,40.595C32.654,40.507 32.758,40.463 32.887,40.463C33.018,40.463 33.124,40.507 33.205,40.593C33.286,40.68 33.326,40.813 33.326,40.99Z" style="fill:white;fill-rule:nonzero;"/>
        <path d="M36.42,44.374L36.42,43.012L35.371,41.386C35.279,41.239 35.214,41.125 35.176,41.043C35.138,40.961 35.119,40.89 35.119,40.829C35.119,40.73 35.158,40.644 35.235,40.571C35.312,40.499 35.407,40.463 35.52,40.463C35.64,40.463 35.73,40.497 35.791,40.564C35.853,40.632 35.945,40.766 36.068,40.967L36.871,42.271L37.683,40.967C37.731,40.887 37.772,40.82 37.806,40.765C37.839,40.71 37.875,40.659 37.915,40.611C37.956,40.563 38,40.527 38.049,40.501C38.098,40.476 38.157,40.463 38.227,40.463C38.337,40.463 38.428,40.499 38.501,40.57C38.575,40.641 38.611,40.724 38.611,40.818C38.611,40.894 38.593,40.97 38.556,41.046C38.518,41.122 38.455,41.228 38.365,41.362L37.29,43.012L37.29,44.374C37.29,44.552 37.249,44.685 37.167,44.773C37.085,44.861 36.98,44.904 36.853,44.904C36.725,44.904 36.62,44.861 36.54,44.774C36.46,44.687 36.42,44.554 36.42,44.374Z" style="fill:white;fill-rule:nonzero;"/>
        <path d="M45.384,42.725C45.384,43.045 45.365,43.32 45.326,43.551C45.287,43.781 45.214,43.99 45.109,44.178C44.976,44.408 44.804,44.586 44.593,44.711C44.382,44.836 44.148,44.899 43.89,44.899C43.593,44.899 43.327,44.815 43.092,44.647C42.857,44.479 42.679,44.246 42.56,43.949C42.5,43.787 42.455,43.608 42.427,43.412C42.399,43.216 42.384,43.003 42.384,42.775C42.384,42.48 42.4,42.214 42.431,41.978C42.462,41.741 42.511,41.538 42.578,41.368C42.693,41.087 42.86,40.873 43.08,40.725C43.3,40.578 43.562,40.504 43.867,40.504C44.068,40.504 44.251,40.537 44.415,40.602C44.579,40.668 44.723,40.763 44.847,40.889C44.971,41.015 45.076,41.171 45.162,41.357C45.31,41.679 45.384,42.135 45.384,42.725ZM44.582,42.666C44.582,42.309 44.56,42.016 44.517,41.789C44.474,41.561 44.402,41.389 44.3,41.273C44.199,41.157 44.058,41.099 43.878,41.099C43.621,41.099 43.441,41.229 43.341,41.488C43.24,41.748 43.19,42.149 43.19,42.69C43.19,43.057 43.212,43.358 43.254,43.592C43.297,43.826 43.37,44.004 43.471,44.124C43.573,44.244 43.711,44.304 43.884,44.304C44.064,44.304 44.205,44.241 44.306,44.116C44.408,43.991 44.479,43.813 44.52,43.58C44.561,43.348 44.582,43.043 44.582,42.666Z" style="fill:white;fill-rule:nonzero;"/>
        <path d="M47.482,44.43L47.482,41.764C46.986,42.145 46.652,42.335 46.48,42.335C46.398,42.335 46.325,42.302 46.262,42.237C46.198,42.172 46.166,42.096 46.166,42.01C46.166,41.91 46.198,41.837 46.26,41.79C46.323,41.743 46.433,41.683 46.591,41.609C46.828,41.497 47.017,41.38 47.158,41.257C47.3,41.134 47.425,40.996 47.535,40.844C47.644,40.692 47.715,40.598 47.748,40.563C47.782,40.528 47.844,40.51 47.936,40.51C48.04,40.51 48.123,40.55 48.185,40.63C48.248,40.71 48.279,40.82 48.279,40.961L48.279,44.316C48.279,44.708 48.145,44.904 47.877,44.904C47.758,44.904 47.663,44.864 47.59,44.784C47.518,44.704 47.482,44.586 47.482,44.43Z" style="fill:white;fill-rule:nonzero;"/>
        <path d="M50.939,43.624L50.013,43.624C49.872,43.624 49.765,43.591 49.692,43.526C49.619,43.461 49.582,43.376 49.582,43.273C49.582,43.167 49.618,43.082 49.689,43.016C49.761,42.951 49.868,42.918 50.013,42.918L50.939,42.918C51.083,42.918 51.191,42.951 51.263,43.016C51.334,43.082 51.369,43.167 51.369,43.273C51.369,43.376 51.334,43.461 51.264,43.526C51.194,43.591 51.085,43.624 50.939,43.624Z" style="fill:white;fill-rule:nonzero;"/>
        <path d="M53.285,44.43L53.285,41.764C52.789,42.145 52.455,42.335 52.283,42.335C52.201,42.335 52.129,42.302 52.065,42.237C52.002,42.172 51.97,42.096 51.97,42.01C51.97,41.91 52.001,41.837 52.064,41.79C52.126,41.743 52.237,41.683 52.395,41.609C52.631,41.497 52.82,41.38 52.962,41.257C53.103,41.134 53.229,40.996 53.338,40.844C53.447,40.692 53.519,40.598 53.552,40.563C53.585,40.528 53.648,40.51 53.739,40.51C53.843,40.51 53.926,40.55 53.988,40.63C54.051,40.71 54.082,40.82 54.082,40.961L54.082,44.316C54.082,44.708 53.948,44.904 53.681,44.904C53.562,44.904 53.466,44.864 53.394,44.784C53.322,44.704 53.285,44.586 53.285,44.43Z" style="fill:white;fill-rule:nonzero;"/>
        <path d="M56.364,42.508C56.497,42.35 56.642,42.233 56.798,42.156C56.954,42.08 57.129,42.042 57.322,42.042C57.508,42.042 57.679,42.077 57.837,42.146C57.994,42.216 58.131,42.314 58.25,42.442C58.368,42.57 58.459,42.721 58.524,42.895C58.588,43.069 58.62,43.25 58.62,43.44C58.62,43.715 58.557,43.965 58.431,44.19C58.305,44.414 58.129,44.59 57.904,44.716C57.678,44.841 57.423,44.904 57.138,44.904C56.81,44.904 56.526,44.824 56.288,44.664C56.05,44.504 55.868,44.267 55.742,43.954C55.616,43.64 55.553,43.257 55.553,42.804C55.553,42.435 55.591,42.105 55.667,41.814C55.743,41.523 55.853,41.281 55.995,41.09C56.138,40.899 56.311,40.754 56.514,40.656C56.717,40.559 56.948,40.51 57.208,40.51C57.458,40.51 57.678,40.559 57.869,40.656C58.059,40.754 58.203,40.875 58.299,41.02C58.396,41.164 58.444,41.303 58.444,41.436C58.444,41.516 58.414,41.589 58.354,41.654C58.293,41.719 58.216,41.752 58.122,41.752C58.04,41.752 57.964,41.726 57.894,41.674C57.823,41.623 57.772,41.551 57.738,41.459C57.693,41.342 57.622,41.248 57.525,41.176C57.427,41.105 57.314,41.07 57.185,41.07C57.081,41.07 56.978,41.099 56.876,41.159C56.773,41.218 56.687,41.299 56.616,41.401C56.474,41.608 56.39,41.977 56.364,42.508ZM57.155,44.327C57.353,44.327 57.516,44.247 57.645,44.086C57.774,43.924 57.838,43.713 57.838,43.451C57.838,43.274 57.808,43.121 57.747,42.993C57.687,42.865 57.604,42.767 57.498,42.7C57.393,42.632 57.276,42.599 57.15,42.599C57.028,42.599 56.913,42.631 56.802,42.695C56.692,42.76 56.603,42.853 56.536,42.975C56.468,43.097 56.435,43.24 56.435,43.404C56.435,43.668 56.503,43.888 56.64,44.064C56.776,44.239 56.948,44.327 57.155,44.327Z" style="fill:white;fill-rule:nonzero;"/>
        <path d="M93.702,43.195L92.905,43.195L92.905,44.411C92.905,44.585 92.864,44.717 92.782,44.807C92.7,44.896 92.596,44.941 92.471,44.941C92.34,44.941 92.235,44.897 92.155,44.808C92.075,44.719 92.035,44.589 92.035,44.417L92.035,41.106C92.035,40.915 92.079,40.778 92.167,40.696C92.255,40.614 92.394,40.573 92.586,40.573L93.702,40.573C94.032,40.573 94.286,40.599 94.464,40.649C94.639,40.698 94.791,40.779 94.919,40.893C95.047,41.006 95.144,41.145 95.211,41.309C95.277,41.473 95.31,41.657 95.31,41.862C95.31,42.3 95.175,42.631 94.906,42.857C94.636,43.083 94.235,43.195 93.702,43.195ZM93.491,41.227L92.905,41.227L92.905,42.539L93.491,42.539C93.696,42.539 93.867,42.518 94.005,42.475C94.143,42.432 94.248,42.361 94.32,42.264C94.392,42.166 94.428,42.038 94.428,41.88C94.428,41.69 94.373,41.536 94.261,41.417C94.136,41.29 93.88,41.227 93.491,41.227Z" style="fill:white;fill-rule:nonzero;"/>
        <path d="M98.046,40.5C98.492,40.5 98.874,40.59 99.193,40.771C99.513,40.952 99.754,41.208 99.918,41.542C100.083,41.875 100.165,42.266 100.165,42.715C100.165,43.047 100.12,43.349 100.03,43.62C99.94,43.892 99.805,44.127 99.626,44.326C99.446,44.525 99.225,44.678 98.963,44.783C98.702,44.889 98.402,44.941 98.064,44.941C97.728,44.941 97.427,44.887 97.162,44.779C96.896,44.67 96.674,44.518 96.497,44.32C96.319,44.123 96.185,43.886 96.094,43.608C96.003,43.331 95.958,43.031 95.958,42.709C95.958,42.379 96.005,42.076 96.1,41.801C96.194,41.525 96.332,41.291 96.511,41.098C96.691,40.904 96.91,40.756 97.167,40.654C97.425,40.551 97.718,40.5 98.046,40.5ZM99.283,42.709C99.283,42.395 99.232,42.122 99.13,41.892C99.029,41.661 98.884,41.487 98.695,41.369C98.507,41.25 98.291,41.191 98.046,41.191C97.873,41.191 97.712,41.224 97.564,41.29C97.417,41.355 97.29,41.45 97.184,41.575C97.077,41.7 96.993,41.86 96.932,42.054C96.87,42.249 96.839,42.467 96.839,42.709C96.839,42.953 96.87,43.174 96.932,43.371C96.993,43.568 97.08,43.732 97.192,43.862C97.305,43.992 97.434,44.089 97.579,44.153C97.725,44.218 97.884,44.25 98.058,44.25C98.281,44.25 98.485,44.194 98.672,44.083C98.858,43.972 99.007,43.8 99.117,43.567C99.228,43.335 99.283,43.049 99.283,42.709Z" style="fill:white;fill-rule:nonzero;"/>
        <path d="M101.881,41.027L101.881,44.153L103.645,44.153C103.786,44.153 103.893,44.187 103.969,44.256C104.044,44.324 104.081,44.41 104.081,44.514C104.081,44.619 104.044,44.705 103.97,44.77C103.896,44.835 103.787,44.868 103.645,44.868L101.544,44.868C101.355,44.868 101.219,44.826 101.136,44.742C101.053,44.658 101.011,44.522 101.011,44.335L101.011,41.027C101.011,40.852 101.051,40.72 101.13,40.632C101.209,40.544 101.313,40.5 101.442,40.5C101.573,40.5 101.679,40.543 101.76,40.63C101.841,40.717 101.881,40.85 101.881,41.027Z" style="fill:white;fill-rule:nonzero;"/>
        <path d="M104.975,44.411L104.975,43.049L103.926,41.423C103.834,41.276 103.769,41.162 103.731,41.08C103.693,40.998 103.674,40.927 103.674,40.866C103.674,40.767 103.713,40.681 103.79,40.608C103.867,40.536 103.962,40.5 104.075,40.5C104.195,40.5 104.285,40.534 104.346,40.601C104.408,40.668 104.5,40.803 104.623,41.004L105.426,42.308L106.238,41.004C106.286,40.924 106.327,40.856 106.361,40.802C106.394,40.747 106.43,40.696 106.47,40.648C106.511,40.6 106.555,40.563 106.604,40.538C106.653,40.513 106.712,40.5 106.782,40.5C106.892,40.5 106.983,40.536 107.056,40.607C107.13,40.678 107.166,40.761 107.166,40.854C107.166,40.931 107.148,41.007 107.111,41.083C107.074,41.159 107.01,41.265 106.92,41.399L105.845,43.049L105.845,44.411C105.845,44.589 105.804,44.722 105.722,44.81C105.64,44.897 105.535,44.941 105.408,44.941C105.28,44.941 105.175,44.898 105.095,44.811C105.015,44.724 104.975,44.591 104.975,44.411Z" style="fill:white;fill-rule:nonzero;"/>
        <path d="M112.351,44.467L112.351,41.801C111.855,42.182 111.521,42.372 111.35,42.372C111.267,42.372 111.195,42.339 111.131,42.274C111.068,42.208 111.036,42.133 111.036,42.047C111.036,41.947 111.067,41.874 111.13,41.827C111.192,41.78 111.303,41.72 111.461,41.646C111.697,41.534 111.886,41.417 112.028,41.294C112.169,41.171 112.295,41.033 112.404,40.881C112.514,40.729 112.585,40.635 112.618,40.6C112.651,40.564 112.714,40.547 112.806,40.547C112.909,40.547 112.992,40.587 113.055,40.667C113.117,40.747 113.148,40.857 113.148,40.998L113.148,44.353C113.148,44.745 113.015,44.941 112.747,44.941C112.628,44.941 112.532,44.901 112.46,44.821C112.388,44.741 112.351,44.623 112.351,44.467Z" style="fill:white;fill-rule:nonzero;"/>
        <path d="M115.278,40.614L117.229,40.614C117.417,40.614 117.553,40.644 117.637,40.702C117.721,40.761 117.762,40.857 117.762,40.992C117.762,41.074 117.713,41.183 117.615,41.317C117.516,41.452 117.404,41.601 117.278,41.764C117.152,41.927 117.022,42.13 116.888,42.372C116.754,42.614 116.632,42.91 116.52,43.26C116.473,43.414 116.44,43.542 116.421,43.644C116.401,43.745 116.38,43.877 116.356,44.039C116.333,44.201 116.312,44.325 116.295,44.411C116.254,44.61 116.196,44.749 116.12,44.826C116.045,44.903 115.945,44.941 115.82,44.941C115.701,44.941 115.605,44.9 115.533,44.817C115.461,44.734 115.425,44.611 115.425,44.449C115.425,44.324 115.451,44.154 115.504,43.939C115.556,43.725 115.642,43.467 115.762,43.167C115.881,42.868 116.03,42.56 116.208,42.245C116.387,41.929 116.599,41.615 116.846,41.303L115.278,41.303C115.114,41.303 114.992,41.273 114.91,41.213C114.829,41.154 114.789,41.061 114.789,40.934C114.789,40.799 114.832,40.712 114.918,40.673C115.004,40.634 115.124,40.614 115.278,40.614Z" style="fill:white;fill-rule:nonzero;"/>
        <path d="M119.494,43.661L118.568,43.661C118.427,43.661 118.32,43.628 118.247,43.563C118.174,43.498 118.137,43.413 118.137,43.31C118.137,43.204 118.173,43.119 118.244,43.053C118.316,42.988 118.424,42.955 118.568,42.955L119.494,42.955C119.638,42.955 119.746,42.988 119.818,43.053C119.889,43.119 119.924,43.204 119.924,43.31C119.924,43.413 119.889,43.498 119.819,43.563C119.749,43.628 119.64,43.661 119.494,43.661Z" style="fill:white;fill-rule:nonzero;"/>
        <path d="M121.791,42.275C121.97,42.275 122.125,42.223 122.255,42.117C122.385,42.012 122.45,41.86 122.45,41.663C122.45,41.513 122.398,41.383 122.294,41.275C122.191,41.167 122.051,41.112 121.876,41.112C121.756,41.112 121.658,41.129 121.581,41.162C121.504,41.195 121.443,41.239 121.398,41.294C121.353,41.349 121.311,41.419 121.271,41.505C121.231,41.591 121.194,41.672 121.161,41.748C121.141,41.789 121.106,41.821 121.055,41.845C121.004,41.868 120.946,41.88 120.879,41.88C120.801,41.88 120.73,41.848 120.664,41.785C120.599,41.721 120.566,41.637 120.566,41.531C120.566,41.43 120.597,41.323 120.658,41.21C120.72,41.098 120.81,40.991 120.928,40.89C121.046,40.788 121.193,40.707 121.369,40.645C121.544,40.583 121.741,40.553 121.958,40.553C122.147,40.553 122.32,40.579 122.476,40.63C122.632,40.682 122.768,40.757 122.883,40.854C122.999,40.952 123.086,41.065 123.144,41.194C123.203,41.323 123.232,41.462 123.232,41.61C123.232,41.806 123.19,41.973 123.105,42.113C123.02,42.252 122.898,42.389 122.74,42.521C122.892,42.604 123.021,42.697 123.125,42.803C123.23,42.908 123.308,43.025 123.361,43.153C123.414,43.281 123.44,43.419 123.44,43.567C123.44,43.745 123.404,43.917 123.333,44.083C123.262,44.249 123.157,44.397 123.018,44.527C122.879,44.657 122.715,44.758 122.524,44.832C122.334,44.905 122.124,44.941 121.893,44.941C121.659,44.941 121.449,44.899 121.263,44.815C121.078,44.731 120.925,44.626 120.805,44.5C120.685,44.375 120.594,44.244 120.532,44.109C120.471,43.975 120.44,43.863 120.44,43.775C120.44,43.662 120.477,43.571 120.55,43.501C120.623,43.432 120.714,43.397 120.824,43.397C120.878,43.397 120.931,43.414 120.982,43.446C121.033,43.478 121.066,43.517 121.082,43.562C121.183,43.833 121.292,44.035 121.408,44.167C121.524,44.298 121.688,44.364 121.899,44.364C122.02,44.364 122.137,44.334 122.249,44.275C122.361,44.215 122.454,44.127 122.527,44.01C122.601,43.893 122.637,43.757 122.637,43.603C122.637,43.374 122.575,43.195 122.45,43.065C122.325,42.935 122.151,42.87 121.928,42.87C121.889,42.87 121.829,42.874 121.747,42.882C121.665,42.89 121.612,42.894 121.588,42.894C121.481,42.894 121.398,42.867 121.339,42.813C121.281,42.759 121.252,42.685 121.252,42.589C121.252,42.495 121.287,42.419 121.357,42.362C121.427,42.304 121.532,42.275 121.67,42.275L121.791,42.275Z" style="fill:white;fill-rule:nonzero;"/>
        <path d="M125.171,44.177L126.701,44.177C126.853,44.177 126.969,44.208 127.049,44.271C127.129,44.333 127.169,44.418 127.169,44.525C127.169,44.621 127.138,44.702 127.074,44.769C127.011,44.835 126.914,44.868 126.786,44.868L124.629,44.868C124.483,44.868 124.369,44.828 124.287,44.747C124.205,44.666 124.164,44.57 124.164,44.461C124.164,44.391 124.19,44.297 124.243,44.181C124.295,44.065 124.353,43.974 124.415,43.907C124.675,43.638 124.91,43.407 125.119,43.214C125.328,43.022 125.477,42.896 125.567,42.835C125.727,42.722 125.86,42.608 125.967,42.494C126.073,42.379 126.154,42.262 126.21,42.142C126.266,42.022 126.293,41.904 126.293,41.789C126.293,41.664 126.264,41.552 126.204,41.454C126.144,41.355 126.063,41.278 125.961,41.224C125.858,41.169 125.747,41.142 125.625,41.142C125.37,41.142 125.168,41.254 125.022,41.479C125.002,41.508 124.97,41.588 124.924,41.719C124.878,41.85 124.826,41.95 124.768,42.021C124.711,42.091 124.626,42.126 124.515,42.126C124.417,42.126 124.336,42.094 124.272,42.029C124.207,41.965 124.175,41.877 124.175,41.766C124.175,41.631 124.206,41.49 124.266,41.344C124.327,41.197 124.417,41.064 124.537,40.945C124.657,40.826 124.81,40.73 124.994,40.657C125.179,40.583 125.395,40.547 125.643,40.547C125.942,40.547 126.197,40.594 126.408,40.688C126.544,40.75 126.664,40.836 126.768,40.945C126.872,41.055 126.952,41.181 127.01,41.325C127.067,41.468 127.096,41.617 127.096,41.771C127.096,42.014 127.036,42.234 126.916,42.432C126.796,42.63 126.673,42.786 126.548,42.898C126.423,43.01 126.214,43.187 125.92,43.427C125.626,43.667 125.424,43.854 125.315,43.986C125.268,44.039 125.22,44.103 125.171,44.177Z" style="fill:white;fill-rule:nonzero;"/>
    </g>
    <defs>
        <linearGradient id="_Linear1" x1="0" y1="0" x2="1" y2="0" gradientUnits="userSpaceOnUse" gradientTransform="matrix(9.77099e-17,1.70605,-1.59572,1.04466e-16,77.4069,378.263)"><stop offset="0" style="stop-color:rgb(165,165,165);stop-opacity:1"/><stop offset="1" style="stop-color:black;stop-opacity:1"/></linearGradient>
    </defs>
</svg>
