<?xml version="1.0" encoding="UTF-8" standalone="no"?>
<!DOCTYPE svg PUBLIC "-//W3C//DTD SVG 1.1//EN" "http://www.w3.org/Graphics/SVG/1.1/DTD/svg11.dtd">
<svg width="100%" height="100%" viewBox="0 0 151 380" version="1.1" xmlns="http://www.w3.org/2000/svg" xmlns:xlink="http://www.w3.org/1999/xlink" xml:space="preserve" xmlns:serif="http://www.serif.com/" style="fill-rule:evenodd;clip-rule:evenodd;stroke-linejoin:round;stroke-miterlimit:1.41421;">
    <g id="Layer-1" serif:id="Layer 1" transform="matrix(0.834722,0,0,1.04324,-803.837,250.623)">
        <g transform="matrix(3.01847,0,0,0.959028,963,-240.415)">
            <rect x="0" y="0" width="60" height="380" style="fill:rgb(255,171,171);"/>
        </g>
        <g transform="matrix(1.01703,0,0,1.44687,998.111,-653.268)">
            <rect x="-30.034" y="347.456" width="169.102" height="16.91" style="fill-opacity:0.301961;"/>
        </g>
        <g transform="matrix(1.01896,0,0,1.55539,997.804,-450.668)">
            <rect x="-30.034" y="347.456" width="169.102" height="16.91" style="fill:rgb(4,4,4);fill-opacity:0.301961;"/>
        </g>
        <g id="path3052" transform="matrix(1.25724,0,0,1.0755,-247.861,-9.16649)">
            <rect x="963.532" y="121.41" width="142.941" height="2.074" style="fill:url(#_Linear1);"/>
        </g>
        <g id="path40444" transform="matrix(1.2559,0,0,1.0005,-246.426,-0.0614164)">
            <path d="M1107,-240.235L963,-240.235L963,124.015L1107,124.015L1107,-240.235ZM1106.47,123.484L963.531,123.484L963.531,-239.708L1106.47,-239.708L1106.47,123.484Z" style="fill:rgb(81,85,88);fill-rule:nonzero;"/>
        </g>
        <g transform="matrix(1.198,0,0,0.958552,957.436,-220.342)">
            <path d="M67.292,343.558L67.292,343.937L66.372,343.937L66.372,339.277L67.292,339.277L67.292,341.269L67.303,341.269C67.544,340.897 67.888,340.712 68.334,340.712C68.73,340.712 69.041,340.85 69.266,341.127C69.491,341.404 69.603,341.787 69.603,342.274C69.603,342.796 69.474,343.217 69.216,343.535C68.958,343.854 68.616,344.014 68.189,344.014C67.798,344.014 67.503,343.862 67.303,343.558L67.292,343.558ZM67.278,342.576C67.278,342.783 67.339,342.957 67.463,343.097C67.586,343.237 67.743,343.308 67.932,343.308C68.162,343.308 68.341,343.218 68.469,343.04C68.597,342.862 68.661,342.609 68.661,342.283C68.661,342.011 68.603,341.799 68.486,341.647C68.369,341.494 68.203,341.417 67.986,341.417C67.782,341.417 67.612,341.494 67.478,341.648C67.345,341.802 67.278,341.999 67.278,342.24L67.278,342.576Z" style="fill:rgb(10,1,1);fill-rule:nonzero;"/>
            <path d="M72.181,345.953L75.389,345.953L75.389,347.267L70.359,347.267L70.359,346.705C70.359,346.311 70.432,345.952 70.577,345.626C70.721,345.301 70.921,344.997 71.175,344.716C71.429,344.434 71.822,344.104 72.356,343.727C72.845,343.362 73.186,343.039 73.382,342.758C73.577,342.476 73.675,342.177 73.675,341.862C73.675,341.181 73.304,340.841 72.561,340.841C71.91,340.841 71.289,341.101 70.696,341.622L70.696,340.216C71.357,339.79 72.099,339.576 72.923,339.576C73.678,339.576 74.275,339.769 74.715,340.155C75.154,340.541 75.374,341.072 75.374,341.749C75.374,342.127 75.31,342.468 75.183,342.772C75.057,343.077 74.873,343.362 74.632,343.629C74.391,343.896 74.005,344.217 73.475,344.591C72.963,344.956 72.62,345.237 72.444,345.436C72.268,345.634 72.181,345.807 72.181,345.953Z" style="fill:rgb(10,1,1);fill-rule:nonzero;"/>
            <path d="M76.385,343.61C76.385,342.301 76.626,341.302 77.107,340.612C77.589,339.921 78.286,339.576 79.197,339.576C80.935,339.576 81.805,340.862 81.805,343.434C81.805,344.7 81.569,345.677 81.097,346.366C80.625,347.054 79.943,347.399 79.051,347.399C77.273,347.399 76.385,346.136 76.385,343.61ZM77.981,343.571C77.981,345.315 78.354,346.188 79.1,346.188C79.832,346.188 80.198,345.289 80.198,343.492C80.198,341.689 79.842,340.787 79.129,340.787C78.364,340.787 77.981,341.715 77.981,343.571Z" style="fill:rgb(10,1,1);fill-rule:nonzero;"/>
            <path d="M86.414,339.537L86.414,347.267L84.827,347.267L84.827,341.315C84.632,341.484 84.365,341.636 84.026,341.771C83.688,341.906 83.377,341.99 83.094,342.023L83.094,340.67C83.986,340.41 84.757,340.032 85.408,339.537L86.414,339.537Z" style="fill:rgb(10,1,1);fill-rule:nonzero;"/>
            <path d="M90.682,345.953L93.89,345.953L93.89,347.267L88.86,347.267L88.86,346.705C88.86,346.311 88.933,345.952 89.078,345.626C89.222,345.301 89.422,344.997 89.676,344.716C89.93,344.434 90.323,344.104 90.857,343.727C91.346,343.362 91.687,343.039 91.883,342.758C92.078,342.476 92.176,342.177 92.176,341.862C92.176,341.181 91.805,340.841 91.062,340.841C90.411,340.841 89.79,341.101 89.197,341.622L89.197,340.216C89.858,339.79 90.6,339.576 91.424,339.576C92.179,339.576 92.776,339.769 93.216,340.155C93.655,340.541 93.875,341.072 93.875,341.749C93.875,342.127 93.811,342.468 93.684,342.772C93.558,343.077 93.374,343.362 93.133,343.629C92.892,343.896 92.506,344.217 91.975,344.591C91.464,344.956 91.121,345.237 90.945,345.436C90.769,345.634 90.682,345.807 90.682,345.953Z" style="fill:rgb(10,1,1);fill-rule:nonzero;"/>
        </g>
        <g transform="matrix(1,0,0,1,-3.44879,0)">
            <g transform="matrix(1.198,0,0,0.958552,1024.64,-215.123)">
                <path d="M8.15,-0.355C7.435,-0.004 6.502,0.171 5.351,0.171C3.87,0.171 2.695,-0.272 1.825,-1.158C0.955,-2.045 0.521,-3.227 0.521,-4.704C0.521,-6.257 1.006,-7.527 1.977,-8.515C2.948,-9.504 4.202,-9.998 5.738,-9.998C6.699,-9.998 7.503,-9.873 8.15,-9.623L8.15,-7.598C7.486,-7.987 6.733,-8.182 5.891,-8.182C4.93,-8.182 4.162,-7.875 3.586,-7.262C3.011,-6.648 2.723,-5.846 2.723,-4.856C2.723,-3.891 2.996,-3.115 3.542,-2.526C4.088,-1.938 4.826,-1.644 5.757,-1.644C6.633,-1.644 7.431,-1.856 8.15,-2.279L8.15,-0.355Z" style="fill-rule:nonzero;"/>
                <path d="M17.977,-9.833L14.562,0L12.194,0L8.823,-9.833L11.083,-9.833L13.209,-2.882C13.315,-2.539 13.381,-2.215 13.406,-1.911L13.444,-1.911C13.478,-2.224 13.55,-2.556 13.66,-2.907L15.787,-9.833L17.977,-9.833Z" style="fill-rule:nonzero;"/>
                <rect x="19.024" y="-4.488" width="3.751" height="1.447" style="fill-rule:nonzero;"/>
            </g>
            <g transform="matrix(-1.1815,0,0,1.03299,1089.83,-214.929)">
                <path d="M9.758,0L9.758,-5.744C9.758,-6.273 9.785,-6.939 9.838,-7.742L9.789,-7.742C9.667,-7.135 9.569,-6.73 9.496,-6.526L7.161,0L5.554,0L3.19,-6.465C3.133,-6.62 3.033,-7.045 2.89,-7.742L2.835,-7.742C2.888,-6.948 2.915,-6.151 2.915,-5.353L2.915,0L1.094,0L1.094,-9.465L4.027,-9.465L6.068,-3.746C6.239,-3.273 6.355,-2.829 6.416,-2.414L6.459,-2.414C6.585,-2.931 6.715,-3.379 6.85,-3.758L8.897,-9.465L11.75,-9.465L11.75,0L9.758,0Z" style="fill-rule:nonzero;"/>
                <path d="M22.175,0L19.975,0L19.266,-2.169L15.826,-2.169L15.129,0L12.942,0L16.406,-9.465L18.777,-9.465L22.175,0ZM18.79,-3.727L17.714,-7.009C17.645,-7.216 17.596,-7.491 17.567,-7.834L17.512,-7.834C17.488,-7.557 17.433,-7.29 17.347,-7.033L16.266,-3.727L18.79,-3.727Z" style="fill-rule:nonzero;"/>
                <path d="M25.389,-3.3L25.389,0L23.372,0L23.372,-9.465L26.629,-9.465C28.984,-9.465 30.161,-8.467 30.161,-6.471C30.161,-5.501 29.806,-4.724 29.095,-4.14C28.384,-3.555 27.495,-3.275 26.428,-3.3L25.389,-3.3ZM25.389,-7.901L25.389,-4.846L26.263,-4.846C27.448,-4.846 28.041,-5.361 28.041,-6.391C28.041,-7.398 27.454,-7.901 26.281,-7.901L25.389,-7.901Z" style="fill-rule:nonzero;"/>
            </g>
        </g>
        <g transform="matrix(1.198,0,0,0.958552,968.168,-259.638)">
            <path d="M26.197,52.038L26.197,53.356L25.391,53.356L25.391,49.575L26.692,49.575C27.633,49.575 28.103,49.973 28.103,50.771C28.103,51.158 27.961,51.469 27.677,51.702C27.393,51.936 27.038,52.048 26.612,52.038L26.197,52.038ZM26.197,50.2L26.197,51.42L26.546,51.42C27.019,51.42 27.256,51.214 27.256,50.803C27.256,50.401 27.022,50.2 26.553,50.2L26.197,50.2Z" style="fill:rgb(5,5,5);fill-opacity:0.501961;fill-rule:nonzero;"/>
            <path d="M31.629,53.356L30.75,53.356L30.467,52.49L29.092,52.49L28.814,53.356L27.94,53.356L29.324,49.575L30.271,49.575L31.629,53.356ZM30.276,51.867L29.847,50.556C29.819,50.473 29.799,50.363 29.788,50.226L29.766,50.226C29.756,50.337 29.734,50.444 29.7,50.546L29.268,51.867L30.276,51.867Z" style="fill:rgb(5,5,5);fill-opacity:0.501961;fill-rule:nonzero;"/>
            <path d="M35.227,53.356L34.3,53.356L33.706,52.372C33.584,52.169 33.484,52.038 33.406,51.979C33.328,51.921 33.245,51.892 33.157,51.892L32.913,51.892L32.913,53.356L32.107,53.356L32.107,49.575L33.433,49.575C34.333,49.575 34.783,49.916 34.783,50.6C34.783,50.857 34.708,51.078 34.557,51.262C34.407,51.446 34.2,51.575 33.936,51.65L33.936,51.66C34.11,51.718 34.303,51.91 34.514,52.236L35.227,53.356ZM32.913,50.187L32.913,51.276L33.308,51.276C33.497,51.276 33.649,51.221 33.764,51.111C33.879,51.002 33.936,50.864 33.936,50.7C33.936,50.358 33.732,50.187 33.323,50.187L32.913,50.187Z" style="fill:rgb(5,5,5);fill-opacity:0.501961;fill-rule:nonzero;"/>
            <path d="M38.88,53.356L38.001,53.356L37.718,52.49L36.343,52.49L36.065,53.356L35.191,53.356L36.575,49.575L37.522,49.575L38.88,53.356ZM37.527,51.867L37.097,50.556C37.07,50.473 37.05,50.363 37.039,50.226L37.017,50.226C37.007,50.337 36.985,50.444 36.951,50.546L36.519,51.867L37.527,51.867Z" style="fill:rgb(5,5,5);fill-opacity:0.501961;fill-rule:nonzero;"/>
            <path d="M42.82,53.356L42.82,51.061C42.82,50.85 42.831,50.584 42.852,50.263L42.832,50.263C42.784,50.506 42.744,50.668 42.715,50.749L41.783,53.356L41.14,53.356L40.196,50.773C40.173,50.711 40.133,50.541 40.076,50.263L40.054,50.263C40.075,50.58 40.086,50.899 40.086,51.218L40.086,53.356L39.358,53.356L39.358,49.575L40.53,49.575L41.346,51.86C41.414,52.049 41.46,52.226 41.485,52.392L41.502,52.392C41.552,52.185 41.604,52.006 41.658,51.855L42.476,49.575L43.616,49.575L43.616,53.356L42.82,53.356Z" style="fill:rgb(5,5,5);fill-opacity:0.501961;fill-rule:nonzero;"/>
            <path d="M46.739,53.356L44.5,53.356L44.5,49.575L46.651,49.575L46.651,50.234L45.306,50.234L45.306,51.125L46.556,51.125L46.556,51.782L45.306,51.782L45.306,52.697L46.739,52.697L46.739,53.356Z" style="fill:rgb(5,5,5);fill-opacity:0.501961;fill-rule:nonzero;"/>
            <path d="M50.008,50.234L48.929,50.234L48.929,53.356L48.12,53.356L48.12,50.234L47.044,50.234L47.044,49.575L50.008,49.575L50.008,50.234Z" style="fill:rgb(5,5,5);fill-opacity:0.501961;fill-rule:nonzero;"/>
            <path d="M52.764,53.356L50.525,53.356L50.525,49.575L52.676,49.575L52.676,50.234L51.331,50.234L51.331,51.125L52.581,51.125L52.581,51.782L51.331,51.782L51.331,52.697L52.764,52.697L52.764,53.356Z" style="fill:rgb(5,5,5);fill-opacity:0.501961;fill-rule:nonzero;"/>
            <path d="M56.504,53.356L55.576,53.356L54.983,52.372C54.861,52.169 54.761,52.038 54.683,51.979C54.605,51.921 54.522,51.892 54.434,51.892L54.19,51.892L54.19,53.356L53.384,53.356L53.384,49.575L54.71,49.575C55.61,49.575 56.06,49.916 56.06,50.6C56.06,50.857 55.985,51.078 55.834,51.262C55.684,51.446 55.476,51.575 55.213,51.65L55.213,51.66C55.387,51.718 55.58,51.91 55.791,52.236L56.504,53.356ZM54.19,50.187L54.19,51.276L54.585,51.276C54.774,51.276 54.926,51.221 55.041,51.111C55.155,51.002 55.213,50.864 55.213,50.7C55.213,50.358 55.008,50.187 54.6,50.187L54.19,50.187Z" style="fill:rgb(5,5,5);fill-opacity:0.501961;fill-rule:nonzero;"/>
            <path d="M61.062,53.22C60.787,53.355 60.428,53.422 59.986,53.422C59.416,53.422 58.964,53.252 58.629,52.911C58.295,52.57 58.128,52.115 58.128,51.547C58.128,50.95 58.315,50.461 58.688,50.081C59.062,49.701 59.544,49.511 60.135,49.511C60.504,49.511 60.813,49.559 61.062,49.655L61.062,50.434C60.807,50.284 60.517,50.209 60.193,50.209C59.824,50.209 59.528,50.327 59.307,50.563C59.086,50.799 58.975,51.108 58.975,51.489C58.975,51.86 59.08,52.158 59.29,52.385C59.5,52.611 59.784,52.724 60.142,52.724C60.479,52.724 60.786,52.643 61.062,52.48L61.062,53.22Z" style="fill:rgb(5,5,5);fill-opacity:0.501961;fill-rule:nonzero;"/>
            <path d="M61.429,51.516C61.429,50.923 61.601,50.441 61.947,50.069C62.293,49.697 62.75,49.511 63.318,49.511C63.859,49.511 64.294,49.691 64.623,50.051C64.953,50.41 65.118,50.873 65.118,51.437C65.118,52.027 64.946,52.505 64.604,52.872C64.261,53.239 63.812,53.422 63.257,53.422C62.715,53.422 62.275,53.244 61.936,52.889C61.598,52.533 61.429,52.075 61.429,51.516ZM62.276,51.472C62.276,51.839 62.364,52.14 62.542,52.374C62.719,52.607 62.963,52.724 63.272,52.724C63.588,52.724 63.833,52.612 64.009,52.388C64.185,52.165 64.273,51.864 64.273,51.486C64.273,51.092 64.187,50.781 64.016,50.552C63.846,50.324 63.605,50.209 63.294,50.209C62.978,50.209 62.729,50.327 62.548,50.561C62.366,50.795 62.276,51.099 62.276,51.472Z" style="fill:rgb(5,5,5);fill-opacity:0.501961;fill-rule:nonzero;"/>
            <path d="M69.119,53.356L68.294,53.356L66.692,50.91C66.609,50.783 66.549,50.681 66.512,50.602L66.499,50.602C66.514,50.733 66.521,50.934 66.521,51.205L66.521,53.356L65.757,53.356L65.757,49.575L66.636,49.575L68.179,51.953C68.282,52.11 68.344,52.211 68.367,52.253L68.379,52.253C68.363,52.162 68.355,51.988 68.355,51.73L68.355,49.575L69.119,49.575L69.119,53.356Z" style="fill:rgb(5,5,5);fill-opacity:0.501961;fill-rule:nonzero;"/>
            <path d="M72.608,50.234L71.529,50.234L71.529,53.356L70.721,53.356L70.721,50.234L69.644,50.234L69.644,49.575L72.608,49.575L72.608,50.234Z" style="fill:rgb(5,5,5);fill-opacity:0.501961;fill-rule:nonzero;"/>
            <path d="M76.245,53.356L75.318,53.356L74.724,52.372C74.602,52.169 74.502,52.038 74.424,51.979C74.346,51.921 74.263,51.892 74.175,51.892L73.931,51.892L73.931,53.356L73.125,53.356L73.125,49.575L74.451,49.575C75.351,49.575 75.801,49.916 75.801,50.6C75.801,50.857 75.726,51.078 75.575,51.262C75.425,51.446 75.218,51.575 74.954,51.65L74.954,51.66C75.128,51.718 75.321,51.91 75.533,52.236L76.245,53.356ZM73.931,50.187L73.931,51.276L74.326,51.276C74.515,51.276 74.667,51.221 74.782,51.111C74.897,51.002 74.954,50.864 74.954,50.7C74.954,50.358 74.75,50.187 74.341,50.187L73.931,50.187Z" style="fill:rgb(5,5,5);fill-opacity:0.501961;fill-rule:nonzero;"/>
            <path d="M76.324,51.516C76.324,50.923 76.497,50.441 76.842,50.069C77.188,49.697 77.645,49.511 78.213,49.511C78.754,49.511 79.189,49.691 79.518,50.051C79.848,50.41 80.013,50.873 80.013,51.437C80.013,52.027 79.841,52.505 79.499,52.872C79.156,53.239 78.707,53.422 78.152,53.422C77.61,53.422 77.17,53.244 76.831,52.889C76.493,52.533 76.324,52.075 76.324,51.516ZM77.171,51.472C77.171,51.839 77.259,52.14 77.437,52.374C77.614,52.607 77.858,52.724 78.167,52.724C78.483,52.724 78.728,52.612 78.904,52.388C79.08,52.165 79.168,51.864 79.168,51.486C79.168,51.092 79.082,50.781 78.911,50.552C78.741,50.324 78.5,50.209 78.189,50.209C77.873,50.209 77.624,50.327 77.443,50.561C77.261,50.795 77.171,51.099 77.171,51.472Z" style="fill:rgb(5,5,5);fill-opacity:0.501961;fill-rule:nonzero;"/>
            <path d="M82.871,53.356L80.652,53.356L80.652,49.575L81.458,49.575L81.458,52.697L82.871,52.697L82.871,53.356Z" style="fill:rgb(5,5,5);fill-opacity:0.501961;fill-rule:nonzero;"/>
            <path d="M85.606,53.356L83.387,53.356L83.387,49.575L84.192,49.575L84.192,52.697L85.606,52.697L85.606,53.356Z" style="fill:rgb(5,5,5);fill-opacity:0.501961;fill-rule:nonzero;"/>
            <path d="M88.36,53.356L86.121,53.356L86.121,49.575L88.272,49.575L88.272,50.234L86.927,50.234L86.927,51.125L88.177,51.125L88.177,51.782L86.927,51.782L86.927,52.697L88.36,52.697L88.36,53.356Z" style="fill:rgb(5,5,5);fill-opacity:0.501961;fill-rule:nonzero;"/>
            <path d="M88.98,53.356L88.98,49.575L90.286,49.575C91.629,49.575 92.3,50.189 92.3,51.418C92.3,52.002 92.112,52.471 91.736,52.825C91.36,53.179 90.875,53.356 90.281,53.356L88.98,53.356ZM89.785,50.234L89.785,52.697L90.225,52.697C90.607,52.697 90.908,52.583 91.126,52.355C91.344,52.128 91.453,51.819 91.453,51.43C91.453,51.054 91.339,50.761 91.111,50.55C90.883,50.339 90.587,50.234 90.222,50.234L89.785,50.234Z" style="fill:rgb(5,5,5);fill-opacity:0.501961;fill-rule:nonzero;"/>
            <path d="M97.537,49.575L96.223,53.356L95.313,53.356L94.016,49.575L94.886,49.575L95.703,52.248C95.744,52.38 95.769,52.504 95.779,52.621L95.794,52.621C95.807,52.501 95.834,52.373 95.877,52.238L96.695,49.575L97.537,49.575Z" style="fill:rgb(5,5,5);fill-opacity:0.501961;fill-rule:nonzero;"/>
            <path d="M97.752,51.516C97.752,50.923 97.925,50.441 98.271,50.069C98.616,49.697 99.073,49.511 99.641,49.511C100.182,49.511 100.617,49.691 100.946,50.051C101.276,50.41 101.441,50.873 101.441,51.437C101.441,52.027 101.269,52.505 100.927,52.872C100.584,53.239 100.135,53.422 99.58,53.422C99.038,53.422 98.598,53.244 98.26,52.889C97.921,52.533 97.752,52.075 97.752,51.516ZM98.599,51.472C98.599,51.839 98.688,52.14 98.865,52.374C99.042,52.607 99.286,52.724 99.595,52.724C99.911,52.724 100.157,52.612 100.332,52.388C100.508,52.165 100.596,51.864 100.596,51.486C100.596,51.092 100.511,50.781 100.34,50.552C100.169,50.324 99.928,50.209 99.617,50.209C99.301,50.209 99.053,50.327 98.871,50.561C98.69,50.795 98.599,51.099 98.599,51.472Z" style="fill:rgb(5,5,5);fill-opacity:0.501961;fill-rule:nonzero;"/>
            <path d="M104.3,53.356L102.08,53.356L102.08,49.575L102.886,49.575L102.886,52.697L104.3,52.697L104.3,53.356Z" style="fill:rgb(5,5,5);fill-opacity:0.501961;fill-rule:nonzero;"/>
            <path d="M107.076,50.234L105.996,50.234L105.996,53.356L105.188,53.356L105.188,50.234L104.112,50.234L104.112,49.575L107.076,49.575L107.076,50.234Z" style="fill:rgb(5,5,5);fill-opacity:0.501961;fill-rule:nonzero;"/>
            <path d="M110.496,53.356L109.617,53.356L109.334,52.49L107.959,52.49L107.681,53.356L106.807,53.356L108.191,49.575L109.139,49.575L110.496,53.356ZM109.143,51.867L108.714,50.556C108.686,50.473 108.667,50.363 108.655,50.226L108.633,50.226C108.623,50.337 108.601,50.444 108.567,50.546L108.135,51.867L109.143,51.867Z" style="fill:rgb(5,5,5);fill-opacity:0.501961;fill-rule:nonzero;"/>
            <path d="M113.99,53.102C113.62,53.316 113.166,53.422 112.627,53.422C112.025,53.422 111.55,53.253 111.201,52.914C110.853,52.576 110.679,52.113 110.679,51.525C110.679,50.93 110.871,50.445 111.254,50.071C111.637,49.698 112.142,49.511 112.769,49.511C113.173,49.511 113.525,49.568 113.826,49.682L113.826,50.446C113.533,50.275 113.175,50.19 112.752,50.19C112.387,50.19 112.092,50.309 111.866,50.546C111.639,50.784 111.526,51.097 111.526,51.486C111.526,51.882 111.628,52.19 111.833,52.412C112.037,52.633 112.316,52.744 112.669,52.744C112.879,52.744 113.05,52.711 113.184,52.646L113.184,51.87L112.42,51.87L112.42,51.223L113.99,51.223L113.99,53.102Z" style="fill:rgb(5,5,5);fill-opacity:0.501961;fill-rule:nonzero;"/>
            <path d="M116.98,53.356L114.742,53.356L114.742,49.575L116.892,49.575L116.892,50.234L115.547,50.234L115.547,51.125L116.797,51.125L116.797,51.782L115.547,51.782L115.547,52.697L116.98,52.697L116.98,53.356Z" style="fill:rgb(5,5,5);fill-opacity:0.501961;fill-rule:nonzero;"/>
        </g>
        <g transform="matrix(1.198,0,0,0.958552,956.524,-247.004)">
            <path d="M17.37,50.31L17.37,51.892L16.404,51.892L16.404,47.354L17.965,47.354C19.094,47.354 19.659,47.833 19.659,48.79C19.659,49.255 19.488,49.627 19.147,49.908C18.807,50.188 18.38,50.322 17.869,50.31L17.37,50.31ZM17.37,48.104L17.37,49.569L17.789,49.569C18.358,49.569 18.642,49.322 18.642,48.828C18.642,48.346 18.361,48.104 17.798,48.104L17.37,48.104Z" style="fill-rule:nonzero;"/>
            <path d="M20.063,49.683C20.063,48.973 20.27,48.394 20.685,47.948C21.1,47.501 21.649,47.278 22.33,47.278C22.979,47.278 23.501,47.494 23.896,47.926C24.292,48.357 24.49,48.912 24.49,49.59C24.49,50.297 24.284,50.87 23.873,51.311C23.462,51.751 22.923,51.972 22.257,51.972C21.607,51.972 21.078,51.758 20.672,51.331C20.266,50.905 20.063,50.355 20.063,49.683ZM21.079,49.631C21.079,50.072 21.186,50.433 21.399,50.713C21.612,50.994 21.904,51.134 22.275,51.134C22.654,51.134 22.949,50.999 23.16,50.731C23.37,50.462 23.476,50.101 23.476,49.648C23.476,49.176 23.373,48.802 23.168,48.528C22.963,48.253 22.674,48.116 22.301,48.116C21.922,48.116 21.624,48.257 21.406,48.538C21.188,48.819 21.079,49.183 21.079,49.631Z" style="fill-rule:nonzero;"/>
            <path d="M27.92,51.892L25.257,51.892L25.257,47.354L26.224,47.354L26.224,51.101L27.92,51.101L27.92,51.892Z" style="fill-rule:nonzero;"/>
            <path d="M31.453,47.354L29.971,50.272L29.971,51.892L29.004,51.892L29.004,50.29L27.563,47.354L28.667,47.354L29.429,49.089C29.445,49.124 29.481,49.243 29.537,49.446L29.549,49.446C29.573,49.309 29.605,49.193 29.646,49.098L30.428,47.354L31.453,47.354Z" style="fill-rule:nonzero;"/>
            <rect x="31.899" y="49.821" width="1.731" height="0.668" style="fill-rule:nonzero;"/>
            <path d="M34.307,49.683C34.307,48.973 34.515,48.394 34.93,47.948C35.345,47.501 35.893,47.278 36.575,47.278C37.223,47.278 37.745,47.494 38.141,47.926C38.536,48.357 38.734,48.912 38.734,49.59C38.734,50.297 38.528,50.87 38.117,51.311C37.706,51.751 37.167,51.972 36.501,51.972C35.851,51.972 35.323,51.758 34.916,51.331C34.51,50.905 34.307,50.355 34.307,49.683ZM35.324,49.631C35.324,50.072 35.43,50.433 35.643,50.713C35.856,50.994 36.148,51.134 36.519,51.134C36.898,51.134 37.193,50.999 37.404,50.731C37.615,50.462 37.72,50.101 37.72,49.648C37.72,49.176 37.618,48.802 37.412,48.528C37.207,48.253 36.918,48.116 36.545,48.116C36.166,48.116 35.868,48.257 35.65,48.538C35.432,48.819 35.324,49.183 35.324,49.631Z" style="fill-rule:nonzero;"/>
            <path d="M43.163,49.941C43.163,51.295 42.535,51.972 41.277,51.972C40.062,51.972 39.454,51.312 39.454,49.994L39.454,47.354L40.424,47.354L40.424,50C40.424,50.756 40.722,51.134 41.318,51.134C41.904,51.134 42.197,50.769 42.197,50.041L42.197,47.354L43.163,47.354L43.163,49.941Z" style="fill-rule:nonzero;"/>
            <path d="M47.291,48.145L45.996,48.145L45.996,51.892L45.027,51.892L45.027,48.145L43.735,48.145L43.735,47.354L47.291,47.354L47.291,48.145Z" style="fill-rule:nonzero;"/>
            <path d="M49.404,49.698C49.404,48.913 49.548,48.313 49.837,47.899C50.126,47.485 50.544,47.278 51.091,47.278C52.134,47.278 52.656,48.05 52.656,49.593C52.656,50.352 52.514,50.939 52.231,51.352C51.948,51.765 51.538,51.972 51.003,51.972C49.937,51.972 49.404,51.214 49.404,49.698ZM50.362,49.675C50.362,50.722 50.585,51.245 51.033,51.245C51.472,51.245 51.692,50.706 51.692,49.628C51.692,48.546 51.478,48.005 51.05,48.005C50.591,48.005 50.362,48.561 50.362,49.675Z" style="fill-rule:nonzero;"/>
            <path d="M55.421,47.255L55.421,51.892L54.469,51.892L54.469,48.321C54.352,48.423 54.192,48.514 53.989,48.595C53.786,48.676 53.599,48.726 53.429,48.746L53.429,47.934C53.964,47.778 54.427,47.552 54.818,47.255L55.421,47.255Z" style="fill-rule:nonzero;"/>
            <rect x="57.027" y="49.821" width="1.731" height="0.668" style="fill-rule:nonzero;"/>
            <path d="M61.741,47.255L61.741,51.892L60.788,51.892L60.788,48.321C60.671,48.423 60.511,48.514 60.308,48.595C60.105,48.676 59.918,48.726 59.748,48.746L59.748,47.934C60.284,47.778 60.746,47.552 61.137,47.255L61.741,47.255Z" style="fill-rule:nonzero;"/>
            <path d="M66.062,48.201C65.831,48.07 65.58,48.005 65.309,48.005C64.959,48.005 64.68,48.142 64.47,48.416C64.26,48.691 64.155,49.046 64.155,49.481L64.172,49.481C64.389,49.149 64.71,48.983 65.136,48.983C65.517,48.983 65.819,49.114 66.043,49.374C66.266,49.635 66.378,49.974 66.378,50.392C66.378,50.849 66.233,51.227 65.942,51.525C65.651,51.823 65.279,51.972 64.826,51.972C64.306,51.972 63.908,51.784 63.632,51.409C63.355,51.034 63.217,50.52 63.217,49.868C63.217,49.1 63.396,48.477 63.755,47.997C64.113,47.518 64.612,47.278 65.25,47.278C65.594,47.278 65.865,47.319 66.062,47.401L66.062,48.201ZM64.187,50.401C64.187,50.636 64.245,50.835 64.363,50.999C64.48,51.163 64.634,51.245 64.826,51.245C65.019,51.245 65.171,51.17 65.283,51.019C65.394,50.869 65.45,50.681 65.45,50.454C65.45,49.944 65.24,49.689 64.82,49.689C64.63,49.689 64.477,49.757 64.361,49.891C64.245,50.026 64.187,50.196 64.187,50.401Z" style="fill-rule:nonzero;"/>
        </g>
        <g transform="matrix(1.198,0,0,0.958552,1049.8,-246.756)">
            <path d="M17.37,50.31L17.37,51.892L16.404,51.892L16.404,47.354L17.965,47.354C19.094,47.354 19.659,47.833 19.659,48.79C19.659,49.255 19.488,49.627 19.147,49.908C18.807,50.188 18.38,50.322 17.869,50.31L17.37,50.31ZM17.37,48.104L17.37,49.569L17.789,49.569C18.358,49.569 18.642,49.322 18.642,48.828C18.642,48.346 18.361,48.104 17.798,48.104L17.37,48.104Z" style="fill-rule:nonzero;"/>
            <path d="M20.063,49.683C20.063,48.973 20.27,48.394 20.685,47.948C21.1,47.501 21.649,47.278 22.33,47.278C22.979,47.278 23.501,47.494 23.896,47.926C24.292,48.357 24.49,48.912 24.49,49.59C24.49,50.297 24.284,50.87 23.873,51.311C23.462,51.751 22.923,51.972 22.257,51.972C21.607,51.972 21.078,51.758 20.672,51.331C20.266,50.905 20.063,50.355 20.063,49.683ZM21.079,49.631C21.079,50.072 21.186,50.433 21.399,50.713C21.612,50.994 21.904,51.134 22.275,51.134C22.654,51.134 22.949,50.999 23.16,50.731C23.37,50.462 23.476,50.101 23.476,49.648C23.476,49.176 23.373,48.802 23.168,48.528C22.963,48.253 22.674,48.116 22.301,48.116C21.922,48.116 21.624,48.257 21.406,48.538C21.188,48.819 21.079,49.183 21.079,49.631Z" style="fill-rule:nonzero;"/>
            <path d="M27.92,51.892L25.257,51.892L25.257,47.354L26.224,47.354L26.224,51.101L27.92,51.101L27.92,51.892Z" style="fill-rule:nonzero;"/>
            <path d="M31.453,47.354L29.971,50.272L29.971,51.892L29.004,51.892L29.004,50.29L27.563,47.354L28.667,47.354L29.429,49.089C29.445,49.124 29.481,49.243 29.537,49.446L29.549,49.446C29.573,49.309 29.605,49.193 29.646,49.098L30.428,47.354L31.453,47.354Z" style="fill-rule:nonzero;"/>
            <rect x="31.899" y="49.821" width="1.731" height="0.668" style="fill-rule:nonzero;"/>
            <path d="M34.307,49.683C34.307,48.973 34.515,48.394 34.93,47.948C35.345,47.501 35.893,47.278 36.575,47.278C37.223,47.278 37.745,47.494 38.141,47.926C38.536,48.357 38.734,48.912 38.734,49.59C38.734,50.297 38.528,50.87 38.117,51.311C37.706,51.751 37.167,51.972 36.501,51.972C35.851,51.972 35.323,51.758 34.916,51.331C34.51,50.905 34.307,50.355 34.307,49.683ZM35.324,49.631C35.324,50.072 35.43,50.433 35.643,50.713C35.856,50.994 36.148,51.134 36.519,51.134C36.898,51.134 37.193,50.999 37.404,50.731C37.615,50.462 37.72,50.101 37.72,49.648C37.72,49.176 37.618,48.802 37.412,48.528C37.207,48.253 36.918,48.116 36.545,48.116C36.166,48.116 35.868,48.257 35.65,48.538C35.432,48.819 35.324,49.183 35.324,49.631Z" style="fill-rule:nonzero;"/>
            <path d="M43.163,49.941C43.163,51.295 42.535,51.972 41.277,51.972C40.062,51.972 39.454,51.312 39.454,49.994L39.454,47.354L40.424,47.354L40.424,50C40.424,50.756 40.722,51.134 41.318,51.134C41.904,51.134 42.197,50.769 42.197,50.041L42.197,47.354L43.163,47.354L43.163,49.941Z" style="fill-rule:nonzero;"/>
            <path d="M47.291,48.145L45.996,48.145L45.996,51.892L45.027,51.892L45.027,48.145L43.735,48.145L43.735,47.354L47.291,47.354L47.291,48.145Z" style="fill-rule:nonzero;"/>
            <path d="M51.721,47.255L51.721,51.892L50.769,51.892L50.769,48.321C50.652,48.423 50.492,48.514 50.288,48.595C50.085,48.676 49.899,48.726 49.729,48.746L49.729,47.934C50.264,47.778 50.727,47.552 51.118,47.255L51.721,47.255Z" style="fill-rule:nonzero;"/>
            <path d="M56.321,47.932C55.953,48.59 55.68,49.12 55.499,49.522C55.318,49.925 55.171,50.316 55.058,50.697C54.945,51.078 54.858,51.476 54.797,51.892L53.781,51.892C53.878,51.301 54.051,50.702 54.298,50.095C54.545,49.489 54.886,48.835 55.322,48.134L53.157,48.134L53.157,47.354L56.321,47.354L56.321,47.932Z" style="fill-rule:nonzero;"/>
            <rect x="57.027" y="49.821" width="1.731" height="0.668" style="fill-rule:nonzero;"/>
            <path d="M59.658,50.905C59.96,51.132 60.314,51.245 60.718,51.245C60.974,51.245 61.177,51.188 61.328,51.075C61.478,50.962 61.553,50.801 61.553,50.592C61.553,50.377 61.464,50.213 61.285,50.099C61.106,49.986 60.856,49.93 60.534,49.93L60.129,49.93L60.129,49.2L60.501,49.2C61.111,49.2 61.415,48.995 61.415,48.585C61.415,48.198 61.182,48.005 60.715,48.005C60.411,48.005 60.115,48.104 59.828,48.304L59.828,47.521C60.14,47.359 60.508,47.278 60.932,47.278C61.362,47.278 61.71,47.377 61.978,47.576C62.245,47.774 62.379,48.049 62.379,48.4C62.379,48.994 62.078,49.367 61.477,49.519L61.477,49.534C61.793,49.569 62.046,49.685 62.236,49.881C62.425,50.078 62.52,50.316 62.52,50.598C62.52,51.029 62.362,51.366 62.047,51.608C61.731,51.85 61.311,51.972 60.786,51.972C60.319,51.972 59.943,51.894 59.658,51.74L59.658,50.905Z" style="fill-rule:nonzero;"/>
            <path d="M64.301,51.104L66.226,51.104L66.226,51.892L63.208,51.892L63.208,51.556C63.208,51.319 63.252,51.103 63.339,50.908C63.426,50.713 63.545,50.531 63.698,50.362C63.85,50.193 64.086,49.995 64.407,49.768C64.7,49.55 64.905,49.356 65.022,49.187C65.139,49.018 65.198,48.839 65.198,48.649C65.198,48.241 64.975,48.037 64.53,48.037C64.139,48.037 63.766,48.193 63.411,48.506L63.411,47.662C63.807,47.406 64.252,47.278 64.746,47.278C65.2,47.278 65.558,47.394 65.822,47.625C66.085,47.857 66.217,48.176 66.217,48.582C66.217,48.808 66.179,49.013 66.103,49.196C66.027,49.378 65.916,49.55 65.772,49.71C65.627,49.87 65.396,50.062 65.078,50.287C64.771,50.506 64.565,50.675 64.459,50.794C64.354,50.913 64.301,51.016 64.301,51.104Z" style="fill-rule:nonzero;"/>
        </g>
    </g>
    <defs>
        <linearGradient id="_Linear1" x1="0" y1="0" x2="1" y2="0" gradientUnits="userSpaceOnUse" gradientTransform="matrix(9.31062e-17,1.52054,-1.52054,9.31062e-17,1036.87,122.284)"><stop offset="0" style="stop-color:rgb(165,165,165);stop-opacity:1"/><stop offset="1" style="stop-color:black;stop-opacity:1"/></linearGradient>
    </defs>
</svg>
