<?xml version="1.0" encoding="UTF-8" standalone="no"?>
<!DOCTYPE svg PUBLIC "-//W3C//DTD SVG 1.1//EN" "http://www.w3.org/Graphics/SVG/1.1/DTD/svg11.dtd">
<svg width="100%" height="100%" viewBox="0 0 150 380" version="1.1" xmlns="http://www.w3.org/2000/svg" xmlns:xlink="http://www.w3.org/1999/xlink" xml:space="preserve" xmlns:serif="http://www.serif.com/" style="fill-rule:evenodd;clip-rule:evenodd;stroke-linecap:round;stroke-linejoin:round;stroke-miterlimit:1.5;">
    <g id="Layer-1" serif:id="Layer 1" transform="matrix(0.834722,0,0,1.04324,-803.837,250.623)">
        <g transform="matrix(2.99501,0,0,0.958552,963,-240.235)">
            <rect x="0" y="0" width="60" height="380" style="fill:rgb(128,187,254);"/>
        </g>
        <g transform="matrix(1.06268,0,0,1.44687,994.916,-653.268)">
            <rect x="-30.034" y="347.456" width="169.102" height="16.91" style="fill-opacity:0.3;"/>
        </g>
        <g transform="matrix(1.06268,0,0,1.55539,994.916,-450.668)">
            <rect x="-30.034" y="347.456" width="169.102" height="16.91" style="fill:rgb(4,4,4);fill-opacity:0.3;"/>
        </g>
        <g id="path3052" transform="matrix(1.25724,0,0,1.0755,-248.391,-9.16649)">
            <rect x="963.532" y="121.41" width="142.941" height="2.074" style="fill:url(#_Linear1);"/>
        </g>
        <g transform="matrix(8.02347,0,0,25.5659,663.022,-292.473)">
            <rect x="37.388" y="2.043" width="22.397" height="14.247" style="fill:none;stroke:black;stroke-opacity:0.6;stroke-width:0.03px;"/>
        </g>
        <g transform="matrix(1,0,0,1,-4.04779,-5.94302)">
            <g transform="matrix(1.198,0,0,0.958552,1024.64,-215.123)">
                <g transform="matrix(13,0,0,13,0,0)">
                    <path d="M0.627,-0.027C0.572,0 0.5,0.013 0.412,0.013C0.298,0.013 0.207,-0.021 0.14,-0.089C0.073,-0.157 0.04,-0.248 0.04,-0.362C0.04,-0.481 0.077,-0.579 0.152,-0.655C0.227,-0.731 0.323,-0.769 0.441,-0.769C0.515,-0.769 0.577,-0.759 0.627,-0.74L0.627,-0.584C0.576,-0.614 0.518,-0.629 0.453,-0.629C0.379,-0.629 0.32,-0.606 0.276,-0.559C0.232,-0.511 0.209,-0.45 0.209,-0.374C0.209,-0.299 0.23,-0.24 0.272,-0.194C0.314,-0.149 0.371,-0.126 0.443,-0.126C0.51,-0.126 0.572,-0.143 0.627,-0.175L0.627,-0.027Z" style="fill-rule:nonzero;"/>
                </g>
                <g transform="matrix(13,0,0,13,8.75342,0)">
                    <path d="M0.709,-0.756L0.447,0L0.265,0L0.005,-0.756L0.179,-0.756L0.343,-0.222C0.351,-0.195 0.356,-0.17 0.358,-0.147L0.361,-0.147C0.363,-0.171 0.369,-0.197 0.377,-0.224L0.541,-0.756L0.709,-0.756Z" style="fill-rule:nonzero;"/>
                </g>
                <g transform="matrix(13,0,0,13,18.0464,0)">
                    <rect x="0.075" y="-0.345" width="0.289" height="0.111" style="fill-rule:nonzero;"/>
                </g>
            </g>
            <g transform="matrix(-1.1815,0,0,1.03299,1089.83,-214.929)">
                <g transform="matrix(12.5141,0,0,12.5141,0,0)">
                    <path d="M0.78,0L0.78,-0.459C0.78,-0.501 0.782,-0.555 0.786,-0.619L0.782,-0.619C0.772,-0.57 0.765,-0.538 0.759,-0.521L0.572,0L0.444,0L0.255,-0.517C0.25,-0.529 0.242,-0.563 0.231,-0.619L0.227,-0.619C0.231,-0.555 0.233,-0.492 0.233,-0.428L0.233,0L0.087,0L0.087,-0.756L0.322,-0.756L0.485,-0.299C0.499,-0.262 0.508,-0.226 0.513,-0.193L0.516,-0.193C0.526,-0.234 0.537,-0.27 0.547,-0.3L0.711,-0.756L0.939,-0.756L0.939,0L0.78,0Z" style="fill-rule:nonzero;"/>
                </g>
                <g transform="matrix(12.5141,0,0,12.5141,12.8685,0)">
                    <path d="M0.744,0L0.568,0L0.511,-0.173L0.236,-0.173L0.181,0L0.006,0L0.283,-0.756L0.472,-0.756L0.744,0ZM0.473,-0.298L0.387,-0.56C0.382,-0.577 0.378,-0.599 0.375,-0.626L0.371,-0.626C0.369,-0.604 0.365,-0.583 0.358,-0.562L0.271,-0.298L0.473,-0.298Z" style="fill-rule:nonzero;"/>
                </g>
                <g transform="matrix(12.5141,0,0,12.5141,22.2786,0)">
                    <path d="M0.249,-0.264L0.249,0L0.087,0L0.087,-0.756L0.348,-0.756C0.536,-0.756 0.63,-0.677 0.63,-0.517C0.63,-0.44 0.601,-0.378 0.545,-0.331C0.488,-0.284 0.417,-0.262 0.332,-0.264L0.249,-0.264ZM0.249,-0.631L0.249,-0.387L0.318,-0.387C0.413,-0.387 0.46,-0.428 0.46,-0.511C0.46,-0.591 0.414,-0.631 0.32,-0.631L0.249,-0.631Z" style="fill-rule:nonzero;"/>
                </g>
            </g>
        </g>
        <g transform="matrix(1.198,0,0,0.958552,967.574,-263.664)">
            <g transform="matrix(6,0,0,6,15.7008,53.3564)">
                <path d="M0.356,-0.279L0.223,-0.279L0.223,-0.076C0.223,-0.047 0.216,-0.025 0.203,-0.01C0.189,0.005 0.172,0.012 0.151,0.012C0.129,0.012 0.111,0.005 0.098,-0.01C0.085,-0.025 0.078,-0.047 0.078,-0.075L0.078,-0.627C0.078,-0.659 0.085,-0.682 0.1,-0.695C0.115,-0.709 0.138,-0.716 0.17,-0.716L0.356,-0.716C0.411,-0.716 0.453,-0.712 0.483,-0.703C0.512,-0.695 0.538,-0.681 0.559,-0.663C0.58,-0.644 0.596,-0.621 0.607,-0.593C0.618,-0.566 0.624,-0.535 0.624,-0.501C0.624,-0.428 0.602,-0.373 0.557,-0.335C0.512,-0.298 0.445,-0.279 0.356,-0.279ZM0.321,-0.607L0.223,-0.607L0.223,-0.388L0.321,-0.388C0.355,-0.388 0.384,-0.392 0.406,-0.399C0.429,-0.406 0.447,-0.418 0.459,-0.434C0.471,-0.45 0.477,-0.472 0.477,-0.498C0.477,-0.53 0.468,-0.555 0.449,-0.575C0.428,-0.596 0.386,-0.607 0.321,-0.607Z" style="fill:rgb(5,5,5);fill-opacity:0.8;fill-rule:nonzero;"/>
            </g>
            <g transform="matrix(6,0,0,6,19.1754,53.3564)">
                <path d="M0.536,-0.081L0.502,-0.171L0.211,-0.171L0.177,-0.079C0.163,-0.043 0.152,-0.019 0.143,-0.007C0.133,0.006 0.118,0.012 0.096,0.012C0.078,0.012 0.062,0.006 0.048,-0.008C0.034,-0.021 0.027,-0.036 0.027,-0.053C0.027,-0.063 0.028,-0.073 0.032,-0.083C0.035,-0.094 0.04,-0.108 0.048,-0.127L0.231,-0.592C0.236,-0.605 0.242,-0.621 0.25,-0.64C0.257,-0.659 0.265,-0.674 0.273,-0.687C0.281,-0.699 0.292,-0.709 0.306,-0.717C0.319,-0.724 0.336,-0.728 0.356,-0.728C0.376,-0.728 0.393,-0.724 0.406,-0.717C0.42,-0.709 0.431,-0.699 0.439,-0.687C0.448,-0.675 0.455,-0.662 0.46,-0.648C0.466,-0.634 0.473,-0.616 0.482,-0.593L0.669,-0.131C0.684,-0.096 0.691,-0.07 0.691,-0.054C0.691,-0.038 0.684,-0.022 0.67,-0.009C0.656,0.005 0.64,0.012 0.62,0.012C0.609,0.012 0.599,0.01 0.591,0.006C0.583,0.002 0.576,-0.003 0.57,-0.01C0.565,-0.017 0.559,-0.028 0.552,-0.043C0.546,-0.057 0.541,-0.07 0.536,-0.081ZM0.249,-0.28L0.463,-0.28L0.355,-0.575L0.249,-0.28Z" style="fill:rgb(5,5,5);fill-opacity:0.8;fill-rule:nonzero;"/>
            </g>
            <g transform="matrix(6,0,0,6,23.4908,53.3564)">
                <path d="M0.273,-0.306L0.222,-0.306L0.222,-0.076C0.222,-0.046 0.215,-0.024 0.202,-0.009C0.189,0.005 0.171,0.012 0.15,0.012C0.127,0.012 0.109,0.005 0.096,-0.01C0.083,-0.025 0.077,-0.047 0.077,-0.076L0.077,-0.627C0.077,-0.658 0.084,-0.681 0.098,-0.695C0.112,-0.709 0.135,-0.716 0.166,-0.716L0.402,-0.716C0.434,-0.716 0.462,-0.714 0.485,-0.712C0.508,-0.709 0.529,-0.703 0.548,-0.695C0.57,-0.685 0.59,-0.672 0.607,-0.654C0.625,-0.637 0.638,-0.616 0.647,-0.593C0.656,-0.57 0.66,-0.545 0.66,-0.519C0.66,-0.466 0.645,-0.423 0.615,-0.391C0.585,-0.359 0.539,-0.337 0.478,-0.323C0.504,-0.31 0.528,-0.289 0.552,-0.263C0.575,-0.236 0.596,-0.208 0.615,-0.177C0.633,-0.147 0.647,-0.12 0.657,-0.096C0.668,-0.072 0.673,-0.055 0.673,-0.046C0.673,-0.036 0.67,-0.027 0.664,-0.018C0.658,-0.009 0.65,-0.001 0.639,0.004C0.629,0.01 0.617,0.012 0.603,0.012C0.587,0.012 0.573,0.008 0.562,0.001C0.551,-0.007 0.541,-0.017 0.533,-0.028C0.525,-0.04 0.515,-0.057 0.501,-0.08L0.443,-0.177C0.422,-0.212 0.403,-0.239 0.387,-0.258C0.371,-0.276 0.354,-0.289 0.337,-0.296C0.32,-0.303 0.299,-0.306 0.273,-0.306ZM0.356,-0.607L0.222,-0.607L0.222,-0.41L0.352,-0.41C0.387,-0.41 0.416,-0.413 0.44,-0.419C0.464,-0.425 0.482,-0.435 0.494,-0.45C0.507,-0.464 0.513,-0.484 0.513,-0.51C0.513,-0.53 0.508,-0.547 0.498,-0.562C0.488,-0.577 0.474,-0.589 0.456,-0.596C0.439,-0.603 0.406,-0.607 0.356,-0.607Z" style="fill:rgb(5,5,5);fill-opacity:0.8;fill-rule:nonzero;"/>
            </g>
            <g transform="matrix(6,0,0,6,27.8062,53.3564)">
                <path d="M0.536,-0.081L0.502,-0.171L0.211,-0.171L0.177,-0.079C0.163,-0.043 0.152,-0.019 0.143,-0.007C0.133,0.006 0.118,0.012 0.096,0.012C0.078,0.012 0.062,0.006 0.048,-0.008C0.034,-0.021 0.027,-0.036 0.027,-0.053C0.027,-0.063 0.028,-0.073 0.032,-0.083C0.035,-0.094 0.04,-0.108 0.048,-0.127L0.231,-0.592C0.236,-0.605 0.242,-0.621 0.25,-0.64C0.257,-0.659 0.265,-0.674 0.273,-0.687C0.281,-0.699 0.292,-0.709 0.306,-0.717C0.319,-0.724 0.336,-0.728 0.356,-0.728C0.376,-0.728 0.393,-0.724 0.406,-0.717C0.42,-0.709 0.431,-0.699 0.439,-0.687C0.448,-0.675 0.455,-0.662 0.46,-0.648C0.466,-0.634 0.473,-0.616 0.482,-0.593L0.669,-0.131C0.684,-0.096 0.691,-0.07 0.691,-0.054C0.691,-0.038 0.684,-0.022 0.67,-0.009C0.656,0.005 0.64,0.012 0.62,0.012C0.609,0.012 0.599,0.01 0.591,0.006C0.583,0.002 0.576,-0.003 0.57,-0.01C0.565,-0.017 0.559,-0.028 0.552,-0.043C0.546,-0.057 0.541,-0.07 0.536,-0.081ZM0.249,-0.28L0.463,-0.28L0.355,-0.575L0.249,-0.28Z" style="fill:rgb(5,5,5);fill-opacity:0.8;fill-rule:nonzero;"/>
            </g>
            <g transform="matrix(6,0,0,6,32.1217,53.3564)">
                <path d="M0.32,-0.108L0.205,-0.564L0.205,-0.07C0.205,-0.042 0.199,-0.022 0.187,-0.008C0.175,0.005 0.158,0.012 0.138,0.012C0.119,0.012 0.103,0.005 0.09,-0.008C0.078,-0.022 0.072,-0.042 0.072,-0.07L0.072,-0.636C0.072,-0.667 0.08,-0.689 0.096,-0.699C0.112,-0.71 0.134,-0.716 0.162,-0.716L0.207,-0.716C0.234,-0.716 0.254,-0.713 0.266,-0.708C0.278,-0.704 0.287,-0.695 0.293,-0.682C0.299,-0.669 0.306,-0.649 0.313,-0.62L0.417,-0.228L0.521,-0.62C0.528,-0.649 0.535,-0.669 0.541,-0.682C0.547,-0.695 0.556,-0.704 0.568,-0.708C0.58,-0.713 0.6,-0.716 0.627,-0.716L0.672,-0.716C0.7,-0.716 0.722,-0.71 0.738,-0.699C0.754,-0.689 0.762,-0.667 0.762,-0.636L0.762,-0.07C0.762,-0.042 0.756,-0.022 0.744,-0.008C0.732,0.005 0.715,0.012 0.695,0.012C0.676,0.012 0.66,0.005 0.647,-0.008C0.635,-0.022 0.629,-0.042 0.629,-0.07L0.629,-0.564L0.514,-0.108C0.507,-0.078 0.501,-0.057 0.496,-0.043C0.491,-0.029 0.482,-0.016 0.47,-0.005C0.457,0.007 0.439,0.012 0.417,0.012C0.4,0.012 0.386,0.009 0.374,0.001C0.362,-0.006 0.353,-0.015 0.347,-0.027C0.34,-0.038 0.335,-0.051 0.331,-0.065C0.328,-0.079 0.324,-0.093 0.32,-0.108Z" style="fill:rgb(5,5,5);fill-opacity:0.8;fill-rule:nonzero;"/>
            </g>
            <g transform="matrix(6,0,0,6,37.1197,53.3564)">
                <path d="M0.55,-0.604L0.223,-0.604L0.223,-0.428L0.524,-0.428C0.546,-0.428 0.563,-0.423 0.573,-0.413C0.584,-0.403 0.59,-0.39 0.59,-0.374C0.59,-0.358 0.584,-0.344 0.574,-0.334C0.563,-0.324 0.546,-0.319 0.524,-0.319L0.223,-0.319L0.223,-0.115L0.561,-0.115C0.584,-0.115 0.601,-0.11 0.613,-0.099C0.624,-0.089 0.63,-0.075 0.63,-0.057C0.63,-0.04 0.624,-0.026 0.613,-0.016C0.601,-0.005 0.584,0 0.561,0L0.167,0C0.135,0 0.113,-0.007 0.099,-0.021C0.085,-0.035 0.078,-0.058 0.078,-0.089L0.078,-0.627C0.078,-0.648 0.081,-0.665 0.087,-0.678C0.094,-0.691 0.103,-0.701 0.116,-0.707C0.13,-0.713 0.146,-0.716 0.167,-0.716L0.55,-0.716C0.573,-0.716 0.59,-0.711 0.601,-0.7C0.613,-0.69 0.618,-0.677 0.618,-0.66C0.618,-0.643 0.613,-0.63 0.601,-0.619C0.59,-0.609 0.573,-0.604 0.55,-0.604Z" style="fill:rgb(5,5,5);fill-opacity:0.8;fill-rule:nonzero;"/>
            </g>
            <g transform="matrix(6,0,0,6,41.1217,53.3564)">
                <path d="M0.543,-0.596L0.385,-0.596L0.385,-0.076C0.385,-0.046 0.378,-0.024 0.365,-0.01C0.351,0.005 0.334,0.012 0.313,0.012C0.292,0.012 0.274,0.005 0.26,-0.01C0.247,-0.024 0.24,-0.047 0.24,-0.076L0.24,-0.596L0.082,-0.596C0.057,-0.596 0.039,-0.602 0.027,-0.613C0.015,-0.623 0.009,-0.638 0.009,-0.656C0.009,-0.674 0.015,-0.689 0.028,-0.7C0.04,-0.71 0.058,-0.716 0.082,-0.716L0.543,-0.716C0.568,-0.716 0.587,-0.71 0.599,-0.699C0.611,-0.688 0.617,-0.674 0.617,-0.656C0.617,-0.638 0.611,-0.623 0.599,-0.613C0.586,-0.602 0.568,-0.596 0.543,-0.596Z" style="fill:rgb(5,5,5);fill-opacity:0.8;fill-rule:nonzero;"/>
            </g>
            <g transform="matrix(6,0,0,6,44.8717,53.3564)">
                <path d="M0.55,-0.604L0.223,-0.604L0.223,-0.428L0.524,-0.428C0.546,-0.428 0.563,-0.423 0.573,-0.413C0.584,-0.403 0.59,-0.39 0.59,-0.374C0.59,-0.358 0.584,-0.344 0.574,-0.334C0.563,-0.324 0.546,-0.319 0.524,-0.319L0.223,-0.319L0.223,-0.115L0.561,-0.115C0.584,-0.115 0.601,-0.11 0.613,-0.099C0.624,-0.089 0.63,-0.075 0.63,-0.057C0.63,-0.04 0.624,-0.026 0.613,-0.016C0.601,-0.005 0.584,0 0.561,0L0.167,0C0.135,0 0.113,-0.007 0.099,-0.021C0.085,-0.035 0.078,-0.058 0.078,-0.089L0.078,-0.627C0.078,-0.648 0.081,-0.665 0.087,-0.678C0.094,-0.691 0.103,-0.701 0.116,-0.707C0.13,-0.713 0.146,-0.716 0.167,-0.716L0.55,-0.716C0.573,-0.716 0.59,-0.711 0.601,-0.7C0.613,-0.69 0.618,-0.677 0.618,-0.66C0.618,-0.643 0.613,-0.63 0.601,-0.619C0.59,-0.609 0.573,-0.604 0.55,-0.604Z" style="fill:rgb(5,5,5);fill-opacity:0.8;fill-rule:nonzero;"/>
            </g>
            <g transform="matrix(6,0,0,6,48.8736,53.3564)">
                <path d="M0.273,-0.306L0.222,-0.306L0.222,-0.076C0.222,-0.046 0.215,-0.024 0.202,-0.009C0.189,0.005 0.171,0.012 0.15,0.012C0.127,0.012 0.109,0.005 0.096,-0.01C0.083,-0.025 0.077,-0.047 0.077,-0.076L0.077,-0.627C0.077,-0.658 0.084,-0.681 0.098,-0.695C0.112,-0.709 0.135,-0.716 0.166,-0.716L0.402,-0.716C0.434,-0.716 0.462,-0.714 0.485,-0.712C0.508,-0.709 0.529,-0.703 0.548,-0.695C0.57,-0.685 0.59,-0.672 0.607,-0.654C0.625,-0.637 0.638,-0.616 0.647,-0.593C0.656,-0.57 0.66,-0.545 0.66,-0.519C0.66,-0.466 0.645,-0.423 0.615,-0.391C0.585,-0.359 0.539,-0.337 0.478,-0.323C0.504,-0.31 0.528,-0.289 0.552,-0.263C0.575,-0.236 0.596,-0.208 0.615,-0.177C0.633,-0.147 0.647,-0.12 0.657,-0.096C0.668,-0.072 0.673,-0.055 0.673,-0.046C0.673,-0.036 0.67,-0.027 0.664,-0.018C0.658,-0.009 0.65,-0.001 0.639,0.004C0.629,0.01 0.617,0.012 0.603,0.012C0.587,0.012 0.573,0.008 0.562,0.001C0.551,-0.007 0.541,-0.017 0.533,-0.028C0.525,-0.04 0.515,-0.057 0.501,-0.08L0.443,-0.177C0.422,-0.212 0.403,-0.239 0.387,-0.258C0.371,-0.276 0.354,-0.289 0.337,-0.296C0.32,-0.303 0.299,-0.306 0.273,-0.306ZM0.356,-0.607L0.222,-0.607L0.222,-0.41L0.352,-0.41C0.387,-0.41 0.416,-0.413 0.44,-0.419C0.464,-0.425 0.482,-0.435 0.494,-0.45C0.507,-0.464 0.513,-0.484 0.513,-0.51C0.513,-0.53 0.508,-0.547 0.498,-0.562C0.488,-0.577 0.474,-0.589 0.456,-0.596C0.439,-0.603 0.406,-0.607 0.356,-0.607Z" style="fill:rgb(5,5,5);fill-opacity:0.8;fill-rule:nonzero;"/>
            </g>
            <g transform="matrix(6,0,0,6,54.689,53.3564)">
                <path d="M0.688,-0.226C0.688,-0.203 0.682,-0.179 0.671,-0.152C0.66,-0.126 0.642,-0.1 0.618,-0.074C0.594,-0.048 0.563,-0.028 0.526,-0.012C0.488,0.004 0.445,0.012 0.395,0.012C0.357,0.012 0.323,0.009 0.292,0.001C0.261,-0.006 0.233,-0.017 0.208,-0.032C0.183,-0.047 0.159,-0.067 0.138,-0.092C0.119,-0.114 0.103,-0.139 0.09,-0.167C0.076,-0.195 0.066,-0.225 0.06,-0.256C0.053,-0.288 0.05,-0.321 0.05,-0.357C0.05,-0.415 0.058,-0.466 0.075,-0.512C0.092,-0.557 0.116,-0.596 0.147,-0.629C0.178,-0.661 0.215,-0.686 0.257,-0.703C0.299,-0.72 0.344,-0.728 0.391,-0.728C0.449,-0.728 0.501,-0.716 0.546,-0.693C0.591,-0.67 0.626,-0.642 0.65,-0.608C0.674,-0.574 0.686,-0.542 0.686,-0.511C0.686,-0.495 0.68,-0.48 0.668,-0.467C0.657,-0.455 0.643,-0.448 0.626,-0.448C0.607,-0.448 0.594,-0.453 0.584,-0.461C0.575,-0.47 0.565,-0.485 0.553,-0.507C0.534,-0.542 0.512,-0.569 0.487,-0.586C0.461,-0.604 0.43,-0.613 0.392,-0.613C0.333,-0.613 0.285,-0.59 0.25,-0.545C0.214,-0.5 0.197,-0.435 0.197,-0.352C0.197,-0.296 0.205,-0.25 0.22,-0.213C0.236,-0.176 0.258,-0.149 0.287,-0.13C0.315,-0.112 0.349,-0.103 0.387,-0.103C0.429,-0.103 0.464,-0.113 0.493,-0.134C0.522,-0.155 0.543,-0.185 0.558,-0.225C0.564,-0.244 0.572,-0.259 0.581,-0.271C0.59,-0.283 0.605,-0.289 0.625,-0.289C0.642,-0.289 0.657,-0.283 0.669,-0.271C0.682,-0.259 0.688,-0.244 0.688,-0.226Z" style="fill:rgb(5,5,5);fill-opacity:0.8;fill-rule:nonzero;"/>
            </g>
            <g transform="matrix(6,0,0,6,59.1305,53.3564)">
                <path d="M0.393,-0.728C0.467,-0.728 0.531,-0.713 0.584,-0.683C0.637,-0.653 0.678,-0.61 0.705,-0.554C0.732,-0.499 0.746,-0.434 0.746,-0.359C0.746,-0.304 0.739,-0.253 0.724,-0.208C0.709,-0.163 0.686,-0.124 0.656,-0.09C0.626,-0.057 0.59,-0.032 0.546,-0.014C0.502,0.003 0.452,0.012 0.396,0.012C0.34,0.012 0.29,0.003 0.246,-0.015C0.201,-0.033 0.164,-0.058 0.135,-0.091C0.105,-0.124 0.083,-0.164 0.068,-0.21C0.052,-0.256 0.045,-0.306 0.045,-0.36C0.045,-0.415 0.053,-0.465 0.069,-0.511C0.084,-0.557 0.107,-0.596 0.137,-0.628C0.167,-0.661 0.204,-0.685 0.247,-0.702C0.29,-0.719 0.338,-0.728 0.393,-0.728ZM0.599,-0.36C0.599,-0.412 0.591,-0.458 0.574,-0.496C0.557,-0.535 0.533,-0.564 0.501,-0.583C0.47,-0.603 0.434,-0.613 0.393,-0.613C0.364,-0.613 0.337,-0.607 0.313,-0.596C0.288,-0.586 0.267,-0.57 0.249,-0.549C0.232,-0.528 0.218,-0.501 0.207,-0.469C0.197,-0.437 0.192,-0.4 0.192,-0.36C0.192,-0.319 0.197,-0.282 0.207,-0.25C0.218,-0.217 0.232,-0.189 0.251,-0.168C0.269,-0.146 0.291,-0.13 0.315,-0.119C0.339,-0.108 0.366,-0.103 0.395,-0.103C0.432,-0.103 0.466,-0.112 0.497,-0.131C0.528,-0.149 0.553,-0.178 0.572,-0.217C0.59,-0.256 0.599,-0.303 0.599,-0.36Z" style="fill:rgb(5,5,5);fill-opacity:0.8;fill-rule:nonzero;"/>
            </g>
            <g transform="matrix(6,0,0,6,63.8824,53.3564)">
                <path d="M0.267,-0.641L0.546,-0.219L0.546,-0.645C0.546,-0.673 0.552,-0.693 0.564,-0.707C0.576,-0.721 0.592,-0.728 0.612,-0.728C0.633,-0.728 0.649,-0.721 0.661,-0.707C0.673,-0.693 0.679,-0.673 0.679,-0.645L0.679,-0.082C0.679,-0.019 0.653,0.012 0.601,0.012C0.588,0.012 0.576,0.01 0.566,0.007C0.556,0.003 0.546,-0.003 0.537,-0.011C0.528,-0.019 0.519,-0.029 0.511,-0.04C0.503,-0.051 0.496,-0.062 0.488,-0.073L0.216,-0.49L0.216,-0.071C0.216,-0.043 0.209,-0.023 0.197,-0.009C0.184,0.005 0.168,0.012 0.148,0.012C0.127,0.012 0.111,0.005 0.099,-0.009C0.086,-0.023 0.08,-0.044 0.08,-0.071L0.08,-0.623C0.08,-0.646 0.083,-0.665 0.088,-0.678C0.094,-0.693 0.104,-0.705 0.119,-0.714C0.133,-0.723 0.148,-0.728 0.165,-0.728C0.178,-0.728 0.189,-0.726 0.198,-0.722C0.208,-0.717 0.216,-0.712 0.223,-0.705C0.23,-0.697 0.237,-0.688 0.244,-0.677C0.252,-0.665 0.259,-0.653 0.267,-0.641Z" style="fill:rgb(5,5,5);fill-opacity:0.8;fill-rule:nonzero;"/>
            </g>
            <g transform="matrix(6,0,0,6,68.441,53.3564)">
                <path d="M0.543,-0.596L0.385,-0.596L0.385,-0.076C0.385,-0.046 0.378,-0.024 0.365,-0.01C0.351,0.005 0.334,0.012 0.313,0.012C0.292,0.012 0.274,0.005 0.26,-0.01C0.247,-0.024 0.24,-0.047 0.24,-0.076L0.24,-0.596L0.082,-0.596C0.057,-0.596 0.039,-0.602 0.027,-0.613C0.015,-0.623 0.009,-0.638 0.009,-0.656C0.009,-0.674 0.015,-0.689 0.028,-0.7C0.04,-0.71 0.058,-0.716 0.082,-0.716L0.543,-0.716C0.568,-0.716 0.587,-0.71 0.599,-0.699C0.611,-0.688 0.617,-0.674 0.617,-0.656C0.617,-0.638 0.611,-0.623 0.599,-0.613C0.586,-0.602 0.568,-0.596 0.543,-0.596Z" style="fill:rgb(5,5,5);fill-opacity:0.8;fill-rule:nonzero;"/>
            </g>
            <g transform="matrix(6,0,0,6,72.191,53.3564)">
                <path d="M0.273,-0.306L0.222,-0.306L0.222,-0.076C0.222,-0.046 0.215,-0.024 0.202,-0.009C0.189,0.005 0.171,0.012 0.15,0.012C0.127,0.012 0.109,0.005 0.096,-0.01C0.083,-0.025 0.077,-0.047 0.077,-0.076L0.077,-0.627C0.077,-0.658 0.084,-0.681 0.098,-0.695C0.112,-0.709 0.135,-0.716 0.166,-0.716L0.402,-0.716C0.434,-0.716 0.462,-0.714 0.485,-0.712C0.508,-0.709 0.529,-0.703 0.548,-0.695C0.57,-0.685 0.59,-0.672 0.607,-0.654C0.625,-0.637 0.638,-0.616 0.647,-0.593C0.656,-0.57 0.66,-0.545 0.66,-0.519C0.66,-0.466 0.645,-0.423 0.615,-0.391C0.585,-0.359 0.539,-0.337 0.478,-0.323C0.504,-0.31 0.528,-0.289 0.552,-0.263C0.575,-0.236 0.596,-0.208 0.615,-0.177C0.633,-0.147 0.647,-0.12 0.657,-0.096C0.668,-0.072 0.673,-0.055 0.673,-0.046C0.673,-0.036 0.67,-0.027 0.664,-0.018C0.658,-0.009 0.65,-0.001 0.639,0.004C0.629,0.01 0.617,0.012 0.603,0.012C0.587,0.012 0.573,0.008 0.562,0.001C0.551,-0.007 0.541,-0.017 0.533,-0.028C0.525,-0.04 0.515,-0.057 0.501,-0.08L0.443,-0.177C0.422,-0.212 0.403,-0.239 0.387,-0.258C0.371,-0.276 0.354,-0.289 0.337,-0.296C0.32,-0.303 0.299,-0.306 0.273,-0.306ZM0.356,-0.607L0.222,-0.607L0.222,-0.41L0.352,-0.41C0.387,-0.41 0.416,-0.413 0.44,-0.419C0.464,-0.425 0.482,-0.435 0.494,-0.45C0.507,-0.464 0.513,-0.484 0.513,-0.51C0.513,-0.53 0.508,-0.547 0.498,-0.562C0.488,-0.577 0.474,-0.589 0.456,-0.596C0.439,-0.603 0.406,-0.607 0.356,-0.607Z" style="fill:rgb(5,5,5);fill-opacity:0.8;fill-rule:nonzero;"/>
            </g>
            <g transform="matrix(6,0,0,6,76.5064,53.3564)">
                <path d="M0.393,-0.728C0.467,-0.728 0.531,-0.713 0.584,-0.683C0.637,-0.653 0.678,-0.61 0.705,-0.554C0.732,-0.499 0.746,-0.434 0.746,-0.359C0.746,-0.304 0.739,-0.253 0.724,-0.208C0.709,-0.163 0.686,-0.124 0.656,-0.09C0.626,-0.057 0.59,-0.032 0.546,-0.014C0.502,0.003 0.452,0.012 0.396,0.012C0.34,0.012 0.29,0.003 0.246,-0.015C0.201,-0.033 0.164,-0.058 0.135,-0.091C0.105,-0.124 0.083,-0.164 0.068,-0.21C0.052,-0.256 0.045,-0.306 0.045,-0.36C0.045,-0.415 0.053,-0.465 0.069,-0.511C0.084,-0.557 0.107,-0.596 0.137,-0.628C0.167,-0.661 0.204,-0.685 0.247,-0.702C0.29,-0.719 0.338,-0.728 0.393,-0.728ZM0.599,-0.36C0.599,-0.412 0.591,-0.458 0.574,-0.496C0.557,-0.535 0.533,-0.564 0.501,-0.583C0.47,-0.603 0.434,-0.613 0.393,-0.613C0.364,-0.613 0.337,-0.607 0.313,-0.596C0.288,-0.586 0.267,-0.57 0.249,-0.549C0.232,-0.528 0.218,-0.501 0.207,-0.469C0.197,-0.437 0.192,-0.4 0.192,-0.36C0.192,-0.319 0.197,-0.282 0.207,-0.25C0.218,-0.217 0.232,-0.189 0.251,-0.168C0.269,-0.146 0.291,-0.13 0.315,-0.119C0.339,-0.108 0.366,-0.103 0.395,-0.103C0.432,-0.103 0.466,-0.112 0.497,-0.131C0.528,-0.149 0.553,-0.178 0.572,-0.217C0.59,-0.256 0.599,-0.303 0.599,-0.36Z" style="fill:rgb(5,5,5);fill-opacity:0.8;fill-rule:nonzero;"/>
            </g>
            <g transform="matrix(6,0,0,6,81.2584,53.3564)">
                <path d="M0.22,-0.64L0.22,-0.119L0.514,-0.119C0.538,-0.119 0.556,-0.113 0.568,-0.102C0.581,-0.091 0.587,-0.076 0.587,-0.059C0.587,-0.042 0.581,-0.027 0.568,-0.016C0.556,-0.005 0.538,0 0.514,0L0.164,0C0.132,0 0.11,-0.007 0.096,-0.021C0.082,-0.035 0.075,-0.058 0.075,-0.089L0.075,-0.64C0.075,-0.669 0.082,-0.691 0.095,-0.706C0.108,-0.721 0.125,-0.728 0.147,-0.728C0.169,-0.728 0.186,-0.721 0.2,-0.706C0.213,-0.692 0.22,-0.67 0.22,-0.64Z" style="fill:rgb(5,5,5);fill-opacity:0.8;fill-rule:nonzero;"/>
            </g>
            <g transform="matrix(6,0,0,6,84.8824,53.3564)">
                <path d="M0.22,-0.64L0.22,-0.119L0.514,-0.119C0.538,-0.119 0.556,-0.113 0.568,-0.102C0.581,-0.091 0.587,-0.076 0.587,-0.059C0.587,-0.042 0.581,-0.027 0.568,-0.016C0.556,-0.005 0.538,0 0.514,0L0.164,0C0.132,0 0.11,-0.007 0.096,-0.021C0.082,-0.035 0.075,-0.058 0.075,-0.089L0.075,-0.64C0.075,-0.669 0.082,-0.691 0.095,-0.706C0.108,-0.721 0.125,-0.728 0.147,-0.728C0.169,-0.728 0.186,-0.721 0.2,-0.706C0.213,-0.692 0.22,-0.67 0.22,-0.64Z" style="fill:rgb(5,5,5);fill-opacity:0.8;fill-rule:nonzero;"/>
            </g>
            <g transform="matrix(6,0,0,6,88.5064,53.3564)">
                <path d="M0.55,-0.604L0.223,-0.604L0.223,-0.428L0.524,-0.428C0.546,-0.428 0.563,-0.423 0.573,-0.413C0.584,-0.403 0.59,-0.39 0.59,-0.374C0.59,-0.358 0.584,-0.344 0.574,-0.334C0.563,-0.324 0.546,-0.319 0.524,-0.319L0.223,-0.319L0.223,-0.115L0.561,-0.115C0.584,-0.115 0.601,-0.11 0.613,-0.099C0.624,-0.089 0.63,-0.075 0.63,-0.057C0.63,-0.04 0.624,-0.026 0.613,-0.016C0.601,-0.005 0.584,0 0.561,0L0.167,0C0.135,0 0.113,-0.007 0.099,-0.021C0.085,-0.035 0.078,-0.058 0.078,-0.089L0.078,-0.627C0.078,-0.648 0.081,-0.665 0.087,-0.678C0.094,-0.691 0.103,-0.701 0.116,-0.707C0.13,-0.713 0.146,-0.716 0.167,-0.716L0.55,-0.716C0.573,-0.716 0.59,-0.711 0.601,-0.7C0.613,-0.69 0.618,-0.677 0.618,-0.66C0.618,-0.643 0.613,-0.63 0.601,-0.619C0.59,-0.609 0.573,-0.604 0.55,-0.604Z" style="fill:rgb(5,5,5);fill-opacity:0.8;fill-rule:nonzero;"/>
            </g>
            <g transform="matrix(6,0,0,6,92.5084,53.3564)">
                <path d="M0.168,-0.716L0.357,-0.716C0.406,-0.716 0.448,-0.711 0.483,-0.702C0.519,-0.693 0.55,-0.676 0.579,-0.651C0.654,-0.587 0.691,-0.49 0.691,-0.36C0.691,-0.317 0.687,-0.278 0.68,-0.242C0.672,-0.207 0.661,-0.175 0.645,-0.146C0.629,-0.118 0.609,-0.092 0.585,-0.07C0.566,-0.053 0.545,-0.039 0.522,-0.028C0.499,-0.018 0.475,-0.011 0.448,-0.006C0.422,-0.002 0.393,0 0.36,0L0.171,0C0.145,0 0.125,-0.004 0.111,-0.012C0.098,-0.02 0.089,-0.031 0.085,-0.046C0.081,-0.06 0.079,-0.079 0.079,-0.102L0.079,-0.627C0.079,-0.658 0.086,-0.681 0.1,-0.695C0.114,-0.709 0.137,-0.716 0.168,-0.716ZM0.224,-0.601L0.224,-0.115L0.334,-0.115C0.358,-0.115 0.377,-0.116 0.391,-0.117C0.404,-0.118 0.418,-0.122 0.433,-0.127C0.448,-0.132 0.46,-0.139 0.471,-0.149C0.52,-0.19 0.544,-0.261 0.544,-0.361C0.544,-0.431 0.533,-0.484 0.512,-0.52C0.491,-0.555 0.464,-0.577 0.433,-0.587C0.402,-0.596 0.364,-0.601 0.32,-0.601L0.224,-0.601Z" style="fill:rgb(5,5,5);fill-opacity:0.8;fill-rule:nonzero;"/>
            </g>
            <g transform="matrix(6,0,0,6,98.4498,53.3564)">
                <path d="M0.184,-0.633L0.346,-0.153L0.509,-0.636C0.517,-0.662 0.524,-0.679 0.528,-0.689C0.532,-0.699 0.539,-0.708 0.549,-0.716C0.559,-0.724 0.572,-0.728 0.589,-0.728C0.601,-0.728 0.613,-0.725 0.623,-0.719C0.634,-0.713 0.642,-0.704 0.648,-0.694C0.654,-0.684 0.657,-0.674 0.657,-0.663C0.657,-0.656 0.656,-0.648 0.654,-0.64C0.652,-0.632 0.65,-0.623 0.647,-0.615C0.644,-0.608 0.641,-0.599 0.638,-0.591L0.465,-0.123C0.459,-0.105 0.452,-0.088 0.446,-0.072C0.44,-0.056 0.433,-0.042 0.425,-0.03C0.417,-0.017 0.406,-0.007 0.392,0C0.379,0.008 0.362,0.012 0.343,0.012C0.323,0.012 0.307,0.008 0.293,0.001C0.28,-0.007 0.269,-0.017 0.26,-0.03C0.252,-0.042 0.245,-0.056 0.239,-0.072C0.233,-0.088 0.226,-0.105 0.22,-0.123L0.05,-0.587C0.047,-0.595 0.044,-0.604 0.041,-0.612C0.038,-0.62 0.035,-0.629 0.033,-0.638C0.031,-0.648 0.03,-0.656 0.03,-0.662C0.03,-0.679 0.036,-0.694 0.05,-0.708C0.063,-0.721 0.08,-0.728 0.1,-0.728C0.125,-0.728 0.142,-0.72 0.153,-0.705C0.163,-0.69 0.173,-0.666 0.184,-0.633Z" style="fill:rgb(5,5,5);fill-opacity:0.8;fill-rule:nonzero;"/>
            </g>
            <g transform="matrix(6,0,0,6,102.499,53.3564)">
                <path d="M0.393,-0.728C0.467,-0.728 0.531,-0.713 0.584,-0.683C0.637,-0.653 0.678,-0.61 0.705,-0.554C0.732,-0.499 0.746,-0.434 0.746,-0.359C0.746,-0.304 0.739,-0.253 0.724,-0.208C0.709,-0.163 0.686,-0.124 0.656,-0.09C0.626,-0.057 0.59,-0.032 0.546,-0.014C0.502,0.003 0.452,0.012 0.396,0.012C0.34,0.012 0.29,0.003 0.246,-0.015C0.201,-0.033 0.164,-0.058 0.135,-0.091C0.105,-0.124 0.083,-0.164 0.068,-0.21C0.052,-0.256 0.045,-0.306 0.045,-0.36C0.045,-0.415 0.053,-0.465 0.069,-0.511C0.084,-0.557 0.107,-0.596 0.137,-0.628C0.167,-0.661 0.204,-0.685 0.247,-0.702C0.29,-0.719 0.338,-0.728 0.393,-0.728ZM0.599,-0.36C0.599,-0.412 0.591,-0.458 0.574,-0.496C0.557,-0.535 0.533,-0.564 0.501,-0.583C0.47,-0.603 0.434,-0.613 0.393,-0.613C0.364,-0.613 0.337,-0.607 0.313,-0.596C0.288,-0.586 0.267,-0.57 0.249,-0.549C0.232,-0.528 0.218,-0.501 0.207,-0.469C0.197,-0.437 0.192,-0.4 0.192,-0.36C0.192,-0.319 0.197,-0.282 0.207,-0.25C0.218,-0.217 0.232,-0.189 0.251,-0.168C0.269,-0.146 0.291,-0.13 0.315,-0.119C0.339,-0.108 0.366,-0.103 0.395,-0.103C0.432,-0.103 0.466,-0.112 0.497,-0.131C0.528,-0.149 0.553,-0.178 0.572,-0.217C0.59,-0.256 0.599,-0.303 0.599,-0.36Z" style="fill:rgb(5,5,5);fill-opacity:0.8;fill-rule:nonzero;"/>
            </g>
            <g transform="matrix(6,0,0,6,107.251,53.3564)">
                <path d="M0.22,-0.64L0.22,-0.119L0.514,-0.119C0.538,-0.119 0.556,-0.113 0.568,-0.102C0.581,-0.091 0.587,-0.076 0.587,-0.059C0.587,-0.042 0.581,-0.027 0.568,-0.016C0.556,-0.005 0.538,0 0.514,0L0.164,0C0.132,0 0.11,-0.007 0.096,-0.021C0.082,-0.035 0.075,-0.058 0.075,-0.089L0.075,-0.64C0.075,-0.669 0.082,-0.691 0.095,-0.706C0.108,-0.721 0.125,-0.728 0.147,-0.728C0.169,-0.728 0.186,-0.721 0.2,-0.706C0.213,-0.692 0.22,-0.67 0.22,-0.64Z" style="fill:rgb(5,5,5);fill-opacity:0.8;fill-rule:nonzero;"/>
            </g>
            <g transform="matrix(6,0,0,6,110.125,53.3564)">
                <path d="M0.543,-0.596L0.385,-0.596L0.385,-0.076C0.385,-0.046 0.378,-0.024 0.365,-0.01C0.351,0.005 0.334,0.012 0.313,0.012C0.292,0.012 0.274,0.005 0.26,-0.01C0.247,-0.024 0.24,-0.047 0.24,-0.076L0.24,-0.596L0.082,-0.596C0.057,-0.596 0.039,-0.602 0.027,-0.613C0.015,-0.623 0.009,-0.638 0.009,-0.656C0.009,-0.674 0.015,-0.689 0.028,-0.7C0.04,-0.71 0.058,-0.716 0.082,-0.716L0.543,-0.716C0.568,-0.716 0.587,-0.71 0.599,-0.699C0.611,-0.688 0.617,-0.674 0.617,-0.656C0.617,-0.638 0.611,-0.623 0.599,-0.613C0.586,-0.602 0.568,-0.596 0.543,-0.596Z" style="fill:rgb(5,5,5);fill-opacity:0.8;fill-rule:nonzero;"/>
            </g>
            <g transform="matrix(6,0,0,6,113.497,53.3564)">
                <path d="M0.536,-0.081L0.502,-0.171L0.211,-0.171L0.177,-0.079C0.163,-0.043 0.152,-0.019 0.143,-0.007C0.133,0.006 0.118,0.012 0.096,0.012C0.078,0.012 0.062,0.006 0.048,-0.008C0.034,-0.021 0.027,-0.036 0.027,-0.053C0.027,-0.063 0.028,-0.073 0.032,-0.083C0.035,-0.094 0.04,-0.108 0.048,-0.127L0.231,-0.592C0.236,-0.605 0.242,-0.621 0.25,-0.64C0.257,-0.659 0.265,-0.674 0.273,-0.687C0.281,-0.699 0.292,-0.709 0.306,-0.717C0.319,-0.724 0.336,-0.728 0.356,-0.728C0.376,-0.728 0.393,-0.724 0.406,-0.717C0.42,-0.709 0.431,-0.699 0.439,-0.687C0.448,-0.675 0.455,-0.662 0.46,-0.648C0.466,-0.634 0.473,-0.616 0.482,-0.593L0.669,-0.131C0.684,-0.096 0.691,-0.07 0.691,-0.054C0.691,-0.038 0.684,-0.022 0.67,-0.009C0.656,0.005 0.64,0.012 0.62,0.012C0.609,0.012 0.599,0.01 0.591,0.006C0.583,0.002 0.576,-0.003 0.57,-0.01C0.565,-0.017 0.559,-0.028 0.552,-0.043C0.546,-0.057 0.541,-0.07 0.536,-0.081ZM0.249,-0.28L0.463,-0.28L0.355,-0.575L0.249,-0.28Z" style="fill:rgb(5,5,5);fill-opacity:0.8;fill-rule:nonzero;"/>
            </g>
            <g transform="matrix(6,0,0,6,117.663,53.3564)">
                <path d="M0.732,-0.291L0.732,-0.154C0.732,-0.136 0.73,-0.121 0.727,-0.11C0.723,-0.099 0.716,-0.089 0.707,-0.081C0.697,-0.072 0.685,-0.063 0.67,-0.055C0.627,-0.032 0.585,-0.015 0.545,-0.004C0.505,0.007 0.461,0.012 0.414,0.012C0.359,0.012 0.309,0.004 0.264,-0.013C0.218,-0.03 0.18,-0.055 0.148,-0.087C0.116,-0.119 0.092,-0.158 0.074,-0.204C0.057,-0.25 0.049,-0.301 0.049,-0.358C0.049,-0.414 0.057,-0.465 0.074,-0.511C0.09,-0.557 0.115,-0.596 0.147,-0.628C0.179,-0.661 0.218,-0.685 0.265,-0.702C0.311,-0.719 0.363,-0.728 0.422,-0.728C0.47,-0.728 0.513,-0.722 0.55,-0.709C0.587,-0.696 0.617,-0.68 0.64,-0.66C0.663,-0.641 0.681,-0.62 0.692,-0.598C0.704,-0.576 0.71,-0.557 0.71,-0.54C0.71,-0.522 0.703,-0.506 0.69,-0.493C0.676,-0.481 0.66,-0.474 0.641,-0.474C0.631,-0.474 0.621,-0.477 0.611,-0.481C0.601,-0.486 0.593,-0.493 0.587,-0.502C0.569,-0.53 0.554,-0.551 0.542,-0.565C0.529,-0.58 0.512,-0.592 0.491,-0.602C0.47,-0.611 0.444,-0.616 0.411,-0.616C0.378,-0.616 0.348,-0.61 0.321,-0.599C0.295,-0.587 0.272,-0.571 0.254,-0.549C0.235,-0.527 0.221,-0.5 0.211,-0.468C0.201,-0.436 0.196,-0.401 0.196,-0.362C0.196,-0.278 0.215,-0.213 0.254,-0.168C0.292,-0.123 0.346,-0.1 0.415,-0.1C0.449,-0.1 0.48,-0.104 0.51,-0.113C0.539,-0.122 0.569,-0.135 0.599,-0.151L0.599,-0.267L0.487,-0.267C0.46,-0.267 0.439,-0.271 0.426,-0.279C0.412,-0.287 0.405,-0.301 0.405,-0.321C0.405,-0.337 0.411,-0.35 0.422,-0.36C0.434,-0.371 0.449,-0.376 0.469,-0.376L0.634,-0.376C0.654,-0.376 0.671,-0.374 0.685,-0.371C0.699,-0.367 0.71,-0.359 0.719,-0.347C0.728,-0.334 0.732,-0.316 0.732,-0.291Z" style="fill:rgb(5,5,5);fill-opacity:0.8;fill-rule:nonzero;"/>
            </g>
            <g transform="matrix(6,0,0,6,122.415,53.3564)">
                <path d="M0.55,-0.604L0.223,-0.604L0.223,-0.428L0.524,-0.428C0.546,-0.428 0.563,-0.423 0.573,-0.413C0.584,-0.403 0.59,-0.39 0.59,-0.374C0.59,-0.358 0.584,-0.344 0.574,-0.334C0.563,-0.324 0.546,-0.319 0.524,-0.319L0.223,-0.319L0.223,-0.115L0.561,-0.115C0.584,-0.115 0.601,-0.11 0.613,-0.099C0.624,-0.089 0.63,-0.075 0.63,-0.057C0.63,-0.04 0.624,-0.026 0.613,-0.016C0.601,-0.005 0.584,0 0.561,0L0.167,0C0.135,0 0.113,-0.007 0.099,-0.021C0.085,-0.035 0.078,-0.058 0.078,-0.089L0.078,-0.627C0.078,-0.648 0.081,-0.665 0.087,-0.678C0.094,-0.691 0.103,-0.701 0.116,-0.707C0.13,-0.713 0.146,-0.716 0.167,-0.716L0.55,-0.716C0.573,-0.716 0.59,-0.711 0.601,-0.7C0.613,-0.69 0.618,-0.677 0.618,-0.66C0.618,-0.643 0.613,-0.63 0.601,-0.619C0.59,-0.609 0.573,-0.604 0.55,-0.604Z" style="fill:rgb(5,5,5);fill-opacity:0.8;fill-rule:nonzero;"/>
            </g>
        </g>
        <g transform="matrix(1,0,0,1,-0.402675,0)">
            <g transform="matrix(1.06187,0,0,1.49257,970.635,-290.301)">
                <path d="M73.138,58.208C73.138,57.499 72.126,56.924 70.881,56.924L7.363,56.924C6.118,56.924 5.107,57.499 5.107,58.208L5.107,82.42C5.107,83.128 6.118,83.704 7.363,83.704L70.881,83.704C72.126,83.704 73.138,83.128 73.138,82.42L73.138,58.208Z" style="fill-opacity:0.8;"/>
            </g>
            <g transform="matrix(1.06258,0,0,1.49257,1052.73,-290.301)">
                <path d="M73.138,58.208C73.138,57.499 72.127,56.924 70.883,56.924L7.362,56.924C6.117,56.924 5.107,57.499 5.107,58.208L5.107,82.42C5.107,83.128 6.117,83.704 7.362,83.704L70.883,83.704C72.127,83.704 73.138,83.128 73.138,82.42L73.138,58.208Z" style="fill-opacity:0.8;"/>
            </g>
            <g transform="matrix(1.198,0,0,0.958552,962.745,-247.004)">
                <g transform="matrix(6.4,0,0,6.4,24.2877,51.8924)">
                    <path d="M0.393,-0.728C0.467,-0.728 0.531,-0.713 0.584,-0.683C0.637,-0.653 0.678,-0.61 0.705,-0.554C0.732,-0.499 0.746,-0.434 0.746,-0.359C0.746,-0.304 0.739,-0.253 0.724,-0.208C0.709,-0.163 0.686,-0.124 0.656,-0.09C0.626,-0.057 0.59,-0.032 0.546,-0.014C0.502,0.003 0.452,0.012 0.396,0.012C0.34,0.012 0.29,0.003 0.246,-0.015C0.201,-0.033 0.164,-0.058 0.135,-0.091C0.105,-0.124 0.083,-0.164 0.068,-0.21C0.052,-0.256 0.045,-0.306 0.045,-0.36C0.045,-0.415 0.053,-0.465 0.069,-0.511C0.084,-0.557 0.107,-0.596 0.137,-0.628C0.167,-0.661 0.204,-0.685 0.247,-0.702C0.29,-0.719 0.338,-0.728 0.393,-0.728ZM0.599,-0.36C0.599,-0.412 0.591,-0.458 0.574,-0.496C0.557,-0.535 0.533,-0.564 0.501,-0.583C0.47,-0.603 0.434,-0.613 0.393,-0.613C0.364,-0.613 0.337,-0.607 0.313,-0.596C0.288,-0.586 0.267,-0.57 0.249,-0.549C0.232,-0.528 0.218,-0.501 0.207,-0.469C0.197,-0.437 0.192,-0.4 0.192,-0.36C0.192,-0.319 0.197,-0.282 0.207,-0.25C0.218,-0.217 0.232,-0.189 0.251,-0.168C0.269,-0.146 0.291,-0.13 0.315,-0.119C0.339,-0.108 0.366,-0.103 0.395,-0.103C0.432,-0.103 0.466,-0.112 0.497,-0.131C0.528,-0.149 0.553,-0.178 0.572,-0.217C0.59,-0.256 0.599,-0.303 0.599,-0.36Z" style="fill:white;fill-rule:nonzero;"/>
                </g>
                <g transform="matrix(6.4,0,0,6.4,29.4844,51.8924)">
                    <path d="M0.079,-0.296L0.079,-0.64C0.079,-0.669 0.086,-0.691 0.099,-0.706C0.112,-0.721 0.129,-0.728 0.151,-0.728C0.173,-0.728 0.191,-0.721 0.204,-0.706C0.218,-0.691 0.224,-0.669 0.224,-0.64L0.224,-0.288C0.224,-0.248 0.229,-0.215 0.238,-0.188C0.247,-0.161 0.262,-0.14 0.285,-0.125C0.308,-0.11 0.34,-0.103 0.381,-0.103C0.438,-0.103 0.478,-0.118 0.501,-0.148C0.524,-0.178 0.536,-0.224 0.536,-0.285L0.536,-0.64C0.536,-0.67 0.543,-0.692 0.556,-0.706C0.569,-0.721 0.586,-0.728 0.608,-0.728C0.63,-0.728 0.647,-0.721 0.661,-0.706C0.674,-0.692 0.681,-0.67 0.681,-0.64L0.681,-0.296C0.681,-0.24 0.676,-0.193 0.665,-0.156C0.654,-0.118 0.633,-0.085 0.603,-0.057C0.577,-0.033 0.547,-0.015 0.512,-0.004C0.478,0.007 0.437,0.012 0.391,0.012C0.336,0.012 0.289,0.006 0.249,-0.006C0.209,-0.017 0.177,-0.036 0.152,-0.061C0.127,-0.086 0.108,-0.118 0.097,-0.156C0.085,-0.195 0.079,-0.242 0.079,-0.296Z" style="fill:white;fill-rule:nonzero;"/>
                </g>
                <g transform="matrix(6.4,0,0,6.4,34.4749,51.8924)">
                    <path d="M0.543,-0.596L0.385,-0.596L0.385,-0.076C0.385,-0.046 0.378,-0.024 0.365,-0.01C0.351,0.005 0.334,0.012 0.313,0.012C0.292,0.012 0.274,0.005 0.26,-0.01C0.247,-0.024 0.24,-0.047 0.24,-0.076L0.24,-0.596L0.082,-0.596C0.057,-0.596 0.039,-0.602 0.027,-0.613C0.015,-0.623 0.009,-0.638 0.009,-0.656C0.009,-0.674 0.015,-0.689 0.028,-0.7C0.04,-0.71 0.058,-0.716 0.082,-0.716L0.543,-0.716C0.568,-0.716 0.587,-0.71 0.599,-0.699C0.611,-0.688 0.617,-0.674 0.617,-0.656C0.617,-0.638 0.611,-0.623 0.599,-0.613C0.586,-0.602 0.568,-0.596 0.543,-0.596Z" style="fill:white;fill-rule:nonzero;"/>
                </g>
                <g transform="matrix(6.4,0,0,6.4,40.3309,51.8924)">
                    <path d="M0.547,-0.351C0.547,-0.298 0.544,-0.252 0.537,-0.213C0.531,-0.175 0.519,-0.14 0.501,-0.109C0.479,-0.07 0.45,-0.041 0.415,-0.02C0.38,0.001 0.341,0.011 0.298,0.011C0.248,0.011 0.204,-0.003 0.165,-0.031C0.126,-0.059 0.096,-0.097 0.076,-0.147C0.066,-0.174 0.059,-0.204 0.054,-0.237C0.049,-0.269 0.047,-0.305 0.047,-0.343C0.047,-0.392 0.049,-0.436 0.055,-0.476C0.06,-0.515 0.068,-0.549 0.079,-0.577C0.098,-0.624 0.126,-0.66 0.163,-0.684C0.199,-0.709 0.243,-0.721 0.294,-0.721C0.327,-0.721 0.358,-0.716 0.385,-0.705C0.413,-0.694 0.437,-0.678 0.457,-0.657C0.478,-0.636 0.495,-0.61 0.51,-0.579C0.535,-0.525 0.547,-0.449 0.547,-0.351ZM0.413,-0.361C0.413,-0.42 0.41,-0.469 0.402,-0.507C0.395,-0.545 0.383,-0.574 0.366,-0.593C0.349,-0.612 0.326,-0.622 0.296,-0.622C0.253,-0.622 0.223,-0.6 0.206,-0.557C0.19,-0.514 0.181,-0.447 0.181,-0.357C0.181,-0.296 0.185,-0.246 0.192,-0.207C0.199,-0.167 0.211,-0.138 0.228,-0.118C0.245,-0.098 0.268,-0.088 0.297,-0.088C0.327,-0.088 0.35,-0.098 0.367,-0.119C0.384,-0.14 0.396,-0.17 0.403,-0.208C0.41,-0.247 0.413,-0.298 0.413,-0.361Z" style="fill:white;fill-rule:nonzero;"/>
                </g>
                <g transform="matrix(6.4,0,0,6.4,44.2621,51.8924)">
                    <path d="M0.282,-0.067L0.282,-0.511C0.2,-0.448 0.144,-0.416 0.115,-0.416C0.102,-0.416 0.089,-0.421 0.079,-0.432C0.068,-0.443 0.063,-0.456 0.063,-0.47C0.063,-0.487 0.068,-0.499 0.079,-0.507C0.089,-0.515 0.107,-0.525 0.134,-0.537C0.173,-0.556 0.205,-0.575 0.228,-0.596C0.252,-0.616 0.273,-0.639 0.291,-0.665C0.309,-0.69 0.321,-0.706 0.327,-0.711C0.332,-0.717 0.343,-0.72 0.358,-0.72C0.375,-0.72 0.389,-0.714 0.399,-0.7C0.41,-0.687 0.415,-0.668 0.415,-0.645L0.415,-0.086C0.415,-0.021 0.393,0.012 0.348,0.012C0.328,0.012 0.312,0.006 0.3,-0.008C0.288,-0.021 0.282,-0.041 0.282,-0.067Z" style="fill:white;fill-rule:nonzero;"/>
                </g>
                <g transform="matrix(6.4,0,0,6.4,48.1932,51.8924)">
                    <path d="M0.244,-0.201L0.09,-0.201C0.066,-0.201 0.049,-0.207 0.036,-0.218C0.024,-0.228 0.018,-0.243 0.018,-0.26C0.018,-0.277 0.024,-0.292 0.036,-0.302C0.048,-0.313 0.066,-0.319 0.09,-0.319L0.244,-0.319C0.268,-0.319 0.286,-0.313 0.298,-0.302C0.31,-0.292 0.316,-0.277 0.316,-0.26C0.316,-0.243 0.31,-0.228 0.298,-0.218C0.287,-0.207 0.269,-0.201 0.244,-0.201Z" style="fill:white;fill-rule:nonzero;"/>
                </g>
                <g transform="matrix(6.4,0,0,6.4,50.4524,51.8924)">
                    <path d="M0.282,-0.067L0.282,-0.511C0.2,-0.448 0.144,-0.416 0.115,-0.416C0.102,-0.416 0.089,-0.421 0.079,-0.432C0.068,-0.443 0.063,-0.456 0.063,-0.47C0.063,-0.487 0.068,-0.499 0.079,-0.507C0.089,-0.515 0.107,-0.525 0.134,-0.537C0.173,-0.556 0.205,-0.575 0.228,-0.596C0.252,-0.616 0.273,-0.639 0.291,-0.665C0.309,-0.69 0.321,-0.706 0.327,-0.711C0.332,-0.717 0.343,-0.72 0.358,-0.72C0.375,-0.72 0.389,-0.714 0.399,-0.7C0.41,-0.687 0.415,-0.668 0.415,-0.645L0.415,-0.086C0.415,-0.021 0.393,0.012 0.348,0.012C0.328,0.012 0.312,0.006 0.3,-0.008C0.288,-0.021 0.282,-0.041 0.282,-0.067Z" style="fill:white;fill-rule:nonzero;"/>
                </g>
                <g transform="matrix(6.4,0,0,6.4,54.3836,51.8924)">
                    <path d="M0.181,-0.387C0.203,-0.414 0.227,-0.433 0.253,-0.446C0.279,-0.458 0.309,-0.465 0.341,-0.465C0.372,-0.465 0.4,-0.459 0.427,-0.448C0.453,-0.436 0.476,-0.42 0.495,-0.398C0.515,-0.377 0.53,-0.352 0.541,-0.323C0.552,-0.294 0.557,-0.264 0.557,-0.232C0.557,-0.186 0.547,-0.144 0.526,-0.107C0.505,-0.069 0.475,-0.04 0.438,-0.019C0.4,0.002 0.358,0.012 0.31,0.012C0.255,0.012 0.208,-0.001 0.168,-0.028C0.129,-0.055 0.098,-0.094 0.077,-0.146C0.056,-0.198 0.046,-0.262 0.046,-0.338C0.046,-0.399 0.052,-0.454 0.065,-0.503C0.078,-0.551 0.096,-0.592 0.12,-0.624C0.143,-0.655 0.172,-0.68 0.206,-0.696C0.24,-0.712 0.278,-0.72 0.322,-0.72C0.363,-0.72 0.4,-0.712 0.432,-0.696C0.464,-0.68 0.488,-0.659 0.504,-0.635C0.52,-0.611 0.528,-0.588 0.528,-0.566C0.528,-0.553 0.523,-0.54 0.513,-0.53C0.503,-0.519 0.49,-0.513 0.474,-0.513C0.46,-0.513 0.448,-0.517 0.436,-0.526C0.424,-0.535 0.416,-0.547 0.41,-0.562C0.403,-0.582 0.391,-0.597 0.375,-0.609C0.358,-0.621 0.339,-0.627 0.318,-0.627C0.301,-0.627 0.283,-0.622 0.266,-0.612C0.249,-0.602 0.235,-0.589 0.223,-0.572C0.199,-0.537 0.185,-0.476 0.181,-0.387ZM0.313,-0.084C0.346,-0.084 0.373,-0.097 0.395,-0.124C0.416,-0.151 0.427,-0.186 0.427,-0.23C0.427,-0.26 0.422,-0.285 0.412,-0.306C0.402,-0.328 0.388,-0.344 0.37,-0.355C0.353,-0.366 0.333,-0.372 0.312,-0.372C0.292,-0.372 0.273,-0.367 0.254,-0.356C0.236,-0.345 0.221,-0.33 0.21,-0.309C0.198,-0.289 0.193,-0.265 0.193,-0.238C0.193,-0.194 0.204,-0.157 0.227,-0.128C0.25,-0.099 0.278,-0.084 0.313,-0.084Z" style="fill:white;fill-rule:nonzero;"/>
                </g>
            </g>
            <g transform="matrix(1.198,0,0,0.958552,1044.87,-246.968)">
                <g transform="matrix(6.4,0,0,6.4,24.2877,51.8924)">
                    <path d="M0.393,-0.728C0.467,-0.728 0.531,-0.713 0.584,-0.683C0.637,-0.653 0.678,-0.61 0.705,-0.554C0.732,-0.499 0.746,-0.434 0.746,-0.359C0.746,-0.304 0.739,-0.253 0.724,-0.208C0.709,-0.163 0.686,-0.124 0.656,-0.09C0.626,-0.057 0.59,-0.032 0.546,-0.014C0.502,0.003 0.452,0.012 0.396,0.012C0.34,0.012 0.29,0.003 0.246,-0.015C0.201,-0.033 0.164,-0.058 0.135,-0.091C0.105,-0.124 0.083,-0.164 0.068,-0.21C0.052,-0.256 0.045,-0.306 0.045,-0.36C0.045,-0.415 0.053,-0.465 0.069,-0.511C0.084,-0.557 0.107,-0.596 0.137,-0.628C0.167,-0.661 0.204,-0.685 0.247,-0.702C0.29,-0.719 0.338,-0.728 0.393,-0.728ZM0.599,-0.36C0.599,-0.412 0.591,-0.458 0.574,-0.496C0.557,-0.535 0.533,-0.564 0.501,-0.583C0.47,-0.603 0.434,-0.613 0.393,-0.613C0.364,-0.613 0.337,-0.607 0.313,-0.596C0.288,-0.586 0.267,-0.57 0.249,-0.549C0.232,-0.528 0.218,-0.501 0.207,-0.469C0.197,-0.437 0.192,-0.4 0.192,-0.36C0.192,-0.319 0.197,-0.282 0.207,-0.25C0.218,-0.217 0.232,-0.189 0.251,-0.168C0.269,-0.146 0.291,-0.13 0.315,-0.119C0.339,-0.108 0.366,-0.103 0.395,-0.103C0.432,-0.103 0.466,-0.112 0.497,-0.131C0.528,-0.149 0.553,-0.178 0.572,-0.217C0.59,-0.256 0.599,-0.303 0.599,-0.36Z" style="fill:white;fill-rule:nonzero;"/>
                </g>
                <g transform="matrix(6.4,0,0,6.4,29.4844,51.8924)">
                    <path d="M0.079,-0.296L0.079,-0.64C0.079,-0.669 0.086,-0.691 0.099,-0.706C0.112,-0.721 0.129,-0.728 0.151,-0.728C0.173,-0.728 0.191,-0.721 0.204,-0.706C0.218,-0.691 0.224,-0.669 0.224,-0.64L0.224,-0.288C0.224,-0.248 0.229,-0.215 0.238,-0.188C0.247,-0.161 0.262,-0.14 0.285,-0.125C0.308,-0.11 0.34,-0.103 0.381,-0.103C0.438,-0.103 0.478,-0.118 0.501,-0.148C0.524,-0.178 0.536,-0.224 0.536,-0.285L0.536,-0.64C0.536,-0.67 0.543,-0.692 0.556,-0.706C0.569,-0.721 0.586,-0.728 0.608,-0.728C0.63,-0.728 0.647,-0.721 0.661,-0.706C0.674,-0.692 0.681,-0.67 0.681,-0.64L0.681,-0.296C0.681,-0.24 0.676,-0.193 0.665,-0.156C0.654,-0.118 0.633,-0.085 0.603,-0.057C0.577,-0.033 0.547,-0.015 0.512,-0.004C0.478,0.007 0.437,0.012 0.391,0.012C0.336,0.012 0.289,0.006 0.249,-0.006C0.209,-0.017 0.177,-0.036 0.152,-0.061C0.127,-0.086 0.108,-0.118 0.097,-0.156C0.085,-0.195 0.079,-0.242 0.079,-0.296Z" style="fill:white;fill-rule:nonzero;"/>
                </g>
                <g transform="matrix(6.4,0,0,6.4,34.4749,51.8924)">
                    <path d="M0.543,-0.596L0.385,-0.596L0.385,-0.076C0.385,-0.046 0.378,-0.024 0.365,-0.01C0.351,0.005 0.334,0.012 0.313,0.012C0.292,0.012 0.274,0.005 0.26,-0.01C0.247,-0.024 0.24,-0.047 0.24,-0.076L0.24,-0.596L0.082,-0.596C0.057,-0.596 0.039,-0.602 0.027,-0.613C0.015,-0.623 0.009,-0.638 0.009,-0.656C0.009,-0.674 0.015,-0.689 0.028,-0.7C0.04,-0.71 0.058,-0.716 0.082,-0.716L0.543,-0.716C0.568,-0.716 0.587,-0.71 0.599,-0.699C0.611,-0.688 0.617,-0.674 0.617,-0.656C0.617,-0.638 0.611,-0.623 0.599,-0.613C0.586,-0.602 0.568,-0.596 0.543,-0.596Z" style="fill:white;fill-rule:nonzero;"/>
                </g>
                <g transform="matrix(6.4,0,0,6.4,40.3309,51.8924)">
                    <path d="M0.282,-0.067L0.282,-0.511C0.2,-0.448 0.144,-0.416 0.115,-0.416C0.102,-0.416 0.089,-0.421 0.079,-0.432C0.068,-0.443 0.063,-0.456 0.063,-0.47C0.063,-0.487 0.068,-0.499 0.079,-0.507C0.089,-0.515 0.107,-0.525 0.134,-0.537C0.173,-0.556 0.205,-0.575 0.228,-0.596C0.252,-0.616 0.273,-0.639 0.291,-0.665C0.309,-0.69 0.321,-0.706 0.327,-0.711C0.332,-0.717 0.343,-0.72 0.358,-0.72C0.375,-0.72 0.389,-0.714 0.399,-0.7C0.41,-0.687 0.415,-0.668 0.415,-0.645L0.415,-0.086C0.415,-0.021 0.393,0.012 0.348,0.012C0.328,0.012 0.312,0.006 0.3,-0.008C0.288,-0.021 0.282,-0.041 0.282,-0.067Z" style="fill:white;fill-rule:nonzero;"/>
                </g>
                <g transform="matrix(6.4,0,0,6.4,44.2621,51.8924)">
                    <path d="M0.156,-0.709L0.481,-0.709C0.512,-0.709 0.535,-0.704 0.549,-0.694C0.563,-0.685 0.57,-0.668 0.57,-0.646C0.57,-0.632 0.562,-0.614 0.545,-0.592C0.529,-0.569 0.51,-0.545 0.489,-0.517C0.468,-0.49 0.446,-0.456 0.424,-0.416C0.402,-0.376 0.381,-0.326 0.363,-0.268C0.355,-0.242 0.349,-0.221 0.346,-0.204C0.343,-0.187 0.339,-0.165 0.335,-0.138C0.332,-0.111 0.328,-0.09 0.325,-0.076C0.318,-0.043 0.309,-0.02 0.296,-0.007C0.284,0.006 0.267,0.012 0.246,0.012C0.226,0.012 0.21,0.005 0.198,-0.009C0.186,-0.022 0.18,-0.043 0.18,-0.07C0.18,-0.091 0.185,-0.119 0.193,-0.155C0.202,-0.191 0.216,-0.233 0.236,-0.283C0.256,-0.333 0.281,-0.385 0.311,-0.437C0.341,-0.49 0.376,-0.542 0.417,-0.594L0.156,-0.594C0.128,-0.594 0.108,-0.599 0.094,-0.609C0.081,-0.619 0.074,-0.635 0.074,-0.656C0.074,-0.678 0.081,-0.693 0.096,-0.699C0.11,-0.706 0.13,-0.709 0.156,-0.709Z" style="fill:white;fill-rule:nonzero;"/>
                </g>
                <g transform="matrix(6.4,0,0,6.4,48.1932,51.8924)">
                    <path d="M0.244,-0.201L0.09,-0.201C0.066,-0.201 0.049,-0.207 0.036,-0.218C0.024,-0.228 0.018,-0.243 0.018,-0.26C0.018,-0.277 0.024,-0.292 0.036,-0.302C0.048,-0.313 0.066,-0.319 0.09,-0.319L0.244,-0.319C0.268,-0.319 0.286,-0.313 0.298,-0.302C0.31,-0.292 0.316,-0.277 0.316,-0.26C0.316,-0.243 0.31,-0.228 0.298,-0.218C0.287,-0.207 0.269,-0.201 0.244,-0.201Z" style="fill:white;fill-rule:nonzero;"/>
                </g>
                <g transform="matrix(6.4,0,0,6.4,50.4524,51.8924)">
                    <path d="M0.274,-0.432C0.304,-0.432 0.33,-0.441 0.351,-0.458C0.373,-0.476 0.384,-0.501 0.384,-0.534C0.384,-0.559 0.375,-0.581 0.358,-0.599C0.341,-0.617 0.317,-0.626 0.288,-0.626C0.268,-0.626 0.252,-0.623 0.239,-0.618C0.226,-0.612 0.216,-0.605 0.208,-0.596C0.201,-0.587 0.194,-0.575 0.187,-0.561C0.181,-0.546 0.174,-0.533 0.169,-0.52C0.166,-0.513 0.16,-0.508 0.151,-0.504C0.143,-0.5 0.133,-0.498 0.122,-0.498C0.109,-0.498 0.097,-0.503 0.086,-0.514C0.075,-0.524 0.07,-0.539 0.07,-0.556C0.07,-0.573 0.075,-0.591 0.085,-0.61C0.095,-0.628 0.11,-0.646 0.13,-0.663C0.15,-0.68 0.174,-0.694 0.204,-0.704C0.233,-0.714 0.266,-0.719 0.302,-0.719C0.333,-0.719 0.362,-0.715 0.388,-0.706C0.414,-0.698 0.437,-0.685 0.456,-0.669C0.475,-0.653 0.49,-0.634 0.5,-0.612C0.509,-0.591 0.514,-0.568 0.514,-0.543C0.514,-0.51 0.507,-0.483 0.493,-0.459C0.479,-0.436 0.458,-0.413 0.432,-0.391C0.458,-0.377 0.479,-0.362 0.496,-0.344C0.514,-0.327 0.527,-0.307 0.536,-0.286C0.544,-0.265 0.549,-0.242 0.549,-0.217C0.549,-0.187 0.543,-0.159 0.531,-0.131C0.519,-0.103 0.502,-0.079 0.479,-0.057C0.455,-0.035 0.428,-0.018 0.396,-0.006C0.365,0.006 0.329,0.012 0.291,0.012C0.252,0.012 0.217,0.005 0.186,-0.009C0.155,-0.023 0.13,-0.04 0.11,-0.061C0.09,-0.082 0.074,-0.104 0.064,-0.126C0.054,-0.149 0.049,-0.167 0.049,-0.182C0.049,-0.201 0.055,-0.216 0.067,-0.228C0.079,-0.239 0.095,-0.245 0.113,-0.245C0.122,-0.245 0.131,-0.242 0.139,-0.237C0.148,-0.232 0.153,-0.225 0.156,-0.218C0.173,-0.173 0.191,-0.139 0.21,-0.117C0.23,-0.095 0.257,-0.084 0.292,-0.084C0.312,-0.084 0.332,-0.089 0.35,-0.099C0.369,-0.109 0.385,-0.124 0.397,-0.143C0.409,-0.163 0.415,-0.185 0.415,-0.211C0.415,-0.249 0.405,-0.279 0.384,-0.301C0.363,-0.322 0.334,-0.333 0.297,-0.333C0.29,-0.333 0.28,-0.332 0.267,-0.331C0.253,-0.33 0.244,-0.329 0.24,-0.329C0.222,-0.329 0.208,-0.334 0.199,-0.343C0.189,-0.351 0.184,-0.364 0.184,-0.38C0.184,-0.396 0.19,-0.408 0.202,-0.418C0.213,-0.427 0.231,-0.432 0.254,-0.432L0.274,-0.432Z" style="fill:white;fill-rule:nonzero;"/>
                </g>
                <g transform="matrix(6.4,0,0,6.4,54.3836,51.8924)">
                    <path d="M0.223,-0.115L0.478,-0.115C0.503,-0.115 0.523,-0.11 0.536,-0.1C0.549,-0.089 0.556,-0.075 0.556,-0.057C0.556,-0.041 0.551,-0.028 0.54,-0.017C0.53,-0.006 0.514,0 0.492,0L0.133,0C0.108,0 0.089,-0.007 0.076,-0.02C0.062,-0.034 0.055,-0.05 0.055,-0.068C0.055,-0.08 0.06,-0.095 0.068,-0.115C0.077,-0.134 0.087,-0.149 0.097,-0.16C0.14,-0.205 0.18,-0.244 0.214,-0.276C0.249,-0.308 0.274,-0.329 0.289,-0.339C0.316,-0.358 0.338,-0.377 0.356,-0.396C0.373,-0.415 0.387,-0.434 0.396,-0.454C0.406,-0.474 0.41,-0.494 0.41,-0.513C0.41,-0.534 0.405,-0.553 0.395,-0.569C0.385,-0.586 0.372,-0.598 0.355,-0.607C0.338,-0.617 0.319,-0.621 0.299,-0.621C0.256,-0.621 0.223,-0.602 0.198,-0.565C0.195,-0.56 0.19,-0.547 0.182,-0.525C0.174,-0.503 0.166,-0.486 0.156,-0.475C0.146,-0.463 0.132,-0.457 0.114,-0.457C0.097,-0.457 0.084,-0.462 0.073,-0.473C0.063,-0.484 0.057,-0.499 0.057,-0.517C0.057,-0.54 0.062,-0.563 0.072,-0.587C0.082,-0.612 0.097,-0.634 0.117,-0.654C0.137,-0.674 0.163,-0.69 0.194,-0.702C0.224,-0.714 0.26,-0.72 0.302,-0.72C0.352,-0.72 0.394,-0.712 0.429,-0.697C0.452,-0.686 0.472,-0.672 0.489,-0.654C0.507,-0.636 0.52,-0.615 0.53,-0.591C0.539,-0.567 0.544,-0.542 0.544,-0.516C0.544,-0.476 0.534,-0.439 0.514,-0.406C0.494,-0.373 0.473,-0.347 0.453,-0.328C0.432,-0.31 0.397,-0.28 0.348,-0.24C0.299,-0.2 0.265,-0.169 0.247,-0.147C0.239,-0.138 0.231,-0.128 0.223,-0.115Z" style="fill:white;fill-rule:nonzero;"/>
                </g>
            </g>
        </g>
        <g transform="matrix(1.198,0,0,0.958552,956.466,-223.218)">
            <g transform="matrix(9,0,0,9,52.3635,347.267)">
                <path d="M0.058,-0.145C0.112,-0.112 0.165,-0.096 0.216,-0.096C0.281,-0.096 0.314,-0.113 0.314,-0.148C0.314,-0.173 0.287,-0.193 0.233,-0.21C0.166,-0.231 0.12,-0.254 0.095,-0.28C0.07,-0.305 0.058,-0.34 0.058,-0.383C0.058,-0.436 0.079,-0.478 0.122,-0.508C0.165,-0.538 0.221,-0.553 0.291,-0.553C0.34,-0.553 0.388,-0.546 0.434,-0.531L0.434,-0.407C0.392,-0.432 0.346,-0.444 0.295,-0.444C0.27,-0.444 0.25,-0.44 0.235,-0.431C0.22,-0.422 0.212,-0.41 0.212,-0.396C0.212,-0.371 0.235,-0.351 0.28,-0.335C0.329,-0.319 0.366,-0.304 0.39,-0.291C0.415,-0.278 0.434,-0.26 0.447,-0.238C0.459,-0.216 0.466,-0.191 0.466,-0.163C0.466,-0.107 0.444,-0.064 0.399,-0.033C0.354,-0.002 0.295,0.013 0.22,0.013C0.162,0.013 0.107,0.004 0.058,-0.015L0.058,-0.145Z" style="fill:rgb(10,1,1);fill-rule:nonzero;"/>
            </g>
            <g transform="matrix(9,0,0,9,56.9414,347.267)">
                <path d="M0.39,-0.006C0.366,0.007 0.33,0.013 0.282,0.013C0.167,0.013 0.11,-0.047 0.11,-0.167L0.11,-0.422L0.021,-0.422L0.021,-0.54L0.11,-0.54L0.11,-0.659L0.267,-0.704L0.267,-0.54L0.39,-0.54L0.39,-0.422L0.267,-0.422L0.267,-0.195C0.267,-0.137 0.289,-0.108 0.335,-0.108C0.353,-0.108 0.371,-0.114 0.39,-0.124L0.39,-0.006Z" style="fill:rgb(10,1,1);fill-rule:nonzero;"/>
            </g>
            <g transform="matrix(6.6,0,0,6.6,60.8029,347.267)">
                <path d="M0.106,0.032L0.043,-0.021L0.122,-0.115C0.067,-0.183 0.04,-0.268 0.04,-0.368C0.04,-0.487 0.075,-0.584 0.144,-0.658C0.213,-0.732 0.305,-0.769 0.418,-0.769C0.5,-0.769 0.571,-0.748 0.63,-0.706L0.698,-0.785L0.761,-0.733L0.689,-0.65C0.748,-0.581 0.778,-0.493 0.778,-0.384C0.778,-0.266 0.743,-0.17 0.674,-0.097C0.605,-0.023 0.516,0.013 0.406,0.013C0.32,0.013 0.246,-0.011 0.182,-0.059L0.106,0.032ZM0.54,-0.6C0.506,-0.628 0.463,-0.642 0.413,-0.642C0.349,-0.642 0.297,-0.617 0.258,-0.569C0.218,-0.52 0.199,-0.455 0.199,-0.375C0.199,-0.319 0.208,-0.273 0.227,-0.234L0.54,-0.6ZM0.275,-0.165C0.311,-0.131 0.356,-0.114 0.409,-0.114C0.473,-0.114 0.524,-0.137 0.563,-0.184C0.601,-0.231 0.62,-0.294 0.62,-0.374C0.62,-0.435 0.61,-0.488 0.588,-0.533L0.275,-0.165Z" style="fill-rule:nonzero;"/>
            </g>
            <g transform="matrix(9,0,0,9,66.3031,347.267)">
                <path d="M0.551,-0.226L0.196,-0.226C0.201,-0.142 0.252,-0.1 0.347,-0.1C0.407,-0.1 0.459,-0.115 0.505,-0.144L0.505,-0.028C0.456,-0.001 0.391,0.013 0.312,0.013C0.226,0.013 0.159,-0.011 0.111,-0.06C0.063,-0.108 0.04,-0.176 0.04,-0.262C0.04,-0.348 0.065,-0.419 0.116,-0.472C0.167,-0.526 0.23,-0.553 0.307,-0.553C0.384,-0.553 0.443,-0.53 0.487,-0.484C0.53,-0.437 0.551,-0.374 0.551,-0.292L0.551,-0.226ZM0.404,-0.324C0.404,-0.405 0.372,-0.445 0.306,-0.445C0.279,-0.445 0.255,-0.434 0.234,-0.412C0.214,-0.39 0.201,-0.361 0.195,-0.324L0.404,-0.324Z" style="fill:rgb(10,1,1);fill-rule:nonzero;"/>
            </g>
            <g transform="matrix(9,0,0,9,71.6764,347.267)">
                <path d="M0.416,-0.397C0.397,-0.408 0.374,-0.414 0.346,-0.414C0.31,-0.414 0.282,-0.4 0.261,-0.373C0.24,-0.345 0.229,-0.308 0.229,-0.26L0.229,0L0.072,0L0.072,-0.54L0.229,-0.54L0.229,-0.438L0.231,-0.438C0.257,-0.512 0.305,-0.549 0.374,-0.549C0.392,-0.549 0.406,-0.547 0.416,-0.543L0.416,-0.397Z" style="fill:rgb(10,1,1);fill-rule:nonzero;"/>
            </g>
            <g transform="matrix(9,0,0,9,75.6478,347.267)">
                <path d="M0.919,0L0.762,0L0.762,-0.308C0.762,-0.391 0.732,-0.432 0.671,-0.432C0.643,-0.432 0.62,-0.42 0.602,-0.395C0.583,-0.369 0.574,-0.339 0.574,-0.303L0.574,0L0.417,0L0.417,-0.312C0.417,-0.392 0.387,-0.432 0.327,-0.432C0.298,-0.432 0.274,-0.42 0.256,-0.396C0.238,-0.372 0.229,-0.341 0.229,-0.301L0.229,0L0.072,0L0.072,-0.54L0.229,-0.54L0.229,-0.456L0.231,-0.456C0.25,-0.486 0.275,-0.51 0.307,-0.528C0.338,-0.545 0.371,-0.553 0.405,-0.553C0.481,-0.553 0.533,-0.519 0.561,-0.451C0.603,-0.519 0.663,-0.553 0.743,-0.553C0.86,-0.553 0.919,-0.481 0.919,-0.335L0.919,0Z" style="fill:rgb(10,1,1);fill-rule:nonzero;"/>
            </g>
            <g transform="matrix(9,0,0,9,84.6202,347.267)">
                <path d="M0.551,-0.226L0.196,-0.226C0.201,-0.142 0.252,-0.1 0.347,-0.1C0.407,-0.1 0.459,-0.115 0.505,-0.144L0.505,-0.028C0.456,-0.001 0.391,0.013 0.312,0.013C0.226,0.013 0.159,-0.011 0.111,-0.06C0.063,-0.108 0.04,-0.176 0.04,-0.262C0.04,-0.348 0.065,-0.419 0.116,-0.472C0.167,-0.526 0.23,-0.553 0.307,-0.553C0.384,-0.553 0.443,-0.53 0.487,-0.484C0.53,-0.437 0.551,-0.374 0.551,-0.292L0.551,-0.226ZM0.404,-0.324C0.404,-0.405 0.372,-0.445 0.306,-0.445C0.279,-0.445 0.255,-0.434 0.234,-0.412C0.214,-0.39 0.201,-0.361 0.195,-0.324L0.404,-0.324Z" style="fill:rgb(10,1,1);fill-rule:nonzero;"/>
            </g>
            <g transform="matrix(9,0,0,9,89.9935,347.267)">
                <rect x="0.069" y="-0.799" width="0.157" height="0.799" style="fill:rgb(10,1,1);fill-rule:nonzero;"/>
            </g>
            <g transform="matrix(9,0,0,9,92.7916,347.267)">
                <path d="M0.593,0L0.436,0L0.436,-0.076L0.433,-0.076C0.395,-0.017 0.339,0.013 0.264,0.013C0.195,0.013 0.141,-0.011 0.1,-0.06C0.06,-0.108 0.04,-0.174 0.04,-0.258C0.04,-0.346 0.062,-0.418 0.108,-0.472C0.153,-0.526 0.212,-0.553 0.286,-0.553C0.356,-0.553 0.405,-0.528 0.433,-0.477L0.436,-0.477L0.436,-0.799L0.593,-0.799L0.593,0ZM0.438,-0.306C0.438,-0.342 0.427,-0.372 0.405,-0.396C0.383,-0.42 0.356,-0.432 0.323,-0.432C0.284,-0.432 0.254,-0.417 0.232,-0.386C0.21,-0.356 0.199,-0.315 0.199,-0.263C0.199,-0.213 0.21,-0.175 0.231,-0.148C0.252,-0.121 0.281,-0.108 0.318,-0.108C0.353,-0.108 0.382,-0.122 0.404,-0.15C0.427,-0.179 0.438,-0.215 0.438,-0.261L0.438,-0.306Z" style="fill:rgb(10,1,1);fill-rule:nonzero;"/>
            </g>
            <g transform="matrix(9,0,0,9,98.9075,347.267)">
                <path d="M0.551,-0.226L0.196,-0.226C0.201,-0.142 0.252,-0.1 0.347,-0.1C0.407,-0.1 0.459,-0.115 0.505,-0.144L0.505,-0.028C0.456,-0.001 0.391,0.013 0.312,0.013C0.226,0.013 0.159,-0.011 0.111,-0.06C0.063,-0.108 0.04,-0.176 0.04,-0.262C0.04,-0.348 0.065,-0.419 0.116,-0.472C0.167,-0.526 0.23,-0.553 0.307,-0.553C0.384,-0.553 0.443,-0.53 0.487,-0.484C0.53,-0.437 0.551,-0.374 0.551,-0.292L0.551,-0.226ZM0.404,-0.324C0.404,-0.405 0.372,-0.445 0.306,-0.445C0.279,-0.445 0.255,-0.434 0.234,-0.412C0.214,-0.39 0.201,-0.361 0.195,-0.324L0.404,-0.324Z" style="fill:rgb(10,1,1);fill-rule:nonzero;"/>
            </g>
            <g transform="matrix(9,0,0,9,104.281,347.267)">
                <path d="M0.416,-0.397C0.397,-0.408 0.374,-0.414 0.346,-0.414C0.31,-0.414 0.282,-0.4 0.261,-0.373C0.24,-0.345 0.229,-0.308 0.229,-0.26L0.229,0L0.072,0L0.072,-0.54L0.229,-0.54L0.229,-0.438L0.231,-0.438C0.257,-0.512 0.305,-0.549 0.374,-0.549C0.392,-0.549 0.406,-0.547 0.416,-0.543L0.416,-0.397Z" style="fill:rgb(10,1,1);fill-rule:nonzero;"/>
            </g>
        </g>
    </g>
    <defs>
        <linearGradient id="_Linear1" x1="0" y1="0" x2="1" y2="0" gradientUnits="userSpaceOnUse" gradientTransform="matrix(9.31062e-17,1.52054,-1.52054,9.31062e-17,1036.87,122.284)"><stop offset="0" style="stop-color:rgb(165,165,165);stop-opacity:1"/><stop offset="1" style="stop-color:black;stop-opacity:1"/></linearGradient>
    </defs>
</svg>
