<?xml version="1.0" encoding="UTF-8" standalone="no"?>
<!DOCTYPE svg PUBLIC "-//W3C//DTD SVG 1.1//EN" "http://www.w3.org/Graphics/SVG/1.1/DTD/svg11.dtd">
<svg width="100%" height="100%" viewBox="0 0 45 380" version="1.1" xmlns="http://www.w3.org/2000/svg" xmlns:xlink="http://www.w3.org/1999/xlink" xml:space="preserve" xmlns:serif="http://www.serif.com/" style="fill-rule:evenodd;clip-rule:evenodd;stroke-linecap:round;stroke-linejoin:round;stroke-miterlimit:1.5;">
    <g id="panel" transform="matrix(0.834722,0,0,1.04324,-803.837,250.623)">
        <g transform="matrix(0.898503,0,0,0.958552,963,-240.242)">
            <rect x="0" y="0" width="60" height="380" style="fill:rgb(128,187,254);"/>
        </g>
        <g transform="matrix(0.318803,0,0,1.81961,972.575,-538.829)">
            <rect x="-30.034" y="347.456" width="169.102" height="16.91" style="fill:rgb(4,4,4);fill-opacity:0.3;"/>
        </g>
        <g transform="matrix(0.318803,0,0,1.76292,972.575,-852.772)">
            <rect x="-30.034" y="347.456" width="169.102" height="16.91" style="fill:rgb(4,4,4);fill-opacity:0.3;"/>
        </g>
        <g transform="matrix(2.40704,0,0,25.5659,873.006,-292.473)">
            <rect x="37.388" y="2.043" width="22.397" height="14.247" style="fill:none;stroke:black;stroke-opacity:0.6;stroke-width:0.03px;"/>
        </g>
        <g transform="matrix(1.198,0,0,0.958552,968.115,-213.748)">
            <g transform="matrix(13,0,0,13,1.86939,0)">
                <path d="M0.166,0.205L0.044,0.205L0.044,-0.523L0.166,-0.523L0.166,-0.193C0.166,-0.126 0.196,-0.092 0.256,-0.092C0.284,-0.092 0.31,-0.099 0.333,-0.114C0.357,-0.128 0.373,-0.145 0.381,-0.164L0.381,-0.523L0.503,-0.523L0.503,0L0.381,0L0.381,-0.043C0.339,-0.008 0.291,0.01 0.236,0.01C0.208,0.01 0.185,0.003 0.166,-0.011L0.166,0.205Z" style="fill-rule:nonzero;"/>
            </g>
            <g transform="matrix(13,0,0,13,8.97876,0)">
                <path d="M0.74,0L0.617,0L0.543,-0.385L0.399,0.01L0.354,0.01L0.209,-0.385L0.132,0L0.01,0L0.154,-0.715L0.221,-0.715L0.376,-0.233L0.527,-0.715L0.594,-0.715L0.74,0Z" style="fill-rule:nonzero;"/>
            </g>
            <g transform="matrix(13,0,0,13,18.6653,0)">
                <path d="M0.491,0L0.438,-0.145L0.193,-0.145L0.144,0L0.002,0L0.288,-0.725L0.343,-0.725L0.631,0L0.491,0ZM0.315,-0.506L0.229,-0.242L0.401,-0.242L0.315,-0.506Z" style="fill-rule:nonzero;"/>
            </g>
            <g transform="matrix(13,0,0,13,26.8982,0)">
                <path d="M0.2,-0.263L0.2,0L0.073,0L0.073,-0.715C0.158,-0.718 0.207,-0.72 0.222,-0.72C0.335,-0.72 0.417,-0.703 0.469,-0.668C0.522,-0.634 0.548,-0.579 0.548,-0.506C0.548,-0.342 0.451,-0.26 0.258,-0.26C0.243,-0.26 0.224,-0.261 0.2,-0.263ZM0.2,-0.605L0.2,-0.376C0.222,-0.374 0.239,-0.373 0.251,-0.373C0.309,-0.373 0.351,-0.382 0.378,-0.402C0.405,-0.421 0.418,-0.452 0.418,-0.496C0.418,-0.57 0.358,-0.607 0.239,-0.607C0.225,-0.607 0.213,-0.607 0.2,-0.605Z" style="fill-rule:nonzero;"/>
            </g>
        </g>
        <g transform="matrix(0.840359,0,0,0.840359,157.921,16.2108)">
            <g transform="matrix(1.198,0,0,0.958552,893.633,-224.914)">
                <g transform="matrix(9,0,0,9,64.0056,347.267)">
                    <path d="M0.919,0L0.762,0L0.762,-0.308C0.762,-0.391 0.732,-0.432 0.671,-0.432C0.643,-0.432 0.62,-0.42 0.602,-0.395C0.583,-0.369 0.574,-0.339 0.574,-0.303L0.574,0L0.417,0L0.417,-0.312C0.417,-0.392 0.387,-0.432 0.327,-0.432C0.298,-0.432 0.274,-0.42 0.256,-0.396C0.238,-0.372 0.229,-0.341 0.229,-0.301L0.229,0L0.072,0L0.072,-0.54L0.229,-0.54L0.229,-0.456L0.231,-0.456C0.25,-0.486 0.275,-0.51 0.307,-0.528C0.338,-0.545 0.371,-0.553 0.405,-0.553C0.481,-0.553 0.533,-0.519 0.561,-0.451C0.603,-0.519 0.663,-0.553 0.743,-0.553C0.86,-0.553 0.919,-0.481 0.919,-0.335L0.919,0Z" style="fill:rgb(10,1,1);fill-rule:nonzero;"/>
                </g>
                <g transform="matrix(9,0,0,9,72.978,347.267)">
                    <path d="M0.551,-0.226L0.196,-0.226C0.201,-0.142 0.252,-0.1 0.347,-0.1C0.407,-0.1 0.459,-0.115 0.505,-0.144L0.505,-0.028C0.456,-0.001 0.391,0.013 0.312,0.013C0.226,0.013 0.159,-0.011 0.111,-0.06C0.063,-0.108 0.04,-0.176 0.04,-0.262C0.04,-0.348 0.065,-0.419 0.116,-0.472C0.167,-0.526 0.23,-0.553 0.307,-0.553C0.384,-0.553 0.443,-0.53 0.487,-0.484C0.53,-0.437 0.551,-0.374 0.551,-0.292L0.551,-0.226ZM0.404,-0.324C0.404,-0.405 0.372,-0.445 0.306,-0.445C0.279,-0.445 0.255,-0.434 0.234,-0.412C0.214,-0.39 0.201,-0.361 0.195,-0.324L0.404,-0.324Z" style="fill:rgb(10,1,1);fill-rule:nonzero;"/>
                </g>
                <g transform="matrix(9,0,0,9,78.3513,347.267)">
                    <rect x="0.069" y="-0.799" width="0.157" height="0.799" style="fill:rgb(10,1,1);fill-rule:nonzero;"/>
                </g>
                <g transform="matrix(9,0,0,9,81.1494,347.267)">
                    <path d="M0.593,0L0.436,0L0.436,-0.076L0.433,-0.076C0.395,-0.017 0.339,0.013 0.264,0.013C0.195,0.013 0.141,-0.011 0.1,-0.06C0.06,-0.108 0.04,-0.174 0.04,-0.258C0.04,-0.346 0.062,-0.418 0.108,-0.472C0.153,-0.526 0.212,-0.553 0.286,-0.553C0.356,-0.553 0.405,-0.528 0.433,-0.477L0.436,-0.477L0.438,-0.707L0.593,-0.658L0.593,0ZM0.438,-0.306C0.438,-0.342 0.427,-0.372 0.405,-0.396C0.383,-0.42 0.356,-0.432 0.323,-0.432C0.284,-0.432 0.254,-0.417 0.232,-0.386C0.21,-0.356 0.199,-0.315 0.199,-0.263C0.199,-0.213 0.21,-0.175 0.231,-0.148C0.252,-0.121 0.281,-0.108 0.318,-0.108C0.353,-0.108 0.382,-0.122 0.404,-0.15C0.427,-0.179 0.438,-0.215 0.438,-0.261L0.438,-0.306Z" style="fill:rgb(10,1,1);fill-rule:nonzero;"/>
                </g>
                <g transform="matrix(9,0,0,9,87.2654,347.267)">
                    <path d="M0.551,-0.226L0.196,-0.226C0.201,-0.142 0.252,-0.1 0.347,-0.1C0.407,-0.1 0.459,-0.115 0.505,-0.144L0.505,-0.028C0.456,-0.001 0.391,0.013 0.312,0.013C0.226,0.013 0.159,-0.011 0.111,-0.06C0.063,-0.108 0.04,-0.176 0.04,-0.262C0.04,-0.348 0.065,-0.419 0.116,-0.472C0.167,-0.526 0.23,-0.553 0.307,-0.553C0.384,-0.553 0.443,-0.53 0.487,-0.484C0.53,-0.437 0.551,-0.374 0.551,-0.292L0.551,-0.226ZM0.404,-0.324C0.404,-0.405 0.372,-0.445 0.306,-0.445C0.279,-0.445 0.255,-0.434 0.234,-0.412C0.214,-0.39 0.201,-0.361 0.195,-0.324L0.404,-0.324Z" style="fill:rgb(10,1,1);fill-rule:nonzero;"/>
                </g>
                <g transform="matrix(9,0,0,9,92.6386,347.267)">
                    <path d="M0.416,-0.397C0.397,-0.408 0.374,-0.414 0.346,-0.414C0.31,-0.414 0.282,-0.4 0.261,-0.373C0.24,-0.345 0.229,-0.308 0.229,-0.26L0.229,0L0.072,0L0.072,-0.54L0.229,-0.54L0.229,-0.438L0.231,-0.438C0.257,-0.512 0.305,-0.549 0.374,-0.549C0.392,-0.549 0.406,-0.547 0.416,-0.543L0.416,-0.397Z" style="fill:rgb(10,1,1);fill-rule:nonzero;"/>
                </g>
            </g>
            <g transform="matrix(1.198,0,0,0.958552,893.495,-231.786)">
                <g transform="matrix(9,0,0,9,68.6657,347.267)">
                    <path d="M0.058,-0.145C0.112,-0.112 0.165,-0.096 0.216,-0.096C0.281,-0.096 0.314,-0.113 0.314,-0.148C0.314,-0.173 0.287,-0.193 0.233,-0.21C0.166,-0.231 0.12,-0.254 0.095,-0.28C0.07,-0.305 0.058,-0.34 0.058,-0.383C0.058,-0.436 0.079,-0.478 0.122,-0.508C0.165,-0.538 0.221,-0.553 0.291,-0.553C0.34,-0.553 0.388,-0.546 0.434,-0.531L0.434,-0.407C0.392,-0.432 0.346,-0.444 0.295,-0.444C0.27,-0.444 0.25,-0.44 0.235,-0.431C0.22,-0.422 0.212,-0.41 0.212,-0.396C0.212,-0.371 0.235,-0.351 0.28,-0.335C0.329,-0.319 0.366,-0.304 0.39,-0.291C0.415,-0.278 0.434,-0.26 0.447,-0.238C0.459,-0.216 0.466,-0.191 0.466,-0.163C0.466,-0.107 0.444,-0.064 0.399,-0.033C0.354,-0.002 0.295,0.013 0.22,0.013C0.162,0.013 0.107,0.004 0.058,-0.015L0.058,-0.145Z" style="fill:rgb(10,1,1);fill-rule:nonzero;"/>
                </g>
                <g transform="matrix(9,0,0,9,73.2436,347.267)">
                    <path d="M0.39,-0.006C0.366,0.007 0.33,0.013 0.282,0.013C0.167,0.013 0.11,-0.047 0.11,-0.167L0.11,-0.422L0.021,-0.422L0.021,-0.54L0.11,-0.54L0.11,-0.659L0.267,-0.704L0.267,-0.54L0.39,-0.54L0.39,-0.422L0.267,-0.422L0.267,-0.195C0.267,-0.137 0.289,-0.108 0.335,-0.108C0.353,-0.108 0.371,-0.114 0.39,-0.124L0.39,-0.006Z" style="fill:rgb(10,1,1);fill-rule:nonzero;"/>
                </g>
                <g transform="matrix(6.6,0,0,6.6,77.1051,347.267)">
                    <path d="M0.106,0.032L0.043,-0.021L0.122,-0.115C0.067,-0.183 0.04,-0.268 0.04,-0.368C0.04,-0.487 0.075,-0.584 0.144,-0.658C0.213,-0.732 0.305,-0.769 0.418,-0.769C0.5,-0.769 0.571,-0.748 0.63,-0.706L0.698,-0.785L0.761,-0.733L0.689,-0.65C0.748,-0.581 0.778,-0.493 0.778,-0.384C0.778,-0.266 0.743,-0.17 0.674,-0.097C0.605,-0.023 0.516,0.013 0.406,0.013C0.32,0.013 0.246,-0.011 0.182,-0.059L0.106,0.032ZM0.54,-0.6C0.506,-0.628 0.463,-0.642 0.413,-0.642C0.349,-0.642 0.297,-0.617 0.258,-0.569C0.218,-0.52 0.199,-0.455 0.199,-0.375C0.199,-0.319 0.208,-0.273 0.227,-0.234L0.54,-0.6ZM0.275,-0.165C0.311,-0.131 0.356,-0.114 0.409,-0.114C0.473,-0.114 0.524,-0.137 0.563,-0.184C0.601,-0.231 0.62,-0.294 0.62,-0.374C0.62,-0.435 0.61,-0.488 0.588,-0.533L0.275,-0.165Z" style="fill-rule:nonzero;"/>
                </g>
                <g transform="matrix(9,0,0,9,82.6053,347.267)">
                    <path d="M0.551,-0.226L0.196,-0.226C0.201,-0.142 0.252,-0.1 0.347,-0.1C0.407,-0.1 0.459,-0.115 0.505,-0.144L0.505,-0.028C0.456,-0.001 0.391,0.013 0.312,0.013C0.226,0.013 0.159,-0.011 0.111,-0.06C0.063,-0.108 0.04,-0.176 0.04,-0.262C0.04,-0.348 0.065,-0.419 0.116,-0.472C0.167,-0.526 0.23,-0.553 0.307,-0.553C0.384,-0.553 0.443,-0.53 0.487,-0.484C0.53,-0.437 0.551,-0.374 0.551,-0.292L0.551,-0.226ZM0.404,-0.324C0.404,-0.405 0.372,-0.445 0.306,-0.445C0.279,-0.445 0.255,-0.434 0.234,-0.412C0.214,-0.39 0.201,-0.361 0.195,-0.324L0.404,-0.324Z" style="fill:rgb(10,1,1);fill-rule:nonzero;"/>
                </g>
                <g transform="matrix(9,0,0,9,87.9786,347.267)">
                    <path d="M0.416,-0.397C0.397,-0.408 0.374,-0.414 0.346,-0.414C0.31,-0.414 0.282,-0.4 0.261,-0.373C0.24,-0.345 0.229,-0.308 0.229,-0.26L0.229,0L0.072,0L0.072,-0.54L0.229,-0.54L0.229,-0.438L0.231,-0.438C0.257,-0.512 0.305,-0.549 0.374,-0.549C0.392,-0.549 0.406,-0.547 0.416,-0.543L0.416,-0.397Z" style="fill:rgb(10,1,1);fill-rule:nonzero;"/>
                </g>
            </g>
        </g>
        <g transform="matrix(0.552947,0,0,1.42457,968.322,-208.741)">
            <path d="M73.138,59.615C73.138,58.13 69.254,56.924 64.471,56.924L13.773,56.924C8.99,56.924 5.107,58.13 5.107,59.615L5.107,81.013C5.107,82.498 8.99,83.704 13.773,83.704L64.471,83.704C69.254,83.704 73.138,82.498 73.138,81.013L73.138,59.615Z" style="fill:white;fill-opacity:0.7;"/>
        </g>
        <g transform="matrix(1.198,0,0,0.958552,940.543,-169.356)">
            <g transform="matrix(6.4,0,0,6.4,38.1466,51.8924)">
                <rect x="0.076" y="-0.715" width="0.127" height="0.715" style="fill-rule:nonzero;"/>
            </g>
            <g transform="matrix(6.4,0,0,6.4,40.0559,51.8924)">
                <path d="M0.542,0.01L0.195,-0.443L0.195,0L0.073,0L0.073,-0.715L0.134,-0.715L0.472,-0.284L0.472,-0.715L0.594,-0.715L0.594,0.01L0.542,0.01Z" style="fill-rule:nonzero;"/>
            </g>
        </g>
        <g transform="matrix(0.552947,0,0,2.22633,968.702,-210.432)">
            <path d="M73.138,58.646C73.138,57.695 69.254,56.924 64.471,56.924L13.773,56.924C8.99,56.924 5.107,57.695 5.107,58.646L5.107,81.982C5.107,82.932 8.99,83.704 13.773,83.704L64.471,83.704C69.254,83.704 73.138,82.932 73.138,81.982L73.138,58.646Z" style="fill:white;fill-opacity:0.7;"/>
        </g>
        <g transform="matrix(1.198,0,0,0.958552,940.82,-125.248)">
            <g transform="matrix(6.4,0,0,6.4,29.5187,51.8924)">
                <path d="M0.039,-0.364C0.039,-0.466 0.067,-0.552 0.123,-0.622C0.179,-0.693 0.253,-0.728 0.347,-0.728C0.45,-0.728 0.528,-0.696 0.583,-0.632C0.637,-0.569 0.664,-0.479 0.664,-0.364C0.664,-0.249 0.636,-0.157 0.579,-0.089C0.522,-0.022 0.441,0.012 0.337,0.012C0.241,0.012 0.167,-0.021 0.116,-0.088C0.065,-0.155 0.039,-0.247 0.039,-0.364ZM0.171,-0.364C0.171,-0.28 0.185,-0.215 0.213,-0.169C0.242,-0.124 0.283,-0.101 0.337,-0.101C0.4,-0.101 0.449,-0.123 0.482,-0.168C0.516,-0.213 0.532,-0.278 0.532,-0.364C0.532,-0.531 0.47,-0.615 0.347,-0.615C0.29,-0.615 0.247,-0.593 0.216,-0.547C0.186,-0.502 0.171,-0.441 0.171,-0.364Z" style="fill-rule:nonzero;"/>
            </g>
            <g transform="matrix(6.4,0,0,6.4,34.1467,51.8924)">
                <path d="M0.2,-0.603L0.2,-0.435L0.452,-0.435L0.452,-0.327L0.2,-0.327L0.2,0L0.073,0L0.073,-0.715L0.544,-0.715L0.544,-0.603L0.2,-0.603Z" style="fill-rule:nonzero;"/>
            </g>
            <g transform="matrix(6.4,0,0,6.4,38.0091,51.8924)">
                <path d="M0.2,-0.603L0.2,-0.435L0.452,-0.435L0.452,-0.327L0.2,-0.327L0.2,0L0.073,0L0.073,-0.715L0.544,-0.715L0.544,-0.603L0.2,-0.603Z" style="fill-rule:nonzero;"/>
            </g>
            <g transform="matrix(6.4,0,0,6.4,41.8715,51.8924)">
                <path d="M0.039,-0.04L0.086,-0.153C0.136,-0.118 0.185,-0.101 0.234,-0.101C0.308,-0.101 0.346,-0.127 0.346,-0.179C0.346,-0.203 0.337,-0.226 0.319,-0.249C0.302,-0.271 0.266,-0.295 0.211,-0.323C0.156,-0.351 0.119,-0.373 0.1,-0.391C0.081,-0.409 0.066,-0.43 0.056,-0.454C0.046,-0.479 0.041,-0.506 0.041,-0.535C0.041,-0.59 0.061,-0.636 0.101,-0.673C0.142,-0.709 0.194,-0.728 0.257,-0.728C0.34,-0.728 0.401,-0.712 0.439,-0.681L0.401,-0.572C0.356,-0.604 0.309,-0.62 0.26,-0.62C0.23,-0.62 0.208,-0.612 0.192,-0.596C0.176,-0.581 0.167,-0.561 0.167,-0.536C0.167,-0.495 0.213,-0.452 0.304,-0.408C0.352,-0.385 0.386,-0.363 0.407,-0.344C0.428,-0.324 0.444,-0.301 0.456,-0.275C0.467,-0.248 0.472,-0.219 0.472,-0.187C0.472,-0.129 0.449,-0.081 0.404,-0.044C0.358,-0.007 0.297,0.012 0.22,0.012C0.153,0.012 0.093,-0.005 0.039,-0.04Z" style="fill-rule:nonzero;"/>
            </g>
            <g transform="matrix(6.4,0,0,6.4,45.2714,51.8924)">
                <path d="M0.2,-0.603L0.2,-0.435L0.437,-0.435L0.437,-0.327L0.2,-0.327L0.2,-0.113L0.524,-0.113L0.524,0L0.073,0L0.073,-0.715L0.53,-0.715L0.53,-0.603L0.2,-0.603Z" style="fill-rule:nonzero;"/>
            </g>
            <g transform="matrix(6.4,0,0,6.4,49.04,51.8924)">
                <path d="M0.364,-0.603L0.364,0L0.237,0L0.237,-0.603L0.01,-0.603L0.01,-0.715L0.602,-0.715L0.602,-0.603L0.364,-0.603Z" style="fill-rule:nonzero;"/>
            </g>
        </g>
        <g transform="matrix(0.552947,0,0,2.22633,968.702,-145.012)">
            <path d="M73.138,58.646C73.138,57.695 69.254,56.924 64.471,56.924L13.773,56.924C8.99,56.924 5.107,57.695 5.107,58.646L5.107,81.982C5.107,82.932 8.99,83.704 13.773,83.704L64.471,83.704C69.254,83.704 73.138,82.932 73.138,81.982L73.138,58.646Z" style="fill:white;fill-opacity:0.7;"/>
        </g>
        <g transform="matrix(1.198,0,0,0.958552,940.932,-60.1795)">
            <g transform="matrix(6.4,0,0,6.4,31.7718,51.8924)">
                <path d="M0.039,-0.04L0.086,-0.153C0.136,-0.118 0.185,-0.101 0.234,-0.101C0.308,-0.101 0.346,-0.127 0.346,-0.179C0.346,-0.203 0.337,-0.226 0.319,-0.249C0.302,-0.271 0.266,-0.295 0.211,-0.323C0.156,-0.351 0.119,-0.373 0.1,-0.391C0.081,-0.409 0.066,-0.43 0.056,-0.454C0.046,-0.479 0.041,-0.506 0.041,-0.535C0.041,-0.59 0.061,-0.636 0.101,-0.673C0.142,-0.709 0.194,-0.728 0.257,-0.728C0.34,-0.728 0.401,-0.712 0.439,-0.681L0.401,-0.572C0.356,-0.604 0.309,-0.62 0.26,-0.62C0.23,-0.62 0.208,-0.612 0.192,-0.596C0.176,-0.581 0.167,-0.561 0.167,-0.536C0.167,-0.495 0.213,-0.452 0.304,-0.408C0.352,-0.385 0.386,-0.363 0.407,-0.344C0.428,-0.324 0.444,-0.301 0.456,-0.275C0.467,-0.248 0.472,-0.219 0.472,-0.187C0.472,-0.129 0.449,-0.081 0.404,-0.044C0.358,-0.007 0.297,0.012 0.22,0.012C0.153,0.012 0.093,-0.005 0.039,-0.04Z" style="fill-rule:nonzero;"/>
            </g>
            <g transform="matrix(6.4,0,0,6.4,35.1717,51.8924)">
                <path d="M0.563,-0.677L0.511,-0.572C0.483,-0.601 0.437,-0.615 0.375,-0.615C0.315,-0.615 0.266,-0.59 0.228,-0.54C0.19,-0.49 0.171,-0.427 0.171,-0.35C0.171,-0.274 0.189,-0.213 0.224,-0.168C0.259,-0.123 0.306,-0.101 0.365,-0.101C0.433,-0.101 0.485,-0.125 0.523,-0.173L0.583,-0.07C0.531,-0.015 0.455,0.012 0.355,0.012C0.255,0.012 0.177,-0.021 0.122,-0.086C0.067,-0.152 0.039,-0.242 0.039,-0.355C0.039,-0.461 0.07,-0.55 0.131,-0.621C0.192,-0.692 0.271,-0.728 0.367,-0.728C0.449,-0.728 0.514,-0.711 0.563,-0.677Z" style="fill-rule:nonzero;"/>
            </g>
            <g transform="matrix(6.4,0,0,6.4,39.2153,51.8924)">
                <path d="M0.491,0L0.438,-0.145L0.193,-0.145L0.144,0L0.002,0L0.288,-0.725L0.343,-0.725L0.631,0L0.491,0ZM0.315,-0.506L0.229,-0.242L0.401,-0.242L0.315,-0.506Z" style="fill-rule:nonzero;"/>
            </g>
            <g transform="matrix(6.4,0,0,6.4,43.3964,51.8924)">
                <path d="M0.073,0L0.073,-0.715L0.2,-0.715L0.2,-0.113L0.523,-0.113L0.523,0L0.073,0Z" style="fill-rule:nonzero;"/>
            </g>
            <g transform="matrix(6.4,0,0,6.4,47.0619,51.8924)">
                <path d="M0.2,-0.603L0.2,-0.435L0.437,-0.435L0.437,-0.327L0.2,-0.327L0.2,-0.113L0.524,-0.113L0.524,0L0.073,0L0.073,-0.715L0.53,-0.715L0.53,-0.603L0.2,-0.603Z" style="fill-rule:nonzero;"/>
            </g>
        </g>
        <g transform="matrix(1,0,0,1,0,-13.3239)">
            <g transform="matrix(0.552947,0,0,1.42457,968.322,-273.112)">
                <path d="M73.138,59.615C73.138,58.13 69.254,56.924 64.471,56.924L13.773,56.924C8.99,56.924 5.107,58.13 5.107,59.615L5.107,81.013C5.107,82.498 8.99,83.704 13.773,83.704L64.471,83.704C69.254,83.704 73.138,82.498 73.138,81.013L73.138,59.615Z" style="fill:white;fill-opacity:0.7;"/>
            </g>
            <g transform="matrix(1.198,0,0,0.958552,940.665,-233.913)">
                <g transform="matrix(6.4,0,0,6.4,34.8201,51.8924)">
                    <path d="M0.74,0L0.617,0L0.543,-0.385L0.399,0.01L0.354,0.01L0.209,-0.385L0.132,0L0.01,0L0.154,-0.715L0.221,-0.715L0.376,-0.233L0.527,-0.715L0.594,-0.715L0.74,0Z" style="fill-rule:nonzero;"/>
                </g>
                <g transform="matrix(6.4,0,0,6.4,39.7169,51.8924)">
                    <path d="M0.491,0L0.438,-0.145L0.193,-0.145L0.144,0L0.002,0L0.288,-0.725L0.343,-0.725L0.631,0L0.491,0ZM0.315,-0.506L0.229,-0.242L0.401,-0.242L0.315,-0.506Z" style="fill-rule:nonzero;"/>
                </g>
                <g transform="matrix(6.4,0,0,6.4,43.898,51.8924)">
                    <path d="M0.2,-0.263L0.2,0L0.073,0L0.073,-0.715C0.158,-0.718 0.207,-0.72 0.222,-0.72C0.335,-0.72 0.417,-0.703 0.469,-0.668C0.522,-0.634 0.548,-0.579 0.548,-0.506C0.548,-0.342 0.451,-0.26 0.258,-0.26C0.243,-0.26 0.224,-0.261 0.2,-0.263ZM0.2,-0.605L0.2,-0.376C0.222,-0.374 0.239,-0.373 0.251,-0.373C0.309,-0.373 0.351,-0.382 0.378,-0.402C0.405,-0.421 0.418,-0.452 0.418,-0.496C0.418,-0.57 0.358,-0.607 0.239,-0.607C0.225,-0.607 0.213,-0.607 0.2,-0.605Z" style="fill-rule:nonzero;"/>
                </g>
            </g>
        </g>
        <g transform="matrix(0.552947,0,0,1.41025,968.322,-29.3037)">
            <path d="M73.138,59.642C73.138,58.142 69.254,56.924 64.471,56.924L13.773,56.924C8.99,56.924 5.107,58.142 5.107,59.642L5.107,80.985C5.107,82.486 8.99,83.704 13.773,83.704L64.471,83.704C69.254,83.704 73.138,82.486 73.138,80.985L73.138,59.642Z" style="fill-opacity:0.8;"/>
        </g>
        <g transform="matrix(1.198,0,0,0.958552,940.233,9.24967)">
            <g transform="matrix(6.4,0,0,6.4,34.9056,51.8924)">
                <path d="M0.039,-0.364C0.039,-0.466 0.067,-0.552 0.123,-0.622C0.179,-0.693 0.253,-0.728 0.347,-0.728C0.45,-0.728 0.528,-0.696 0.583,-0.632C0.637,-0.569 0.664,-0.479 0.664,-0.364C0.664,-0.249 0.636,-0.157 0.579,-0.089C0.522,-0.022 0.441,0.012 0.337,0.012C0.241,0.012 0.167,-0.021 0.116,-0.088C0.065,-0.155 0.039,-0.247 0.039,-0.364ZM0.171,-0.364C0.171,-0.28 0.185,-0.215 0.213,-0.169C0.242,-0.124 0.283,-0.101 0.337,-0.101C0.4,-0.101 0.449,-0.123 0.482,-0.168C0.516,-0.213 0.532,-0.278 0.532,-0.364C0.532,-0.531 0.47,-0.615 0.347,-0.615C0.29,-0.615 0.247,-0.593 0.216,-0.547C0.186,-0.502 0.171,-0.441 0.171,-0.364Z" style="fill:white;fill-rule:nonzero;"/>
            </g>
            <g transform="matrix(6.4,0,0,6.4,39.5336,51.8924)">
                <path d="M0.073,-0.715L0.2,-0.715L0.2,-0.23C0.2,-0.192 0.212,-0.161 0.235,-0.137C0.259,-0.113 0.291,-0.101 0.332,-0.101C0.378,-0.101 0.414,-0.112 0.439,-0.136C0.465,-0.16 0.478,-0.192 0.478,-0.233L0.478,-0.715L0.604,-0.715L0.604,-0.223C0.604,-0.15 0.58,-0.092 0.531,-0.05C0.481,-0.009 0.415,0.012 0.333,0.012C0.25,0.012 0.186,-0.008 0.141,-0.049C0.096,-0.09 0.073,-0.148 0.073,-0.224L0.073,-0.715Z" style="fill:white;fill-rule:nonzero;"/>
            </g>
            <g transform="matrix(6.4,0,0,6.4,43.9991,51.8924)">
                <path d="M0.364,-0.603L0.364,0L0.237,0L0.237,-0.603L0.01,-0.603L0.01,-0.715L0.602,-0.715L0.602,-0.603L0.364,-0.603Z" style="fill:white;fill-rule:nonzero;"/>
            </g>
        </g>
        <g transform="matrix(1,0,0,1,0,21.1273)">
            <g transform="matrix(0.891315,0,0,0.91012,964.708,-234.848)">
                <path d="M11.279,78.994C11.279,78.404 10.668,77.926 9.916,77.926L8.586,77.926C7.834,77.926 7.223,78.404 7.223,78.994L7.223,87.133C7.223,87.722 7.834,88.201 8.586,88.201L9.916,88.201C10.668,88.201 11.279,87.722 11.279,87.133L11.279,78.994Z" style="fill-opacity:0.88;"/>
            </g>
            <g transform="matrix(0.891315,0,0,0.91012,971.509,-234.848)">
                <path d="M11.279,78.994C11.279,78.404 10.668,77.926 9.916,77.926L8.586,77.926C7.834,77.926 7.223,78.404 7.223,78.994L7.223,87.133C7.223,87.722 7.834,88.201 8.586,88.201L9.916,88.201C10.668,88.201 11.279,87.722 11.279,87.133L11.279,78.994Z" style="fill-opacity:0.88;"/>
            </g>
            <g transform="matrix(0.891315,0,0,0.91012,978.309,-234.848)">
                <path d="M11.279,78.994C11.279,78.404 10.668,77.926 9.916,77.926L8.586,77.926C7.834,77.926 7.223,78.404 7.223,78.994L7.223,87.133C7.223,87.722 7.834,88.201 8.586,88.201L9.916,88.201C10.668,88.201 11.279,87.722 11.279,87.133L11.279,78.994Z" style="fill-opacity:0.88;"/>
            </g>
            <g transform="matrix(0.891315,0,0,0.91012,985.109,-234.848)">
                <path d="M11.279,78.994C11.279,78.404 10.668,77.926 9.916,77.926L8.586,77.926C7.834,77.926 7.223,78.404 7.223,78.994L7.223,87.133C7.223,87.722 7.834,88.201 8.586,88.201L9.916,88.201C10.668,88.201 11.279,87.722 11.279,87.133L11.279,78.994Z" style="fill-opacity:0.88;"/>
            </g>
            <g transform="matrix(0.891315,0,0,0.91012,991.91,-234.848)">
                <path d="M11.279,78.994C11.279,78.404 10.668,77.926 9.916,77.926L8.586,77.926C7.834,77.926 7.223,78.404 7.223,78.994L7.223,87.133C7.223,87.722 7.834,88.201 8.586,88.201L9.916,88.201C10.668,88.201 11.279,87.722 11.279,87.133L11.279,78.994Z" style="fill-opacity:0.88;"/>
            </g>
            <g transform="matrix(0.891315,0,0,0.91012,998.71,-234.848)">
                <path d="M11.279,78.994C11.279,78.404 10.668,77.926 9.916,77.926L8.586,77.926C7.834,77.926 7.223,78.404 7.223,78.994L7.223,87.133C7.223,87.722 7.834,88.201 8.586,88.201L9.916,88.201C10.668,88.201 11.279,87.722 11.279,87.133L11.279,78.994Z" style="fill-opacity:0.88;"/>
            </g>
        </g>
    </g>
</svg>
