<?xml version="1.0" encoding="UTF-8" standalone="no"?>
<!DOCTYPE svg PUBLIC "-//W3C//DTD SVG 1.1//EN" "http://www.w3.org/Graphics/SVG/1.1/DTD/svg11.dtd">
<svg width="100%" height="100%" viewBox="0 0 45 380" version="1.1" xmlns="http://www.w3.org/2000/svg" xmlns:xlink="http://www.w3.org/1999/xlink" xml:space="preserve" xmlns:serif="http://www.serif.com/" style="fill-rule:evenodd;clip-rule:evenodd;stroke-linecap:round;stroke-linejoin:round;stroke-miterlimit:1.5;">
    <g id="panel" transform="matrix(0.834722,0,0,1.04324,-803.837,250.623)">
        <g transform="matrix(1.198,0,0,0.958552,963,-240.242)">
            <rect x="0" y="0" width="60" height="380" style="fill:rgb(128,187,254);"/>
        </g>
        <g transform="matrix(0.318803,0,0,2.03501,972.575,-617.315)">
            <rect x="-30.034" y="347.456" width="169.102" height="16.91" style="fill:rgb(4,4,4);fill-opacity:0.3;"/>
        </g>
        <g transform="matrix(0.318803,0,0,2.38646,972.575,-1069.43)">
            <rect x="-30.034" y="347.456" width="169.102" height="16.91" style="fill:rgb(4,4,4);fill-opacity:0.3;"/>
        </g>
        <g transform="matrix(2.40704,0,0,25.5659,873.006,-292.473)">
            <rect x="37.388" y="2.043" width="22.397" height="14.247" style="fill:none;stroke:black;stroke-opacity:0.6;stroke-width:0.03px;"/>
        </g>
        <g transform="matrix(1.198,0,0,0.958552,967.807,-205.504)">
            <g transform="matrix(13,0,0,13,-1.92017,0)">
                <path d="M0.443,0C0.435,-0.025 0.43,-0.052 0.43,-0.082L0.428,-0.082C0.407,-0.019 0.368,0.012 0.311,0.012C0.273,0.012 0.247,0 0.231,-0.025L0.229,-0.025L0.229,0.208L0.072,0.208L0.072,-0.54L0.229,-0.54L0.229,-0.227C0.229,-0.152 0.261,-0.114 0.324,-0.114C0.392,-0.114 0.426,-0.16 0.426,-0.252L0.426,-0.54L0.585,-0.54L0.585,-0.163C0.585,-0.082 0.592,-0.028 0.605,0L0.443,0Z" style="fill-rule:nonzero;"/>
            </g>
            <g transform="matrix(13,0,0,13,6.63013,0)">
                <path d="M0.78,0L0.78,-0.459C0.78,-0.501 0.782,-0.555 0.786,-0.619L0.782,-0.619C0.772,-0.57 0.765,-0.538 0.759,-0.521L0.572,0L0.444,0L0.255,-0.517C0.25,-0.529 0.242,-0.563 0.231,-0.619L0.227,-0.619C0.231,-0.555 0.233,-0.492 0.233,-0.428L0.233,0L0.087,0L0.087,-0.756L0.322,-0.756L0.485,-0.299C0.499,-0.262 0.508,-0.226 0.513,-0.193L0.516,-0.193C0.526,-0.234 0.537,-0.27 0.547,-0.3L0.711,-0.756L0.939,-0.756L0.939,0L0.78,0Z" style="fill-rule:nonzero;"/>
            </g>
            <g transform="matrix(13,0,0,13,19.9983,0)">
                <path d="M0.744,0L0.568,0L0.511,-0.173L0.236,-0.173L0.181,0L0.006,0L0.283,-0.756L0.472,-0.756L0.744,0ZM0.473,-0.298L0.387,-0.56C0.382,-0.577 0.378,-0.599 0.375,-0.626L0.371,-0.626C0.369,-0.604 0.365,-0.583 0.358,-0.562L0.271,-0.298L0.473,-0.298Z" style="fill-rule:nonzero;"/>
            </g>
            <g transform="matrix(13,0,0,13,29.7737,0)">
                <path d="M0.249,-0.264L0.249,0L0.087,0L0.087,-0.756L0.348,-0.756C0.536,-0.756 0.63,-0.677 0.63,-0.517C0.63,-0.44 0.601,-0.378 0.545,-0.331C0.488,-0.284 0.417,-0.262 0.332,-0.264L0.249,-0.264ZM0.249,-0.631L0.249,-0.387L0.318,-0.387C0.413,-0.387 0.46,-0.428 0.46,-0.511C0.46,-0.591 0.414,-0.631 0.32,-0.631L0.249,-0.631Z" style="fill-rule:nonzero;"/>
            </g>
        </g>
        <g transform="matrix(0.552947,0,0,1.42457,968.322,-208.741)">
            <path d="M73.138,59.615C73.138,58.13 69.254,56.924 64.471,56.924L13.773,56.924C8.99,56.924 5.107,58.13 5.107,59.615L5.107,81.013C5.107,82.498 8.99,83.704 13.773,83.704L64.471,83.704C69.254,83.704 73.138,82.498 73.138,81.013L73.138,59.615Z" style="fill:white;fill-opacity:0.7;"/>
        </g>
        <g transform="matrix(1.198,0,0,0.958552,940.395,-169.356)">
            <g transform="matrix(6.4,0,0,6.4,37.7404,51.8924)">
                <path d="M0.084,-0.076L0.084,-0.64C0.084,-0.669 0.091,-0.691 0.104,-0.706C0.117,-0.721 0.135,-0.728 0.156,-0.728C0.178,-0.728 0.195,-0.721 0.209,-0.706C0.222,-0.692 0.229,-0.67 0.229,-0.64L0.229,-0.076C0.229,-0.047 0.222,-0.024 0.209,-0.01C0.195,0.005 0.178,0.012 0.156,0.012C0.135,0.012 0.118,0.005 0.104,-0.01C0.091,-0.025 0.084,-0.047 0.084,-0.076Z" style="fill-rule:nonzero;"/>
            </g>
            <g transform="matrix(6.4,0,0,6.4,39.8715,51.8924)">
                <path d="M0.267,-0.641L0.546,-0.219L0.546,-0.645C0.546,-0.673 0.552,-0.693 0.564,-0.707C0.576,-0.721 0.592,-0.728 0.612,-0.728C0.633,-0.728 0.649,-0.721 0.661,-0.707C0.673,-0.693 0.679,-0.673 0.679,-0.645L0.679,-0.082C0.679,-0.019 0.653,0.012 0.601,0.012C0.588,0.012 0.576,0.01 0.566,0.007C0.556,0.003 0.546,-0.003 0.537,-0.011C0.528,-0.019 0.519,-0.029 0.511,-0.04C0.503,-0.051 0.496,-0.062 0.488,-0.073L0.216,-0.49L0.216,-0.071C0.216,-0.043 0.209,-0.023 0.197,-0.009C0.184,0.005 0.168,0.012 0.148,0.012C0.127,0.012 0.111,0.005 0.099,-0.009C0.086,-0.023 0.08,-0.044 0.08,-0.071L0.08,-0.623C0.08,-0.646 0.083,-0.665 0.088,-0.678C0.094,-0.693 0.104,-0.705 0.119,-0.714C0.133,-0.723 0.148,-0.728 0.165,-0.728C0.178,-0.728 0.189,-0.726 0.198,-0.722C0.208,-0.717 0.216,-0.712 0.223,-0.705C0.23,-0.697 0.237,-0.688 0.244,-0.677C0.252,-0.665 0.259,-0.653 0.267,-0.641Z" style="fill-rule:nonzero;"/>
            </g>
        </g>
        <g transform="matrix(0.552947,0,0,2.22633,968.702,-210.432)">
            <path d="M73.138,58.646C73.138,57.695 69.254,56.924 64.471,56.924L13.773,56.924C8.99,56.924 5.107,57.695 5.107,58.646L5.107,81.982C5.107,82.932 8.99,83.704 13.773,83.704L64.471,83.704C69.254,83.704 73.138,82.932 73.138,81.982L73.138,58.646Z" style="fill:white;fill-opacity:0.7;"/>
        </g>
        <g transform="matrix(1.198,0,0,0.958552,940.775,-125.591)">
            <g transform="matrix(6.3,0,0,6.3,28.4514,51.8924)">
                <path d="M0.393,-0.728C0.467,-0.728 0.531,-0.713 0.584,-0.683C0.637,-0.653 0.678,-0.61 0.705,-0.554C0.732,-0.499 0.746,-0.434 0.746,-0.359C0.746,-0.304 0.739,-0.253 0.724,-0.208C0.709,-0.163 0.686,-0.124 0.656,-0.09C0.626,-0.057 0.59,-0.032 0.546,-0.014C0.502,0.003 0.452,0.012 0.396,0.012C0.34,0.012 0.29,0.003 0.246,-0.015C0.201,-0.033 0.164,-0.058 0.135,-0.091C0.105,-0.124 0.083,-0.164 0.068,-0.21C0.052,-0.256 0.045,-0.306 0.045,-0.36C0.045,-0.415 0.053,-0.465 0.069,-0.511C0.084,-0.557 0.107,-0.596 0.137,-0.628C0.167,-0.661 0.204,-0.685 0.247,-0.702C0.29,-0.719 0.338,-0.728 0.393,-0.728ZM0.599,-0.36C0.599,-0.412 0.591,-0.458 0.574,-0.496C0.557,-0.535 0.533,-0.564 0.501,-0.583C0.47,-0.603 0.434,-0.613 0.393,-0.613C0.364,-0.613 0.337,-0.607 0.313,-0.596C0.288,-0.586 0.267,-0.57 0.249,-0.549C0.232,-0.528 0.218,-0.501 0.207,-0.469C0.197,-0.437 0.192,-0.4 0.192,-0.36C0.192,-0.319 0.197,-0.282 0.207,-0.25C0.218,-0.217 0.232,-0.189 0.251,-0.168C0.269,-0.146 0.291,-0.13 0.315,-0.119C0.339,-0.108 0.366,-0.103 0.395,-0.103C0.432,-0.103 0.466,-0.112 0.497,-0.131C0.528,-0.149 0.553,-0.178 0.572,-0.217C0.59,-0.256 0.599,-0.303 0.599,-0.36Z" style="fill-rule:nonzero;"/>
            </g>
            <g transform="matrix(6.3,0,0,6.3,33.5669,51.8924)">
                <path d="M0.506,-0.604L0.22,-0.604L0.22,-0.421L0.459,-0.421C0.481,-0.421 0.498,-0.416 0.509,-0.406C0.519,-0.396 0.525,-0.383 0.525,-0.366C0.525,-0.35 0.519,-0.336 0.508,-0.327C0.497,-0.317 0.481,-0.312 0.459,-0.312L0.22,-0.312L0.22,-0.076C0.22,-0.046 0.213,-0.024 0.2,-0.01C0.186,0.005 0.169,0.012 0.148,0.012C0.126,0.012 0.109,0.005 0.095,-0.01C0.082,-0.024 0.075,-0.047 0.075,-0.076L0.075,-0.627C0.075,-0.648 0.078,-0.665 0.084,-0.678C0.091,-0.691 0.1,-0.701 0.114,-0.707C0.127,-0.713 0.144,-0.716 0.164,-0.716L0.506,-0.716C0.529,-0.716 0.546,-0.711 0.557,-0.7C0.569,-0.69 0.574,-0.677 0.574,-0.66C0.574,-0.643 0.569,-0.63 0.557,-0.619C0.546,-0.609 0.529,-0.604 0.506,-0.604Z" style="fill-rule:nonzero;"/>
            </g>
            <g transform="matrix(6.3,0,0,6.3,37.4982,51.8924)">
                <path d="M0.506,-0.604L0.22,-0.604L0.22,-0.421L0.459,-0.421C0.481,-0.421 0.498,-0.416 0.509,-0.406C0.519,-0.396 0.525,-0.383 0.525,-0.366C0.525,-0.35 0.519,-0.336 0.508,-0.327C0.497,-0.317 0.481,-0.312 0.459,-0.312L0.22,-0.312L0.22,-0.076C0.22,-0.046 0.213,-0.024 0.2,-0.01C0.186,0.005 0.169,0.012 0.148,0.012C0.126,0.012 0.109,0.005 0.095,-0.01C0.082,-0.024 0.075,-0.047 0.075,-0.076L0.075,-0.627C0.075,-0.648 0.078,-0.665 0.084,-0.678C0.091,-0.691 0.1,-0.701 0.114,-0.707C0.127,-0.713 0.144,-0.716 0.164,-0.716L0.506,-0.716C0.529,-0.716 0.546,-0.711 0.557,-0.7C0.569,-0.69 0.574,-0.677 0.574,-0.66C0.574,-0.643 0.569,-0.63 0.557,-0.619C0.546,-0.609 0.529,-0.604 0.506,-0.604Z" style="fill-rule:nonzero;"/>
            </g>
            <g transform="matrix(6.3,0,0,6.3,41.4294,51.8924)">
                <path d="M0.622,-0.215C0.622,-0.172 0.611,-0.133 0.589,-0.098C0.566,-0.064 0.534,-0.037 0.491,-0.017C0.448,0.002 0.397,0.012 0.338,0.012C0.267,0.012 0.209,-0.001 0.163,-0.028C0.131,-0.047 0.104,-0.073 0.084,-0.105C0.063,-0.137 0.053,-0.168 0.053,-0.198C0.053,-0.216 0.059,-0.231 0.072,-0.243C0.084,-0.256 0.099,-0.262 0.118,-0.262C0.133,-0.262 0.146,-0.257 0.157,-0.248C0.168,-0.238 0.177,-0.223 0.184,-0.204C0.193,-0.181 0.203,-0.162 0.214,-0.147C0.224,-0.132 0.239,-0.119 0.258,-0.109C0.278,-0.099 0.303,-0.094 0.334,-0.094C0.377,-0.094 0.412,-0.104 0.439,-0.124C0.466,-0.144 0.479,-0.169 0.479,-0.199C0.479,-0.223 0.472,-0.242 0.457,-0.257C0.443,-0.272 0.424,-0.283 0.401,-0.291C0.378,-0.299 0.347,-0.307 0.309,-0.316C0.258,-0.328 0.215,-0.342 0.18,-0.358C0.145,-0.374 0.118,-0.396 0.097,-0.424C0.077,-0.452 0.067,-0.486 0.067,-0.528C0.067,-0.567 0.078,-0.602 0.099,-0.633C0.121,-0.663 0.152,-0.687 0.192,-0.703C0.233,-0.72 0.281,-0.728 0.336,-0.728C0.38,-0.728 0.418,-0.723 0.45,-0.712C0.482,-0.701 0.509,-0.686 0.53,-0.668C0.551,-0.65 0.566,-0.631 0.576,-0.611C0.586,-0.591 0.591,-0.572 0.591,-0.553C0.591,-0.536 0.585,-0.52 0.573,-0.507C0.56,-0.493 0.545,-0.486 0.527,-0.486C0.51,-0.486 0.498,-0.49 0.489,-0.498C0.48,-0.507 0.471,-0.52 0.461,-0.539C0.448,-0.566 0.432,-0.587 0.414,-0.602C0.396,-0.617 0.367,-0.625 0.326,-0.625C0.289,-0.625 0.259,-0.617 0.236,-0.6C0.213,-0.584 0.201,-0.564 0.201,-0.541C0.201,-0.527 0.205,-0.514 0.213,-0.504C0.221,-0.493 0.231,-0.485 0.245,-0.477C0.259,-0.47 0.273,-0.464 0.287,-0.459C0.301,-0.455 0.324,-0.449 0.356,-0.441C0.396,-0.431 0.433,-0.421 0.466,-0.41C0.498,-0.398 0.526,-0.384 0.549,-0.368C0.572,-0.352 0.59,-0.331 0.603,-0.306C0.616,-0.281 0.622,-0.251 0.622,-0.215Z" style="fill-rule:nonzero;"/>
            </g>
            <g transform="matrix(6.3,0,0,6.3,45.7574,51.8924)">
                <path d="M0.55,-0.604L0.223,-0.604L0.223,-0.428L0.524,-0.428C0.546,-0.428 0.563,-0.423 0.573,-0.413C0.584,-0.403 0.59,-0.39 0.59,-0.374C0.59,-0.358 0.584,-0.344 0.574,-0.334C0.563,-0.324 0.546,-0.319 0.524,-0.319L0.223,-0.319L0.223,-0.115L0.561,-0.115C0.584,-0.115 0.601,-0.11 0.613,-0.099C0.624,-0.089 0.63,-0.075 0.63,-0.057C0.63,-0.04 0.624,-0.026 0.613,-0.016C0.601,-0.005 0.584,0 0.561,0L0.167,0C0.135,0 0.113,-0.007 0.099,-0.021C0.085,-0.035 0.078,-0.058 0.078,-0.089L0.078,-0.627C0.078,-0.648 0.081,-0.665 0.087,-0.678C0.094,-0.691 0.103,-0.701 0.116,-0.707C0.13,-0.713 0.146,-0.716 0.167,-0.716L0.55,-0.716C0.573,-0.716 0.59,-0.711 0.601,-0.7C0.613,-0.69 0.618,-0.677 0.618,-0.66C0.618,-0.643 0.613,-0.63 0.601,-0.619C0.59,-0.609 0.573,-0.604 0.55,-0.604Z" style="fill-rule:nonzero;"/>
            </g>
            <g transform="matrix(6.3,0,0,6.3,50.0855,51.8924)">
                <path d="M0.543,-0.596L0.385,-0.596L0.385,-0.076C0.385,-0.046 0.378,-0.024 0.365,-0.01C0.351,0.005 0.334,0.012 0.313,0.012C0.292,0.012 0.274,0.005 0.26,-0.01C0.247,-0.024 0.24,-0.047 0.24,-0.076L0.24,-0.596L0.082,-0.596C0.057,-0.596 0.039,-0.602 0.027,-0.613C0.015,-0.623 0.009,-0.638 0.009,-0.656C0.009,-0.674 0.015,-0.689 0.028,-0.7C0.04,-0.71 0.058,-0.716 0.082,-0.716L0.543,-0.716C0.568,-0.716 0.587,-0.71 0.599,-0.699C0.611,-0.688 0.617,-0.674 0.617,-0.656C0.617,-0.638 0.611,-0.623 0.599,-0.613C0.586,-0.602 0.568,-0.596 0.543,-0.596Z" style="fill-rule:nonzero;"/>
            </g>
        </g>
        <g transform="matrix(0.552947,0,0,2.22633,968.702,-145.012)">
            <path d="M73.138,58.646C73.138,57.695 69.254,56.924 64.471,56.924L13.773,56.924C8.99,56.924 5.107,57.695 5.107,58.646L5.107,81.982C5.107,82.932 8.99,83.704 13.773,83.704L64.471,83.704C69.254,83.704 73.138,82.932 73.138,81.982L73.138,58.646Z" style="fill:white;fill-opacity:0.7;"/>
        </g>
        <g transform="matrix(1.198,0,0,0.958552,940.775,-60.1795)">
            <g transform="matrix(6.4,0,0,6.4,30.1093,51.8924)">
                <path d="M0.622,-0.215C0.622,-0.172 0.611,-0.133 0.589,-0.098C0.566,-0.064 0.534,-0.037 0.491,-0.017C0.448,0.002 0.397,0.012 0.338,0.012C0.267,0.012 0.209,-0.001 0.163,-0.028C0.131,-0.047 0.104,-0.073 0.084,-0.105C0.063,-0.137 0.053,-0.168 0.053,-0.198C0.053,-0.216 0.059,-0.231 0.072,-0.243C0.084,-0.256 0.099,-0.262 0.118,-0.262C0.133,-0.262 0.146,-0.257 0.157,-0.248C0.168,-0.238 0.177,-0.223 0.184,-0.204C0.193,-0.181 0.203,-0.162 0.214,-0.147C0.224,-0.132 0.239,-0.119 0.258,-0.109C0.278,-0.099 0.303,-0.094 0.334,-0.094C0.377,-0.094 0.412,-0.104 0.439,-0.124C0.466,-0.144 0.479,-0.169 0.479,-0.199C0.479,-0.223 0.472,-0.242 0.457,-0.257C0.443,-0.272 0.424,-0.283 0.401,-0.291C0.378,-0.299 0.347,-0.307 0.309,-0.316C0.258,-0.328 0.215,-0.342 0.18,-0.358C0.145,-0.374 0.118,-0.396 0.097,-0.424C0.077,-0.452 0.067,-0.486 0.067,-0.528C0.067,-0.567 0.078,-0.602 0.099,-0.633C0.121,-0.663 0.152,-0.687 0.192,-0.703C0.233,-0.72 0.281,-0.728 0.336,-0.728C0.38,-0.728 0.418,-0.723 0.45,-0.712C0.482,-0.701 0.509,-0.686 0.53,-0.668C0.551,-0.65 0.566,-0.631 0.576,-0.611C0.586,-0.591 0.591,-0.572 0.591,-0.553C0.591,-0.536 0.585,-0.52 0.573,-0.507C0.56,-0.493 0.545,-0.486 0.527,-0.486C0.51,-0.486 0.498,-0.49 0.489,-0.498C0.48,-0.507 0.471,-0.52 0.461,-0.539C0.448,-0.566 0.432,-0.587 0.414,-0.602C0.396,-0.617 0.367,-0.625 0.326,-0.625C0.289,-0.625 0.259,-0.617 0.236,-0.6C0.213,-0.584 0.201,-0.564 0.201,-0.541C0.201,-0.527 0.205,-0.514 0.213,-0.504C0.221,-0.493 0.231,-0.485 0.245,-0.477C0.259,-0.47 0.273,-0.464 0.287,-0.459C0.301,-0.455 0.324,-0.449 0.356,-0.441C0.396,-0.431 0.433,-0.421 0.466,-0.41C0.498,-0.398 0.526,-0.384 0.549,-0.368C0.572,-0.352 0.59,-0.331 0.603,-0.306C0.616,-0.281 0.622,-0.251 0.622,-0.215Z" style="fill-rule:nonzero;"/>
            </g>
            <g transform="matrix(6.4,0,0,6.4,34.5061,51.8924)">
                <path d="M0.688,-0.226C0.688,-0.203 0.682,-0.179 0.671,-0.152C0.66,-0.126 0.642,-0.1 0.618,-0.074C0.594,-0.048 0.563,-0.028 0.526,-0.012C0.488,0.004 0.445,0.012 0.395,0.012C0.357,0.012 0.323,0.009 0.292,0.001C0.261,-0.006 0.233,-0.017 0.208,-0.032C0.183,-0.047 0.159,-0.067 0.138,-0.092C0.119,-0.114 0.103,-0.139 0.09,-0.167C0.076,-0.195 0.066,-0.225 0.06,-0.256C0.053,-0.288 0.05,-0.321 0.05,-0.357C0.05,-0.415 0.058,-0.466 0.075,-0.512C0.092,-0.557 0.116,-0.596 0.147,-0.629C0.178,-0.661 0.215,-0.686 0.257,-0.703C0.299,-0.72 0.344,-0.728 0.391,-0.728C0.449,-0.728 0.501,-0.716 0.546,-0.693C0.591,-0.67 0.626,-0.642 0.65,-0.608C0.674,-0.574 0.686,-0.542 0.686,-0.511C0.686,-0.495 0.68,-0.48 0.668,-0.467C0.657,-0.455 0.643,-0.448 0.626,-0.448C0.607,-0.448 0.594,-0.453 0.584,-0.461C0.575,-0.47 0.565,-0.485 0.553,-0.507C0.534,-0.542 0.512,-0.569 0.487,-0.586C0.461,-0.604 0.43,-0.613 0.392,-0.613C0.333,-0.613 0.285,-0.59 0.25,-0.545C0.214,-0.5 0.197,-0.435 0.197,-0.352C0.197,-0.296 0.205,-0.25 0.22,-0.213C0.236,-0.176 0.258,-0.149 0.287,-0.13C0.315,-0.112 0.349,-0.103 0.387,-0.103C0.429,-0.103 0.464,-0.113 0.493,-0.134C0.522,-0.155 0.543,-0.185 0.558,-0.225C0.564,-0.244 0.572,-0.259 0.581,-0.271C0.59,-0.283 0.605,-0.289 0.625,-0.289C0.642,-0.289 0.657,-0.283 0.669,-0.271C0.682,-0.259 0.688,-0.244 0.688,-0.226Z" style="fill-rule:nonzero;"/>
            </g>
            <g transform="matrix(6.4,0,0,6.4,39.3716,51.8924)">
                <path d="M0.536,-0.081L0.502,-0.171L0.211,-0.171L0.177,-0.079C0.163,-0.043 0.152,-0.019 0.143,-0.007C0.133,0.006 0.118,0.012 0.096,0.012C0.078,0.012 0.062,0.006 0.048,-0.008C0.034,-0.021 0.027,-0.036 0.027,-0.053C0.027,-0.063 0.028,-0.073 0.032,-0.083C0.035,-0.094 0.04,-0.108 0.048,-0.127L0.231,-0.592C0.236,-0.605 0.242,-0.621 0.25,-0.64C0.257,-0.659 0.265,-0.674 0.273,-0.687C0.281,-0.699 0.292,-0.709 0.306,-0.717C0.319,-0.724 0.336,-0.728 0.356,-0.728C0.376,-0.728 0.393,-0.724 0.406,-0.717C0.42,-0.709 0.431,-0.699 0.439,-0.687C0.448,-0.675 0.455,-0.662 0.46,-0.648C0.466,-0.634 0.473,-0.616 0.482,-0.593L0.669,-0.131C0.684,-0.096 0.691,-0.07 0.691,-0.054C0.691,-0.038 0.684,-0.022 0.67,-0.009C0.656,0.005 0.64,0.012 0.62,0.012C0.609,0.012 0.599,0.01 0.591,0.006C0.583,0.002 0.576,-0.003 0.57,-0.01C0.565,-0.017 0.559,-0.028 0.552,-0.043C0.546,-0.057 0.541,-0.07 0.536,-0.081ZM0.249,-0.28L0.463,-0.28L0.355,-0.575L0.249,-0.28Z" style="fill-rule:nonzero;"/>
            </g>
            <g transform="matrix(6.4,0,0,6.4,44.1027,51.8924)">
                <path d="M0.22,-0.64L0.22,-0.119L0.514,-0.119C0.538,-0.119 0.556,-0.113 0.568,-0.102C0.581,-0.091 0.587,-0.076 0.587,-0.059C0.587,-0.042 0.581,-0.027 0.568,-0.016C0.556,-0.005 0.538,0 0.514,0L0.164,0C0.132,0 0.11,-0.007 0.096,-0.021C0.082,-0.035 0.075,-0.058 0.075,-0.089L0.075,-0.64C0.075,-0.669 0.082,-0.691 0.095,-0.706C0.108,-0.721 0.125,-0.728 0.147,-0.728C0.169,-0.728 0.186,-0.721 0.2,-0.706C0.213,-0.692 0.22,-0.67 0.22,-0.64Z" style="fill-rule:nonzero;"/>
            </g>
            <g transform="matrix(6.4,0,0,6.4,48.0963,51.8924)">
                <path d="M0.55,-0.604L0.223,-0.604L0.223,-0.428L0.524,-0.428C0.546,-0.428 0.563,-0.423 0.573,-0.413C0.584,-0.403 0.59,-0.39 0.59,-0.374C0.59,-0.358 0.584,-0.344 0.574,-0.334C0.563,-0.324 0.546,-0.319 0.524,-0.319L0.223,-0.319L0.223,-0.115L0.561,-0.115C0.584,-0.115 0.601,-0.11 0.613,-0.099C0.624,-0.089 0.63,-0.075 0.63,-0.057C0.63,-0.04 0.624,-0.026 0.613,-0.016C0.601,-0.005 0.584,0 0.561,0L0.167,0C0.135,0 0.113,-0.007 0.099,-0.021C0.085,-0.035 0.078,-0.058 0.078,-0.089L0.078,-0.627C0.078,-0.648 0.081,-0.665 0.087,-0.678C0.094,-0.691 0.103,-0.701 0.116,-0.707C0.13,-0.713 0.146,-0.716 0.167,-0.716L0.55,-0.716C0.573,-0.716 0.59,-0.711 0.601,-0.7C0.613,-0.69 0.618,-0.677 0.618,-0.66C0.618,-0.643 0.613,-0.63 0.601,-0.619C0.59,-0.609 0.573,-0.604 0.55,-0.604Z" style="fill-rule:nonzero;"/>
            </g>
        </g>
        <g transform="matrix(0.552947,0,0,1.42457,968.322,-273.112)">
            <path d="M73.138,59.615C73.138,58.13 69.254,56.924 64.471,56.924L13.773,56.924C8.99,56.924 5.107,58.13 5.107,59.615L5.107,81.013C5.107,82.498 8.99,83.704 13.773,83.704L64.471,83.704C69.254,83.704 73.138,82.498 73.138,81.013L73.138,59.615Z" style="fill:white;fill-opacity:0.7;"/>
        </g>
        <g transform="matrix(1.198,0,0,0.958552,940.395,-233.913)">
            <g transform="matrix(6.3,0,0,6.3,34.1206,51.8924)">
                <path d="M0.32,-0.108L0.205,-0.564L0.205,-0.07C0.205,-0.042 0.199,-0.022 0.187,-0.008C0.175,0.005 0.158,0.012 0.138,0.012C0.119,0.012 0.103,0.005 0.09,-0.008C0.078,-0.022 0.072,-0.042 0.072,-0.07L0.072,-0.636C0.072,-0.667 0.08,-0.689 0.096,-0.699C0.112,-0.71 0.134,-0.716 0.162,-0.716L0.207,-0.716C0.234,-0.716 0.254,-0.713 0.266,-0.708C0.278,-0.704 0.287,-0.695 0.293,-0.682C0.299,-0.669 0.306,-0.649 0.313,-0.62L0.417,-0.228L0.521,-0.62C0.528,-0.649 0.535,-0.669 0.541,-0.682C0.547,-0.695 0.556,-0.704 0.568,-0.708C0.58,-0.713 0.6,-0.716 0.627,-0.716L0.672,-0.716C0.7,-0.716 0.722,-0.71 0.738,-0.699C0.754,-0.689 0.762,-0.667 0.762,-0.636L0.762,-0.07C0.762,-0.042 0.756,-0.022 0.744,-0.008C0.732,0.005 0.715,0.012 0.695,0.012C0.676,0.012 0.66,0.005 0.647,-0.008C0.635,-0.022 0.629,-0.042 0.629,-0.07L0.629,-0.564L0.514,-0.108C0.507,-0.078 0.501,-0.057 0.496,-0.043C0.491,-0.029 0.482,-0.016 0.47,-0.005C0.457,0.007 0.439,0.012 0.417,0.012C0.4,0.012 0.386,0.009 0.374,0.001C0.362,-0.006 0.353,-0.015 0.347,-0.027C0.34,-0.038 0.335,-0.051 0.331,-0.065C0.328,-0.079 0.324,-0.093 0.32,-0.108Z" style="fill-rule:nonzero;"/>
            </g>
            <g transform="matrix(6.3,0,0,6.3,39.4945,51.8924)">
                <path d="M0.536,-0.081L0.502,-0.171L0.211,-0.171L0.177,-0.079C0.163,-0.043 0.152,-0.019 0.143,-0.007C0.133,0.006 0.118,0.012 0.096,0.012C0.078,0.012 0.062,0.006 0.048,-0.008C0.034,-0.021 0.027,-0.036 0.027,-0.053C0.027,-0.063 0.028,-0.073 0.032,-0.083C0.035,-0.094 0.04,-0.108 0.048,-0.127L0.231,-0.592C0.236,-0.605 0.242,-0.621 0.25,-0.64C0.257,-0.659 0.265,-0.674 0.273,-0.687C0.281,-0.699 0.292,-0.709 0.306,-0.717C0.319,-0.724 0.336,-0.728 0.356,-0.728C0.376,-0.728 0.393,-0.724 0.406,-0.717C0.42,-0.709 0.431,-0.699 0.439,-0.687C0.448,-0.675 0.455,-0.662 0.46,-0.648C0.466,-0.634 0.473,-0.616 0.482,-0.593L0.669,-0.131C0.684,-0.096 0.691,-0.07 0.691,-0.054C0.691,-0.038 0.684,-0.022 0.67,-0.009C0.656,0.005 0.64,0.012 0.62,0.012C0.609,0.012 0.599,0.01 0.591,0.006C0.583,0.002 0.576,-0.003 0.57,-0.01C0.565,-0.017 0.559,-0.028 0.552,-0.043C0.546,-0.057 0.541,-0.07 0.536,-0.081ZM0.249,-0.28L0.463,-0.28L0.355,-0.575L0.249,-0.28Z" style="fill-rule:nonzero;"/>
            </g>
            <g transform="matrix(6.3,0,0,6.3,44.1517,51.8924)">
                <path d="M0.356,-0.279L0.223,-0.279L0.223,-0.076C0.223,-0.047 0.216,-0.025 0.203,-0.01C0.189,0.005 0.172,0.012 0.151,0.012C0.129,0.012 0.111,0.005 0.098,-0.01C0.085,-0.025 0.078,-0.047 0.078,-0.075L0.078,-0.627C0.078,-0.659 0.085,-0.682 0.1,-0.695C0.115,-0.709 0.138,-0.716 0.17,-0.716L0.356,-0.716C0.411,-0.716 0.453,-0.712 0.483,-0.703C0.512,-0.695 0.538,-0.681 0.559,-0.663C0.58,-0.644 0.596,-0.621 0.607,-0.593C0.618,-0.566 0.624,-0.535 0.624,-0.501C0.624,-0.428 0.602,-0.373 0.557,-0.335C0.512,-0.298 0.445,-0.279 0.356,-0.279ZM0.321,-0.607L0.223,-0.607L0.223,-0.388L0.321,-0.388C0.355,-0.388 0.384,-0.392 0.406,-0.399C0.429,-0.406 0.447,-0.418 0.459,-0.434C0.471,-0.45 0.477,-0.472 0.477,-0.498C0.477,-0.53 0.468,-0.555 0.449,-0.575C0.428,-0.596 0.386,-0.607 0.321,-0.607Z" style="fill-rule:nonzero;"/>
            </g>
        </g>
        <g transform="matrix(0.552947,0,0,1.41025,968.322,-33.1379)">
            <path d="M73.138,59.642C73.138,58.142 69.254,56.924 64.471,56.924L13.773,56.924C8.99,56.924 5.107,58.142 5.107,59.642L5.107,80.985C5.107,82.486 8.99,83.704 13.773,83.704L64.471,83.704C69.254,83.704 73.138,82.486 73.138,80.985L73.138,59.642Z" style="fill-opacity:0.8;"/>
        </g>
        <g transform="matrix(1.198,0,0,0.958552,939.656,5.41546)">
            <g transform="matrix(6.4,0,0,6.4,34.2965,51.8924)">
                <path d="M0.393,-0.728C0.467,-0.728 0.531,-0.713 0.584,-0.683C0.637,-0.653 0.678,-0.61 0.705,-0.554C0.732,-0.499 0.746,-0.434 0.746,-0.359C0.746,-0.304 0.739,-0.253 0.724,-0.208C0.709,-0.163 0.686,-0.124 0.656,-0.09C0.626,-0.057 0.59,-0.032 0.546,-0.014C0.502,0.003 0.452,0.012 0.396,0.012C0.34,0.012 0.29,0.003 0.246,-0.015C0.201,-0.033 0.164,-0.058 0.135,-0.091C0.105,-0.124 0.083,-0.164 0.068,-0.21C0.052,-0.256 0.045,-0.306 0.045,-0.36C0.045,-0.415 0.053,-0.465 0.069,-0.511C0.084,-0.557 0.107,-0.596 0.137,-0.628C0.167,-0.661 0.204,-0.685 0.247,-0.702C0.29,-0.719 0.338,-0.728 0.393,-0.728ZM0.599,-0.36C0.599,-0.412 0.591,-0.458 0.574,-0.496C0.557,-0.535 0.533,-0.564 0.501,-0.583C0.47,-0.603 0.434,-0.613 0.393,-0.613C0.364,-0.613 0.337,-0.607 0.313,-0.596C0.288,-0.586 0.267,-0.57 0.249,-0.549C0.232,-0.528 0.218,-0.501 0.207,-0.469C0.197,-0.437 0.192,-0.4 0.192,-0.36C0.192,-0.319 0.197,-0.282 0.207,-0.25C0.218,-0.217 0.232,-0.189 0.251,-0.168C0.269,-0.146 0.291,-0.13 0.315,-0.119C0.339,-0.108 0.366,-0.103 0.395,-0.103C0.432,-0.103 0.466,-0.112 0.497,-0.131C0.528,-0.149 0.553,-0.178 0.572,-0.217C0.59,-0.256 0.599,-0.303 0.599,-0.36Z" style="fill:white;fill-rule:nonzero;"/>
            </g>
            <g transform="matrix(6.4,0,0,6.4,39.4933,51.8924)">
                <path d="M0.079,-0.296L0.079,-0.64C0.079,-0.669 0.086,-0.691 0.099,-0.706C0.112,-0.721 0.129,-0.728 0.151,-0.728C0.173,-0.728 0.191,-0.721 0.204,-0.706C0.218,-0.691 0.224,-0.669 0.224,-0.64L0.224,-0.288C0.224,-0.248 0.229,-0.215 0.238,-0.188C0.247,-0.161 0.262,-0.14 0.285,-0.125C0.308,-0.11 0.34,-0.103 0.381,-0.103C0.438,-0.103 0.478,-0.118 0.501,-0.148C0.524,-0.178 0.536,-0.224 0.536,-0.285L0.536,-0.64C0.536,-0.67 0.543,-0.692 0.556,-0.706C0.569,-0.721 0.586,-0.728 0.608,-0.728C0.63,-0.728 0.647,-0.721 0.661,-0.706C0.674,-0.692 0.681,-0.67 0.681,-0.64L0.681,-0.296C0.681,-0.24 0.676,-0.193 0.665,-0.156C0.654,-0.118 0.633,-0.085 0.603,-0.057C0.577,-0.033 0.547,-0.015 0.512,-0.004C0.478,0.007 0.437,0.012 0.391,0.012C0.336,0.012 0.289,0.006 0.249,-0.006C0.209,-0.017 0.177,-0.036 0.152,-0.061C0.127,-0.086 0.108,-0.118 0.097,-0.156C0.085,-0.195 0.079,-0.242 0.079,-0.296Z" style="fill:white;fill-rule:nonzero;"/>
            </g>
            <g transform="matrix(6.4,0,0,6.4,44.4838,51.8924)">
                <path d="M0.543,-0.596L0.385,-0.596L0.385,-0.076C0.385,-0.046 0.378,-0.024 0.365,-0.01C0.351,0.005 0.334,0.012 0.313,0.012C0.292,0.012 0.274,0.005 0.26,-0.01C0.247,-0.024 0.24,-0.047 0.24,-0.076L0.24,-0.596L0.082,-0.596C0.057,-0.596 0.039,-0.602 0.027,-0.613C0.015,-0.623 0.009,-0.638 0.009,-0.656C0.009,-0.674 0.015,-0.689 0.028,-0.7C0.04,-0.71 0.058,-0.716 0.082,-0.716L0.543,-0.716C0.568,-0.716 0.587,-0.71 0.599,-0.699C0.611,-0.688 0.617,-0.674 0.617,-0.656C0.617,-0.638 0.611,-0.623 0.599,-0.613C0.586,-0.602 0.568,-0.596 0.543,-0.596Z" style="fill:white;fill-rule:nonzero;"/>
            </g>
        </g>
        <g transform="matrix(1,0,0,1,0,21.1273)">
            <g transform="matrix(0.891315,0,0,0.91012,964.708,-234.848)">
                <path d="M11.279,78.994C11.279,78.404 10.668,77.926 9.916,77.926L8.586,77.926C7.834,77.926 7.223,78.404 7.223,78.994L7.223,87.133C7.223,87.722 7.834,88.201 8.586,88.201L9.916,88.201C10.668,88.201 11.279,87.722 11.279,87.133L11.279,78.994Z" style="fill-opacity:0.88;"/>
            </g>
            <g transform="matrix(0.891315,0,0,0.91012,971.509,-234.848)">
                <path d="M11.279,78.994C11.279,78.404 10.668,77.926 9.916,77.926L8.586,77.926C7.834,77.926 7.223,78.404 7.223,78.994L7.223,87.133C7.223,87.722 7.834,88.201 8.586,88.201L9.916,88.201C10.668,88.201 11.279,87.722 11.279,87.133L11.279,78.994Z" style="fill-opacity:0.88;"/>
            </g>
            <g transform="matrix(0.891315,0,0,0.91012,978.309,-234.848)">
                <path d="M11.279,78.994C11.279,78.404 10.668,77.926 9.916,77.926L8.586,77.926C7.834,77.926 7.223,78.404 7.223,78.994L7.223,87.133C7.223,87.722 7.834,88.201 8.586,88.201L9.916,88.201C10.668,88.201 11.279,87.722 11.279,87.133L11.279,78.994Z" style="fill-opacity:0.88;"/>
            </g>
            <g transform="matrix(0.891315,0,0,0.91012,985.109,-234.848)">
                <path d="M11.279,78.994C11.279,78.404 10.668,77.926 9.916,77.926L8.586,77.926C7.834,77.926 7.223,78.404 7.223,78.994L7.223,87.133C7.223,87.722 7.834,88.201 8.586,88.201L9.916,88.201C10.668,88.201 11.279,87.722 11.279,87.133L11.279,78.994Z" style="fill-opacity:0.88;"/>
            </g>
            <g transform="matrix(0.891315,0,0,0.91012,991.91,-234.848)">
                <path d="M11.279,78.994C11.279,78.404 10.668,77.926 9.916,77.926L8.586,77.926C7.834,77.926 7.223,78.404 7.223,78.994L7.223,87.133C7.223,87.722 7.834,88.201 8.586,88.201L9.916,88.201C10.668,88.201 11.279,87.722 11.279,87.133L11.279,78.994Z" style="fill-opacity:0.88;"/>
            </g>
            <g transform="matrix(0.891315,0,0,0.91012,998.71,-234.848)">
                <path d="M11.279,78.994C11.279,78.404 10.668,77.926 9.916,77.926L8.586,77.926C7.834,77.926 7.223,78.404 7.223,78.994L7.223,87.133C7.223,87.722 7.834,88.201 8.586,88.201L9.916,88.201C10.668,88.201 11.279,87.722 11.279,87.133L11.279,78.994Z" style="fill-opacity:0.88;"/>
            </g>
        </g>
        <g transform="matrix(1,0,0,1,-0.138405,0)">
            <g transform="matrix(1.198,0,0,0.958552,893.633,-224.914)">
                <g transform="matrix(9,0,0,9,64.0056,347.267)">
                    <path d="M0.919,0L0.762,0L0.762,-0.308C0.762,-0.391 0.732,-0.432 0.671,-0.432C0.643,-0.432 0.62,-0.42 0.602,-0.395C0.583,-0.369 0.574,-0.339 0.574,-0.303L0.574,0L0.417,0L0.417,-0.312C0.417,-0.392 0.387,-0.432 0.327,-0.432C0.298,-0.432 0.274,-0.42 0.256,-0.396C0.238,-0.372 0.229,-0.341 0.229,-0.301L0.229,0L0.072,0L0.072,-0.54L0.229,-0.54L0.229,-0.456L0.231,-0.456C0.25,-0.486 0.275,-0.51 0.307,-0.528C0.338,-0.545 0.371,-0.553 0.405,-0.553C0.481,-0.553 0.533,-0.519 0.561,-0.451C0.603,-0.519 0.663,-0.553 0.743,-0.553C0.86,-0.553 0.919,-0.481 0.919,-0.335L0.919,0Z" style="fill:rgb(10,1,1);fill-rule:nonzero;"/>
                </g>
                <g transform="matrix(9,0,0,9,72.978,347.267)">
                    <path d="M0.551,-0.226L0.196,-0.226C0.201,-0.142 0.252,-0.1 0.347,-0.1C0.407,-0.1 0.459,-0.115 0.505,-0.144L0.505,-0.028C0.456,-0.001 0.391,0.013 0.312,0.013C0.226,0.013 0.159,-0.011 0.111,-0.06C0.063,-0.108 0.04,-0.176 0.04,-0.262C0.04,-0.348 0.065,-0.419 0.116,-0.472C0.167,-0.526 0.23,-0.553 0.307,-0.553C0.384,-0.553 0.443,-0.53 0.487,-0.484C0.53,-0.437 0.551,-0.374 0.551,-0.292L0.551,-0.226ZM0.404,-0.324C0.404,-0.405 0.372,-0.445 0.306,-0.445C0.279,-0.445 0.255,-0.434 0.234,-0.412C0.214,-0.39 0.201,-0.361 0.195,-0.324L0.404,-0.324Z" style="fill:rgb(10,1,1);fill-rule:nonzero;"/>
                </g>
                <g transform="matrix(9,0,0,9,78.3513,347.267)">
                    <rect x="0.069" y="-0.799" width="0.157" height="0.799" style="fill:rgb(10,1,1);fill-rule:nonzero;"/>
                </g>
                <g transform="matrix(9,0,0,9,81.1494,347.267)">
                    <path d="M0.593,0L0.436,0L0.436,-0.076L0.433,-0.076C0.395,-0.017 0.339,0.013 0.264,0.013C0.195,0.013 0.141,-0.011 0.1,-0.06C0.06,-0.108 0.04,-0.174 0.04,-0.258C0.04,-0.346 0.062,-0.418 0.108,-0.472C0.153,-0.526 0.212,-0.553 0.286,-0.553C0.356,-0.553 0.405,-0.528 0.433,-0.477L0.436,-0.477L0.438,-0.707L0.593,-0.658L0.593,0ZM0.438,-0.306C0.438,-0.342 0.427,-0.372 0.405,-0.396C0.383,-0.42 0.356,-0.432 0.323,-0.432C0.284,-0.432 0.254,-0.417 0.232,-0.386C0.21,-0.356 0.199,-0.315 0.199,-0.263C0.199,-0.213 0.21,-0.175 0.231,-0.148C0.252,-0.121 0.281,-0.108 0.318,-0.108C0.353,-0.108 0.382,-0.122 0.404,-0.15C0.427,-0.179 0.438,-0.215 0.438,-0.261L0.438,-0.306Z" style="fill:rgb(10,1,1);fill-rule:nonzero;"/>
                </g>
                <g transform="matrix(9,0,0,9,87.2654,347.267)">
                    <path d="M0.551,-0.226L0.196,-0.226C0.201,-0.142 0.252,-0.1 0.347,-0.1C0.407,-0.1 0.459,-0.115 0.505,-0.144L0.505,-0.028C0.456,-0.001 0.391,0.013 0.312,0.013C0.226,0.013 0.159,-0.011 0.111,-0.06C0.063,-0.108 0.04,-0.176 0.04,-0.262C0.04,-0.348 0.065,-0.419 0.116,-0.472C0.167,-0.526 0.23,-0.553 0.307,-0.553C0.384,-0.553 0.443,-0.53 0.487,-0.484C0.53,-0.437 0.551,-0.374 0.551,-0.292L0.551,-0.226ZM0.404,-0.324C0.404,-0.405 0.372,-0.445 0.306,-0.445C0.279,-0.445 0.255,-0.434 0.234,-0.412C0.214,-0.39 0.201,-0.361 0.195,-0.324L0.404,-0.324Z" style="fill:rgb(10,1,1);fill-rule:nonzero;"/>
                </g>
                <g transform="matrix(9,0,0,9,92.6386,347.267)">
                    <path d="M0.416,-0.397C0.397,-0.408 0.374,-0.414 0.346,-0.414C0.31,-0.414 0.282,-0.4 0.261,-0.373C0.24,-0.345 0.229,-0.308 0.229,-0.26L0.229,0L0.072,0L0.072,-0.54L0.229,-0.54L0.229,-0.438L0.231,-0.438C0.257,-0.512 0.305,-0.549 0.374,-0.549C0.392,-0.549 0.406,-0.547 0.416,-0.543L0.416,-0.397Z" style="fill:rgb(10,1,1);fill-rule:nonzero;"/>
                </g>
            </g>
            <g transform="matrix(1.198,0,0,0.958552,893.495,-231.786)">
                <g transform="matrix(9,0,0,9,68.6657,347.267)">
                    <path d="M0.058,-0.145C0.112,-0.112 0.165,-0.096 0.216,-0.096C0.281,-0.096 0.314,-0.113 0.314,-0.148C0.314,-0.173 0.287,-0.193 0.233,-0.21C0.166,-0.231 0.12,-0.254 0.095,-0.28C0.07,-0.305 0.058,-0.34 0.058,-0.383C0.058,-0.436 0.079,-0.478 0.122,-0.508C0.165,-0.538 0.221,-0.553 0.291,-0.553C0.34,-0.553 0.388,-0.546 0.434,-0.531L0.434,-0.407C0.392,-0.432 0.346,-0.444 0.295,-0.444C0.27,-0.444 0.25,-0.44 0.235,-0.431C0.22,-0.422 0.212,-0.41 0.212,-0.396C0.212,-0.371 0.235,-0.351 0.28,-0.335C0.329,-0.319 0.366,-0.304 0.39,-0.291C0.415,-0.278 0.434,-0.26 0.447,-0.238C0.459,-0.216 0.466,-0.191 0.466,-0.163C0.466,-0.107 0.444,-0.064 0.399,-0.033C0.354,-0.002 0.295,0.013 0.22,0.013C0.162,0.013 0.107,0.004 0.058,-0.015L0.058,-0.145Z" style="fill:rgb(10,1,1);fill-rule:nonzero;"/>
                </g>
                <g transform="matrix(9,0,0,9,73.2436,347.267)">
                    <path d="M0.39,-0.006C0.366,0.007 0.33,0.013 0.282,0.013C0.167,0.013 0.11,-0.047 0.11,-0.167L0.11,-0.422L0.021,-0.422L0.021,-0.54L0.11,-0.54L0.11,-0.659L0.267,-0.704L0.267,-0.54L0.39,-0.54L0.39,-0.422L0.267,-0.422L0.267,-0.195C0.267,-0.137 0.289,-0.108 0.335,-0.108C0.353,-0.108 0.371,-0.114 0.39,-0.124L0.39,-0.006Z" style="fill:rgb(10,1,1);fill-rule:nonzero;"/>
                </g>
                <g transform="matrix(6.6,0,0,6.6,77.1051,347.267)">
                    <path d="M0.106,0.032L0.043,-0.021L0.122,-0.115C0.067,-0.183 0.04,-0.268 0.04,-0.368C0.04,-0.487 0.075,-0.584 0.144,-0.658C0.213,-0.732 0.305,-0.769 0.418,-0.769C0.5,-0.769 0.571,-0.748 0.63,-0.706L0.698,-0.785L0.761,-0.733L0.689,-0.65C0.748,-0.581 0.778,-0.493 0.778,-0.384C0.778,-0.266 0.743,-0.17 0.674,-0.097C0.605,-0.023 0.516,0.013 0.406,0.013C0.32,0.013 0.246,-0.011 0.182,-0.059L0.106,0.032ZM0.54,-0.6C0.506,-0.628 0.463,-0.642 0.413,-0.642C0.349,-0.642 0.297,-0.617 0.258,-0.569C0.218,-0.52 0.199,-0.455 0.199,-0.375C0.199,-0.319 0.208,-0.273 0.227,-0.234L0.54,-0.6ZM0.275,-0.165C0.311,-0.131 0.356,-0.114 0.409,-0.114C0.473,-0.114 0.524,-0.137 0.563,-0.184C0.601,-0.231 0.62,-0.294 0.62,-0.374C0.62,-0.435 0.61,-0.488 0.588,-0.533L0.275,-0.165Z" style="fill-rule:nonzero;"/>
                </g>
                <g transform="matrix(9,0,0,9,82.6053,347.267)">
                    <path d="M0.551,-0.226L0.196,-0.226C0.201,-0.142 0.252,-0.1 0.347,-0.1C0.407,-0.1 0.459,-0.115 0.505,-0.144L0.505,-0.028C0.456,-0.001 0.391,0.013 0.312,0.013C0.226,0.013 0.159,-0.011 0.111,-0.06C0.063,-0.108 0.04,-0.176 0.04,-0.262C0.04,-0.348 0.065,-0.419 0.116,-0.472C0.167,-0.526 0.23,-0.553 0.307,-0.553C0.384,-0.553 0.443,-0.53 0.487,-0.484C0.53,-0.437 0.551,-0.374 0.551,-0.292L0.551,-0.226ZM0.404,-0.324C0.404,-0.405 0.372,-0.445 0.306,-0.445C0.279,-0.445 0.255,-0.434 0.234,-0.412C0.214,-0.39 0.201,-0.361 0.195,-0.324L0.404,-0.324Z" style="fill:rgb(10,1,1);fill-rule:nonzero;"/>
                </g>
                <g transform="matrix(9,0,0,9,87.9786,347.267)">
                    <path d="M0.416,-0.397C0.397,-0.408 0.374,-0.414 0.346,-0.414C0.31,-0.414 0.282,-0.4 0.261,-0.373C0.24,-0.345 0.229,-0.308 0.229,-0.26L0.229,0L0.072,0L0.072,-0.54L0.229,-0.54L0.229,-0.438L0.231,-0.438C0.257,-0.512 0.305,-0.549 0.374,-0.549C0.392,-0.549 0.406,-0.547 0.416,-0.543L0.416,-0.397Z" style="fill:rgb(10,1,1);fill-rule:nonzero;"/>
                </g>
            </g>
        </g>
    </g>
</svg>
