<?xml version="1.0" encoding="UTF-8" standalone="no"?>
<!DOCTYPE svg PUBLIC "-//W3C//DTD SVG 1.1//EN" "http://www.w3.org/Graphics/SVG/1.1/DTD/svg11.dtd">
<svg width="100%" height="100%" viewBox="0 0 150 380" version="1.1" xmlns="http://www.w3.org/2000/svg" xmlns:xlink="http://www.w3.org/1999/xlink" xml:space="preserve" xmlns:serif="http://www.serif.com/" style="fill-rule:evenodd;clip-rule:evenodd;stroke-linecap:round;stroke-linejoin:round;stroke-miterlimit:1.5;">
    <g id="panel" transform="matrix(0.834722,0,0,1.04324,-803.837,250.623)">
        <g transform="matrix(2.99501,0,0,0.958552,963,-240.235)">
            <rect x="0" y="0" width="60" height="380" style="fill:rgb(128,187,254);"/>
        </g>
        <g transform="matrix(8.02347,0,0,25.5659,663.022,-292.473)">
            <rect x="37.388" y="2.043" width="22.397" height="14.247" style="fill:none;stroke:black;stroke-opacity:0.6;stroke-width:0.03px;"/>
        </g>
        <g transform="matrix(1.06268,0,0,1.76292,994.916,-852.772)">
            <rect x="-30.034" y="347.456" width="169.102" height="16.91" style="fill:rgb(4,4,4);fill-opacity:0.3;"/>
        </g>
        <g transform="matrix(1.06268,0,0,1.81961,994.916,-538.829)">
            <rect x="-30.034" y="347.456" width="169.102" height="16.91" style="fill:rgb(4,4,4);fill-opacity:0.3;"/>
        </g>
        <g transform="matrix(0.840359,0,0,0.840359,220.816,16.2108)">
            <g transform="matrix(1.198,0,0,0.958552,893.633,-224.914)">
                <g transform="matrix(9,0,0,9,64.0056,347.267)">
                    <path d="M0.919,0L0.762,0L0.762,-0.308C0.762,-0.391 0.732,-0.432 0.671,-0.432C0.643,-0.432 0.62,-0.42 0.602,-0.395C0.583,-0.369 0.574,-0.339 0.574,-0.303L0.574,0L0.417,0L0.417,-0.312C0.417,-0.392 0.387,-0.432 0.327,-0.432C0.298,-0.432 0.274,-0.42 0.256,-0.396C0.238,-0.372 0.229,-0.341 0.229,-0.301L0.229,0L0.072,0L0.072,-0.54L0.229,-0.54L0.229,-0.456L0.231,-0.456C0.25,-0.486 0.275,-0.51 0.307,-0.528C0.338,-0.545 0.371,-0.553 0.405,-0.553C0.481,-0.553 0.533,-0.519 0.561,-0.451C0.603,-0.519 0.663,-0.553 0.743,-0.553C0.86,-0.553 0.919,-0.481 0.919,-0.335L0.919,0Z" style="fill:rgb(10,1,1);fill-rule:nonzero;"/>
                </g>
                <g transform="matrix(9,0,0,9,72.978,347.267)">
                    <path d="M0.551,-0.226L0.196,-0.226C0.201,-0.142 0.252,-0.1 0.347,-0.1C0.407,-0.1 0.459,-0.115 0.505,-0.144L0.505,-0.028C0.456,-0.001 0.391,0.013 0.312,0.013C0.226,0.013 0.159,-0.011 0.111,-0.06C0.063,-0.108 0.04,-0.176 0.04,-0.262C0.04,-0.348 0.065,-0.419 0.116,-0.472C0.167,-0.526 0.23,-0.553 0.307,-0.553C0.384,-0.553 0.443,-0.53 0.487,-0.484C0.53,-0.437 0.551,-0.374 0.551,-0.292L0.551,-0.226ZM0.404,-0.324C0.404,-0.405 0.372,-0.445 0.306,-0.445C0.279,-0.445 0.255,-0.434 0.234,-0.412C0.214,-0.39 0.201,-0.361 0.195,-0.324L0.404,-0.324Z" style="fill:rgb(10,1,1);fill-rule:nonzero;"/>
                </g>
                <g transform="matrix(9,0,0,9,78.3513,347.267)">
                    <rect x="0.069" y="-0.799" width="0.157" height="0.799" style="fill:rgb(10,1,1);fill-rule:nonzero;"/>
                </g>
                <g transform="matrix(9,0,0,9,81.1494,347.267)">
                    <path d="M0.593,0L0.436,0L0.436,-0.076L0.433,-0.076C0.395,-0.017 0.339,0.013 0.264,0.013C0.195,0.013 0.141,-0.011 0.1,-0.06C0.06,-0.108 0.04,-0.174 0.04,-0.258C0.04,-0.346 0.062,-0.418 0.108,-0.472C0.153,-0.526 0.212,-0.553 0.286,-0.553C0.356,-0.553 0.405,-0.528 0.433,-0.477L0.436,-0.477L0.438,-0.707L0.593,-0.658L0.593,0ZM0.438,-0.306C0.438,-0.342 0.427,-0.372 0.405,-0.396C0.383,-0.42 0.356,-0.432 0.323,-0.432C0.284,-0.432 0.254,-0.417 0.232,-0.386C0.21,-0.356 0.199,-0.315 0.199,-0.263C0.199,-0.213 0.21,-0.175 0.231,-0.148C0.252,-0.121 0.281,-0.108 0.318,-0.108C0.353,-0.108 0.382,-0.122 0.404,-0.15C0.427,-0.179 0.438,-0.215 0.438,-0.261L0.438,-0.306Z" style="fill:rgb(10,1,1);fill-rule:nonzero;"/>
                </g>
                <g transform="matrix(9,0,0,9,87.2654,347.267)">
                    <path d="M0.551,-0.226L0.196,-0.226C0.201,-0.142 0.252,-0.1 0.347,-0.1C0.407,-0.1 0.459,-0.115 0.505,-0.144L0.505,-0.028C0.456,-0.001 0.391,0.013 0.312,0.013C0.226,0.013 0.159,-0.011 0.111,-0.06C0.063,-0.108 0.04,-0.176 0.04,-0.262C0.04,-0.348 0.065,-0.419 0.116,-0.472C0.167,-0.526 0.23,-0.553 0.307,-0.553C0.384,-0.553 0.443,-0.53 0.487,-0.484C0.53,-0.437 0.551,-0.374 0.551,-0.292L0.551,-0.226ZM0.404,-0.324C0.404,-0.405 0.372,-0.445 0.306,-0.445C0.279,-0.445 0.255,-0.434 0.234,-0.412C0.214,-0.39 0.201,-0.361 0.195,-0.324L0.404,-0.324Z" style="fill:rgb(10,1,1);fill-rule:nonzero;"/>
                </g>
                <g transform="matrix(9,0,0,9,92.6386,347.267)">
                    <path d="M0.416,-0.397C0.397,-0.408 0.374,-0.414 0.346,-0.414C0.31,-0.414 0.282,-0.4 0.261,-0.373C0.24,-0.345 0.229,-0.308 0.229,-0.26L0.229,0L0.072,0L0.072,-0.54L0.229,-0.54L0.229,-0.438L0.231,-0.438C0.257,-0.512 0.305,-0.549 0.374,-0.549C0.392,-0.549 0.406,-0.547 0.416,-0.543L0.416,-0.397Z" style="fill:rgb(10,1,1);fill-rule:nonzero;"/>
                </g>
            </g>
            <g transform="matrix(1.198,0,0,0.958552,893.495,-231.786)">
                <g transform="matrix(9,0,0,9,68.6657,347.267)">
                    <path d="M0.058,-0.145C0.112,-0.112 0.165,-0.096 0.216,-0.096C0.281,-0.096 0.314,-0.113 0.314,-0.148C0.314,-0.173 0.287,-0.193 0.233,-0.21C0.166,-0.231 0.12,-0.254 0.095,-0.28C0.07,-0.305 0.058,-0.34 0.058,-0.383C0.058,-0.436 0.079,-0.478 0.122,-0.508C0.165,-0.538 0.221,-0.553 0.291,-0.553C0.34,-0.553 0.388,-0.546 0.434,-0.531L0.434,-0.407C0.392,-0.432 0.346,-0.444 0.295,-0.444C0.27,-0.444 0.25,-0.44 0.235,-0.431C0.22,-0.422 0.212,-0.41 0.212,-0.396C0.212,-0.371 0.235,-0.351 0.28,-0.335C0.329,-0.319 0.366,-0.304 0.39,-0.291C0.415,-0.278 0.434,-0.26 0.447,-0.238C0.459,-0.216 0.466,-0.191 0.466,-0.163C0.466,-0.107 0.444,-0.064 0.399,-0.033C0.354,-0.002 0.295,0.013 0.22,0.013C0.162,0.013 0.107,0.004 0.058,-0.015L0.058,-0.145Z" style="fill:rgb(10,1,1);fill-rule:nonzero;"/>
                </g>
                <g transform="matrix(9,0,0,9,73.2436,347.267)">
                    <path d="M0.39,-0.006C0.366,0.007 0.33,0.013 0.282,0.013C0.167,0.013 0.11,-0.047 0.11,-0.167L0.11,-0.422L0.021,-0.422L0.021,-0.54L0.11,-0.54L0.11,-0.659L0.267,-0.704L0.267,-0.54L0.39,-0.54L0.39,-0.422L0.267,-0.422L0.267,-0.195C0.267,-0.137 0.289,-0.108 0.335,-0.108C0.353,-0.108 0.371,-0.114 0.39,-0.124L0.39,-0.006Z" style="fill:rgb(10,1,1);fill-rule:nonzero;"/>
                </g>
                <g transform="matrix(6.6,0,0,6.6,77.1051,347.267)">
                    <path d="M0.106,0.032L0.043,-0.021L0.122,-0.115C0.067,-0.183 0.04,-0.268 0.04,-0.368C0.04,-0.487 0.075,-0.584 0.144,-0.658C0.213,-0.732 0.305,-0.769 0.418,-0.769C0.5,-0.769 0.571,-0.748 0.63,-0.706L0.698,-0.785L0.761,-0.733L0.689,-0.65C0.748,-0.581 0.778,-0.493 0.778,-0.384C0.778,-0.266 0.743,-0.17 0.674,-0.097C0.605,-0.023 0.516,0.013 0.406,0.013C0.32,0.013 0.246,-0.011 0.182,-0.059L0.106,0.032ZM0.54,-0.6C0.506,-0.628 0.463,-0.642 0.413,-0.642C0.349,-0.642 0.297,-0.617 0.258,-0.569C0.218,-0.52 0.199,-0.455 0.199,-0.375C0.199,-0.319 0.208,-0.273 0.227,-0.234L0.54,-0.6ZM0.275,-0.165C0.311,-0.131 0.356,-0.114 0.409,-0.114C0.473,-0.114 0.524,-0.137 0.563,-0.184C0.601,-0.231 0.62,-0.294 0.62,-0.374C0.62,-0.435 0.61,-0.488 0.588,-0.533L0.275,-0.165Z" style="fill-rule:nonzero;"/>
                </g>
                <g transform="matrix(9,0,0,9,82.6053,347.267)">
                    <path d="M0.551,-0.226L0.196,-0.226C0.201,-0.142 0.252,-0.1 0.347,-0.1C0.407,-0.1 0.459,-0.115 0.505,-0.144L0.505,-0.028C0.456,-0.001 0.391,0.013 0.312,0.013C0.226,0.013 0.159,-0.011 0.111,-0.06C0.063,-0.108 0.04,-0.176 0.04,-0.262C0.04,-0.348 0.065,-0.419 0.116,-0.472C0.167,-0.526 0.23,-0.553 0.307,-0.553C0.384,-0.553 0.443,-0.53 0.487,-0.484C0.53,-0.437 0.551,-0.374 0.551,-0.292L0.551,-0.226ZM0.404,-0.324C0.404,-0.405 0.372,-0.445 0.306,-0.445C0.279,-0.445 0.255,-0.434 0.234,-0.412C0.214,-0.39 0.201,-0.361 0.195,-0.324L0.404,-0.324Z" style="fill:rgb(10,1,1);fill-rule:nonzero;"/>
                </g>
                <g transform="matrix(9,0,0,9,87.9786,347.267)">
                    <path d="M0.416,-0.397C0.397,-0.408 0.374,-0.414 0.346,-0.414C0.31,-0.414 0.282,-0.4 0.261,-0.373C0.24,-0.345 0.229,-0.308 0.229,-0.26L0.229,0L0.072,0L0.072,-0.54L0.229,-0.54L0.229,-0.438L0.231,-0.438C0.257,-0.512 0.305,-0.549 0.374,-0.549C0.392,-0.549 0.406,-0.547 0.416,-0.543L0.416,-0.397Z" style="fill:rgb(10,1,1);fill-rule:nonzero;"/>
                </g>
            </g>
        </g>
        <g transform="matrix(1,0,0,1,-11.0481,-5.94302)">
            <g transform="matrix(1.198,0,0,0.958552,1037.5,-215.123)">
                <g transform="matrix(13,0,0,13,0,0)">
                    <path d="M0.563,-0.677L0.511,-0.572C0.483,-0.601 0.437,-0.615 0.375,-0.615C0.315,-0.615 0.266,-0.59 0.228,-0.54C0.19,-0.49 0.171,-0.427 0.171,-0.35C0.171,-0.274 0.189,-0.213 0.224,-0.168C0.259,-0.123 0.306,-0.101 0.365,-0.101C0.433,-0.101 0.485,-0.125 0.523,-0.173L0.583,-0.07C0.531,-0.015 0.455,0.012 0.355,0.012C0.255,0.012 0.177,-0.021 0.122,-0.086C0.067,-0.152 0.039,-0.242 0.039,-0.355C0.039,-0.461 0.07,-0.55 0.131,-0.621C0.192,-0.692 0.271,-0.728 0.367,-0.728C0.449,-0.728 0.514,-0.711 0.563,-0.677Z" style="fill-rule:nonzero;"/>
                </g>
                <g transform="matrix(13,0,0,13,7.95361,0)">
                    <path d="M0.34,0.01L0.27,0.01L0.002,-0.715L0.142,-0.715L0.308,-0.232L0.482,-0.715L0.619,-0.715L0.34,0.01Z" style="fill-rule:nonzero;"/>
                </g>
                <g transform="matrix(13,0,0,13,15.3169,0)">
                    <rect x="0.053" y="-0.347" width="0.258" height="0.115" style="fill-rule:nonzero;"/>
                </g>
            </g>
            <g transform="matrix(-1.1815,0,0,1.03299,1089.83,-214.929)">
                <g transform="matrix(12.0633,0,0,12.0633,0,0)">
                    <path d="M0.74,0L0.617,0L0.543,-0.385L0.399,0.01L0.354,0.01L0.209,-0.385L0.132,0L0.01,0L0.154,-0.715L0.221,-0.715L0.376,-0.233L0.527,-0.715L0.594,-0.715L0.74,0Z" style="fill-rule:nonzero;"/>
                </g>
                <g transform="matrix(12.0633,0,0,12.0633,8.98855,0)">
                    <path d="M0.491,0L0.438,-0.145L0.193,-0.145L0.144,0L0.002,0L0.288,-0.725L0.343,-0.725L0.631,0L0.491,0ZM0.315,-0.506L0.229,-0.242L0.401,-0.242L0.315,-0.506Z" style="fill-rule:nonzero;"/>
                </g>
                <g transform="matrix(12.0633,0,0,12.0633,16.6282,0)">
                    <path d="M0.2,-0.263L0.2,0L0.073,0L0.073,-0.715C0.158,-0.718 0.207,-0.72 0.222,-0.72C0.335,-0.72 0.417,-0.703 0.469,-0.668C0.522,-0.634 0.548,-0.579 0.548,-0.506C0.548,-0.342 0.451,-0.26 0.258,-0.26C0.243,-0.26 0.224,-0.261 0.2,-0.263ZM0.2,-0.605L0.2,-0.376C0.222,-0.374 0.239,-0.373 0.251,-0.373C0.309,-0.373 0.351,-0.382 0.378,-0.402C0.405,-0.421 0.418,-0.452 0.418,-0.496C0.418,-0.57 0.358,-0.607 0.239,-0.607C0.225,-0.607 0.213,-0.607 0.2,-0.605Z" style="fill-rule:nonzero;"/>
                </g>
            </g>
        </g>
        <g transform="matrix(1.198,0,0,0.958552,967.607,-264.611)">
            <g transform="matrix(5.6,0,0,5.6,23.2988,53.3564)">
                <path d="M0.2,-0.263L0.2,0L0.073,0L0.073,-0.715C0.158,-0.718 0.207,-0.72 0.222,-0.72C0.335,-0.72 0.417,-0.703 0.469,-0.668C0.522,-0.634 0.548,-0.579 0.548,-0.506C0.548,-0.342 0.451,-0.26 0.258,-0.26C0.243,-0.26 0.224,-0.261 0.2,-0.263ZM0.2,-0.605L0.2,-0.376C0.222,-0.374 0.239,-0.373 0.251,-0.373C0.309,-0.373 0.351,-0.382 0.378,-0.402C0.405,-0.421 0.418,-0.452 0.418,-0.496C0.418,-0.57 0.358,-0.607 0.239,-0.607C0.225,-0.607 0.213,-0.607 0.2,-0.605Z" style="fill:rgb(5,5,5);fill-opacity:0.8;fill-rule:nonzero;"/>
            </g>
            <g transform="matrix(5.6,0,0,5.6,26.2819,53.3564)">
                <path d="M0.491,0L0.438,-0.145L0.193,-0.145L0.144,0L0.002,0L0.288,-0.725L0.343,-0.725L0.631,0L0.491,0ZM0.315,-0.506L0.229,-0.242L0.401,-0.242L0.315,-0.506Z" style="fill:rgb(5,5,5);fill-opacity:0.8;fill-rule:nonzero;"/>
            </g>
            <g transform="matrix(5.6,0,0,5.6,29.9404,53.3564)">
                <path d="M0.477,0L0.286,-0.295C0.266,-0.296 0.24,-0.297 0.205,-0.299L0.205,0L0.073,0L0.073,-0.715C0.08,-0.715 0.108,-0.717 0.156,-0.719C0.204,-0.721 0.242,-0.723 0.271,-0.723C0.453,-0.723 0.544,-0.652 0.544,-0.512C0.544,-0.469 0.531,-0.431 0.506,-0.396C0.481,-0.361 0.45,-0.337 0.412,-0.322L0.623,0L0.477,0ZM0.205,-0.605L0.205,-0.406C0.229,-0.404 0.246,-0.403 0.259,-0.403C0.312,-0.403 0.351,-0.411 0.375,-0.426C0.4,-0.441 0.412,-0.47 0.412,-0.513C0.412,-0.548 0.399,-0.573 0.373,-0.587C0.346,-0.601 0.305,-0.608 0.248,-0.608C0.234,-0.608 0.22,-0.607 0.205,-0.605Z" style="fill:rgb(5,5,5);fill-opacity:0.8;fill-rule:nonzero;"/>
            </g>
            <g transform="matrix(5.6,0,0,5.6,33.4731,53.3564)">
                <path d="M0.491,0L0.438,-0.145L0.193,-0.145L0.144,0L0.002,0L0.288,-0.725L0.343,-0.725L0.631,0L0.491,0ZM0.315,-0.506L0.229,-0.242L0.401,-0.242L0.315,-0.506Z" style="fill:rgb(5,5,5);fill-opacity:0.8;fill-rule:nonzero;"/>
            </g>
            <g transform="matrix(5.6,0,0,5.6,37.1316,53.3564)">
                <path d="M0.74,0L0.617,0L0.543,-0.385L0.399,0.01L0.354,0.01L0.209,-0.385L0.132,0L0.01,0L0.154,-0.715L0.221,-0.715L0.376,-0.233L0.527,-0.715L0.594,-0.715L0.74,0Z" style="fill:rgb(5,5,5);fill-opacity:0.8;fill-rule:nonzero;"/>
            </g>
            <g transform="matrix(5.6,0,0,5.6,41.4162,53.3564)">
                <path d="M0.2,-0.603L0.2,-0.435L0.437,-0.435L0.437,-0.327L0.2,-0.327L0.2,-0.113L0.524,-0.113L0.524,0L0.073,0L0.073,-0.715L0.53,-0.715L0.53,-0.603L0.2,-0.603Z" style="fill:rgb(5,5,5);fill-opacity:0.8;fill-rule:nonzero;"/>
            </g>
            <g transform="matrix(5.6,0,0,5.6,44.7138,53.3564)">
                <path d="M0.364,-0.603L0.364,0L0.237,0L0.237,-0.603L0.01,-0.603L0.01,-0.715L0.602,-0.715L0.602,-0.603L0.364,-0.603Z" style="fill:rgb(5,5,5);fill-opacity:0.8;fill-rule:nonzero;"/>
            </g>
            <g transform="matrix(5.6,0,0,5.6,48.252,53.3564)">
                <path d="M0.2,-0.603L0.2,-0.435L0.437,-0.435L0.437,-0.327L0.2,-0.327L0.2,-0.113L0.524,-0.113L0.524,0L0.073,0L0.073,-0.715L0.53,-0.715L0.53,-0.603L0.2,-0.603Z" style="fill:rgb(5,5,5);fill-opacity:0.8;fill-rule:nonzero;"/>
            </g>
            <g transform="matrix(5.6,0,0,5.6,51.5495,53.3564)">
                <path d="M0.477,0L0.286,-0.295C0.266,-0.296 0.24,-0.297 0.205,-0.299L0.205,0L0.073,0L0.073,-0.715C0.08,-0.715 0.108,-0.717 0.156,-0.719C0.204,-0.721 0.242,-0.723 0.271,-0.723C0.453,-0.723 0.544,-0.652 0.544,-0.512C0.544,-0.469 0.531,-0.431 0.506,-0.396C0.481,-0.361 0.45,-0.337 0.412,-0.322L0.623,0L0.477,0ZM0.205,-0.605L0.205,-0.406C0.229,-0.404 0.246,-0.403 0.259,-0.403C0.312,-0.403 0.351,-0.411 0.375,-0.426C0.4,-0.441 0.412,-0.47 0.412,-0.513C0.412,-0.548 0.399,-0.573 0.373,-0.587C0.346,-0.601 0.305,-0.608 0.248,-0.608C0.234,-0.608 0.22,-0.607 0.205,-0.605Z" style="fill:rgb(5,5,5);fill-opacity:0.8;fill-rule:nonzero;"/>
            </g>
            <g transform="matrix(5.6,0,0,5.6,56.8813,53.3564)">
                <path d="M0.563,-0.677L0.511,-0.572C0.483,-0.601 0.437,-0.615 0.375,-0.615C0.315,-0.615 0.266,-0.59 0.228,-0.54C0.19,-0.49 0.171,-0.427 0.171,-0.35C0.171,-0.274 0.189,-0.213 0.224,-0.168C0.259,-0.123 0.306,-0.101 0.365,-0.101C0.433,-0.101 0.485,-0.125 0.523,-0.173L0.583,-0.07C0.531,-0.015 0.455,0.012 0.355,0.012C0.255,0.012 0.177,-0.021 0.122,-0.086C0.067,-0.152 0.039,-0.242 0.039,-0.355C0.039,-0.461 0.07,-0.55 0.131,-0.621C0.192,-0.692 0.271,-0.728 0.367,-0.728C0.449,-0.728 0.514,-0.711 0.563,-0.677Z" style="fill:rgb(5,5,5);fill-opacity:0.8;fill-rule:nonzero;"/>
            </g>
            <g transform="matrix(5.6,0,0,5.6,60.4195,53.3564)">
                <path d="M0.039,-0.364C0.039,-0.466 0.067,-0.552 0.123,-0.622C0.179,-0.693 0.253,-0.728 0.347,-0.728C0.45,-0.728 0.528,-0.696 0.583,-0.632C0.637,-0.569 0.664,-0.479 0.664,-0.364C0.664,-0.249 0.636,-0.157 0.579,-0.089C0.522,-0.022 0.441,0.012 0.337,0.012C0.241,0.012 0.167,-0.021 0.116,-0.088C0.065,-0.155 0.039,-0.247 0.039,-0.364ZM0.171,-0.364C0.171,-0.28 0.185,-0.215 0.213,-0.169C0.242,-0.124 0.283,-0.101 0.337,-0.101C0.4,-0.101 0.449,-0.123 0.482,-0.168C0.516,-0.213 0.532,-0.278 0.532,-0.364C0.532,-0.531 0.47,-0.615 0.347,-0.615C0.29,-0.615 0.247,-0.593 0.216,-0.547C0.186,-0.502 0.171,-0.441 0.171,-0.364Z" style="fill:rgb(5,5,5);fill-opacity:0.8;fill-rule:nonzero;"/>
            </g>
            <g transform="matrix(5.6,0,0,5.6,64.469,53.3564)">
                <path d="M0.542,0.01L0.195,-0.443L0.195,0L0.073,0L0.073,-0.715L0.134,-0.715L0.472,-0.284L0.472,-0.715L0.594,-0.715L0.594,0.01L0.542,0.01Z" style="fill:rgb(5,5,5);fill-opacity:0.8;fill-rule:nonzero;"/>
            </g>
            <g transform="matrix(5.6,0,0,5.6,68.3189,53.3564)">
                <path d="M0.364,-0.603L0.364,0L0.237,0L0.237,-0.603L0.01,-0.603L0.01,-0.715L0.602,-0.715L0.602,-0.603L0.364,-0.603Z" style="fill:rgb(5,5,5);fill-opacity:0.8;fill-rule:nonzero;"/>
            </g>
            <g transform="matrix(5.6,0,0,5.6,71.8571,53.3564)">
                <path d="M0.477,0L0.286,-0.295C0.266,-0.296 0.24,-0.297 0.205,-0.299L0.205,0L0.073,0L0.073,-0.715C0.08,-0.715 0.108,-0.717 0.156,-0.719C0.204,-0.721 0.242,-0.723 0.271,-0.723C0.453,-0.723 0.544,-0.652 0.544,-0.512C0.544,-0.469 0.531,-0.431 0.506,-0.396C0.481,-0.361 0.45,-0.337 0.412,-0.322L0.623,0L0.477,0ZM0.205,-0.605L0.205,-0.406C0.229,-0.404 0.246,-0.403 0.259,-0.403C0.312,-0.403 0.351,-0.411 0.375,-0.426C0.4,-0.441 0.412,-0.47 0.412,-0.513C0.412,-0.548 0.399,-0.573 0.373,-0.587C0.346,-0.601 0.305,-0.608 0.248,-0.608C0.234,-0.608 0.22,-0.607 0.205,-0.605Z" style="fill:rgb(5,5,5);fill-opacity:0.8;fill-rule:nonzero;"/>
            </g>
            <g transform="matrix(5.6,0,0,5.6,75.3898,53.3564)">
                <path d="M0.039,-0.364C0.039,-0.466 0.067,-0.552 0.123,-0.622C0.179,-0.693 0.253,-0.728 0.347,-0.728C0.45,-0.728 0.528,-0.696 0.583,-0.632C0.637,-0.569 0.664,-0.479 0.664,-0.364C0.664,-0.249 0.636,-0.157 0.579,-0.089C0.522,-0.022 0.441,0.012 0.337,0.012C0.241,0.012 0.167,-0.021 0.116,-0.088C0.065,-0.155 0.039,-0.247 0.039,-0.364ZM0.171,-0.364C0.171,-0.28 0.185,-0.215 0.213,-0.169C0.242,-0.124 0.283,-0.101 0.337,-0.101C0.4,-0.101 0.449,-0.123 0.482,-0.168C0.516,-0.213 0.532,-0.278 0.532,-0.364C0.532,-0.531 0.47,-0.615 0.347,-0.615C0.29,-0.615 0.247,-0.593 0.216,-0.547C0.186,-0.502 0.171,-0.441 0.171,-0.364Z" style="fill:rgb(5,5,5);fill-opacity:0.8;fill-rule:nonzero;"/>
            </g>
            <g transform="matrix(5.6,0,0,5.6,79.4393,53.3564)">
                <path d="M0.073,0L0.073,-0.715L0.2,-0.715L0.2,-0.113L0.523,-0.113L0.523,0L0.073,0Z" style="fill:rgb(5,5,5);fill-opacity:0.8;fill-rule:nonzero;"/>
            </g>
            <g transform="matrix(5.6,0,0,5.6,82.6466,53.3564)">
                <path d="M0.073,0L0.073,-0.715L0.2,-0.715L0.2,-0.113L0.523,-0.113L0.523,0L0.073,0Z" style="fill:rgb(5,5,5);fill-opacity:0.8;fill-rule:nonzero;"/>
            </g>
            <g transform="matrix(5.6,0,0,5.6,85.8539,53.3564)">
                <path d="M0.2,-0.603L0.2,-0.435L0.437,-0.435L0.437,-0.327L0.2,-0.327L0.2,-0.113L0.524,-0.113L0.524,0L0.073,0L0.073,-0.715L0.53,-0.715L0.53,-0.603L0.2,-0.603Z" style="fill:rgb(5,5,5);fill-opacity:0.8;fill-rule:nonzero;"/>
            </g>
            <g transform="matrix(5.6,0,0,5.6,89.1514,53.3564)">
                <path d="M0.232,0L0.073,0L0.073,-0.715C0.174,-0.718 0.238,-0.72 0.264,-0.72C0.368,-0.72 0.451,-0.69 0.512,-0.629C0.573,-0.568 0.604,-0.487 0.604,-0.386C0.604,-0.129 0.48,0 0.232,0ZM0.2,-0.604L0.2,-0.116C0.221,-0.114 0.243,-0.113 0.267,-0.113C0.331,-0.113 0.381,-0.136 0.417,-0.183C0.454,-0.229 0.472,-0.294 0.472,-0.378C0.472,-0.531 0.401,-0.607 0.258,-0.607C0.245,-0.607 0.225,-0.606 0.2,-0.604Z" style="fill:rgb(5,5,5);fill-opacity:0.8;fill-rule:nonzero;"/>
            </g>
            <g transform="matrix(5.6,0,0,5.6,94.661,53.3564)">
                <path d="M0.34,0.01L0.27,0.01L0.002,-0.715L0.142,-0.715L0.308,-0.232L0.482,-0.715L0.619,-0.715L0.34,0.01Z" style="fill:rgb(5,5,5);fill-opacity:0.8;fill-rule:nonzero;"/>
            </g>
            <g transform="matrix(5.6,0,0,5.6,98.2538,53.3564)">
                <path d="M0.039,-0.364C0.039,-0.466 0.067,-0.552 0.123,-0.622C0.179,-0.693 0.253,-0.728 0.347,-0.728C0.45,-0.728 0.528,-0.696 0.583,-0.632C0.637,-0.569 0.664,-0.479 0.664,-0.364C0.664,-0.249 0.636,-0.157 0.579,-0.089C0.522,-0.022 0.441,0.012 0.337,0.012C0.241,0.012 0.167,-0.021 0.116,-0.088C0.065,-0.155 0.039,-0.247 0.039,-0.364ZM0.171,-0.364C0.171,-0.28 0.185,-0.215 0.213,-0.169C0.242,-0.124 0.283,-0.101 0.337,-0.101C0.4,-0.101 0.449,-0.123 0.482,-0.168C0.516,-0.213 0.532,-0.278 0.532,-0.364C0.532,-0.531 0.47,-0.615 0.347,-0.615C0.29,-0.615 0.247,-0.593 0.216,-0.547C0.186,-0.502 0.171,-0.441 0.171,-0.364Z" style="fill:rgb(5,5,5);fill-opacity:0.8;fill-rule:nonzero;"/>
            </g>
            <g transform="matrix(5.6,0,0,5.6,102.303,53.3564)">
                <path d="M0.073,0L0.073,-0.715L0.2,-0.715L0.2,-0.113L0.523,-0.113L0.523,0L0.073,0Z" style="fill:rgb(5,5,5);fill-opacity:0.8;fill-rule:nonzero;"/>
            </g>
            <g transform="matrix(5.6,0,0,5.6,105.095,53.3564)">
                <path d="M0.364,-0.603L0.364,0L0.237,0L0.237,-0.603L0.01,-0.603L0.01,-0.715L0.602,-0.715L0.602,-0.603L0.364,-0.603Z" style="fill:rgb(5,5,5);fill-opacity:0.8;fill-rule:nonzero;"/>
            </g>
            <g transform="matrix(5.6,0,0,5.6,108.103,53.3564)">
                <path d="M0.491,0L0.438,-0.145L0.193,-0.145L0.144,0L0.002,0L0.288,-0.725L0.343,-0.725L0.631,0L0.491,0ZM0.315,-0.506L0.229,-0.242L0.401,-0.242L0.315,-0.506Z" style="fill:rgb(5,5,5);fill-opacity:0.8;fill-rule:nonzero;"/>
            </g>
            <g transform="matrix(5.6,0,0,5.6,111.761,53.3564)">
                <path d="M0.602,-0.657L0.548,-0.555C0.533,-0.569 0.51,-0.582 0.479,-0.595C0.448,-0.608 0.421,-0.615 0.398,-0.615C0.328,-0.615 0.273,-0.591 0.232,-0.543C0.191,-0.496 0.171,-0.432 0.171,-0.352C0.171,-0.275 0.191,-0.215 0.231,-0.169C0.271,-0.123 0.325,-0.101 0.394,-0.101C0.439,-0.101 0.476,-0.113 0.505,-0.138L0.505,-0.278L0.406,-0.278L0.406,-0.387L0.632,-0.387L0.632,-0.066C0.602,-0.042 0.563,-0.022 0.515,-0.009C0.468,0.005 0.42,0.012 0.373,0.012C0.271,0.012 0.189,-0.021 0.129,-0.089C0.069,-0.156 0.039,-0.245 0.039,-0.355C0.039,-0.465 0.072,-0.555 0.137,-0.624C0.203,-0.693 0.291,-0.728 0.401,-0.728C0.48,-0.728 0.547,-0.704 0.602,-0.657Z" style="fill:rgb(5,5,5);fill-opacity:0.8;fill-rule:nonzero;"/>
            </g>
            <g transform="matrix(5.6,0,0,5.6,115.633,53.3564)">
                <path d="M0.2,-0.603L0.2,-0.435L0.437,-0.435L0.437,-0.327L0.2,-0.327L0.2,-0.113L0.524,-0.113L0.524,0L0.073,0L0.073,-0.715L0.53,-0.715L0.53,-0.603L0.2,-0.603Z" style="fill:rgb(5,5,5);fill-opacity:0.8;fill-rule:nonzero;"/>
            </g>
        </g>
        <g transform="matrix(1,0,0,1,-0.359401,-0.00622028)">
            <g transform="matrix(1.06187,0,0,1.42457,970.635,-286.429)">
                <path d="M73.138,59.615C73.138,58.13 71.115,56.924 68.625,56.924L9.62,56.924C7.129,56.924 5.107,58.13 5.107,59.615L5.107,81.013C5.107,82.498 7.129,83.704 9.62,83.704L68.625,83.704C71.115,83.704 73.138,82.498 73.138,81.013L73.138,59.615Z" style="fill-opacity:0.8;"/>
            </g>
            <g transform="matrix(1.06258,0,0,1.42457,1052.73,-286.429)">
                <path d="M73.138,59.615C73.138,58.13 71.117,56.924 68.628,56.924L9.617,56.924C7.128,56.924 5.107,58.13 5.107,59.615L5.107,81.013C5.107,82.498 7.128,83.704 9.617,83.704L68.628,83.704C71.117,83.704 73.138,82.498 73.138,81.013L73.138,59.615Z" style="fill-opacity:0.8;"/>
            </g>
            <g transform="matrix(1.198,0,0,0.958552,962.818,-247.004)">
                <g transform="matrix(6.4,0,0,6.4,24.7674,51.8924)">
                    <path d="M0.039,-0.364C0.039,-0.466 0.067,-0.552 0.123,-0.622C0.179,-0.693 0.253,-0.728 0.347,-0.728C0.45,-0.728 0.528,-0.696 0.583,-0.632C0.637,-0.569 0.664,-0.479 0.664,-0.364C0.664,-0.249 0.636,-0.157 0.579,-0.089C0.522,-0.022 0.441,0.012 0.337,0.012C0.241,0.012 0.167,-0.021 0.116,-0.088C0.065,-0.155 0.039,-0.247 0.039,-0.364ZM0.171,-0.364C0.171,-0.28 0.185,-0.215 0.213,-0.169C0.242,-0.124 0.283,-0.101 0.337,-0.101C0.4,-0.101 0.449,-0.123 0.482,-0.168C0.516,-0.213 0.532,-0.278 0.532,-0.364C0.532,-0.531 0.47,-0.615 0.347,-0.615C0.29,-0.615 0.247,-0.593 0.216,-0.547C0.186,-0.502 0.171,-0.441 0.171,-0.364Z" style="fill:white;fill-rule:nonzero;"/>
                </g>
                <g transform="matrix(6.4,0,0,6.4,29.3954,51.8924)">
                    <path d="M0.073,-0.715L0.2,-0.715L0.2,-0.23C0.2,-0.192 0.212,-0.161 0.235,-0.137C0.259,-0.113 0.291,-0.101 0.332,-0.101C0.378,-0.101 0.414,-0.112 0.439,-0.136C0.465,-0.16 0.478,-0.192 0.478,-0.233L0.478,-0.715L0.604,-0.715L0.604,-0.223C0.604,-0.15 0.58,-0.092 0.531,-0.05C0.481,-0.009 0.415,0.012 0.333,0.012C0.25,0.012 0.186,-0.008 0.141,-0.049C0.096,-0.09 0.073,-0.148 0.073,-0.224L0.073,-0.715Z" style="fill:white;fill-rule:nonzero;"/>
                </g>
                <g transform="matrix(6.4,0,0,6.4,33.8609,51.8924)">
                    <path d="M0.364,-0.603L0.364,0L0.237,0L0.237,-0.603L0.01,-0.603L0.01,-0.715L0.602,-0.715L0.602,-0.603L0.364,-0.603Z" style="fill:white;fill-rule:nonzero;"/>
                </g>
                <g transform="matrix(6.4,0,0,6.4,39.845,51.8924)">
                    <path d="M0.037,-0.379C0.037,-0.477 0.06,-0.56 0.108,-0.627C0.156,-0.694 0.22,-0.728 0.299,-0.728C0.466,-0.728 0.549,-0.607 0.549,-0.364C0.549,-0.25 0.526,-0.16 0.481,-0.092C0.437,-0.024 0.374,0.01 0.292,0.01C0.205,0.01 0.141,-0.021 0.099,-0.084C0.057,-0.146 0.037,-0.245 0.037,-0.379ZM0.168,-0.371C0.168,-0.275 0.178,-0.205 0.196,-0.16C0.215,-0.115 0.246,-0.093 0.289,-0.093C0.335,-0.093 0.368,-0.113 0.388,-0.154C0.407,-0.194 0.417,-0.266 0.417,-0.37C0.417,-0.467 0.408,-0.534 0.389,-0.57C0.37,-0.607 0.34,-0.625 0.297,-0.625C0.211,-0.625 0.168,-0.541 0.168,-0.371Z" style="fill:white;fill-rule:nonzero;"/>
                </g>
                <g transform="matrix(6.4,0,0,6.4,43.723,51.8924)">
                    <path d="M0.278,0L0.278,-0.516L0.132,-0.428L0.132,-0.55C0.226,-0.596 0.3,-0.652 0.354,-0.718L0.405,-0.718L0.405,0L0.278,0Z" style="fill:white;fill-rule:nonzero;"/>
                </g>
                <g transform="matrix(6.4,0,0,6.4,47.601,51.8924)">
                    <rect x="0.053" y="-0.347" width="0.258" height="0.115" style="fill:white;fill-rule:nonzero;"/>
                </g>
                <g transform="matrix(6.4,0,0,6.4,50.079,51.8924)">
                    <path d="M0.278,0L0.278,-0.516L0.132,-0.428L0.132,-0.55C0.226,-0.596 0.3,-0.652 0.354,-0.718L0.405,-0.718L0.405,0L0.278,0Z" style="fill:white;fill-rule:nonzero;"/>
                </g>
                <g transform="matrix(6.4,0,0,6.4,53.957,51.8924)">
                    <path d="M0.371,-0.729L0.438,-0.658C0.39,-0.633 0.346,-0.599 0.306,-0.558C0.266,-0.517 0.239,-0.476 0.224,-0.436C0.258,-0.451 0.287,-0.458 0.312,-0.458C0.379,-0.458 0.434,-0.438 0.474,-0.396C0.515,-0.354 0.536,-0.297 0.536,-0.226C0.536,-0.156 0.515,-0.099 0.473,-0.055C0.431,-0.012 0.378,0.01 0.314,0.01C0.148,0.01 0.064,-0.094 0.064,-0.302C0.064,-0.389 0.097,-0.478 0.161,-0.567C0.225,-0.656 0.295,-0.711 0.371,-0.729ZM0.196,-0.229C0.196,-0.142 0.233,-0.098 0.307,-0.098C0.337,-0.098 0.361,-0.109 0.379,-0.131C0.397,-0.152 0.406,-0.182 0.406,-0.221C0.406,-0.261 0.397,-0.292 0.378,-0.316C0.359,-0.339 0.335,-0.351 0.306,-0.351C0.233,-0.351 0.196,-0.31 0.196,-0.229Z" style="fill:white;fill-rule:nonzero;"/>
                </g>
            </g>
            <g transform="matrix(1.198,0,0,0.958552,1044.91,-246.968)">
                <g transform="matrix(6.4,0,0,6.4,24.7674,51.8924)">
                    <path d="M0.039,-0.364C0.039,-0.466 0.067,-0.552 0.123,-0.622C0.179,-0.693 0.253,-0.728 0.347,-0.728C0.45,-0.728 0.528,-0.696 0.583,-0.632C0.637,-0.569 0.664,-0.479 0.664,-0.364C0.664,-0.249 0.636,-0.157 0.579,-0.089C0.522,-0.022 0.441,0.012 0.337,0.012C0.241,0.012 0.167,-0.021 0.116,-0.088C0.065,-0.155 0.039,-0.247 0.039,-0.364ZM0.171,-0.364C0.171,-0.28 0.185,-0.215 0.213,-0.169C0.242,-0.124 0.283,-0.101 0.337,-0.101C0.4,-0.101 0.449,-0.123 0.482,-0.168C0.516,-0.213 0.532,-0.278 0.532,-0.364C0.532,-0.531 0.47,-0.615 0.347,-0.615C0.29,-0.615 0.247,-0.593 0.216,-0.547C0.186,-0.502 0.171,-0.441 0.171,-0.364Z" style="fill:white;fill-rule:nonzero;"/>
                </g>
                <g transform="matrix(6.4,0,0,6.4,29.3954,51.8924)">
                    <path d="M0.073,-0.715L0.2,-0.715L0.2,-0.23C0.2,-0.192 0.212,-0.161 0.235,-0.137C0.259,-0.113 0.291,-0.101 0.332,-0.101C0.378,-0.101 0.414,-0.112 0.439,-0.136C0.465,-0.16 0.478,-0.192 0.478,-0.233L0.478,-0.715L0.604,-0.715L0.604,-0.223C0.604,-0.15 0.58,-0.092 0.531,-0.05C0.481,-0.009 0.415,0.012 0.333,0.012C0.25,0.012 0.186,-0.008 0.141,-0.049C0.096,-0.09 0.073,-0.148 0.073,-0.224L0.073,-0.715Z" style="fill:white;fill-rule:nonzero;"/>
                </g>
                <g transform="matrix(6.4,0,0,6.4,33.8609,51.8924)">
                    <path d="M0.364,-0.603L0.364,0L0.237,0L0.237,-0.603L0.01,-0.603L0.01,-0.715L0.602,-0.715L0.602,-0.603L0.364,-0.603Z" style="fill:white;fill-rule:nonzero;"/>
                </g>
                <g transform="matrix(6.4,0,0,6.4,39.845,51.8924)">
                    <path d="M0.278,0L0.278,-0.516L0.132,-0.428L0.132,-0.55C0.226,-0.596 0.3,-0.652 0.354,-0.718L0.405,-0.718L0.405,0L0.278,0Z" style="fill:white;fill-rule:nonzero;"/>
                </g>
                <g transform="matrix(6.4,0,0,6.4,43.723,51.8924)">
                    <path d="M0.262,0L0.123,0C0.176,-0.163 0.267,-0.364 0.396,-0.601L0.069,-0.601L0.069,-0.718L0.562,-0.718L0.562,-0.664L0.498,-0.542C0.476,-0.501 0.454,-0.457 0.431,-0.408C0.407,-0.359 0.384,-0.31 0.362,-0.26C0.34,-0.209 0.321,-0.162 0.304,-0.118C0.287,-0.075 0.273,-0.035 0.262,0Z" style="fill:white;fill-rule:nonzero;"/>
                </g>
                <g transform="matrix(6.4,0,0,6.4,47.601,51.8924)">
                    <rect x="0.053" y="-0.347" width="0.258" height="0.115" style="fill:white;fill-rule:nonzero;"/>
                </g>
                <g transform="matrix(6.4,0,0,6.4,50.079,51.8924)">
                    <path d="M0.07,-0.06L0.133,-0.158C0.171,-0.118 0.212,-0.098 0.256,-0.098C0.337,-0.098 0.377,-0.136 0.377,-0.212C0.377,-0.246 0.366,-0.274 0.342,-0.296C0.319,-0.318 0.287,-0.329 0.248,-0.329L0.225,-0.329L0.225,-0.433L0.244,-0.433C0.317,-0.433 0.354,-0.464 0.354,-0.524C0.354,-0.588 0.319,-0.62 0.251,-0.62C0.216,-0.62 0.182,-0.604 0.149,-0.57L0.089,-0.658C0.105,-0.677 0.129,-0.693 0.161,-0.707C0.194,-0.721 0.226,-0.728 0.259,-0.728C0.33,-0.728 0.386,-0.712 0.426,-0.679C0.465,-0.647 0.485,-0.601 0.485,-0.542C0.485,-0.473 0.455,-0.42 0.396,-0.383C0.471,-0.347 0.509,-0.287 0.509,-0.205C0.509,-0.137 0.487,-0.084 0.442,-0.046C0.397,-0.009 0.334,0.01 0.255,0.01C0.183,0.01 0.121,-0.014 0.07,-0.06Z" style="fill:white;fill-rule:nonzero;"/>
                </g>
                <g transform="matrix(6.4,0,0,6.4,53.957,51.8924)">
                    <path d="M0.076,0L0.076,-0.037L0.302,-0.371C0.347,-0.437 0.37,-0.493 0.37,-0.539C0.37,-0.593 0.338,-0.62 0.273,-0.62C0.223,-0.62 0.184,-0.594 0.153,-0.542L0.068,-0.609C0.085,-0.643 0.111,-0.671 0.148,-0.694C0.184,-0.717 0.224,-0.728 0.268,-0.728C0.341,-0.728 0.399,-0.711 0.44,-0.678C0.481,-0.645 0.502,-0.598 0.502,-0.539C0.502,-0.485 0.475,-0.417 0.422,-0.336L0.276,-0.113L0.544,-0.113L0.544,0L0.076,0Z" style="fill:white;fill-rule:nonzero;"/>
                </g>
            </g>
        </g>
    </g>
</svg>
