<?xml version="1.0" encoding="UTF-8" standalone="no"?>
<!DOCTYPE svg PUBLIC "-//W3C//DTD SVG 1.1//EN" "http://www.w3.org/Graphics/SVG/1.1/DTD/svg11.dtd">
<svg width="100%" height="100%" viewBox="0 0 360 380" version="1.1" xmlns="http://www.w3.org/2000/svg" xmlns:xlink="http://www.w3.org/1999/xlink" xml:space="preserve" xmlns:serif="http://www.serif.com/" style="fill-rule:evenodd;clip-rule:evenodd;stroke-linecap:round;stroke-linejoin:round;stroke-miterlimit:1.5;">
    <g id="panel" transform="matrix(0.834722,0,0,1.04324,-691.337,250.623)">
        <g transform="matrix(7.18802,0,0,0.958552,828.225,-240.235)">
            <rect x="0" y="0" width="60" height="380" style="fill:rgb(128,187,254);"/>
        </g>
        <g transform="matrix(2.55042,0,0,1.81823,904.824,-538.329)">
            <rect x="-30.034" y="347.456" width="169.102" height="16.91" style="fill:rgb(4,4,4);fill-opacity:0.3;"/>
        </g>
        <g transform="matrix(2.55042,0,0,1.76292,904.824,-852.772)">
            <rect x="-30.034" y="347.456" width="169.102" height="16.91" style="fill:rgb(4,4,4);fill-opacity:0.3;"/>
        </g>
        <g transform="matrix(19.2563,0,0,25.5659,108.277,-292.473)">
            <rect x="37.388" y="2.043" width="22.397" height="14.247" style="fill:none;stroke:black;stroke-opacity:0.6;stroke-width:0.03px;"/>
        </g>
        <g transform="matrix(1.198,0,0,0.958552,1006.9,-213.396)">
            <g transform="matrix(13,0,0,13,5.88745,0)">
                <path d="M0.232,0L0.073,0L0.073,-0.715C0.174,-0.718 0.238,-0.72 0.264,-0.72C0.368,-0.72 0.451,-0.69 0.512,-0.629C0.573,-0.568 0.604,-0.487 0.604,-0.386C0.604,-0.129 0.48,0 0.232,0ZM0.2,-0.604L0.2,-0.116C0.221,-0.114 0.243,-0.113 0.267,-0.113C0.331,-0.113 0.381,-0.136 0.417,-0.183C0.454,-0.229 0.472,-0.294 0.472,-0.378C0.472,-0.531 0.401,-0.607 0.258,-0.607C0.245,-0.607 0.225,-0.606 0.2,-0.604Z" style="fill-rule:nonzero;"/>
            </g>
            <g transform="matrix(13,0,0,13,14.241,0)">
                <path d="M0.2,-0.603L0.2,-0.435L0.437,-0.435L0.437,-0.327L0.2,-0.327L0.2,-0.113L0.524,-0.113L0.524,0L0.073,0L0.073,-0.715L0.53,-0.715L0.53,-0.603L0.2,-0.603Z" style="fill-rule:nonzero;"/>
            </g>
            <g transform="matrix(13,0,0,13,21.636,0)">
                <path d="M0.364,-0.603L0.364,0L0.237,0L0.237,-0.603L0.01,-0.603L0.01,-0.715L0.602,-0.715L0.602,-0.603L0.364,-0.603Z" style="fill-rule:nonzero;"/>
            </g>
            <g transform="matrix(13,0,0,13,28.8152,0)">
                <path d="M0.039,-0.364C0.039,-0.466 0.067,-0.552 0.123,-0.622C0.179,-0.693 0.253,-0.728 0.347,-0.728C0.45,-0.728 0.528,-0.696 0.583,-0.632C0.637,-0.569 0.664,-0.479 0.664,-0.364C0.664,-0.249 0.636,-0.157 0.579,-0.089C0.522,-0.022 0.441,0.012 0.337,0.012C0.241,0.012 0.167,-0.021 0.116,-0.088C0.065,-0.155 0.039,-0.247 0.039,-0.364ZM0.171,-0.364C0.171,-0.28 0.185,-0.215 0.213,-0.169C0.242,-0.124 0.283,-0.101 0.337,-0.101C0.4,-0.101 0.449,-0.123 0.482,-0.168C0.516,-0.213 0.532,-0.278 0.532,-0.364C0.532,-0.531 0.47,-0.615 0.347,-0.615C0.29,-0.615 0.247,-0.593 0.216,-0.547C0.186,-0.502 0.171,-0.441 0.171,-0.364Z" style="fill-rule:nonzero;"/>
            </g>
            <g transform="matrix(13,0,0,13,37.9558,0)">
                <path d="M0.073,-0.715L0.2,-0.715L0.2,-0.23C0.2,-0.192 0.212,-0.161 0.235,-0.137C0.259,-0.113 0.291,-0.101 0.332,-0.101C0.378,-0.101 0.414,-0.112 0.439,-0.136C0.465,-0.16 0.478,-0.192 0.478,-0.233L0.478,-0.715L0.604,-0.715L0.604,-0.223C0.604,-0.15 0.58,-0.092 0.531,-0.05C0.481,-0.009 0.415,0.012 0.333,0.012C0.25,0.012 0.186,-0.008 0.141,-0.049C0.096,-0.09 0.073,-0.148 0.073,-0.224L0.073,-0.715Z" style="fill-rule:nonzero;"/>
            </g>
            <g transform="matrix(13,0,0,13,46.7664,0)">
                <path d="M0.477,0L0.286,-0.295C0.266,-0.296 0.24,-0.297 0.205,-0.299L0.205,0L0.073,0L0.073,-0.715C0.08,-0.715 0.108,-0.717 0.156,-0.719C0.204,-0.721 0.242,-0.723 0.271,-0.723C0.453,-0.723 0.544,-0.652 0.544,-0.512C0.544,-0.469 0.531,-0.431 0.506,-0.396C0.481,-0.361 0.45,-0.337 0.412,-0.322L0.623,0L0.477,0ZM0.205,-0.605L0.205,-0.406C0.229,-0.404 0.246,-0.403 0.259,-0.403C0.312,-0.403 0.351,-0.411 0.375,-0.426C0.4,-0.441 0.412,-0.47 0.412,-0.513C0.412,-0.548 0.399,-0.573 0.373,-0.587C0.346,-0.601 0.305,-0.608 0.248,-0.608C0.234,-0.608 0.22,-0.607 0.205,-0.605Z" style="fill-rule:nonzero;"/>
            </g>
        </g>
        <g transform="matrix(0.840359,0,0,0.840359,211.831,16.2108)">
            <g transform="matrix(1.198,0,0,0.958552,893.633,-224.914)">
                <g transform="matrix(9,0,0,9,64.0056,347.267)">
                    <path d="M0.919,0L0.762,0L0.762,-0.308C0.762,-0.391 0.732,-0.432 0.671,-0.432C0.643,-0.432 0.62,-0.42 0.602,-0.395C0.583,-0.369 0.574,-0.339 0.574,-0.303L0.574,0L0.417,0L0.417,-0.312C0.417,-0.392 0.387,-0.432 0.327,-0.432C0.298,-0.432 0.274,-0.42 0.256,-0.396C0.238,-0.372 0.229,-0.341 0.229,-0.301L0.229,0L0.072,0L0.072,-0.54L0.229,-0.54L0.229,-0.456L0.231,-0.456C0.25,-0.486 0.275,-0.51 0.307,-0.528C0.338,-0.545 0.371,-0.553 0.405,-0.553C0.481,-0.553 0.533,-0.519 0.561,-0.451C0.603,-0.519 0.663,-0.553 0.743,-0.553C0.86,-0.553 0.919,-0.481 0.919,-0.335L0.919,0Z" style="fill:rgb(10,1,1);fill-rule:nonzero;"/>
                </g>
                <g transform="matrix(9,0,0,9,72.978,347.267)">
                    <path d="M0.551,-0.226L0.196,-0.226C0.201,-0.142 0.252,-0.1 0.347,-0.1C0.407,-0.1 0.459,-0.115 0.505,-0.144L0.505,-0.028C0.456,-0.001 0.391,0.013 0.312,0.013C0.226,0.013 0.159,-0.011 0.111,-0.06C0.063,-0.108 0.04,-0.176 0.04,-0.262C0.04,-0.348 0.065,-0.419 0.116,-0.472C0.167,-0.526 0.23,-0.553 0.307,-0.553C0.384,-0.553 0.443,-0.53 0.487,-0.484C0.53,-0.437 0.551,-0.374 0.551,-0.292L0.551,-0.226ZM0.404,-0.324C0.404,-0.405 0.372,-0.445 0.306,-0.445C0.279,-0.445 0.255,-0.434 0.234,-0.412C0.214,-0.39 0.201,-0.361 0.195,-0.324L0.404,-0.324Z" style="fill:rgb(10,1,1);fill-rule:nonzero;"/>
                </g>
                <g transform="matrix(9,0,0,9,78.3513,347.267)">
                    <rect x="0.069" y="-0.799" width="0.157" height="0.799" style="fill:rgb(10,1,1);fill-rule:nonzero;"/>
                </g>
                <g transform="matrix(9,0,0,9,81.1494,347.267)">
                    <path d="M0.593,0L0.436,0L0.436,-0.076L0.433,-0.076C0.395,-0.017 0.339,0.013 0.264,0.013C0.195,0.013 0.141,-0.011 0.1,-0.06C0.06,-0.108 0.04,-0.174 0.04,-0.258C0.04,-0.346 0.062,-0.418 0.108,-0.472C0.153,-0.526 0.212,-0.553 0.286,-0.553C0.356,-0.553 0.405,-0.528 0.433,-0.477L0.436,-0.477L0.438,-0.707L0.593,-0.658L0.593,0ZM0.438,-0.306C0.438,-0.342 0.427,-0.372 0.405,-0.396C0.383,-0.42 0.356,-0.432 0.323,-0.432C0.284,-0.432 0.254,-0.417 0.232,-0.386C0.21,-0.356 0.199,-0.315 0.199,-0.263C0.199,-0.213 0.21,-0.175 0.231,-0.148C0.252,-0.121 0.281,-0.108 0.318,-0.108C0.353,-0.108 0.382,-0.122 0.404,-0.15C0.427,-0.179 0.438,-0.215 0.438,-0.261L0.438,-0.306Z" style="fill:rgb(10,1,1);fill-rule:nonzero;"/>
                </g>
                <g transform="matrix(9,0,0,9,87.2654,347.267)">
                    <path d="M0.551,-0.226L0.196,-0.226C0.201,-0.142 0.252,-0.1 0.347,-0.1C0.407,-0.1 0.459,-0.115 0.505,-0.144L0.505,-0.028C0.456,-0.001 0.391,0.013 0.312,0.013C0.226,0.013 0.159,-0.011 0.111,-0.06C0.063,-0.108 0.04,-0.176 0.04,-0.262C0.04,-0.348 0.065,-0.419 0.116,-0.472C0.167,-0.526 0.23,-0.553 0.307,-0.553C0.384,-0.553 0.443,-0.53 0.487,-0.484C0.53,-0.437 0.551,-0.374 0.551,-0.292L0.551,-0.226ZM0.404,-0.324C0.404,-0.405 0.372,-0.445 0.306,-0.445C0.279,-0.445 0.255,-0.434 0.234,-0.412C0.214,-0.39 0.201,-0.361 0.195,-0.324L0.404,-0.324Z" style="fill:rgb(10,1,1);fill-rule:nonzero;"/>
                </g>
                <g transform="matrix(9,0,0,9,92.6386,347.267)">
                    <path d="M0.416,-0.397C0.397,-0.408 0.374,-0.414 0.346,-0.414C0.31,-0.414 0.282,-0.4 0.261,-0.373C0.24,-0.345 0.229,-0.308 0.229,-0.26L0.229,0L0.072,0L0.072,-0.54L0.229,-0.54L0.229,-0.438L0.231,-0.438C0.257,-0.512 0.305,-0.549 0.374,-0.549C0.392,-0.549 0.406,-0.547 0.416,-0.543L0.416,-0.397Z" style="fill:rgb(10,1,1);fill-rule:nonzero;"/>
                </g>
            </g>
            <g transform="matrix(1.198,0,0,0.958552,893.495,-231.786)">
                <g transform="matrix(9,0,0,9,68.6657,347.267)">
                    <path d="M0.058,-0.145C0.112,-0.112 0.165,-0.096 0.216,-0.096C0.281,-0.096 0.314,-0.113 0.314,-0.148C0.314,-0.173 0.287,-0.193 0.233,-0.21C0.166,-0.231 0.12,-0.254 0.095,-0.28C0.07,-0.305 0.058,-0.34 0.058,-0.383C0.058,-0.436 0.079,-0.478 0.122,-0.508C0.165,-0.538 0.221,-0.553 0.291,-0.553C0.34,-0.553 0.388,-0.546 0.434,-0.531L0.434,-0.407C0.392,-0.432 0.346,-0.444 0.295,-0.444C0.27,-0.444 0.25,-0.44 0.235,-0.431C0.22,-0.422 0.212,-0.41 0.212,-0.396C0.212,-0.371 0.235,-0.351 0.28,-0.335C0.329,-0.319 0.366,-0.304 0.39,-0.291C0.415,-0.278 0.434,-0.26 0.447,-0.238C0.459,-0.216 0.466,-0.191 0.466,-0.163C0.466,-0.107 0.444,-0.064 0.399,-0.033C0.354,-0.002 0.295,0.013 0.22,0.013C0.162,0.013 0.107,0.004 0.058,-0.015L0.058,-0.145Z" style="fill:rgb(10,1,1);fill-rule:nonzero;"/>
                </g>
                <g transform="matrix(9,0,0,9,73.2436,347.267)">
                    <path d="M0.39,-0.006C0.366,0.007 0.33,0.013 0.282,0.013C0.167,0.013 0.11,-0.047 0.11,-0.167L0.11,-0.422L0.021,-0.422L0.021,-0.54L0.11,-0.54L0.11,-0.659L0.267,-0.704L0.267,-0.54L0.39,-0.54L0.39,-0.422L0.267,-0.422L0.267,-0.195C0.267,-0.137 0.289,-0.108 0.335,-0.108C0.353,-0.108 0.371,-0.114 0.39,-0.124L0.39,-0.006Z" style="fill:rgb(10,1,1);fill-rule:nonzero;"/>
                </g>
                <g transform="matrix(6.6,0,0,6.6,77.1051,347.267)">
                    <path d="M0.106,0.032L0.043,-0.021L0.122,-0.115C0.067,-0.183 0.04,-0.268 0.04,-0.368C0.04,-0.487 0.075,-0.584 0.144,-0.658C0.213,-0.732 0.305,-0.769 0.418,-0.769C0.5,-0.769 0.571,-0.748 0.63,-0.706L0.698,-0.785L0.761,-0.733L0.689,-0.65C0.748,-0.581 0.778,-0.493 0.778,-0.384C0.778,-0.266 0.743,-0.17 0.674,-0.097C0.605,-0.023 0.516,0.013 0.406,0.013C0.32,0.013 0.246,-0.011 0.182,-0.059L0.106,0.032ZM0.54,-0.6C0.506,-0.628 0.463,-0.642 0.413,-0.642C0.349,-0.642 0.297,-0.617 0.258,-0.569C0.218,-0.52 0.199,-0.455 0.199,-0.375C0.199,-0.319 0.208,-0.273 0.227,-0.234L0.54,-0.6ZM0.275,-0.165C0.311,-0.131 0.356,-0.114 0.409,-0.114C0.473,-0.114 0.524,-0.137 0.563,-0.184C0.601,-0.231 0.62,-0.294 0.62,-0.374C0.62,-0.435 0.61,-0.488 0.588,-0.533L0.275,-0.165Z" style="fill-rule:nonzero;"/>
                </g>
                <g transform="matrix(9,0,0,9,82.6053,347.267)">
                    <path d="M0.551,-0.226L0.196,-0.226C0.201,-0.142 0.252,-0.1 0.347,-0.1C0.407,-0.1 0.459,-0.115 0.505,-0.144L0.505,-0.028C0.456,-0.001 0.391,0.013 0.312,0.013C0.226,0.013 0.159,-0.011 0.111,-0.06C0.063,-0.108 0.04,-0.176 0.04,-0.262C0.04,-0.348 0.065,-0.419 0.116,-0.472C0.167,-0.526 0.23,-0.553 0.307,-0.553C0.384,-0.553 0.443,-0.53 0.487,-0.484C0.53,-0.437 0.551,-0.374 0.551,-0.292L0.551,-0.226ZM0.404,-0.324C0.404,-0.405 0.372,-0.445 0.306,-0.445C0.279,-0.445 0.255,-0.434 0.234,-0.412C0.214,-0.39 0.201,-0.361 0.195,-0.324L0.404,-0.324Z" style="fill:rgb(10,1,1);fill-rule:nonzero;"/>
                </g>
                <g transform="matrix(9,0,0,9,87.9786,347.267)">
                    <path d="M0.416,-0.397C0.397,-0.408 0.374,-0.414 0.346,-0.414C0.31,-0.414 0.282,-0.4 0.261,-0.373C0.24,-0.345 0.229,-0.308 0.229,-0.26L0.229,0L0.072,0L0.072,-0.54L0.229,-0.54L0.229,-0.438L0.231,-0.438C0.257,-0.512 0.305,-0.549 0.374,-0.549C0.392,-0.549 0.406,-0.547 0.416,-0.543L0.416,-0.397Z" style="fill:rgb(10,1,1);fill-rule:nonzero;"/>
                </g>
            </g>
        </g>
        <g transform="matrix(0.551125,0,0,8.78869,1209.43,-705.628)">
            <path d="M73.138,57.36C73.138,57.119 69.241,56.924 64.443,56.924L5.107,56.924L5.107,83.704L64.443,83.704C69.241,83.704 73.138,83.509 73.138,83.268L73.138,57.36Z" style="fill-opacity:0.7;"/>
        </g>
        <g transform="matrix(4.31003,0,0,1.09806,897.019,-32.4857)">
            <rect x="5.107" y="56.924" width="68.031" height="26.78" style="fill-opacity:0.5;"/>
        </g>
        <g transform="matrix(4.31003,0,0,1.09458,897.019,-2.88098)">
            <path d="M73.138,56.924L5.107,56.924L5.107,80.201C5.107,82.134 5.605,83.704 6.219,83.704L72.026,83.704C72.639,83.704 73.138,82.134 73.138,80.201L73.138,56.924Z" style="fill:white;fill-opacity:0.5;"/>
        </g>
        <g transform="matrix(0.551125,0,0,8.78869,834.293,-705.628)">
            <path d="M73.138,57.36C73.138,57.119 69.241,56.924 64.443,56.924L13.802,56.924C9.003,56.924 5.107,57.119 5.107,57.36L5.107,83.268C5.107,83.509 9.003,83.704 13.802,83.704L64.443,83.704C69.241,83.704 73.138,83.509 73.138,83.268L73.138,57.36Z" style="fill:white;fill-opacity:0.4;"/>
        </g>
        <g transform="matrix(0.551125,0,0,1.79756,834.293,-61.7228)">
            <path d="M73.138,59.057C73.138,57.879 69.241,56.924 64.443,56.924L13.802,56.924C9.003,56.924 5.107,57.879 5.107,59.057L5.107,81.571C5.107,82.748 9.003,83.704 13.802,83.704L64.443,83.704C69.241,83.704 73.138,82.748 73.138,81.571L73.138,59.057Z" style="fill:white;fill-opacity:0.4;"/>
        </g>
        <g transform="matrix(4.31003,0,0,8.78869,897.019,-705.628)">
            <rect x="5.107" y="56.924" width="68.031" height="26.78" style="fill:rgb(13,13,13);fill-opacity:0.9;"/>
        </g>
        <g transform="matrix(0.551125,0,0,8.79472,878.722,-705.972)">
            <path d="M73.138,56.924L13.802,56.924C9.003,56.924 5.107,57.119 5.107,57.36L5.107,83.268C5.107,83.509 9.003,83.704 13.802,83.704L73.138,83.704L73.138,56.924Z" style="fill:white;fill-opacity:0.8;"/>
        </g>
        <g transform="matrix(1.0256e-16,-1.34016,1.26833,6.214e-17,817.036,-156.656)">
            <path d="M25.865,66.58C25.865,66.058 25.544,65.635 25.149,65.635L23.719,65.635C23.324,65.635 23.004,66.058 23.004,66.58L23.004,325.433C23.004,325.954 23.324,326.377 23.719,326.377L25.149,326.377C25.544,326.377 25.865,325.954 25.865,325.433L25.865,66.58Z" style="fill:rgb(128,187,254);fill-opacity:0.8;"/>
        </g>
        <g transform="matrix(1.0256e-16,-1.34016,1.26833,6.214e-17,817.036,-127.724)">
            <path d="M25.865,66.58C25.865,66.058 25.544,65.635 25.149,65.635L23.719,65.635C23.324,65.635 23.004,66.058 23.004,66.58L23.004,325.433C23.004,325.954 23.324,326.377 23.719,326.377L25.149,326.377C25.544,326.377 25.865,325.954 25.865,325.433L25.865,66.58Z" style="fill:rgb(128,187,254);fill-opacity:0.8;"/>
        </g>
        <g transform="matrix(1.0256e-16,-1.34016,1.26833,6.214e-17,817.036,-98.7925)">
            <path d="M25.865,66.58C25.865,66.058 25.544,65.635 25.149,65.635L23.719,65.635C23.324,65.635 23.004,66.058 23.004,66.58L23.004,325.433C23.004,325.954 23.324,326.377 23.719,326.377L25.149,326.377C25.544,326.377 25.865,325.954 25.865,325.433L25.865,66.58Z" style="fill:rgb(128,187,254);fill-opacity:0.8;"/>
        </g>
        <g transform="matrix(1.0256e-16,-1.34016,1.26833,6.214e-17,817.036,-69.8608)">
            <path d="M25.865,66.58C25.865,66.058 25.544,65.635 25.149,65.635L23.719,65.635C23.324,65.635 23.004,66.058 23.004,66.58L23.004,325.433C23.004,325.954 23.324,326.377 23.719,326.377L25.149,326.377C25.544,326.377 25.865,325.954 25.865,325.433L25.865,66.58Z" style="fill:rgb(128,187,254);fill-opacity:0.8;"/>
        </g>
        <g transform="matrix(1.0256e-16,-1.34016,1.26833,6.214e-17,817.036,-40.9291)">
            <path d="M25.865,66.58C25.865,66.058 25.544,65.635 25.149,65.635L23.719,65.635C23.324,65.635 23.004,66.058 23.004,66.58L23.004,325.433C23.004,325.954 23.324,326.377 23.719,326.377L25.149,326.377C25.544,326.377 25.865,325.954 25.865,325.433L25.865,66.58Z" style="fill:rgb(128,187,254);fill-opacity:0.8;"/>
        </g>
        <g transform="matrix(1.0256e-16,-1.34016,1.26833,6.214e-17,817.036,-11.9974)">
            <path d="M25.865,66.58C25.865,66.058 25.544,65.635 25.149,65.635L23.719,65.635C23.324,65.635 23.004,66.058 23.004,66.58L23.004,325.433C23.004,325.954 23.324,326.377 23.719,326.377L25.149,326.377C25.544,326.377 25.865,325.954 25.865,325.433L25.865,66.58Z" style="fill:rgb(128,187,254);fill-opacity:0.8;"/>
        </g>
        <g transform="matrix(1.0256e-16,-1.34016,1.26374,6.19149e-17,817.338,16.9343)">
            <path d="M25.865,66.583C25.865,66.06 25.544,65.635 25.149,65.635L23.719,65.635C23.324,65.635 23.004,66.06 23.004,66.583L23.004,325.429C23.004,325.952 23.324,326.377 23.719,326.377L25.149,326.377C25.544,326.377 25.865,325.952 25.865,325.429L25.865,66.583Z" style="fill:rgb(128,187,254);fill-opacity:0.8;"/>
        </g>
        <g transform="matrix(1.0256e-16,-1.34016,1.28009,6.27159e-17,813.199,45.866)">
            <path d="M25.865,66.571C25.865,66.055 25.544,65.635 25.149,65.635L23.719,65.635C23.324,65.635 23.004,66.055 23.004,66.571L23.004,325.441C23.004,325.958 23.324,326.377 23.719,326.377L25.149,326.377C25.544,326.377 25.865,325.958 25.865,325.441L25.865,66.571Z" style="fill:rgb(128,187,254);fill-opacity:0.8;"/>
        </g>
        <g transform="matrix(0.799203,0,0,1.34672,835.491,-231.503)">
            <path d="M38.128,207.245C38.128,206.459 36.784,205.822 35.13,205.822L15.829,205.822C14.175,205.822 12.831,206.459 12.831,207.245L12.831,213.815C12.831,214.601 14.175,215.238 15.829,215.238L35.13,215.238C36.784,215.238 38.128,214.601 38.128,213.815L38.128,207.245Z" style="fill:rgb(0,16,90);stroke:rgb(77,77,77);stroke-width:0.39px;stroke-linecap:square;"/>
        </g>
        <g transform="matrix(0.184191,0,0,0.151981,920.843,8.45269)">
            <ellipse cx="29.183" cy="141.909" rx="13.008" ry="12.614" style="fill:white;stroke:black;stroke-opacity:0.7;stroke-width:6.4px;stroke-linecap:butt;stroke-miterlimit:1.41421;"/>
        </g>
        <g transform="matrix(0.184191,0,0,0.151981,956.597,8.45269)">
            <ellipse cx="29.183" cy="141.909" rx="13.008" ry="12.614" style="fill:white;stroke:black;stroke-opacity:0.7;stroke-width:6.4px;stroke-linecap:butt;stroke-miterlimit:1.41421;"/>
        </g>
        <g transform="matrix(0.184191,0,0,0.151981,992.663,8.45269)">
            <ellipse cx="29.183" cy="141.909" rx="13.008" ry="12.614" style="fill:white;stroke:black;stroke-opacity:0.7;stroke-width:6.4px;stroke-linecap:butt;stroke-miterlimit:1.41421;"/>
        </g>
        <g transform="matrix(0.184191,0,0,0.151981,1028.57,8.45269)">
            <ellipse cx="29.183" cy="141.909" rx="13.008" ry="12.614" style="fill:white;stroke:black;stroke-opacity:0.7;stroke-width:6.4px;stroke-linecap:butt;stroke-miterlimit:1.41421;"/>
        </g>
        <g transform="matrix(0.184191,0,0,0.151981,1064.48,8.45269)">
            <ellipse cx="29.183" cy="141.909" rx="13.008" ry="12.614" style="fill:white;stroke:black;stroke-opacity:0.7;stroke-width:6.4px;stroke-linecap:butt;stroke-miterlimit:1.41421;"/>
        </g>
        <g transform="matrix(0.184191,0,0,0.151981,1100.39,8.45269)">
            <ellipse cx="29.183" cy="141.909" rx="13.008" ry="12.614" style="fill:white;stroke:black;stroke-opacity:0.7;stroke-width:6.4px;stroke-linecap:butt;stroke-miterlimit:1.41421;"/>
        </g>
        <g transform="matrix(0.184191,0,0,0.151981,1136.3,8.45269)">
            <ellipse cx="29.183" cy="141.909" rx="13.008" ry="12.614" style="fill:white;stroke:black;stroke-opacity:0.7;stroke-width:6.4px;stroke-linecap:butt;stroke-miterlimit:1.41421;"/>
        </g>
        <g transform="matrix(0.184191,0,0,0.151981,1172.21,8.45269)">
            <ellipse cx="29.183" cy="141.909" rx="13.008" ry="12.614" style="fill:white;stroke:black;stroke-opacity:0.7;stroke-width:6.4px;stroke-linecap:butt;stroke-miterlimit:1.41421;"/>
        </g>
        <g transform="matrix(0.184191,0,0,0.151981,1206.87,-221.752)">
            <ellipse cx="29.183" cy="141.909" rx="13.008" ry="12.614" style="fill:white;stroke:black;stroke-opacity:0.7;stroke-width:6.4px;stroke-linecap:butt;stroke-miterlimit:1.41421;"/>
        </g>
        <g transform="matrix(0.184191,0,0,0.151981,1206.87,-192.821)">
            <ellipse cx="29.183" cy="141.909" rx="13.008" ry="12.614" style="fill:white;stroke:black;stroke-opacity:0.7;stroke-width:6.4px;stroke-linecap:butt;stroke-miterlimit:1.41421;"/>
        </g>
        <g transform="matrix(0.184191,0,0,0.151981,1206.87,-163.889)">
            <ellipse cx="29.183" cy="141.909" rx="13.008" ry="12.614" style="fill:white;stroke:black;stroke-opacity:0.7;stroke-width:6.4px;stroke-linecap:butt;stroke-miterlimit:1.41421;"/>
        </g>
        <g transform="matrix(0.184191,0,0,0.151981,1206.87,-134.957)">
            <ellipse cx="29.183" cy="141.909" rx="13.008" ry="12.614" style="fill:white;stroke:black;stroke-opacity:0.7;stroke-width:6.4px;stroke-linecap:butt;stroke-miterlimit:1.41421;"/>
        </g>
        <g transform="matrix(0.184191,0,0,0.151981,1206.87,-106.026)">
            <ellipse cx="29.183" cy="141.909" rx="13.008" ry="12.614" style="fill:white;stroke:black;stroke-opacity:0.7;stroke-width:6.4px;stroke-linecap:butt;stroke-miterlimit:1.41421;"/>
        </g>
        <g transform="matrix(0.184191,0,0,0.151981,1206.87,-77.094)">
            <ellipse cx="29.183" cy="141.909" rx="13.008" ry="12.614" style="fill:white;stroke:black;stroke-opacity:0.7;stroke-width:6.4px;stroke-linecap:butt;stroke-miterlimit:1.41421;"/>
        </g>
        <g transform="matrix(0.184191,0,0,0.151981,1206.87,-48.1623)">
            <ellipse cx="29.183" cy="141.909" rx="13.008" ry="12.614" style="fill:white;stroke:black;stroke-opacity:0.7;stroke-width:6.4px;stroke-linecap:butt;stroke-miterlimit:1.41421;"/>
        </g>
        <g transform="matrix(0.184191,0,0,0.151981,1206.87,-19.2306)">
            <ellipse cx="29.183" cy="141.909" rx="13.008" ry="12.614" style="fill:white;stroke:black;stroke-opacity:0.7;stroke-width:6.4px;stroke-linecap:butt;stroke-miterlimit:1.41421;"/>
        </g>
    </g>
</svg>
