<?xml version="1.0" encoding="UTF-8" standalone="no"?>
<!DOCTYPE svg PUBLIC "-//W3C//DTD SVG 1.1//EN" "http://www.w3.org/Graphics/SVG/1.1/DTD/svg11.dtd">
<svg width="100%" height="100%" viewBox="0 0 45 380" version="1.1" xmlns="http://www.w3.org/2000/svg" xmlns:xlink="http://www.w3.org/1999/xlink" xml:space="preserve" xmlns:serif="http://www.serif.com/" style="fill-rule:evenodd;clip-rule:evenodd;stroke-linecap:round;stroke-linejoin:round;stroke-miterlimit:1.5;">
    <g id="panel" transform="matrix(0.834722,0,0,1.04324,-803.837,250.623)">
        <g transform="matrix(0.898503,0,0,0.958552,963,-240.242)">
            <rect x="0" y="0" width="60" height="380" style="fill:rgb(128,187,254);"/>
        </g>
        <g transform="matrix(0.318803,0,0,1.55539,972.575,-450.668)">
            <rect x="-30.034" y="347.456" width="169.102" height="16.91" style="fill:rgb(4,4,4);fill-opacity:0.3;"/>
        </g>
        <g transform="matrix(0.318803,0,0,1.44687,972.575,-653.268)">
            <rect x="-30.034" y="347.456" width="169.102" height="16.91" style="fill-opacity:0.3;"/>
        </g>
        <g transform="matrix(2.40704,0,0,25.5659,873.006,-292.473)">
            <rect x="37.388" y="2.043" width="22.397" height="14.247" style="fill:none;stroke:black;stroke-opacity:0.6;stroke-width:0.03px;"/>
        </g>
        <g id="path3052" transform="matrix(0.37715,0,0,1.06342,599.604,-7.50798)">
            <rect x="963.532" y="121.41" width="142.941" height="2.074" style="fill:url(#_Linear1);"/>
        </g>
        <g transform="matrix(1.198,0,0,0.958552,967.978,-213.398)">
            <g transform="matrix(13,0,0,13,-1.92334,0)">
                <path d="M0.042,-0.204C0.042,-0.248 0.055,-0.287 0.08,-0.321C0.105,-0.355 0.142,-0.38 0.19,-0.396C0.152,-0.415 0.122,-0.44 0.101,-0.469C0.08,-0.499 0.07,-0.532 0.07,-0.568C0.07,-0.606 0.08,-0.64 0.101,-0.671C0.122,-0.701 0.15,-0.726 0.188,-0.743C0.225,-0.76 0.266,-0.769 0.312,-0.769C0.358,-0.769 0.4,-0.76 0.438,-0.743C0.475,-0.726 0.504,-0.702 0.525,-0.672C0.546,-0.641 0.556,-0.607 0.556,-0.57C0.556,-0.535 0.545,-0.502 0.522,-0.472C0.499,-0.441 0.468,-0.417 0.429,-0.4C0.476,-0.384 0.513,-0.358 0.54,-0.324C0.566,-0.29 0.579,-0.251 0.579,-0.205C0.579,-0.141 0.554,-0.089 0.504,-0.048C0.455,-0.008 0.39,0.012 0.311,0.012C0.231,0.012 0.167,-0.008 0.117,-0.048C0.067,-0.089 0.042,-0.14 0.042,-0.204ZM0.2,-0.218C0.2,-0.183 0.21,-0.154 0.23,-0.133C0.25,-0.112 0.277,-0.102 0.311,-0.102C0.344,-0.102 0.37,-0.112 0.391,-0.133C0.412,-0.154 0.422,-0.183 0.422,-0.218C0.422,-0.251 0.412,-0.278 0.391,-0.3C0.369,-0.322 0.343,-0.333 0.311,-0.333C0.278,-0.333 0.251,-0.322 0.231,-0.3C0.21,-0.278 0.2,-0.251 0.2,-0.218ZM0.223,-0.552C0.223,-0.524 0.232,-0.5 0.249,-0.481C0.266,-0.461 0.287,-0.451 0.313,-0.451C0.339,-0.451 0.36,-0.461 0.377,-0.48C0.395,-0.499 0.404,-0.523 0.404,-0.552C0.404,-0.58 0.395,-0.605 0.378,-0.625C0.361,-0.644 0.34,-0.654 0.313,-0.654C0.287,-0.654 0.265,-0.644 0.248,-0.625C0.232,-0.605 0.223,-0.58 0.223,-0.552Z" style="fill-rule:nonzero;"/>
            </g>
            <g transform="matrix(13,0,0,13,6.09375,0)">
                <path d="M0.519,-0.625L0.249,-0.625L0.249,-0.43L0.497,-0.43L0.497,-0.298L0.249,-0.298L0.249,0L0.087,0L0.087,-0.756L0.519,-0.756L0.519,-0.625Z" style="fill-rule:nonzero;"/>
            </g>
            <g transform="matrix(13,0,0,13,12.5684,0)">
                <path d="M0.744,0L0.568,0L0.511,-0.173L0.236,-0.173L0.181,0L0.006,0L0.283,-0.756L0.472,-0.756L0.744,0ZM0.473,-0.298L0.387,-0.56C0.382,-0.577 0.378,-0.599 0.375,-0.626L0.371,-0.626C0.369,-0.604 0.365,-0.583 0.358,-0.562L0.271,-0.298L0.473,-0.298Z" style="fill-rule:nonzero;"/>
            </g>
            <g transform="matrix(13,0,0,13,22.1343,0)">
                <path d="M0.627,-0.027C0.572,0 0.5,0.013 0.412,0.013C0.298,0.013 0.207,-0.021 0.14,-0.089C0.073,-0.157 0.04,-0.248 0.04,-0.362C0.04,-0.481 0.077,-0.579 0.152,-0.655C0.227,-0.731 0.323,-0.769 0.441,-0.769C0.515,-0.769 0.577,-0.759 0.627,-0.74L0.627,-0.584C0.576,-0.614 0.518,-0.629 0.453,-0.629C0.379,-0.629 0.32,-0.606 0.276,-0.559C0.232,-0.511 0.209,-0.45 0.209,-0.374C0.209,-0.299 0.23,-0.24 0.272,-0.194C0.314,-0.149 0.371,-0.126 0.443,-0.126C0.51,-0.126 0.572,-0.143 0.627,-0.175L0.627,-0.027Z" style="fill-rule:nonzero;"/>
            </g>
            <g transform="matrix(13,0,0,13,30.8877,0)">
                <path d="M0.535,0L0.087,0L0.087,-0.756L0.518,-0.756L0.518,-0.625L0.249,-0.625L0.249,-0.446L0.499,-0.446L0.499,-0.315L0.249,-0.315L0.249,-0.132L0.535,-0.132L0.535,0Z" style="fill-rule:nonzero;"/>
            </g>
        </g>
        <g transform="matrix(0.552947,0,0,2.68149,968.322,-357.984)">
            <path d="M73.138,57.639C73.138,57.244 71.196,56.924 68.804,56.924L9.44,56.924C7.049,56.924 5.107,57.244 5.107,57.639L5.107,82.989C5.107,83.384 7.049,83.704 9.44,83.704L68.804,83.704C71.196,83.704 73.138,83.384 73.138,82.989L73.138,57.639Z" style="fill:white;fill-opacity:0.7;"/>
        </g>
        <g transform="matrix(1.198,0,0,0.958552,940.545,-247.552)">
            <g transform="matrix(6.4,0,0,6.4,32.7249,51.8924)">
                <path d="M0.622,-0.215C0.622,-0.172 0.611,-0.133 0.589,-0.098C0.566,-0.064 0.534,-0.037 0.491,-0.017C0.448,0.002 0.397,0.012 0.338,0.012C0.267,0.012 0.209,-0.001 0.163,-0.028C0.131,-0.047 0.104,-0.073 0.084,-0.105C0.063,-0.137 0.053,-0.168 0.053,-0.198C0.053,-0.216 0.059,-0.231 0.072,-0.243C0.084,-0.256 0.099,-0.262 0.118,-0.262C0.133,-0.262 0.146,-0.257 0.157,-0.248C0.168,-0.238 0.177,-0.223 0.184,-0.204C0.193,-0.181 0.203,-0.162 0.214,-0.147C0.224,-0.132 0.239,-0.119 0.258,-0.109C0.278,-0.099 0.303,-0.094 0.334,-0.094C0.377,-0.094 0.412,-0.104 0.439,-0.124C0.466,-0.144 0.479,-0.169 0.479,-0.199C0.479,-0.223 0.472,-0.242 0.457,-0.257C0.443,-0.272 0.424,-0.283 0.401,-0.291C0.378,-0.299 0.347,-0.307 0.309,-0.316C0.258,-0.328 0.215,-0.342 0.18,-0.358C0.145,-0.374 0.118,-0.396 0.097,-0.424C0.077,-0.452 0.067,-0.486 0.067,-0.528C0.067,-0.567 0.078,-0.602 0.099,-0.633C0.121,-0.663 0.152,-0.687 0.192,-0.703C0.233,-0.72 0.281,-0.728 0.336,-0.728C0.38,-0.728 0.418,-0.723 0.45,-0.712C0.482,-0.701 0.509,-0.686 0.53,-0.668C0.551,-0.65 0.566,-0.631 0.576,-0.611C0.586,-0.591 0.591,-0.572 0.591,-0.553C0.591,-0.536 0.585,-0.52 0.573,-0.507C0.56,-0.493 0.545,-0.486 0.527,-0.486C0.51,-0.486 0.498,-0.49 0.489,-0.498C0.48,-0.507 0.471,-0.52 0.461,-0.539C0.448,-0.566 0.432,-0.587 0.414,-0.602C0.396,-0.617 0.367,-0.625 0.326,-0.625C0.289,-0.625 0.259,-0.617 0.236,-0.6C0.213,-0.584 0.201,-0.564 0.201,-0.541C0.201,-0.527 0.205,-0.514 0.213,-0.504C0.221,-0.493 0.231,-0.485 0.245,-0.477C0.259,-0.47 0.273,-0.464 0.287,-0.459C0.301,-0.455 0.324,-0.449 0.356,-0.441C0.396,-0.431 0.433,-0.421 0.466,-0.41C0.498,-0.398 0.526,-0.384 0.549,-0.368C0.572,-0.352 0.59,-0.331 0.603,-0.306C0.616,-0.281 0.622,-0.251 0.622,-0.215Z" style="fill-rule:nonzero;"/>
            </g>
            <g transform="matrix(6.4,0,0,6.4,37.1216,51.8924)">
                <path d="M0.22,-0.64L0.22,-0.119L0.514,-0.119C0.538,-0.119 0.556,-0.113 0.568,-0.102C0.581,-0.091 0.587,-0.076 0.587,-0.059C0.587,-0.042 0.581,-0.027 0.568,-0.016C0.556,-0.005 0.538,0 0.514,0L0.164,0C0.132,0 0.11,-0.007 0.096,-0.021C0.082,-0.035 0.075,-0.058 0.075,-0.089L0.075,-0.64C0.075,-0.669 0.082,-0.691 0.095,-0.706C0.108,-0.721 0.125,-0.728 0.147,-0.728C0.169,-0.728 0.186,-0.721 0.2,-0.706C0.213,-0.692 0.22,-0.67 0.22,-0.64Z" style="fill-rule:nonzero;"/>
            </g>
            <g transform="matrix(6.4,0,0,6.4,40.7965,51.8924)">
                <path d="M0.393,-0.728C0.467,-0.728 0.531,-0.713 0.584,-0.683C0.637,-0.653 0.678,-0.61 0.705,-0.554C0.732,-0.499 0.746,-0.434 0.746,-0.359C0.746,-0.304 0.739,-0.253 0.724,-0.208C0.709,-0.163 0.686,-0.124 0.656,-0.09C0.626,-0.057 0.59,-0.032 0.546,-0.014C0.502,0.003 0.452,0.012 0.396,0.012C0.34,0.012 0.29,0.003 0.246,-0.015C0.201,-0.033 0.164,-0.058 0.135,-0.091C0.105,-0.124 0.083,-0.164 0.068,-0.21C0.052,-0.256 0.045,-0.306 0.045,-0.36C0.045,-0.415 0.053,-0.465 0.069,-0.511C0.084,-0.557 0.107,-0.596 0.137,-0.628C0.167,-0.661 0.204,-0.685 0.247,-0.702C0.29,-0.719 0.338,-0.728 0.393,-0.728ZM0.599,-0.36C0.599,-0.412 0.591,-0.458 0.574,-0.496C0.557,-0.535 0.533,-0.564 0.501,-0.583C0.47,-0.603 0.434,-0.613 0.393,-0.613C0.364,-0.613 0.337,-0.607 0.313,-0.596C0.288,-0.586 0.267,-0.57 0.249,-0.549C0.232,-0.528 0.218,-0.501 0.207,-0.469C0.197,-0.437 0.192,-0.4 0.192,-0.36C0.192,-0.319 0.197,-0.282 0.207,-0.25C0.218,-0.217 0.232,-0.189 0.251,-0.168C0.269,-0.146 0.291,-0.13 0.315,-0.119C0.339,-0.108 0.366,-0.103 0.395,-0.103C0.432,-0.103 0.466,-0.112 0.497,-0.131C0.528,-0.149 0.553,-0.178 0.572,-0.217C0.59,-0.256 0.599,-0.303 0.599,-0.36Z" style="fill-rule:nonzero;"/>
            </g>
            <g transform="matrix(6.4,0,0,6.4,45.7495,51.8924)">
                <path d="M0.543,-0.596L0.385,-0.596L0.385,-0.076C0.385,-0.046 0.378,-0.024 0.365,-0.01C0.351,0.005 0.334,0.012 0.313,0.012C0.292,0.012 0.274,0.005 0.26,-0.01C0.247,-0.024 0.24,-0.047 0.24,-0.076L0.24,-0.596L0.082,-0.596C0.057,-0.596 0.039,-0.602 0.027,-0.613C0.015,-0.623 0.009,-0.638 0.009,-0.656C0.009,-0.674 0.015,-0.689 0.028,-0.7C0.04,-0.71 0.058,-0.716 0.082,-0.716L0.543,-0.716C0.568,-0.716 0.587,-0.71 0.599,-0.699C0.611,-0.688 0.617,-0.674 0.617,-0.656C0.617,-0.638 0.611,-0.623 0.599,-0.613C0.586,-0.602 0.568,-0.596 0.543,-0.596Z" style="fill-rule:nonzero;"/>
            </g>
        </g>
        <g transform="matrix(1.198,0,0,0.958552,940.545,-213.381)">
            <g transform="matrix(6.4,0,0,6.4,30.2765,51.8924)">
                <path d="M0.273,-0.306L0.222,-0.306L0.222,-0.076C0.222,-0.046 0.215,-0.024 0.202,-0.009C0.189,0.005 0.171,0.012 0.15,0.012C0.127,0.012 0.109,0.005 0.096,-0.01C0.083,-0.025 0.077,-0.047 0.077,-0.076L0.077,-0.627C0.077,-0.658 0.084,-0.681 0.098,-0.695C0.112,-0.709 0.135,-0.716 0.166,-0.716L0.402,-0.716C0.434,-0.716 0.462,-0.714 0.485,-0.712C0.508,-0.709 0.529,-0.703 0.548,-0.695C0.57,-0.685 0.59,-0.672 0.607,-0.654C0.625,-0.637 0.638,-0.616 0.647,-0.593C0.656,-0.57 0.66,-0.545 0.66,-0.519C0.66,-0.466 0.645,-0.423 0.615,-0.391C0.585,-0.359 0.539,-0.337 0.478,-0.323C0.504,-0.31 0.528,-0.289 0.552,-0.263C0.575,-0.236 0.596,-0.208 0.615,-0.177C0.633,-0.147 0.647,-0.12 0.657,-0.096C0.668,-0.072 0.673,-0.055 0.673,-0.046C0.673,-0.036 0.67,-0.027 0.664,-0.018C0.658,-0.009 0.65,-0.001 0.639,0.004C0.629,0.01 0.617,0.012 0.603,0.012C0.587,0.012 0.573,0.008 0.562,0.001C0.551,-0.007 0.541,-0.017 0.533,-0.028C0.525,-0.04 0.515,-0.057 0.501,-0.08L0.443,-0.177C0.422,-0.212 0.403,-0.239 0.387,-0.258C0.371,-0.276 0.354,-0.289 0.337,-0.296C0.32,-0.303 0.299,-0.306 0.273,-0.306ZM0.356,-0.607L0.222,-0.607L0.222,-0.41L0.352,-0.41C0.387,-0.41 0.416,-0.413 0.44,-0.419C0.464,-0.425 0.482,-0.435 0.494,-0.45C0.507,-0.464 0.513,-0.484 0.513,-0.51C0.513,-0.53 0.508,-0.547 0.498,-0.562C0.488,-0.577 0.474,-0.589 0.456,-0.596C0.439,-0.603 0.406,-0.607 0.356,-0.607Z" style="fill-rule:nonzero;"/>
            </g>
            <g transform="matrix(6.4,0,0,6.4,35.0076,51.8924)">
                <path d="M0.55,-0.604L0.223,-0.604L0.223,-0.428L0.524,-0.428C0.546,-0.428 0.563,-0.423 0.573,-0.413C0.584,-0.403 0.59,-0.39 0.59,-0.374C0.59,-0.358 0.584,-0.344 0.574,-0.334C0.563,-0.324 0.546,-0.319 0.524,-0.319L0.223,-0.319L0.223,-0.115L0.561,-0.115C0.584,-0.115 0.601,-0.11 0.613,-0.099C0.624,-0.089 0.63,-0.075 0.63,-0.057C0.63,-0.04 0.624,-0.026 0.613,-0.016C0.601,-0.005 0.584,0 0.561,0L0.167,0C0.135,0 0.113,-0.007 0.099,-0.021C0.085,-0.035 0.078,-0.058 0.078,-0.089L0.078,-0.627C0.078,-0.648 0.081,-0.665 0.087,-0.678C0.094,-0.691 0.103,-0.701 0.116,-0.707C0.13,-0.713 0.146,-0.716 0.167,-0.716L0.55,-0.716C0.573,-0.716 0.59,-0.711 0.601,-0.7C0.613,-0.69 0.618,-0.677 0.618,-0.66C0.618,-0.643 0.613,-0.63 0.601,-0.619C0.59,-0.609 0.573,-0.604 0.55,-0.604Z" style="fill-rule:nonzero;"/>
            </g>
            <g transform="matrix(6.4,0,0,6.4,39.4044,51.8924)">
                <path d="M0.622,-0.215C0.622,-0.172 0.611,-0.133 0.589,-0.098C0.566,-0.064 0.534,-0.037 0.491,-0.017C0.448,0.002 0.397,0.012 0.338,0.012C0.267,0.012 0.209,-0.001 0.163,-0.028C0.131,-0.047 0.104,-0.073 0.084,-0.105C0.063,-0.137 0.053,-0.168 0.053,-0.198C0.053,-0.216 0.059,-0.231 0.072,-0.243C0.084,-0.256 0.099,-0.262 0.118,-0.262C0.133,-0.262 0.146,-0.257 0.157,-0.248C0.168,-0.238 0.177,-0.223 0.184,-0.204C0.193,-0.181 0.203,-0.162 0.214,-0.147C0.224,-0.132 0.239,-0.119 0.258,-0.109C0.278,-0.099 0.303,-0.094 0.334,-0.094C0.377,-0.094 0.412,-0.104 0.439,-0.124C0.466,-0.144 0.479,-0.169 0.479,-0.199C0.479,-0.223 0.472,-0.242 0.457,-0.257C0.443,-0.272 0.424,-0.283 0.401,-0.291C0.378,-0.299 0.347,-0.307 0.309,-0.316C0.258,-0.328 0.215,-0.342 0.18,-0.358C0.145,-0.374 0.118,-0.396 0.097,-0.424C0.077,-0.452 0.067,-0.486 0.067,-0.528C0.067,-0.567 0.078,-0.602 0.099,-0.633C0.121,-0.663 0.152,-0.687 0.192,-0.703C0.233,-0.72 0.281,-0.728 0.336,-0.728C0.38,-0.728 0.418,-0.723 0.45,-0.712C0.482,-0.701 0.509,-0.686 0.53,-0.668C0.551,-0.65 0.566,-0.631 0.576,-0.611C0.586,-0.591 0.591,-0.572 0.591,-0.553C0.591,-0.536 0.585,-0.52 0.573,-0.507C0.56,-0.493 0.545,-0.486 0.527,-0.486C0.51,-0.486 0.498,-0.49 0.489,-0.498C0.48,-0.507 0.471,-0.52 0.461,-0.539C0.448,-0.566 0.432,-0.587 0.414,-0.602C0.396,-0.617 0.367,-0.625 0.326,-0.625C0.289,-0.625 0.259,-0.617 0.236,-0.6C0.213,-0.584 0.201,-0.564 0.201,-0.541C0.201,-0.527 0.205,-0.514 0.213,-0.504C0.221,-0.493 0.231,-0.485 0.245,-0.477C0.259,-0.47 0.273,-0.464 0.287,-0.459C0.301,-0.455 0.324,-0.449 0.356,-0.441C0.396,-0.431 0.433,-0.421 0.466,-0.41C0.498,-0.398 0.526,-0.384 0.549,-0.368C0.572,-0.352 0.59,-0.331 0.603,-0.306C0.616,-0.281 0.622,-0.251 0.622,-0.215Z" style="fill-rule:nonzero;"/>
            </g>
            <g transform="matrix(6.4,0,0,6.4,43.8011,51.8924)">
                <path d="M0.55,-0.604L0.223,-0.604L0.223,-0.428L0.524,-0.428C0.546,-0.428 0.563,-0.423 0.573,-0.413C0.584,-0.403 0.59,-0.39 0.59,-0.374C0.59,-0.358 0.584,-0.344 0.574,-0.334C0.563,-0.324 0.546,-0.319 0.524,-0.319L0.223,-0.319L0.223,-0.115L0.561,-0.115C0.584,-0.115 0.601,-0.11 0.613,-0.099C0.624,-0.089 0.63,-0.075 0.63,-0.057C0.63,-0.04 0.624,-0.026 0.613,-0.016C0.601,-0.005 0.584,0 0.561,0L0.167,0C0.135,0 0.113,-0.007 0.099,-0.021C0.085,-0.035 0.078,-0.058 0.078,-0.089L0.078,-0.627C0.078,-0.648 0.081,-0.665 0.087,-0.678C0.094,-0.691 0.103,-0.701 0.116,-0.707C0.13,-0.713 0.146,-0.716 0.167,-0.716L0.55,-0.716C0.573,-0.716 0.59,-0.711 0.601,-0.7C0.613,-0.69 0.618,-0.677 0.618,-0.66C0.618,-0.643 0.613,-0.63 0.601,-0.619C0.59,-0.609 0.573,-0.604 0.55,-0.604Z" style="fill-rule:nonzero;"/>
            </g>
            <g transform="matrix(6.4,0,0,6.4,48.1979,51.8924)">
                <path d="M0.543,-0.596L0.385,-0.596L0.385,-0.076C0.385,-0.046 0.378,-0.024 0.365,-0.01C0.351,0.005 0.334,0.012 0.313,0.012C0.292,0.012 0.274,0.005 0.26,-0.01C0.247,-0.024 0.24,-0.047 0.24,-0.076L0.24,-0.596L0.082,-0.596C0.057,-0.596 0.039,-0.602 0.027,-0.613C0.015,-0.623 0.009,-0.638 0.009,-0.656C0.009,-0.674 0.015,-0.689 0.028,-0.7C0.04,-0.71 0.058,-0.716 0.082,-0.716L0.543,-0.716C0.568,-0.716 0.587,-0.71 0.599,-0.699C0.611,-0.688 0.617,-0.674 0.617,-0.656C0.617,-0.638 0.611,-0.623 0.599,-0.613C0.586,-0.602 0.568,-0.596 0.543,-0.596Z" style="fill-rule:nonzero;"/>
            </g>
        </g>
        <g transform="matrix(1.198,0,0,0.958552,940.326,18.7477)">
            <g transform="matrix(6.4,0,0,6.4,34.9076,51.8924)">
                <path d="M0.273,-0.306L0.222,-0.306L0.222,-0.076C0.222,-0.046 0.215,-0.024 0.202,-0.009C0.189,0.005 0.171,0.012 0.15,0.012C0.127,0.012 0.109,0.005 0.096,-0.01C0.083,-0.025 0.077,-0.047 0.077,-0.076L0.077,-0.627C0.077,-0.658 0.084,-0.681 0.098,-0.695C0.112,-0.709 0.135,-0.716 0.166,-0.716L0.402,-0.716C0.434,-0.716 0.462,-0.714 0.485,-0.712C0.508,-0.709 0.529,-0.703 0.548,-0.695C0.57,-0.685 0.59,-0.672 0.607,-0.654C0.625,-0.637 0.638,-0.616 0.647,-0.593C0.656,-0.57 0.66,-0.545 0.66,-0.519C0.66,-0.466 0.645,-0.423 0.615,-0.391C0.585,-0.359 0.539,-0.337 0.478,-0.323C0.504,-0.31 0.528,-0.289 0.552,-0.263C0.575,-0.236 0.596,-0.208 0.615,-0.177C0.633,-0.147 0.647,-0.12 0.657,-0.096C0.668,-0.072 0.673,-0.055 0.673,-0.046C0.673,-0.036 0.67,-0.027 0.664,-0.018C0.658,-0.009 0.65,-0.001 0.639,0.004C0.629,0.01 0.617,0.012 0.603,0.012C0.587,0.012 0.573,0.008 0.562,0.001C0.551,-0.007 0.541,-0.017 0.533,-0.028C0.525,-0.04 0.515,-0.057 0.501,-0.08L0.443,-0.177C0.422,-0.212 0.403,-0.239 0.387,-0.258C0.371,-0.276 0.354,-0.289 0.337,-0.296C0.32,-0.303 0.299,-0.306 0.273,-0.306ZM0.356,-0.607L0.222,-0.607L0.222,-0.41L0.352,-0.41C0.387,-0.41 0.416,-0.413 0.44,-0.419C0.464,-0.425 0.482,-0.435 0.494,-0.45C0.507,-0.464 0.513,-0.484 0.513,-0.51C0.513,-0.53 0.508,-0.547 0.498,-0.562C0.488,-0.577 0.474,-0.589 0.456,-0.596C0.439,-0.603 0.406,-0.607 0.356,-0.607Z" style="fill-rule:nonzero;"/>
            </g>
            <g transform="matrix(6.4,0,0,6.4,39.6387,51.8924)">
                <path d="M0.258,-0.629L0.121,-0.066C0.117,-0.047 0.113,-0.033 0.109,-0.022C0.106,-0.011 0.101,-0.003 0.094,0.003C0.087,0.009 0.076,0.012 0.063,0.012C0.03,0.012 0.013,-0.002 0.013,-0.031C0.013,-0.038 0.016,-0.057 0.023,-0.087L0.159,-0.65C0.166,-0.68 0.173,-0.7 0.18,-0.711C0.186,-0.722 0.199,-0.728 0.218,-0.728C0.234,-0.728 0.247,-0.724 0.255,-0.716C0.264,-0.708 0.268,-0.698 0.268,-0.684C0.268,-0.674 0.265,-0.656 0.258,-0.629Z" style="fill-rule:nonzero;"/>
            </g>
            <g transform="matrix(6.4,0,0,6.4,41.5636,51.8924)">
                <path d="M0.585,-0.113L0.469,-0.542L0.352,-0.113C0.343,-0.08 0.336,-0.057 0.33,-0.043C0.325,-0.029 0.316,-0.016 0.302,-0.005C0.289,0.007 0.271,0.012 0.249,0.012C0.231,0.012 0.216,0.009 0.205,0.002C0.193,-0.004 0.184,-0.014 0.177,-0.026C0.17,-0.038 0.164,-0.053 0.159,-0.07C0.155,-0.086 0.151,-0.102 0.147,-0.116L0.028,-0.598C0.021,-0.626 0.017,-0.647 0.017,-0.662C0.017,-0.681 0.024,-0.696 0.037,-0.709C0.05,-0.722 0.066,-0.728 0.085,-0.728C0.111,-0.728 0.129,-0.72 0.138,-0.703C0.147,-0.686 0.155,-0.661 0.162,-0.629L0.256,-0.211L0.361,-0.602C0.369,-0.632 0.376,-0.655 0.382,-0.67C0.388,-0.686 0.398,-0.7 0.412,-0.711C0.426,-0.722 0.445,-0.728 0.469,-0.728C0.494,-0.728 0.513,-0.722 0.526,-0.71C0.54,-0.698 0.549,-0.685 0.554,-0.671C0.559,-0.657 0.566,-0.634 0.575,-0.602L0.681,-0.211L0.775,-0.629C0.779,-0.651 0.784,-0.668 0.788,-0.68C0.792,-0.693 0.799,-0.704 0.809,-0.713C0.819,-0.723 0.833,-0.728 0.852,-0.728C0.871,-0.728 0.887,-0.722 0.9,-0.709C0.913,-0.697 0.92,-0.681 0.92,-0.662C0.92,-0.649 0.916,-0.627 0.909,-0.598L0.79,-0.116C0.782,-0.084 0.775,-0.06 0.77,-0.045C0.764,-0.03 0.755,-0.016 0.742,-0.005C0.73,0.007 0.711,0.012 0.688,0.012C0.666,0.012 0.648,0.007 0.635,-0.004C0.621,-0.015 0.612,-0.028 0.607,-0.042C0.602,-0.056 0.594,-0.079 0.585,-0.113Z" style="fill-rule:nonzero;"/>
            </g>
        </g>
        <g transform="matrix(1.198,0,0,0.958552,929.146,-162.752)">
            <g transform="matrix(6.4,0,0,6.4,39.3356,51.8924)">
                <path d="M0.282,-0.067L0.282,-0.511C0.2,-0.448 0.144,-0.416 0.115,-0.416C0.102,-0.416 0.089,-0.421 0.079,-0.432C0.068,-0.443 0.063,-0.456 0.063,-0.47C0.063,-0.487 0.068,-0.499 0.079,-0.507C0.089,-0.515 0.107,-0.525 0.134,-0.537C0.173,-0.556 0.205,-0.575 0.228,-0.596C0.252,-0.616 0.273,-0.639 0.291,-0.665C0.309,-0.69 0.321,-0.706 0.327,-0.711C0.332,-0.717 0.343,-0.72 0.358,-0.72C0.375,-0.72 0.389,-0.714 0.399,-0.7C0.41,-0.687 0.415,-0.668 0.415,-0.645L0.415,-0.086C0.415,-0.021 0.393,0.012 0.348,0.012C0.328,0.012 0.312,0.006 0.3,-0.008C0.288,-0.021 0.282,-0.041 0.282,-0.067Z" style="fill-rule:nonzero;"/>
            </g>
        </g>
        <g transform="matrix(1.198,0,0,0.958552,929.354,-140.185)">
            <g transform="matrix(6.4,0,0,6.4,39.3356,51.8924)">
                <path d="M0.223,-0.115L0.478,-0.115C0.503,-0.115 0.523,-0.11 0.536,-0.1C0.549,-0.089 0.556,-0.075 0.556,-0.057C0.556,-0.041 0.551,-0.028 0.54,-0.017C0.53,-0.006 0.514,0 0.492,0L0.133,0C0.108,0 0.089,-0.007 0.076,-0.02C0.062,-0.034 0.055,-0.05 0.055,-0.068C0.055,-0.08 0.06,-0.095 0.068,-0.115C0.077,-0.134 0.087,-0.149 0.097,-0.16C0.14,-0.205 0.18,-0.244 0.214,-0.276C0.249,-0.308 0.274,-0.329 0.289,-0.339C0.316,-0.358 0.338,-0.377 0.356,-0.396C0.373,-0.415 0.387,-0.434 0.396,-0.454C0.406,-0.474 0.41,-0.494 0.41,-0.513C0.41,-0.534 0.405,-0.553 0.395,-0.569C0.385,-0.586 0.372,-0.598 0.355,-0.607C0.338,-0.617 0.319,-0.621 0.299,-0.621C0.256,-0.621 0.223,-0.602 0.198,-0.565C0.195,-0.56 0.19,-0.547 0.182,-0.525C0.174,-0.503 0.166,-0.486 0.156,-0.475C0.146,-0.463 0.132,-0.457 0.114,-0.457C0.097,-0.457 0.084,-0.462 0.073,-0.473C0.063,-0.484 0.057,-0.499 0.057,-0.517C0.057,-0.54 0.062,-0.563 0.072,-0.587C0.082,-0.612 0.097,-0.634 0.117,-0.654C0.137,-0.674 0.163,-0.69 0.194,-0.702C0.224,-0.714 0.26,-0.72 0.302,-0.72C0.352,-0.72 0.394,-0.712 0.429,-0.697C0.452,-0.686 0.472,-0.672 0.489,-0.654C0.507,-0.636 0.52,-0.615 0.53,-0.591C0.539,-0.567 0.544,-0.542 0.544,-0.516C0.544,-0.476 0.534,-0.439 0.514,-0.406C0.494,-0.373 0.473,-0.347 0.453,-0.328C0.432,-0.31 0.397,-0.28 0.348,-0.24C0.299,-0.2 0.265,-0.169 0.247,-0.147C0.239,-0.138 0.231,-0.128 0.223,-0.115Z" style="fill-rule:nonzero;"/>
            </g>
        </g>
        <g transform="matrix(1.198,0,0,0.958552,929.406,-117.624)">
            <g transform="matrix(6.4,0,0,6.4,39.3356,51.8924)">
                <path d="M0.274,-0.432C0.304,-0.432 0.33,-0.441 0.351,-0.458C0.373,-0.476 0.384,-0.501 0.384,-0.534C0.384,-0.559 0.375,-0.581 0.358,-0.599C0.341,-0.617 0.317,-0.626 0.288,-0.626C0.268,-0.626 0.252,-0.623 0.239,-0.618C0.226,-0.612 0.216,-0.605 0.208,-0.596C0.201,-0.587 0.194,-0.575 0.187,-0.561C0.181,-0.546 0.174,-0.533 0.169,-0.52C0.166,-0.513 0.16,-0.508 0.151,-0.504C0.143,-0.5 0.133,-0.498 0.122,-0.498C0.109,-0.498 0.097,-0.503 0.086,-0.514C0.075,-0.524 0.07,-0.539 0.07,-0.556C0.07,-0.573 0.075,-0.591 0.085,-0.61C0.095,-0.628 0.11,-0.646 0.13,-0.663C0.15,-0.68 0.174,-0.694 0.204,-0.704C0.233,-0.714 0.266,-0.719 0.302,-0.719C0.333,-0.719 0.362,-0.715 0.388,-0.706C0.414,-0.698 0.437,-0.685 0.456,-0.669C0.475,-0.653 0.49,-0.634 0.5,-0.612C0.509,-0.591 0.514,-0.568 0.514,-0.543C0.514,-0.51 0.507,-0.483 0.493,-0.459C0.479,-0.436 0.458,-0.413 0.432,-0.391C0.458,-0.377 0.479,-0.362 0.496,-0.344C0.514,-0.327 0.527,-0.307 0.536,-0.286C0.544,-0.265 0.549,-0.242 0.549,-0.217C0.549,-0.187 0.543,-0.159 0.531,-0.131C0.519,-0.103 0.502,-0.079 0.479,-0.057C0.455,-0.035 0.428,-0.018 0.396,-0.006C0.365,0.006 0.329,0.012 0.291,0.012C0.252,0.012 0.217,0.005 0.186,-0.009C0.155,-0.023 0.13,-0.04 0.11,-0.061C0.09,-0.082 0.074,-0.104 0.064,-0.126C0.054,-0.149 0.049,-0.167 0.049,-0.182C0.049,-0.201 0.055,-0.216 0.067,-0.228C0.079,-0.239 0.095,-0.245 0.113,-0.245C0.122,-0.245 0.131,-0.242 0.139,-0.237C0.148,-0.232 0.153,-0.225 0.156,-0.218C0.173,-0.173 0.191,-0.139 0.21,-0.117C0.23,-0.095 0.257,-0.084 0.292,-0.084C0.312,-0.084 0.332,-0.089 0.35,-0.099C0.369,-0.109 0.385,-0.124 0.397,-0.143C0.409,-0.163 0.415,-0.185 0.415,-0.211C0.415,-0.249 0.405,-0.279 0.384,-0.301C0.363,-0.322 0.334,-0.333 0.297,-0.333C0.29,-0.333 0.28,-0.332 0.267,-0.331C0.253,-0.33 0.244,-0.329 0.24,-0.329C0.222,-0.329 0.208,-0.334 0.199,-0.343C0.189,-0.351 0.184,-0.364 0.184,-0.38C0.184,-0.396 0.19,-0.408 0.202,-0.418C0.213,-0.427 0.231,-0.432 0.254,-0.432L0.274,-0.432Z" style="fill-rule:nonzero;"/>
            </g>
        </g>
        <g transform="matrix(1.198,0,0,0.958552,929.442,-95.0215)">
            <g transform="matrix(6.4,0,0,6.4,39.3356,51.8924)">
                <path d="M0.35,-0.062L0.35,-0.153L0.105,-0.153C0.074,-0.153 0.051,-0.16 0.035,-0.174C0.02,-0.188 0.012,-0.207 0.012,-0.231C0.012,-0.237 0.013,-0.243 0.016,-0.25C0.018,-0.256 0.021,-0.263 0.026,-0.27C0.03,-0.277 0.035,-0.284 0.04,-0.29C0.045,-0.297 0.051,-0.305 0.058,-0.314L0.317,-0.66C0.334,-0.683 0.348,-0.699 0.359,-0.71C0.37,-0.72 0.383,-0.725 0.398,-0.725C0.447,-0.725 0.472,-0.697 0.472,-0.64L0.472,-0.262L0.493,-0.262C0.518,-0.262 0.538,-0.259 0.553,-0.252C0.569,-0.245 0.576,-0.23 0.576,-0.207C0.576,-0.188 0.57,-0.174 0.558,-0.166C0.545,-0.157 0.527,-0.153 0.502,-0.153L0.472,-0.153L0.472,-0.062C0.472,-0.037 0.467,-0.018 0.456,-0.006C0.444,0.006 0.43,0.012 0.411,0.012C0.393,0.012 0.378,0.006 0.367,-0.007C0.356,-0.019 0.35,-0.038 0.35,-0.062ZM0.14,-0.262L0.35,-0.262L0.35,-0.546L0.14,-0.262Z" style="fill-rule:nonzero;"/>
            </g>
        </g>
        <g transform="matrix(1.198,0,0,0.958552,929.361,-72.5474)">
            <g transform="matrix(6.4,0,0,6.4,39.3356,51.8924)">
                <path d="M0.463,-0.595L0.231,-0.595L0.203,-0.437C0.249,-0.462 0.292,-0.474 0.331,-0.474C0.362,-0.474 0.392,-0.468 0.419,-0.457C0.446,-0.445 0.47,-0.429 0.49,-0.408C0.511,-0.387 0.527,-0.363 0.539,-0.334C0.55,-0.306 0.556,-0.276 0.556,-0.243C0.556,-0.196 0.546,-0.153 0.524,-0.114C0.503,-0.076 0.473,-0.045 0.433,-0.022C0.393,0.001 0.347,0.012 0.295,0.012C0.237,0.012 0.189,0.001 0.153,-0.02C0.117,-0.042 0.091,-0.066 0.076,-0.094C0.061,-0.122 0.053,-0.146 0.053,-0.167C0.053,-0.18 0.059,-0.192 0.069,-0.203C0.08,-0.215 0.093,-0.22 0.109,-0.22C0.136,-0.22 0.157,-0.204 0.17,-0.173C0.183,-0.144 0.201,-0.121 0.223,-0.105C0.245,-0.089 0.27,-0.081 0.297,-0.081C0.322,-0.081 0.344,-0.088 0.363,-0.101C0.382,-0.114 0.396,-0.132 0.406,-0.154C0.417,-0.177 0.422,-0.203 0.422,-0.232C0.422,-0.263 0.416,-0.29 0.405,-0.312C0.394,-0.334 0.379,-0.351 0.361,-0.362C0.342,-0.372 0.322,-0.378 0.299,-0.378C0.271,-0.378 0.251,-0.375 0.239,-0.368C0.227,-0.361 0.209,-0.349 0.187,-0.332C0.164,-0.315 0.146,-0.306 0.131,-0.306C0.115,-0.306 0.101,-0.312 0.088,-0.323C0.076,-0.335 0.07,-0.348 0.07,-0.363C0.07,-0.364 0.072,-0.375 0.075,-0.396L0.116,-0.63C0.121,-0.658 0.129,-0.678 0.142,-0.691C0.154,-0.704 0.174,-0.71 0.202,-0.71L0.46,-0.71C0.511,-0.71 0.536,-0.691 0.536,-0.652C0.536,-0.635 0.53,-0.621 0.518,-0.611C0.505,-0.6 0.487,-0.595 0.463,-0.595Z" style="fill-rule:nonzero;"/>
            </g>
        </g>
        <g transform="matrix(1.198,0,0,0.958552,929.386,-49.9176)">
            <g transform="matrix(6.4,0,0,6.4,39.3356,51.8924)">
                <path d="M0.181,-0.387C0.203,-0.414 0.227,-0.433 0.253,-0.446C0.279,-0.458 0.309,-0.465 0.341,-0.465C0.372,-0.465 0.4,-0.459 0.427,-0.448C0.453,-0.436 0.476,-0.42 0.495,-0.398C0.515,-0.377 0.53,-0.352 0.541,-0.323C0.552,-0.294 0.557,-0.264 0.557,-0.232C0.557,-0.186 0.547,-0.144 0.526,-0.107C0.505,-0.069 0.475,-0.04 0.438,-0.019C0.4,0.002 0.358,0.012 0.31,0.012C0.255,0.012 0.208,-0.001 0.168,-0.028C0.129,-0.055 0.098,-0.094 0.077,-0.146C0.056,-0.198 0.046,-0.262 0.046,-0.338C0.046,-0.399 0.052,-0.454 0.065,-0.503C0.078,-0.551 0.096,-0.592 0.12,-0.624C0.143,-0.655 0.172,-0.68 0.206,-0.696C0.24,-0.712 0.278,-0.72 0.322,-0.72C0.363,-0.72 0.4,-0.712 0.432,-0.696C0.464,-0.68 0.488,-0.659 0.504,-0.635C0.52,-0.611 0.528,-0.588 0.528,-0.566C0.528,-0.553 0.523,-0.54 0.513,-0.53C0.503,-0.519 0.49,-0.513 0.474,-0.513C0.46,-0.513 0.448,-0.517 0.436,-0.526C0.424,-0.535 0.416,-0.547 0.41,-0.562C0.403,-0.582 0.391,-0.597 0.375,-0.609C0.358,-0.621 0.339,-0.627 0.318,-0.627C0.301,-0.627 0.283,-0.622 0.266,-0.612C0.249,-0.602 0.235,-0.589 0.223,-0.572C0.199,-0.537 0.185,-0.476 0.181,-0.387ZM0.313,-0.084C0.346,-0.084 0.373,-0.097 0.395,-0.124C0.416,-0.151 0.427,-0.186 0.427,-0.23C0.427,-0.26 0.422,-0.285 0.412,-0.306C0.402,-0.328 0.388,-0.344 0.37,-0.355C0.353,-0.366 0.333,-0.372 0.312,-0.372C0.292,-0.372 0.273,-0.367 0.254,-0.356C0.236,-0.345 0.221,-0.33 0.21,-0.309C0.198,-0.289 0.193,-0.265 0.193,-0.238C0.193,-0.194 0.204,-0.157 0.227,-0.128C0.25,-0.099 0.278,-0.084 0.313,-0.084Z" style="fill-rule:nonzero;"/>
            </g>
        </g>
        <g transform="matrix(1.198,0,0,0.958552,929.228,-27.4196)">
            <g transform="matrix(6.4,0,0,6.4,39.3356,51.8924)">
                <path d="M0.156,-0.709L0.481,-0.709C0.512,-0.709 0.535,-0.704 0.549,-0.694C0.563,-0.685 0.57,-0.668 0.57,-0.646C0.57,-0.632 0.562,-0.614 0.545,-0.592C0.529,-0.569 0.51,-0.545 0.489,-0.517C0.468,-0.49 0.446,-0.456 0.424,-0.416C0.402,-0.376 0.381,-0.326 0.363,-0.268C0.355,-0.242 0.349,-0.221 0.346,-0.204C0.343,-0.187 0.339,-0.165 0.335,-0.138C0.332,-0.111 0.328,-0.09 0.325,-0.076C0.318,-0.043 0.309,-0.02 0.296,-0.007C0.284,0.006 0.267,0.012 0.246,0.012C0.226,0.012 0.21,0.005 0.198,-0.009C0.186,-0.022 0.18,-0.043 0.18,-0.07C0.18,-0.091 0.185,-0.119 0.193,-0.155C0.202,-0.191 0.216,-0.233 0.236,-0.283C0.256,-0.333 0.281,-0.385 0.311,-0.437C0.341,-0.49 0.376,-0.542 0.417,-0.594L0.156,-0.594C0.128,-0.594 0.108,-0.599 0.094,-0.609C0.081,-0.619 0.074,-0.635 0.074,-0.656C0.074,-0.678 0.081,-0.693 0.096,-0.699C0.11,-0.706 0.13,-0.709 0.156,-0.709Z" style="fill-rule:nonzero;"/>
            </g>
        </g>
        <g transform="matrix(1.198,0,0,0.958552,929.421,-4.77776)">
            <g transform="matrix(6.4,0,0,6.4,39.3356,51.8924)">
                <path d="M0.067,-0.534C0.067,-0.567 0.076,-0.597 0.094,-0.626C0.111,-0.655 0.137,-0.678 0.172,-0.695C0.206,-0.713 0.246,-0.721 0.292,-0.721C0.331,-0.721 0.365,-0.716 0.394,-0.706C0.423,-0.696 0.448,-0.682 0.467,-0.664C0.487,-0.647 0.501,-0.627 0.511,-0.604C0.52,-0.582 0.525,-0.558 0.525,-0.533C0.525,-0.501 0.517,-0.473 0.5,-0.448C0.484,-0.423 0.459,-0.402 0.427,-0.386C0.454,-0.375 0.477,-0.361 0.496,-0.344C0.514,-0.327 0.528,-0.306 0.537,-0.283C0.546,-0.26 0.551,-0.235 0.551,-0.207C0.551,-0.166 0.541,-0.129 0.521,-0.095C0.501,-0.062 0.472,-0.036 0.434,-0.017C0.395,0.002 0.35,0.011 0.298,0.011C0.244,0.011 0.198,0.002 0.159,-0.017C0.121,-0.036 0.092,-0.062 0.072,-0.095C0.053,-0.128 0.043,-0.165 0.043,-0.206C0.043,-0.294 0.084,-0.354 0.167,-0.386C0.1,-0.417 0.067,-0.467 0.067,-0.534ZM0.417,-0.211C0.417,-0.236 0.412,-0.258 0.401,-0.277C0.391,-0.296 0.376,-0.311 0.357,-0.321C0.339,-0.331 0.317,-0.336 0.294,-0.336C0.261,-0.336 0.233,-0.325 0.21,-0.303C0.188,-0.281 0.177,-0.25 0.177,-0.21C0.177,-0.185 0.182,-0.162 0.193,-0.143C0.203,-0.123 0.218,-0.108 0.236,-0.098C0.254,-0.087 0.274,-0.082 0.297,-0.082C0.32,-0.082 0.34,-0.087 0.358,-0.098C0.377,-0.109 0.391,-0.124 0.401,-0.144C0.412,-0.163 0.417,-0.186 0.417,-0.211ZM0.295,-0.628C0.264,-0.628 0.24,-0.618 0.221,-0.599C0.202,-0.58 0.193,-0.556 0.193,-0.526C0.193,-0.498 0.202,-0.475 0.222,-0.457C0.241,-0.438 0.266,-0.429 0.296,-0.429C0.311,-0.429 0.325,-0.432 0.338,-0.437C0.35,-0.441 0.361,-0.448 0.37,-0.457C0.379,-0.465 0.386,-0.476 0.391,-0.488C0.396,-0.499 0.398,-0.513 0.398,-0.527C0.398,-0.546 0.394,-0.563 0.385,-0.579C0.376,-0.594 0.364,-0.606 0.349,-0.615C0.333,-0.624 0.315,-0.628 0.295,-0.628Z" style="fill-rule:nonzero;"/>
            </g>
        </g>
        <g transform="matrix(1,0,0,1,-0.138405,0)">
            <g transform="matrix(1.198,0,0,0.958552,893.633,-224.914)">
                <g transform="matrix(9,0,0,9,64.0056,347.267)">
                    <path d="M0.919,0L0.762,0L0.762,-0.308C0.762,-0.391 0.732,-0.432 0.671,-0.432C0.643,-0.432 0.62,-0.42 0.602,-0.395C0.583,-0.369 0.574,-0.339 0.574,-0.303L0.574,0L0.417,0L0.417,-0.312C0.417,-0.392 0.387,-0.432 0.327,-0.432C0.298,-0.432 0.274,-0.42 0.256,-0.396C0.238,-0.372 0.229,-0.341 0.229,-0.301L0.229,0L0.072,0L0.072,-0.54L0.229,-0.54L0.229,-0.456L0.231,-0.456C0.25,-0.486 0.275,-0.51 0.307,-0.528C0.338,-0.545 0.371,-0.553 0.405,-0.553C0.481,-0.553 0.533,-0.519 0.561,-0.451C0.603,-0.519 0.663,-0.553 0.743,-0.553C0.86,-0.553 0.919,-0.481 0.919,-0.335L0.919,0Z" style="fill:rgb(10,1,1);fill-rule:nonzero;"/>
                </g>
                <g transform="matrix(9,0,0,9,72.978,347.267)">
                    <path d="M0.551,-0.226L0.196,-0.226C0.201,-0.142 0.252,-0.1 0.347,-0.1C0.407,-0.1 0.459,-0.115 0.505,-0.144L0.505,-0.028C0.456,-0.001 0.391,0.013 0.312,0.013C0.226,0.013 0.159,-0.011 0.111,-0.06C0.063,-0.108 0.04,-0.176 0.04,-0.262C0.04,-0.348 0.065,-0.419 0.116,-0.472C0.167,-0.526 0.23,-0.553 0.307,-0.553C0.384,-0.553 0.443,-0.53 0.487,-0.484C0.53,-0.437 0.551,-0.374 0.551,-0.292L0.551,-0.226ZM0.404,-0.324C0.404,-0.405 0.372,-0.445 0.306,-0.445C0.279,-0.445 0.255,-0.434 0.234,-0.412C0.214,-0.39 0.201,-0.361 0.195,-0.324L0.404,-0.324Z" style="fill:rgb(10,1,1);fill-rule:nonzero;"/>
                </g>
                <g transform="matrix(9,0,0,9,78.3513,347.267)">
                    <rect x="0.069" y="-0.799" width="0.157" height="0.799" style="fill:rgb(10,1,1);fill-rule:nonzero;"/>
                </g>
                <g transform="matrix(9,0,0,9,81.1494,347.267)">
                    <path d="M0.593,0L0.436,0L0.436,-0.076L0.433,-0.076C0.395,-0.017 0.339,0.013 0.264,0.013C0.195,0.013 0.141,-0.011 0.1,-0.06C0.06,-0.108 0.04,-0.174 0.04,-0.258C0.04,-0.346 0.062,-0.418 0.108,-0.472C0.153,-0.526 0.212,-0.553 0.286,-0.553C0.356,-0.553 0.405,-0.528 0.433,-0.477L0.436,-0.477L0.438,-0.707L0.593,-0.658L0.593,0ZM0.438,-0.306C0.438,-0.342 0.427,-0.372 0.405,-0.396C0.383,-0.42 0.356,-0.432 0.323,-0.432C0.284,-0.432 0.254,-0.417 0.232,-0.386C0.21,-0.356 0.199,-0.315 0.199,-0.263C0.199,-0.213 0.21,-0.175 0.231,-0.148C0.252,-0.121 0.281,-0.108 0.318,-0.108C0.353,-0.108 0.382,-0.122 0.404,-0.15C0.427,-0.179 0.438,-0.215 0.438,-0.261L0.438,-0.306Z" style="fill:rgb(10,1,1);fill-rule:nonzero;"/>
                </g>
                <g transform="matrix(9,0,0,9,87.2654,347.267)">
                    <path d="M0.551,-0.226L0.196,-0.226C0.201,-0.142 0.252,-0.1 0.347,-0.1C0.407,-0.1 0.459,-0.115 0.505,-0.144L0.505,-0.028C0.456,-0.001 0.391,0.013 0.312,0.013C0.226,0.013 0.159,-0.011 0.111,-0.06C0.063,-0.108 0.04,-0.176 0.04,-0.262C0.04,-0.348 0.065,-0.419 0.116,-0.472C0.167,-0.526 0.23,-0.553 0.307,-0.553C0.384,-0.553 0.443,-0.53 0.487,-0.484C0.53,-0.437 0.551,-0.374 0.551,-0.292L0.551,-0.226ZM0.404,-0.324C0.404,-0.405 0.372,-0.445 0.306,-0.445C0.279,-0.445 0.255,-0.434 0.234,-0.412C0.214,-0.39 0.201,-0.361 0.195,-0.324L0.404,-0.324Z" style="fill:rgb(10,1,1);fill-rule:nonzero;"/>
                </g>
                <g transform="matrix(9,0,0,9,92.6386,347.267)">
                    <path d="M0.416,-0.397C0.397,-0.408 0.374,-0.414 0.346,-0.414C0.31,-0.414 0.282,-0.4 0.261,-0.373C0.24,-0.345 0.229,-0.308 0.229,-0.26L0.229,0L0.072,0L0.072,-0.54L0.229,-0.54L0.229,-0.438L0.231,-0.438C0.257,-0.512 0.305,-0.549 0.374,-0.549C0.392,-0.549 0.406,-0.547 0.416,-0.543L0.416,-0.397Z" style="fill:rgb(10,1,1);fill-rule:nonzero;"/>
                </g>
            </g>
            <g transform="matrix(1.198,0,0,0.958552,893.495,-231.786)">
                <g transform="matrix(9,0,0,9,68.6657,347.267)">
                    <path d="M0.058,-0.145C0.112,-0.112 0.165,-0.096 0.216,-0.096C0.281,-0.096 0.314,-0.113 0.314,-0.148C0.314,-0.173 0.287,-0.193 0.233,-0.21C0.166,-0.231 0.12,-0.254 0.095,-0.28C0.07,-0.305 0.058,-0.34 0.058,-0.383C0.058,-0.436 0.079,-0.478 0.122,-0.508C0.165,-0.538 0.221,-0.553 0.291,-0.553C0.34,-0.553 0.388,-0.546 0.434,-0.531L0.434,-0.407C0.392,-0.432 0.346,-0.444 0.295,-0.444C0.27,-0.444 0.25,-0.44 0.235,-0.431C0.22,-0.422 0.212,-0.41 0.212,-0.396C0.212,-0.371 0.235,-0.351 0.28,-0.335C0.329,-0.319 0.366,-0.304 0.39,-0.291C0.415,-0.278 0.434,-0.26 0.447,-0.238C0.459,-0.216 0.466,-0.191 0.466,-0.163C0.466,-0.107 0.444,-0.064 0.399,-0.033C0.354,-0.002 0.295,0.013 0.22,0.013C0.162,0.013 0.107,0.004 0.058,-0.015L0.058,-0.145Z" style="fill:rgb(10,1,1);fill-rule:nonzero;"/>
                </g>
                <g transform="matrix(9,0,0,9,73.2436,347.267)">
                    <path d="M0.39,-0.006C0.366,0.007 0.33,0.013 0.282,0.013C0.167,0.013 0.11,-0.047 0.11,-0.167L0.11,-0.422L0.021,-0.422L0.021,-0.54L0.11,-0.54L0.11,-0.659L0.267,-0.704L0.267,-0.54L0.39,-0.54L0.39,-0.422L0.267,-0.422L0.267,-0.195C0.267,-0.137 0.289,-0.108 0.335,-0.108C0.353,-0.108 0.371,-0.114 0.39,-0.124L0.39,-0.006Z" style="fill:rgb(10,1,1);fill-rule:nonzero;"/>
                </g>
                <g transform="matrix(6.6,0,0,6.6,77.1051,347.267)">
                    <path d="M0.106,0.032L0.043,-0.021L0.122,-0.115C0.067,-0.183 0.04,-0.268 0.04,-0.368C0.04,-0.487 0.075,-0.584 0.144,-0.658C0.213,-0.732 0.305,-0.769 0.418,-0.769C0.5,-0.769 0.571,-0.748 0.63,-0.706L0.698,-0.785L0.761,-0.733L0.689,-0.65C0.748,-0.581 0.778,-0.493 0.778,-0.384C0.778,-0.266 0.743,-0.17 0.674,-0.097C0.605,-0.023 0.516,0.013 0.406,0.013C0.32,0.013 0.246,-0.011 0.182,-0.059L0.106,0.032ZM0.54,-0.6C0.506,-0.628 0.463,-0.642 0.413,-0.642C0.349,-0.642 0.297,-0.617 0.258,-0.569C0.218,-0.52 0.199,-0.455 0.199,-0.375C0.199,-0.319 0.208,-0.273 0.227,-0.234L0.54,-0.6ZM0.275,-0.165C0.311,-0.131 0.356,-0.114 0.409,-0.114C0.473,-0.114 0.524,-0.137 0.563,-0.184C0.601,-0.231 0.62,-0.294 0.62,-0.374C0.62,-0.435 0.61,-0.488 0.588,-0.533L0.275,-0.165Z" style="fill-rule:nonzero;"/>
                </g>
                <g transform="matrix(9,0,0,9,82.6053,347.267)">
                    <path d="M0.551,-0.226L0.196,-0.226C0.201,-0.142 0.252,-0.1 0.347,-0.1C0.407,-0.1 0.459,-0.115 0.505,-0.144L0.505,-0.028C0.456,-0.001 0.391,0.013 0.312,0.013C0.226,0.013 0.159,-0.011 0.111,-0.06C0.063,-0.108 0.04,-0.176 0.04,-0.262C0.04,-0.348 0.065,-0.419 0.116,-0.472C0.167,-0.526 0.23,-0.553 0.307,-0.553C0.384,-0.553 0.443,-0.53 0.487,-0.484C0.53,-0.437 0.551,-0.374 0.551,-0.292L0.551,-0.226ZM0.404,-0.324C0.404,-0.405 0.372,-0.445 0.306,-0.445C0.279,-0.445 0.255,-0.434 0.234,-0.412C0.214,-0.39 0.201,-0.361 0.195,-0.324L0.404,-0.324Z" style="fill:rgb(10,1,1);fill-rule:nonzero;"/>
                </g>
                <g transform="matrix(9,0,0,9,87.9786,347.267)">
                    <path d="M0.416,-0.397C0.397,-0.408 0.374,-0.414 0.346,-0.414C0.31,-0.414 0.282,-0.4 0.261,-0.373C0.24,-0.345 0.229,-0.308 0.229,-0.26L0.229,0L0.072,0L0.072,-0.54L0.229,-0.54L0.229,-0.438L0.231,-0.438C0.257,-0.512 0.305,-0.549 0.374,-0.549C0.392,-0.549 0.406,-0.547 0.416,-0.543L0.416,-0.397Z" style="fill:rgb(10,1,1);fill-rule:nonzero;"/>
                </g>
            </g>
        </g>
    </g>
    <defs>
        <linearGradient id="_Linear1" x1="0" y1="0" x2="1" y2="0" gradientUnits="userSpaceOnUse" gradientTransform="matrix(9.31062e-17,1.52054,-1.52054,9.31062e-17,1036.87,122.284)"><stop offset="0" style="stop-color:rgb(165,165,165);stop-opacity:1"/><stop offset="1" style="stop-color:black;stop-opacity:1"/></linearGradient>
    </defs>
</svg>
