<?xml version="1.0" encoding="UTF-8" standalone="no"?>
<!DOCTYPE svg PUBLIC "-//W3C//DTD SVG 1.1//EN" "http://www.w3.org/Graphics/SVG/1.1/DTD/svg11.dtd">
<svg width="100%" height="100%" viewBox="0 0 300 380" version="1.1" xmlns="http://www.w3.org/2000/svg" xmlns:xlink="http://www.w3.org/1999/xlink" xml:space="preserve" xmlns:serif="http://www.serif.com/" style="fill-rule:evenodd;clip-rule:evenodd;stroke-linecap:round;stroke-linejoin:round;stroke-miterlimit:1.5;">
    <g id="panel" transform="matrix(0.834722,0,0,1.04324,-803.837,250.623)">
        <g transform="matrix(5.99002,0,0,0.958552,963,-240.235)">
            <rect x="0" y="0" width="60" height="380" style="fill:rgb(128,187,254);"/>
        </g>
        <g transform="matrix(0.840359,0,0,0.840359,310.666,16.2108)">
            <g transform="matrix(1.198,0,0,0.958552,893.633,-224.914)">
                <g transform="matrix(9,0,0,9,64.0056,347.267)">
                    <path d="M0.919,0L0.762,0L0.762,-0.308C0.762,-0.391 0.732,-0.432 0.671,-0.432C0.643,-0.432 0.62,-0.42 0.602,-0.395C0.583,-0.369 0.574,-0.339 0.574,-0.303L0.574,0L0.417,0L0.417,-0.312C0.417,-0.392 0.387,-0.432 0.327,-0.432C0.298,-0.432 0.274,-0.42 0.256,-0.396C0.238,-0.372 0.229,-0.341 0.229,-0.301L0.229,0L0.072,0L0.072,-0.54L0.229,-0.54L0.229,-0.456L0.231,-0.456C0.25,-0.486 0.275,-0.51 0.307,-0.528C0.338,-0.545 0.371,-0.553 0.405,-0.553C0.481,-0.553 0.533,-0.519 0.561,-0.451C0.603,-0.519 0.663,-0.553 0.743,-0.553C0.86,-0.553 0.919,-0.481 0.919,-0.335L0.919,0Z" style="fill:rgb(10,1,1);fill-rule:nonzero;"/>
                </g>
                <g transform="matrix(9,0,0,9,72.978,347.267)">
                    <path d="M0.551,-0.226L0.196,-0.226C0.201,-0.142 0.252,-0.1 0.347,-0.1C0.407,-0.1 0.459,-0.115 0.505,-0.144L0.505,-0.028C0.456,-0.001 0.391,0.013 0.312,0.013C0.226,0.013 0.159,-0.011 0.111,-0.06C0.063,-0.108 0.04,-0.176 0.04,-0.262C0.04,-0.348 0.065,-0.419 0.116,-0.472C0.167,-0.526 0.23,-0.553 0.307,-0.553C0.384,-0.553 0.443,-0.53 0.487,-0.484C0.53,-0.437 0.551,-0.374 0.551,-0.292L0.551,-0.226ZM0.404,-0.324C0.404,-0.405 0.372,-0.445 0.306,-0.445C0.279,-0.445 0.255,-0.434 0.234,-0.412C0.214,-0.39 0.201,-0.361 0.195,-0.324L0.404,-0.324Z" style="fill:rgb(10,1,1);fill-rule:nonzero;"/>
                </g>
                <g transform="matrix(9,0,0,9,78.3513,347.267)">
                    <rect x="0.069" y="-0.799" width="0.157" height="0.799" style="fill:rgb(10,1,1);fill-rule:nonzero;"/>
                </g>
                <g transform="matrix(9,0,0,9,81.1494,347.267)">
                    <path d="M0.593,0L0.436,0L0.436,-0.076L0.433,-0.076C0.395,-0.017 0.339,0.013 0.264,0.013C0.195,0.013 0.141,-0.011 0.1,-0.06C0.06,-0.108 0.04,-0.174 0.04,-0.258C0.04,-0.346 0.062,-0.418 0.108,-0.472C0.153,-0.526 0.212,-0.553 0.286,-0.553C0.356,-0.553 0.405,-0.528 0.433,-0.477L0.436,-0.477L0.438,-0.707L0.593,-0.658L0.593,0ZM0.438,-0.306C0.438,-0.342 0.427,-0.372 0.405,-0.396C0.383,-0.42 0.356,-0.432 0.323,-0.432C0.284,-0.432 0.254,-0.417 0.232,-0.386C0.21,-0.356 0.199,-0.315 0.199,-0.263C0.199,-0.213 0.21,-0.175 0.231,-0.148C0.252,-0.121 0.281,-0.108 0.318,-0.108C0.353,-0.108 0.382,-0.122 0.404,-0.15C0.427,-0.179 0.438,-0.215 0.438,-0.261L0.438,-0.306Z" style="fill:rgb(10,1,1);fill-rule:nonzero;"/>
                </g>
                <g transform="matrix(9,0,0,9,87.2654,347.267)">
                    <path d="M0.551,-0.226L0.196,-0.226C0.201,-0.142 0.252,-0.1 0.347,-0.1C0.407,-0.1 0.459,-0.115 0.505,-0.144L0.505,-0.028C0.456,-0.001 0.391,0.013 0.312,0.013C0.226,0.013 0.159,-0.011 0.111,-0.06C0.063,-0.108 0.04,-0.176 0.04,-0.262C0.04,-0.348 0.065,-0.419 0.116,-0.472C0.167,-0.526 0.23,-0.553 0.307,-0.553C0.384,-0.553 0.443,-0.53 0.487,-0.484C0.53,-0.437 0.551,-0.374 0.551,-0.292L0.551,-0.226ZM0.404,-0.324C0.404,-0.405 0.372,-0.445 0.306,-0.445C0.279,-0.445 0.255,-0.434 0.234,-0.412C0.214,-0.39 0.201,-0.361 0.195,-0.324L0.404,-0.324Z" style="fill:rgb(10,1,1);fill-rule:nonzero;"/>
                </g>
                <g transform="matrix(9,0,0,9,92.6386,347.267)">
                    <path d="M0.416,-0.397C0.397,-0.408 0.374,-0.414 0.346,-0.414C0.31,-0.414 0.282,-0.4 0.261,-0.373C0.24,-0.345 0.229,-0.308 0.229,-0.26L0.229,0L0.072,0L0.072,-0.54L0.229,-0.54L0.229,-0.438L0.231,-0.438C0.257,-0.512 0.305,-0.549 0.374,-0.549C0.392,-0.549 0.406,-0.547 0.416,-0.543L0.416,-0.397Z" style="fill:rgb(10,1,1);fill-rule:nonzero;"/>
                </g>
            </g>
            <g transform="matrix(1.198,0,0,0.958552,893.495,-231.786)">
                <g transform="matrix(9,0,0,9,68.6657,347.267)">
                    <path d="M0.058,-0.145C0.112,-0.112 0.165,-0.096 0.216,-0.096C0.281,-0.096 0.314,-0.113 0.314,-0.148C0.314,-0.173 0.287,-0.193 0.233,-0.21C0.166,-0.231 0.12,-0.254 0.095,-0.28C0.07,-0.305 0.058,-0.34 0.058,-0.383C0.058,-0.436 0.079,-0.478 0.122,-0.508C0.165,-0.538 0.221,-0.553 0.291,-0.553C0.34,-0.553 0.388,-0.546 0.434,-0.531L0.434,-0.407C0.392,-0.432 0.346,-0.444 0.295,-0.444C0.27,-0.444 0.25,-0.44 0.235,-0.431C0.22,-0.422 0.212,-0.41 0.212,-0.396C0.212,-0.371 0.235,-0.351 0.28,-0.335C0.329,-0.319 0.366,-0.304 0.39,-0.291C0.415,-0.278 0.434,-0.26 0.447,-0.238C0.459,-0.216 0.466,-0.191 0.466,-0.163C0.466,-0.107 0.444,-0.064 0.399,-0.033C0.354,-0.002 0.295,0.013 0.22,0.013C0.162,0.013 0.107,0.004 0.058,-0.015L0.058,-0.145Z" style="fill:rgb(10,1,1);fill-rule:nonzero;"/>
                </g>
                <g transform="matrix(9,0,0,9,73.2436,347.267)">
                    <path d="M0.39,-0.006C0.366,0.007 0.33,0.013 0.282,0.013C0.167,0.013 0.11,-0.047 0.11,-0.167L0.11,-0.422L0.021,-0.422L0.021,-0.54L0.11,-0.54L0.11,-0.659L0.267,-0.704L0.267,-0.54L0.39,-0.54L0.39,-0.422L0.267,-0.422L0.267,-0.195C0.267,-0.137 0.289,-0.108 0.335,-0.108C0.353,-0.108 0.371,-0.114 0.39,-0.124L0.39,-0.006Z" style="fill:rgb(10,1,1);fill-rule:nonzero;"/>
                </g>
                <g transform="matrix(6.6,0,0,6.6,77.1051,347.267)">
                    <path d="M0.106,0.032L0.043,-0.021L0.122,-0.115C0.067,-0.183 0.04,-0.268 0.04,-0.368C0.04,-0.487 0.075,-0.584 0.144,-0.658C0.213,-0.732 0.305,-0.769 0.418,-0.769C0.5,-0.769 0.571,-0.748 0.63,-0.706L0.698,-0.785L0.761,-0.733L0.689,-0.65C0.748,-0.581 0.778,-0.493 0.778,-0.384C0.778,-0.266 0.743,-0.17 0.674,-0.097C0.605,-0.023 0.516,0.013 0.406,0.013C0.32,0.013 0.246,-0.011 0.182,-0.059L0.106,0.032ZM0.54,-0.6C0.506,-0.628 0.463,-0.642 0.413,-0.642C0.349,-0.642 0.297,-0.617 0.258,-0.569C0.218,-0.52 0.199,-0.455 0.199,-0.375C0.199,-0.319 0.208,-0.273 0.227,-0.234L0.54,-0.6ZM0.275,-0.165C0.311,-0.131 0.356,-0.114 0.409,-0.114C0.473,-0.114 0.524,-0.137 0.563,-0.184C0.601,-0.231 0.62,-0.294 0.62,-0.374C0.62,-0.435 0.61,-0.488 0.588,-0.533L0.275,-0.165Z" style="fill-rule:nonzero;"/>
                </g>
                <g transform="matrix(9,0,0,9,82.6053,347.267)">
                    <path d="M0.551,-0.226L0.196,-0.226C0.201,-0.142 0.252,-0.1 0.347,-0.1C0.407,-0.1 0.459,-0.115 0.505,-0.144L0.505,-0.028C0.456,-0.001 0.391,0.013 0.312,0.013C0.226,0.013 0.159,-0.011 0.111,-0.06C0.063,-0.108 0.04,-0.176 0.04,-0.262C0.04,-0.348 0.065,-0.419 0.116,-0.472C0.167,-0.526 0.23,-0.553 0.307,-0.553C0.384,-0.553 0.443,-0.53 0.487,-0.484C0.53,-0.437 0.551,-0.374 0.551,-0.292L0.551,-0.226ZM0.404,-0.324C0.404,-0.405 0.372,-0.445 0.306,-0.445C0.279,-0.445 0.255,-0.434 0.234,-0.412C0.214,-0.39 0.201,-0.361 0.195,-0.324L0.404,-0.324Z" style="fill:rgb(10,1,1);fill-rule:nonzero;"/>
                </g>
                <g transform="matrix(9,0,0,9,87.9786,347.267)">
                    <path d="M0.416,-0.397C0.397,-0.408 0.374,-0.414 0.346,-0.414C0.31,-0.414 0.282,-0.4 0.261,-0.373C0.24,-0.345 0.229,-0.308 0.229,-0.26L0.229,0L0.072,0L0.072,-0.54L0.229,-0.54L0.229,-0.438L0.231,-0.438C0.257,-0.512 0.305,-0.549 0.374,-0.549C0.392,-0.549 0.406,-0.547 0.416,-0.543L0.416,-0.397Z" style="fill:rgb(10,1,1);fill-rule:nonzero;"/>
                </g>
            </g>
        </g>
        <g transform="matrix(2.12535,0,0,1.76292,1026.83,-852.772)">
            <rect x="-30.034" y="347.456" width="169.102" height="16.91" style="fill:rgb(4,4,4);fill-opacity:0.3;"/>
        </g>
        <g transform="matrix(2.12535,0,0,1.81961,1026.83,-538.829)">
            <rect x="-30.034" y="347.456" width="169.102" height="16.91" style="fill:rgb(4,4,4);fill-opacity:0.3;"/>
        </g>
        <g transform="matrix(16.0469,0,0,25.5659,363.043,-292.473)">
            <rect x="37.388" y="2.043" width="22.397" height="14.247" style="fill:none;stroke:black;stroke-opacity:0.6;stroke-width:0.03px;"/>
        </g>
        <g transform="matrix(1.198,0,0,0.958552,1120.95,-213.59)">
            <g transform="matrix(13,0,0,13,-10.3943,0)">
                <path d="M0.48,-0.187L0.48,0L0.358,0L0.358,-0.187L0.033,-0.187L0.033,-0.26L0.425,-0.718L0.48,-0.718L0.48,-0.288L0.553,-0.288L0.553,-0.187L0.48,-0.187ZM0.358,-0.502L0.175,-0.288L0.358,-0.288L0.358,-0.502Z" style="fill-rule:nonzero;"/>
            </g>
            <g transform="matrix(13,0,0,13,-2.7771,0)">
                <path d="M0.477,0L0.286,-0.295C0.266,-0.296 0.24,-0.297 0.205,-0.299L0.205,0L0.073,0L0.073,-0.715C0.08,-0.715 0.108,-0.717 0.156,-0.719C0.204,-0.721 0.242,-0.723 0.271,-0.723C0.453,-0.723 0.544,-0.652 0.544,-0.512C0.544,-0.469 0.531,-0.431 0.506,-0.396C0.481,-0.361 0.45,-0.337 0.412,-0.322L0.623,0L0.477,0ZM0.205,-0.605L0.205,-0.406C0.229,-0.404 0.246,-0.403 0.259,-0.403C0.312,-0.403 0.351,-0.411 0.375,-0.426C0.4,-0.441 0.412,-0.47 0.412,-0.513C0.412,-0.548 0.399,-0.573 0.373,-0.587C0.346,-0.601 0.305,-0.608 0.248,-0.608C0.234,-0.608 0.22,-0.607 0.205,-0.605Z" style="fill-rule:nonzero;"/>
            </g>
            <g transform="matrix(13,0,0,13,5.16382,0)">
                <path d="M0.039,-0.364C0.039,-0.466 0.067,-0.552 0.123,-0.622C0.179,-0.693 0.253,-0.728 0.347,-0.728C0.45,-0.728 0.528,-0.696 0.583,-0.632C0.637,-0.569 0.664,-0.479 0.664,-0.364C0.664,-0.249 0.636,-0.157 0.579,-0.089C0.522,-0.022 0.441,0.012 0.337,0.012C0.241,0.012 0.167,-0.021 0.116,-0.088C0.065,-0.155 0.039,-0.247 0.039,-0.364ZM0.171,-0.364C0.171,-0.28 0.185,-0.215 0.213,-0.169C0.242,-0.124 0.283,-0.101 0.337,-0.101C0.4,-0.101 0.449,-0.123 0.482,-0.168C0.516,-0.213 0.532,-0.278 0.532,-0.364C0.532,-0.531 0.47,-0.615 0.347,-0.615C0.29,-0.615 0.247,-0.593 0.216,-0.547C0.186,-0.502 0.171,-0.441 0.171,-0.364Z" style="fill-rule:nonzero;"/>
            </g>
            <g transform="matrix(13,0,0,13,14.3044,0)">
                <path d="M0.073,-0.715L0.2,-0.715L0.2,-0.23C0.2,-0.192 0.212,-0.161 0.235,-0.137C0.259,-0.113 0.291,-0.101 0.332,-0.101C0.378,-0.101 0.414,-0.112 0.439,-0.136C0.465,-0.16 0.478,-0.192 0.478,-0.233L0.478,-0.715L0.604,-0.715L0.604,-0.223C0.604,-0.15 0.58,-0.092 0.531,-0.05C0.481,-0.009 0.415,0.012 0.333,0.012C0.25,0.012 0.186,-0.008 0.141,-0.049C0.096,-0.09 0.073,-0.148 0.073,-0.224L0.073,-0.715Z" style="fill-rule:nonzero;"/>
            </g>
            <g transform="matrix(13,0,0,13,23.115,0)">
                <path d="M0.542,0.01L0.195,-0.443L0.195,0L0.073,0L0.073,-0.715L0.134,-0.715L0.472,-0.284L0.472,-0.715L0.594,-0.715L0.594,0.01L0.542,0.01Z" style="fill-rule:nonzero;"/>
            </g>
            <g transform="matrix(13,0,0,13,31.7922,0)">
                <path d="M0.232,0L0.073,0L0.073,-0.715C0.174,-0.718 0.238,-0.72 0.264,-0.72C0.368,-0.72 0.451,-0.69 0.512,-0.629C0.573,-0.568 0.604,-0.487 0.604,-0.386C0.604,-0.129 0.48,0 0.232,0ZM0.2,-0.604L0.2,-0.116C0.221,-0.114 0.243,-0.113 0.267,-0.113C0.331,-0.113 0.381,-0.136 0.417,-0.183C0.454,-0.229 0.472,-0.294 0.472,-0.378C0.472,-0.531 0.401,-0.607 0.258,-0.607C0.245,-0.607 0.225,-0.606 0.2,-0.604Z" style="fill-rule:nonzero;"/>
            </g>
            <g transform="matrix(13,0,0,13,40.1458,0)">
                <path d="M0.039,-0.04L0.086,-0.153C0.136,-0.118 0.185,-0.101 0.234,-0.101C0.308,-0.101 0.346,-0.127 0.346,-0.179C0.346,-0.203 0.337,-0.226 0.319,-0.249C0.302,-0.271 0.266,-0.295 0.211,-0.323C0.156,-0.351 0.119,-0.373 0.1,-0.391C0.081,-0.409 0.066,-0.43 0.056,-0.454C0.046,-0.479 0.041,-0.506 0.041,-0.535C0.041,-0.59 0.061,-0.636 0.101,-0.673C0.142,-0.709 0.194,-0.728 0.257,-0.728C0.34,-0.728 0.401,-0.712 0.439,-0.681L0.401,-0.572C0.356,-0.604 0.309,-0.62 0.26,-0.62C0.23,-0.62 0.208,-0.612 0.192,-0.596C0.176,-0.581 0.167,-0.561 0.167,-0.536C0.167,-0.495 0.213,-0.452 0.304,-0.408C0.352,-0.385 0.386,-0.363 0.407,-0.344C0.428,-0.324 0.444,-0.301 0.456,-0.275C0.467,-0.248 0.472,-0.219 0.472,-0.187C0.472,-0.129 0.449,-0.081 0.404,-0.044C0.358,-0.007 0.297,0.012 0.22,0.012C0.153,0.012 0.093,-0.005 0.039,-0.04Z" style="fill-rule:nonzero;"/>
            </g>
        </g>
        <g transform="matrix(1.198,0,0,0.958552,963,-259.481)">
            <path d="M155.354,152.669C155.354,152.669 151.785,151.818 150,151.818C148.215,151.818 144.646,152.669 144.646,152.669L141.163,147.307L146.295,149.731L146.033,146.104L148.678,148.573L150,143.01L151.322,148.573L153.967,146.104L153.705,149.731L158.837,147.307L155.354,152.669Z" style="fill:white;fill-opacity:0.7;"/>
            <path d="M150.083,142.014L150.166,142.024L150.248,142.042L150.328,142.066L150.406,142.096L150.481,142.134L150.552,142.177L150.62,142.226L150.683,142.28L150.742,142.34L150.795,142.404L150.843,142.473L150.885,142.545L150.921,142.62L150.95,142.699L150.973,142.779L151.897,146.668L153.285,145.373L153.348,145.319L153.415,145.271L153.485,145.228L153.559,145.191L153.636,145.161L153.715,145.136L153.795,145.119L153.877,145.108L153.96,145.104L154.042,145.107L154.124,145.116L154.205,145.132L154.284,145.155L154.361,145.185L154.436,145.22L154.507,145.262L154.575,145.309L154.638,145.362L154.697,145.42L154.751,145.482L154.799,145.549L154.842,145.62L154.879,145.693L154.91,145.77L154.934,145.849L154.952,145.929L154.963,146.011L154.967,146.094L154.965,146.176L154.826,148.095L158.41,146.403L158.487,146.37L158.566,146.344L158.647,146.325L158.73,146.312L158.813,146.307L158.896,146.308L158.979,146.317L159.061,146.332L159.142,146.354L159.22,146.383L159.296,146.418L159.368,146.46L159.437,146.507L159.502,146.56L159.562,146.618L159.617,146.681L159.666,146.748L159.71,146.819L159.747,146.894L159.779,146.971L159.803,147.051L159.821,147.132L159.833,147.215L159.837,147.298L159.834,147.382L159.824,147.465L159.808,147.546L159.784,147.627L159.754,147.704L159.718,147.78L159.675,147.851L156.192,153.214L156.145,153.28L156.093,153.343L156.035,153.401L155.973,153.454L155.907,153.502L155.838,153.544L155.765,153.581L155.689,153.611L155.611,153.635L155.532,153.653L155.451,153.664L155.369,153.669L155.288,153.667L155.207,153.658L155.127,153.643L154.972,153.607L154.793,153.566L154.553,153.513L154.262,153.45L153.928,153.379L153.556,153.303L153.361,153.265L153.159,153.226L152.952,153.187L152.741,153.148L152.528,153.111L152.312,153.074L152.096,153.038L151.881,153.004L151.666,152.972L151.455,152.942L151.247,152.915L151.043,152.89L150.844,152.869L150.75,152.86L150.656,152.851L150.564,152.844L150.475,152.837L150.388,152.831L150.304,152.827L150.223,152.823L150.145,152.82L150.071,152.819L150,152.818L149.929,152.819L149.855,152.82L149.777,152.823L149.696,152.827L149.612,152.831L149.525,152.837L149.436,152.844L149.344,152.851L149.25,152.86L149.156,152.869L148.957,152.89L148.753,152.915L148.545,152.942L148.334,152.972L148.119,153.004L147.904,153.038L147.688,153.074L147.472,153.111L147.259,153.148L147.048,153.187L146.841,153.226L146.639,153.265L146.444,153.303L146.072,153.379L145.738,153.45L145.447,153.513L145.207,153.566L145.028,153.607L144.873,153.643L144.793,153.658L144.712,153.667L144.631,153.669L144.549,153.664L144.468,153.653L144.389,153.635L144.311,153.611L144.235,153.581L144.162,153.544L144.093,153.502L144.027,153.454L143.965,153.401L143.907,153.343L143.855,153.28L143.808,153.214L140.325,147.851L140.282,147.78L140.246,147.704L140.216,147.627L140.192,147.546L140.176,147.465L140.166,147.382L140.163,147.298L140.167,147.215L140.179,147.132L140.197,147.051L140.221,146.971L140.253,146.894L140.29,146.819L140.334,146.748L140.383,146.681L140.438,146.618L140.498,146.56L140.563,146.507L140.632,146.46L140.704,146.418L140.78,146.383L140.858,146.354L140.939,146.332L141.021,146.317L141.104,146.308L141.187,146.307L141.27,146.312L141.353,146.325L141.434,146.344L141.513,146.37L141.59,146.403L145.174,148.095L145.035,146.176L145.033,146.094L145.037,146.011L145.048,145.929L145.066,145.849L145.09,145.77L145.121,145.693L145.158,145.62L145.201,145.549L145.249,145.482L145.303,145.42L145.362,145.362L145.425,145.309L145.493,145.262L145.564,145.22L145.639,145.185L145.716,145.155L145.795,145.132L145.876,145.116L145.958,145.107L146.04,145.104L146.123,145.108L146.205,145.119L146.285,145.136L146.364,145.161L146.441,145.191L146.515,145.228L146.585,145.271L146.652,145.319L146.715,145.373L148.103,146.668L149.027,142.779L149.05,142.699L149.079,142.62L149.115,142.545L149.157,142.473L149.205,142.404L149.258,142.34L149.317,142.28L149.38,142.226L149.448,142.177L149.519,142.134L149.594,142.096L149.672,142.066L149.752,142.042L149.834,142.024L149.917,142.014L150,142.01L150.083,142.014ZM148.678,148.573L146.033,146.104L146.295,149.731L141.163,147.307L144.646,152.669L144.803,152.632L144.987,152.59L145.232,152.536L145.529,152.472L145.87,152.4L146.247,152.323L146.448,152.283L146.654,152.244L146.866,152.204L147.081,152.164L147.3,152.125L147.522,152.087L147.745,152.051L147.968,152.016L148.19,151.982L148.411,151.951L148.629,151.923L148.843,151.897L149.053,151.874L149.156,151.864L149.258,151.855L149.357,151.847L149.455,151.839L149.552,151.833L149.646,151.828L149.738,151.824L149.828,151.821L149.915,151.819L150,151.818L150.085,151.819L150.172,151.821L150.262,151.824L150.354,151.828L150.448,151.833L150.545,151.839L150.643,151.847L150.742,151.855L150.844,151.864L150.947,151.874L151.157,151.897L151.371,151.923L151.589,151.951L151.81,151.982L152.032,152.016L152.255,152.051L152.478,152.087L152.7,152.125L152.919,152.164L153.134,152.204L153.346,152.244L153.552,152.283L153.753,152.323L154.13,152.4L154.471,152.472L154.768,152.536L155.013,152.59L155.197,152.632L155.354,152.669L158.837,147.307L153.705,149.731L153.967,146.104L151.322,148.573L150,143.01L148.678,148.573Z" style="fill:rgb(51,51,51);"/>
        </g>
        <g transform="matrix(1,0,0,1,0,-13.0519)">
            <g transform="matrix(1.198,0,0,0.956584,963,-236.019)">
                <path d="M106.474,84L106.574,84.011L106.673,84.032L106.77,84.064L106.862,84.105L106.95,84.155L107.033,84.214L107.109,84.281L107.178,84.355L107.239,84.436L107.292,84.523L107.336,84.614L118.25,110.838L118.285,110.934L118.309,111.032L118.323,111.133L118.327,111.234L118.321,111.336L118.305,111.436L118.279,111.534L118.242,111.629L118.197,111.719L118.142,111.805L118.08,111.885L118.009,111.957L117.931,112.023L117.848,112.08L117.759,112.128L117.665,112.167L117.568,112.197L117.469,112.216L117.368,112.225L117.267,112.224L117.166,112.213L117.067,112.192L116.971,112.16L116.878,112.119L116.79,112.069L116.707,112.01L116.631,111.943L116.562,111.869L116.501,111.788L116.448,111.701L116.405,111.61L105.49,85.386L105.456,85.29L105.431,85.192L105.417,85.091L105.413,84.99L105.419,84.888L105.435,84.788L105.462,84.69L105.498,84.595L105.543,84.505L105.598,84.419L105.661,84.339L105.731,84.267L105.809,84.201L105.893,84.144L105.982,84.096L106.075,84.057L106.172,84.027L106.271,84.008L106.372,83.999L106.474,84Z" style="fill:rgb(26,26,26);"/>
            </g>
            <g transform="matrix(1.198,0,0,0.956584,894.591,-185.269)">
                <path d="M102.068,92.664L102.168,92.678L102.266,92.702L102.362,92.736L128.604,103.545L128.695,103.588L128.782,103.64L128.863,103.701L128.938,103.77L129.005,103.846L129.064,103.928L129.115,104.016L129.156,104.109L129.188,104.205L129.21,104.305L129.222,104.405L129.223,104.507L129.214,104.608L129.196,104.708L129.167,104.805L129.128,104.899L129.08,104.988L129.024,105.073L128.959,105.151L128.887,105.222L128.808,105.285L128.722,105.34L128.632,105.386L128.538,105.423L128.44,105.45L128.34,105.467L128.239,105.473L128.138,105.47L128.037,105.456L127.939,105.432L127.844,105.398L101.602,94.589L101.51,94.546L101.423,94.494L101.342,94.433L101.268,94.364L101.2,94.288L101.141,94.206L101.091,94.118L101.049,94.025L101.018,93.929L100.996,93.83L100.984,93.729L100.982,93.627L100.991,93.526L101.01,93.426L101.039,93.329L101.077,93.235L101.125,93.146L101.182,93.061L101.246,92.983L101.319,92.912L101.398,92.849L101.483,92.794L101.573,92.748L101.668,92.711L101.765,92.684L101.865,92.667L101.966,92.661L102.068,92.664Z" style="fill:rgb(26,26,26);"/>
            </g>
            <g transform="matrix(1.198,0,0,0.956584,888.98,-131.331)">
                <path d="M133.02,112.569L133.12,112.586L133.218,112.612L133.313,112.649L133.403,112.694L133.488,112.749L133.568,112.812L133.64,112.883L133.705,112.961L133.762,113.045L133.81,113.134L133.849,113.228L133.878,113.325L133.897,113.425L133.906,113.526L133.905,113.627L133.894,113.728L133.872,113.828L133.841,113.924L133.8,114.017L133.749,114.105L133.691,114.188L133.624,114.264L133.549,114.333L133.469,114.394L133.382,114.447L133.29,114.49L107.049,125.4L106.953,125.434L106.855,125.458L106.754,125.472L106.653,125.476L106.552,125.47L106.452,125.453L106.354,125.427L106.26,125.39L106.169,125.345L106.084,125.29L106.005,125.227L105.932,125.156L105.867,125.078L105.81,124.994L105.762,124.905L105.723,124.811L105.694,124.714L105.675,124.614L105.666,124.513L105.667,124.412L105.679,124.311L105.7,124.212L105.732,124.115L105.773,124.022L105.823,123.934L105.882,123.852L105.949,123.775L106.023,123.706L106.104,123.645L106.191,123.592L106.282,123.549L132.524,112.639L132.619,112.605L132.718,112.581L132.818,112.567L132.919,112.563L133.02,112.569Z" style="fill:rgb(26,26,26);"/>
            </g>
            <g transform="matrix(1.198,0,0,0.956584,888.98,-131.331)">
                <path d="M179.252,158.873L179.351,158.892L179.448,158.922L179.542,158.96L179.631,159.008L179.715,159.065L179.793,159.131L179.863,159.203L179.926,159.283L179.981,159.368L180.027,159.459L180.063,159.553L180.09,159.651L180.107,159.751L180.113,159.853L180.109,159.954L180.095,160.055L180.071,160.153L180.037,160.249L169.17,186.548L169.127,186.64L169.075,186.727L169.014,186.808L168.945,186.882L168.869,186.95L168.786,187.009L168.698,187.059L168.606,187.1L168.51,187.132L168.411,187.154L168.31,187.165L168.209,187.166L168.108,187.157L168.008,187.138L167.911,187.109L167.818,187.07L167.729,187.022L167.645,186.965L167.567,186.9L167.496,186.827L167.433,186.748L167.378,186.663L167.333,186.572L167.296,186.477L167.27,186.379L167.253,186.279L167.247,186.178L167.25,186.076L167.265,185.976L167.289,185.877L167.323,185.782L178.189,159.482L178.233,159.391L178.285,159.304L178.346,159.223L178.415,159.148L178.491,159.081L178.573,159.022L178.661,158.972L178.754,158.93L178.85,158.899L178.949,158.877L179.05,158.866L179.151,158.864L179.252,158.873Z" style="fill:rgb(26,26,26);"/>
            </g>
            <g transform="matrix(1.198,0,0,0.956584,888.98,-131.331)">
                <path d="M244.523,158.866L244.623,158.877L244.722,158.899L244.819,158.931L244.911,158.972L244.999,159.023L245.081,159.082L245.157,159.149L245.226,159.224L245.287,159.305L245.339,159.392L245.382,159.483L256.212,185.783L256.246,185.879L256.27,185.977L256.283,186.078L256.287,186.179L256.281,186.28L256.264,186.381L256.237,186.478L256.201,186.573L256.155,186.664L256.1,186.749L256.037,186.828L255.966,186.901L255.888,186.966L255.804,187.023L255.715,187.071L255.621,187.11L255.524,187.139L255.425,187.158L255.324,187.166L255.223,187.165L255.122,187.153L255.023,187.131L254.927,187.1L254.834,187.058L254.746,187.008L254.664,186.949L254.588,186.882L254.519,186.807L254.459,186.726L254.406,186.639L254.363,186.547L243.534,160.248L243.5,160.152L243.476,160.053L243.462,159.953L243.458,159.852L243.465,159.75L243.481,159.65L243.508,159.552L243.545,159.458L243.591,159.367L243.645,159.282L243.709,159.202L243.779,159.13L243.857,159.065L243.941,159.008L244.03,158.96L244.124,158.921L244.221,158.892L244.321,158.873L244.421,158.864L244.523,158.866Z" style="fill:rgb(26,26,26);"/>
            </g>
            <g transform="matrix(1.198,0,0,0.956584,888.98,-131.331)">
                <path d="M290.75,112.566L290.851,112.58L290.949,112.604L291.045,112.638L317.247,123.451L317.338,123.495L317.425,123.547L317.506,123.608L317.581,123.677L317.648,123.753L317.707,123.836L317.757,123.924L317.799,124.016L317.83,124.113L317.852,124.212L317.864,124.313L317.865,124.414L317.857,124.515L317.838,124.615L317.809,124.712L317.77,124.806L317.722,124.896L317.666,124.98L317.601,125.058L317.528,125.129L317.449,125.192L317.364,125.247L317.274,125.293L317.179,125.33L317.082,125.357L316.982,125.373L316.881,125.38L316.779,125.376L316.679,125.362L316.581,125.338L316.485,125.305L290.283,114.491L290.192,114.448L290.105,114.395L290.024,114.334L289.949,114.266L289.882,114.19L289.823,114.107L289.773,114.019L289.731,113.926L289.7,113.83L289.678,113.731L289.666,113.63L289.665,113.529L289.673,113.427L289.692,113.328L289.721,113.23L289.76,113.137L289.808,113.047L289.864,112.963L289.929,112.885L290.001,112.814L290.081,112.751L290.166,112.696L290.256,112.65L290.351,112.613L290.448,112.586L290.548,112.569L290.649,112.563L290.75,112.566Z" style="fill:rgb(26,26,26);"/>
            </g>
            <g transform="matrix(1.198,0,0,0.956584,888.98,-131.331)">
                <path d="M317.077,36.197L317.177,36.214L317.274,36.241L317.369,36.277L317.459,36.323L317.544,36.378L317.624,36.441L317.696,36.512L317.761,36.59L317.818,36.674L317.866,36.764L317.904,36.857L317.934,36.955L317.953,37.054L317.961,37.156L317.96,37.257L317.949,37.358L317.927,37.457L317.895,37.553L317.854,37.646L317.804,37.734L317.745,37.817L317.678,37.893L317.603,37.962L317.522,38.023L317.436,38.075L317.344,38.119L291.046,49.011L290.95,49.045L290.852,49.069L290.752,49.083L290.651,49.087L290.549,49.081L290.45,49.064L290.352,49.037L290.257,49.001L290.167,48.955L290.082,48.9L290.002,48.837L289.93,48.766L289.865,48.688L289.808,48.604L289.76,48.514L289.722,48.421L289.693,48.323L289.674,48.224L289.665,48.123L289.666,48.021L289.678,47.92L289.699,47.821L289.731,47.725L289.772,47.632L289.822,47.544L289.881,47.461L289.948,47.385L290.023,47.316L290.104,47.255L290.19,47.203L290.282,47.159L316.58,36.267L316.676,36.233L316.774,36.209L316.874,36.195L316.976,36.191L317.077,36.197Z" style="fill:rgb(26,26,26);"/>
            </g>
            <g transform="matrix(1.198,0,0,0.956584,888.98,-131.331)">
                <path d="M255.449,-25.349L255.548,-25.33L255.645,-25.3L255.739,-25.261L255.828,-25.213L255.912,-25.156L255.989,-25.091L256.06,-25.018L256.123,-24.938L256.177,-24.853L256.223,-24.762L256.259,-24.667L256.286,-24.569L256.302,-24.469L256.308,-24.368L256.304,-24.267L256.29,-24.166L256.266,-24.067L256.232,-23.972L245.381,2.169L245.338,2.261L245.285,2.347L245.224,2.428L245.155,2.503L245.079,2.57L244.997,2.629L244.909,2.679L244.816,2.72L244.72,2.751L244.621,2.773L244.52,2.784L244.419,2.786L244.318,2.776L244.218,2.757L244.121,2.728L244.028,2.689L243.939,2.641L243.855,2.583L243.777,2.518L243.707,2.445L243.644,2.366L243.589,2.28L243.544,2.19L243.507,2.095L243.481,1.997L243.464,1.897L243.458,1.795L243.462,1.694L243.476,1.594L243.501,1.495L243.535,1.399L254.385,-24.742L254.429,-24.833L254.481,-24.92L254.543,-25.001L254.612,-25.075L254.688,-25.142L254.77,-25.201L254.858,-25.251L254.951,-25.292L255.047,-25.324L255.146,-25.345L255.247,-25.357L255.348,-25.358L255.449,-25.349Z" style="fill:rgb(26,26,26);"/>
            </g>
            <g transform="matrix(1.198,0,0,0.958552,963,-236.14)">
                <path d="M126.672,307.276C126.672,307.276 127.07,305.211 127.761,301.631C112.848,298.671 98.979,292.794 86.777,284.62L83.569,289.421" style="fill:none;stroke:rgb(26,26,26);stroke-width:2px;"/>
            </g>
            <g transform="matrix(1.198,0,0,0.958552,963,-236.14)">
                <path d="M50.579,256.431C50.579,256.431 52.33,255.252 55.369,253.207C47.194,241 41.319,227.125 38.363,212.206L32.724,213.328" style="fill:none;stroke:rgb(26,26,26);stroke-width:2px;"/>
            </g>
            <g transform="matrix(1.198,0,0,0.958552,963,-236.14)">
                <path d="M32.724,166.672L38.363,167.794C41.319,152.875 47.194,139 55.369,126.793C52.33,124.748 50.579,123.569 50.579,123.569" style="fill:none;stroke:rgb(26,26,26);stroke-width:2px;"/>
            </g>
            <g transform="matrix(1.198,0,0,0.958552,963,-236.14)">
                <path d="M83.655,90.521L86.859,95.325C99.015,87.197 112.821,81.348 127.663,78.389C126.969,74.809 126.57,72.745 126.57,72.745" style="fill:none;stroke:rgb(26,26,26);stroke-width:2px;"/>
            </g>
            <g transform="matrix(1.198,0,0,0.958552,963,-236.14)">
                <path d="M173.328,72.724L172.206,78.363C187.122,81.318 200.994,87.192 213.199,95.364C215.249,92.328 216.431,90.579 216.431,90.579" style="fill:none;stroke:rgb(26,26,26);stroke-width:2px;"/>
            </g>
            <g transform="matrix(1.198,0,0,0.958552,963,-236.14)">
                <path d="M249.421,123.569L244.62,126.777C252.799,138.986 258.678,152.864 261.636,167.787C265.213,167.08 267.276,166.672 267.276,166.672" style="fill:none;stroke:rgb(26,26,26);stroke-width:2px;"/>
            </g>
            <g transform="matrix(1.198,0,0,0.958552,963,-236.14)">
                <path d="M267.276,213.328C267.276,213.328 265.213,212.92 261.636,212.213C258.678,227.136 252.799,241.014 244.62,253.223L249.421,256.431" style="fill:none;stroke:rgb(26,26,26);stroke-width:2px;"/>
            </g>
            <g transform="matrix(1.198,0,0,0.958552,963,-236.14)">
                <path d="M216.345,289.479C216.345,289.479 215.164,287.729 213.117,284.691C200.958,292.817 187.149,298.663 172.303,301.618L173.43,307.255" style="fill:none;stroke:rgb(26,26,26);stroke-width:2px;"/>
            </g>
            <g transform="matrix(1.198,0,0,0.958552,963,-236.14)">
                <path d="M182.672,111.122L180.6,116.126C200.127,124.232 215.757,139.859 223.867,159.385C227.018,158.091 228.878,157.328 228.878,157.328" style="fill:none;stroke:rgb(26,26,26);stroke-width:2px;"/>
            </g>
            <g transform="matrix(1.198,0,0,0.958552,963,-236.14)">
                <path d="M228.878,222.672C228.878,222.672 227.018,221.909 223.867,220.615C215.757,240.141 200.127,255.768 180.6,263.874L182.672,268.878" style="fill:none;stroke:rgb(26,26,26);stroke-width:2px;"/>
            </g>
            <g transform="matrix(1.198,0,0,0.958552,963,-236.14)">
                <path d="M117.328,268.878C117.328,268.878 118.082,267.014 119.362,263.858C99.847,255.745 84.229,240.119 76.126,220.6L71.122,222.672" style="fill:none;stroke:rgb(26,26,26);stroke-width:2px;"/>
            </g>
            <g transform="matrix(1.198,0,0,0.958552,963,-236.14)">
                <path d="M71.122,157.328L76.126,159.4C84.229,139.881 99.847,124.255 119.362,116.142C118.082,112.986 117.328,111.122 117.328,111.122" style="fill:none;stroke:rgb(26,26,26);stroke-width:2px;"/>
            </g>
            <g transform="matrix(1.198,0,0,0.958552,963,-236.14)">
                <path d="M114.736,154.736L118.423,158.423C110.338,166.508 105.334,177.674 105.334,190C105.334,202.326 110.338,213.492 118.423,221.577L114.736,225.264" style="fill:none;stroke:rgb(26,26,26);stroke-width:2px;"/>
            </g>
            <g transform="matrix(1.198,0,0,0.958552,963,-236.14)">
                <path d="M185.264,225.264L181.577,221.577C189.662,213.492 194.666,202.326 194.666,190C194.666,177.674 189.662,166.508 181.577,158.423L185.264,154.736" style="fill:none;stroke:rgb(26,26,26);stroke-width:2px;"/>
            </g>
            <g transform="matrix(1.198,0,0,0.956584,888.98,-131.331)">
                <path d="M155.523,23.342L155.612,23.353L155.7,23.371L155.786,23.397L155.87,23.43L155.949,23.471L156.025,23.519L156.097,23.573L156.163,23.634L177.229,44.78L177.289,44.846L177.344,44.918L177.391,44.994L177.432,45.074L177.465,45.158L177.491,45.244L177.509,45.332L177.519,45.421L177.521,45.511L177.515,45.601L177.501,45.69L177.479,45.777L177.449,45.862L177.412,45.944L177.368,46.022L177.316,46.096L177.259,46.165L177.195,46.228L177.126,46.286L177.053,46.337L176.974,46.381L176.893,46.418L176.808,46.448L176.721,46.47L176.632,46.484L176.543,46.49L176.453,46.488L176.364,46.478L176.276,46.459L176.19,46.434L176.107,46.4L176.027,46.359L175.951,46.311L175.88,46.257L175.814,46.196L154.747,25.05L154.687,24.984L154.633,24.912L154.585,24.836L154.544,24.756L154.511,24.672L154.485,24.586L154.467,24.498L154.457,24.409L154.455,24.319L154.462,24.229L154.476,24.14L154.498,24.053L154.527,23.968L154.565,23.886L154.609,23.808L154.66,23.734L154.718,23.665L154.781,23.602L154.85,23.544L154.924,23.493L155.002,23.449L155.084,23.412L155.168,23.382L155.255,23.36L155.344,23.346L155.434,23.34L155.523,23.342Z" style="fill:rgb(26,26,26);"/>
            </g>
            <g transform="matrix(1.198,0,0,0.956584,888.98,-131.331)">
                <path d="M256.366,79.843L256.544,79.894L256.709,79.976L256.856,80.087L256.98,80.224L257.078,80.381L257.144,80.554L257.178,80.735L257.178,80.92L257.144,81.102L257.078,81.275L256.98,81.432L256.856,81.568L256.709,81.68L256.544,81.762L256.366,81.813L256.182,81.83L167.217,81.83L167.034,81.813L166.856,81.762L166.691,81.68L166.544,81.568L166.419,81.432L166.322,81.275L166.256,81.102L166.222,80.92L166.222,80.735L166.256,80.554L166.322,80.381L166.419,80.224L166.544,80.087L166.691,79.976L166.856,79.894L167.034,79.843L167.217,79.826L256.182,79.826L256.366,79.843Z" style="fill:rgb(26,26,26);"/>
            </g>
            <g transform="matrix(1.198,0,0,0.956584,888.98,-131.331)">
                <path d="M176.633,115.166L176.722,115.18L176.809,115.202L176.893,115.232L176.975,115.269L177.053,115.313L177.127,115.364L177.196,115.422L177.259,115.486L177.317,115.555L177.368,115.629L177.412,115.707L177.449,115.789L177.479,115.873L177.501,115.961L177.515,116.049L177.521,116.139L177.519,116.229L177.509,116.318L177.491,116.407L177.465,116.493L177.432,116.576L177.391,116.656L177.343,116.732L177.289,116.804L177.228,116.87L156.079,138.069L156.013,138.13L155.942,138.184L155.866,138.232L155.786,138.273L155.702,138.306L155.616,138.332L155.529,138.35L155.439,138.36L155.35,138.362L155.26,138.356L155.172,138.342L155.085,138.32L155,138.291L154.918,138.253L154.84,138.209L154.766,138.158L154.697,138.1L154.634,138.037L154.576,137.968L154.525,137.894L154.481,137.815L154.444,137.734L154.414,137.649L154.392,137.562L154.378,137.473L154.372,137.383L154.374,137.293L154.384,137.204L154.402,137.116L154.428,137.03L154.461,136.946L154.502,136.866L154.55,136.79L154.604,136.718L154.665,136.652L175.814,115.453L175.88,115.393L175.952,115.338L176.028,115.29L176.108,115.25L176.191,115.216L176.277,115.19L176.365,115.172L176.454,115.162L176.544,115.16L176.633,115.166Z" style="fill:rgb(26,26,26);"/>
            </g>
            <g transform="matrix(1.82928,0,0,1.46065,755.285,-171.92)">
                <path d="M211.892,59.39L211.961,59.405L212.028,59.428L212.092,59.457L212.153,59.494L212.21,59.537L212.261,59.586L212.307,59.64L212.347,59.699L212.38,59.762L212.406,59.828L212.425,59.896L212.437,59.966L212.441,60.037L212.441,80.525L212.437,80.596L212.425,80.666L212.406,80.735L212.38,80.801L212.347,80.863L212.307,80.922L212.261,80.976L212.21,81.025L212.153,81.068L212.092,81.105L212.028,81.135L211.961,81.157L211.892,81.173L211.821,81.18L211.75,81.18L211.68,81.173L211.61,81.157L211.543,81.135L211.479,81.105L211.418,81.068L211.362,81.025L211.31,80.976L211.264,80.922L211.224,80.863L211.191,80.801L211.165,80.735L211.146,80.666L211.135,80.596L211.131,80.525L211.131,60.037L211.135,59.966L211.146,59.896L211.165,59.828L211.191,59.762L211.224,59.699L211.264,59.64L211.31,59.586L211.362,59.537L211.418,59.494L211.479,59.457L211.543,59.428L211.61,59.405L211.68,59.39L211.75,59.382L211.821,59.382L211.892,59.39Z" style="fill:rgb(26,26,26);"/>
            </g>
            <g transform="matrix(1.198,0,0,0.956584,888.98,-131.331)">
                <path d="M247.115,115.162L247.204,115.172L247.292,115.19L247.378,115.215L247.461,115.248L247.541,115.289L247.617,115.337L247.689,115.391L247.755,115.451L269.103,136.734L269.163,136.801L269.218,136.872L269.266,136.948L269.307,137.028L269.34,137.111L269.366,137.198L269.385,137.286L269.395,137.375L269.397,137.465L269.391,137.554L269.378,137.643L269.356,137.731L269.326,137.816L269.29,137.897L269.246,137.976L269.195,138.05L269.137,138.119L269.074,138.183L269.005,138.241L268.932,138.292L268.854,138.337L268.772,138.374L268.687,138.404L268.601,138.426L268.512,138.44L268.422,138.447L268.333,138.445L268.244,138.435L268.156,138.417L268.07,138.391L267.986,138.358L267.906,138.318L267.83,138.27L267.759,138.216L267.692,138.155L246.345,116.872L246.284,116.806L246.229,116.735L246.181,116.659L246.141,116.579L246.107,116.495L246.081,116.409L246.063,116.321L246.052,116.232L246.05,116.142L246.056,116.052L246.07,115.963L246.091,115.876L246.121,115.791L246.158,115.709L246.202,115.631L246.253,115.557L246.31,115.488L246.373,115.424L246.442,115.366L246.516,115.315L246.594,115.27L246.675,115.233L246.76,115.203L246.847,115.181L246.935,115.166L247.025,115.16L247.115,115.162Z" style="fill:rgb(26,26,26);"/>
            </g>
            <g transform="matrix(1.198,0,0,0.956584,888.98,-131.331)">
                <path d="M268.401,23.191L268.49,23.205L268.577,23.227L268.662,23.257L268.743,23.294L268.821,23.339L268.895,23.39L268.964,23.447L269.028,23.511L269.085,23.58L269.136,23.654L269.18,23.732L269.218,23.814L269.247,23.899L269.269,23.986L269.283,24.075L269.289,24.164L269.287,24.254L269.277,24.344L269.259,24.432L269.234,24.518L269.2,24.601L269.16,24.681L269.112,24.758L269.058,24.829L268.997,24.896L247.757,46.196L247.691,46.257L247.62,46.311L247.544,46.359L247.464,46.4L247.381,46.434L247.295,46.46L247.207,46.478L247.118,46.488L247.028,46.49L246.938,46.484L246.85,46.47L246.763,46.448L246.678,46.418L246.596,46.381L246.518,46.337L246.444,46.286L246.376,46.228L246.312,46.164L246.255,46.095L246.203,46.021L246.159,45.943L246.122,45.861L246.092,45.777L246.07,45.689L246.056,45.601L246.05,45.511L246.052,45.421L246.062,45.332L246.08,45.244L246.106,45.157L246.139,45.074L246.18,44.994L246.228,44.918L246.282,44.846L246.343,44.78L267.582,23.479L267.648,23.418L267.72,23.364L267.796,23.316L267.876,23.275L267.959,23.242L268.045,23.216L268.133,23.198L268.222,23.187L268.312,23.185L268.401,23.191Z" style="fill:rgb(26,26,26);"/>
            </g>
        </g>
        <g transform="matrix(0.552947,0,0,2.09748,969.041,-86.8274)">
            <path d="M73.138,58.752C73.138,57.743 69.254,56.924 64.471,56.924L13.773,56.924C8.99,56.924 5.107,57.743 5.107,58.752L5.107,81.876C5.107,82.885 8.99,83.704 13.773,83.704L64.471,83.704C69.254,83.704 73.138,82.885 73.138,81.876L73.138,58.752Z" style="fill:white;fill-opacity:0.7;"/>
        </g>
        <g transform="matrix(1.198,0,0,0.958552,941.384,-8.88126)">
            <g transform="matrix(6.4,0,0,6.4,34.0936,51.8924)">
                <path d="M0.364,-0.603L0.364,0L0.237,0L0.237,-0.603L0.01,-0.603L0.01,-0.715L0.602,-0.715L0.602,-0.603L0.364,-0.603Z" style="fill-rule:nonzero;"/>
            </g>
            <g transform="matrix(6.4,0,0,6.4,38.1372,51.8924)">
                <path d="M0.477,0L0.286,-0.295C0.266,-0.296 0.24,-0.297 0.205,-0.299L0.205,0L0.073,0L0.073,-0.715C0.08,-0.715 0.108,-0.717 0.156,-0.719C0.204,-0.721 0.242,-0.723 0.271,-0.723C0.453,-0.723 0.544,-0.652 0.544,-0.512C0.544,-0.469 0.531,-0.431 0.506,-0.396C0.481,-0.361 0.45,-0.337 0.412,-0.322L0.623,0L0.477,0ZM0.205,-0.605L0.205,-0.406C0.229,-0.404 0.246,-0.403 0.259,-0.403C0.312,-0.403 0.351,-0.411 0.375,-0.426C0.4,-0.441 0.412,-0.47 0.412,-0.513C0.412,-0.548 0.399,-0.573 0.373,-0.587C0.346,-0.601 0.305,-0.608 0.248,-0.608C0.234,-0.608 0.22,-0.607 0.205,-0.605Z" style="fill-rule:nonzero;"/>
            </g>
            <g transform="matrix(6.4,0,0,6.4,42.1746,51.8924)">
                <rect x="0.076" y="-0.715" width="0.127" height="0.715" style="fill-rule:nonzero;"/>
            </g>
            <g transform="matrix(6.4,0,0,6.4,44.0839,51.8924)">
                <path d="M0.602,-0.657L0.548,-0.555C0.533,-0.569 0.51,-0.582 0.479,-0.595C0.448,-0.608 0.421,-0.615 0.398,-0.615C0.328,-0.615 0.273,-0.591 0.232,-0.543C0.191,-0.496 0.171,-0.432 0.171,-0.352C0.171,-0.275 0.191,-0.215 0.231,-0.169C0.271,-0.123 0.325,-0.101 0.394,-0.101C0.439,-0.101 0.476,-0.113 0.505,-0.138L0.505,-0.278L0.406,-0.278L0.406,-0.387L0.632,-0.387L0.632,-0.066C0.602,-0.042 0.563,-0.022 0.515,-0.009C0.468,0.005 0.42,0.012 0.373,0.012C0.271,0.012 0.189,-0.021 0.129,-0.089C0.069,-0.156 0.039,-0.245 0.039,-0.355C0.039,-0.465 0.072,-0.555 0.137,-0.624C0.203,-0.693 0.291,-0.728 0.401,-0.728C0.48,-0.728 0.547,-0.704 0.602,-0.657Z" style="fill-rule:nonzero;"/>
            </g>
        </g>
        <g transform="matrix(0.552947,0,0,2.09748,1273.33,-86.8274)">
            <path d="M73.138,58.752C73.138,57.743 69.254,56.924 64.471,56.924L13.773,56.924C8.99,56.924 5.107,57.743 5.107,58.752L5.107,81.876C5.107,82.885 8.99,83.704 13.773,83.704L64.471,83.704C69.254,83.704 73.138,82.885 73.138,81.876L73.138,58.752Z" style="fill:white;fill-opacity:0.7;"/>
        </g>
        <g transform="matrix(1.20663,0,0,0.916457,1244.91,-6.89297)">
            <g transform="matrix(6.69397,0,0,6.69397,35.8573,51.8924)">
                <rect x="0.076" y="-0.715" width="0.127" height="0.715" style="fill-rule:nonzero;"/>
            </g>
            <g transform="matrix(6.69397,0,0,6.69397,37.8542,51.8924)">
                <path d="M0.542,0.01L0.195,-0.443L0.195,0L0.073,0L0.073,-0.715L0.134,-0.715L0.472,-0.284L0.472,-0.715L0.594,-0.715L0.594,0.01L0.542,0.01Z" style="fill-rule:nonzero;"/>
            </g>
            <g transform="matrix(6.69397,0,0,6.69397,42.4562,51.8924)">
                <path d="M0.34,0.01L0.27,0.01L0.002,-0.715L0.142,-0.715L0.308,-0.232L0.482,-0.715L0.619,-0.715L0.34,0.01Z" style="fill-rule:nonzero;"/>
            </g>
        </g>
        <g transform="matrix(1.33047,0,0,0.993914,924.081,-268.906)">
            <ellipse cx="164.317" cy="203.162" rx="119.983" ry="128.4" style="fill:none;stroke:white;stroke-opacity:0.7;stroke-width:5.58px;"/>
        </g>
        <g transform="matrix(0.994617,0,0,0.743757,979.268,-218.084)">
            <ellipse cx="164.317" cy="203.162" rx="119.983" ry="128.4" style="fill:none;stroke:black;stroke-opacity:0.5;stroke-width:7.47px;"/>
        </g>
        <g transform="matrix(0.648233,0,0,0.484737,1036.18,-165.461)">
            <ellipse cx="164.317" cy="203.162" rx="119.983" ry="128.4" style="fill:none;stroke:black;stroke-opacity:0.5;stroke-width:11.46px;"/>
        </g>
        <g transform="matrix(0.317787,0,0,0.237591,1090.48,-115.25)">
            <ellipse cx="164.317" cy="203.162" rx="119.983" ry="128.4" style="fill:none;stroke:black;stroke-opacity:0.5;stroke-width:23.37px;"/>
        </g>
        <g transform="matrix(1.39565,0,0,1.04365,913.371,-279.01)">
            <ellipse cx="164.317" cy="203.162" rx="119.983" ry="128.4" style="fill:none;stroke:rgb(51,51,51);stroke-width:0.21px;"/>
        </g>
        <g transform="matrix(1.38444,0,0,1.03526,915.214,-277.306)">
            <ellipse cx="164.317" cy="203.162" rx="119.983" ry="128.4" style="fill:none;stroke:rgb(51,51,51);stroke-width:0.21px;"/>
        </g>
        <g transform="matrix(1.37284,0,0,1.02659,917.119,-275.544)">
            <ellipse cx="164.317" cy="203.162" rx="119.983" ry="128.4" style="fill:none;stroke:rgb(51,51,51);stroke-width:0.21px;"/>
        </g>
        <g transform="matrix(1.36153,0,0,1.01712,918.977,-273.62)">
            <ellipse cx="164.317" cy="203.162" rx="119.983" ry="128.4" style="fill:none;stroke:rgb(51,51,51);stroke-width:0.21px;"/>
        </g>
        <g transform="matrix(1.02431,0,0,0.765964,974.388,-222.595)">
            <ellipse cx="164.317" cy="203.162" rx="119.983" ry="128.4" style="fill:none;stroke:black;stroke-opacity:0.8;stroke-width:0.28px;"/>
        </g>
        <g transform="matrix(0.67793,0,0,0.506944,1031.3,-169.973)">
            <ellipse cx="164.317" cy="203.162" rx="119.983" ry="128.4" style="fill:none;stroke:rgb(51,51,51);stroke-width:0.33px;"/>
        </g>
        <g transform="matrix(0.346973,0,0,0.259412,1085.69,-119.683)">
            <path d="M165.096,74.206L165.873,74.214L166.65,74.227L167.425,74.245L168.199,74.269L168.972,74.298L169.744,74.332L170.514,74.371L171.283,74.416L172.051,74.465L172.817,74.52L173.583,74.58L174.346,74.645L175.109,74.714L175.87,74.79L176.63,74.87L177.389,74.955L178.146,75.045L178.901,75.14L179.656,75.24L180.408,75.345L181.16,75.455L181.91,75.57L182.658,75.69L183.405,75.815L184.15,75.945L184.894,76.08L185.636,76.219L186.377,76.363L187.116,76.513L187.854,76.666L188.59,76.825L189.324,76.989L190.057,77.157L190.788,77.33L191.517,77.508L192.245,77.691L192.971,77.878L193.695,78.07L194.418,78.266L195.139,78.468L195.858,78.673L196.575,78.884L197.291,79.099L198.005,79.319L198.717,79.543L199.427,79.772L200.135,80.005L200.841,80.243L201.546,80.486L202.249,80.733L202.949,80.984L203.648,81.24L204.345,81.5L205.04,81.765L205.733,82.034L206.424,82.308L207.113,82.586L207.8,82.868L208.485,83.155L209.168,83.446L209.849,83.741L210.528,84.041L211.205,84.344L211.879,84.653L212.552,84.965L213.222,85.282L213.89,85.603L214.557,85.928L215.221,86.257L215.882,86.591L216.542,86.928L217.199,87.27L217.854,87.616L218.507,87.966L219.158,88.32L219.806,88.679L220.452,89.041L221.096,89.407L221.738,89.778L222.377,90.152L223.014,90.531L223.648,90.913L224.28,91.3L224.91,91.69L225.537,92.084L226.162,92.482L226.784,92.885L227.404,93.291L228.021,93.7L228.636,94.114L229.249,94.532L229.859,94.953L230.466,95.378L231.071,95.807L231.673,96.24L232.273,96.677L232.87,97.117L233.465,97.561L234.057,98.009L234.646,98.461L235.233,98.916L235.817,99.375L236.398,99.837L236.977,100.303L237.553,100.773L238.126,101.246L238.697,101.723L239.265,102.204L239.829,102.688L240.392,103.176L240.951,103.667L241.508,104.161L242.062,104.66L242.613,105.161L243.161,105.666L243.706,106.175L244.248,106.687L244.788,107.202L245.324,107.721L245.858,108.243L246.389,108.769L246.916,109.298L247.441,109.83L247.963,110.366L248.482,110.905L248.997,111.447L249.51,111.992L250.02,112.541L250.527,113.093L251.03,113.648L251.531,114.206L252.028,114.768L252.522,115.333L253.013,115.901L253.501,116.472L253.986,117.046L254.468,117.623L254.946,118.204L255.421,118.787L255.893,119.374L256.362,119.963L256.828,120.556L257.29,121.152L257.749,121.75L258.205,122.352L258.657,122.957L259.106,123.564L259.552,124.175L259.994,124.788L260.433,125.405L260.869,126.024L261.301,126.646L261.729,127.271L262.155,127.899L262.577,128.53L262.995,129.163L263.41,129.799L263.822,130.438L264.23,131.08L264.634,131.725L265.035,132.372L265.432,133.022L265.826,133.675L266.216,134.33L266.603,134.989L266.986,135.649L267.365,136.313L267.741,136.979L268.113,137.647L268.482,138.319L268.846,138.992L269.207,139.669L269.565,140.348L269.918,141.029L270.268,141.713L270.614,142.399L270.957,143.088L271.295,143.78L271.63,144.474L271.961,145.17L272.288,145.869L272.611,146.57L272.931,147.273L273.246,147.979L273.558,148.687L273.866,149.398L274.17,150.111L274.47,150.826L274.766,151.543L275.058,152.263L275.346,152.985L275.63,153.709L275.91,154.436L276.186,155.164L276.457,155.895L276.725,156.628L276.989,157.364L277.249,158.101L277.505,158.84L277.756,159.582L278.003,160.326L278.247,161.072L278.486,161.819L278.721,162.569L278.951,163.321L279.178,164.075L279.4,164.831L279.618,165.589L279.832,166.349L280.042,167.111L280.247,167.875L280.448,168.641L280.645,169.408L280.837,170.178L281.025,170.949L281.209,171.722L281.388,172.498L281.563,173.275L281.734,174.053L281.9,174.834L282.062,175.616L282.219,176.4L282.372,177.186L282.52,177.974L282.664,178.763L282.803,179.554L282.938,180.347L283.069,181.141L283.194,181.937L283.316,182.735L283.432,183.534L283.544,184.335L283.652,185.138L283.755,185.942L283.853,186.747L283.947,187.554L284.035,188.363L284.12,189.173L284.199,189.985L284.274,190.798L284.344,191.613L284.41,192.429L284.47,193.246L284.526,194.065L284.577,194.885L284.623,195.707L284.665,196.53L284.702,197.355L284.733,198.18L284.76,199.007L284.782,199.836L284.8,200.665L284.812,201.496L284.819,202.328L284.822,203.162L284.819,203.995L284.812,204.827L284.8,205.658L284.782,206.488L284.76,207.316L284.733,208.143L284.702,208.969L284.665,209.793L284.623,210.616L284.577,211.438L284.526,212.258L284.47,213.077L284.41,213.895L284.344,214.711L284.274,215.525L284.199,216.339L284.12,217.15L284.035,217.96L283.947,218.769L283.853,219.576L283.755,220.382L283.652,221.186L283.544,221.988L283.432,222.789L283.316,223.589L283.194,224.386L283.069,225.182L282.938,225.977L282.803,226.769L282.664,227.56L282.52,228.35L282.372,229.137L282.219,229.923L282.062,230.707L281.9,231.49L281.734,232.27L281.563,233.049L281.388,233.826L281.209,234.601L281.025,235.374L280.837,236.146L280.645,236.915L280.448,237.683L280.247,238.449L280.042,239.213L279.832,239.974L279.618,240.734L279.4,241.492L279.178,242.248L278.951,243.002L278.721,243.754L278.486,244.504L278.247,245.252L278.003,245.998L277.756,246.742L277.505,247.483L277.249,248.223L276.989,248.96L276.725,249.695L276.457,250.428L276.186,251.159L275.91,251.888L275.63,252.614L275.346,253.339L275.058,254.06L274.766,254.78L274.47,255.498L274.17,256.213L273.866,256.926L273.558,257.636L273.246,258.345L272.931,259.05L272.611,259.754L272.288,260.455L271.961,261.154L271.63,261.85L271.295,262.544L270.957,263.235L270.614,263.924L270.268,264.61L269.918,265.294L269.565,265.976L269.207,266.655L268.846,267.331L268.482,268.005L268.113,268.676L267.741,269.345L267.365,270.011L266.986,270.674L266.603,271.335L266.216,271.993L265.826,272.649L265.432,273.301L265.035,273.951L264.634,274.599L264.23,275.243L263.822,275.885L263.41,276.524L262.995,277.16L262.577,277.794L262.155,278.425L261.729,279.053L261.301,279.678L260.869,280.3L260.433,280.919L259.994,281.535L259.552,282.149L259.106,282.759L258.657,283.367L258.205,283.972L257.749,284.573L257.29,285.172L256.828,285.768L256.362,286.36L255.893,286.95L255.421,287.536L254.946,288.12L254.468,288.7L253.986,289.278L253.501,289.852L253.013,290.423L252.522,290.991L252.028,291.556L251.531,292.117L251.03,292.676L250.527,293.231L250.02,293.783L249.51,294.331L248.997,294.877L248.482,295.419L247.963,295.958L247.441,296.493L246.916,297.026L246.389,297.555L245.858,298.08L245.324,298.602L244.788,299.121L244.248,299.637L243.706,300.149L243.161,300.657L242.613,301.162L242.062,301.664L241.508,302.162L240.951,302.657L240.392,303.148L239.829,303.636L239.265,304.12L238.697,304.6L238.126,305.077L237.553,305.551L236.977,306.02L236.398,306.486L235.817,306.949L235.233,307.408L234.646,307.863L234.057,308.314L233.465,308.762L232.87,309.206L232.273,309.647L231.673,310.083L231.071,310.516L230.466,310.945L229.859,311.37L229.249,311.792L228.636,312.209L228.021,312.623L227.404,313.033L226.784,313.439L226.162,313.841L225.537,314.239L224.91,314.634L224.28,315.024L223.648,315.41L223.014,315.793L222.377,316.171L221.738,316.546L221.096,316.916L220.452,317.282L219.806,317.645L219.158,318.003L218.507,318.357L217.854,318.707L217.199,319.053L216.542,319.395L215.882,319.733L215.221,320.066L214.557,320.396L213.89,320.721L213.222,321.042L212.552,321.358L211.879,321.671L211.205,321.979L210.528,322.283L209.849,322.583L209.168,322.878L208.485,323.169L207.8,323.456L207.113,323.738L206.424,324.016L205.733,324.29L205.04,324.559L204.345,324.823L203.648,325.084L202.949,325.34L202.249,325.591L201.546,325.838L200.841,326.08L200.135,326.318L199.427,326.552L198.717,326.781L198.005,327.005L197.291,327.225L196.575,327.44L195.858,327.65L195.139,327.856L194.418,328.057L193.695,328.254L192.971,328.446L192.245,328.633L191.517,328.816L190.788,328.993L190.057,329.166L189.324,329.335L188.59,329.498L187.854,329.657L187.116,329.811L186.377,329.96L185.636,330.104L184.894,330.244L184.15,330.379L183.405,330.508L182.658,330.633L181.91,330.753L181.16,330.868L180.408,330.978L179.656,331.083L178.901,331.183L178.146,331.279L177.389,331.369L176.63,331.454L175.87,331.534L175.109,331.609L174.346,331.679L173.583,331.744L172.817,331.804L172.051,331.858L171.283,331.908L170.514,331.952L169.744,331.992L168.972,332.026L168.199,332.054L167.425,332.078L166.65,332.096L165.873,332.11L165.096,332.118L164.317,332.12L163.538,332.118L162.761,332.11L161.984,332.096L161.209,332.078L160.435,332.054L159.662,332.026L158.891,331.992L158.12,331.952L157.351,331.908L156.583,331.858L155.817,331.804L155.052,331.744L154.288,331.679L153.525,331.609L152.764,331.534L152.004,331.454L151.246,331.369L150.488,331.279L149.733,331.183L148.979,331.083L148.226,330.978L147.474,330.868L146.725,330.753L145.976,330.633L145.229,330.508L144.484,330.379L143.74,330.244L142.998,330.104L142.257,329.96L141.518,329.811L140.78,329.657L140.044,329.498L139.31,329.335L138.577,329.166L137.846,328.993L137.117,328.816L136.389,328.633L135.663,328.446L134.939,328.254L134.216,328.057L133.495,327.856L132.776,327.65L132.059,327.44L131.343,327.225L130.629,327.005L129.918,326.781L129.207,326.552L128.499,326.318L127.793,326.08L127.088,325.838L126.386,325.591L125.685,325.34L124.986,325.084L124.289,324.823L123.594,324.559L122.901,324.29L122.21,324.016L121.521,323.738L120.834,323.456L120.149,323.169L119.466,322.878L118.785,322.583L118.106,322.283L117.43,321.979L116.755,321.671L116.082,321.358L115.412,321.042L114.744,320.721L114.077,320.396L113.413,320.066L112.752,319.733L112.092,319.395L111.435,319.053L110.78,318.707L110.127,318.357L109.476,318.003L108.828,317.645L108.182,317.282L107.538,316.916L106.896,316.546L106.257,316.171L105.621,315.793L104.986,315.41L104.354,315.024L103.725,314.634L103.097,314.239L102.472,313.841L101.85,313.439L101.23,313.033L100.613,312.623L99.998,312.209L99.385,311.792L98.775,311.37L98.168,310.945L97.563,310.516L96.961,310.083L96.361,309.647L95.764,309.206L95.169,308.762L94.577,308.314L93.988,307.863L93.401,307.408L92.817,306.949L92.236,306.486L91.657,306.02L91.081,305.551L90.508,305.077L89.937,304.6L89.37,304.12L88.805,303.636L88.242,303.148L87.683,302.657L87.126,302.162L86.573,301.664L86.022,301.162L85.473,300.657L84.928,300.149L84.386,299.637L83.846,299.121L83.31,298.602L82.776,298.08L82.245,297.555L81.718,297.026L81.193,296.493L80.671,295.958L80.152,295.419L79.637,294.877L79.124,294.331L78.614,293.783L78.108,293.231L77.604,292.676L77.104,292.117L76.606,291.556L76.112,290.991L75.621,290.423L75.133,289.852L74.648,289.278L74.166,288.7L73.688,288.12L73.213,287.536L72.741,286.95L72.272,286.36L71.806,285.768L71.344,285.172L70.885,284.573L70.43,283.972L69.977,283.367L69.528,282.759L69.082,282.149L68.64,281.535L68.201,280.919L67.766,280.3L67.333,279.678L66.905,279.053L66.479,278.425L66.057,277.794L65.639,277.16L65.224,276.524L64.813,275.885L64.405,275.243L64,274.599L63.599,273.951L63.202,273.301L62.808,272.649L62.418,271.993L62.031,271.335L61.648,270.674L61.269,270.011L60.893,269.345L60.521,268.676L60.152,268.005L59.788,267.331L59.427,266.655L59.069,265.976L58.716,265.294L58.366,264.61L58.02,263.924L57.677,263.235L57.339,262.544L57.004,261.85L56.673,261.154L56.346,260.455L56.023,259.754L55.703,259.05L55.388,258.345L55.076,257.636L54.768,256.926L54.464,256.213L54.165,255.498L53.869,254.78L53.577,254.06L53.289,253.339L53.005,252.614L52.725,251.888L52.449,251.159L52.177,250.428L51.909,249.695L51.645,248.96L51.385,248.223L51.13,247.483L50.878,246.742L50.631,245.998L50.387,245.252L50.148,244.504L49.913,243.754L49.683,243.002L49.456,242.248L49.234,241.492L49.016,240.734L48.802,239.974L48.592,239.213L48.387,238.449L48.186,237.683L47.989,236.915L47.797,236.146L47.609,235.374L47.425,234.601L47.246,233.826L47.071,233.049L46.9,232.27L46.734,231.49L46.572,230.707L46.415,229.923L46.262,229.137L46.114,228.35L45.97,227.56L45.831,226.769L45.696,225.977L45.565,225.182L45.44,224.386L45.318,223.589L45.202,222.789L45.09,221.988L44.982,221.186L44.879,220.382L44.781,219.576L44.688,218.769L44.599,217.96L44.514,217.15L44.435,216.339L44.36,215.525L44.29,214.711L44.224,213.895L44.164,213.077L44.108,212.258L44.057,211.438L44.011,210.616L43.969,209.793L43.932,208.969L43.901,208.143L43.874,207.316L43.852,206.488L43.834,205.658L43.822,204.827L43.815,203.995L43.812,203.162L43.815,202.328L43.822,201.496L43.834,200.665L43.852,199.836L43.874,199.007L43.901,198.18L43.932,197.355L43.969,196.53L44.011,195.707L44.057,194.885L44.108,194.065L44.164,193.246L44.224,192.429L44.29,191.613L44.36,190.798L44.435,189.985L44.514,189.173L44.599,188.363L44.688,187.554L44.781,186.747L44.879,185.942L44.982,185.138L45.09,184.335L45.202,183.534L45.318,182.735L45.44,181.937L45.565,181.141L45.696,180.347L45.831,179.554L45.97,178.763L46.114,177.974L46.262,177.186L46.415,176.4L46.572,175.616L46.734,174.834L46.9,174.053L47.071,173.275L47.246,172.498L47.425,171.722L47.609,170.949L47.797,170.178L47.989,169.408L48.186,168.641L48.387,167.875L48.592,167.111L48.802,166.349L49.016,165.589L49.234,164.831L49.456,164.075L49.683,163.321L49.913,162.569L50.148,161.819L50.387,161.072L50.631,160.326L50.878,159.582L51.13,158.84L51.385,158.101L51.645,157.364L51.909,156.628L52.177,155.895L52.449,155.164L52.725,154.436L53.005,153.709L53.289,152.985L53.577,152.263L53.869,151.543L54.165,150.826L54.464,150.111L54.768,149.398L55.076,148.687L55.388,147.979L55.703,147.273L56.023,146.57L56.346,145.869L56.673,145.17L57.004,144.474L57.339,143.78L57.677,143.088L58.02,142.399L58.366,141.713L58.716,141.029L59.069,140.348L59.427,139.669L59.788,138.992L60.152,138.319L60.521,137.647L60.893,136.979L61.269,136.313L61.648,135.649L62.031,134.989L62.418,134.33L62.808,133.675L63.202,133.022L63.599,132.372L64,131.725L64.405,131.08L64.813,130.438L65.224,129.799L65.639,129.163L66.057,128.53L66.479,127.899L66.905,127.271L67.333,126.646L67.766,126.024L68.201,125.405L68.64,124.788L69.082,124.175L69.528,123.564L69.977,122.957L70.43,122.352L70.885,121.75L71.344,121.152L71.806,120.556L72.272,119.963L72.741,119.374L73.213,118.787L73.688,118.204L74.166,117.623L74.648,117.046L75.133,116.472L75.621,115.901L76.112,115.333L76.606,114.768L77.104,114.206L77.604,113.648L78.108,113.093L78.614,112.541L79.124,111.992L79.637,111.447L80.152,110.905L80.671,110.366L81.193,109.83L81.718,109.298L82.245,108.769L82.776,108.243L83.31,107.721L83.846,107.202L84.386,106.687L84.928,106.175L85.473,105.666L86.022,105.161L86.573,104.66L87.126,104.161L87.683,103.667L88.242,103.176L88.805,102.688L89.37,102.204L89.937,101.723L90.508,101.246L91.081,100.773L91.657,100.303L92.236,99.837L92.817,99.375L93.401,98.916L93.988,98.461L94.577,98.009L95.169,97.561L95.764,97.117L96.361,96.677L96.961,96.24L97.563,95.807L98.168,95.378L98.775,94.953L99.385,94.532L99.998,94.114L100.613,93.7L101.23,93.291L101.85,92.885L102.472,92.482L103.097,92.084L103.725,91.69L104.354,91.3L104.986,90.913L105.621,90.531L106.257,90.152L106.896,89.778L107.538,89.407L108.182,89.041L108.828,88.679L109.476,88.32L110.127,87.966L110.78,87.616L111.435,87.27L112.092,86.928L112.752,86.591L113.414,86.257L114.077,85.928L114.744,85.603L115.412,85.282L116.082,84.965L116.755,84.653L117.43,84.344L118.106,84.041L118.785,83.741L119.466,83.446L120.149,83.155L120.834,82.868L121.521,82.586L122.21,82.308L122.901,82.034L123.594,81.765L124.289,81.5L124.986,81.24L125.685,80.984L126.386,80.733L127.088,80.486L127.793,80.243L128.499,80.005L129.207,79.772L129.918,79.543L130.629,79.319L131.343,79.099L132.059,78.884L132.776,78.673L133.495,78.468L134.216,78.266L134.939,78.07L135.663,77.878L136.389,77.691L137.117,77.508L137.846,77.33L138.577,77.157L139.31,76.989L140.044,76.825L140.78,76.666L141.518,76.513L142.257,76.363L142.998,76.219L143.74,76.08L144.484,75.945L145.229,75.815L145.976,75.69L146.725,75.57L147.474,75.455L148.226,75.345L148.979,75.24L149.733,75.14L150.488,75.045L151.246,74.955L152.004,74.87L152.764,74.79L153.525,74.714L154.288,74.645L155.052,74.58L155.817,74.52L156.583,74.465L157.351,74.416L158.12,74.371L158.891,74.332L159.662,74.298L160.435,74.269L161.209,74.245L161.984,74.227L162.761,74.214L163.538,74.206L164.317,74.203L165.096,74.206ZM163.542,74.765L162.767,74.773L161.994,74.786L161.222,74.804L160.452,74.828L159.682,74.856L158.914,74.89L158.147,74.929L157.381,74.974L156.616,75.023L155.853,75.077L155.091,75.137L154.331,75.202L153.571,75.271L152.813,75.346L152.057,75.426L151.302,75.51L150.548,75.6L149.795,75.695L149.044,75.795L148.295,75.899L147.547,76.009L146.8,76.123L146.055,76.243L145.311,76.367L144.569,76.496L143.829,76.63L143.09,76.769L142.352,76.913L141.616,77.061L140.882,77.215L140.149,77.373L139.418,77.536L138.688,77.703L137.961,77.876L137.234,78.053L136.51,78.234L135.787,78.421L135.066,78.612L134.346,78.808L133.629,79.008L132.913,79.213L132.198,79.422L131.486,79.637L130.775,79.855L130.067,80.079L129.36,80.307L128.654,80.539L127.951,80.776L127.25,81.017L126.55,81.263L125.852,81.513L125.157,81.768L124.463,82.027L123.771,82.291L123.081,82.559L122.393,82.831L121.707,83.108L121.023,83.389L120.341,83.674L119.661,83.964L118.983,84.258L118.307,84.557L117.633,84.859L116.961,85.166L116.292,85.477L115.624,85.792L114.959,86.112L114.296,86.436L113.635,86.764L112.976,87.096L112.319,87.432L111.664,87.772L111.012,88.117L110.362,88.465L109.714,88.818L109.069,89.175L108.425,89.535L107.785,89.9L107.146,90.269L106.51,90.642L105.876,91.019L105.244,91.399L104.615,91.784L103.988,92.173L103.363,92.565L102.741,92.962L102.121,93.362L101.504,93.766L100.889,94.174L100.277,94.586L99.667,95.002L99.06,95.422L98.455,95.845L97.853,96.272L97.253,96.703L96.656,97.138L96.061,97.576L95.469,98.019L94.88,98.464L94.293,98.914L93.709,99.367L93.127,99.824L92.549,100.285L91.972,100.749L91.399,101.216L90.828,101.688L90.26,102.163L89.695,102.641L89.132,103.123L88.572,103.609L88.015,104.098L87.461,104.59L86.91,105.086L86.361,105.586L85.815,106.089L85.272,106.595L84.732,107.105L84.195,107.618L83.661,108.135L83.13,108.655L82.601,109.178L82.076,109.705L81.553,110.235L81.034,110.768L80.517,111.304L80.004,111.844L79.493,112.387L78.986,112.934L78.481,113.483L77.98,114.036L77.481,114.592L76.986,115.151L76.494,115.714L76.005,116.279L75.519,116.848L75.037,117.419L74.557,117.994L74.081,118.572L73.607,119.153L73.137,119.737L72.671,120.324L72.207,120.914L71.747,121.507L71.29,122.104L70.836,122.703L70.386,123.305L69.939,123.91L69.495,124.518L69.055,125.128L68.617,125.742L68.184,126.359L67.753,126.978L67.327,127.6L66.903,128.226L66.483,128.854L66.066,129.484L65.653,130.118L65.243,130.754L64.837,131.393L64.435,132.035L64.035,132.68L63.64,133.327L63.248,133.977L62.859,134.629L62.474,135.285L62.093,135.942L61.715,136.603L61.341,137.266L60.97,137.932L60.604,138.6L60.24,139.271L59.881,139.945L59.525,140.62L59.173,141.299L58.825,141.98L58.48,142.663L58.139,143.349L57.802,144.038L57.469,144.729L57.139,145.422L56.813,146.117L56.492,146.816L56.174,147.516L55.859,148.219L55.549,148.924L55.243,149.631L54.94,150.341L54.642,151.053L54.347,151.767L54.056,152.484L53.769,153.203L53.487,153.924L53.208,154.647L52.933,155.373L52.662,156.1L52.396,156.83L52.133,157.562L51.874,158.296L51.62,159.033L51.369,159.771L51.123,160.512L50.881,161.254L50.643,161.999L50.409,162.745L50.179,163.494L49.954,164.245L49.732,164.997L49.515,165.752L49.302,166.509L49.094,167.267L48.889,168.028L48.689,168.79L48.493,169.554L48.302,170.321L48.115,171.089L47.932,171.858L47.753,172.63L47.579,173.404L47.409,174.179L47.244,174.956L47.083,175.735L46.926,176.516L46.774,177.298L46.626,178.083L46.483,178.868L46.344,179.656L46.21,180.445L46.08,181.236L45.955,182.029L45.834,182.823L45.718,183.619L45.606,184.416L45.499,185.215L45.397,186.016L45.299,186.818L45.206,187.621L45.117,188.427L45.034,189.233L44.954,190.041L44.88,190.851L44.81,191.662L44.745,192.475L44.685,193.289L44.629,194.104L44.578,194.921L44.532,195.739L44.491,196.559L44.454,197.379L44.422,198.202L44.396,199.025L44.374,199.85L44.356,200.676L44.344,201.503L44.337,202.332L44.334,203.162L44.337,203.992L44.344,204.82L44.356,205.648L44.374,206.474L44.396,207.298L44.422,208.122L44.454,208.944L44.491,209.765L44.532,210.585L44.578,211.403L44.629,212.219L44.685,213.035L44.745,213.849L44.81,214.661L44.88,215.472L44.954,216.282L45.034,217.09L45.117,217.897L45.206,218.702L45.299,219.506L45.397,220.308L45.499,221.108L45.606,221.907L45.718,222.705L45.834,223.501L45.955,224.295L46.08,225.087L46.21,225.878L46.344,226.668L46.483,227.455L46.626,228.241L46.774,229.025L46.926,229.808L47.083,230.588L47.244,231.367L47.409,232.144L47.579,232.92L47.753,233.693L47.932,234.465L48.115,235.235L48.302,236.003L48.493,236.769L48.689,237.534L48.889,238.296L49.094,239.056L49.302,239.815L49.515,240.572L49.732,241.326L49.954,242.079L50.179,242.83L50.409,243.578L50.643,244.325L50.881,245.069L51.123,245.812L51.369,246.552L51.62,247.291L51.874,248.027L52.133,248.761L52.396,249.493L52.662,250.223L52.933,250.951L53.208,251.676L53.487,252.4L53.769,253.121L54.056,253.839L54.347,254.556L54.642,255.27L54.94,255.982L55.243,256.692L55.549,257.4L55.859,258.105L56.174,258.808L56.492,259.508L56.813,260.206L57.139,260.902L57.469,261.595L57.802,262.286L58.139,262.974L58.48,263.66L58.825,264.344L59.173,265.025L59.525,265.703L59.881,266.379L60.24,267.052L60.604,267.723L60.97,268.392L61.341,269.057L61.715,269.721L62.093,270.381L62.474,271.039L62.859,271.694L63.248,272.347L63.64,272.997L64.035,273.644L64.435,274.289L64.837,274.93L65.243,275.569L65.653,276.206L66.066,276.839L66.483,277.47L66.903,278.098L67.327,278.723L67.753,279.345L68.184,279.965L68.617,280.581L69.055,281.195L69.495,281.806L69.939,282.414L70.386,283.019L70.836,283.621L71.29,284.22L71.747,284.816L72.207,285.409L72.671,285.999L73.137,286.586L73.607,287.17L74.081,287.751L74.557,288.329L75.037,288.904L75.519,289.476L76.005,290.045L76.494,290.61L76.986,291.172L77.481,291.731L77.98,292.287L78.481,292.84L78.986,293.39L79.493,293.936L80.004,294.479L80.517,295.019L81.034,295.556L81.553,296.089L82.076,296.619L82.601,297.146L83.13,297.669L83.661,298.189L84.195,298.705L84.732,299.219L85.272,299.728L85.815,300.235L86.361,300.738L86.91,301.237L87.461,301.733L88.015,302.226L88.572,302.715L89.132,303.2L89.695,303.682L90.26,304.161L90.828,304.636L91.399,305.107L91.972,305.575L92.549,306.039L93.127,306.499L93.709,306.956L94.293,307.41L94.88,307.859L95.469,308.305L96.061,308.747L96.656,309.185L97.253,309.62L97.853,310.051L98.455,310.478L99.06,310.902L99.667,311.321L100.277,311.737L100.889,312.149L101.504,312.557L102.121,312.961L102.741,313.362L103.363,313.758L103.988,314.151L104.615,314.54L105.244,314.924L105.876,315.305L106.51,315.682L107.146,316.055L107.785,316.423L108.425,316.788L109.069,317.149L109.714,317.506L110.362,317.858L111.012,318.207L111.664,318.551L112.319,318.892L112.976,319.228L113.635,319.56L114.296,319.888L114.959,320.212L115.624,320.531L116.292,320.846L116.961,321.158L117.633,321.464L118.307,321.767L118.983,322.065L119.661,322.359L120.341,322.649L121.023,322.935L121.707,323.216L122.393,323.492L123.081,323.765L123.771,324.033L124.463,324.296L125.157,324.556L125.852,324.81L126.55,325.061L127.25,325.306L127.951,325.548L128.654,325.785L129.36,326.017L130.067,326.245L130.775,326.468L131.486,326.687L132.198,326.901L132.913,327.111L133.629,327.316L134.346,327.516L135.066,327.712L135.787,327.903L136.51,328.089L137.234,328.271L137.961,328.448L138.688,328.62L139.418,328.788L140.149,328.951L140.882,329.109L141.616,329.262L142.352,329.411L143.09,329.554L143.829,329.693L144.569,329.827L145.311,329.956L146.055,330.081L146.8,330.2L147.547,330.315L148.295,330.424L149.044,330.529L149.795,330.629L150.548,330.723L151.302,330.813L152.057,330.898L152.813,330.978L153.571,331.052L154.331,331.122L155.091,331.187L155.853,331.246L156.616,331.301L157.381,331.35L158.147,331.394L158.914,331.433L159.682,331.467L160.452,331.496L161.222,331.519L161.994,331.538L162.767,331.551L163.542,331.559L164.317,331.561L165.092,331.559L165.867,331.551L166.64,331.538L167.412,331.519L168.183,331.496L168.952,331.467L169.72,331.433L170.487,331.394L171.253,331.35L172.018,331.301L172.781,331.246L173.543,331.187L174.303,331.122L175.063,331.052L175.821,330.978L176.577,330.898L177.332,330.813L178.086,330.723L178.839,330.629L179.59,330.529L180.339,330.424L181.087,330.315L181.834,330.2L182.579,330.081L183.323,329.956L184.065,329.827L184.805,329.693L185.544,329.554L186.282,329.411L187.018,329.262L187.752,329.109L188.485,328.951L189.216,328.788L189.946,328.62L190.674,328.448L191.4,328.271L192.124,328.089L192.847,327.903L193.568,327.712L194.288,327.516L195.005,327.316L195.721,327.111L196.436,326.901L197.148,326.687L197.859,326.468L198.568,326.245L199.275,326.017L199.98,325.785L200.683,325.548L201.385,325.306L202.084,325.061L202.782,324.81L203.478,324.556L204.171,324.296L204.863,324.033L205.553,323.765L206.241,323.492L206.927,323.216L207.611,322.935L208.293,322.649L208.973,322.359L209.651,322.065L210.327,321.767L211.001,321.464L211.673,321.158L212.342,320.846L213.01,320.531L213.675,320.212L214.338,319.888L215,319.56L215.658,319.228L216.315,318.892L216.97,318.551L217.622,318.207L218.272,317.858L218.92,317.506L219.565,317.149L220.209,316.788L220.85,316.423L221.488,316.055L222.125,315.682L222.759,315.305L223.39,314.924L224.02,314.54L224.646,314.151L225.271,313.758L225.893,313.362L226.513,312.961L227.13,312.557L227.745,312.149L228.357,311.737L228.967,311.321L229.574,310.902L230.179,310.478L230.781,310.051L231.381,309.62L231.978,309.185L232.573,308.747L233.165,308.305L233.754,307.859L234.341,307.41L234.925,306.956L235.507,306.499L236.086,306.039L236.662,305.575L237.235,305.107L237.806,304.636L238.374,304.161L238.939,303.682L239.502,303.2L240.062,302.715L240.619,302.226L241.173,301.733L241.724,301.237L242.273,300.738L242.819,300.235L243.362,299.728L243.902,299.219L244.439,298.705L244.973,298.189L245.504,297.669L246.033,297.146L246.558,296.619L247.081,296.089L247.6,295.556L248.117,295.019L248.63,294.479L249.141,293.936L249.648,293.39L250.153,292.84L250.654,292.287L251.153,291.731L251.648,291.172L252.14,290.61L252.629,290.045L253.115,289.476L253.598,288.904L254.077,288.329L254.553,287.751L255.027,287.17L255.497,286.586L255.963,285.999L256.427,285.409L256.887,284.816L257.344,284.22L257.798,283.621L258.248,283.019L258.695,282.414L259.139,281.806L259.58,281.195L260.017,280.581L260.45,279.965L260.881,279.345L261.308,278.723L261.731,278.098L262.151,277.47L262.568,276.839L262.981,276.206L263.391,275.569L263.797,274.93L264.2,274.289L264.599,273.644L264.994,272.997L265.386,272.347L265.775,271.694L266.16,271.039L266.541,270.381L266.919,269.721L267.293,269.057L267.664,268.392L268.031,267.723L268.394,267.052L268.753,266.379L269.109,265.703L269.461,265.025L269.809,264.344L270.154,263.66L270.495,262.974L270.832,262.286L271.165,261.595L271.495,260.902L271.821,260.206L272.142,259.508L272.461,258.808L272.775,258.105L273.085,257.4L273.391,256.692L273.694,255.982L273.992,255.27L274.287,254.556L274.578,253.839L274.865,253.121L275.147,252.4L275.426,251.676L275.701,250.951L275.972,250.223L276.238,249.493L276.501,248.761L276.76,248.027L277.014,247.291L277.265,246.552L277.511,245.812L277.753,245.069L277.991,244.325L278.225,243.578L278.455,242.83L278.68,242.079L278.902,241.326L279.119,240.572L279.332,239.815L279.54,239.056L279.745,238.296L279.945,237.534L280.141,236.769L280.332,236.003L280.52,235.235L280.702,234.465L280.881,233.693L281.055,232.92L281.225,232.144L281.39,231.367L281.551,230.588L281.708,229.808L281.86,229.025L282.008,228.241L282.151,227.455L282.29,226.668L282.424,225.878L282.554,225.087L282.679,224.295L282.8,223.501L282.916,222.705L283.028,221.907L283.135,221.108L283.237,220.308L283.335,219.506L283.428,218.702L283.517,217.897L283.601,217.09L283.68,216.282L283.754,215.472L283.824,214.661L283.889,213.849L283.95,213.035L284.005,212.219L284.056,211.403L284.102,210.585L284.143,209.765L284.18,208.944L284.212,208.122L284.238,207.298L284.26,206.474L284.278,205.648L284.29,204.82L284.297,203.992L284.3,203.162L284.297,202.332L284.29,201.503L284.278,200.676L284.26,199.85L284.238,199.025L284.212,198.202L284.18,197.379L284.143,196.559L284.102,195.739L284.056,194.921L284.005,194.104L283.95,193.289L283.889,192.475L283.824,191.662L283.754,190.851L283.68,190.041L283.601,189.233L283.517,188.427L283.428,187.621L283.335,186.818L283.237,186.016L283.135,185.215L283.028,184.416L282.916,183.619L282.8,182.823L282.679,182.029L282.554,181.236L282.424,180.445L282.29,179.656L282.151,178.868L282.008,178.083L281.86,177.298L281.708,176.516L281.551,175.735L281.39,174.956L281.225,174.179L281.055,173.404L280.881,172.63L280.702,171.858L280.52,171.089L280.332,170.321L280.141,169.554L279.945,168.79L279.745,168.028L279.54,167.267L279.332,166.509L279.119,165.752L278.902,164.997L278.68,164.245L278.455,163.494L278.225,162.745L277.991,161.999L277.753,161.254L277.511,160.512L277.265,159.771L277.014,159.033L276.76,158.296L276.501,157.562L276.238,156.83L275.972,156.1L275.701,155.373L275.426,154.647L275.147,153.924L274.865,153.203L274.578,152.484L274.287,151.767L273.992,151.053L273.694,150.341L273.391,149.631L273.085,148.924L272.775,148.219L272.461,147.516L272.142,146.816L271.821,146.117L271.495,145.422L271.165,144.729L270.832,144.038L270.495,143.349L270.154,142.663L269.809,141.98L269.461,141.299L269.109,140.62L268.753,139.945L268.394,139.271L268.031,138.6L267.664,137.932L267.293,137.266L266.919,136.603L266.541,135.942L266.16,135.285L265.775,134.629L265.386,133.977L264.994,133.327L264.599,132.68L264.2,132.035L263.797,131.393L263.391,130.754L262.981,130.118L262.568,129.484L262.151,128.854L261.731,128.226L261.308,127.6L260.881,126.978L260.45,126.359L260.017,125.742L259.58,125.128L259.139,124.518L258.695,123.91L258.248,123.305L257.798,122.703L257.344,122.104L256.887,121.507L256.427,120.914L255.963,120.324L255.497,119.737L255.027,119.153L254.553,118.572L254.077,117.994L253.598,117.419L253.115,116.848L252.629,116.279L252.14,115.714L251.648,115.151L251.153,114.592L250.654,114.036L250.153,113.483L249.648,112.934L249.141,112.387L248.63,111.844L248.117,111.304L247.6,110.768L247.081,110.235L246.558,109.705L246.033,109.178L245.504,108.655L244.973,108.135L244.439,107.618L243.902,107.105L243.362,106.595L242.819,106.089L242.273,105.586L241.724,105.086L241.173,104.59L240.619,104.098L240.062,103.609L239.502,103.123L238.939,102.641L238.374,102.163L237.806,101.688L237.235,101.216L236.662,100.749L236.086,100.285L235.507,99.824L234.925,99.367L234.341,98.914L233.754,98.464L233.165,98.019L232.573,97.576L231.978,97.138L231.381,96.703L230.781,96.272L230.179,95.845L229.574,95.422L228.967,95.002L228.357,94.586L227.745,94.174L227.13,93.766L226.513,93.362L225.893,92.962L225.271,92.565L224.646,92.173L224.02,91.784L223.39,91.399L222.759,91.019L222.125,90.642L221.488,90.269L220.85,89.9L220.209,89.535L219.565,89.175L218.92,88.818L218.272,88.465L217.622,88.117L216.97,87.772L216.315,87.432L215.658,87.096L215,86.764L214.338,86.436L213.675,86.112L213.01,85.792L212.342,85.477L211.673,85.166L211.001,84.859L210.327,84.557L209.651,84.258L208.973,83.964L208.293,83.674L207.611,83.389L206.927,83.108L206.241,82.831L205.553,82.559L204.863,82.291L204.171,82.027L203.478,81.768L202.782,81.513L202.084,81.263L201.385,81.017L200.683,80.776L199.98,80.539L199.275,80.307L198.568,80.079L197.859,79.855L197.148,79.637L196.436,79.422L195.721,79.213L195.005,79.008L194.288,78.808L193.568,78.612L192.847,78.421L192.124,78.234L191.4,78.053L190.674,77.876L189.946,77.703L189.216,77.536L188.485,77.373L187.752,77.215L187.018,77.061L186.282,76.913L185.544,76.769L184.805,76.63L184.065,76.496L183.323,76.367L182.579,76.243L181.834,76.123L181.087,76.009L180.339,75.899L179.59,75.795L178.839,75.695L178.086,75.6L177.332,75.51L176.577,75.426L175.821,75.346L175.063,75.271L174.303,75.202L173.543,75.137L172.781,75.077L172.018,75.023L171.253,74.974L170.487,74.929L169.72,74.89L168.952,74.856L168.183,74.828L167.412,74.804L166.64,74.786L165.867,74.773L165.092,74.765L164.317,74.762L163.542,74.765Z" style="fill:rgb(51,51,51);"/>
        </g>
        <g transform="matrix(0.69041,0,0,0.516276,1029.25,-171.868)">
            <ellipse cx="164.317" cy="203.162" rx="119.983" ry="128.4" style="fill:none;stroke:rgb(51,51,51);stroke-width:0.32px;"/>
        </g>
        <g transform="matrix(1.03667,0,0,0.775202,972.358,-224.472)">
            <ellipse cx="164.317" cy="203.162" rx="119.983" ry="128.4" style="fill:none;stroke:rgb(51,51,51);stroke-width:0.28px;"/>
        </g>
        <g transform="matrix(1.0487,0,0,0.7842,970.381,-226.3)">
            <ellipse cx="164.317" cy="203.162" rx="119.983" ry="128.4" style="fill:none;stroke:rgb(51,51,51);stroke-width:0.28px;"/>
        </g>
    </g>
</svg>
