<?xml version="1.0" encoding="UTF-8" standalone="no"?>
<!DOCTYPE svg PUBLIC "-//W3C//DTD SVG 1.1//EN" "http://www.w3.org/Graphics/SVG/1.1/DTD/svg11.dtd">
<svg width="100%" height="100%" viewBox="0 0 300 380" version="1.1" xmlns="http://www.w3.org/2000/svg" xmlns:xlink="http://www.w3.org/1999/xlink" xml:space="preserve" xmlns:serif="http://www.serif.com/" style="fill-rule:evenodd;clip-rule:evenodd;stroke-linecap:round;stroke-linejoin:round;stroke-miterlimit:1.5;">
    <g id="panel" transform="matrix(0.834722,0,0,1.04324,-803.837,250.623)">
        <g transform="matrix(5.99002,0,0,0.958552,963,-240.235)">
            <rect x="0" y="0" width="60" height="380" style="fill:rgb(128,187,254);"/>
        </g>
        <g transform="matrix(5.99002,0,0,0.958552,969.377,-248.207)">
            <rect x="0" y="0" width="60" height="380" style="fill:rgb(128,187,254);"/>
        </g>
        <g transform="matrix(1.198,0,0,0.958552,963,-241.529)">
            <path d="M155.354,152.669C155.354,152.669 151.785,151.818 150,151.818C148.215,151.818 144.646,152.669 144.646,152.669L141.163,147.307L146.295,149.731L146.033,146.104L148.678,148.573L150,143.01L151.322,148.573L153.967,146.104L153.705,149.731L158.837,147.307L155.354,152.669Z" style="fill:white;fill-opacity:0.7;"/>
            <path d="M150.083,142.014L150.166,142.024L150.248,142.042L150.328,142.066L150.406,142.096L150.481,142.134L150.552,142.177L150.62,142.226L150.683,142.28L150.742,142.34L150.795,142.404L150.843,142.473L150.885,142.545L150.921,142.62L150.95,142.699L150.973,142.779L151.897,146.668L153.285,145.373L153.348,145.319L153.415,145.271L153.485,145.228L153.559,145.191L153.636,145.161L153.715,145.136L153.795,145.119L153.877,145.108L153.96,145.104L154.042,145.107L154.124,145.116L154.205,145.132L154.284,145.155L154.361,145.185L154.436,145.22L154.507,145.262L154.575,145.309L154.638,145.362L154.697,145.42L154.751,145.482L154.799,145.549L154.842,145.62L154.879,145.693L154.91,145.77L154.934,145.849L154.952,145.929L154.963,146.011L154.967,146.094L154.965,146.176L154.826,148.095L158.41,146.403L158.487,146.37L158.566,146.344L158.647,146.325L158.73,146.312L158.813,146.307L158.896,146.308L158.979,146.317L159.061,146.332L159.142,146.354L159.22,146.383L159.296,146.418L159.368,146.46L159.437,146.507L159.502,146.56L159.562,146.618L159.617,146.681L159.666,146.748L159.71,146.819L159.747,146.894L159.779,146.971L159.803,147.051L159.821,147.132L159.833,147.215L159.837,147.298L159.834,147.382L159.824,147.465L159.808,147.546L159.784,147.627L159.754,147.704L159.718,147.78L159.675,147.851L156.192,153.214L156.145,153.28L156.093,153.343L156.035,153.401L155.973,153.454L155.907,153.502L155.838,153.544L155.765,153.581L155.689,153.611L155.611,153.635L155.532,153.653L155.451,153.664L155.369,153.669L155.288,153.667L155.207,153.658L155.127,153.643L154.972,153.607L154.793,153.566L154.553,153.513L154.262,153.45L153.928,153.379L153.556,153.303L153.361,153.265L153.159,153.226L152.952,153.187L152.741,153.148L152.528,153.111L152.312,153.074L152.096,153.038L151.881,153.004L151.666,152.972L151.455,152.942L151.247,152.915L151.043,152.89L150.844,152.869L150.75,152.86L150.656,152.851L150.564,152.844L150.475,152.837L150.388,152.831L150.304,152.827L150.223,152.823L150.145,152.82L150.071,152.819L150,152.818L149.929,152.819L149.855,152.82L149.777,152.823L149.696,152.827L149.612,152.831L149.525,152.837L149.436,152.844L149.344,152.851L149.25,152.86L149.156,152.869L148.957,152.89L148.753,152.915L148.545,152.942L148.334,152.972L148.119,153.004L147.904,153.038L147.688,153.074L147.472,153.111L147.259,153.148L147.048,153.187L146.841,153.226L146.639,153.265L146.444,153.303L146.072,153.379L145.738,153.45L145.447,153.513L145.207,153.566L145.028,153.607L144.873,153.643L144.793,153.658L144.712,153.667L144.631,153.669L144.549,153.664L144.468,153.653L144.389,153.635L144.311,153.611L144.235,153.581L144.162,153.544L144.093,153.502L144.027,153.454L143.965,153.401L143.907,153.343L143.855,153.28L143.808,153.214L140.325,147.851L140.282,147.78L140.246,147.704L140.216,147.627L140.192,147.546L140.176,147.465L140.166,147.382L140.163,147.298L140.167,147.215L140.179,147.132L140.197,147.051L140.221,146.971L140.253,146.894L140.29,146.819L140.334,146.748L140.383,146.681L140.438,146.618L140.498,146.56L140.563,146.507L140.632,146.46L140.704,146.418L140.78,146.383L140.858,146.354L140.939,146.332L141.021,146.317L141.104,146.308L141.187,146.307L141.27,146.312L141.353,146.325L141.434,146.344L141.513,146.37L141.59,146.403L145.174,148.095L145.035,146.176L145.033,146.094L145.037,146.011L145.048,145.929L145.066,145.849L145.09,145.77L145.121,145.693L145.158,145.62L145.201,145.549L145.249,145.482L145.303,145.42L145.362,145.362L145.425,145.309L145.493,145.262L145.564,145.22L145.639,145.185L145.716,145.155L145.795,145.132L145.876,145.116L145.958,145.107L146.04,145.104L146.123,145.108L146.205,145.119L146.285,145.136L146.364,145.161L146.441,145.191L146.515,145.228L146.585,145.271L146.652,145.319L146.715,145.373L148.103,146.668L149.027,142.779L149.05,142.699L149.079,142.62L149.115,142.545L149.157,142.473L149.205,142.404L149.258,142.34L149.317,142.28L149.38,142.226L149.448,142.177L149.519,142.134L149.594,142.096L149.672,142.066L149.752,142.042L149.834,142.024L149.917,142.014L150,142.01L150.083,142.014ZM148.678,148.573L146.033,146.104L146.295,149.731L141.163,147.307L144.646,152.669L144.803,152.632L144.987,152.59L145.232,152.536L145.529,152.472L145.87,152.4L146.247,152.323L146.448,152.283L146.654,152.244L146.866,152.204L147.081,152.164L147.3,152.125L147.522,152.087L147.745,152.051L147.968,152.016L148.19,151.982L148.411,151.951L148.629,151.923L148.843,151.897L149.053,151.874L149.156,151.864L149.258,151.855L149.357,151.847L149.455,151.839L149.552,151.833L149.646,151.828L149.738,151.824L149.828,151.821L149.915,151.819L150,151.818L150.085,151.819L150.172,151.821L150.262,151.824L150.354,151.828L150.448,151.833L150.545,151.839L150.643,151.847L150.742,151.855L150.844,151.864L150.947,151.874L151.157,151.897L151.371,151.923L151.589,151.951L151.81,151.982L152.032,152.016L152.255,152.051L152.478,152.087L152.7,152.125L152.919,152.164L153.134,152.204L153.346,152.244L153.552,152.283L153.753,152.323L154.13,152.4L154.471,152.472L154.768,152.536L155.013,152.59L155.197,152.632L155.354,152.669L158.837,147.307L153.705,149.731L153.967,146.104L151.322,148.573L150,143.01L148.678,148.573Z" style="fill:rgb(51,51,51);"/>
        </g>
        <g>
            <g transform="matrix(1.198,0,0,0.956584,963,-236.019)">
                <path d="M106.474,84L106.574,84.011L106.673,84.032L106.77,84.064L106.862,84.105L106.95,84.155L107.033,84.214L107.109,84.281L107.178,84.355L107.239,84.436L107.292,84.523L107.336,84.614L118.25,110.838L118.285,110.934L118.309,111.032L118.323,111.133L118.327,111.234L118.321,111.336L118.305,111.436L118.279,111.534L118.242,111.629L118.197,111.719L118.142,111.805L118.08,111.885L118.009,111.957L117.931,112.023L117.848,112.08L117.759,112.128L117.665,112.167L117.568,112.197L117.469,112.216L117.368,112.225L117.267,112.224L117.166,112.213L117.067,112.192L116.971,112.16L116.878,112.119L116.79,112.069L116.707,112.01L116.631,111.943L116.562,111.869L116.501,111.788L116.448,111.701L116.405,111.61L105.49,85.386L105.456,85.29L105.431,85.192L105.417,85.091L105.413,84.99L105.419,84.888L105.435,84.788L105.462,84.69L105.498,84.595L105.543,84.505L105.598,84.419L105.661,84.339L105.731,84.267L105.809,84.201L105.893,84.144L105.982,84.096L106.075,84.057L106.172,84.027L106.271,84.008L106.372,83.999L106.474,84Z" style="fill:rgb(102,102,102);"/>
            </g>
            <g transform="matrix(1.198,0,0,0.956584,894.591,-185.269)">
                <path d="M102.068,92.664L102.168,92.678L102.266,92.702L102.362,92.736L128.604,103.545L128.695,103.588L128.782,103.64L128.863,103.701L128.938,103.77L129.005,103.846L129.064,103.928L129.115,104.016L129.156,104.109L129.188,104.205L129.21,104.305L129.222,104.405L129.223,104.507L129.214,104.608L129.196,104.708L129.167,104.805L129.128,104.899L129.08,104.988L129.024,105.073L128.959,105.151L128.887,105.222L128.808,105.285L128.722,105.34L128.632,105.386L128.538,105.423L128.44,105.45L128.34,105.467L128.239,105.473L128.138,105.47L128.037,105.456L127.939,105.432L127.844,105.398L101.602,94.589L101.51,94.546L101.423,94.494L101.342,94.433L101.268,94.364L101.2,94.288L101.141,94.206L101.091,94.118L101.049,94.025L101.018,93.929L100.996,93.83L100.984,93.729L100.982,93.627L100.991,93.526L101.01,93.426L101.039,93.329L101.077,93.235L101.125,93.146L101.182,93.061L101.246,92.983L101.319,92.912L101.398,92.849L101.483,92.794L101.573,92.748L101.668,92.711L101.765,92.684L101.865,92.667L101.966,92.661L102.068,92.664Z" style="fill:rgb(102,102,102);"/>
            </g>
            <g transform="matrix(1.198,0,0,0.956584,888.98,-131.331)">
                <path d="M133.02,112.569L133.12,112.586L133.218,112.612L133.313,112.649L133.403,112.694L133.488,112.749L133.568,112.812L133.64,112.883L133.705,112.961L133.762,113.045L133.81,113.134L133.849,113.228L133.878,113.325L133.897,113.425L133.906,113.526L133.905,113.627L133.894,113.728L133.872,113.828L133.841,113.924L133.8,114.017L133.749,114.105L133.691,114.188L133.624,114.264L133.549,114.333L133.469,114.394L133.382,114.447L133.29,114.49L107.049,125.4L106.953,125.434L106.855,125.458L106.754,125.472L106.653,125.476L106.552,125.47L106.452,125.453L106.354,125.427L106.26,125.39L106.169,125.345L106.084,125.29L106.005,125.227L105.932,125.156L105.867,125.078L105.81,124.994L105.762,124.905L105.723,124.811L105.694,124.714L105.675,124.614L105.666,124.513L105.667,124.412L105.679,124.311L105.7,124.212L105.732,124.115L105.773,124.022L105.823,123.934L105.882,123.852L105.949,123.775L106.023,123.706L106.104,123.645L106.191,123.592L106.282,123.549L132.524,112.639L132.619,112.605L132.718,112.581L132.818,112.567L132.919,112.563L133.02,112.569Z" style="fill:rgb(102,102,102);"/>
            </g>
            <g transform="matrix(1.198,0,0,0.956584,888.98,-131.331)">
                <path d="M179.252,158.873L179.351,158.892L179.448,158.922L179.542,158.96L179.631,159.008L179.715,159.065L179.793,159.131L179.863,159.203L179.926,159.283L179.981,159.368L180.027,159.459L180.063,159.553L180.09,159.651L180.107,159.751L180.113,159.853L180.109,159.954L180.095,160.055L180.071,160.153L180.037,160.249L169.17,186.548L169.127,186.64L169.075,186.727L169.014,186.808L168.945,186.882L168.869,186.95L168.786,187.009L168.698,187.059L168.606,187.1L168.51,187.132L168.411,187.154L168.31,187.165L168.209,187.166L168.108,187.157L168.008,187.138L167.911,187.109L167.818,187.07L167.729,187.022L167.645,186.965L167.567,186.9L167.496,186.827L167.433,186.748L167.378,186.663L167.333,186.572L167.296,186.477L167.27,186.379L167.253,186.279L167.247,186.178L167.25,186.076L167.265,185.976L167.289,185.877L167.323,185.782L178.189,159.482L178.233,159.391L178.285,159.304L178.346,159.223L178.415,159.148L178.491,159.081L178.573,159.022L178.661,158.972L178.754,158.93L178.85,158.899L178.949,158.877L179.05,158.866L179.151,158.864L179.252,158.873Z" style="fill:rgb(102,102,102);"/>
            </g>
            <g transform="matrix(1.198,0,0,0.956584,888.98,-131.331)">
                <path d="M244.523,158.866L244.623,158.877L244.722,158.899L244.819,158.931L244.911,158.972L244.999,159.023L245.081,159.082L245.157,159.149L245.226,159.224L245.287,159.305L245.339,159.392L245.382,159.483L256.212,185.783L256.246,185.879L256.27,185.977L256.283,186.078L256.287,186.179L256.281,186.28L256.264,186.381L256.237,186.478L256.201,186.573L256.155,186.664L256.1,186.749L256.037,186.828L255.966,186.901L255.888,186.966L255.804,187.023L255.715,187.071L255.621,187.11L255.524,187.139L255.425,187.158L255.324,187.166L255.223,187.165L255.122,187.153L255.023,187.131L254.927,187.1L254.834,187.058L254.746,187.008L254.664,186.949L254.588,186.882L254.519,186.807L254.459,186.726L254.406,186.639L254.363,186.547L243.534,160.248L243.5,160.152L243.476,160.054L243.462,159.953L243.458,159.852L243.465,159.75L243.481,159.65L243.508,159.552L243.545,159.458L243.591,159.367L243.645,159.282L243.709,159.202L243.779,159.13L243.857,159.065L243.941,159.008L244.03,158.96L244.124,158.921L244.221,158.892L244.321,158.873L244.421,158.864L244.523,158.866Z" style="fill:rgb(102,102,102);"/>
            </g>
            <g transform="matrix(1.198,0,0,0.956584,888.98,-131.331)">
                <path d="M290.75,112.566L290.851,112.58L290.949,112.604L291.045,112.638L317.247,123.451L317.338,123.495L317.425,123.547L317.506,123.608L317.581,123.677L317.648,123.753L317.707,123.836L317.757,123.924L317.799,124.016L317.83,124.113L317.852,124.212L317.864,124.313L317.865,124.414L317.857,124.515L317.838,124.615L317.809,124.712L317.77,124.806L317.722,124.896L317.666,124.98L317.601,125.058L317.528,125.129L317.449,125.192L317.364,125.247L317.274,125.293L317.179,125.33L317.082,125.357L316.982,125.373L316.881,125.38L316.779,125.376L316.679,125.362L316.581,125.338L316.485,125.305L290.283,114.491L290.192,114.448L290.105,114.395L290.024,114.334L289.949,114.266L289.882,114.19L289.823,114.107L289.773,114.019L289.731,113.926L289.7,113.83L289.678,113.731L289.666,113.63L289.665,113.529L289.673,113.427L289.692,113.328L289.721,113.23L289.76,113.137L289.808,113.047L289.864,112.963L289.929,112.885L290.001,112.814L290.081,112.751L290.166,112.696L290.256,112.65L290.351,112.613L290.448,112.586L290.548,112.569L290.649,112.563L290.75,112.566Z" style="fill:rgb(102,102,102);"/>
            </g>
            <g transform="matrix(1.198,0,0,0.956584,888.98,-131.331)">
                <path d="M317.077,36.197L317.177,36.214L317.274,36.241L317.369,36.277L317.459,36.323L317.544,36.378L317.624,36.441L317.696,36.512L317.761,36.59L317.818,36.674L317.866,36.764L317.904,36.857L317.934,36.955L317.953,37.054L317.961,37.156L317.96,37.257L317.949,37.358L317.927,37.457L317.895,37.553L317.854,37.646L317.804,37.734L317.745,37.817L317.678,37.893L317.603,37.962L317.522,38.023L317.436,38.075L317.344,38.119L291.046,49.011L290.95,49.045L290.852,49.069L290.752,49.083L290.651,49.087L290.549,49.081L290.45,49.064L290.352,49.037L290.257,49.001L290.167,48.955L290.082,48.9L290.002,48.837L289.93,48.766L289.865,48.688L289.808,48.604L289.76,48.514L289.722,48.421L289.693,48.323L289.674,48.224L289.665,48.123L289.666,48.021L289.678,47.92L289.699,47.821L289.731,47.725L289.772,47.632L289.822,47.544L289.881,47.461L289.948,47.385L290.023,47.316L290.104,47.255L290.19,47.203L290.282,47.159L316.58,36.267L316.676,36.233L316.774,36.209L316.874,36.195L316.976,36.191L317.077,36.197Z" style="fill:rgb(102,102,102);"/>
            </g>
            <g transform="matrix(1.198,0,0,0.956584,888.98,-131.331)">
                <path d="M255.449,-25.349L255.548,-25.33L255.645,-25.3L255.739,-25.261L255.828,-25.213L255.912,-25.156L255.989,-25.091L256.06,-25.018L256.123,-24.938L256.177,-24.853L256.223,-24.762L256.259,-24.667L256.286,-24.569L256.302,-24.469L256.308,-24.368L256.304,-24.267L256.29,-24.166L256.266,-24.067L256.232,-23.972L245.381,2.169L245.338,2.261L245.285,2.347L245.224,2.428L245.155,2.503L245.079,2.57L244.997,2.629L244.909,2.679L244.816,2.72L244.72,2.751L244.621,2.773L244.52,2.784L244.419,2.786L244.318,2.776L244.218,2.757L244.121,2.728L244.028,2.689L243.939,2.641L243.855,2.583L243.777,2.518L243.707,2.445L243.644,2.366L243.589,2.28L243.544,2.19L243.507,2.095L243.481,1.997L243.464,1.897L243.458,1.795L243.462,1.694L243.476,1.594L243.501,1.495L243.535,1.399L254.385,-24.742L254.429,-24.833L254.481,-24.92L254.543,-25.001L254.612,-25.075L254.688,-25.142L254.77,-25.201L254.858,-25.251L254.951,-25.292L255.047,-25.324L255.146,-25.345L255.247,-25.357L255.348,-25.358L255.449,-25.349Z" style="fill:rgb(102,102,102);"/>
            </g>
            <g transform="matrix(1.198,0,0,0.958552,963,-236.14)">
                <path d="M126.672,307.276C126.672,307.276 127.07,305.211 127.761,301.631C112.848,298.671 98.979,292.794 86.777,284.62L83.569,289.421" style="fill:none;stroke:rgb(102,102,102);stroke-width:2px;"/>
            </g>
            <g transform="matrix(1.198,0,0,0.958552,963,-236.14)">
                <path d="M50.579,256.431C50.579,256.431 52.33,255.252 55.369,253.207C47.194,241 41.319,227.125 38.363,212.206L32.724,213.328" style="fill:none;stroke:rgb(102,102,102);stroke-width:2px;"/>
            </g>
            <g transform="matrix(1.198,0,0,0.958552,963,-236.14)">
                <path d="M32.724,166.672L38.363,167.794C41.319,152.875 47.194,139 55.369,126.793C52.33,124.748 50.579,123.569 50.579,123.569" style="fill:none;stroke:rgb(102,102,102);stroke-width:2px;"/>
            </g>
            <g transform="matrix(1.198,0,0,0.958552,963,-236.14)">
                <path d="M83.655,90.521L86.859,95.325C99.015,87.197 112.821,81.348 127.663,78.389C126.969,74.809 126.57,72.745 126.57,72.745" style="fill:none;stroke:rgb(102,102,102);stroke-width:2px;"/>
            </g>
            <g transform="matrix(1.198,0,0,0.958552,963,-236.14)">
                <path d="M173.328,72.724L172.206,78.363C187.122,81.318 200.994,87.192 213.199,95.364C215.249,92.328 216.431,90.579 216.431,90.579" style="fill:none;stroke:rgb(102,102,102);stroke-width:2px;"/>
            </g>
            <g transform="matrix(1.198,0,0,0.958552,963,-236.14)">
                <path d="M249.421,123.569L244.62,126.777C252.799,138.986 258.678,152.864 261.636,167.787C265.213,167.08 267.276,166.672 267.276,166.672" style="fill:none;stroke:rgb(102,102,102);stroke-width:2px;"/>
            </g>
            <g transform="matrix(1.198,0,0,0.958552,963,-236.14)">
                <path d="M267.276,213.328C267.276,213.328 265.213,212.92 261.636,212.213C258.678,227.136 252.799,241.014 244.62,253.223L249.421,256.431" style="fill:none;stroke:rgb(102,102,102);stroke-width:2px;"/>
            </g>
            <g transform="matrix(1.198,0,0,0.958552,963,-236.14)">
                <path d="M216.345,289.479C216.345,289.479 215.164,287.729 213.117,284.691C200.958,292.817 187.149,298.663 172.303,301.618L173.43,307.255" style="fill:none;stroke:rgb(102,102,102);stroke-width:2px;"/>
            </g>
            <g transform="matrix(1.198,0,0,0.958552,963,-236.14)">
                <path d="M182.672,111.122L180.6,116.126C200.127,124.232 215.757,139.859 223.867,159.385C227.018,158.091 228.878,157.328 228.878,157.328" style="fill:none;stroke:rgb(102,102,102);stroke-width:2px;"/>
            </g>
            <g transform="matrix(1.198,0,0,0.958552,963,-236.14)">
                <path d="M228.878,222.672C228.878,222.672 227.018,221.909 223.867,220.615C215.757,240.141 200.127,255.768 180.6,263.874L182.672,268.878" style="fill:none;stroke:rgb(102,102,102);stroke-width:2px;"/>
            </g>
            <g transform="matrix(1.198,0,0,0.958552,963,-236.14)">
                <path d="M117.328,268.878C117.328,268.878 118.082,267.014 119.362,263.858C99.847,255.745 84.229,240.119 76.126,220.6L71.122,222.672" style="fill:none;stroke:rgb(102,102,102);stroke-width:2px;"/>
            </g>
            <g transform="matrix(1.198,0,0,0.958552,963,-236.14)">
                <path d="M71.122,157.328L76.126,159.4C84.229,139.881 99.847,124.255 119.362,116.142C118.082,112.986 117.328,111.122 117.328,111.122" style="fill:none;stroke:rgb(102,102,102);stroke-width:2px;"/>
            </g>
            <g transform="matrix(1.198,0,0,0.958552,963,-236.14)">
                <path d="M114.736,154.736L118.423,158.423C110.338,166.508 105.334,177.674 105.334,190C105.334,202.326 110.338,213.492 118.423,221.577L114.736,225.264" style="fill:none;stroke:rgb(102,102,102);stroke-width:2px;"/>
            </g>
            <g transform="matrix(1.198,0,0,0.958552,963,-236.14)">
                <path d="M185.264,225.264L181.577,221.577C189.662,213.492 194.666,202.326 194.666,190C194.666,177.674 189.662,166.508 181.577,158.423L185.264,154.736" style="fill:none;stroke:rgb(102,102,102);stroke-width:2px;"/>
            </g>
            <g transform="matrix(1.198,0,0,0.956584,888.98,-131.331)">
                <path d="M155.523,23.342L155.612,23.353L155.7,23.371L155.786,23.397L155.87,23.43L155.949,23.471L156.025,23.519L156.097,23.573L156.163,23.634L177.229,44.78L177.289,44.847L177.344,44.918L177.391,44.994L177.432,45.074L177.465,45.158L177.491,45.244L177.509,45.332L177.519,45.421L177.521,45.511L177.515,45.601L177.501,45.69L177.479,45.777L177.449,45.862L177.412,45.944L177.368,46.022L177.316,46.096L177.259,46.165L177.195,46.228L177.126,46.286L177.053,46.337L176.974,46.381L176.893,46.418L176.808,46.448L176.721,46.47L176.632,46.484L176.543,46.49L176.453,46.488L176.364,46.478L176.276,46.46L176.19,46.434L176.107,46.4L176.027,46.359L175.951,46.311L175.88,46.257L175.814,46.196L154.747,25.05L154.687,24.984L154.633,24.912L154.585,24.836L154.544,24.756L154.511,24.672L154.485,24.586L154.467,24.498L154.457,24.409L154.455,24.319L154.462,24.229L154.476,24.14L154.498,24.053L154.527,23.968L154.565,23.886L154.609,23.808L154.66,23.734L154.718,23.665L154.781,23.602L154.85,23.544L154.924,23.493L155.002,23.449L155.084,23.412L155.168,23.382L155.255,23.36L155.344,23.346L155.434,23.34L155.523,23.342Z" style="fill:rgb(102,102,102);"/>
            </g>
            <g transform="matrix(1.198,0,0,0.956584,888.98,-131.331)">
                <path d="M256.366,79.843L256.544,79.894L256.709,79.976L256.856,80.087L256.98,80.224L257.078,80.381L257.144,80.554L257.178,80.735L257.178,80.92L257.144,81.102L257.078,81.275L256.98,81.432L256.856,81.568L256.709,81.68L256.544,81.762L256.366,81.813L256.182,81.83L167.217,81.83L167.034,81.813L166.856,81.762L166.691,81.68L166.544,81.568L166.419,81.432L166.322,81.275L166.256,81.102L166.222,80.92L166.222,80.735L166.256,80.554L166.322,80.381L166.419,80.224L166.544,80.087L166.691,79.976L166.856,79.894L167.034,79.843L167.217,79.826L256.182,79.826L256.366,79.843Z" style="fill:rgb(102,102,102);"/>
            </g>
            <g transform="matrix(1.198,0,0,0.956584,888.98,-131.331)">
                <path d="M176.633,115.166L176.722,115.18L176.809,115.202L176.893,115.232L176.975,115.269L177.053,115.313L177.127,115.364L177.196,115.422L177.259,115.486L177.317,115.555L177.368,115.629L177.412,115.707L177.449,115.789L177.479,115.873L177.501,115.961L177.515,116.049L177.521,116.139L177.519,116.229L177.509,116.318L177.491,116.407L177.465,116.493L177.432,116.576L177.391,116.656L177.343,116.732L177.289,116.804L177.228,116.87L156.079,138.069L156.013,138.13L155.942,138.184L155.866,138.232L155.786,138.273L155.702,138.306L155.616,138.332L155.529,138.35L155.439,138.36L155.35,138.362L155.26,138.356L155.172,138.342L155.085,138.32L155,138.291L154.918,138.253L154.84,138.209L154.766,138.158L154.697,138.1L154.634,138.037L154.576,137.968L154.525,137.894L154.481,137.815L154.444,137.734L154.414,137.649L154.392,137.562L154.378,137.473L154.372,137.383L154.374,137.293L154.384,137.204L154.402,137.116L154.428,137.03L154.461,136.946L154.502,136.866L154.55,136.79L154.604,136.718L154.665,136.652L175.814,115.453L175.88,115.393L175.952,115.338L176.028,115.29L176.108,115.25L176.191,115.216L176.277,115.19L176.365,115.172L176.454,115.162L176.544,115.16L176.633,115.166Z" style="fill:rgb(102,102,102);"/>
            </g>
            <g transform="matrix(1.198,0,0,0.956584,888.98,-131.331)">
                <path d="M211.92,59.044L212.008,59.06L212.095,59.084L212.179,59.116L212.259,59.155L212.336,59.201L212.409,59.254L212.477,59.313L212.539,59.378L212.595,59.448L212.644,59.523L212.687,59.602L212.722,59.685L212.75,59.771L212.77,59.858L212.782,59.947L212.786,60.037L212.786,80.525L212.782,80.615L212.77,80.704L212.75,80.792L212.722,80.877L212.687,80.96L212.644,81.039L212.595,81.114L212.539,81.184L212.477,81.249L212.409,81.308L212.336,81.361L212.259,81.407L212.179,81.446L212.095,81.478L212.008,81.502L211.92,81.518L211.83,81.526L211.741,81.526L211.651,81.518L211.563,81.502L211.477,81.478L211.393,81.446L211.312,81.407L211.235,81.361L211.162,81.308L211.095,81.249L211.033,81.184L210.977,81.114L210.927,81.039L210.885,80.96L210.849,80.877L210.822,80.792L210.802,80.704L210.79,80.615L210.786,80.525L210.786,60.037L210.79,59.947L210.802,59.858L210.822,59.771L210.849,59.685L210.885,59.602L210.927,59.523L210.977,59.448L211.033,59.378L211.095,59.313L211.162,59.254L211.235,59.201L211.312,59.155L211.393,59.116L211.477,59.084L211.563,59.06L211.651,59.044L211.741,59.036L211.83,59.036L211.92,59.044Z" style="fill:rgb(102,102,102);"/>
            </g>
            <g transform="matrix(1.198,0,0,0.956584,888.98,-131.331)">
                <path d="M247.115,115.162L247.204,115.172L247.292,115.19L247.378,115.215L247.461,115.248L247.541,115.289L247.617,115.337L247.689,115.391L247.755,115.451L269.103,136.734L269.163,136.801L269.218,136.872L269.266,136.948L269.307,137.028L269.34,137.111L269.366,137.198L269.385,137.286L269.395,137.375L269.397,137.465L269.391,137.554L269.378,137.643L269.356,137.731L269.326,137.816L269.29,137.897L269.246,137.976L269.195,138.05L269.137,138.119L269.074,138.183L269.005,138.241L268.932,138.292L268.854,138.336L268.772,138.374L268.687,138.404L268.601,138.426L268.512,138.44L268.422,138.447L268.333,138.445L268.244,138.435L268.156,138.417L268.07,138.391L267.986,138.358L267.906,138.318L267.83,138.27L267.759,138.216L267.692,138.155L246.345,116.872L246.284,116.806L246.229,116.735L246.181,116.659L246.141,116.579L246.107,116.495L246.081,116.409L246.063,116.321L246.052,116.232L246.05,116.142L246.056,116.052L246.07,115.963L246.091,115.876L246.121,115.791L246.158,115.709L246.202,115.631L246.253,115.557L246.31,115.488L246.373,115.424L246.442,115.366L246.516,115.315L246.594,115.27L246.675,115.233L246.76,115.203L246.847,115.181L246.935,115.166L247.025,115.16L247.115,115.162Z" style="fill:rgb(102,102,102);"/>
            </g>
            <g transform="matrix(1.198,0,0,0.956584,888.98,-131.331)">
                <path d="M268.401,23.191L268.49,23.205L268.577,23.227L268.662,23.257L268.743,23.294L268.821,23.339L268.895,23.39L268.964,23.447L269.028,23.511L269.085,23.58L269.136,23.654L269.18,23.732L269.218,23.814L269.247,23.899L269.269,23.986L269.283,24.075L269.289,24.164L269.287,24.254L269.277,24.344L269.259,24.432L269.234,24.518L269.2,24.601L269.16,24.681L269.112,24.758L269.058,24.829L268.997,24.896L247.757,46.196L247.691,46.257L247.62,46.311L247.544,46.359L247.464,46.4L247.381,46.434L247.295,46.46L247.207,46.478L247.118,46.488L247.028,46.49L246.938,46.484L246.85,46.47L246.763,46.448L246.678,46.418L246.596,46.381L246.518,46.337L246.444,46.286L246.376,46.228L246.312,46.164L246.255,46.095L246.203,46.022L246.159,45.943L246.122,45.861L246.092,45.777L246.07,45.689L246.056,45.601L246.05,45.511L246.052,45.421L246.062,45.332L246.08,45.244L246.106,45.157L246.139,45.074L246.18,44.994L246.228,44.918L246.282,44.846L246.343,44.78L267.582,23.479L267.648,23.418L267.72,23.364L267.796,23.316L267.876,23.275L267.959,23.242L268.045,23.216L268.133,23.198L268.222,23.187L268.312,23.185L268.401,23.191Z" style="fill:rgb(102,102,102);"/>
            </g>
        </g>
        <g transform="matrix(2.12535,0,0,2.03501,1026.83,-617.315)">
            <rect x="-30.034" y="347.456" width="169.102" height="16.91" style="fill:rgb(4,4,4);fill-opacity:0.3;"/>
        </g>
        <g transform="matrix(2.12535,0,0,2.38646,1026.83,-1069.43)">
            <rect x="-30.034" y="347.456" width="169.102" height="16.91" style="fill:rgb(4,4,4);fill-opacity:0.3;"/>
        </g>
        <g transform="matrix(16.0469,0,0,25.5659,363.043,-292.473)">
            <rect x="37.388" y="2.043" width="22.397" height="14.247" style="fill:none;stroke:black;stroke-opacity:0.6;stroke-width:0.03px;"/>
        </g>
        <g transform="matrix(1,0,0,1,152.607,0)">
            <g transform="matrix(1.198,0,0,0.958552,893.633,-224.914)">
                <g transform="matrix(9,0,0,9,64.0056,347.267)">
                    <path d="M0.919,0L0.762,0L0.762,-0.308C0.762,-0.391 0.732,-0.432 0.671,-0.432C0.643,-0.432 0.62,-0.42 0.602,-0.395C0.583,-0.369 0.574,-0.339 0.574,-0.303L0.574,0L0.417,0L0.417,-0.312C0.417,-0.392 0.387,-0.432 0.327,-0.432C0.298,-0.432 0.274,-0.42 0.256,-0.396C0.238,-0.372 0.229,-0.341 0.229,-0.301L0.229,0L0.072,0L0.072,-0.54L0.229,-0.54L0.229,-0.456L0.231,-0.456C0.25,-0.486 0.275,-0.51 0.307,-0.528C0.338,-0.545 0.371,-0.553 0.405,-0.553C0.481,-0.553 0.533,-0.519 0.561,-0.451C0.603,-0.519 0.663,-0.553 0.743,-0.553C0.86,-0.553 0.919,-0.481 0.919,-0.335L0.919,0Z" style="fill:rgb(10,1,1);fill-rule:nonzero;"/>
                </g>
                <g transform="matrix(9,0,0,9,72.978,347.267)">
                    <path d="M0.551,-0.226L0.196,-0.226C0.201,-0.142 0.252,-0.1 0.347,-0.1C0.407,-0.1 0.459,-0.115 0.505,-0.144L0.505,-0.028C0.456,-0.001 0.391,0.013 0.312,0.013C0.226,0.013 0.159,-0.011 0.111,-0.06C0.063,-0.108 0.04,-0.176 0.04,-0.262C0.04,-0.348 0.065,-0.419 0.116,-0.472C0.167,-0.526 0.23,-0.553 0.307,-0.553C0.384,-0.553 0.443,-0.53 0.487,-0.484C0.53,-0.437 0.551,-0.374 0.551,-0.292L0.551,-0.226ZM0.404,-0.324C0.404,-0.405 0.372,-0.445 0.306,-0.445C0.279,-0.445 0.255,-0.434 0.234,-0.412C0.214,-0.39 0.201,-0.361 0.195,-0.324L0.404,-0.324Z" style="fill:rgb(10,1,1);fill-rule:nonzero;"/>
                </g>
                <g transform="matrix(9,0,0,9,78.3513,347.267)">
                    <rect x="0.069" y="-0.799" width="0.157" height="0.799" style="fill:rgb(10,1,1);fill-rule:nonzero;"/>
                </g>
                <g transform="matrix(9,0,0,9,81.1494,347.267)">
                    <path d="M0.593,0L0.436,0L0.436,-0.076L0.433,-0.076C0.395,-0.017 0.339,0.013 0.264,0.013C0.195,0.013 0.141,-0.011 0.1,-0.06C0.06,-0.108 0.04,-0.174 0.04,-0.258C0.04,-0.346 0.062,-0.418 0.108,-0.472C0.153,-0.526 0.212,-0.553 0.286,-0.553C0.356,-0.553 0.405,-0.528 0.433,-0.477L0.436,-0.477L0.438,-0.707L0.593,-0.658L0.593,0ZM0.438,-0.306C0.438,-0.342 0.427,-0.372 0.405,-0.396C0.383,-0.42 0.356,-0.432 0.323,-0.432C0.284,-0.432 0.254,-0.417 0.232,-0.386C0.21,-0.356 0.199,-0.315 0.199,-0.263C0.199,-0.213 0.21,-0.175 0.231,-0.148C0.252,-0.121 0.281,-0.108 0.318,-0.108C0.353,-0.108 0.382,-0.122 0.404,-0.15C0.427,-0.179 0.438,-0.215 0.438,-0.261L0.438,-0.306Z" style="fill:rgb(10,1,1);fill-rule:nonzero;"/>
                </g>
                <g transform="matrix(9,0,0,9,87.2654,347.267)">
                    <path d="M0.551,-0.226L0.196,-0.226C0.201,-0.142 0.252,-0.1 0.347,-0.1C0.407,-0.1 0.459,-0.115 0.505,-0.144L0.505,-0.028C0.456,-0.001 0.391,0.013 0.312,0.013C0.226,0.013 0.159,-0.011 0.111,-0.06C0.063,-0.108 0.04,-0.176 0.04,-0.262C0.04,-0.348 0.065,-0.419 0.116,-0.472C0.167,-0.526 0.23,-0.553 0.307,-0.553C0.384,-0.553 0.443,-0.53 0.487,-0.484C0.53,-0.437 0.551,-0.374 0.551,-0.292L0.551,-0.226ZM0.404,-0.324C0.404,-0.405 0.372,-0.445 0.306,-0.445C0.279,-0.445 0.255,-0.434 0.234,-0.412C0.214,-0.39 0.201,-0.361 0.195,-0.324L0.404,-0.324Z" style="fill:rgb(10,1,1);fill-rule:nonzero;"/>
                </g>
                <g transform="matrix(9,0,0,9,92.6386,347.267)">
                    <path d="M0.416,-0.397C0.397,-0.408 0.374,-0.414 0.346,-0.414C0.31,-0.414 0.282,-0.4 0.261,-0.373C0.24,-0.345 0.229,-0.308 0.229,-0.26L0.229,0L0.072,0L0.072,-0.54L0.229,-0.54L0.229,-0.438L0.231,-0.438C0.257,-0.512 0.305,-0.549 0.374,-0.549C0.392,-0.549 0.406,-0.547 0.416,-0.543L0.416,-0.397Z" style="fill:rgb(10,1,1);fill-rule:nonzero;"/>
                </g>
            </g>
            <g transform="matrix(1.198,0,0,0.958552,893.495,-231.786)">
                <g transform="matrix(9,0,0,9,68.6657,347.267)">
                    <path d="M0.058,-0.145C0.112,-0.112 0.165,-0.096 0.216,-0.096C0.281,-0.096 0.314,-0.113 0.314,-0.148C0.314,-0.173 0.287,-0.193 0.233,-0.21C0.166,-0.231 0.12,-0.254 0.095,-0.28C0.07,-0.305 0.058,-0.34 0.058,-0.383C0.058,-0.436 0.079,-0.478 0.122,-0.508C0.165,-0.538 0.221,-0.553 0.291,-0.553C0.34,-0.553 0.388,-0.546 0.434,-0.531L0.434,-0.407C0.392,-0.432 0.346,-0.444 0.295,-0.444C0.27,-0.444 0.25,-0.44 0.235,-0.431C0.22,-0.422 0.212,-0.41 0.212,-0.396C0.212,-0.371 0.235,-0.351 0.28,-0.335C0.329,-0.319 0.366,-0.304 0.39,-0.291C0.415,-0.278 0.434,-0.26 0.447,-0.238C0.459,-0.216 0.466,-0.191 0.466,-0.163C0.466,-0.107 0.444,-0.064 0.399,-0.033C0.354,-0.002 0.295,0.013 0.22,0.013C0.162,0.013 0.107,0.004 0.058,-0.015L0.058,-0.145Z" style="fill:rgb(10,1,1);fill-rule:nonzero;"/>
                </g>
                <g transform="matrix(9,0,0,9,73.2436,347.267)">
                    <path d="M0.39,-0.006C0.366,0.007 0.33,0.013 0.282,0.013C0.167,0.013 0.11,-0.047 0.11,-0.167L0.11,-0.422L0.021,-0.422L0.021,-0.54L0.11,-0.54L0.11,-0.659L0.267,-0.704L0.267,-0.54L0.39,-0.54L0.39,-0.422L0.267,-0.422L0.267,-0.195C0.267,-0.137 0.289,-0.108 0.335,-0.108C0.353,-0.108 0.371,-0.114 0.39,-0.124L0.39,-0.006Z" style="fill:rgb(10,1,1);fill-rule:nonzero;"/>
                </g>
                <g transform="matrix(6.6,0,0,6.6,77.1051,347.267)">
                    <path d="M0.106,0.032L0.043,-0.021L0.122,-0.115C0.067,-0.183 0.04,-0.268 0.04,-0.368C0.04,-0.487 0.075,-0.584 0.144,-0.658C0.213,-0.732 0.305,-0.769 0.418,-0.769C0.5,-0.769 0.571,-0.748 0.63,-0.706L0.698,-0.785L0.761,-0.733L0.689,-0.65C0.748,-0.581 0.778,-0.493 0.778,-0.384C0.778,-0.266 0.743,-0.17 0.674,-0.097C0.605,-0.023 0.516,0.013 0.406,0.013C0.32,0.013 0.246,-0.011 0.182,-0.059L0.106,0.032ZM0.54,-0.6C0.506,-0.628 0.463,-0.642 0.413,-0.642C0.349,-0.642 0.297,-0.617 0.258,-0.569C0.218,-0.52 0.199,-0.455 0.199,-0.375C0.199,-0.319 0.208,-0.273 0.227,-0.234L0.54,-0.6ZM0.275,-0.165C0.311,-0.131 0.356,-0.114 0.409,-0.114C0.473,-0.114 0.524,-0.137 0.563,-0.184C0.601,-0.231 0.62,-0.294 0.62,-0.374C0.62,-0.435 0.61,-0.488 0.588,-0.533L0.275,-0.165Z" style="fill-rule:nonzero;"/>
                </g>
                <g transform="matrix(9,0,0,9,82.6053,347.267)">
                    <path d="M0.551,-0.226L0.196,-0.226C0.201,-0.142 0.252,-0.1 0.347,-0.1C0.407,-0.1 0.459,-0.115 0.505,-0.144L0.505,-0.028C0.456,-0.001 0.391,0.013 0.312,0.013C0.226,0.013 0.159,-0.011 0.111,-0.06C0.063,-0.108 0.04,-0.176 0.04,-0.262C0.04,-0.348 0.065,-0.419 0.116,-0.472C0.167,-0.526 0.23,-0.553 0.307,-0.553C0.384,-0.553 0.443,-0.53 0.487,-0.484C0.53,-0.437 0.551,-0.374 0.551,-0.292L0.551,-0.226ZM0.404,-0.324C0.404,-0.405 0.372,-0.445 0.306,-0.445C0.279,-0.445 0.255,-0.434 0.234,-0.412C0.214,-0.39 0.201,-0.361 0.195,-0.324L0.404,-0.324Z" style="fill:rgb(10,1,1);fill-rule:nonzero;"/>
                </g>
                <g transform="matrix(9,0,0,9,87.9786,347.267)">
                    <path d="M0.416,-0.397C0.397,-0.408 0.374,-0.414 0.346,-0.414C0.31,-0.414 0.282,-0.4 0.261,-0.373C0.24,-0.345 0.229,-0.308 0.229,-0.26L0.229,0L0.072,0L0.072,-0.54L0.229,-0.54L0.229,-0.438L0.231,-0.438C0.257,-0.512 0.305,-0.549 0.374,-0.549C0.392,-0.549 0.406,-0.547 0.416,-0.543L0.416,-0.397Z" style="fill:rgb(10,1,1);fill-rule:nonzero;"/>
                </g>
            </g>
        </g>
        <g transform="matrix(1.198,0,0,0.958552,962.713,-236.14)">
            <g transform="matrix(0.440978,0,0,1.48287,132.987,129.589)">
                <path d="M73.138,59.621C73.138,58.132 69.073,56.924 64.067,56.924L14.178,56.924C9.171,56.924 5.107,58.132 5.107,59.621L5.107,81.007C5.107,82.495 9.171,83.704 14.178,83.704L64.067,83.704C69.073,83.704 73.138,82.495 73.138,81.007L73.138,59.621Z" style="fill:white;fill-opacity:0.7;"/>
            </g>
            <g transform="matrix(1,0,0,1,109.166,170.91)">
                <g transform="matrix(6.4,0,0,6.4,33.5917,51.8924)">
                    <path d="M0.543,-0.596L0.385,-0.596L0.385,-0.076C0.385,-0.046 0.378,-0.024 0.365,-0.01C0.351,0.005 0.334,0.012 0.313,0.012C0.292,0.012 0.274,0.005 0.26,-0.01C0.247,-0.024 0.24,-0.047 0.24,-0.076L0.24,-0.596L0.082,-0.596C0.057,-0.596 0.039,-0.602 0.027,-0.613C0.015,-0.623 0.009,-0.638 0.009,-0.656C0.009,-0.674 0.015,-0.689 0.028,-0.7C0.04,-0.71 0.058,-0.716 0.082,-0.716L0.543,-0.716C0.568,-0.716 0.587,-0.71 0.599,-0.699C0.611,-0.688 0.617,-0.674 0.617,-0.656C0.617,-0.638 0.611,-0.623 0.599,-0.613C0.586,-0.602 0.568,-0.596 0.543,-0.596Z" style="fill-rule:nonzero;"/>
                </g>
                <g transform="matrix(6.4,0,0,6.4,37.4637,51.8924)">
                    <path d="M0.273,-0.306L0.222,-0.306L0.222,-0.076C0.222,-0.046 0.215,-0.024 0.202,-0.009C0.189,0.005 0.171,0.012 0.15,0.012C0.127,0.012 0.109,0.005 0.096,-0.01C0.083,-0.025 0.077,-0.047 0.077,-0.076L0.077,-0.627C0.077,-0.658 0.084,-0.681 0.098,-0.695C0.112,-0.709 0.135,-0.716 0.166,-0.716L0.402,-0.716C0.434,-0.716 0.462,-0.714 0.485,-0.712C0.508,-0.709 0.529,-0.703 0.548,-0.695C0.57,-0.685 0.59,-0.672 0.607,-0.654C0.625,-0.637 0.638,-0.616 0.647,-0.593C0.656,-0.57 0.66,-0.545 0.66,-0.519C0.66,-0.466 0.645,-0.423 0.615,-0.391C0.585,-0.359 0.539,-0.337 0.478,-0.323C0.504,-0.31 0.528,-0.289 0.552,-0.263C0.575,-0.236 0.596,-0.208 0.615,-0.177C0.633,-0.147 0.647,-0.12 0.657,-0.096C0.668,-0.072 0.673,-0.055 0.673,-0.046C0.673,-0.036 0.67,-0.027 0.664,-0.018C0.658,-0.009 0.65,-0.001 0.639,0.004C0.629,0.01 0.617,0.012 0.603,0.012C0.587,0.012 0.573,0.008 0.562,0.001C0.551,-0.007 0.541,-0.017 0.533,-0.028C0.525,-0.04 0.515,-0.057 0.501,-0.08L0.443,-0.177C0.422,-0.212 0.403,-0.239 0.387,-0.258C0.371,-0.276 0.354,-0.289 0.337,-0.296C0.32,-0.303 0.299,-0.306 0.273,-0.306ZM0.356,-0.607L0.222,-0.607L0.222,-0.41L0.352,-0.41C0.387,-0.41 0.416,-0.413 0.44,-0.419C0.464,-0.425 0.482,-0.435 0.494,-0.45C0.507,-0.464 0.513,-0.484 0.513,-0.51C0.513,-0.53 0.508,-0.547 0.498,-0.562C0.488,-0.577 0.474,-0.589 0.456,-0.596C0.439,-0.603 0.406,-0.607 0.356,-0.607Z" style="fill-rule:nonzero;"/>
                </g>
                <g transform="matrix(6.4,0,0,6.4,41.9388,51.8924)">
                    <path d="M0.084,-0.076L0.084,-0.64C0.084,-0.669 0.091,-0.691 0.104,-0.706C0.117,-0.721 0.135,-0.728 0.156,-0.728C0.178,-0.728 0.195,-0.721 0.209,-0.706C0.222,-0.692 0.229,-0.67 0.229,-0.64L0.229,-0.076C0.229,-0.047 0.222,-0.024 0.209,-0.01C0.195,0.005 0.178,0.012 0.156,0.012C0.135,0.012 0.118,0.005 0.104,-0.01C0.091,-0.025 0.084,-0.047 0.084,-0.076Z" style="fill-rule:nonzero;"/>
                </g>
                <g transform="matrix(6.4,0,0,6.4,43.8139,51.8924)">
                    <path d="M0.732,-0.291L0.732,-0.154C0.732,-0.136 0.73,-0.121 0.727,-0.11C0.723,-0.099 0.716,-0.089 0.707,-0.081C0.697,-0.072 0.685,-0.063 0.67,-0.055C0.627,-0.032 0.585,-0.015 0.545,-0.004C0.505,0.007 0.461,0.012 0.414,0.012C0.359,0.012 0.309,0.004 0.264,-0.013C0.218,-0.03 0.18,-0.055 0.148,-0.087C0.116,-0.119 0.092,-0.158 0.074,-0.204C0.057,-0.25 0.049,-0.301 0.049,-0.358C0.049,-0.414 0.057,-0.465 0.074,-0.511C0.09,-0.557 0.115,-0.596 0.147,-0.628C0.179,-0.661 0.218,-0.685 0.265,-0.702C0.311,-0.719 0.363,-0.728 0.422,-0.728C0.47,-0.728 0.513,-0.722 0.55,-0.709C0.587,-0.696 0.617,-0.68 0.64,-0.66C0.663,-0.641 0.681,-0.62 0.692,-0.598C0.704,-0.576 0.71,-0.557 0.71,-0.54C0.71,-0.522 0.703,-0.506 0.69,-0.493C0.676,-0.481 0.66,-0.474 0.641,-0.474C0.631,-0.474 0.621,-0.477 0.611,-0.481C0.601,-0.486 0.593,-0.493 0.587,-0.502C0.569,-0.53 0.554,-0.551 0.542,-0.565C0.529,-0.58 0.512,-0.592 0.491,-0.602C0.47,-0.611 0.444,-0.616 0.411,-0.616C0.378,-0.616 0.348,-0.61 0.321,-0.599C0.295,-0.587 0.272,-0.571 0.254,-0.549C0.235,-0.527 0.221,-0.5 0.211,-0.468C0.201,-0.436 0.196,-0.401 0.196,-0.362C0.196,-0.278 0.215,-0.213 0.254,-0.168C0.292,-0.123 0.346,-0.1 0.415,-0.1C0.449,-0.1 0.48,-0.104 0.51,-0.113C0.539,-0.122 0.569,-0.135 0.599,-0.151L0.599,-0.267L0.487,-0.267C0.46,-0.267 0.439,-0.271 0.426,-0.279C0.412,-0.287 0.405,-0.301 0.405,-0.321C0.405,-0.337 0.411,-0.35 0.422,-0.36C0.434,-0.371 0.449,-0.376 0.469,-0.376L0.634,-0.376C0.654,-0.376 0.671,-0.374 0.685,-0.371C0.699,-0.367 0.71,-0.359 0.719,-0.347C0.728,-0.334 0.732,-0.316 0.732,-0.291Z" style="fill-rule:nonzero;"/>
                </g>
            </g>
        </g>
        <g transform="matrix(1.85881,0,0,1.48728,1082.48,-529.233)">
            <ellipse cx="50.846" cy="248.405" rx="1.523" ry="1.495" style="fill:rgb(51,51,51);"/>
        </g>
        <g transform="matrix(1.85881,0,0,1.48728,930.618,-368.421)">
            <ellipse cx="50.846" cy="248.405" rx="1.523" ry="1.495" style="fill:rgb(51,51,51);"/>
        </g>
        <g transform="matrix(1.85881,0,0,1.48728,915.912,-396.666)">
            <ellipse cx="50.846" cy="248.405" rx="1.523" ry="1.495" style="fill:rgb(51,51,51);"/>
        </g>
        <g transform="matrix(1.85881,0,0,1.48728,915.912,-450.442)">
            <ellipse cx="50.846" cy="248.405" rx="1.523" ry="1.495" style="fill:rgb(51,51,51);"/>
        </g>
        <g transform="matrix(1.85881,0,0,1.48728,930.602,-478.815)">
            <ellipse cx="50.846" cy="248.405" rx="1.523" ry="1.495" style="fill:rgb(51,51,51);"/>
        </g>
        <g transform="matrix(1.85881,0,0,1.48728,1117.48,-517.446)">
            <ellipse cx="50.846" cy="248.405" rx="1.523" ry="1.495" style="fill:rgb(51,51,51);"/>
        </g>
        <g transform="matrix(1.85881,0,0,1.48728,979.153,-517.446)">
            <ellipse cx="50.846" cy="248.405" rx="1.523" ry="1.495" style="fill:rgb(51,51,51);"/>
        </g>
        <g transform="matrix(1.85881,0,0,1.48728,1014.6,-529.233)">
            <ellipse cx="50.846" cy="248.405" rx="1.523" ry="1.495" style="fill:rgb(51,51,51);"/>
        </g>
        <g transform="matrix(1.85881,0,0,1.48728,1165.53,-478.815)">
            <ellipse cx="50.846" cy="248.405" rx="1.523" ry="1.495" style="fill:rgb(51,51,51);"/>
        </g>
        <g transform="matrix(1.85881,0,0,1.48728,1180.32,-450.442)">
            <ellipse cx="50.846" cy="248.405" rx="1.523" ry="1.495" style="fill:rgb(51,51,51);"/>
        </g>
        <g transform="matrix(1.85881,0,0,1.48728,1036.29,-423.431)">
            <ellipse cx="50.846" cy="248.405" rx="1.523" ry="1.495" style="fill:rgb(51,51,51);"/>
        </g>
        <g transform="matrix(1.85881,0,0,1.48728,1060.09,-423.431)">
            <ellipse cx="50.846" cy="248.405" rx="1.523" ry="1.495" style="fill:rgb(51,51,51);"/>
        </g>
        <g transform="matrix(1.85881,0,0,1.48728,1091.55,-398.288)">
            <ellipse cx="50.846" cy="248.405" rx="1.523" ry="1.495" style="fill:rgb(51,51,51);"/>
        </g>
        <g transform="matrix(1.85881,0,0,1.48728,1004.87,-398.288)">
            <ellipse cx="50.846" cy="248.405" rx="1.523" ry="1.495" style="fill:rgb(51,51,51);"/>
        </g>
        <g transform="matrix(1.85881,0,0,1.48728,1091.55,-448.479)">
            <ellipse cx="50.846" cy="248.405" rx="1.523" ry="1.495" style="fill:rgb(51,51,51);"/>
        </g>
        <g transform="matrix(1.85881,0,0,1.48728,1004.84,-448.479)">
            <ellipse cx="50.846" cy="248.405" rx="1.523" ry="1.495" style="fill:rgb(51,51,51);"/>
        </g>
        <g transform="matrix(1.85881,0,0,1.48728,1092.59,-491.385)">
            <ellipse cx="50.846" cy="248.405" rx="1.523" ry="1.495" style="fill:rgb(51,51,51);"/>
        </g>
        <g transform="matrix(1.85881,0,0,1.48728,1003.94,-491.385)">
            <ellipse cx="50.846" cy="248.405" rx="1.523" ry="1.495" style="fill:rgb(51,51,51);"/>
        </g>
        <g transform="matrix(1.85881,0,0,1.48728,1132.95,-459.098)">
            <ellipse cx="50.846" cy="248.405" rx="1.523" ry="1.495" style="fill:rgb(51,51,51);"/>
        </g>
        <g transform="matrix(1.85881,0,0,1.48728,963.107,-459.098)">
            <ellipse cx="50.846" cy="248.405" rx="1.523" ry="1.495" style="fill:rgb(51,51,51);"/>
        </g>
        <g transform="matrix(1.85881,0,0,1.48728,1082.48,-317.85)">
            <ellipse cx="50.846" cy="248.405" rx="1.523" ry="1.495" style="fill:rgb(51,51,51);"/>
        </g>
        <g transform="matrix(1.85881,0,0,1.48728,1014.6,-317.85)">
            <ellipse cx="50.846" cy="248.405" rx="1.523" ry="1.495" style="fill:rgb(51,51,51);"/>
        </g>
        <g transform="matrix(1.85881,0,0,1.48728,1117.48,-329.631)">
            <ellipse cx="50.846" cy="248.405" rx="1.523" ry="1.495" style="fill:rgb(51,51,51);"/>
        </g>
        <g transform="matrix(1.85881,0,0,1.48728,979.153,-329.631)">
            <ellipse cx="50.846" cy="248.405" rx="1.523" ry="1.495" style="fill:rgb(51,51,51);"/>
        </g>
        <g transform="matrix(1.85881,0,0,1.48728,1092.59,-355.522)">
            <ellipse cx="50.846" cy="248.405" rx="1.523" ry="1.495" style="fill:rgb(51,51,51);"/>
        </g>
        <g transform="matrix(1.85881,0,0,1.48728,1003.94,-355.522)">
            <ellipse cx="50.846" cy="248.405" rx="1.523" ry="1.495" style="fill:rgb(51,51,51);"/>
        </g>
        <g transform="matrix(1.85881,0,0,1.48728,1180.32,-396.666)">
            <ellipse cx="50.846" cy="248.405" rx="1.523" ry="1.495" style="fill:rgb(51,51,51);"/>
        </g>
        <g transform="matrix(1.85881,0,0,1.48728,1165.53,-368.421)">
            <ellipse cx="50.846" cy="248.405" rx="1.523" ry="1.495" style="fill:rgb(51,51,51);"/>
        </g>
        <g transform="matrix(1.85881,0,0,1.48728,1132.95,-388.118)">
            <ellipse cx="50.846" cy="248.405" rx="1.523" ry="1.495" style="fill:rgb(51,51,51);"/>
        </g>
        <g transform="matrix(1.85881,0,0,1.48728,963.107,-388.118)">
            <ellipse cx="50.846" cy="248.405" rx="1.523" ry="1.495" style="fill:rgb(51,51,51);"/>
        </g>
        <g transform="matrix(1.198,0,0,0.958552,1121.59,-205.304)">
            <g transform="matrix(13,0,0,13,-15.209,0)">
                <path d="M0.498,-0.756L0.498,-0.276L0.604,-0.276L0.604,-0.161L0.498,-0.161L0.498,0L0.354,0L0.354,-0.161L0.016,-0.161L0.016,-0.277C0.086,-0.355 0.152,-0.438 0.213,-0.525C0.274,-0.612 0.32,-0.689 0.352,-0.756L0.498,-0.756ZM0.156,-0.276L0.354,-0.276L0.354,-0.553C0.338,-0.524 0.316,-0.488 0.287,-0.447C0.258,-0.405 0.214,-0.348 0.156,-0.276Z" style="fill-rule:nonzero;"/>
            </g>
            <g transform="matrix(13,0,0,13,-7.1919,0)">
                <path d="M0.711,0L0.526,0L0.407,-0.197C0.383,-0.237 0.363,-0.264 0.347,-0.275C0.332,-0.287 0.315,-0.293 0.297,-0.293L0.249,-0.293L0.249,0L0.087,0L0.087,-0.756L0.353,-0.756C0.533,-0.756 0.623,-0.688 0.623,-0.551C0.623,-0.5 0.608,-0.456 0.577,-0.419C0.547,-0.382 0.506,-0.356 0.453,-0.341L0.453,-0.339C0.488,-0.328 0.527,-0.289 0.569,-0.224L0.711,0ZM0.249,-0.634L0.249,-0.416L0.328,-0.416C0.365,-0.416 0.396,-0.427 0.419,-0.449C0.442,-0.471 0.453,-0.498 0.453,-0.531C0.453,-0.6 0.412,-0.634 0.331,-0.634L0.249,-0.634Z" style="fill-rule:nonzero;"/>
            </g>
            <g transform="matrix(13,0,0,13,1.73926,0)">
                <path d="M0.04,-0.368C0.04,-0.487 0.075,-0.583 0.144,-0.657C0.213,-0.732 0.304,-0.769 0.418,-0.769C0.526,-0.769 0.613,-0.733 0.679,-0.661C0.745,-0.589 0.778,-0.497 0.778,-0.384C0.778,-0.266 0.744,-0.17 0.675,-0.097C0.607,-0.024 0.517,0.013 0.406,0.013C0.297,0.013 0.209,-0.022 0.142,-0.094C0.074,-0.165 0.04,-0.256 0.04,-0.368ZM0.209,-0.377C0.209,-0.303 0.227,-0.243 0.263,-0.197C0.298,-0.15 0.347,-0.126 0.409,-0.126C0.472,-0.126 0.521,-0.149 0.556,-0.194C0.591,-0.238 0.609,-0.299 0.609,-0.374C0.609,-0.453 0.592,-0.515 0.558,-0.561C0.523,-0.607 0.475,-0.629 0.413,-0.629C0.35,-0.629 0.3,-0.606 0.264,-0.559C0.228,-0.512 0.209,-0.451 0.209,-0.377Z" style="fill-rule:nonzero;"/>
            </g>
            <g transform="matrix(13,0,0,13,12.3779,0)">
                <path d="M0.698,-0.325C0.698,-0.1 0.593,0.013 0.383,0.013C0.181,0.013 0.08,-0.097 0.08,-0.316L0.08,-0.756L0.241,-0.756L0.241,-0.315C0.241,-0.189 0.291,-0.126 0.39,-0.126C0.488,-0.126 0.537,-0.187 0.537,-0.309L0.537,-0.756L0.698,-0.756L0.698,-0.325Z" style="fill-rule:nonzero;"/>
            </g>
            <g transform="matrix(13,0,0,13,22.4707,0)">
                <path d="M0.76,0L0.595,0L0.274,-0.489C0.258,-0.515 0.246,-0.535 0.238,-0.551L0.236,-0.551C0.239,-0.525 0.24,-0.485 0.24,-0.43L0.24,0L0.087,0L0.087,-0.756L0.263,-0.756L0.572,-0.281C0.592,-0.249 0.605,-0.229 0.609,-0.221L0.612,-0.221C0.609,-0.239 0.607,-0.274 0.607,-0.325L0.607,-0.756L0.76,-0.756L0.76,0Z" style="fill-rule:nonzero;"/>
            </g>
            <g transform="matrix(13,0,0,13,33.4966,0)">
                <path d="M0.087,0L0.087,-0.756L0.349,-0.756C0.617,-0.756 0.751,-0.633 0.751,-0.388C0.751,-0.271 0.714,-0.177 0.639,-0.106C0.563,-0.035 0.466,0 0.348,0L0.087,0ZM0.249,-0.625L0.249,-0.132L0.336,-0.132C0.413,-0.132 0.473,-0.155 0.517,-0.2C0.56,-0.246 0.582,-0.307 0.582,-0.385C0.582,-0.46 0.559,-0.519 0.514,-0.561C0.468,-0.603 0.409,-0.625 0.336,-0.625L0.249,-0.625Z" style="fill-rule:nonzero;"/>
            </g>
            <g transform="matrix(13,0,0,13,43.7861,0)">
                <path d="M0.053,-0.19C0.114,-0.14 0.183,-0.115 0.26,-0.115C0.304,-0.115 0.337,-0.122 0.359,-0.137C0.382,-0.153 0.393,-0.172 0.393,-0.196C0.393,-0.216 0.384,-0.236 0.366,-0.254C0.349,-0.272 0.302,-0.297 0.227,-0.328C0.109,-0.378 0.05,-0.451 0.05,-0.547C0.05,-0.617 0.077,-0.672 0.13,-0.711C0.184,-0.75 0.255,-0.769 0.343,-0.769C0.417,-0.769 0.479,-0.759 0.529,-0.74L0.529,-0.589C0.478,-0.623 0.419,-0.641 0.351,-0.641C0.311,-0.641 0.279,-0.633 0.255,-0.619C0.232,-0.604 0.22,-0.585 0.22,-0.561C0.22,-0.541 0.228,-0.523 0.244,-0.507C0.26,-0.49 0.301,-0.468 0.365,-0.44C0.44,-0.408 0.492,-0.374 0.52,-0.338C0.548,-0.302 0.562,-0.259 0.562,-0.21C0.562,-0.137 0.536,-0.082 0.485,-0.044C0.433,-0.006 0.36,0.013 0.266,0.013C0.179,0.013 0.108,-0.001 0.053,-0.029L0.053,-0.19Z" style="fill-rule:nonzero;"/>
            </g>
        </g>
    </g>
</svg>
