<?xml version="1.0" encoding="UTF-8" standalone="no"?>
<!DOCTYPE svg PUBLIC "-//W3C//DTD SVG 1.1//EN" "http://www.w3.org/Graphics/SVG/1.1/DTD/svg11.dtd">
<svg width="100%" height="100%" viewBox="0 0 330 380" version="1.1" xmlns="http://www.w3.org/2000/svg" xmlns:xlink="http://www.w3.org/1999/xlink" xml:space="preserve" xmlns:serif="http://www.serif.com/" style="fill-rule:evenodd;clip-rule:evenodd;stroke-linecap:round;stroke-linejoin:round;stroke-miterlimit:1.5;">
    <g id="panel" transform="matrix(0.834722,0,0,1.04324,-728.837,250.623)">
        <g transform="matrix(6.58902,0,0,0.958552,873.15,-240.235)">
            <rect x="0" y="0" width="60" height="380" style="fill:rgb(128,187,254);"/>
        </g>
        <g transform="matrix(2.33789,0,0,1.81823,943.365,-538.329)">
            <rect x="-30.034" y="347.456" width="169.102" height="16.91" style="fill:rgb(4,4,4);fill-opacity:0.3;"/>
        </g>
        <g transform="matrix(2.33789,0,0,1.76292,943.365,-852.772)">
            <rect x="-30.034" y="347.456" width="169.102" height="16.91" style="fill:rgb(4,4,4);fill-opacity:0.3;"/>
        </g>
        <g transform="matrix(17.6516,0,0,25.5659,213.197,-292.473)">
            <rect x="37.388" y="2.043" width="22.397" height="14.247" style="fill:none;stroke:black;stroke-opacity:0.6;stroke-width:0.03px;"/>
        </g>
        <g transform="matrix(1.198,0,0,0.958552,1034.26,-213.396)">
            <g transform="matrix(13,0,0,13,16.3071,0)">
                <path d="M0.485,0L0.485,-0.322L0.2,-0.322L0.2,0L0.073,0L0.073,-0.715L0.2,-0.715L0.2,-0.435L0.485,-0.435L0.485,-0.715L0.61,-0.715L0.61,0L0.485,0Z" style="fill-rule:nonzero;"/>
            </g>
            <g transform="matrix(13,0,0,13,25.1939,0)">
                <rect x="0.076" y="-0.715" width="0.127" height="0.715" style="fill-rule:nonzero;"/>
            </g>
            <g transform="matrix(13,0,0,13,28.812,0)">
                <path d="M0.34,0.01L0.27,0.01L0.002,-0.715L0.142,-0.715L0.308,-0.232L0.482,-0.715L0.619,-0.715L0.34,0.01Z" style="fill-rule:nonzero;"/>
            </g>
            <g transform="matrix(13,0,0,13,36.8926,0)">
                <path d="M0.2,-0.603L0.2,-0.435L0.437,-0.435L0.437,-0.327L0.2,-0.327L0.2,-0.113L0.524,-0.113L0.524,0L0.073,0L0.073,-0.715L0.53,-0.715L0.53,-0.603L0.2,-0.603Z" style="fill-rule:nonzero;"/>
            </g>
        </g>
        <g transform="matrix(0.840359,0,0,0.840359,238.786,16.2108)">
            <g transform="matrix(1.198,0,0,0.958552,893.633,-224.914)">
                <g transform="matrix(9,0,0,9,64.0056,347.267)">
                    <path d="M0.919,0L0.762,0L0.762,-0.308C0.762,-0.391 0.732,-0.432 0.671,-0.432C0.643,-0.432 0.62,-0.42 0.602,-0.395C0.583,-0.369 0.574,-0.339 0.574,-0.303L0.574,0L0.417,0L0.417,-0.312C0.417,-0.392 0.387,-0.432 0.327,-0.432C0.298,-0.432 0.274,-0.42 0.256,-0.396C0.238,-0.372 0.229,-0.341 0.229,-0.301L0.229,0L0.072,0L0.072,-0.54L0.229,-0.54L0.229,-0.456L0.231,-0.456C0.25,-0.486 0.275,-0.51 0.307,-0.528C0.338,-0.545 0.371,-0.553 0.405,-0.553C0.481,-0.553 0.533,-0.519 0.561,-0.451C0.603,-0.519 0.663,-0.553 0.743,-0.553C0.86,-0.553 0.919,-0.481 0.919,-0.335L0.919,0Z" style="fill:rgb(10,1,1);fill-rule:nonzero;"/>
                </g>
                <g transform="matrix(9,0,0,9,72.978,347.267)">
                    <path d="M0.551,-0.226L0.196,-0.226C0.201,-0.142 0.252,-0.1 0.347,-0.1C0.407,-0.1 0.459,-0.115 0.505,-0.144L0.505,-0.028C0.456,-0.001 0.391,0.013 0.312,0.013C0.226,0.013 0.159,-0.011 0.111,-0.06C0.063,-0.108 0.04,-0.176 0.04,-0.262C0.04,-0.348 0.065,-0.419 0.116,-0.472C0.167,-0.526 0.23,-0.553 0.307,-0.553C0.384,-0.553 0.443,-0.53 0.487,-0.484C0.53,-0.437 0.551,-0.374 0.551,-0.292L0.551,-0.226ZM0.404,-0.324C0.404,-0.405 0.372,-0.445 0.306,-0.445C0.279,-0.445 0.255,-0.434 0.234,-0.412C0.214,-0.39 0.201,-0.361 0.195,-0.324L0.404,-0.324Z" style="fill:rgb(10,1,1);fill-rule:nonzero;"/>
                </g>
                <g transform="matrix(9,0,0,9,78.3513,347.267)">
                    <rect x="0.069" y="-0.799" width="0.157" height="0.799" style="fill:rgb(10,1,1);fill-rule:nonzero;"/>
                </g>
                <g transform="matrix(9,0,0,9,81.1494,347.267)">
                    <path d="M0.593,0L0.436,0L0.436,-0.076L0.433,-0.076C0.395,-0.017 0.339,0.013 0.264,0.013C0.195,0.013 0.141,-0.011 0.1,-0.06C0.06,-0.108 0.04,-0.174 0.04,-0.258C0.04,-0.346 0.062,-0.418 0.108,-0.472C0.153,-0.526 0.212,-0.553 0.286,-0.553C0.356,-0.553 0.405,-0.528 0.433,-0.477L0.436,-0.477L0.438,-0.707L0.593,-0.658L0.593,0ZM0.438,-0.306C0.438,-0.342 0.427,-0.372 0.405,-0.396C0.383,-0.42 0.356,-0.432 0.323,-0.432C0.284,-0.432 0.254,-0.417 0.232,-0.386C0.21,-0.356 0.199,-0.315 0.199,-0.263C0.199,-0.213 0.21,-0.175 0.231,-0.148C0.252,-0.121 0.281,-0.108 0.318,-0.108C0.353,-0.108 0.382,-0.122 0.404,-0.15C0.427,-0.179 0.438,-0.215 0.438,-0.261L0.438,-0.306Z" style="fill:rgb(10,1,1);fill-rule:nonzero;"/>
                </g>
                <g transform="matrix(9,0,0,9,87.2654,347.267)">
                    <path d="M0.551,-0.226L0.196,-0.226C0.201,-0.142 0.252,-0.1 0.347,-0.1C0.407,-0.1 0.459,-0.115 0.505,-0.144L0.505,-0.028C0.456,-0.001 0.391,0.013 0.312,0.013C0.226,0.013 0.159,-0.011 0.111,-0.06C0.063,-0.108 0.04,-0.176 0.04,-0.262C0.04,-0.348 0.065,-0.419 0.116,-0.472C0.167,-0.526 0.23,-0.553 0.307,-0.553C0.384,-0.553 0.443,-0.53 0.487,-0.484C0.53,-0.437 0.551,-0.374 0.551,-0.292L0.551,-0.226ZM0.404,-0.324C0.404,-0.405 0.372,-0.445 0.306,-0.445C0.279,-0.445 0.255,-0.434 0.234,-0.412C0.214,-0.39 0.201,-0.361 0.195,-0.324L0.404,-0.324Z" style="fill:rgb(10,1,1);fill-rule:nonzero;"/>
                </g>
                <g transform="matrix(9,0,0,9,92.6386,347.267)">
                    <path d="M0.416,-0.397C0.397,-0.408 0.374,-0.414 0.346,-0.414C0.31,-0.414 0.282,-0.4 0.261,-0.373C0.24,-0.345 0.229,-0.308 0.229,-0.26L0.229,0L0.072,0L0.072,-0.54L0.229,-0.54L0.229,-0.438L0.231,-0.438C0.257,-0.512 0.305,-0.549 0.374,-0.549C0.392,-0.549 0.406,-0.547 0.416,-0.543L0.416,-0.397Z" style="fill:rgb(10,1,1);fill-rule:nonzero;"/>
                </g>
            </g>
            <g transform="matrix(1.198,0,0,0.958552,893.495,-231.786)">
                <g transform="matrix(9,0,0,9,68.6657,347.267)">
                    <path d="M0.058,-0.145C0.112,-0.112 0.165,-0.096 0.216,-0.096C0.281,-0.096 0.314,-0.113 0.314,-0.148C0.314,-0.173 0.287,-0.193 0.233,-0.21C0.166,-0.231 0.12,-0.254 0.095,-0.28C0.07,-0.305 0.058,-0.34 0.058,-0.383C0.058,-0.436 0.079,-0.478 0.122,-0.508C0.165,-0.538 0.221,-0.553 0.291,-0.553C0.34,-0.553 0.388,-0.546 0.434,-0.531L0.434,-0.407C0.392,-0.432 0.346,-0.444 0.295,-0.444C0.27,-0.444 0.25,-0.44 0.235,-0.431C0.22,-0.422 0.212,-0.41 0.212,-0.396C0.212,-0.371 0.235,-0.351 0.28,-0.335C0.329,-0.319 0.366,-0.304 0.39,-0.291C0.415,-0.278 0.434,-0.26 0.447,-0.238C0.459,-0.216 0.466,-0.191 0.466,-0.163C0.466,-0.107 0.444,-0.064 0.399,-0.033C0.354,-0.002 0.295,0.013 0.22,0.013C0.162,0.013 0.107,0.004 0.058,-0.015L0.058,-0.145Z" style="fill:rgb(10,1,1);fill-rule:nonzero;"/>
                </g>
                <g transform="matrix(9,0,0,9,73.2436,347.267)">
                    <path d="M0.39,-0.006C0.366,0.007 0.33,0.013 0.282,0.013C0.167,0.013 0.11,-0.047 0.11,-0.167L0.11,-0.422L0.021,-0.422L0.021,-0.54L0.11,-0.54L0.11,-0.659L0.267,-0.704L0.267,-0.54L0.39,-0.54L0.39,-0.422L0.267,-0.422L0.267,-0.195C0.267,-0.137 0.289,-0.108 0.335,-0.108C0.353,-0.108 0.371,-0.114 0.39,-0.124L0.39,-0.006Z" style="fill:rgb(10,1,1);fill-rule:nonzero;"/>
                </g>
                <g transform="matrix(6.6,0,0,6.6,77.1051,347.267)">
                    <path d="M0.106,0.032L0.043,-0.021L0.122,-0.115C0.067,-0.183 0.04,-0.268 0.04,-0.368C0.04,-0.487 0.075,-0.584 0.144,-0.658C0.213,-0.732 0.305,-0.769 0.418,-0.769C0.5,-0.769 0.571,-0.748 0.63,-0.706L0.698,-0.785L0.761,-0.733L0.689,-0.65C0.748,-0.581 0.778,-0.493 0.778,-0.384C0.778,-0.266 0.743,-0.17 0.674,-0.097C0.605,-0.023 0.516,0.013 0.406,0.013C0.32,0.013 0.246,-0.011 0.182,-0.059L0.106,0.032ZM0.54,-0.6C0.506,-0.628 0.463,-0.642 0.413,-0.642C0.349,-0.642 0.297,-0.617 0.258,-0.569C0.218,-0.52 0.199,-0.455 0.199,-0.375C0.199,-0.319 0.208,-0.273 0.227,-0.234L0.54,-0.6ZM0.275,-0.165C0.311,-0.131 0.356,-0.114 0.409,-0.114C0.473,-0.114 0.524,-0.137 0.563,-0.184C0.601,-0.231 0.62,-0.294 0.62,-0.374C0.62,-0.435 0.61,-0.488 0.588,-0.533L0.275,-0.165Z" style="fill-rule:nonzero;"/>
                </g>
                <g transform="matrix(9,0,0,9,82.6053,347.267)">
                    <path d="M0.551,-0.226L0.196,-0.226C0.201,-0.142 0.252,-0.1 0.347,-0.1C0.407,-0.1 0.459,-0.115 0.505,-0.144L0.505,-0.028C0.456,-0.001 0.391,0.013 0.312,0.013C0.226,0.013 0.159,-0.011 0.111,-0.06C0.063,-0.108 0.04,-0.176 0.04,-0.262C0.04,-0.348 0.065,-0.419 0.116,-0.472C0.167,-0.526 0.23,-0.553 0.307,-0.553C0.384,-0.553 0.443,-0.53 0.487,-0.484C0.53,-0.437 0.551,-0.374 0.551,-0.292L0.551,-0.226ZM0.404,-0.324C0.404,-0.405 0.372,-0.445 0.306,-0.445C0.279,-0.445 0.255,-0.434 0.234,-0.412C0.214,-0.39 0.201,-0.361 0.195,-0.324L0.404,-0.324Z" style="fill:rgb(10,1,1);fill-rule:nonzero;"/>
                </g>
                <g transform="matrix(9,0,0,9,87.9786,347.267)">
                    <path d="M0.416,-0.397C0.397,-0.408 0.374,-0.414 0.346,-0.414C0.31,-0.414 0.282,-0.4 0.261,-0.373C0.24,-0.345 0.229,-0.308 0.229,-0.26L0.229,0L0.072,0L0.072,-0.54L0.229,-0.54L0.229,-0.438L0.231,-0.438C0.257,-0.512 0.305,-0.549 0.374,-0.549C0.392,-0.549 0.406,-0.547 0.416,-0.543L0.416,-0.397Z" style="fill:rgb(10,1,1);fill-rule:nonzero;"/>
                </g>
            </g>
        </g>
        <g transform="matrix(1.03017,0,0,2.36284,1182.78,-109.433)">
            <path d="M73.138,58.546C73.138,57.651 71.053,56.924 68.486,56.924L5.107,56.924L5.107,83.704L68.486,83.704C71.053,83.704 73.138,82.977 73.138,82.081L73.138,58.546Z" style="fill-opacity:0.8;"/>
        </g>
        <g transform="matrix(1.02954,0,0,2.36284,878.331,-109.433)">
            <path d="M73.138,56.924L9.761,56.924C7.193,56.924 5.107,57.651 5.107,58.546L5.107,82.081C5.107,82.977 7.193,83.704 9.761,83.704L73.138,83.704L73.138,56.924Z" style="fill-opacity:0.8;"/>
        </g>
        <g transform="matrix(1.08476,0,0,2.36284,1068.21,-109.433)">
            <path d="M73.138,56.924L9.524,56.924C7.086,56.924 5.107,57.651 5.107,58.546L5.107,82.081C5.107,82.977 7.086,83.704 9.524,83.704L73.138,83.704L73.138,56.924Z" style="fill:white;fill-opacity:0.8;"/>
        </g>
        <g transform="matrix(1.08536,0,0,2.36284,988.581,-109.433)">
            <path d="M73.138,58.546C73.138,57.651 71.159,56.924 68.722,56.924L5.107,56.924L5.107,83.704L68.722,83.704C71.159,83.704 73.138,82.977 73.138,82.081L73.138,58.546Z" style="fill:white;fill-opacity:0.8;"/>
        </g>
        <g transform="matrix(0.59521,0,0,2.36284,1144.55,-109.433)">
            <rect x="5.107" y="56.924" width="68.031" height="26.78" style="fill:white;fill-opacity:0.5;"/>
        </g>
        <g transform="matrix(0.594623,0,0,2.36284,950.635,-109.433)">
            <rect x="5.107" y="56.924" width="68.031" height="26.78" style="fill:white;fill-opacity:0.5;"/>
        </g>
        <g transform="matrix(0.531684,0,0,1.40341,1219.23,-97.7251)">
            <path d="M73.138,59.656C73.138,58.148 69.099,56.924 64.125,56.924L14.12,56.924C9.145,56.924 5.107,58.148 5.107,59.656L5.107,80.972C5.107,82.48 9.145,83.704 14.12,83.704L64.125,83.704C69.099,83.704 73.138,82.48 73.138,80.972L73.138,59.656Z" style="fill:white;fill-opacity:0.8;"/>
        </g>
        <g transform="matrix(1.198,0,0,0.958552,1076.07,9.33878)">
            <g transform="matrix(6.4,0,0,6.4,35.2054,51.8924)">
                <path d="M0.563,-0.677L0.511,-0.572C0.483,-0.601 0.437,-0.615 0.375,-0.615C0.315,-0.615 0.266,-0.59 0.228,-0.54C0.19,-0.49 0.171,-0.427 0.171,-0.35C0.171,-0.274 0.189,-0.213 0.224,-0.168C0.259,-0.123 0.306,-0.101 0.365,-0.101C0.433,-0.101 0.485,-0.125 0.523,-0.173L0.583,-0.07C0.531,-0.015 0.455,0.012 0.355,0.012C0.255,0.012 0.177,-0.021 0.122,-0.086C0.067,-0.152 0.039,-0.242 0.039,-0.355C0.039,-0.461 0.07,-0.55 0.131,-0.621C0.192,-0.692 0.271,-0.728 0.367,-0.728C0.449,-0.728 0.514,-0.711 0.563,-0.677Z" style="fill-rule:nonzero;"/>
            </g>
            <g transform="matrix(6.4,0,0,6.4,39.2491,51.8924)">
                <path d="M0.073,0L0.073,-0.715L0.2,-0.715L0.2,-0.113L0.523,-0.113L0.523,0L0.073,0Z" style="fill-rule:nonzero;"/>
            </g>
            <g transform="matrix(6.4,0,0,6.4,42.9146,51.8924)">
                <path d="M0.479,0L0.28,-0.305L0.2,-0.196L0.2,0L0.073,0L0.073,-0.715L0.2,-0.715L0.2,-0.373L0.443,-0.715L0.588,-0.715L0.364,-0.403L0.631,0L0.479,0Z" style="fill-rule:nonzero;"/>
            </g>
        </g>
        <g transform="matrix(1.198,0,0,0.958552,966.879,9.33878)">
            <g transform="matrix(6.4,0,0,6.4,35.2054,51.8924)">
                <path d="M0.563,-0.677L0.511,-0.572C0.483,-0.601 0.437,-0.615 0.375,-0.615C0.315,-0.615 0.266,-0.59 0.228,-0.54C0.19,-0.49 0.171,-0.427 0.171,-0.35C0.171,-0.274 0.189,-0.213 0.224,-0.168C0.259,-0.123 0.306,-0.101 0.365,-0.101C0.433,-0.101 0.485,-0.125 0.523,-0.173L0.583,-0.07C0.531,-0.015 0.455,0.012 0.355,0.012C0.255,0.012 0.177,-0.021 0.122,-0.086C0.067,-0.152 0.039,-0.242 0.039,-0.355C0.039,-0.461 0.07,-0.55 0.131,-0.621C0.192,-0.692 0.271,-0.728 0.367,-0.728C0.449,-0.728 0.514,-0.711 0.563,-0.677Z" style="fill-rule:nonzero;"/>
            </g>
            <g transform="matrix(6.4,0,0,6.4,39.2491,51.8924)">
                <path d="M0.073,0L0.073,-0.715L0.2,-0.715L0.2,-0.113L0.523,-0.113L0.523,0L0.073,0Z" style="fill-rule:nonzero;"/>
            </g>
            <g transform="matrix(6.4,0,0,6.4,42.9146,51.8924)">
                <path d="M0.479,0L0.28,-0.305L0.2,-0.196L0.2,0L0.073,0L0.073,-0.715L0.2,-0.715L0.2,-0.373L0.443,-0.715L0.588,-0.715L0.364,-0.403L0.631,0L0.479,0Z" style="fill-rule:nonzero;"/>
            </g>
        </g>
        <g transform="matrix(1.198,0,0,0.958552,1120.12,9.33878)">
            <g transform="matrix(6.4,0,0,6.4,32.828,51.8924)">
                <path d="M0.364,-0.603L0.364,0L0.237,0L0.237,-0.603L0.01,-0.603L0.01,-0.715L0.602,-0.715L0.602,-0.603L0.364,-0.603Z" style="fill-rule:nonzero;"/>
            </g>
            <g transform="matrix(6.4,0,0,6.4,36.8716,51.8924)">
                <path d="M0.073,-0.715L0.2,-0.715L0.2,-0.23C0.2,-0.192 0.212,-0.161 0.235,-0.137C0.259,-0.113 0.291,-0.101 0.332,-0.101C0.378,-0.101 0.414,-0.112 0.439,-0.136C0.465,-0.16 0.478,-0.192 0.478,-0.233L0.478,-0.715L0.604,-0.715L0.604,-0.223C0.604,-0.15 0.58,-0.092 0.531,-0.05C0.481,-0.009 0.415,0.012 0.333,0.012C0.25,0.012 0.186,-0.008 0.141,-0.049C0.096,-0.09 0.073,-0.148 0.073,-0.224L0.073,-0.715Z" style="fill-rule:nonzero;"/>
            </g>
            <g transform="matrix(6.4,0,0,6.4,41.3371,51.8924)">
                <path d="M0.477,0L0.286,-0.295C0.266,-0.296 0.24,-0.297 0.205,-0.299L0.205,0L0.073,0L0.073,-0.715C0.08,-0.715 0.108,-0.717 0.156,-0.719C0.204,-0.721 0.242,-0.723 0.271,-0.723C0.453,-0.723 0.544,-0.652 0.544,-0.512C0.544,-0.469 0.531,-0.431 0.506,-0.396C0.481,-0.361 0.45,-0.337 0.412,-0.322L0.623,0L0.477,0ZM0.205,-0.605L0.205,-0.406C0.229,-0.404 0.246,-0.403 0.259,-0.403C0.312,-0.403 0.351,-0.411 0.375,-0.426C0.4,-0.441 0.412,-0.47 0.412,-0.513C0.412,-0.548 0.399,-0.573 0.373,-0.587C0.346,-0.601 0.305,-0.608 0.248,-0.608C0.234,-0.608 0.22,-0.607 0.205,-0.605Z" style="fill-rule:nonzero;"/>
            </g>
            <g transform="matrix(6.4,0,0,6.4,45.3745,51.8924)">
                <path d="M0.542,0.01L0.195,-0.443L0.195,0L0.073,0L0.073,-0.715L0.134,-0.715L0.472,-0.284L0.472,-0.715L0.594,-0.715L0.594,0.01L0.542,0.01Z" style="fill-rule:nonzero;"/>
            </g>
        </g>
        <g transform="matrix(1.198,0,0,0.958552,923.21,9.33878)">
            <g transform="matrix(6.4,0,0,6.4,32.828,51.8924)">
                <path d="M0.364,-0.603L0.364,0L0.237,0L0.237,-0.603L0.01,-0.603L0.01,-0.715L0.602,-0.715L0.602,-0.603L0.364,-0.603Z" style="fill-rule:nonzero;"/>
            </g>
            <g transform="matrix(6.4,0,0,6.4,36.8716,51.8924)">
                <path d="M0.073,-0.715L0.2,-0.715L0.2,-0.23C0.2,-0.192 0.212,-0.161 0.235,-0.137C0.259,-0.113 0.291,-0.101 0.332,-0.101C0.378,-0.101 0.414,-0.112 0.439,-0.136C0.465,-0.16 0.478,-0.192 0.478,-0.233L0.478,-0.715L0.604,-0.715L0.604,-0.223C0.604,-0.15 0.58,-0.092 0.531,-0.05C0.481,-0.009 0.415,0.012 0.333,0.012C0.25,0.012 0.186,-0.008 0.141,-0.049C0.096,-0.09 0.073,-0.148 0.073,-0.224L0.073,-0.715Z" style="fill-rule:nonzero;"/>
            </g>
            <g transform="matrix(6.4,0,0,6.4,41.3371,51.8924)">
                <path d="M0.477,0L0.286,-0.295C0.266,-0.296 0.24,-0.297 0.205,-0.299L0.205,0L0.073,0L0.073,-0.715C0.08,-0.715 0.108,-0.717 0.156,-0.719C0.204,-0.721 0.242,-0.723 0.271,-0.723C0.453,-0.723 0.544,-0.652 0.544,-0.512C0.544,-0.469 0.531,-0.431 0.506,-0.396C0.481,-0.361 0.45,-0.337 0.412,-0.322L0.623,0L0.477,0ZM0.205,-0.605L0.205,-0.406C0.229,-0.404 0.246,-0.403 0.259,-0.403C0.312,-0.403 0.351,-0.411 0.375,-0.426C0.4,-0.441 0.412,-0.47 0.412,-0.513C0.412,-0.548 0.399,-0.573 0.373,-0.587C0.346,-0.601 0.305,-0.608 0.248,-0.608C0.234,-0.608 0.22,-0.607 0.205,-0.605Z" style="fill-rule:nonzero;"/>
            </g>
            <g transform="matrix(6.4,0,0,6.4,45.3745,51.8924)">
                <path d="M0.542,0.01L0.195,-0.443L0.195,0L0.073,0L0.073,-0.715L0.134,-0.715L0.472,-0.284L0.472,-0.715L0.594,-0.715L0.594,0.01L0.542,0.01Z" style="fill-rule:nonzero;"/>
            </g>
        </g>
        <g transform="matrix(1.198,0,0,0.958552,1157.14,9.33878)">
            <g transform="matrix(6.4,0,0,6.4,34.0936,51.8924)">
                <path d="M0.364,-0.603L0.364,0L0.237,0L0.237,-0.603L0.01,-0.603L0.01,-0.715L0.602,-0.715L0.602,-0.603L0.364,-0.603Z" style="fill:white;fill-rule:nonzero;"/>
            </g>
            <g transform="matrix(6.4,0,0,6.4,38.1372,51.8924)">
                <path d="M0.477,0L0.286,-0.295C0.266,-0.296 0.24,-0.297 0.205,-0.299L0.205,0L0.073,0L0.073,-0.715C0.08,-0.715 0.108,-0.717 0.156,-0.719C0.204,-0.721 0.242,-0.723 0.271,-0.723C0.453,-0.723 0.544,-0.652 0.544,-0.512C0.544,-0.469 0.531,-0.431 0.506,-0.396C0.481,-0.361 0.45,-0.337 0.412,-0.322L0.623,0L0.477,0ZM0.205,-0.605L0.205,-0.406C0.229,-0.404 0.246,-0.403 0.259,-0.403C0.312,-0.403 0.351,-0.411 0.375,-0.426C0.4,-0.441 0.412,-0.47 0.412,-0.513C0.412,-0.548 0.399,-0.573 0.373,-0.587C0.346,-0.601 0.305,-0.608 0.248,-0.608C0.234,-0.608 0.22,-0.607 0.205,-0.605Z" style="fill:white;fill-rule:nonzero;"/>
            </g>
            <g transform="matrix(6.4,0,0,6.4,42.1746,51.8924)">
                <rect x="0.076" y="-0.715" width="0.127" height="0.715" style="fill:white;fill-rule:nonzero;"/>
            </g>
            <g transform="matrix(6.4,0,0,6.4,44.0839,51.8924)">
                <path d="M0.602,-0.657L0.548,-0.555C0.533,-0.569 0.51,-0.582 0.479,-0.595C0.448,-0.608 0.421,-0.615 0.398,-0.615C0.328,-0.615 0.273,-0.591 0.232,-0.543C0.191,-0.496 0.171,-0.432 0.171,-0.352C0.171,-0.275 0.191,-0.215 0.231,-0.169C0.271,-0.123 0.325,-0.101 0.394,-0.101C0.439,-0.101 0.476,-0.113 0.505,-0.138L0.505,-0.278L0.406,-0.278L0.406,-0.387L0.632,-0.387L0.632,-0.066C0.602,-0.042 0.563,-0.022 0.515,-0.009C0.468,0.005 0.42,0.012 0.373,0.012C0.271,0.012 0.189,-0.021 0.129,-0.089C0.069,-0.156 0.039,-0.245 0.039,-0.355C0.039,-0.465 0.072,-0.555 0.137,-0.624C0.203,-0.693 0.291,-0.728 0.401,-0.728C0.48,-0.728 0.547,-0.704 0.602,-0.657Z" style="fill:white;fill-rule:nonzero;"/>
            </g>
        </g>
        <g transform="matrix(1.198,0,0,0.958552,885.982,9.33878)">
            <g transform="matrix(6.4,0,0,6.4,34.0936,51.8924)">
                <path d="M0.364,-0.603L0.364,0L0.237,0L0.237,-0.603L0.01,-0.603L0.01,-0.715L0.602,-0.715L0.602,-0.603L0.364,-0.603Z" style="fill:white;fill-rule:nonzero;"/>
            </g>
            <g transform="matrix(6.4,0,0,6.4,38.1372,51.8924)">
                <path d="M0.477,0L0.286,-0.295C0.266,-0.296 0.24,-0.297 0.205,-0.299L0.205,0L0.073,0L0.073,-0.715C0.08,-0.715 0.108,-0.717 0.156,-0.719C0.204,-0.721 0.242,-0.723 0.271,-0.723C0.453,-0.723 0.544,-0.652 0.544,-0.512C0.544,-0.469 0.531,-0.431 0.506,-0.396C0.481,-0.361 0.45,-0.337 0.412,-0.322L0.623,0L0.477,0ZM0.205,-0.605L0.205,-0.406C0.229,-0.404 0.246,-0.403 0.259,-0.403C0.312,-0.403 0.351,-0.411 0.375,-0.426C0.4,-0.441 0.412,-0.47 0.412,-0.513C0.412,-0.548 0.399,-0.573 0.373,-0.587C0.346,-0.601 0.305,-0.608 0.248,-0.608C0.234,-0.608 0.22,-0.607 0.205,-0.605Z" style="fill:white;fill-rule:nonzero;"/>
            </g>
            <g transform="matrix(6.4,0,0,6.4,42.1746,51.8924)">
                <rect x="0.076" y="-0.715" width="0.127" height="0.715" style="fill:white;fill-rule:nonzero;"/>
            </g>
            <g transform="matrix(6.4,0,0,6.4,44.0839,51.8924)">
                <path d="M0.602,-0.657L0.548,-0.555C0.533,-0.569 0.51,-0.582 0.479,-0.595C0.448,-0.608 0.421,-0.615 0.398,-0.615C0.328,-0.615 0.273,-0.591 0.232,-0.543C0.191,-0.496 0.171,-0.432 0.171,-0.352C0.171,-0.275 0.191,-0.215 0.231,-0.169C0.271,-0.123 0.325,-0.101 0.394,-0.101C0.439,-0.101 0.476,-0.113 0.505,-0.138L0.505,-0.278L0.406,-0.278L0.406,-0.387L0.632,-0.387L0.632,-0.066C0.602,-0.042 0.563,-0.022 0.515,-0.009C0.468,0.005 0.42,0.012 0.373,0.012C0.271,0.012 0.189,-0.021 0.129,-0.089C0.069,-0.156 0.039,-0.245 0.039,-0.355C0.039,-0.465 0.072,-0.555 0.137,-0.624C0.203,-0.693 0.291,-0.728 0.401,-0.728C0.48,-0.728 0.547,-0.704 0.602,-0.657Z" style="fill:white;fill-rule:nonzero;"/>
            </g>
        </g>
        <g transform="matrix(1.198,0,0,0.958552,1190.49,9.33878)">
            <g transform="matrix(6.4,0,0,6.4,37.2263,51.8924)">
                <path d="M0.563,-0.677L0.511,-0.572C0.483,-0.601 0.437,-0.615 0.375,-0.615C0.315,-0.615 0.266,-0.59 0.228,-0.54C0.19,-0.49 0.171,-0.427 0.171,-0.35C0.171,-0.274 0.189,-0.213 0.224,-0.168C0.259,-0.123 0.306,-0.101 0.365,-0.101C0.433,-0.101 0.485,-0.125 0.523,-0.173L0.583,-0.07C0.531,-0.015 0.455,0.012 0.355,0.012C0.255,0.012 0.177,-0.021 0.122,-0.086C0.067,-0.152 0.039,-0.242 0.039,-0.355C0.039,-0.461 0.07,-0.55 0.131,-0.621C0.192,-0.692 0.271,-0.728 0.367,-0.728C0.449,-0.728 0.514,-0.711 0.563,-0.677Z" style="fill:white;fill-rule:nonzero;"/>
            </g>
            <g transform="matrix(6.4,0,0,6.4,41.2699,51.8924)">
                <path d="M0.34,0.01L0.27,0.01L0.002,-0.715L0.142,-0.715L0.308,-0.232L0.482,-0.715L0.619,-0.715L0.34,0.01Z" style="fill:white;fill-rule:nonzero;"/>
            </g>
        </g>
        <g transform="matrix(1.198,0,0,0.958552,852.131,9.33878)">
            <g transform="matrix(6.4,0,0,6.4,37.2263,51.8924)">
                <path d="M0.563,-0.677L0.511,-0.572C0.483,-0.601 0.437,-0.615 0.375,-0.615C0.315,-0.615 0.266,-0.59 0.228,-0.54C0.19,-0.49 0.171,-0.427 0.171,-0.35C0.171,-0.274 0.189,-0.213 0.224,-0.168C0.259,-0.123 0.306,-0.101 0.365,-0.101C0.433,-0.101 0.485,-0.125 0.523,-0.173L0.583,-0.07C0.531,-0.015 0.455,0.012 0.355,0.012C0.255,0.012 0.177,-0.021 0.122,-0.086C0.067,-0.152 0.039,-0.242 0.039,-0.355C0.039,-0.461 0.07,-0.55 0.131,-0.621C0.192,-0.692 0.271,-0.728 0.367,-0.728C0.449,-0.728 0.514,-0.711 0.563,-0.677Z" style="fill:white;fill-rule:nonzero;"/>
            </g>
            <g transform="matrix(6.4,0,0,6.4,41.2699,51.8924)">
                <path d="M0.34,0.01L0.27,0.01L0.002,-0.715L0.142,-0.715L0.308,-0.232L0.482,-0.715L0.619,-0.715L0.34,0.01Z" style="fill:white;fill-rule:nonzero;"/>
            </g>
        </g>
        <g transform="matrix(1.198,0,0,0.958552,1190.44,-59.4405)">
            <g transform="matrix(6.4,0,0,6.4,29.111,51.8924)">
                <path d="M0.039,-0.04L0.086,-0.153C0.136,-0.118 0.185,-0.101 0.234,-0.101C0.308,-0.101 0.346,-0.127 0.346,-0.179C0.346,-0.203 0.337,-0.226 0.319,-0.249C0.302,-0.271 0.266,-0.295 0.211,-0.323C0.156,-0.351 0.119,-0.373 0.1,-0.391C0.081,-0.409 0.066,-0.43 0.056,-0.454C0.046,-0.479 0.041,-0.506 0.041,-0.535C0.041,-0.59 0.061,-0.636 0.101,-0.673C0.142,-0.709 0.194,-0.728 0.257,-0.728C0.34,-0.728 0.401,-0.712 0.439,-0.681L0.401,-0.572C0.356,-0.604 0.309,-0.62 0.26,-0.62C0.23,-0.62 0.208,-0.612 0.192,-0.596C0.176,-0.581 0.167,-0.561 0.167,-0.536C0.167,-0.495 0.213,-0.452 0.304,-0.408C0.352,-0.385 0.386,-0.363 0.407,-0.344C0.428,-0.324 0.444,-0.301 0.456,-0.275C0.467,-0.248 0.472,-0.219 0.472,-0.187C0.472,-0.129 0.449,-0.081 0.404,-0.044C0.358,-0.007 0.297,0.012 0.22,0.012C0.153,0.012 0.093,-0.005 0.039,-0.04Z" style="fill-rule:nonzero;"/>
            </g>
            <g transform="matrix(6.4,0,0,6.4,32.5109,51.8924)">
                <path d="M0.485,0L0.485,-0.322L0.2,-0.322L0.2,0L0.073,0L0.073,-0.715L0.2,-0.715L0.2,-0.435L0.485,-0.435L0.485,-0.715L0.61,-0.715L0.61,0L0.485,0Z" style="fill-rule:nonzero;"/>
            </g>
            <g transform="matrix(6.4,0,0,6.4,37.0139,51.8924)">
                <rect x="0.076" y="-0.715" width="0.127" height="0.715" style="fill-rule:nonzero;"/>
            </g>
            <g transform="matrix(6.4,0,0,6.4,38.9231,51.8924)">
                <path d="M0.2,-0.603L0.2,-0.435L0.452,-0.435L0.452,-0.327L0.2,-0.327L0.2,0L0.073,0L0.073,-0.715L0.544,-0.715L0.544,-0.603L0.2,-0.603Z" style="fill-rule:nonzero;"/>
            </g>
            <g transform="matrix(6.4,0,0,6.4,42.7855,51.8924)">
                <path d="M0.364,-0.603L0.364,0L0.237,0L0.237,-0.603L0.01,-0.603L0.01,-0.715L0.602,-0.715L0.602,-0.603L0.364,-0.603Z" style="fill-rule:nonzero;"/>
            </g>
            <g transform="matrix(6.4,0,0,6.4,46.8291,51.8924)">
                <path d="M0.118,0L0.008,0L0.278,-0.718L0.387,-0.718L0.118,0Z" style="fill-rule:nonzero;"/>
            </g>
            <g transform="matrix(6.4,0,0,6.4,49.454,51.8924)">
                <path d="M0.477,0L0.286,-0.295C0.266,-0.296 0.24,-0.297 0.205,-0.299L0.205,0L0.073,0L0.073,-0.715C0.08,-0.715 0.108,-0.717 0.156,-0.719C0.204,-0.721 0.242,-0.723 0.271,-0.723C0.453,-0.723 0.544,-0.652 0.544,-0.512C0.544,-0.469 0.531,-0.431 0.506,-0.396C0.481,-0.361 0.45,-0.337 0.412,-0.322L0.623,0L0.477,0ZM0.205,-0.605L0.205,-0.406C0.229,-0.404 0.246,-0.403 0.259,-0.403C0.312,-0.403 0.351,-0.411 0.375,-0.426C0.4,-0.441 0.412,-0.47 0.412,-0.513C0.412,-0.548 0.399,-0.573 0.373,-0.587C0.346,-0.601 0.305,-0.608 0.248,-0.608C0.234,-0.608 0.22,-0.607 0.205,-0.605Z" style="fill-rule:nonzero;"/>
            </g>
        </g>
        <g transform="matrix(1.198,0,0,0.958552,1043.27,9.33878)">
            <g transform="matrix(6.4,0,0,6.4,31.7921,51.8924)">
                <path d="M0.477,0L0.286,-0.295C0.266,-0.296 0.24,-0.297 0.205,-0.299L0.205,0L0.073,0L0.073,-0.715C0.08,-0.715 0.108,-0.717 0.156,-0.719C0.204,-0.721 0.242,-0.723 0.271,-0.723C0.453,-0.723 0.544,-0.652 0.544,-0.512C0.544,-0.469 0.531,-0.431 0.506,-0.396C0.481,-0.361 0.45,-0.337 0.412,-0.322L0.623,0L0.477,0ZM0.205,-0.605L0.205,-0.406C0.229,-0.404 0.246,-0.403 0.259,-0.403C0.312,-0.403 0.351,-0.411 0.375,-0.426C0.4,-0.441 0.412,-0.47 0.412,-0.513C0.412,-0.548 0.399,-0.573 0.373,-0.587C0.346,-0.601 0.305,-0.608 0.248,-0.608C0.234,-0.608 0.22,-0.607 0.205,-0.605Z" style="fill-rule:nonzero;"/>
            </g>
            <g transform="matrix(6.4,0,0,6.4,35.8295,51.8924)">
                <path d="M0.2,-0.603L0.2,-0.435L0.437,-0.435L0.437,-0.327L0.2,-0.327L0.2,-0.113L0.524,-0.113L0.524,0L0.073,0L0.073,-0.715L0.53,-0.715L0.53,-0.603L0.2,-0.603Z" style="fill-rule:nonzero;"/>
            </g>
            <g transform="matrix(6.4,0,0,6.4,39.5981,51.8924)">
                <path d="M0.039,-0.04L0.086,-0.153C0.136,-0.118 0.185,-0.101 0.234,-0.101C0.308,-0.101 0.346,-0.127 0.346,-0.179C0.346,-0.203 0.337,-0.226 0.319,-0.249C0.302,-0.271 0.266,-0.295 0.211,-0.323C0.156,-0.351 0.119,-0.373 0.1,-0.391C0.081,-0.409 0.066,-0.43 0.056,-0.454C0.046,-0.479 0.041,-0.506 0.041,-0.535C0.041,-0.59 0.061,-0.636 0.101,-0.673C0.142,-0.709 0.194,-0.728 0.257,-0.728C0.34,-0.728 0.401,-0.712 0.439,-0.681L0.401,-0.572C0.356,-0.604 0.309,-0.62 0.26,-0.62C0.23,-0.62 0.208,-0.612 0.192,-0.596C0.176,-0.581 0.167,-0.561 0.167,-0.536C0.167,-0.495 0.213,-0.452 0.304,-0.408C0.352,-0.385 0.386,-0.363 0.407,-0.344C0.428,-0.324 0.444,-0.301 0.456,-0.275C0.467,-0.248 0.472,-0.219 0.472,-0.187C0.472,-0.129 0.449,-0.081 0.404,-0.044C0.358,-0.007 0.297,0.012 0.22,0.012C0.153,0.012 0.093,-0.005 0.039,-0.04Z" style="fill-rule:nonzero;"/>
            </g>
            <g transform="matrix(6.4,0,0,6.4,42.998,51.8924)">
                <path d="M0.2,-0.603L0.2,-0.435L0.437,-0.435L0.437,-0.327L0.2,-0.327L0.2,-0.113L0.524,-0.113L0.524,0L0.073,0L0.073,-0.715L0.53,-0.715L0.53,-0.603L0.2,-0.603Z" style="fill-rule:nonzero;"/>
            </g>
            <g transform="matrix(6.4,0,0,6.4,46.7666,51.8924)">
                <path d="M0.364,-0.603L0.364,0L0.237,0L0.237,-0.603L0.01,-0.603L0.01,-0.715L0.602,-0.715L0.602,-0.603L0.364,-0.603Z" style="fill-rule:nonzero;"/>
            </g>
        </g>
        <g transform="matrix(1.198,0,0,0.958552,999.116,9.33878)">
            <g transform="matrix(6.4,0,0,6.4,31.7921,51.8924)">
                <path d="M0.477,0L0.286,-0.295C0.266,-0.296 0.24,-0.297 0.205,-0.299L0.205,0L0.073,0L0.073,-0.715C0.08,-0.715 0.108,-0.717 0.156,-0.719C0.204,-0.721 0.242,-0.723 0.271,-0.723C0.453,-0.723 0.544,-0.652 0.544,-0.512C0.544,-0.469 0.531,-0.431 0.506,-0.396C0.481,-0.361 0.45,-0.337 0.412,-0.322L0.623,0L0.477,0ZM0.205,-0.605L0.205,-0.406C0.229,-0.404 0.246,-0.403 0.259,-0.403C0.312,-0.403 0.351,-0.411 0.375,-0.426C0.4,-0.441 0.412,-0.47 0.412,-0.513C0.412,-0.548 0.399,-0.573 0.373,-0.587C0.346,-0.601 0.305,-0.608 0.248,-0.608C0.234,-0.608 0.22,-0.607 0.205,-0.605Z" style="fill-rule:nonzero;"/>
            </g>
            <g transform="matrix(6.4,0,0,6.4,35.8295,51.8924)">
                <path d="M0.2,-0.603L0.2,-0.435L0.437,-0.435L0.437,-0.327L0.2,-0.327L0.2,-0.113L0.524,-0.113L0.524,0L0.073,0L0.073,-0.715L0.53,-0.715L0.53,-0.603L0.2,-0.603Z" style="fill-rule:nonzero;"/>
            </g>
            <g transform="matrix(6.4,0,0,6.4,39.5981,51.8924)">
                <path d="M0.039,-0.04L0.086,-0.153C0.136,-0.118 0.185,-0.101 0.234,-0.101C0.308,-0.101 0.346,-0.127 0.346,-0.179C0.346,-0.203 0.337,-0.226 0.319,-0.249C0.302,-0.271 0.266,-0.295 0.211,-0.323C0.156,-0.351 0.119,-0.373 0.1,-0.391C0.081,-0.409 0.066,-0.43 0.056,-0.454C0.046,-0.479 0.041,-0.506 0.041,-0.535C0.041,-0.59 0.061,-0.636 0.101,-0.673C0.142,-0.709 0.194,-0.728 0.257,-0.728C0.34,-0.728 0.401,-0.712 0.439,-0.681L0.401,-0.572C0.356,-0.604 0.309,-0.62 0.26,-0.62C0.23,-0.62 0.208,-0.612 0.192,-0.596C0.176,-0.581 0.167,-0.561 0.167,-0.536C0.167,-0.495 0.213,-0.452 0.304,-0.408C0.352,-0.385 0.386,-0.363 0.407,-0.344C0.428,-0.324 0.444,-0.301 0.456,-0.275C0.467,-0.248 0.472,-0.219 0.472,-0.187C0.472,-0.129 0.449,-0.081 0.404,-0.044C0.358,-0.007 0.297,0.012 0.22,0.012C0.153,0.012 0.093,-0.005 0.039,-0.04Z" style="fill-rule:nonzero;"/>
            </g>
            <g transform="matrix(6.4,0,0,6.4,42.998,51.8924)">
                <path d="M0.2,-0.603L0.2,-0.435L0.437,-0.435L0.437,-0.327L0.2,-0.327L0.2,-0.113L0.524,-0.113L0.524,0L0.073,0L0.073,-0.715L0.53,-0.715L0.53,-0.603L0.2,-0.603Z" style="fill-rule:nonzero;"/>
            </g>
            <g transform="matrix(6.4,0,0,6.4,46.7666,51.8924)">
                <path d="M0.364,-0.603L0.364,0L0.237,0L0.237,-0.603L0.01,-0.603L0.01,-0.715L0.602,-0.715L0.602,-0.603L0.364,-0.603Z" style="fill-rule:nonzero;"/>
            </g>
        </g>
        <g transform="matrix(1.0256e-16,-1.34016,0.564562,2.76599e-17,1055.86,106.486)">
            <path d="M25.865,67.757C25.865,66.586 25.544,65.635 25.149,65.635L23.719,65.635C23.324,65.635 23.004,66.586 23.004,67.757L23.004,324.255C23.004,325.426 23.324,326.377 23.719,326.377L25.149,326.377C25.544,326.377 25.865,325.426 25.865,324.255L25.865,67.757Z" style="fill:rgb(128,187,254);fill-opacity:0.9;"/>
        </g>
        <g transform="matrix(1.0256e-16,-1.34016,0.564239,2.76441e-17,1055.88,72.7775)">
            <path d="M25.865,67.758C25.865,66.587 25.544,65.635 25.149,65.635L23.719,65.635C23.324,65.635 23.004,66.587 23.004,67.758L23.004,324.254C23.004,325.426 23.324,326.377 23.719,326.377L25.149,326.377C25.544,326.377 25.865,325.426 25.865,324.254L25.865,67.758Z" style="fill:rgb(128,187,254);fill-opacity:0.9;"/>
        </g>
        <g transform="matrix(1.0256e-16,-1.34016,0.56664,2.77617e-17,864.407,106.486)">
            <path d="M25.865,67.749C25.865,66.583 25.544,65.635 25.149,65.635L23.719,65.635C23.324,65.635 23.004,66.583 23.004,67.749L23.004,324.263C23.004,325.43 23.324,326.377 23.719,326.377L25.149,326.377C25.544,326.377 25.865,325.43 25.865,324.263L25.865,67.749Z" style="fill:rgb(128,187,254);fill-opacity:0.9;"/>
        </g>
        <g transform="matrix(1.0256e-16,-1.34016,0.56664,2.77617e-17,864.136,72.7775)">
            <path d="M25.865,67.749C25.865,66.583 25.544,65.635 25.149,65.635L23.719,65.635C23.324,65.635 23.004,66.583 23.004,67.749L23.004,324.263C23.004,325.43 23.324,326.377 23.719,326.377L25.149,326.377C25.544,326.377 25.865,325.43 25.865,324.263L25.865,67.749Z" style="fill:rgb(128,187,254);fill-opacity:0.9;"/>
        </g>
        <g transform="matrix(1.67956,0,0,2.2268,1111.91,-435.108)">
            <ellipse cx="21.24" cy="213.374" rx="2.14" ry="1.291" style="fill:rgb(0,216,227);stroke:white;stroke-opacity:0.1;stroke-width:0.31px;stroke-linecap:butt;"/>
        </g>
        <g transform="matrix(1.67956,0,0,2.2268,1111.91,-401.4)">
            <ellipse cx="21.24" cy="213.374" rx="2.14" ry="1.291" style="fill:rgb(66,13,242);stroke:white;stroke-opacity:0.1;stroke-width:0.31px;stroke-linecap:butt;"/>
        </g>
        <g transform="matrix(1.67956,0,0,2.2268,958.45,-435.108)">
            <ellipse cx="21.24" cy="213.374" rx="2.14" ry="1.291" style="fill:rgb(229,242,13);stroke:white;stroke-opacity:0.1;stroke-width:0.31px;stroke-linecap:butt;"/>
        </g>
        <g transform="matrix(1.67956,0,0,2.2268,958.45,-401.4)">
            <ellipse cx="21.24" cy="213.374" rx="2.14" ry="1.291" style="fill:rgb(242,13,13);stroke:white;stroke-opacity:0.1;stroke-width:0.31px;stroke-linecap:butt;"/>
        </g>
        <g transform="matrix(0.531684,0,0,1.40341,880.873,-97.7251)">
            <path d="M73.138,59.656C73.138,58.148 69.099,56.924 64.125,56.924L14.12,56.924C9.145,56.924 5.107,58.148 5.107,59.656L5.107,80.972C5.107,82.48 9.145,83.704 14.12,83.704L64.125,83.704C69.099,83.704 73.138,82.48 73.138,80.972L73.138,59.656Z" style="fill:white;fill-opacity:0.8;"/>
        </g>
        <g transform="matrix(1.198,0,0,0.958552,852.234,-59.4405)">
            <g transform="matrix(6.4,0,0,6.4,29.2969,51.8924)">
                <path d="M0.039,-0.04L0.086,-0.153C0.136,-0.118 0.185,-0.101 0.234,-0.101C0.308,-0.101 0.346,-0.127 0.346,-0.179C0.346,-0.203 0.337,-0.226 0.319,-0.249C0.302,-0.271 0.266,-0.295 0.211,-0.323C0.156,-0.351 0.119,-0.373 0.1,-0.391C0.081,-0.409 0.066,-0.43 0.056,-0.454C0.046,-0.479 0.041,-0.506 0.041,-0.535C0.041,-0.59 0.061,-0.636 0.101,-0.673C0.142,-0.709 0.194,-0.728 0.257,-0.728C0.34,-0.728 0.401,-0.712 0.439,-0.681L0.401,-0.572C0.356,-0.604 0.309,-0.62 0.26,-0.62C0.23,-0.62 0.208,-0.612 0.192,-0.596C0.176,-0.581 0.167,-0.561 0.167,-0.536C0.167,-0.495 0.213,-0.452 0.304,-0.408C0.352,-0.385 0.386,-0.363 0.407,-0.344C0.428,-0.324 0.444,-0.301 0.456,-0.275C0.467,-0.248 0.472,-0.219 0.472,-0.187C0.472,-0.129 0.449,-0.081 0.404,-0.044C0.358,-0.007 0.297,0.012 0.22,0.012C0.153,0.012 0.093,-0.005 0.039,-0.04Z" style="fill-rule:nonzero;"/>
            </g>
            <g transform="matrix(6.4,0,0,6.4,32.6968,51.8924)">
                <path d="M0.485,0L0.485,-0.322L0.2,-0.322L0.2,0L0.073,0L0.073,-0.715L0.2,-0.715L0.2,-0.435L0.485,-0.435L0.485,-0.715L0.61,-0.715L0.61,0L0.485,0Z" style="fill-rule:nonzero;"/>
            </g>
            <g transform="matrix(6.4,0,0,6.4,37.1998,51.8924)">
                <rect x="0.076" y="-0.715" width="0.127" height="0.715" style="fill-rule:nonzero;"/>
            </g>
            <g transform="matrix(6.4,0,0,6.4,39.1091,51.8924)">
                <path d="M0.2,-0.603L0.2,-0.435L0.452,-0.435L0.452,-0.327L0.2,-0.327L0.2,0L0.073,0L0.073,-0.715L0.544,-0.715L0.544,-0.603L0.2,-0.603Z" style="fill-rule:nonzero;"/>
            </g>
            <g transform="matrix(6.4,0,0,6.4,42.9714,51.8924)">
                <path d="M0.364,-0.603L0.364,0L0.237,0L0.237,-0.603L0.01,-0.603L0.01,-0.715L0.602,-0.715L0.602,-0.603L0.364,-0.603Z" style="fill-rule:nonzero;"/>
            </g>
            <g transform="matrix(6.4,0,0,6.4,47.0151,51.8924)">
                <path d="M0.118,0L0.008,0L0.278,-0.718L0.387,-0.718L0.118,0Z" style="fill-rule:nonzero;"/>
            </g>
            <g transform="matrix(6.4,0,0,6.4,49.6399,51.8924)">
                <path d="M0.073,0L0.073,-0.715L0.2,-0.715L0.2,-0.113L0.523,-0.113L0.523,0L0.073,0Z" style="fill-rule:nonzero;"/>
            </g>
        </g>
        <g id="path2677" transform="matrix(1.198,0,0,0.958552,873.149,-240.235)">
            <path d="M298.258,156.859L234.238,267.745C233.157,269.618 231.151,270.776 228.988,270.776L100.948,270.776C98.785,270.776 96.779,269.618 95.698,267.745L31.678,156.859C30.711,155.185 30.711,152.471 31.678,150.797C53.018,113.835 74.358,76.873 95.698,39.911C96.664,38.237 99.015,36.88 100.948,36.88L228.988,36.88C231.151,36.88 233.157,38.038 234.238,39.911L298.258,150.797C299.34,152.67 299.34,154.986 298.258,156.859Z"/>
        </g>
        <g>
            <g id="path11446" transform="matrix(1.198,0,0,0.958552,873.149,-240.235)">
                <path d="M19.92,101.356L15.548,101.356L13.362,97.62L15.548,93.885L19.92,93.885L22.106,97.62L19.92,101.356Z" style="fill:none;stroke:rgb(77,77,77);stroke-width:0.5px;"/>
            </g>
            <g id="path11506" transform="matrix(1.198,0,0,0.958552,873.149,-240.235)">
                <path d="M83.158,50.782L78.786,50.782L76.6,47.046L78.786,43.311L83.158,43.311L85.344,47.046L83.158,50.782Z" style="fill:none;stroke:rgb(77,77,77);stroke-width:0.5px;"/>
            </g>
            <g id="path11508" transform="matrix(1.198,0,0,0.958552,873.149,-240.235)">
                <path d="M26.478,105.091L22.106,105.091L19.92,101.356L22.106,97.62L26.478,97.62L28.664,101.356L26.478,105.091Z" style="fill:none;stroke:rgb(77,77,77);stroke-width:0.5px;"/>
            </g>
            <g id="path11510" transform="matrix(1.198,0,0,0.958552,873.149,-240.235)">
                <path d="M28.664,101.356L26.478,97.62L28.664,93.885L33.036,93.885L35.222,97.62" style="fill:none;stroke:rgb(77,77,77);stroke-width:0.5px;"/>
            </g>
            <g id="path11512" transform="matrix(1.198,0,0,0.958552,873.149,-240.235)">
                <path d="M15.548,118.032L11.176,118.032L8.99,114.297L11.176,110.561L15.548,110.561L17.734,114.297L15.548,118.032Z" style="fill:none;stroke:rgb(77,77,77);stroke-width:0.5px;"/>
            </g>
            <g id="path11514" transform="matrix(1.198,0,0,0.958552,873.149,-240.235)">
                <path d="M19.92,125.503L15.548,125.503L13.362,121.767L15.548,118.032L19.92,118.032L22.106,121.767L19.92,125.503Z" style="fill:none;stroke:rgb(77,77,77);stroke-width:0.5px;"/>
            </g>
            <g id="path11516" transform="matrix(1.198,0,0,0.958552,873.149,-240.235)">
                <path d="M15.548,132.973L11.176,132.973L8.99,129.238L11.176,125.503L15.548,125.503L17.734,129.238L15.548,132.973Z" style="fill:none;stroke:rgb(77,77,77);stroke-width:0.5px;"/>
            </g>
            <g id="path11518" transform="matrix(1.198,0,0,0.958552,873.149,-240.235)">
                <path d="M8.99,136.709L11.176,132.973L15.548,132.973L17.734,136.709L15.548,140.444" style="fill:none;stroke:rgb(77,77,77);stroke-width:0.5px;"/>
            </g>
            <g id="path11520" transform="matrix(1.198,0,0,0.958552,873.149,-240.235)">
                <path d="M22.106,144.179L17.734,144.179L15.548,140.444L17.734,136.709L22.106,136.709L24.292,140.444L22.106,144.179Z" style="fill:none;stroke:rgb(77,77,77);stroke-width:0.5px;"/>
            </g>
            <g id="path11522" transform="matrix(1.198,0,0,0.958552,873.149,-240.235)">
                <path d="M37.994,118.032L33.622,118.032L31.436,114.297L33.622,110.561L37.994,110.561L40.18,114.297L37.994,118.032Z" style="fill:none;stroke:rgb(77,77,77);stroke-width:0.5px;"/>
            </g>
            <g id="path11524" transform="matrix(1.198,0,0,0.958552,873.149,-240.235)">
                <path d="M33.622,118.032L37.994,118.032L40.18,121.767L37.994,125.503L33.622,125.503" style="fill:none;stroke:rgb(77,77,77);stroke-width:0.5px;"/>
            </g>
            <g id="path11526" transform="matrix(1.198,0,0,0.958552,873.149,-240.235)">
                <path d="M15.548,155.386L11.176,155.386L8.99,151.65L11.176,147.915L15.548,147.915L17.734,151.65L15.548,155.386Z" style="fill:none;stroke:rgb(77,77,77);stroke-width:0.5px;"/>
            </g>
            <g id="path11528" transform="matrix(1.198,0,0,0.958552,873.149,-240.235)">
                <path d="M22.106,144.179L24.292,147.915L22.106,151.65L17.734,151.65L15.548,147.915" style="fill:none;stroke:rgb(77,77,77);stroke-width:0.5px;"/>
            </g>
            <g id="path11530" transform="matrix(1.198,0,0,0.958552,873.149,-240.235)">
                <path d="M15.548,155.386L19.92,155.386L22.106,159.121L19.92,162.856L15.548,162.856" style="fill:none;stroke:rgb(77,77,77);stroke-width:0.5px;"/>
            </g>
            <g id="path11532" transform="matrix(1.198,0,0,0.958552,873.149,-240.235)">
                <path d="M26.478,166.592L22.106,166.592L19.92,162.856L22.106,159.121L26.478,159.121L28.664,162.856L26.478,166.592Z" style="fill:none;stroke:rgb(77,77,77);stroke-width:0.5px;"/>
            </g>
            <g id="path11534" transform="matrix(1.198,0,0,0.958552,873.149,-240.235)">
                <path d="M19.92,170.327L15.548,170.327L13.362,166.592L15.548,162.856L19.92,162.856L22.106,166.592L19.92,170.327Z" style="fill:none;stroke:rgb(77,77,77);stroke-width:0.5px;"/>
            </g>
            <g id="path11536" transform="matrix(1.198,0,0,0.958552,873.149,-240.235)">
                <path d="M15.547,185.273L11.175,185.273L8.989,181.538L11.175,177.803L15.547,177.803" style="fill:none;stroke:rgb(77,77,77);stroke-width:0.5px;"/>
            </g>
            <g id="path11538" transform="matrix(1.198,0,0,0.958552,873.149,-240.235)">
                <path d="M30.523,185.273L26.15,185.273L23.964,181.538L26.15,177.803L30.523,177.803L32.709,181.538L30.523,185.273Z" style="fill:none;stroke:rgb(77,77,77);stroke-width:0.5px;"/>
            </g>
            <g id="path11544" transform="matrix(1.198,0,0,0.958552,873.149,-240.235)">
                <path d="M30.523,185.273L26.15,185.273L23.964,181.538L26.15,177.803L30.523,177.803L32.709,181.538L30.523,185.273Z" style="fill:none;stroke:rgb(77,77,77);stroke-width:0.5px;"/>
            </g>
            <g id="path11546" transform="matrix(1.198,0,0,0.958552,873.149,-240.235)">
                <path d="M37.081,189.009L32.709,189.009L30.523,185.273L32.709,181.538L37.081,181.538L39.267,185.273L37.081,189.009Z" style="fill:none;stroke:rgb(77,77,77);stroke-width:0.5px;"/>
            </g>
            <g id="path11548" transform="matrix(1.198,0,0,0.958552,873.149,-240.235)">
                <path d="M32.709,196.479L28.337,196.479L26.15,192.744L28.337,189.009L32.709,189.009L34.895,192.744L32.709,196.479Z" style="fill:none;stroke:rgb(77,77,77);stroke-width:0.5px;"/>
            </g>
            <g id="path11550" transform="matrix(1.198,0,0,0.958552,873.149,-240.235)">
                <path d="M19.592,196.479L21.778,192.744L26.15,192.744L28.337,196.479" style="fill:none;stroke:rgb(77,77,77);stroke-width:0.5px;"/>
            </g>
            <g id="path11552" transform="matrix(1.198,0,0,0.958552,873.149,-240.235)">
                <path d="M17.406,200.215L13.034,200.215L10.848,196.479L13.034,192.744L17.406,192.744L19.592,196.479L17.406,200.215Z" style="fill:none;stroke:rgb(77,77,77);stroke-width:0.5px;"/>
            </g>
            <g id="path11554" transform="matrix(1.198,0,0,0.958552,873.149,-240.235)">
                <path d="M32.709,203.95L30.523,200.215L32.709,196.479L37.081,196.479L39.267,200.215L37.081,203.95" style="fill:none;stroke:rgb(77,77,77);stroke-width:0.5px;"/>
            </g>
            <g id="path11556" transform="matrix(1.198,0,0,0.958552,873.149,-240.235)">
                <path d="M32.709,203.95L30.523,200.215L32.709,196.479L37.081,196.479L39.267,200.215L37.081,203.95" style="fill:none;stroke:rgb(77,77,77);stroke-width:0.5px;"/>
            </g>
            <g id="path11558" transform="matrix(1.198,0,0,0.958552,873.149,-240.235)">
                <path d="M37.081,203.95L39.267,207.686L37.081,211.421L32.709,211.421L30.523,207.686L32.709,203.95" style="fill:none;stroke:rgb(77,77,77);stroke-width:0.5px;"/>
            </g>
            <g id="path11560" transform="matrix(1.198,0,0,0.958552,873.149,-240.235)">
                <path d="M30.523,215.156L26.15,215.156L23.964,211.421L26.15,207.686L30.523,207.686L32.709,211.421L30.523,215.156Z" style="fill:none;stroke:rgb(77,77,77);stroke-width:0.5px;"/>
            </g>
            <g id="path11562" transform="matrix(1.198,0,0,0.958552,873.149,-240.235)">
                <path d="M26.15,207.686L23.964,211.421L19.592,211.421L17.406,207.686" style="fill:none;stroke:rgb(77,77,77);stroke-width:0.5px;"/>
            </g>
            <g id="path11564" transform="matrix(1.198,0,0,0.958552,873.149,-240.235)">
                <path d="M17.406,215.156L13.034,215.156L10.848,211.421L13.034,207.686L17.406,207.686L19.592,211.421L17.406,215.156Z" style="fill:none;stroke:rgb(77,77,77);stroke-width:0.5px;"/>
            </g>
            <g id="path11566" transform="matrix(1.198,0,0,0.958552,873.149,-240.235)">
                <path d="M15.22,218.892L17.406,215.156L21.778,215.156L23.964,218.892L21.778,222.627" style="fill:none;stroke:rgb(77,77,77);stroke-width:0.5px;"/>
            </g>
            <g id="path11568" transform="matrix(1.198,0,0,0.958552,873.149,-240.235)">
                <path d="M34.895,222.627L30.523,222.627L28.337,218.892L30.523,215.156L34.895,215.156L37.081,218.892L34.895,222.627Z" style="fill:none;stroke:rgb(77,77,77);stroke-width:0.5px;"/>
            </g>
            <g id="path3194" transform="matrix(1.198,0,0,0.958552,873.149,-240.235)">
                <path d="M74.414,43.311L78.786,43.311" style="fill:none;stroke:rgb(77,77,77);stroke-width:0.5px;"/>
            </g>
            <g id="path3196" transform="matrix(1.198,0,0,0.958552,873.149,-240.235)">
                <path d="M76.6,54.517L72.228,54.517M76.6,47.046L78.786,50.782" style="fill:none;stroke:rgb(77,77,77);stroke-width:0.5px;"/>
            </g>
            <g id="path3198" transform="matrix(1.198,0,0,0.958552,873.149,-240.235)">
                <path d="M76.6,61.988L72.228,61.988L70.042,58.252L72.228,54.517L76.6,54.517L78.786,58.252L76.6,61.988Z" style="fill:none;stroke:rgb(77,77,77);stroke-width:0.5px;"/>
            </g>
            <g id="path3200" transform="matrix(1.198,0,0,0.958552,873.149,-240.235)">
                <path d="M70.042,58.252L72.228,61.988L70.042,65.723L65.67,65.723" style="fill:none;stroke:rgb(77,77,77);stroke-width:0.5px;"/>
            </g>
            <g id="path3202" transform="matrix(1.198,0,0,0.958552,873.149,-240.235)">
                <path d="M70.042,73.194L65.67,73.194L63.484,69.459L65.67,65.723L70.042,65.723L72.228,69.459L70.042,73.194Z" style="fill:none;stroke:rgb(77,77,77);stroke-width:0.5px;"/>
            </g>
            <g id="path3204" transform="matrix(1.198,0,0,0.958552,873.149,-240.235)">
                <path d="M63.484,76.929L59.112,76.929L56.926,73.194L59.112,69.459L63.484,69.459L65.67,73.194" style="fill:none;stroke:rgb(77,77,77);stroke-width:0.5px;"/>
            </g>
            <g id="path3206" transform="matrix(1.198,0,0,0.958552,873.149,-240.235)">
                <path d="M56.926,80.665L59.112,76.929L63.484,76.929L65.67,80.665L63.484,84.4L59.112,84.4" style="fill:none;stroke:rgb(77,77,77);stroke-width:0.5px;"/>
            </g>
            <g id="path3208" transform="matrix(1.198,0,0,0.958552,873.149,-240.235)">
                <path d="M56.926,80.665L59.112,76.929L63.484,76.929L65.67,80.665L63.484,84.4L59.112,84.4" style="fill:none;stroke:rgb(77,77,77);stroke-width:0.5px;"/>
            </g>
            <g id="path3210" transform="matrix(1.198,0,0,0.958552,873.149,-240.235)">
                <path d="M59.112,84.4L56.926,88.135L52.553,88.135L50.367,84.4L52.553,80.665L56.926,80.665" style="fill:none;stroke:rgb(77,77,77);stroke-width:0.5px;"/>
            </g>
            <g id="path3212" transform="matrix(1.198,0,0,0.958552,873.149,-240.235)">
                <path d="M59.112,84.4L56.926,88.135L52.553,88.135L50.367,84.4L52.553,80.665L56.926,80.665" style="fill:none;stroke:rgb(77,77,77);stroke-width:0.5px;"/>
            </g>
            <g id="path3214" transform="matrix(1.198,0,0,0.958552,873.149,-240.235)">
                <path d="M52.553,88.135L56.926,88.135M59.112,91.871L56.926,95.606L52.553,95.606L50.367,91.871" style="fill:none;stroke:rgb(77,77,77);stroke-width:0.5px;"/>
            </g>
            <g id="path3232" transform="matrix(1.198,0,0,0.958552,873.149,-240.235)">
                <path d="M56.926,58.252L52.553,58.252L50.367,54.517L52.553,50.782L56.926,50.782L59.112,54.517L56.926,58.252Z" style="fill:none;stroke:rgb(77,77,77);stroke-width:0.5px;"/>
            </g>
            <g id="path3236" transform="matrix(1.198,0,0,0.958552,873.149,-240.235)">
                <path d="M56.926,50.782L52.553,50.782L50.367,47.046L52.553,43.311L56.926,43.311L59.112,47.046" style="fill:none;stroke:rgb(77,77,77);stroke-width:0.5px;"/>
            </g>
            <g id="path3238" transform="matrix(1.198,0,0,0.958552,873.149,-240.235)">
                <path d="M65.67,50.782L61.298,50.782L59.112,47.046L61.298,43.311L65.67,43.311" style="fill:none;stroke:rgb(77,77,77);stroke-width:0.5px;"/>
            </g>
            <g id="path3240" transform="matrix(1.198,0,0,0.958552,873.149,-240.235)">
                <path d="M65.67,50.782L61.298,50.782L59.112,47.046L61.298,43.311L65.67,43.311" style="fill:none;stroke:rgb(77,77,77);stroke-width:0.5px;"/>
            </g>
            <g id="path3242" transform="matrix(1.198,0,0,0.958552,873.149,-240.235)">
                <path d="M56.926,73.194L52.553,73.194L50.367,69.459L52.553,65.723L56.926,65.723L59.112,69.459L56.926,73.194Z" style="fill:none;stroke:rgb(77,77,77);stroke-width:0.5px;"/>
            </g>
            <g id="path3246" transform="matrix(1.198,0,0,0.958552,873.149,-240.235)">
                <path d="M50.367,99.341L45.995,99.341L43.809,95.606L45.995,91.871L50.367,91.871L52.553,95.606L50.367,99.341Z" style="fill:none;stroke:rgb(77,77,77);stroke-width:0.5px;"/>
            </g>
        </g>
        <g id="g1695" transform="matrix(1.198,0,0,0.958552,873.149,-240.235)">
            <g id="g11632" transform="matrix(1,0,0,1,-2.82396,0)">
                <g id="path4823" transform="matrix(0.341273,0,0,0.336678,190.79,58.3888)">
                    <path d="M311.436,110.555L298.625,110.555L292.219,99.46L298.625,88.365L311.436,88.365L317.842,99.46L311.436,110.555Z" style="fill:none;stroke:rgb(77,77,77);stroke-width:1.48px;"/>
                </g>
                <g id="path4825" transform="matrix(0.341273,0,0,0.336678,190.79,65.8595)">
                    <path d="M311.436,110.555L298.625,110.555L292.219,99.46L298.625,88.365L311.436,88.365" style="fill:none;stroke:rgb(77,77,77);stroke-width:1.48px;"/>
                </g>
                <path id="path4829" d="M319.52,103.082L315.148,103.082L312.962,99.347L315.148,95.612L319.52,95.612L321.707,99.347L319.52,103.082Z" style="fill:none;stroke:rgb(77,77,77);stroke-width:0.5px;"/>
                <path id="path4831" d="M312.962,99.347L308.59,99.347L306.404,95.612L308.59,91.876L312.962,91.876L315.148,95.612L312.962,99.347Z" style="fill:none;stroke:rgb(77,77,77);stroke-width:0.5px;"/>
                <path id="path4833" d="M308.59,106.818L306.404,103.082L308.59,99.347L312.962,99.347L315.148,103.082" style="fill:none;stroke:rgb(77,77,77);stroke-width:0.5px;"/>
                <path id="path4835" d="M308.59,114.289L306.404,110.553L308.59,106.818L312.962,106.818L315.148,110.553" style="fill:none;stroke:rgb(77,77,77);stroke-width:0.5px;"/>
                <path id="path4837" d="M321.707,114.289L317.334,114.289L315.148,110.553L317.334,106.818L321.707,106.818L323.893,110.553L321.707,114.289Z" style="fill:none;stroke:rgb(77,77,77);stroke-width:0.5px;"/>
                <path id="path4839" d="M308.59,121.759L304.218,121.759L302.032,118.024L304.218,114.289L308.59,114.289" style="fill:none;stroke:rgb(77,77,77);stroke-width:0.5px;"/>
                <path id="path4841" d="M304.218,114.289L302.032,118.024L297.66,118.024L295.474,114.289L297.66,110.553" style="fill:none;stroke:rgb(77,77,77);stroke-width:0.5px;"/>
                <path id="path4843" d="M312.962,129.23L308.59,129.23L306.404,125.495L308.59,121.759L312.962,121.759L315.148,125.495L312.962,129.23Z" style="fill:none;stroke:rgb(77,77,77);stroke-width:0.5px;"/>
                <path id="path4845" d="M319.52,132.965L317.334,136.701L312.962,136.701L310.776,132.965L312.962,129.23" style="fill:none;stroke:rgb(77,77,77);stroke-width:0.5px;"/>
                <path id="path4847" d="M312.962,144.171L310.776,140.436L312.962,136.701L317.334,136.701" style="fill:none;stroke:rgb(77,77,77);stroke-width:0.5px;"/>
                <path id="path4849" d="M312.962,151.642L308.59,151.642L306.404,147.907L308.59,144.171L312.962,144.171L315.148,147.907L312.962,151.642Z" style="fill:none;stroke:rgb(77,77,77);stroke-width:0.5px;"/>
                <path id="path4851" d="M319.52,155.378L315.148,155.378L312.962,151.642L315.148,147.907L319.52,147.907L321.707,151.642L319.52,155.378Z" style="fill:none;stroke:rgb(77,77,77);stroke-width:0.5px;"/>
                <path id="path4853" d="M297.075,222.632L292.703,222.632L290.517,218.897L292.703,215.161L297.075,215.161L299.261,218.897L297.075,222.632Z" style="fill:none;stroke:rgb(77,77,77);stroke-width:0.5px;"/>
                <path id="path4855" d="M308.005,218.897L305.819,222.632L301.447,222.632L299.261,218.897" style="fill:none;stroke:rgb(77,77,77);stroke-width:0.5px;"/>
                <path id="path4857" d="M319.52,207.688L315.148,207.688L312.962,203.953L315.148,200.218L319.52,200.218L321.707,203.953L319.52,207.688Z" style="fill:none;stroke:rgb(77,77,77);stroke-width:0.5px;"/>
                <path id="path4863" d="M319.52,207.688L315.148,207.688L312.962,203.953L315.148,200.218L319.52,200.218L321.707,203.953L319.52,207.688Z" style="fill:none;stroke:rgb(77,77,77);stroke-width:0.5px;"/>
                <path id="path4865" d="M315.148,207.688L319.52,207.688L321.707,211.424L319.52,215.159L315.148,215.159" style="fill:none;stroke:rgb(77,77,77);stroke-width:0.5px;"/>
                <path id="path4867" d="M312.962,203.953L308.59,203.953L306.404,200.218L308.59,196.482L312.962,196.482L315.148,200.218L312.962,203.953Z" style="fill:none;stroke:rgb(77,77,77);stroke-width:0.5px;"/>
                <path id="path4869" d="M315.148,192.747L319.52,192.747L321.707,196.482L319.52,200.218L315.148,200.218L312.962,196.482" style="fill:none;stroke:rgb(77,77,77);stroke-width:0.5px;"/>
                <path id="path4871" d="M302.032,207.688L299.846,203.953L302.032,200.218L306.404,200.218L308.59,203.953" style="fill:none;stroke:rgb(77,77,77);stroke-width:0.5px;"/>
                <path id="path4873" d="M299.846,203.953L295.474,203.953L293.288,200.218L295.474,196.482L299.846,196.482L302.032,200.218L299.846,203.953Z" style="fill:none;stroke:rgb(77,77,77);stroke-width:0.5px;"/>
                <path id="path4875" d="M295.474,189.011L299.846,189.011L302.032,192.747L299.846,196.482L295.474,196.482" style="fill:none;stroke:rgb(77,77,77);stroke-width:0.5px;"/>
                <path id="path4877" d="M295.474,189.011L299.846,189.011L302.032,192.747L299.846,196.482L295.474,196.482" style="fill:none;stroke:rgb(77,77,77);stroke-width:0.5px;"/>
                <path id="path4879" d="M299.846,189.011L295.474,189.011L293.288,185.276L295.474,181.541L299.846,181.541" style="fill:none;stroke:rgb(77,77,77);stroke-width:0.5px;"/>
                <path id="path4881" d="M299.846,174.07L302.032,177.805L299.846,181.541L295.474,181.541" style="fill:none;stroke:rgb(77,77,77);stroke-width:0.5px;"/>
                <path id="path4883" d="M306.128,185.272L301.755,185.272L299.569,181.537L301.755,177.802L306.128,177.802L308.314,181.537L306.128,185.272Z" style="fill:none;stroke:rgb(77,77,77);stroke-width:0.5px;"/>
                <path id="path4885" d="M312.686,181.537L308.314,181.537L306.128,177.802L308.314,174.066L312.686,174.066L314.872,177.802L312.686,181.537Z" style="fill:none;stroke:rgb(77,77,77);stroke-width:0.5px;"/>
            </g>
            <path id="path1075" d="M246.842,256.857L244.656,260.593L246.842,264.328L251.214,264.328L253.4,260.593L251.214,256.857" style="fill:none;stroke:rgb(77,77,77);stroke-width:0.5px;"/>
            <path id="path1077" d="M257.772,260.593L259.958,256.857L257.772,253.122L253.4,253.122L251.214,256.857L253.4,260.593" style="fill:none;stroke:rgb(77,77,77);stroke-width:0.5px;"/>
            <path id="path1079" d="M259.958,249.387L257.772,245.651L253.4,245.651L251.214,249.387L253.4,253.122L257.772,253.122" style="fill:none;stroke:rgb(77,77,77);stroke-width:0.5px;"/>
            <path id="path1081" d="M257.772,245.651L259.958,249.386L264.33,249.386L266.516,245.651L264.33,241.916L259.958,241.916" style="fill:none;stroke:rgb(77,77,77);stroke-width:0.5px;"/>
            <path id="path1083" d="M259.958,241.916L264.33,241.916L266.516,238.18L264.33,234.445L259.958,234.445L257.772,238.18L259.958,241.916Z" style="fill:none;stroke:rgb(77,77,77);stroke-width:0.5px;"/>
            <path id="path1085" d="M266.516,230.71L264.33,234.445L266.516,238.18L270.889,238.18L273.075,234.445" style="fill:none;stroke:rgb(77,77,77);stroke-width:0.5px;"/>
            <path id="path1087" d="M273.075,226.974L277.447,226.974L279.633,223.239L277.447,219.504L273.075,219.504L270.889,223.239L273.075,226.974Z" style="fill:none;stroke:rgb(77,77,77);stroke-width:0.5px;"/>
            <path id="path1089" d="M264.33,249.387L262.144,253.122L264.33,256.857M268.703,256.857L270.889,253.122L268.703,249.386" style="fill:none;stroke:rgb(77,77,77);stroke-width:0.5px;"/>
            <path id="path1091" d="M270.889,253.122L275.261,253.122L277.447,249.386L275.261,245.651L270.889,245.651L268.703,249.386" style="fill:none;stroke:rgb(77,77,77);stroke-width:0.5px;"/>
            <path id="path1093" d="M270.889,245.651L275.261,245.651L277.447,241.916L275.261,238.18L270.889,238.18L268.703,241.916L270.889,245.651Z" style="fill:none;stroke:rgb(77,77,77);stroke-width:0.5px;"/>
            <path id="path1095" d="M273.075,226.974L277.447,226.974L279.633,223.239L277.447,219.504L273.075,219.504L270.889,223.239L273.075,226.974Z" style="fill:none;stroke:rgb(77,77,77);stroke-width:0.5px;"/>
            <path id="path1097" d="M273.075,219.504L277.447,219.504L279.633,215.768L277.447,212.033L273.075,212.033L270.889,215.768L273.075,219.504Z" style="fill:none;stroke:rgb(77,77,77);stroke-width:0.5px;"/>
            <path id="path1101" d="M279.633,215.768L284.005,215.768L286.191,212.033L284.005,208.297L279.633,208.297L277.447,212.033L279.633,215.768Z" style="fill:none;stroke:rgb(77,77,77);stroke-width:0.5px;"/>
            <path id="path1103" d="M264.33,256.857L262.144,260.593L264.33,264.328L268.703,264.328L270.889,260.593L268.703,256.857" style="fill:none;stroke:rgb(77,77,77);stroke-width:0.5px;"/>
        </g>
        <g id="path1589" transform="matrix(1.16205,0,0,0.929772,879.133,-235.808)">
            <path d="M300.008,153.828L232.488,270.776L97.448,270.776L29.928,153.828C52.434,114.845 74.941,75.863 97.448,36.88L232.488,36.88L300.008,153.828Z" style="fill:rgb(0,16,90);"/>
        </g>
        <g transform="matrix(0.531684,0,0,1.40341,880.873,-284.771)">
            <path d="M73.138,59.656C73.138,58.148 69.099,56.924 64.125,56.924L14.12,56.924C9.145,56.924 5.107,58.148 5.107,59.656L5.107,80.972C5.107,82.48 9.145,83.704 14.12,83.704L64.125,83.704C69.099,83.704 73.138,82.48 73.138,80.972L73.138,59.656Z" style="fill:white;fill-opacity:0.8;"/>
        </g>
        <g transform="matrix(0.531684,0,0,1.40341,1219.23,-284.771)">
            <path d="M73.138,59.656C73.138,58.148 69.099,56.924 64.125,56.924L14.12,56.924C9.145,56.924 5.107,58.148 5.107,59.656L5.107,80.972C5.107,82.48 9.145,83.704 14.12,83.704L64.125,83.704C69.099,83.704 73.138,82.48 73.138,80.972L73.138,59.656Z" style="fill:white;fill-opacity:0.8;"/>
        </g>
        <g transform="matrix(1.198,0,0,0.958552,1190.44,-246.486)">
            <g transform="matrix(6.4,0,0,6.4,29.111,51.8924)">
                <path d="M0.039,-0.04L0.086,-0.153C0.136,-0.118 0.185,-0.101 0.234,-0.101C0.308,-0.101 0.346,-0.127 0.346,-0.179C0.346,-0.203 0.337,-0.226 0.319,-0.249C0.302,-0.271 0.266,-0.295 0.211,-0.323C0.156,-0.351 0.119,-0.373 0.1,-0.391C0.081,-0.409 0.066,-0.43 0.056,-0.454C0.046,-0.479 0.041,-0.506 0.041,-0.535C0.041,-0.59 0.061,-0.636 0.101,-0.673C0.142,-0.709 0.194,-0.728 0.257,-0.728C0.34,-0.728 0.401,-0.712 0.439,-0.681L0.401,-0.572C0.356,-0.604 0.309,-0.62 0.26,-0.62C0.23,-0.62 0.208,-0.612 0.192,-0.596C0.176,-0.581 0.167,-0.561 0.167,-0.536C0.167,-0.495 0.213,-0.452 0.304,-0.408C0.352,-0.385 0.386,-0.363 0.407,-0.344C0.428,-0.324 0.444,-0.301 0.456,-0.275C0.467,-0.248 0.472,-0.219 0.472,-0.187C0.472,-0.129 0.449,-0.081 0.404,-0.044C0.358,-0.007 0.297,0.012 0.22,0.012C0.153,0.012 0.093,-0.005 0.039,-0.04Z" style="fill-rule:nonzero;"/>
            </g>
            <g transform="matrix(6.4,0,0,6.4,32.5109,51.8924)">
                <path d="M0.485,0L0.485,-0.322L0.2,-0.322L0.2,0L0.073,0L0.073,-0.715L0.2,-0.715L0.2,-0.435L0.485,-0.435L0.485,-0.715L0.61,-0.715L0.61,0L0.485,0Z" style="fill-rule:nonzero;"/>
            </g>
            <g transform="matrix(6.4,0,0,6.4,37.0139,51.8924)">
                <rect x="0.076" y="-0.715" width="0.127" height="0.715" style="fill-rule:nonzero;"/>
            </g>
            <g transform="matrix(6.4,0,0,6.4,38.9231,51.8924)">
                <path d="M0.2,-0.603L0.2,-0.435L0.452,-0.435L0.452,-0.327L0.2,-0.327L0.2,0L0.073,0L0.073,-0.715L0.544,-0.715L0.544,-0.603L0.2,-0.603Z" style="fill-rule:nonzero;"/>
            </g>
            <g transform="matrix(6.4,0,0,6.4,42.7855,51.8924)">
                <path d="M0.364,-0.603L0.364,0L0.237,0L0.237,-0.603L0.01,-0.603L0.01,-0.715L0.602,-0.715L0.602,-0.603L0.364,-0.603Z" style="fill-rule:nonzero;"/>
            </g>
            <g transform="matrix(6.4,0,0,6.4,46.8291,51.8924)">
                <path d="M0.118,0L0.008,0L0.278,-0.718L0.387,-0.718L0.118,0Z" style="fill-rule:nonzero;"/>
            </g>
            <g transform="matrix(6.4,0,0,6.4,49.454,51.8924)">
                <path d="M0.477,0L0.286,-0.295C0.266,-0.296 0.24,-0.297 0.205,-0.299L0.205,0L0.073,0L0.073,-0.715C0.08,-0.715 0.108,-0.717 0.156,-0.719C0.204,-0.721 0.242,-0.723 0.271,-0.723C0.453,-0.723 0.544,-0.652 0.544,-0.512C0.544,-0.469 0.531,-0.431 0.506,-0.396C0.481,-0.361 0.45,-0.337 0.412,-0.322L0.623,0L0.477,0ZM0.205,-0.605L0.205,-0.406C0.229,-0.404 0.246,-0.403 0.259,-0.403C0.312,-0.403 0.351,-0.411 0.375,-0.426C0.4,-0.441 0.412,-0.47 0.412,-0.513C0.412,-0.548 0.399,-0.573 0.373,-0.587C0.346,-0.601 0.305,-0.608 0.248,-0.608C0.234,-0.608 0.22,-0.607 0.205,-0.605Z" style="fill-rule:nonzero;"/>
            </g>
        </g>
        <g transform="matrix(1.198,0,0,0.958552,852.234,-246.486)">
            <g transform="matrix(6.4,0,0,6.4,29.2969,51.8924)">
                <path d="M0.039,-0.04L0.086,-0.153C0.136,-0.118 0.185,-0.101 0.234,-0.101C0.308,-0.101 0.346,-0.127 0.346,-0.179C0.346,-0.203 0.337,-0.226 0.319,-0.249C0.302,-0.271 0.266,-0.295 0.211,-0.323C0.156,-0.351 0.119,-0.373 0.1,-0.391C0.081,-0.409 0.066,-0.43 0.056,-0.454C0.046,-0.479 0.041,-0.506 0.041,-0.535C0.041,-0.59 0.061,-0.636 0.101,-0.673C0.142,-0.709 0.194,-0.728 0.257,-0.728C0.34,-0.728 0.401,-0.712 0.439,-0.681L0.401,-0.572C0.356,-0.604 0.309,-0.62 0.26,-0.62C0.23,-0.62 0.208,-0.612 0.192,-0.596C0.176,-0.581 0.167,-0.561 0.167,-0.536C0.167,-0.495 0.213,-0.452 0.304,-0.408C0.352,-0.385 0.386,-0.363 0.407,-0.344C0.428,-0.324 0.444,-0.301 0.456,-0.275C0.467,-0.248 0.472,-0.219 0.472,-0.187C0.472,-0.129 0.449,-0.081 0.404,-0.044C0.358,-0.007 0.297,0.012 0.22,0.012C0.153,0.012 0.093,-0.005 0.039,-0.04Z" style="fill-rule:nonzero;"/>
            </g>
            <g transform="matrix(6.4,0,0,6.4,32.6968,51.8924)">
                <path d="M0.485,0L0.485,-0.322L0.2,-0.322L0.2,0L0.073,0L0.073,-0.715L0.2,-0.715L0.2,-0.435L0.485,-0.435L0.485,-0.715L0.61,-0.715L0.61,0L0.485,0Z" style="fill-rule:nonzero;"/>
            </g>
            <g transform="matrix(6.4,0,0,6.4,37.1998,51.8924)">
                <rect x="0.076" y="-0.715" width="0.127" height="0.715" style="fill-rule:nonzero;"/>
            </g>
            <g transform="matrix(6.4,0,0,6.4,39.1091,51.8924)">
                <path d="M0.2,-0.603L0.2,-0.435L0.452,-0.435L0.452,-0.327L0.2,-0.327L0.2,0L0.073,0L0.073,-0.715L0.544,-0.715L0.544,-0.603L0.2,-0.603Z" style="fill-rule:nonzero;"/>
            </g>
            <g transform="matrix(6.4,0,0,6.4,42.9714,51.8924)">
                <path d="M0.364,-0.603L0.364,0L0.237,0L0.237,-0.603L0.01,-0.603L0.01,-0.715L0.602,-0.715L0.602,-0.603L0.364,-0.603Z" style="fill-rule:nonzero;"/>
            </g>
            <g transform="matrix(6.4,0,0,6.4,47.0151,51.8924)">
                <path d="M0.118,0L0.008,0L0.278,-0.718L0.387,-0.718L0.118,0Z" style="fill-rule:nonzero;"/>
            </g>
            <g transform="matrix(6.4,0,0,6.4,49.6399,51.8924)">
                <path d="M0.073,0L0.073,-0.715L0.2,-0.715L0.2,-0.113L0.523,-0.113L0.523,0L0.073,0Z" style="fill-rule:nonzero;"/>
            </g>
        </g>
    </g>
</svg>
