<?xml version="1.0" encoding="UTF-8" standalone="no"?>
<!DOCTYPE svg PUBLIC "-//W3C//DTD SVG 1.1//EN" "http://www.w3.org/Graphics/SVG/1.1/DTD/svg11.dtd">
<svg width="100%" height="100%" viewBox="0 0 75 380" version="1.1" xmlns="http://www.w3.org/2000/svg" xmlns:xlink="http://www.w3.org/1999/xlink" xml:space="preserve" xmlns:serif="http://www.serif.com/" style="fill-rule:evenodd;clip-rule:evenodd;stroke-linecap:round;stroke-linejoin:round;stroke-miterlimit:1.5;">
    <g id="panel" transform="matrix(0.834722,0,0,1.04324,-803.837,250.623)">
        <g transform="matrix(1.4975,0,0,0.958552,963,-240.235)">
            <rect x="0" y="0" width="60" height="380" style="fill:rgb(128,187,254);"/>
        </g>
        <g transform="matrix(4.01174,0,0,25.5659,813.011,-292.473)">
            <rect x="37.388" y="2.043" width="22.397" height="14.247" style="fill:none;stroke:black;stroke-opacity:0.6;stroke-width:0.03px;"/>
        </g>
        <g transform="matrix(0.531338,0,0,2.38646,978.958,-1069.43)">
            <rect x="-30.034" y="347.456" width="169.102" height="16.91" style="fill:rgb(4,4,4);fill-opacity:0.3;"/>
        </g>
        <g transform="matrix(1.198,0,0,0.958552,970.994,-205.504)">
            <g transform="matrix(13,0,0,13,12.2446,0)">
                <rect x="0.087" y="-0.756" width="0.161" height="0.756" style="fill-rule:nonzero;"/>
            </g>
            <g transform="matrix(13,0,0,13,16.6055,0)">
                <path d="M0.76,0L0.595,0L0.274,-0.489C0.258,-0.515 0.246,-0.535 0.238,-0.551L0.236,-0.551C0.239,-0.525 0.24,-0.485 0.24,-0.43L0.24,0L0.087,0L0.087,-0.756L0.263,-0.756L0.572,-0.281C0.592,-0.249 0.605,-0.229 0.609,-0.221L0.612,-0.221C0.609,-0.239 0.607,-0.274 0.607,-0.325L0.607,-0.756L0.76,-0.756L0.76,0Z" style="fill-rule:nonzero;"/>
            </g>
            <g transform="matrix(13,0,0,13,27.6314,0)">
                <path d="M0.519,-0.625L0.249,-0.625L0.249,-0.43L0.497,-0.43L0.497,-0.298L0.249,-0.298L0.249,0L0.087,0L0.087,-0.756L0.519,-0.756L0.519,-0.625Z" style="fill-rule:nonzero;"/>
            </g>
            <g transform="matrix(13,0,0,13,34.8867,0)">
                <rect x="0.087" y="-0.756" width="0.161" height="0.756" style="fill-rule:nonzero;"/>
            </g>
            <g transform="matrix(13,0,0,13,39.2476,0)">
                <path d="M0.695,0L0.503,0L0.368,-0.251C0.363,-0.26 0.358,-0.277 0.353,-0.3L0.351,-0.3C0.348,-0.289 0.342,-0.272 0.333,-0.25L0.197,0L0.004,0L0.247,-0.378L0.025,-0.756L0.221,-0.756L0.334,-0.525C0.343,-0.506 0.351,-0.485 0.357,-0.462L0.359,-0.462C0.366,-0.483 0.375,-0.505 0.384,-0.527L0.509,-0.756L0.689,-0.756L0.46,-0.381L0.695,0Z" style="fill-rule:nonzero;"/>
            </g>
        </g>
        <g transform="matrix(0.531338,0,0,2.03501,978.958,-617.315)">
            <rect x="-30.034" y="347.456" width="169.102" height="16.91" style="fill:rgb(4,4,4);fill-opacity:0.3;"/>
        </g>
        <g transform="matrix(0.48779,0,0,1.42457,1008.6,-264.868)">
            <path d="M73.138,59.615C73.138,58.13 68.736,56.924 63.314,56.924L14.931,56.924C9.509,56.924 5.107,58.13 5.107,59.615L5.107,81.013C5.107,82.498 9.509,83.704 14.931,83.704L63.314,83.704C68.736,83.704 73.138,82.498 73.138,81.013L73.138,59.615Z" style="fill-opacity:0.8;"/>
        </g>
        <g transform="matrix(1.198,0,0,0.958552,978.068,-225.026)">
            <g transform="matrix(6.4,0,0,6.4,33.2595,51.8924)">
                <path d="M0.356,-0.279L0.223,-0.279L0.223,-0.076C0.223,-0.047 0.216,-0.025 0.203,-0.01C0.189,0.005 0.172,0.012 0.151,0.012C0.129,0.012 0.111,0.005 0.098,-0.01C0.085,-0.025 0.078,-0.047 0.078,-0.075L0.078,-0.627C0.078,-0.659 0.085,-0.682 0.1,-0.695C0.115,-0.709 0.138,-0.716 0.17,-0.716L0.356,-0.716C0.411,-0.716 0.453,-0.712 0.483,-0.703C0.512,-0.695 0.538,-0.681 0.559,-0.663C0.58,-0.644 0.596,-0.621 0.607,-0.593C0.618,-0.566 0.624,-0.535 0.624,-0.501C0.624,-0.428 0.602,-0.373 0.557,-0.335C0.512,-0.298 0.445,-0.279 0.356,-0.279ZM0.321,-0.607L0.223,-0.607L0.223,-0.388L0.321,-0.388C0.355,-0.388 0.384,-0.392 0.406,-0.399C0.429,-0.406 0.447,-0.418 0.459,-0.434C0.471,-0.45 0.477,-0.472 0.477,-0.498C0.477,-0.53 0.468,-0.555 0.449,-0.575C0.428,-0.596 0.386,-0.607 0.321,-0.607Z" style="fill:white;fill-rule:nonzero;"/>
            </g>
            <g transform="matrix(6.4,0,0,6.4,37.6563,51.8924)">
                <path d="M0.393,-0.728C0.467,-0.728 0.531,-0.713 0.584,-0.683C0.637,-0.653 0.678,-0.61 0.705,-0.554C0.732,-0.499 0.746,-0.434 0.746,-0.359C0.746,-0.304 0.739,-0.253 0.724,-0.208C0.709,-0.163 0.686,-0.124 0.656,-0.09C0.626,-0.057 0.59,-0.032 0.546,-0.014C0.502,0.003 0.452,0.012 0.396,0.012C0.34,0.012 0.29,0.003 0.246,-0.015C0.201,-0.033 0.164,-0.058 0.135,-0.091C0.105,-0.124 0.083,-0.164 0.068,-0.21C0.052,-0.256 0.045,-0.306 0.045,-0.36C0.045,-0.415 0.053,-0.465 0.069,-0.511C0.084,-0.557 0.107,-0.596 0.137,-0.628C0.167,-0.661 0.204,-0.685 0.247,-0.702C0.29,-0.719 0.338,-0.728 0.393,-0.728ZM0.599,-0.36C0.599,-0.412 0.591,-0.458 0.574,-0.496C0.557,-0.535 0.533,-0.564 0.501,-0.583C0.47,-0.603 0.434,-0.613 0.393,-0.613C0.364,-0.613 0.337,-0.607 0.313,-0.596C0.288,-0.586 0.267,-0.57 0.249,-0.549C0.232,-0.528 0.218,-0.501 0.207,-0.469C0.197,-0.437 0.192,-0.4 0.192,-0.36C0.192,-0.319 0.197,-0.282 0.207,-0.25C0.218,-0.217 0.232,-0.189 0.251,-0.168C0.269,-0.146 0.291,-0.13 0.315,-0.119C0.339,-0.108 0.366,-0.103 0.395,-0.103C0.432,-0.103 0.466,-0.112 0.497,-0.131C0.528,-0.149 0.553,-0.178 0.572,-0.217C0.59,-0.256 0.599,-0.303 0.599,-0.36Z" style="fill:white;fill-rule:nonzero;"/>
            </g>
            <g transform="matrix(6.4,0,0,6.4,42.853,51.8924)">
                <path d="M0.22,-0.64L0.22,-0.119L0.514,-0.119C0.538,-0.119 0.556,-0.113 0.568,-0.102C0.581,-0.091 0.587,-0.076 0.587,-0.059C0.587,-0.042 0.581,-0.027 0.568,-0.016C0.556,-0.005 0.538,0 0.514,0L0.164,0C0.132,0 0.11,-0.007 0.096,-0.021C0.082,-0.035 0.075,-0.058 0.075,-0.089L0.075,-0.64C0.075,-0.669 0.082,-0.691 0.095,-0.706C0.108,-0.721 0.125,-0.728 0.147,-0.728C0.169,-0.728 0.186,-0.721 0.2,-0.706C0.213,-0.692 0.22,-0.67 0.22,-0.64Z" style="fill:white;fill-rule:nonzero;"/>
            </g>
            <g transform="matrix(6.4,0,0,6.4,46.0404,51.8924)">
                <path d="M0.238,-0.076L0.238,-0.303L0.063,-0.574C0.048,-0.599 0.037,-0.618 0.031,-0.631C0.024,-0.645 0.021,-0.657 0.021,-0.667C0.021,-0.684 0.027,-0.698 0.04,-0.71C0.053,-0.722 0.069,-0.728 0.088,-0.728C0.108,-0.728 0.123,-0.722 0.133,-0.711C0.143,-0.7 0.159,-0.678 0.179,-0.644L0.313,-0.427L0.448,-0.644C0.456,-0.657 0.463,-0.669 0.469,-0.678C0.474,-0.687 0.48,-0.695 0.487,-0.703C0.494,-0.711 0.501,-0.717 0.509,-0.722C0.517,-0.726 0.527,-0.728 0.539,-0.728C0.557,-0.728 0.573,-0.722 0.585,-0.71C0.597,-0.698 0.603,-0.685 0.603,-0.669C0.603,-0.656 0.6,-0.644 0.594,-0.631C0.588,-0.618 0.577,-0.601 0.562,-0.578L0.383,-0.303L0.383,-0.076C0.383,-0.047 0.376,-0.024 0.362,-0.01C0.349,0.005 0.331,0.012 0.31,0.012C0.289,0.012 0.271,0.005 0.258,-0.01C0.244,-0.024 0.238,-0.046 0.238,-0.076Z" style="fill:white;fill-rule:nonzero;"/>
            </g>
        </g>
        <g transform="matrix(0.487424,0,0,1.42457,968.657,-264.868)">
            <path d="M73.138,59.615C73.138,58.13 68.732,56.924 63.306,56.924L14.938,56.924C9.512,56.924 5.107,58.13 5.107,59.615L5.107,81.013C5.107,82.498 9.512,83.704 14.938,83.704L63.306,83.704C68.732,83.704 73.138,82.498 73.138,81.013L73.138,59.615Z" style="fill:white;fill-opacity:0.7;"/>
        </g>
        <g transform="matrix(0.487424,0,0,8.25032,968.657,-605.679)">
            <path d="M73.138,57.388C73.138,57.132 68.732,56.924 63.306,56.924L14.938,56.924C9.512,56.924 5.107,57.132 5.107,57.388L5.107,83.239C5.107,83.496 9.512,83.704 14.938,83.704L63.306,83.704C68.732,83.704 73.138,83.496 73.138,83.239L73.138,57.388Z" style="fill:white;fill-opacity:0.7;"/>
        </g>
        <g transform="matrix(0.487424,0,0,8.25032,1008.55,-605.679)">
            <path d="M73.138,57.388C73.138,57.132 68.732,56.924 63.306,56.924L14.938,56.924C9.512,56.924 5.107,57.132 5.107,57.388L5.107,83.239C5.107,83.496 9.512,83.704 14.938,83.704L63.306,83.704C68.732,83.704 73.138,83.496 73.138,83.239L73.138,57.388Z" style="fill:white;fill-opacity:0.7;"/>
        </g>
        <g transform="matrix(1.198,0,0,0.958552,938.108,-225.026)">
            <g transform="matrix(6.4,0,0,6.4,33.2595,51.8924)">
                <path d="M0.356,-0.279L0.223,-0.279L0.223,-0.076C0.223,-0.047 0.216,-0.025 0.203,-0.01C0.189,0.005 0.172,0.012 0.151,0.012C0.129,0.012 0.111,0.005 0.098,-0.01C0.085,-0.025 0.078,-0.047 0.078,-0.075L0.078,-0.627C0.078,-0.659 0.085,-0.682 0.1,-0.695C0.115,-0.709 0.138,-0.716 0.17,-0.716L0.356,-0.716C0.411,-0.716 0.453,-0.712 0.483,-0.703C0.512,-0.695 0.538,-0.681 0.559,-0.663C0.58,-0.644 0.596,-0.621 0.607,-0.593C0.618,-0.566 0.624,-0.535 0.624,-0.501C0.624,-0.428 0.602,-0.373 0.557,-0.335C0.512,-0.298 0.445,-0.279 0.356,-0.279ZM0.321,-0.607L0.223,-0.607L0.223,-0.388L0.321,-0.388C0.355,-0.388 0.384,-0.392 0.406,-0.399C0.429,-0.406 0.447,-0.418 0.459,-0.434C0.471,-0.45 0.477,-0.472 0.477,-0.498C0.477,-0.53 0.468,-0.555 0.449,-0.575C0.428,-0.596 0.386,-0.607 0.321,-0.607Z" style="fill-rule:nonzero;"/>
            </g>
            <g transform="matrix(6.4,0,0,6.4,37.6563,51.8924)">
                <path d="M0.393,-0.728C0.467,-0.728 0.531,-0.713 0.584,-0.683C0.637,-0.653 0.678,-0.61 0.705,-0.554C0.732,-0.499 0.746,-0.434 0.746,-0.359C0.746,-0.304 0.739,-0.253 0.724,-0.208C0.709,-0.163 0.686,-0.124 0.656,-0.09C0.626,-0.057 0.59,-0.032 0.546,-0.014C0.502,0.003 0.452,0.012 0.396,0.012C0.34,0.012 0.29,0.003 0.246,-0.015C0.201,-0.033 0.164,-0.058 0.135,-0.091C0.105,-0.124 0.083,-0.164 0.068,-0.21C0.052,-0.256 0.045,-0.306 0.045,-0.36C0.045,-0.415 0.053,-0.465 0.069,-0.511C0.084,-0.557 0.107,-0.596 0.137,-0.628C0.167,-0.661 0.204,-0.685 0.247,-0.702C0.29,-0.719 0.338,-0.728 0.393,-0.728ZM0.599,-0.36C0.599,-0.412 0.591,-0.458 0.574,-0.496C0.557,-0.535 0.533,-0.564 0.501,-0.583C0.47,-0.603 0.434,-0.613 0.393,-0.613C0.364,-0.613 0.337,-0.607 0.313,-0.596C0.288,-0.586 0.267,-0.57 0.249,-0.549C0.232,-0.528 0.218,-0.501 0.207,-0.469C0.197,-0.437 0.192,-0.4 0.192,-0.36C0.192,-0.319 0.197,-0.282 0.207,-0.25C0.218,-0.217 0.232,-0.189 0.251,-0.168C0.269,-0.146 0.291,-0.13 0.315,-0.119C0.339,-0.108 0.366,-0.103 0.395,-0.103C0.432,-0.103 0.466,-0.112 0.497,-0.131C0.528,-0.149 0.553,-0.178 0.572,-0.217C0.59,-0.256 0.599,-0.303 0.599,-0.36Z" style="fill-rule:nonzero;"/>
            </g>
            <g transform="matrix(6.4,0,0,6.4,42.853,51.8924)">
                <path d="M0.22,-0.64L0.22,-0.119L0.514,-0.119C0.538,-0.119 0.556,-0.113 0.568,-0.102C0.581,-0.091 0.587,-0.076 0.587,-0.059C0.587,-0.042 0.581,-0.027 0.568,-0.016C0.556,-0.005 0.538,0 0.514,0L0.164,0C0.132,0 0.11,-0.007 0.096,-0.021C0.082,-0.035 0.075,-0.058 0.075,-0.089L0.075,-0.64C0.075,-0.669 0.082,-0.691 0.095,-0.706C0.108,-0.721 0.125,-0.728 0.147,-0.728C0.169,-0.728 0.186,-0.721 0.2,-0.706C0.213,-0.692 0.22,-0.67 0.22,-0.64Z" style="fill-rule:nonzero;"/>
            </g>
            <g transform="matrix(6.4,0,0,6.4,46.0404,51.8924)">
                <path d="M0.238,-0.076L0.238,-0.303L0.063,-0.574C0.048,-0.599 0.037,-0.618 0.031,-0.631C0.024,-0.645 0.021,-0.657 0.021,-0.667C0.021,-0.684 0.027,-0.698 0.04,-0.71C0.053,-0.722 0.069,-0.728 0.088,-0.728C0.108,-0.728 0.123,-0.722 0.133,-0.711C0.143,-0.7 0.159,-0.678 0.179,-0.644L0.313,-0.427L0.448,-0.644C0.456,-0.657 0.463,-0.669 0.469,-0.678C0.474,-0.687 0.48,-0.695 0.487,-0.703C0.494,-0.711 0.501,-0.717 0.509,-0.722C0.517,-0.726 0.527,-0.728 0.539,-0.728C0.557,-0.728 0.573,-0.722 0.585,-0.71C0.597,-0.698 0.603,-0.685 0.603,-0.669C0.603,-0.656 0.6,-0.644 0.594,-0.631C0.588,-0.618 0.577,-0.601 0.562,-0.578L0.383,-0.303L0.383,-0.076C0.383,-0.047 0.376,-0.024 0.362,-0.01C0.349,0.005 0.331,0.012 0.31,0.012C0.289,0.012 0.271,0.005 0.258,-0.01C0.244,-0.024 0.238,-0.046 0.238,-0.076Z" style="fill-rule:nonzero;"/>
            </g>
        </g>
        <g transform="matrix(1.198,0,0,0.958552,938.311,-178.86)">
            <g transform="matrix(6.4,0,0,6.4,32.3093,51.8924)">
                <path d="M0.547,-0.351C0.547,-0.298 0.544,-0.252 0.537,-0.213C0.531,-0.175 0.519,-0.14 0.501,-0.109C0.479,-0.07 0.45,-0.041 0.415,-0.02C0.38,0.001 0.341,0.011 0.298,0.011C0.248,0.011 0.204,-0.003 0.165,-0.031C0.126,-0.059 0.096,-0.097 0.076,-0.147C0.066,-0.174 0.059,-0.204 0.054,-0.237C0.049,-0.269 0.047,-0.305 0.047,-0.343C0.047,-0.392 0.049,-0.436 0.055,-0.476C0.06,-0.515 0.068,-0.549 0.079,-0.577C0.098,-0.624 0.126,-0.66 0.163,-0.684C0.199,-0.709 0.243,-0.721 0.294,-0.721C0.327,-0.721 0.358,-0.716 0.385,-0.705C0.413,-0.694 0.437,-0.678 0.457,-0.657C0.478,-0.636 0.495,-0.61 0.51,-0.579C0.535,-0.525 0.547,-0.449 0.547,-0.351ZM0.413,-0.361C0.413,-0.42 0.41,-0.469 0.402,-0.507C0.395,-0.545 0.383,-0.574 0.366,-0.593C0.349,-0.612 0.326,-0.622 0.296,-0.622C0.253,-0.622 0.223,-0.6 0.206,-0.557C0.19,-0.514 0.181,-0.447 0.181,-0.357C0.181,-0.296 0.185,-0.246 0.192,-0.207C0.199,-0.167 0.211,-0.138 0.228,-0.118C0.245,-0.098 0.268,-0.088 0.297,-0.088C0.327,-0.088 0.35,-0.098 0.367,-0.119C0.384,-0.14 0.396,-0.17 0.403,-0.208C0.41,-0.247 0.413,-0.298 0.413,-0.361Z" style="fill-rule:nonzero;"/>
            </g>
            <g transform="matrix(6.4,0,0,6.4,36.2404,51.8924)">
                <path d="M0.282,-0.067L0.282,-0.511C0.2,-0.448 0.144,-0.416 0.115,-0.416C0.102,-0.416 0.089,-0.421 0.079,-0.432C0.068,-0.443 0.063,-0.456 0.063,-0.47C0.063,-0.487 0.068,-0.499 0.079,-0.507C0.089,-0.515 0.107,-0.525 0.134,-0.537C0.173,-0.556 0.205,-0.575 0.228,-0.596C0.252,-0.616 0.273,-0.639 0.291,-0.665C0.309,-0.69 0.321,-0.706 0.327,-0.711C0.332,-0.717 0.343,-0.72 0.358,-0.72C0.375,-0.72 0.389,-0.714 0.399,-0.7C0.41,-0.687 0.415,-0.668 0.415,-0.645L0.415,-0.086C0.415,-0.021 0.393,0.012 0.348,0.012C0.328,0.012 0.312,0.006 0.3,-0.008C0.288,-0.021 0.282,-0.041 0.282,-0.067Z" style="fill-rule:nonzero;"/>
            </g>
            <g transform="matrix(6.4,0,0,6.4,40.1716,51.8924)">
                <path d="M0.244,-0.201L0.09,-0.201C0.066,-0.201 0.049,-0.207 0.036,-0.218C0.024,-0.228 0.018,-0.243 0.018,-0.26C0.018,-0.277 0.024,-0.292 0.036,-0.302C0.048,-0.313 0.066,-0.319 0.09,-0.319L0.244,-0.319C0.268,-0.319 0.286,-0.313 0.298,-0.302C0.31,-0.292 0.316,-0.277 0.316,-0.26C0.316,-0.243 0.31,-0.228 0.298,-0.218C0.287,-0.207 0.269,-0.201 0.244,-0.201Z" style="fill-rule:nonzero;"/>
            </g>
            <g transform="matrix(6.4,0,0,6.4,42.4308,51.8924)">
                <path d="M0.547,-0.351C0.547,-0.298 0.544,-0.252 0.537,-0.213C0.531,-0.175 0.519,-0.14 0.501,-0.109C0.479,-0.07 0.45,-0.041 0.415,-0.02C0.38,0.001 0.341,0.011 0.298,0.011C0.248,0.011 0.204,-0.003 0.165,-0.031C0.126,-0.059 0.096,-0.097 0.076,-0.147C0.066,-0.174 0.059,-0.204 0.054,-0.237C0.049,-0.269 0.047,-0.305 0.047,-0.343C0.047,-0.392 0.049,-0.436 0.055,-0.476C0.06,-0.515 0.068,-0.549 0.079,-0.577C0.098,-0.624 0.126,-0.66 0.163,-0.684C0.199,-0.709 0.243,-0.721 0.294,-0.721C0.327,-0.721 0.358,-0.716 0.385,-0.705C0.413,-0.694 0.437,-0.678 0.457,-0.657C0.478,-0.636 0.495,-0.61 0.51,-0.579C0.535,-0.525 0.547,-0.449 0.547,-0.351ZM0.413,-0.361C0.413,-0.42 0.41,-0.469 0.402,-0.507C0.395,-0.545 0.383,-0.574 0.366,-0.593C0.349,-0.612 0.326,-0.622 0.296,-0.622C0.253,-0.622 0.223,-0.6 0.206,-0.557C0.19,-0.514 0.181,-0.447 0.181,-0.357C0.181,-0.296 0.185,-0.246 0.192,-0.207C0.199,-0.167 0.211,-0.138 0.228,-0.118C0.245,-0.098 0.268,-0.088 0.297,-0.088C0.327,-0.088 0.35,-0.098 0.367,-0.119C0.384,-0.14 0.396,-0.17 0.403,-0.208C0.41,-0.247 0.413,-0.298 0.413,-0.361Z" style="fill-rule:nonzero;"/>
            </g>
            <g transform="matrix(6.4,0,0,6.4,46.3619,51.8924)">
                <path d="M0.067,-0.534C0.067,-0.567 0.076,-0.597 0.094,-0.626C0.111,-0.655 0.137,-0.678 0.172,-0.695C0.206,-0.713 0.246,-0.721 0.292,-0.721C0.331,-0.721 0.365,-0.716 0.394,-0.706C0.423,-0.696 0.448,-0.682 0.467,-0.664C0.487,-0.647 0.501,-0.627 0.511,-0.604C0.52,-0.582 0.525,-0.558 0.525,-0.533C0.525,-0.501 0.517,-0.473 0.5,-0.448C0.484,-0.423 0.459,-0.402 0.427,-0.386C0.454,-0.375 0.477,-0.361 0.496,-0.344C0.514,-0.327 0.528,-0.306 0.537,-0.283C0.546,-0.26 0.551,-0.235 0.551,-0.207C0.551,-0.166 0.541,-0.129 0.521,-0.095C0.501,-0.062 0.472,-0.036 0.434,-0.017C0.395,0.002 0.35,0.011 0.298,0.011C0.244,0.011 0.198,0.002 0.159,-0.017C0.121,-0.036 0.092,-0.062 0.072,-0.095C0.053,-0.128 0.043,-0.165 0.043,-0.206C0.043,-0.294 0.084,-0.354 0.167,-0.386C0.1,-0.417 0.067,-0.467 0.067,-0.534ZM0.417,-0.211C0.417,-0.236 0.412,-0.258 0.401,-0.277C0.391,-0.296 0.376,-0.311 0.357,-0.321C0.339,-0.331 0.317,-0.336 0.294,-0.336C0.261,-0.336 0.233,-0.325 0.21,-0.303C0.188,-0.281 0.177,-0.25 0.177,-0.21C0.177,-0.185 0.182,-0.162 0.193,-0.143C0.203,-0.123 0.218,-0.108 0.236,-0.098C0.254,-0.087 0.274,-0.082 0.297,-0.082C0.32,-0.082 0.34,-0.087 0.358,-0.098C0.377,-0.109 0.391,-0.124 0.401,-0.144C0.412,-0.163 0.417,-0.186 0.417,-0.211ZM0.295,-0.628C0.264,-0.628 0.24,-0.618 0.221,-0.599C0.202,-0.58 0.193,-0.556 0.193,-0.526C0.193,-0.498 0.202,-0.475 0.222,-0.457C0.241,-0.438 0.266,-0.429 0.296,-0.429C0.311,-0.429 0.325,-0.432 0.338,-0.437C0.35,-0.441 0.361,-0.448 0.37,-0.457C0.379,-0.465 0.386,-0.476 0.391,-0.488C0.396,-0.499 0.398,-0.513 0.398,-0.527C0.398,-0.546 0.394,-0.563 0.385,-0.579C0.376,-0.594 0.364,-0.606 0.349,-0.615C0.333,-0.624 0.315,-0.628 0.295,-0.628Z" style="fill-rule:nonzero;"/>
            </g>
        </g>
        <g transform="matrix(1.198,0,0,0.958552,978.18,-178.86)">
            <g transform="matrix(6.4,0,0,6.4,32.3093,51.8924)">
                <path d="M0.547,-0.351C0.547,-0.298 0.544,-0.252 0.537,-0.213C0.531,-0.175 0.519,-0.14 0.501,-0.109C0.479,-0.07 0.45,-0.041 0.415,-0.02C0.38,0.001 0.341,0.011 0.298,0.011C0.248,0.011 0.204,-0.003 0.165,-0.031C0.126,-0.059 0.096,-0.097 0.076,-0.147C0.066,-0.174 0.059,-0.204 0.054,-0.237C0.049,-0.269 0.047,-0.305 0.047,-0.343C0.047,-0.392 0.049,-0.436 0.055,-0.476C0.06,-0.515 0.068,-0.549 0.079,-0.577C0.098,-0.624 0.126,-0.66 0.163,-0.684C0.199,-0.709 0.243,-0.721 0.294,-0.721C0.327,-0.721 0.358,-0.716 0.385,-0.705C0.413,-0.694 0.437,-0.678 0.457,-0.657C0.478,-0.636 0.495,-0.61 0.51,-0.579C0.535,-0.525 0.547,-0.449 0.547,-0.351ZM0.413,-0.361C0.413,-0.42 0.41,-0.469 0.402,-0.507C0.395,-0.545 0.383,-0.574 0.366,-0.593C0.349,-0.612 0.326,-0.622 0.296,-0.622C0.253,-0.622 0.223,-0.6 0.206,-0.557C0.19,-0.514 0.181,-0.447 0.181,-0.357C0.181,-0.296 0.185,-0.246 0.192,-0.207C0.199,-0.167 0.211,-0.138 0.228,-0.118C0.245,-0.098 0.268,-0.088 0.297,-0.088C0.327,-0.088 0.35,-0.098 0.367,-0.119C0.384,-0.14 0.396,-0.17 0.403,-0.208C0.41,-0.247 0.413,-0.298 0.413,-0.361Z" style="fill-rule:nonzero;"/>
            </g>
            <g transform="matrix(6.4,0,0,6.4,36.2404,51.8924)">
                <path d="M0.407,-0.321C0.386,-0.295 0.362,-0.276 0.335,-0.263C0.309,-0.251 0.279,-0.244 0.247,-0.244C0.216,-0.244 0.188,-0.25 0.161,-0.262C0.135,-0.274 0.112,-0.29 0.093,-0.312C0.073,-0.333 0.058,-0.358 0.048,-0.386C0.037,-0.415 0.032,-0.445 0.032,-0.476C0.032,-0.51 0.038,-0.541 0.05,-0.572C0.062,-0.602 0.078,-0.628 0.1,-0.65C0.122,-0.672 0.148,-0.689 0.178,-0.702C0.208,-0.714 0.241,-0.72 0.278,-0.72C0.32,-0.72 0.357,-0.713 0.39,-0.697C0.423,-0.682 0.451,-0.66 0.473,-0.631C0.496,-0.601 0.513,-0.565 0.525,-0.521C0.537,-0.476 0.543,-0.426 0.543,-0.37C0.543,-0.308 0.537,-0.253 0.524,-0.205C0.511,-0.157 0.493,-0.117 0.469,-0.085C0.444,-0.052 0.415,-0.028 0.381,-0.012C0.347,0.003 0.309,0.011 0.266,0.011C0.224,0.011 0.187,0.003 0.156,-0.013C0.125,-0.029 0.101,-0.049 0.084,-0.073C0.068,-0.097 0.06,-0.12 0.06,-0.142C0.06,-0.156 0.065,-0.168 0.075,-0.179C0.085,-0.189 0.098,-0.195 0.114,-0.195C0.128,-0.195 0.141,-0.191 0.152,-0.183C0.164,-0.175 0.172,-0.163 0.178,-0.147C0.185,-0.127 0.197,-0.112 0.214,-0.1C0.23,-0.088 0.249,-0.082 0.27,-0.082C0.289,-0.082 0.306,-0.087 0.323,-0.096C0.339,-0.106 0.354,-0.119 0.365,-0.136C0.389,-0.171 0.403,-0.233 0.407,-0.321ZM0.396,-0.47C0.396,-0.492 0.393,-0.513 0.387,-0.531C0.381,-0.55 0.372,-0.566 0.362,-0.58C0.351,-0.594 0.338,-0.604 0.323,-0.612C0.307,-0.62 0.291,-0.624 0.273,-0.624C0.242,-0.624 0.216,-0.611 0.194,-0.584C0.173,-0.558 0.162,-0.523 0.162,-0.479C0.162,-0.436 0.173,-0.401 0.194,-0.375C0.216,-0.35 0.243,-0.337 0.276,-0.337C0.296,-0.337 0.315,-0.342 0.334,-0.353C0.352,-0.363 0.367,-0.379 0.379,-0.399C0.39,-0.419 0.396,-0.443 0.396,-0.47Z" style="fill-rule:nonzero;"/>
            </g>
            <g transform="matrix(6.4,0,0,6.4,40.1716,51.8924)">
                <path d="M0.244,-0.201L0.09,-0.201C0.066,-0.201 0.049,-0.207 0.036,-0.218C0.024,-0.228 0.018,-0.243 0.018,-0.26C0.018,-0.277 0.024,-0.292 0.036,-0.302C0.048,-0.313 0.066,-0.319 0.09,-0.319L0.244,-0.319C0.268,-0.319 0.286,-0.313 0.298,-0.302C0.31,-0.292 0.316,-0.277 0.316,-0.26C0.316,-0.243 0.31,-0.228 0.298,-0.218C0.287,-0.207 0.269,-0.201 0.244,-0.201Z" style="fill-rule:nonzero;"/>
            </g>
            <g transform="matrix(6.4,0,0,6.4,42.4308,51.8924)">
                <path d="M0.282,-0.067L0.282,-0.511C0.2,-0.448 0.144,-0.416 0.115,-0.416C0.102,-0.416 0.089,-0.421 0.079,-0.432C0.068,-0.443 0.063,-0.456 0.063,-0.47C0.063,-0.487 0.068,-0.499 0.079,-0.507C0.089,-0.515 0.107,-0.525 0.134,-0.537C0.173,-0.556 0.205,-0.575 0.228,-0.596C0.252,-0.616 0.273,-0.639 0.291,-0.665C0.309,-0.69 0.321,-0.706 0.327,-0.711C0.332,-0.717 0.343,-0.72 0.358,-0.72C0.375,-0.72 0.389,-0.714 0.399,-0.7C0.41,-0.687 0.415,-0.668 0.415,-0.645L0.415,-0.086C0.415,-0.021 0.393,0.012 0.348,0.012C0.328,0.012 0.312,0.006 0.3,-0.008C0.288,-0.021 0.282,-0.041 0.282,-0.067Z" style="fill-rule:nonzero;"/>
            </g>
            <g transform="matrix(6.4,0,0,6.4,46.3619,51.8924)">
                <path d="M0.181,-0.387C0.203,-0.414 0.227,-0.433 0.253,-0.446C0.279,-0.458 0.309,-0.465 0.341,-0.465C0.372,-0.465 0.4,-0.459 0.427,-0.448C0.453,-0.436 0.476,-0.42 0.495,-0.398C0.515,-0.377 0.53,-0.352 0.541,-0.323C0.552,-0.294 0.557,-0.264 0.557,-0.232C0.557,-0.186 0.547,-0.144 0.526,-0.107C0.505,-0.069 0.475,-0.04 0.438,-0.019C0.4,0.002 0.358,0.012 0.31,0.012C0.255,0.012 0.208,-0.001 0.168,-0.028C0.129,-0.055 0.098,-0.094 0.077,-0.146C0.056,-0.198 0.046,-0.262 0.046,-0.338C0.046,-0.399 0.052,-0.454 0.065,-0.503C0.078,-0.551 0.096,-0.592 0.12,-0.624C0.143,-0.655 0.172,-0.68 0.206,-0.696C0.24,-0.712 0.278,-0.72 0.322,-0.72C0.363,-0.72 0.4,-0.712 0.432,-0.696C0.464,-0.68 0.488,-0.659 0.504,-0.635C0.52,-0.611 0.528,-0.588 0.528,-0.566C0.528,-0.553 0.523,-0.54 0.513,-0.53C0.503,-0.519 0.49,-0.513 0.474,-0.513C0.46,-0.513 0.448,-0.517 0.436,-0.526C0.424,-0.535 0.416,-0.547 0.41,-0.562C0.403,-0.582 0.391,-0.597 0.375,-0.609C0.358,-0.621 0.339,-0.627 0.318,-0.627C0.301,-0.627 0.283,-0.622 0.266,-0.612C0.249,-0.602 0.235,-0.589 0.223,-0.572C0.199,-0.537 0.185,-0.476 0.181,-0.387ZM0.313,-0.084C0.346,-0.084 0.373,-0.097 0.395,-0.124C0.416,-0.151 0.427,-0.186 0.427,-0.23C0.427,-0.26 0.422,-0.285 0.412,-0.306C0.402,-0.328 0.388,-0.344 0.37,-0.355C0.353,-0.366 0.333,-0.372 0.312,-0.372C0.292,-0.372 0.273,-0.367 0.254,-0.356C0.236,-0.345 0.221,-0.33 0.21,-0.309C0.198,-0.289 0.193,-0.265 0.193,-0.238C0.193,-0.194 0.204,-0.157 0.227,-0.128C0.25,-0.099 0.278,-0.084 0.313,-0.084Z" style="fill-rule:nonzero;"/>
            </g>
        </g>
        <g transform="matrix(1,0,0,1,17.8317,0)">
            <g transform="matrix(1.198,0,0,0.958552,893.633,-224.914)">
                <g transform="matrix(9,0,0,9,64.0056,347.267)">
                    <path d="M0.919,0L0.762,0L0.762,-0.308C0.762,-0.391 0.732,-0.432 0.671,-0.432C0.643,-0.432 0.62,-0.42 0.602,-0.395C0.583,-0.369 0.574,-0.339 0.574,-0.303L0.574,0L0.417,0L0.417,-0.312C0.417,-0.392 0.387,-0.432 0.327,-0.432C0.298,-0.432 0.274,-0.42 0.256,-0.396C0.238,-0.372 0.229,-0.341 0.229,-0.301L0.229,0L0.072,0L0.072,-0.54L0.229,-0.54L0.229,-0.456L0.231,-0.456C0.25,-0.486 0.275,-0.51 0.307,-0.528C0.338,-0.545 0.371,-0.553 0.405,-0.553C0.481,-0.553 0.533,-0.519 0.561,-0.451C0.603,-0.519 0.663,-0.553 0.743,-0.553C0.86,-0.553 0.919,-0.481 0.919,-0.335L0.919,0Z" style="fill:rgb(10,1,1);fill-rule:nonzero;"/>
                </g>
                <g transform="matrix(9,0,0,9,72.978,347.267)">
                    <path d="M0.551,-0.226L0.196,-0.226C0.201,-0.142 0.252,-0.1 0.347,-0.1C0.407,-0.1 0.459,-0.115 0.505,-0.144L0.505,-0.028C0.456,-0.001 0.391,0.013 0.312,0.013C0.226,0.013 0.159,-0.011 0.111,-0.06C0.063,-0.108 0.04,-0.176 0.04,-0.262C0.04,-0.348 0.065,-0.419 0.116,-0.472C0.167,-0.526 0.23,-0.553 0.307,-0.553C0.384,-0.553 0.443,-0.53 0.487,-0.484C0.53,-0.437 0.551,-0.374 0.551,-0.292L0.551,-0.226ZM0.404,-0.324C0.404,-0.405 0.372,-0.445 0.306,-0.445C0.279,-0.445 0.255,-0.434 0.234,-0.412C0.214,-0.39 0.201,-0.361 0.195,-0.324L0.404,-0.324Z" style="fill:rgb(10,1,1);fill-rule:nonzero;"/>
                </g>
                <g transform="matrix(9,0,0,9,78.3513,347.267)">
                    <rect x="0.069" y="-0.799" width="0.157" height="0.799" style="fill:rgb(10,1,1);fill-rule:nonzero;"/>
                </g>
                <g transform="matrix(9,0,0,9,81.1494,347.267)">
                    <path d="M0.593,0L0.436,0L0.436,-0.076L0.433,-0.076C0.395,-0.017 0.339,0.013 0.264,0.013C0.195,0.013 0.141,-0.011 0.1,-0.06C0.06,-0.108 0.04,-0.174 0.04,-0.258C0.04,-0.346 0.062,-0.418 0.108,-0.472C0.153,-0.526 0.212,-0.553 0.286,-0.553C0.356,-0.553 0.405,-0.528 0.433,-0.477L0.436,-0.477L0.438,-0.707L0.593,-0.658L0.593,0ZM0.438,-0.306C0.438,-0.342 0.427,-0.372 0.405,-0.396C0.383,-0.42 0.356,-0.432 0.323,-0.432C0.284,-0.432 0.254,-0.417 0.232,-0.386C0.21,-0.356 0.199,-0.315 0.199,-0.263C0.199,-0.213 0.21,-0.175 0.231,-0.148C0.252,-0.121 0.281,-0.108 0.318,-0.108C0.353,-0.108 0.382,-0.122 0.404,-0.15C0.427,-0.179 0.438,-0.215 0.438,-0.261L0.438,-0.306Z" style="fill:rgb(10,1,1);fill-rule:nonzero;"/>
                </g>
                <g transform="matrix(9,0,0,9,87.2654,347.267)">
                    <path d="M0.551,-0.226L0.196,-0.226C0.201,-0.142 0.252,-0.1 0.347,-0.1C0.407,-0.1 0.459,-0.115 0.505,-0.144L0.505,-0.028C0.456,-0.001 0.391,0.013 0.312,0.013C0.226,0.013 0.159,-0.011 0.111,-0.06C0.063,-0.108 0.04,-0.176 0.04,-0.262C0.04,-0.348 0.065,-0.419 0.116,-0.472C0.167,-0.526 0.23,-0.553 0.307,-0.553C0.384,-0.553 0.443,-0.53 0.487,-0.484C0.53,-0.437 0.551,-0.374 0.551,-0.292L0.551,-0.226ZM0.404,-0.324C0.404,-0.405 0.372,-0.445 0.306,-0.445C0.279,-0.445 0.255,-0.434 0.234,-0.412C0.214,-0.39 0.201,-0.361 0.195,-0.324L0.404,-0.324Z" style="fill:rgb(10,1,1);fill-rule:nonzero;"/>
                </g>
                <g transform="matrix(9,0,0,9,92.6386,347.267)">
                    <path d="M0.416,-0.397C0.397,-0.408 0.374,-0.414 0.346,-0.414C0.31,-0.414 0.282,-0.4 0.261,-0.373C0.24,-0.345 0.229,-0.308 0.229,-0.26L0.229,0L0.072,0L0.072,-0.54L0.229,-0.54L0.229,-0.438L0.231,-0.438C0.257,-0.512 0.305,-0.549 0.374,-0.549C0.392,-0.549 0.406,-0.547 0.416,-0.543L0.416,-0.397Z" style="fill:rgb(10,1,1);fill-rule:nonzero;"/>
                </g>
            </g>
            <g transform="matrix(1.198,0,0,0.958552,893.495,-231.786)">
                <g transform="matrix(9,0,0,9,68.6657,347.267)">
                    <path d="M0.058,-0.145C0.112,-0.112 0.165,-0.096 0.216,-0.096C0.281,-0.096 0.314,-0.113 0.314,-0.148C0.314,-0.173 0.287,-0.193 0.233,-0.21C0.166,-0.231 0.12,-0.254 0.095,-0.28C0.07,-0.305 0.058,-0.34 0.058,-0.383C0.058,-0.436 0.079,-0.478 0.122,-0.508C0.165,-0.538 0.221,-0.553 0.291,-0.553C0.34,-0.553 0.388,-0.546 0.434,-0.531L0.434,-0.407C0.392,-0.432 0.346,-0.444 0.295,-0.444C0.27,-0.444 0.25,-0.44 0.235,-0.431C0.22,-0.422 0.212,-0.41 0.212,-0.396C0.212,-0.371 0.235,-0.351 0.28,-0.335C0.329,-0.319 0.366,-0.304 0.39,-0.291C0.415,-0.278 0.434,-0.26 0.447,-0.238C0.459,-0.216 0.466,-0.191 0.466,-0.163C0.466,-0.107 0.444,-0.064 0.399,-0.033C0.354,-0.002 0.295,0.013 0.22,0.013C0.162,0.013 0.107,0.004 0.058,-0.015L0.058,-0.145Z" style="fill:rgb(10,1,1);fill-rule:nonzero;"/>
                </g>
                <g transform="matrix(9,0,0,9,73.2436,347.267)">
                    <path d="M0.39,-0.006C0.366,0.007 0.33,0.013 0.282,0.013C0.167,0.013 0.11,-0.047 0.11,-0.167L0.11,-0.422L0.021,-0.422L0.021,-0.54L0.11,-0.54L0.11,-0.659L0.267,-0.704L0.267,-0.54L0.39,-0.54L0.39,-0.422L0.267,-0.422L0.267,-0.195C0.267,-0.137 0.289,-0.108 0.335,-0.108C0.353,-0.108 0.371,-0.114 0.39,-0.124L0.39,-0.006Z" style="fill:rgb(10,1,1);fill-rule:nonzero;"/>
                </g>
                <g transform="matrix(6.6,0,0,6.6,77.1051,347.267)">
                    <path d="M0.106,0.032L0.043,-0.021L0.122,-0.115C0.067,-0.183 0.04,-0.268 0.04,-0.368C0.04,-0.487 0.075,-0.584 0.144,-0.658C0.213,-0.732 0.305,-0.769 0.418,-0.769C0.5,-0.769 0.571,-0.748 0.63,-0.706L0.698,-0.785L0.761,-0.733L0.689,-0.65C0.748,-0.581 0.778,-0.493 0.778,-0.384C0.778,-0.266 0.743,-0.17 0.674,-0.097C0.605,-0.023 0.516,0.013 0.406,0.013C0.32,0.013 0.246,-0.011 0.182,-0.059L0.106,0.032ZM0.54,-0.6C0.506,-0.628 0.463,-0.642 0.413,-0.642C0.349,-0.642 0.297,-0.617 0.258,-0.569C0.218,-0.52 0.199,-0.455 0.199,-0.375C0.199,-0.319 0.208,-0.273 0.227,-0.234L0.54,-0.6ZM0.275,-0.165C0.311,-0.131 0.356,-0.114 0.409,-0.114C0.473,-0.114 0.524,-0.137 0.563,-0.184C0.601,-0.231 0.62,-0.294 0.62,-0.374C0.62,-0.435 0.61,-0.488 0.588,-0.533L0.275,-0.165Z" style="fill-rule:nonzero;"/>
                </g>
                <g transform="matrix(9,0,0,9,82.6053,347.267)">
                    <path d="M0.551,-0.226L0.196,-0.226C0.201,-0.142 0.252,-0.1 0.347,-0.1C0.407,-0.1 0.459,-0.115 0.505,-0.144L0.505,-0.028C0.456,-0.001 0.391,0.013 0.312,0.013C0.226,0.013 0.159,-0.011 0.111,-0.06C0.063,-0.108 0.04,-0.176 0.04,-0.262C0.04,-0.348 0.065,-0.419 0.116,-0.472C0.167,-0.526 0.23,-0.553 0.307,-0.553C0.384,-0.553 0.443,-0.53 0.487,-0.484C0.53,-0.437 0.551,-0.374 0.551,-0.292L0.551,-0.226ZM0.404,-0.324C0.404,-0.405 0.372,-0.445 0.306,-0.445C0.279,-0.445 0.255,-0.434 0.234,-0.412C0.214,-0.39 0.201,-0.361 0.195,-0.324L0.404,-0.324Z" style="fill:rgb(10,1,1);fill-rule:nonzero;"/>
                </g>
                <g transform="matrix(9,0,0,9,87.9786,347.267)">
                    <path d="M0.416,-0.397C0.397,-0.408 0.374,-0.414 0.346,-0.414C0.31,-0.414 0.282,-0.4 0.261,-0.373C0.24,-0.345 0.229,-0.308 0.229,-0.26L0.229,0L0.072,0L0.072,-0.54L0.229,-0.54L0.229,-0.438L0.231,-0.438C0.257,-0.512 0.305,-0.549 0.374,-0.549C0.392,-0.549 0.406,-0.547 0.416,-0.543L0.416,-0.397Z" style="fill:rgb(10,1,1);fill-rule:nonzero;"/>
                </g>
            </g>
        </g>
    </g>
</svg>
