<?xml version="1.0" encoding="UTF-8" standalone="no"?>
<!DOCTYPE svg PUBLIC "-//W3C//DTD SVG 1.1//EN" "http://www.w3.org/Graphics/SVG/1.1/DTD/svg11.dtd">
<svg width="100%" height="100%" viewBox="0 0 330 380" version="1.1" xmlns="http://www.w3.org/2000/svg" xmlns:xlink="http://www.w3.org/1999/xlink" xml:space="preserve" xmlns:serif="http://www.serif.com/" style="fill-rule:evenodd;clip-rule:evenodd;stroke-linecap:round;stroke-linejoin:round;stroke-miterlimit:1.5;">
    <g id="panel" transform="matrix(0.834722,0,0,1.04324,-728.837,250.623)">
        <g transform="matrix(6.58902,0,0,0.958552,873.15,-240.235)">
            <rect x="0" y="0" width="60" height="380" style="fill:rgb(128,187,254);"/>
        </g>
        <g transform="matrix(1.198,0,0,0.958552,1033.95,-213.396)">
            <g transform="matrix(13,0,0,13,1.94873,0)">
                <rect x="0.076" y="-0.715" width="0.127" height="0.715" style="fill-rule:nonzero;"/>
            </g>
            <g transform="matrix(13,0,0,13,5.5669,0)">
                <path d="M0.542,0.01L0.195,-0.443L0.195,0L0.073,0L0.073,-0.715L0.134,-0.715L0.472,-0.284L0.472,-0.715L0.594,-0.715L0.594,0.01L0.542,0.01Z" style="fill-rule:nonzero;"/>
            </g>
            <g transform="matrix(13,0,0,13,14.2441,0)">
                <path d="M0.364,-0.603L0.364,0L0.237,0L0.237,-0.603L0.01,-0.603L0.01,-0.715L0.602,-0.715L0.602,-0.603L0.364,-0.603Z" style="fill-rule:nonzero;"/>
            </g>
            <g transform="matrix(13,0,0,13,22.1978,0)">
                <path d="M0.2,-0.603L0.2,-0.435L0.437,-0.435L0.437,-0.327L0.2,-0.327L0.2,-0.113L0.524,-0.113L0.524,0L0.073,0L0.073,-0.715L0.53,-0.715L0.53,-0.603L0.2,-0.603Z" style="fill-rule:nonzero;"/>
            </g>
            <g transform="matrix(13,0,0,13,29.5928,0)">
                <path d="M0.477,0L0.286,-0.295C0.266,-0.296 0.24,-0.297 0.205,-0.299L0.205,0L0.073,0L0.073,-0.715C0.08,-0.715 0.108,-0.717 0.156,-0.719C0.204,-0.721 0.242,-0.723 0.271,-0.723C0.453,-0.723 0.544,-0.652 0.544,-0.512C0.544,-0.469 0.531,-0.431 0.506,-0.396C0.481,-0.361 0.45,-0.337 0.412,-0.322L0.623,0L0.477,0ZM0.205,-0.605L0.205,-0.406C0.229,-0.404 0.246,-0.403 0.259,-0.403C0.312,-0.403 0.351,-0.411 0.375,-0.426C0.4,-0.441 0.412,-0.47 0.412,-0.513C0.412,-0.548 0.399,-0.573 0.373,-0.587C0.346,-0.601 0.305,-0.608 0.248,-0.608C0.234,-0.608 0.22,-0.607 0.205,-0.605Z" style="fill-rule:nonzero;"/>
            </g>
            <g transform="matrix(13,0,0,13,37.5337,0)">
                <path d="M0.74,0L0.617,0L0.543,-0.385L0.399,0.01L0.354,0.01L0.209,-0.385L0.132,0L0.01,0L0.154,-0.715L0.221,-0.715L0.376,-0.233L0.527,-0.715L0.594,-0.715L0.74,0Z" style="fill-rule:nonzero;"/>
            </g>
            <g transform="matrix(13,0,0,13,47.2202,0)">
                <rect x="0.076" y="-0.715" width="0.127" height="0.715" style="fill-rule:nonzero;"/>
            </g>
            <g transform="matrix(13,0,0,13,50.8384,0)">
                <path d="M0.46,0L0.291,-0.257L0.135,0L0.002,0L0.217,-0.371L0.02,-0.716L0.149,-0.715L0.294,-0.474L0.454,-0.715L0.587,-0.715L0.36,-0.369L0.598,0L0.46,0Z" style="fill-rule:nonzero;"/>
            </g>
        </g>
        <g transform="matrix(0.840359,0,0,0.840359,238.786,16.2108)">
            <g transform="matrix(1.198,0,0,0.958552,893.633,-224.914)">
                <g transform="matrix(9,0,0,9,64.0056,347.267)">
                    <path d="M0.919,0L0.762,0L0.762,-0.308C0.762,-0.391 0.732,-0.432 0.671,-0.432C0.643,-0.432 0.62,-0.42 0.602,-0.395C0.583,-0.369 0.574,-0.339 0.574,-0.303L0.574,0L0.417,0L0.417,-0.312C0.417,-0.392 0.387,-0.432 0.327,-0.432C0.298,-0.432 0.274,-0.42 0.256,-0.396C0.238,-0.372 0.229,-0.341 0.229,-0.301L0.229,0L0.072,0L0.072,-0.54L0.229,-0.54L0.229,-0.456L0.231,-0.456C0.25,-0.486 0.275,-0.51 0.307,-0.528C0.338,-0.545 0.371,-0.553 0.405,-0.553C0.481,-0.553 0.533,-0.519 0.561,-0.451C0.603,-0.519 0.663,-0.553 0.743,-0.553C0.86,-0.553 0.919,-0.481 0.919,-0.335L0.919,0Z" style="fill:rgb(10,1,1);fill-rule:nonzero;"/>
                </g>
                <g transform="matrix(9,0,0,9,72.978,347.267)">
                    <path d="M0.551,-0.226L0.196,-0.226C0.201,-0.142 0.252,-0.1 0.347,-0.1C0.407,-0.1 0.459,-0.115 0.505,-0.144L0.505,-0.028C0.456,-0.001 0.391,0.013 0.312,0.013C0.226,0.013 0.159,-0.011 0.111,-0.06C0.063,-0.108 0.04,-0.176 0.04,-0.262C0.04,-0.348 0.065,-0.419 0.116,-0.472C0.167,-0.526 0.23,-0.553 0.307,-0.553C0.384,-0.553 0.443,-0.53 0.487,-0.484C0.53,-0.437 0.551,-0.374 0.551,-0.292L0.551,-0.226ZM0.404,-0.324C0.404,-0.405 0.372,-0.445 0.306,-0.445C0.279,-0.445 0.255,-0.434 0.234,-0.412C0.214,-0.39 0.201,-0.361 0.195,-0.324L0.404,-0.324Z" style="fill:rgb(10,1,1);fill-rule:nonzero;"/>
                </g>
                <g transform="matrix(9,0,0,9,78.3513,347.267)">
                    <rect x="0.069" y="-0.799" width="0.157" height="0.799" style="fill:rgb(10,1,1);fill-rule:nonzero;"/>
                </g>
                <g transform="matrix(9,0,0,9,81.1494,347.267)">
                    <path d="M0.593,0L0.436,0L0.436,-0.076L0.433,-0.076C0.395,-0.017 0.339,0.013 0.264,0.013C0.195,0.013 0.141,-0.011 0.1,-0.06C0.06,-0.108 0.04,-0.174 0.04,-0.258C0.04,-0.346 0.062,-0.418 0.108,-0.472C0.153,-0.526 0.212,-0.553 0.286,-0.553C0.356,-0.553 0.405,-0.528 0.433,-0.477L0.436,-0.477L0.438,-0.707L0.593,-0.658L0.593,0ZM0.438,-0.306C0.438,-0.342 0.427,-0.372 0.405,-0.396C0.383,-0.42 0.356,-0.432 0.323,-0.432C0.284,-0.432 0.254,-0.417 0.232,-0.386C0.21,-0.356 0.199,-0.315 0.199,-0.263C0.199,-0.213 0.21,-0.175 0.231,-0.148C0.252,-0.121 0.281,-0.108 0.318,-0.108C0.353,-0.108 0.382,-0.122 0.404,-0.15C0.427,-0.179 0.438,-0.215 0.438,-0.261L0.438,-0.306Z" style="fill:rgb(10,1,1);fill-rule:nonzero;"/>
                </g>
                <g transform="matrix(9,0,0,9,87.2654,347.267)">
                    <path d="M0.551,-0.226L0.196,-0.226C0.201,-0.142 0.252,-0.1 0.347,-0.1C0.407,-0.1 0.459,-0.115 0.505,-0.144L0.505,-0.028C0.456,-0.001 0.391,0.013 0.312,0.013C0.226,0.013 0.159,-0.011 0.111,-0.06C0.063,-0.108 0.04,-0.176 0.04,-0.262C0.04,-0.348 0.065,-0.419 0.116,-0.472C0.167,-0.526 0.23,-0.553 0.307,-0.553C0.384,-0.553 0.443,-0.53 0.487,-0.484C0.53,-0.437 0.551,-0.374 0.551,-0.292L0.551,-0.226ZM0.404,-0.324C0.404,-0.405 0.372,-0.445 0.306,-0.445C0.279,-0.445 0.255,-0.434 0.234,-0.412C0.214,-0.39 0.201,-0.361 0.195,-0.324L0.404,-0.324Z" style="fill:rgb(10,1,1);fill-rule:nonzero;"/>
                </g>
                <g transform="matrix(9,0,0,9,92.6386,347.267)">
                    <path d="M0.416,-0.397C0.397,-0.408 0.374,-0.414 0.346,-0.414C0.31,-0.414 0.282,-0.4 0.261,-0.373C0.24,-0.345 0.229,-0.308 0.229,-0.26L0.229,0L0.072,0L0.072,-0.54L0.229,-0.54L0.229,-0.438L0.231,-0.438C0.257,-0.512 0.305,-0.549 0.374,-0.549C0.392,-0.549 0.406,-0.547 0.416,-0.543L0.416,-0.397Z" style="fill:rgb(10,1,1);fill-rule:nonzero;"/>
                </g>
            </g>
            <g transform="matrix(1.198,0,0,0.958552,893.495,-231.786)">
                <g transform="matrix(9,0,0,9,68.6657,347.267)">
                    <path d="M0.058,-0.145C0.112,-0.112 0.165,-0.096 0.216,-0.096C0.281,-0.096 0.314,-0.113 0.314,-0.148C0.314,-0.173 0.287,-0.193 0.233,-0.21C0.166,-0.231 0.12,-0.254 0.095,-0.28C0.07,-0.305 0.058,-0.34 0.058,-0.383C0.058,-0.436 0.079,-0.478 0.122,-0.508C0.165,-0.538 0.221,-0.553 0.291,-0.553C0.34,-0.553 0.388,-0.546 0.434,-0.531L0.434,-0.407C0.392,-0.432 0.346,-0.444 0.295,-0.444C0.27,-0.444 0.25,-0.44 0.235,-0.431C0.22,-0.422 0.212,-0.41 0.212,-0.396C0.212,-0.371 0.235,-0.351 0.28,-0.335C0.329,-0.319 0.366,-0.304 0.39,-0.291C0.415,-0.278 0.434,-0.26 0.447,-0.238C0.459,-0.216 0.466,-0.191 0.466,-0.163C0.466,-0.107 0.444,-0.064 0.399,-0.033C0.354,-0.002 0.295,0.013 0.22,0.013C0.162,0.013 0.107,0.004 0.058,-0.015L0.058,-0.145Z" style="fill:rgb(10,1,1);fill-rule:nonzero;"/>
                </g>
                <g transform="matrix(9,0,0,9,73.2436,347.267)">
                    <path d="M0.39,-0.006C0.366,0.007 0.33,0.013 0.282,0.013C0.167,0.013 0.11,-0.047 0.11,-0.167L0.11,-0.422L0.021,-0.422L0.021,-0.54L0.11,-0.54L0.11,-0.659L0.267,-0.704L0.267,-0.54L0.39,-0.54L0.39,-0.422L0.267,-0.422L0.267,-0.195C0.267,-0.137 0.289,-0.108 0.335,-0.108C0.353,-0.108 0.371,-0.114 0.39,-0.124L0.39,-0.006Z" style="fill:rgb(10,1,1);fill-rule:nonzero;"/>
                </g>
                <g transform="matrix(6.6,0,0,6.6,77.1051,347.267)">
                    <path d="M0.106,0.032L0.043,-0.021L0.122,-0.115C0.067,-0.183 0.04,-0.268 0.04,-0.368C0.04,-0.487 0.075,-0.584 0.144,-0.658C0.213,-0.732 0.305,-0.769 0.418,-0.769C0.5,-0.769 0.571,-0.748 0.63,-0.706L0.698,-0.785L0.761,-0.733L0.689,-0.65C0.748,-0.581 0.778,-0.493 0.778,-0.384C0.778,-0.266 0.743,-0.17 0.674,-0.097C0.605,-0.023 0.516,0.013 0.406,0.013C0.32,0.013 0.246,-0.011 0.182,-0.059L0.106,0.032ZM0.54,-0.6C0.506,-0.628 0.463,-0.642 0.413,-0.642C0.349,-0.642 0.297,-0.617 0.258,-0.569C0.218,-0.52 0.199,-0.455 0.199,-0.375C0.199,-0.319 0.208,-0.273 0.227,-0.234L0.54,-0.6ZM0.275,-0.165C0.311,-0.131 0.356,-0.114 0.409,-0.114C0.473,-0.114 0.524,-0.137 0.563,-0.184C0.601,-0.231 0.62,-0.294 0.62,-0.374C0.62,-0.435 0.61,-0.488 0.588,-0.533L0.275,-0.165Z" style="fill-rule:nonzero;"/>
                </g>
                <g transform="matrix(9,0,0,9,82.6053,347.267)">
                    <path d="M0.551,-0.226L0.196,-0.226C0.201,-0.142 0.252,-0.1 0.347,-0.1C0.407,-0.1 0.459,-0.115 0.505,-0.144L0.505,-0.028C0.456,-0.001 0.391,0.013 0.312,0.013C0.226,0.013 0.159,-0.011 0.111,-0.06C0.063,-0.108 0.04,-0.176 0.04,-0.262C0.04,-0.348 0.065,-0.419 0.116,-0.472C0.167,-0.526 0.23,-0.553 0.307,-0.553C0.384,-0.553 0.443,-0.53 0.487,-0.484C0.53,-0.437 0.551,-0.374 0.551,-0.292L0.551,-0.226ZM0.404,-0.324C0.404,-0.405 0.372,-0.445 0.306,-0.445C0.279,-0.445 0.255,-0.434 0.234,-0.412C0.214,-0.39 0.201,-0.361 0.195,-0.324L0.404,-0.324Z" style="fill:rgb(10,1,1);fill-rule:nonzero;"/>
                </g>
                <g transform="matrix(9,0,0,9,87.9786,347.267)">
                    <path d="M0.416,-0.397C0.397,-0.408 0.374,-0.414 0.346,-0.414C0.31,-0.414 0.282,-0.4 0.261,-0.373C0.24,-0.345 0.229,-0.308 0.229,-0.26L0.229,0L0.072,0L0.072,-0.54L0.229,-0.54L0.229,-0.438L0.231,-0.438C0.257,-0.512 0.305,-0.549 0.374,-0.549C0.392,-0.549 0.406,-0.547 0.416,-0.543L0.416,-0.397Z" style="fill:rgb(10,1,1);fill-rule:nonzero;"/>
                </g>
            </g>
        </g>
        <g transform="matrix(2.33789,0,0,1.81823,943.365,-538.329)">
            <rect x="-30.034" y="347.456" width="169.102" height="16.91" style="fill:rgb(4,4,4);fill-opacity:0.3;"/>
        </g>
        <g transform="matrix(2.33789,0,0,1.76292,943.365,-852.772)">
            <rect x="-30.034" y="347.456" width="169.102" height="16.91" style="fill:rgb(4,4,4);fill-opacity:0.3;"/>
        </g>
        <g transform="matrix(17.6516,0,0,25.5659,213.197,-292.473)">
            <rect x="37.388" y="2.043" width="22.397" height="14.247" style="fill:none;stroke:black;stroke-opacity:0.6;stroke-width:0.03px;"/>
        </g>
        <g transform="matrix(0.551686,0,0,8.78869,1220.65,-705.628)">
            <path d="M73.138,57.36C73.138,57.119 69.245,56.924 64.451,56.924L13.793,56.924C8.999,56.924 5.107,57.119 5.107,57.36L5.107,83.268C5.107,83.509 8.999,83.704 13.793,83.704L64.451,83.704C69.245,83.704 73.138,83.509 73.138,83.268L73.138,57.36Z" style="fill-opacity:0.8;"/>
        </g>
        <g transform="matrix(0.551686,0,0,8.78869,877.824,-705.628)">
            <path d="M73.138,57.36C73.138,57.119 69.245,56.924 64.451,56.924L13.793,56.924C8.999,56.924 5.107,57.119 5.107,57.36L5.107,83.268C5.107,83.509 8.999,83.704 13.793,83.704L64.451,83.704C69.245,83.704 73.138,83.509 73.138,83.268L73.138,57.36Z" style="fill-opacity:0.8;"/>
        </g>
        <g transform="matrix(4.31003,0,0,1.89102,902.202,-72.2573)">
            <path d="M73.138,58.951C73.138,57.832 72.639,56.924 72.026,56.924L6.219,56.924C5.605,56.924 5.107,57.832 5.107,58.951L5.107,81.676C5.107,82.795 5.605,83.704 6.219,83.704L72.026,83.704C72.639,83.704 73.138,82.795 73.138,81.676L73.138,58.951Z" style="fill:white;fill-opacity:0.8;"/>
        </g>
        <g transform="matrix(0.551125,0,0,1.89102,1220.65,-72.2573)">
            <path d="M73.138,58.951C73.138,57.832 69.241,56.924 64.443,56.924L13.802,56.924C9.003,56.924 5.107,57.832 5.107,58.951L5.107,81.676C5.107,82.795 9.003,83.704 13.802,83.704L64.443,83.704C69.241,83.704 73.138,82.795 73.138,81.676L73.138,58.951Z" style="fill:white;fill-opacity:0.5;"/>
        </g>
        <g transform="matrix(1.25309,0,0,1.34672,913.206,-236.717)">
            <path d="M38.128,207.245C38.128,206.459 37.271,205.822 36.216,205.822L14.743,205.822C13.688,205.822 12.831,206.459 12.831,207.245L12.831,213.815C12.831,214.601 13.688,215.238 14.743,215.238L36.216,215.238C37.271,215.238 38.128,214.601 38.128,213.815L38.128,207.245Z" style="fill:rgb(0,16,90);stroke:rgb(77,77,77);stroke-width:0.34px;stroke-linecap:square;"/>
        </g>
        <g transform="matrix(1.25309,0,0,1.34672,1164.58,-236.717)">
            <path d="M38.128,207.245C38.128,206.459 37.271,205.822 36.216,205.822L14.743,205.822C13.688,205.822 12.831,206.459 12.831,207.245L12.831,213.815C12.831,214.601 13.688,215.238 14.743,215.238L36.216,215.238C37.271,215.238 38.128,214.601 38.128,213.815L38.128,207.245Z" style="fill:rgb(0,16,90);stroke:rgb(77,77,77);stroke-width:0.34px;stroke-linecap:square;"/>
        </g>
        <g transform="matrix(1.25309,0,0,1.34672,1128.67,-236.717)">
            <path d="M38.128,207.245C38.128,206.459 37.271,205.822 36.216,205.822L14.743,205.822C13.688,205.822 12.831,206.459 12.831,207.245L12.831,213.815C12.831,214.601 13.688,215.238 14.743,215.238L36.216,215.238C37.271,215.238 38.128,214.601 38.128,213.815L38.128,207.245Z" style="fill:rgb(0,16,90);stroke:rgb(77,77,77);stroke-width:0.34px;stroke-linecap:square;"/>
        </g>
        <g transform="matrix(1.25309,0,0,1.34672,1092.76,-236.96)">
            <path d="M38.128,207.245C38.128,206.459 37.271,205.822 36.216,205.822L14.743,205.822C13.688,205.822 12.831,206.459 12.831,207.245L12.831,213.815C12.831,214.601 13.688,215.238 14.743,215.238L36.216,215.238C37.271,215.238 38.128,214.601 38.128,213.815L38.128,207.245Z" style="fill:rgb(0,16,90);stroke:rgb(77,77,77);stroke-width:0.34px;stroke-linecap:square;"/>
        </g>
        <g transform="matrix(1.25309,0,0,1.34672,1056.85,-236.717)">
            <path d="M38.128,207.245C38.128,206.459 37.271,205.822 36.216,205.822L14.743,205.822C13.688,205.822 12.831,206.459 12.831,207.245L12.831,213.815C12.831,214.601 13.688,215.238 14.743,215.238L36.216,215.238C37.271,215.238 38.128,214.601 38.128,213.815L38.128,207.245Z" style="fill:rgb(0,16,90);stroke:rgb(77,77,77);stroke-width:0.34px;stroke-linecap:square;"/>
        </g>
        <g transform="matrix(1.25309,0,0,1.34672,1020.94,-236.717)">
            <path d="M38.128,207.245C38.128,206.459 37.271,205.822 36.216,205.822L14.743,205.822C13.688,205.822 12.831,206.459 12.831,207.245L12.831,213.815C12.831,214.601 13.688,215.238 14.743,215.238L36.216,215.238C37.271,215.238 38.128,214.601 38.128,213.815L38.128,207.245Z" style="fill:rgb(0,16,90);stroke:rgb(77,77,77);stroke-width:0.34px;stroke-linecap:square;"/>
        </g>
        <g transform="matrix(1.25309,0,0,1.34672,985.027,-236.717)">
            <path d="M38.128,207.245C38.128,206.459 37.271,205.822 36.216,205.822L14.743,205.822C13.688,205.822 12.831,206.459 12.831,207.245L12.831,213.815C12.831,214.601 13.688,215.238 14.743,215.238L36.216,215.238C37.271,215.238 38.128,214.601 38.128,213.815L38.128,207.245Z" style="fill:rgb(0,16,90);stroke:rgb(77,77,77);stroke-width:0.34px;stroke-linecap:square;"/>
        </g>
        <g transform="matrix(1.25309,0,0,1.34672,949.117,-236.717)">
            <path d="M38.128,207.245C38.128,206.459 37.271,205.822 36.216,205.822L14.743,205.822C13.688,205.822 12.831,206.459 12.831,207.245L12.831,213.815C12.831,214.601 13.688,215.238 14.743,215.238L36.216,215.238C37.271,215.238 38.128,214.601 38.128,213.815L38.128,207.245Z" style="fill:rgb(0,16,90);stroke:rgb(77,77,77);stroke-width:0.34px;stroke-linecap:square;"/>
        </g>
        <g transform="matrix(4.31003,0,0,8.78869,902.202,-705.628)">
            <path d="M73.138,57.36C73.138,57.119 72.639,56.924 72.026,56.924L6.219,56.924C5.605,56.924 5.107,57.119 5.107,57.36L5.107,83.268C5.107,83.509 5.605,83.704 6.219,83.704L72.026,83.704C72.639,83.704 73.138,83.509 73.138,83.268L73.138,57.36Z" style="fill:rgb(0,16,90);"/>
            <path d="M72.054,56.924L72.083,56.924L72.111,56.925L72.139,56.926L72.167,56.927L72.195,56.929L72.222,56.93L72.25,56.933L72.277,56.935L72.303,56.937L72.33,56.94L72.356,56.943L72.382,56.947L72.408,56.95L72.433,56.954L72.458,56.958L72.483,56.962L72.508,56.967L72.532,56.971L72.556,56.976L72.579,56.982L72.602,56.987L72.625,56.992L72.647,56.998L72.669,57.004L72.691,57.01L72.712,57.017L72.733,57.023L72.753,57.03L72.773,57.037L72.793,57.044L72.812,57.052L72.83,57.059L72.849,57.067L72.866,57.074L72.884,57.082L72.9,57.091L72.917,57.099L72.932,57.107L72.948,57.116L72.962,57.125L72.976,57.134L72.99,57.143L73.003,57.152L73.016,57.161L73.028,57.171L73.039,57.18L73.05,57.19L73.06,57.2L73.07,57.21L73.079,57.22L73.088,57.23L73.095,57.241L73.103,57.251L73.109,57.261L73.115,57.272L73.12,57.283L73.125,57.294L73.129,57.304L73.132,57.315L73.134,57.326L73.136,57.337L73.137,57.349L73.138,57.36L73.138,83.268L73.137,83.279L73.136,83.29L73.134,83.301L73.132,83.312L73.129,83.323L73.125,83.334L73.12,83.345L73.115,83.356L73.109,83.366L73.103,83.377L73.095,83.387L73.088,83.397L73.079,83.408L73.07,83.418L73.06,83.428L73.05,83.437L73.039,83.447L73.028,83.457L73.016,83.466L73.003,83.476L72.99,83.485L72.976,83.494L72.962,83.503L72.948,83.512L72.932,83.52L72.917,83.529L72.9,83.537L72.884,83.545L72.866,83.553L72.849,83.561L72.83,83.569L72.812,83.576L72.793,83.583L72.773,83.591L72.753,83.598L72.733,83.604L72.712,83.611L72.691,83.617L72.669,83.623L72.647,83.629L72.625,83.635L72.602,83.641L72.579,83.646L72.556,83.651L72.532,83.656L72.508,83.661L72.483,83.665L72.458,83.67L72.433,83.674L72.408,83.678L72.382,83.681L72.356,83.684L72.33,83.687L72.303,83.69L72.277,83.693L72.25,83.695L72.222,83.697L72.195,83.699L72.167,83.7L72.139,83.702L72.111,83.703L72.083,83.703L72.054,83.704L72.026,83.704L6.219,83.704L6.19,83.704L6.162,83.703L6.133,83.703L6.105,83.702L6.077,83.7L6.049,83.699L6.022,83.697L5.995,83.695L5.968,83.693L5.941,83.69L5.914,83.687L5.888,83.684L5.862,83.681L5.837,83.678L5.811,83.674L5.786,83.67L5.761,83.665L5.737,83.661L5.713,83.656L5.689,83.651L5.665,83.646L5.642,83.641L5.62,83.635L5.597,83.629L5.575,83.623L5.554,83.617L5.532,83.611L5.512,83.604L5.491,83.598L5.471,83.591L5.452,83.583L5.433,83.576L5.414,83.569L5.396,83.561L5.378,83.553L5.361,83.545L5.344,83.537L5.328,83.529L5.312,83.52L5.297,83.512L5.282,83.503L5.268,83.494L5.254,83.485L5.241,83.476L5.229,83.466L5.217,83.457L5.205,83.447L5.194,83.437L5.184,83.428L5.174,83.418L5.165,83.408L5.157,83.397L5.149,83.387L5.142,83.377L5.135,83.366L5.13,83.356L5.124,83.345L5.12,83.334L5.116,83.323L5.113,83.312L5.11,83.301L5.108,83.29L5.107,83.279L5.107,83.268L5.107,57.36L5.107,57.349L5.108,57.337L5.11,57.326L5.113,57.315L5.116,57.304L5.12,57.294L5.124,57.283L5.13,57.272L5.135,57.261L5.142,57.251L5.149,57.241L5.157,57.23L5.165,57.22L5.174,57.21L5.184,57.2L5.194,57.19L5.205,57.18L5.217,57.171L5.229,57.161L5.241,57.152L5.254,57.143L5.268,57.134L5.282,57.125L5.297,57.116L5.312,57.107L5.328,57.099L5.344,57.091L5.361,57.082L5.378,57.074L5.396,57.067L5.414,57.059L5.433,57.052L5.452,57.044L5.471,57.037L5.491,57.03L5.512,57.023L5.532,57.017L5.554,57.01L5.575,57.004L5.597,56.998L5.62,56.992L5.642,56.987L5.665,56.982L5.689,56.976L5.713,56.971L5.737,56.967L5.761,56.962L5.786,56.958L5.811,56.954L5.837,56.95L5.862,56.947L5.888,56.943L5.914,56.94L5.941,56.937L5.968,56.935L5.995,56.933L6.022,56.93L6.049,56.929L6.077,56.927L6.105,56.926L6.133,56.925L6.162,56.924L6.19,56.924L6.219,56.924L72.026,56.924L72.054,56.924ZM6.22,57.033L6.197,57.033L6.176,57.033L6.154,57.034L6.133,57.034L6.112,57.035L6.092,57.037L6.071,57.038L6.051,57.039L6.03,57.041L6.01,57.043L5.991,57.045L5.971,57.047L5.951,57.05L5.932,57.053L5.913,57.055L5.894,57.058L5.876,57.062L5.858,57.065L5.84,57.068L5.822,57.072L5.804,57.076L5.787,57.08L5.77,57.084L5.753,57.089L5.736,57.093L5.72,57.098L5.704,57.103L5.689,57.107L5.673,57.113L5.658,57.118L5.644,57.123L5.629,57.129L5.615,57.134L5.602,57.14L5.588,57.146L5.575,57.152L5.563,57.158L5.55,57.164L5.539,57.171L5.527,57.177L5.516,57.184L5.505,57.19L5.495,57.197L5.485,57.204L5.476,57.211L5.467,57.218L5.458,57.225L5.45,57.233L5.443,57.24L5.435,57.248L5.429,57.255L5.422,57.263L5.416,57.27L5.411,57.278L5.406,57.286L5.402,57.294L5.398,57.302L5.394,57.31L5.392,57.318L5.389,57.326L5.387,57.335L5.386,57.343L5.385,57.351L5.385,57.361L5.385,83.267L5.385,83.276L5.386,83.285L5.387,83.293L5.389,83.301L5.392,83.309L5.394,83.318L5.398,83.326L5.402,83.334L5.406,83.342L5.411,83.35L5.416,83.357L5.422,83.365L5.429,83.373L5.435,83.38L5.443,83.388L5.45,83.395L5.458,83.402L5.467,83.409L5.476,83.417L5.485,83.424L5.495,83.43L5.505,83.437L5.516,83.444L5.527,83.451L5.539,83.457L5.551,83.463L5.563,83.47L5.575,83.476L5.588,83.482L5.602,83.488L5.615,83.493L5.629,83.499L5.644,83.505L5.658,83.51L5.673,83.515L5.689,83.52L5.704,83.525L5.72,83.53L5.736,83.535L5.753,83.539L5.77,83.543L5.787,83.548L5.804,83.552L5.822,83.555L5.84,83.559L5.858,83.563L5.876,83.566L5.894,83.569L5.913,83.572L5.932,83.575L5.951,83.578L5.971,83.58L5.991,83.583L6.01,83.585L6.03,83.587L6.051,83.588L6.071,83.59L6.092,83.591L6.112,83.592L6.133,83.593L6.154,83.594L6.176,83.594L6.197,83.595L6.22,83.595L72.024,83.595L72.047,83.595L72.069,83.594L72.09,83.594L72.111,83.593L72.132,83.592L72.153,83.591L72.173,83.59L72.194,83.588L72.214,83.587L72.234,83.585L72.254,83.583L72.274,83.58L72.293,83.578L72.312,83.575L72.331,83.572L72.35,83.569L72.369,83.566L72.387,83.563L72.405,83.559L72.423,83.555L72.44,83.552L72.458,83.548L72.475,83.543L72.492,83.539L72.508,83.535L72.524,83.53L72.54,83.525L72.556,83.52L72.571,83.515L72.586,83.51L72.601,83.505L72.615,83.499L72.629,83.493L72.643,83.488L72.656,83.482L72.669,83.476L72.682,83.47L72.694,83.463L72.706,83.457L72.717,83.451L72.728,83.444L72.739,83.437L72.749,83.43L72.759,83.424L72.768,83.417L72.777,83.409L72.786,83.402L72.794,83.395L72.802,83.388L72.809,83.38L72.816,83.373L72.822,83.365L72.828,83.357L72.833,83.35L72.838,83.342L72.843,83.334L72.847,83.326L72.85,83.318L72.853,83.309L72.855,83.301L72.857,83.293L72.858,83.285L72.859,83.276L72.86,83.267L72.86,57.361L72.859,57.351L72.858,57.343L72.857,57.335L72.855,57.326L72.853,57.318L72.85,57.31L72.847,57.302L72.843,57.294L72.838,57.286L72.833,57.278L72.828,57.27L72.822,57.263L72.816,57.255L72.809,57.248L72.802,57.24L72.794,57.233L72.786,57.225L72.777,57.218L72.768,57.211L72.759,57.204L72.749,57.197L72.739,57.19L72.728,57.184L72.717,57.177L72.706,57.171L72.694,57.164L72.682,57.158L72.669,57.152L72.656,57.146L72.643,57.14L72.629,57.134L72.615,57.129L72.601,57.123L72.586,57.118L72.571,57.113L72.556,57.107L72.54,57.103L72.524,57.098L72.508,57.093L72.492,57.089L72.475,57.084L72.458,57.08L72.44,57.076L72.423,57.072L72.405,57.068L72.387,57.065L72.369,57.062L72.35,57.058L72.331,57.055L72.312,57.053L72.293,57.05L72.274,57.047L72.254,57.045L72.234,57.043L72.214,57.041L72.194,57.039L72.173,57.038L72.153,57.037L72.132,57.035L72.111,57.034L72.09,57.034L72.069,57.033L72.047,57.033L72.024,57.033L6.22,57.033Z" style="fill:white;fill-opacity:0.1;"/>
        </g>
        <g transform="matrix(1.0256e-16,-1.34016,1.31481,6.44172e-17,813.109,-156.656)">
            <path d="M25.865,66.546C25.865,66.043 25.544,65.635 25.149,65.635L23.719,65.635C23.324,65.635 23.004,66.043 23.004,66.546L23.004,325.466C23.004,325.969 23.324,326.377 23.719,326.377L25.149,326.377C25.544,326.377 25.865,325.969 25.865,325.466L25.865,66.546Z" style="fill:rgb(128,187,254);fill-opacity:0.8;"/>
        </g>
        <g transform="matrix(1.0256e-16,-1.34016,1.31481,6.44172e-17,813.109,-127.724)">
            <path d="M25.865,66.546C25.865,66.043 25.544,65.635 25.149,65.635L23.719,65.635C23.324,65.635 23.004,66.043 23.004,66.546L23.004,325.466C23.004,325.969 23.324,326.377 23.719,326.377L25.149,326.377C25.544,326.377 25.865,325.969 25.865,325.466L25.865,66.546Z" style="fill:rgb(128,187,254);fill-opacity:0.8;"/>
        </g>
        <g transform="matrix(1.0256e-16,-1.34016,1.31481,6.44172e-17,813.109,-98.7925)">
            <path d="M25.865,66.546C25.865,66.043 25.544,65.635 25.149,65.635L23.719,65.635C23.324,65.635 23.004,66.043 23.004,66.546L23.004,325.466C23.004,325.969 23.324,326.377 23.719,326.377L25.149,326.377C25.544,326.377 25.865,325.969 25.865,325.466L25.865,66.546Z" style="fill:rgb(128,187,254);fill-opacity:0.8;"/>
        </g>
        <g transform="matrix(1.0256e-16,-1.34016,1.31481,6.44172e-17,813.109,-69.8608)">
            <path d="M25.865,66.546C25.865,66.043 25.544,65.635 25.149,65.635L23.719,65.635C23.324,65.635 23.004,66.043 23.004,66.546L23.004,325.466C23.004,325.969 23.324,326.377 23.719,326.377L25.149,326.377C25.544,326.377 25.865,325.969 25.865,325.466L25.865,66.546Z" style="fill:rgb(128,187,254);fill-opacity:0.8;"/>
        </g>
        <g transform="matrix(1.0256e-16,-1.34016,1.31481,6.44172e-17,813.109,-40.9291)">
            <path d="M25.865,66.546C25.865,66.043 25.544,65.635 25.149,65.635L23.719,65.635C23.324,65.635 23.004,66.043 23.004,66.546L23.004,325.466C23.004,325.969 23.324,326.377 23.719,326.377L25.149,326.377C25.544,326.377 25.865,325.969 25.865,325.466L25.865,66.546Z" style="fill:rgb(128,187,254);fill-opacity:0.8;"/>
        </g>
        <g transform="matrix(1.0256e-16,-1.34016,1.31481,6.44172e-17,813.109,-11.9974)">
            <path d="M25.865,66.546C25.865,66.043 25.544,65.635 25.149,65.635L23.719,65.635C23.324,65.635 23.004,66.043 23.004,66.546L23.004,325.466C23.004,325.969 23.324,326.377 23.719,326.377L25.149,326.377C25.544,326.377 25.865,325.969 25.865,325.466L25.865,66.546Z" style="fill:rgb(128,187,254);fill-opacity:0.8;"/>
        </g>
        <g transform="matrix(1.0256e-16,-1.34016,1.31481,6.44172e-17,813.109,16.9343)">
            <path d="M25.865,66.546C25.865,66.043 25.544,65.635 25.149,65.635L23.719,65.635C23.324,65.635 23.004,66.043 23.004,66.546L23.004,325.466C23.004,325.969 23.324,326.377 23.719,326.377L25.149,326.377C25.544,326.377 25.865,325.969 25.865,325.466L25.865,66.546Z" style="fill:rgb(128,187,254);fill-opacity:0.8;"/>
        </g>
        <g transform="matrix(1.0256e-16,-1.34016,1.31481,6.44172e-17,813.109,45.866)">
            <path d="M25.865,66.546C25.865,66.043 25.544,65.635 25.149,65.635L23.719,65.635C23.324,65.635 23.004,66.043 23.004,66.546L23.004,325.466C23.004,325.969 23.324,326.377 23.719,326.377L25.149,326.377C25.544,326.377 25.865,325.969 25.865,325.466L25.865,66.546Z" style="fill:rgb(128,187,254);fill-opacity:0.8;"/>
        </g>
        <g transform="matrix(0.799203,0,0,1.34672,1221.87,-236.717)">
            <path d="M38.128,207.245C38.128,206.459 36.784,205.822 35.13,205.822L15.829,205.822C14.175,205.822 12.831,206.459 12.831,207.245L12.831,213.815C12.831,214.601 14.175,215.238 15.829,215.238L35.13,215.238C36.784,215.238 38.128,214.601 38.128,213.815L38.128,207.245Z" style="fill:rgb(0,16,90);stroke:rgb(77,77,77);stroke-width:0.39px;stroke-linecap:square;"/>
        </g>
    </g>
</svg>
