<?xml version="1.0" encoding="UTF-8" standalone="no"?>
<!DOCTYPE svg PUBLIC "-//W3C//DTD SVG 1.1//EN" "http://www.w3.org/Graphics/SVG/1.1/DTD/svg11.dtd">
<svg width="100%" height="100%" viewBox="0 0 30 380" version="1.1" xmlns="http://www.w3.org/2000/svg" xmlns:xlink="http://www.w3.org/1999/xlink" xml:space="preserve" xmlns:serif="http://www.serif.com/" style="fill-rule:evenodd;clip-rule:evenodd;stroke-linejoin:round;stroke-miterlimit:2;">
    <g id="Layer-1" serif:id="Layer 1" transform="matrix(1.03896,0,0,1.0411,-89.9935,-156.177)">
        <g id="path3835" transform="matrix(0.125614,0,0,1.00351,75.7054,-0.789599)">
            <rect x="86.88" y="150.274" width="229.871" height="363.723" style="fill:rgb(119,65,65);stroke:black;stroke-width:5.37px;"/>
        </g>
        <g transform="matrix(0.9625,0,0,0.960526,83.7232,176.776)">
            <g transform="matrix(13,0,0,13,9.75546,0)">
                <path d="M0.74,0L0.617,0L0.543,-0.385L0.399,0.01L0.354,0.01L0.209,-0.385L0.132,0L0.01,0L0.154,-0.715L0.221,-0.715L0.376,-0.233L0.527,-0.715L0.594,-0.715L0.74,0Z" style="fill:white;fill-opacity:0.8;fill-rule:nonzero;"/>
            </g>
            <g transform="matrix(13,0,0,13,19.247,0)">
                <path d="M0.2,-0.603L0.2,-0.435L0.437,-0.435L0.437,-0.327L0.2,-0.327L0.2,-0.113L0.524,-0.113L0.524,-0L0.073,-0L0.073,-0.715L0.53,-0.715L0.53,-0.603L0.2,-0.603Z" style="fill:white;fill-opacity:0.8;fill-rule:nonzero;"/>
            </g>
        </g>
        <g transform="matrix(0.579819,0,0,0.720972,-473.018,418.494)">
            <g transform="matrix(1.198,0,0,0.958552,893.633,-224.914)">
                <g transform="matrix(9,0,0,9,64.0056,347.267)">
                    <path d="M0.919,-0L0.762,-0L0.762,-0.308C0.762,-0.391 0.732,-0.432 0.671,-0.432C0.643,-0.432 0.62,-0.42 0.602,-0.395C0.583,-0.369 0.574,-0.339 0.574,-0.303L0.574,-0L0.417,-0L0.417,-0.312C0.417,-0.392 0.387,-0.432 0.327,-0.432C0.298,-0.432 0.274,-0.42 0.256,-0.396C0.238,-0.372 0.229,-0.341 0.229,-0.301L0.229,-0L0.072,-0L0.072,-0.54L0.229,-0.54L0.229,-0.456L0.231,-0.456C0.25,-0.486 0.275,-0.51 0.307,-0.528C0.338,-0.545 0.371,-0.553 0.405,-0.553C0.481,-0.553 0.533,-0.519 0.561,-0.451C0.603,-0.519 0.663,-0.553 0.743,-0.553C0.86,-0.553 0.919,-0.481 0.919,-0.335L0.919,-0Z" style="fill:white;fill-opacity:0.8;fill-rule:nonzero;"/>
                </g>
                <g transform="matrix(9,0,0,9,72.978,347.267)">
                    <path d="M0.551,-0.226L0.196,-0.226C0.201,-0.142 0.252,-0.1 0.347,-0.1C0.407,-0.1 0.459,-0.115 0.505,-0.144L0.505,-0.028C0.456,-0.001 0.391,0.013 0.312,0.013C0.226,0.013 0.159,-0.011 0.111,-0.06C0.063,-0.108 0.04,-0.176 0.04,-0.262C0.04,-0.348 0.065,-0.419 0.116,-0.472C0.167,-0.526 0.23,-0.553 0.307,-0.553C0.384,-0.553 0.443,-0.53 0.487,-0.484C0.53,-0.437 0.551,-0.374 0.551,-0.292L0.551,-0.226ZM0.404,-0.324C0.404,-0.405 0.372,-0.445 0.306,-0.445C0.279,-0.445 0.255,-0.434 0.234,-0.412C0.214,-0.39 0.201,-0.361 0.195,-0.324L0.404,-0.324Z" style="fill:white;fill-opacity:0.8;fill-rule:nonzero;"/>
                </g>
                <g transform="matrix(9,0,0,9,78.3513,347.267)">
                    <rect x="0.069" y="-0.799" width="0.157" height="0.799" style="fill:white;fill-opacity:0.8;fill-rule:nonzero;"/>
                </g>
                <g transform="matrix(9,0,0,9,81.1494,347.267)">
                    <path d="M0.593,-0L0.436,-0L0.436,-0.076L0.433,-0.076C0.395,-0.017 0.339,0.013 0.264,0.013C0.195,0.013 0.141,-0.011 0.1,-0.06C0.06,-0.108 0.04,-0.174 0.04,-0.258C0.04,-0.346 0.062,-0.418 0.108,-0.472C0.153,-0.526 0.212,-0.553 0.286,-0.553C0.356,-0.553 0.405,-0.528 0.433,-0.477L0.436,-0.477L0.438,-0.707L0.593,-0.658L0.593,-0ZM0.438,-0.306C0.438,-0.342 0.427,-0.372 0.405,-0.396C0.383,-0.42 0.356,-0.432 0.323,-0.432C0.284,-0.432 0.254,-0.417 0.232,-0.386C0.21,-0.356 0.199,-0.315 0.199,-0.263C0.199,-0.213 0.21,-0.175 0.231,-0.148C0.252,-0.121 0.281,-0.108 0.318,-0.108C0.353,-0.108 0.382,-0.122 0.404,-0.15C0.427,-0.179 0.438,-0.215 0.438,-0.261L0.438,-0.306Z" style="fill:white;fill-opacity:0.8;fill-rule:nonzero;"/>
                </g>
                <g transform="matrix(9,0,0,9,87.2654,347.267)">
                    <path d="M0.551,-0.226L0.196,-0.226C0.201,-0.142 0.252,-0.1 0.347,-0.1C0.407,-0.1 0.459,-0.115 0.505,-0.144L0.505,-0.028C0.456,-0.001 0.391,0.013 0.312,0.013C0.226,0.013 0.159,-0.011 0.111,-0.06C0.063,-0.108 0.04,-0.176 0.04,-0.262C0.04,-0.348 0.065,-0.419 0.116,-0.472C0.167,-0.526 0.23,-0.553 0.307,-0.553C0.384,-0.553 0.443,-0.53 0.487,-0.484C0.53,-0.437 0.551,-0.374 0.551,-0.292L0.551,-0.226ZM0.404,-0.324C0.404,-0.405 0.372,-0.445 0.306,-0.445C0.279,-0.445 0.255,-0.434 0.234,-0.412C0.214,-0.39 0.201,-0.361 0.195,-0.324L0.404,-0.324Z" style="fill:white;fill-opacity:0.8;fill-rule:nonzero;"/>
                </g>
                <g transform="matrix(9,0,0,9,92.6386,347.267)">
                    <path d="M0.416,-0.397C0.397,-0.408 0.374,-0.414 0.346,-0.414C0.31,-0.414 0.282,-0.4 0.261,-0.373C0.24,-0.345 0.229,-0.308 0.229,-0.26L0.229,-0L0.072,-0L0.072,-0.54L0.229,-0.54L0.229,-0.438L0.231,-0.438C0.257,-0.512 0.305,-0.549 0.374,-0.549C0.392,-0.549 0.406,-0.547 0.416,-0.543L0.416,-0.397Z" style="fill:white;fill-opacity:0.8;fill-rule:nonzero;"/>
                </g>
            </g>
            <g transform="matrix(1.198,0,0,0.958552,893.495,-231.786)">
                <g transform="matrix(9,0,0,9,68.6657,347.267)">
                    <path d="M0.058,-0.145C0.112,-0.112 0.165,-0.096 0.216,-0.096C0.281,-0.096 0.314,-0.113 0.314,-0.148C0.314,-0.173 0.287,-0.193 0.233,-0.21C0.166,-0.231 0.12,-0.254 0.095,-0.28C0.07,-0.305 0.058,-0.34 0.058,-0.383C0.058,-0.436 0.079,-0.478 0.122,-0.508C0.165,-0.538 0.221,-0.553 0.291,-0.553C0.34,-0.553 0.388,-0.546 0.434,-0.531L0.434,-0.407C0.392,-0.432 0.346,-0.444 0.295,-0.444C0.27,-0.444 0.25,-0.44 0.235,-0.431C0.22,-0.422 0.212,-0.41 0.212,-0.396C0.212,-0.371 0.235,-0.351 0.28,-0.335C0.329,-0.319 0.366,-0.304 0.39,-0.291C0.415,-0.278 0.434,-0.26 0.447,-0.238C0.459,-0.216 0.466,-0.191 0.466,-0.163C0.466,-0.107 0.444,-0.064 0.399,-0.033C0.354,-0.002 0.295,0.013 0.22,0.013C0.162,0.013 0.107,0.004 0.058,-0.015L0.058,-0.145Z" style="fill:white;fill-opacity:0.8;fill-rule:nonzero;"/>
                </g>
                <g transform="matrix(9,0,0,9,73.2436,347.267)">
                    <path d="M0.39,-0.006C0.366,0.007 0.33,0.013 0.282,0.013C0.167,0.013 0.11,-0.047 0.11,-0.167L0.11,-0.422L0.021,-0.422L0.021,-0.54L0.11,-0.54L0.11,-0.659L0.267,-0.704L0.267,-0.54L0.39,-0.54L0.39,-0.422L0.267,-0.422L0.267,-0.195C0.267,-0.137 0.289,-0.108 0.335,-0.108C0.353,-0.108 0.371,-0.114 0.39,-0.124L0.39,-0.006Z" style="fill:white;fill-opacity:0.8;fill-rule:nonzero;"/>
                </g>
                <g transform="matrix(6.6,0,0,6.6,77.1051,347.267)">
                    <path d="M0.106,0.032L0.043,-0.021L0.122,-0.115C0.067,-0.183 0.04,-0.268 0.04,-0.368C0.04,-0.487 0.075,-0.584 0.144,-0.658C0.213,-0.732 0.305,-0.769 0.418,-0.769C0.5,-0.769 0.571,-0.748 0.63,-0.706L0.698,-0.785L0.761,-0.733L0.689,-0.65C0.748,-0.581 0.778,-0.493 0.778,-0.384C0.778,-0.266 0.743,-0.17 0.674,-0.097C0.605,-0.023 0.516,0.013 0.406,0.013C0.32,0.013 0.246,-0.011 0.182,-0.059L0.106,0.032ZM0.54,-0.6C0.506,-0.628 0.463,-0.642 0.413,-0.642C0.349,-0.642 0.297,-0.617 0.258,-0.569C0.218,-0.52 0.199,-0.455 0.199,-0.375C0.199,-0.319 0.208,-0.273 0.227,-0.234L0.54,-0.6ZM0.275,-0.165C0.311,-0.131 0.356,-0.114 0.409,-0.114C0.473,-0.114 0.524,-0.137 0.563,-0.184C0.601,-0.231 0.62,-0.294 0.62,-0.374C0.62,-0.435 0.61,-0.488 0.588,-0.533L0.275,-0.165Z" style="fill:white;fill-opacity:0.8;fill-rule:nonzero;"/>
                </g>
                <g transform="matrix(9,0,0,9,82.6053,347.267)">
                    <path d="M0.551,-0.226L0.196,-0.226C0.201,-0.142 0.252,-0.1 0.347,-0.1C0.407,-0.1 0.459,-0.115 0.505,-0.144L0.505,-0.028C0.456,-0.001 0.391,0.013 0.312,0.013C0.226,0.013 0.159,-0.011 0.111,-0.06C0.063,-0.108 0.04,-0.176 0.04,-0.262C0.04,-0.348 0.065,-0.419 0.116,-0.472C0.167,-0.526 0.23,-0.553 0.307,-0.553C0.384,-0.553 0.443,-0.53 0.487,-0.484C0.53,-0.437 0.551,-0.374 0.551,-0.292L0.551,-0.226ZM0.404,-0.324C0.404,-0.405 0.372,-0.445 0.306,-0.445C0.279,-0.445 0.255,-0.434 0.234,-0.412C0.214,-0.39 0.201,-0.361 0.195,-0.324L0.404,-0.324Z" style="fill:white;fill-opacity:0.8;fill-rule:nonzero;"/>
                </g>
                <g transform="matrix(9,0,0,9,87.9786,347.267)">
                    <path d="M0.416,-0.397C0.397,-0.408 0.374,-0.414 0.346,-0.414C0.31,-0.414 0.282,-0.4 0.261,-0.373C0.24,-0.345 0.229,-0.308 0.229,-0.26L0.229,-0L0.072,-0L0.072,-0.54L0.229,-0.54L0.229,-0.438L0.231,-0.438C0.257,-0.512 0.305,-0.549 0.374,-0.549C0.392,-0.549 0.406,-0.547 0.416,-0.543L0.416,-0.397Z" style="fill:white;fill-opacity:0.8;fill-rule:nonzero;"/>
                </g>
            </g>
        </g>
        <g id="warning-exclamation-sign-in-filled-triangle-svgrepo-com" transform="matrix(0.10749,0,0,0.107269,101.056,194.593)">
            <g transform="matrix(1,0,0,1,-61.9973,-61.9984)">
                <g>
                    <path d="M9.821,118.048L114.221,118.048C121.521,118.048 126.221,110.348 122.921,103.848L70.721,11.348C67.12,4.149 56.821,4.149 53.221,11.348L1.021,103.848C-2.179,110.348 2.521,118.048 9.821,118.048ZM70.222,96.548C70.222,101.348 66.722,105.048 61.722,105.048C56.722,105.048 53.222,101.348 53.222,96.548L53.222,96.348C53.222,91.548 56.722,87.848 61.722,87.848C66.722,87.848 70.222,91.548 70.222,96.348L70.222,96.548ZM57.121,34.048L66.922,34.048C69.621,34.048 71.222,36.348 70.922,39.248L66.621,76.848C66.321,79.548 64.521,81.248 62.021,81.248C59.521,81.248 57.721,79.548 57.421,76.848L53.12,39.248C52.821,36.348 54.422,34.048 57.121,34.048Z" style="fill:rgb(228,217,217);fill-rule:nonzero;"/>
                </g>
            </g>
        </g>
        <g transform="matrix(5.89361e-17,-0.960526,0.9625,5.88153e-17,98.5964,246.679)">
            <g transform="matrix(6,0,0,6,-7.18024,0)">
                <path d="M0.679,-0.604L0.454,-0.604L0.343,-0L0.215,-0L0.325,-0.604L0.098,-0.604L0.118,-0.715L0.7,-0.715L0.679,-0.604Z" style="fill:white;fill-opacity:0.8;fill-rule:nonzero;"/>
            </g>
            <g transform="matrix(6,0,0,6,-3.15989,0)">
                <path d="M0.413,-0.317L0.572,-0L0.429,-0L0.292,-0.296C0.27,-0.296 0.243,-0.298 0.211,-0.3L0.156,-0L0.025,-0L0.156,-0.715C0.251,-0.72 0.313,-0.723 0.343,-0.723C0.42,-0.723 0.481,-0.708 0.526,-0.678C0.57,-0.648 0.593,-0.605 0.593,-0.549C0.593,-0.492 0.576,-0.442 0.544,-0.4C0.511,-0.358 0.467,-0.33 0.413,-0.317ZM0.267,-0.605L0.23,-0.405C0.249,-0.403 0.266,-0.402 0.281,-0.402C0.404,-0.402 0.466,-0.441 0.466,-0.52C0.466,-0.552 0.454,-0.576 0.43,-0.59C0.407,-0.603 0.368,-0.61 0.313,-0.61C0.308,-0.61 0.293,-0.609 0.267,-0.605Z" style="fill:white;fill-opacity:0.8;fill-rule:nonzero;"/>
            </g>
            <g transform="matrix(6,0,0,6,0.491324,0)">
                <path d="M0.161,-0L0.033,-0L0.165,-0.715L0.292,-0.715L0.161,-0Z" style="fill:white;fill-opacity:0.8;fill-rule:nonzero;"/>
            </g>
            <g transform="matrix(6,0,0,6,2.07125,0)">
                <path d="M0.448,-0L0.426,-0.146L0.17,-0.146L0.086,-0L-0.046,-0L0.388,-0.725L0.434,-0.725L0.581,-0L0.448,-0ZM0.371,-0.508L0.224,-0.241L0.412,-0.241L0.371,-0.508Z" style="fill:white;fill-opacity:0.8;fill-rule:nonzero;"/>
            </g>
            <g transform="matrix(6,0,0,6,5.66386,0)">
                <path d="M0.476,-0L0.024,-0L0.156,-0.715L0.284,-0.715L0.173,-0.111L0.496,-0.111L0.476,-0Z" style="fill:white;fill-opacity:0.8;fill-rule:nonzero;"/>
            </g>
            <g transform="matrix(6,0,0,6,8.74379,0)">
                <path d="M0.043,-0.232L0.063,-0.347L0.322,-0.347L0.301,-0.232L0.043,-0.232Z" style="fill:white;fill-opacity:0.8;fill-rule:nonzero;"/>
            </g>
            <g transform="matrix(6,0,0,6,10.8569,0)">
                <path d="M0.448,-0L0.426,-0.146L0.17,-0.146L0.086,-0L-0.046,-0L0.388,-0.725L0.434,-0.725L0.581,-0L0.448,-0ZM0.371,-0.508L0.224,-0.241L0.412,-0.241L0.371,-0.508Z" style="fill:white;fill-opacity:0.8;fill-rule:nonzero;"/>
            </g>
            <g transform="matrix(6,0,0,6,14.4495,0)">
                <path d="M0.543,0.01L0.494,0.01L0.23,-0.453L0.151,-0L0.025,-0L0.157,-0.715L0.215,-0.715L0.474,-0.272L0.551,-0.715L0.677,-0.715L0.543,0.01Z" style="fill:white;fill-opacity:0.8;fill-rule:nonzero;"/>
            </g>
            <g transform="matrix(6,0,0,6,18.3205,0)">
                <path d="M0.194,-0L0.021,-0L0.151,-0.714C0.199,-0.722 0.243,-0.727 0.285,-0.727C0.394,-0.727 0.479,-0.702 0.538,-0.652C0.598,-0.602 0.627,-0.53 0.627,-0.436C0.627,-0.303 0.588,-0.197 0.509,-0.118C0.431,-0.039 0.325,-0 0.194,-0ZM0.257,-0.611L0.17,-0.114C0.185,-0.112 0.198,-0.112 0.209,-0.112C0.297,-0.112 0.366,-0.143 0.417,-0.204C0.469,-0.266 0.495,-0.345 0.495,-0.441C0.495,-0.494 0.477,-0.536 0.441,-0.568C0.406,-0.6 0.36,-0.616 0.305,-0.616C0.289,-0.616 0.273,-0.614 0.257,-0.611Z" style="fill:white;fill-opacity:0.8;fill-rule:nonzero;"/>
            </g>
            <g transform="matrix(6,0,0,6,22.0244,0)">
                <path d="M0.043,-0.232L0.063,-0.347L0.322,-0.347L0.301,-0.232L0.043,-0.232Z" style="fill:white;fill-opacity:0.8;fill-rule:nonzero;"/>
            </g>
            <g transform="matrix(6,0,0,6,24.1375,0)">
                <path d="M0.592,-0.604L0.262,-0.604L0.232,-0.439L0.469,-0.439L0.449,-0.333L0.212,-0.333L0.172,-0.111L0.497,-0.111L0.476,-0L0.021,-0L0.152,-0.715L0.613,-0.715L0.592,-0.604Z" style="fill:white;fill-opacity:0.8;fill-rule:nonzero;"/>
            </g>
            <g transform="matrix(6,0,0,6,27.6071,0)">
                <path d="M0.413,-0.317L0.572,-0L0.429,-0L0.292,-0.296C0.27,-0.296 0.243,-0.298 0.211,-0.3L0.156,-0L0.025,-0L0.156,-0.715C0.251,-0.72 0.313,-0.723 0.343,-0.723C0.42,-0.723 0.481,-0.708 0.526,-0.678C0.57,-0.648 0.593,-0.605 0.593,-0.549C0.593,-0.492 0.576,-0.442 0.544,-0.4C0.511,-0.358 0.467,-0.33 0.413,-0.317ZM0.267,-0.605L0.23,-0.405C0.249,-0.403 0.266,-0.402 0.281,-0.402C0.404,-0.402 0.466,-0.441 0.466,-0.52C0.466,-0.552 0.454,-0.576 0.43,-0.59C0.407,-0.603 0.368,-0.61 0.313,-0.61C0.308,-0.61 0.293,-0.609 0.267,-0.605Z" style="fill:white;fill-opacity:0.8;fill-rule:nonzero;"/>
            </g>
            <g transform="matrix(6,0,0,6,31.2583,0)">
                <path d="M0.413,-0.317L0.572,-0L0.429,-0L0.292,-0.296C0.27,-0.296 0.243,-0.298 0.211,-0.3L0.156,-0L0.025,-0L0.156,-0.715C0.251,-0.72 0.313,-0.723 0.343,-0.723C0.42,-0.723 0.481,-0.708 0.526,-0.678C0.57,-0.648 0.593,-0.605 0.593,-0.549C0.593,-0.492 0.576,-0.442 0.544,-0.4C0.511,-0.358 0.467,-0.33 0.413,-0.317ZM0.267,-0.605L0.23,-0.405C0.249,-0.403 0.266,-0.402 0.281,-0.402C0.404,-0.402 0.466,-0.441 0.466,-0.52C0.466,-0.552 0.454,-0.576 0.43,-0.59C0.407,-0.603 0.368,-0.61 0.313,-0.61C0.308,-0.61 0.293,-0.609 0.267,-0.605Z" style="fill:white;fill-opacity:0.8;fill-rule:nonzero;"/>
            </g>
            <g transform="matrix(6,0,0,6,34.9095,0)">
                <path d="M0.048,-0.266C0.048,-0.393 0.083,-0.502 0.153,-0.593C0.222,-0.683 0.313,-0.728 0.424,-0.728C0.509,-0.728 0.575,-0.705 0.622,-0.66C0.668,-0.615 0.691,-0.549 0.691,-0.463C0.691,-0.322 0.655,-0.208 0.584,-0.12C0.514,-0.032 0.416,0.012 0.293,0.012C0.217,0.012 0.158,-0.013 0.114,-0.064C0.07,-0.115 0.048,-0.182 0.048,-0.266ZM0.18,-0.279C0.18,-0.224 0.191,-0.181 0.213,-0.148C0.235,-0.115 0.267,-0.099 0.309,-0.099C0.386,-0.099 0.447,-0.134 0.492,-0.204C0.537,-0.273 0.56,-0.356 0.56,-0.453C0.56,-0.563 0.511,-0.617 0.415,-0.617C0.347,-0.617 0.291,-0.581 0.247,-0.51C0.202,-0.438 0.18,-0.361 0.18,-0.279Z" style="fill:white;fill-opacity:0.8;fill-rule:nonzero;"/>
            </g>
            <g transform="matrix(6,0,0,6,39.0324,0)">
                <path d="M0.413,-0.317L0.572,-0L0.429,-0L0.292,-0.296C0.27,-0.296 0.243,-0.298 0.211,-0.3L0.156,-0L0.025,-0L0.156,-0.715C0.251,-0.72 0.313,-0.723 0.343,-0.723C0.42,-0.723 0.481,-0.708 0.526,-0.678C0.57,-0.648 0.593,-0.605 0.593,-0.549C0.593,-0.492 0.576,-0.442 0.544,-0.4C0.511,-0.358 0.467,-0.33 0.413,-0.317ZM0.267,-0.605L0.23,-0.405C0.249,-0.403 0.266,-0.402 0.281,-0.402C0.404,-0.402 0.466,-0.441 0.466,-0.52C0.466,-0.552 0.454,-0.576 0.43,-0.59C0.407,-0.603 0.368,-0.61 0.313,-0.61C0.308,-0.61 0.293,-0.609 0.267,-0.605Z" style="fill:white;fill-opacity:0.8;fill-rule:nonzero;"/>
            </g>
            <g transform="matrix(6,0,0,6,24.6308,6)">
                <path d="M0.459,-0.574C0.421,-0.602 0.383,-0.616 0.344,-0.616C0.265,-0.616 0.226,-0.586 0.226,-0.527C0.226,-0.502 0.247,-0.472 0.289,-0.437L0.362,-0.375C0.385,-0.355 0.401,-0.341 0.41,-0.332C0.418,-0.323 0.428,-0.31 0.438,-0.294C0.447,-0.278 0.455,-0.262 0.459,-0.246C0.464,-0.23 0.467,-0.213 0.467,-0.196C0.467,-0.131 0.442,-0.08 0.393,-0.043C0.344,-0.006 0.281,0.012 0.203,0.012C0.139,0.012 0.078,-0.002 0.021,-0.029L0.062,-0.155C0.106,-0.122 0.156,-0.105 0.214,-0.105C0.249,-0.105 0.278,-0.113 0.301,-0.128C0.323,-0.142 0.335,-0.164 0.335,-0.191C0.335,-0.218 0.314,-0.248 0.272,-0.28L0.196,-0.341C0.172,-0.36 0.156,-0.374 0.148,-0.382C0.14,-0.391 0.131,-0.403 0.122,-0.418C0.113,-0.433 0.106,-0.448 0.102,-0.464C0.097,-0.48 0.095,-0.497 0.095,-0.514C0.095,-0.579 0.117,-0.632 0.16,-0.67C0.204,-0.708 0.261,-0.728 0.332,-0.728C0.355,-0.728 0.385,-0.725 0.421,-0.719C0.458,-0.714 0.483,-0.708 0.498,-0.701L0.459,-0.574Z" style="fill:white;fill-opacity:0.8;fill-rule:nonzero;"/>
            </g>
            <g transform="matrix(6,0,0,6,27.5496,6)">
                <path d="M0.592,-0.604L0.262,-0.604L0.232,-0.439L0.469,-0.439L0.449,-0.333L0.212,-0.333L0.172,-0.111L0.497,-0.111L0.476,-0L0.021,-0L0.152,-0.715L0.613,-0.715L0.592,-0.604Z" style="fill:white;fill-opacity:0.8;fill-rule:nonzero;"/>
            </g>
            <g transform="matrix(6,0,0,6,31.0191,6)">
                <path d="M0.413,-0.317L0.572,-0L0.429,-0L0.292,-0.296C0.27,-0.296 0.243,-0.298 0.211,-0.3L0.156,-0L0.025,-0L0.156,-0.715C0.251,-0.72 0.313,-0.723 0.343,-0.723C0.42,-0.723 0.481,-0.708 0.526,-0.678C0.57,-0.648 0.593,-0.605 0.593,-0.549C0.593,-0.492 0.576,-0.442 0.544,-0.4C0.511,-0.358 0.467,-0.33 0.413,-0.317ZM0.267,-0.605L0.23,-0.405C0.249,-0.403 0.266,-0.402 0.281,-0.402C0.404,-0.402 0.466,-0.441 0.466,-0.52C0.466,-0.552 0.454,-0.576 0.43,-0.59C0.407,-0.603 0.368,-0.61 0.313,-0.61C0.308,-0.61 0.293,-0.609 0.267,-0.605Z" style="fill:white;fill-opacity:0.8;fill-rule:nonzero;"/>
            </g>
            <g transform="matrix(6,0,0,6,34.6704,6)">
                <path d="M0.161,-0L0.033,-0L0.165,-0.715L0.292,-0.715L0.161,-0Z" style="fill:white;fill-opacity:0.8;fill-rule:nonzero;"/>
            </g>
            <g transform="matrix(6,0,0,6,36.2503,6)">
                <path d="M0.592,-0.604L0.262,-0.604L0.232,-0.439L0.469,-0.439L0.449,-0.333L0.212,-0.333L0.172,-0.111L0.497,-0.111L0.476,-0L0.021,-0L0.152,-0.715L0.613,-0.715L0.592,-0.604Z" style="fill:white;fill-opacity:0.8;fill-rule:nonzero;"/>
            </g>
            <g transform="matrix(6,0,0,6,39.7198,6)">
                <path d="M0.459,-0.574C0.421,-0.602 0.383,-0.616 0.344,-0.616C0.265,-0.616 0.226,-0.586 0.226,-0.527C0.226,-0.502 0.247,-0.472 0.289,-0.437L0.362,-0.375C0.385,-0.355 0.401,-0.341 0.41,-0.332C0.418,-0.323 0.428,-0.31 0.438,-0.294C0.447,-0.278 0.455,-0.262 0.459,-0.246C0.464,-0.23 0.467,-0.213 0.467,-0.196C0.467,-0.131 0.442,-0.08 0.393,-0.043C0.344,-0.006 0.281,0.012 0.203,0.012C0.139,0.012 0.078,-0.002 0.021,-0.029L0.062,-0.155C0.106,-0.122 0.156,-0.105 0.214,-0.105C0.249,-0.105 0.278,-0.113 0.301,-0.128C0.323,-0.142 0.335,-0.164 0.335,-0.191C0.335,-0.218 0.314,-0.248 0.272,-0.28L0.196,-0.341C0.172,-0.36 0.156,-0.374 0.148,-0.382C0.14,-0.391 0.131,-0.403 0.122,-0.418C0.113,-0.433 0.106,-0.448 0.102,-0.464C0.097,-0.48 0.095,-0.497 0.095,-0.514C0.095,-0.579 0.117,-0.632 0.16,-0.67C0.204,-0.708 0.261,-0.728 0.332,-0.728C0.355,-0.728 0.385,-0.725 0.421,-0.719C0.458,-0.714 0.483,-0.708 0.498,-0.701L0.459,-0.574Z" style="fill:white;fill-opacity:0.8;fill-rule:nonzero;"/>
            </g>
        </g>
    </g>
</svg>
