<?xml version="1.0" encoding="UTF-8" standalone="no"?>
<!DOCTYPE svg PUBLIC "-//W3C//DTD SVG 1.1//EN" "http://www.w3.org/Graphics/SVG/1.1/DTD/svg11.dtd">
<svg width="100%" height="100%" viewBox="0 0 75 380" version="1.1" xmlns="http://www.w3.org/2000/svg" xmlns:xlink="http://www.w3.org/1999/xlink" xml:space="preserve" xmlns:serif="http://www.serif.com/" style="fill-rule:evenodd;clip-rule:evenodd;stroke-linecap:round;stroke-linejoin:round;stroke-miterlimit:1.5;">
    <g id="panel" transform="matrix(0.834722,0,0,1.04324,-803.837,250.623)">
        <g transform="matrix(1.4975,0,0,0.958552,963,-240.242)">
            <rect x="0" y="0" width="60" height="380" style="fill:rgb(128,187,254);"/>
        </g>
        <g transform="matrix(1.27844,0,0,1.11606,959.87,-263.382)">
            <path d="M10.793,131.018L12.165,132.275L10.551,132.275L8.936,130.796L10.551,129.316L12.165,129.316L10.793,130.574L64.385,130.574L63.012,129.316L64.627,129.316L66.241,130.796L64.627,132.275L63.012,132.275L64.385,131.018L10.793,131.018Z" style="fill-opacity:0.6;"/>
        </g>
        <g transform="matrix(0.994916,0,0,0.86855,970.527,-231.008)">
            <path d="M10.793,131.018L12.165,132.275L10.551,132.275L8.936,130.796L10.551,129.316L12.165,129.316L10.793,130.574L64.385,130.574L63.012,129.316L64.627,129.316L66.241,130.796L64.627,132.275L63.012,132.275L64.385,131.018L10.793,131.018Z" style="fill-opacity:0.6;"/>
        </g>
        <g transform="matrix(0.531338,0,0,1.81961,978.958,-538.829)">
            <rect x="-30.034" y="347.456" width="169.102" height="16.91" style="fill:rgb(4,4,4);fill-opacity:0.3;"/>
        </g>
        <g transform="matrix(0.531338,0,0,1.76292,978.958,-852.772)">
            <rect x="-30.034" y="347.456" width="169.102" height="16.91" style="fill:rgb(4,4,4);fill-opacity:0.3;"/>
        </g>
        <g transform="matrix(4.01174,0,0,25.5659,813.011,-292.473)">
            <rect x="37.388" y="2.043" width="22.397" height="14.247" style="fill:none;stroke:black;stroke-opacity:0.6;stroke-width:0.03px;"/>
        </g>
        <g transform="matrix(0.840359,0,0,0.840359,175.891,16.2108)">
            <g transform="matrix(1.198,0,0,0.958552,893.633,-224.914)">
                <g transform="matrix(9,0,0,9,64.0056,347.267)">
                    <path d="M0.919,-0L0.762,-0L0.762,-0.308C0.762,-0.391 0.732,-0.432 0.671,-0.432C0.643,-0.432 0.62,-0.42 0.602,-0.395C0.583,-0.369 0.574,-0.339 0.574,-0.303L0.574,-0L0.417,-0L0.417,-0.312C0.417,-0.392 0.387,-0.432 0.327,-0.432C0.298,-0.432 0.274,-0.42 0.256,-0.396C0.238,-0.372 0.229,-0.341 0.229,-0.301L0.229,-0L0.072,-0L0.072,-0.54L0.229,-0.54L0.229,-0.456L0.231,-0.456C0.25,-0.486 0.275,-0.51 0.307,-0.528C0.338,-0.545 0.371,-0.553 0.405,-0.553C0.481,-0.553 0.533,-0.519 0.561,-0.451C0.603,-0.519 0.663,-0.553 0.743,-0.553C0.86,-0.553 0.919,-0.481 0.919,-0.335L0.919,-0Z" style="fill:rgb(10,1,1);fill-rule:nonzero;"/>
                </g>
                <g transform="matrix(9,0,0,9,72.978,347.267)">
                    <path d="M0.551,-0.226L0.196,-0.226C0.201,-0.142 0.252,-0.1 0.347,-0.1C0.407,-0.1 0.459,-0.115 0.505,-0.144L0.505,-0.028C0.456,-0.001 0.391,0.013 0.312,0.013C0.226,0.013 0.159,-0.011 0.111,-0.06C0.063,-0.108 0.04,-0.176 0.04,-0.262C0.04,-0.348 0.065,-0.419 0.116,-0.472C0.167,-0.526 0.23,-0.553 0.307,-0.553C0.384,-0.553 0.443,-0.53 0.487,-0.484C0.53,-0.437 0.551,-0.374 0.551,-0.292L0.551,-0.226ZM0.404,-0.324C0.404,-0.405 0.372,-0.445 0.306,-0.445C0.279,-0.445 0.255,-0.434 0.234,-0.412C0.214,-0.39 0.201,-0.361 0.195,-0.324L0.404,-0.324Z" style="fill:rgb(10,1,1);fill-rule:nonzero;"/>
                </g>
                <g transform="matrix(9,0,0,9,78.3513,347.267)">
                    <rect x="0.069" y="-0.799" width="0.157" height="0.799" style="fill:rgb(10,1,1);fill-rule:nonzero;"/>
                </g>
                <g transform="matrix(9,0,0,9,81.1494,347.267)">
                    <path d="M0.593,-0L0.436,-0L0.436,-0.076L0.433,-0.076C0.395,-0.017 0.339,0.013 0.264,0.013C0.195,0.013 0.141,-0.011 0.1,-0.06C0.06,-0.108 0.04,-0.174 0.04,-0.258C0.04,-0.346 0.062,-0.418 0.108,-0.472C0.153,-0.526 0.212,-0.553 0.286,-0.553C0.356,-0.553 0.405,-0.528 0.433,-0.477L0.436,-0.477L0.438,-0.707L0.593,-0.658L0.593,-0ZM0.438,-0.306C0.438,-0.342 0.427,-0.372 0.405,-0.396C0.383,-0.42 0.356,-0.432 0.323,-0.432C0.284,-0.432 0.254,-0.417 0.232,-0.386C0.21,-0.356 0.199,-0.315 0.199,-0.263C0.199,-0.213 0.21,-0.175 0.231,-0.148C0.252,-0.121 0.281,-0.108 0.318,-0.108C0.353,-0.108 0.382,-0.122 0.404,-0.15C0.427,-0.179 0.438,-0.215 0.438,-0.261L0.438,-0.306Z" style="fill:rgb(10,1,1);fill-rule:nonzero;"/>
                </g>
                <g transform="matrix(9,0,0,9,87.2654,347.267)">
                    <path d="M0.551,-0.226L0.196,-0.226C0.201,-0.142 0.252,-0.1 0.347,-0.1C0.407,-0.1 0.459,-0.115 0.505,-0.144L0.505,-0.028C0.456,-0.001 0.391,0.013 0.312,0.013C0.226,0.013 0.159,-0.011 0.111,-0.06C0.063,-0.108 0.04,-0.176 0.04,-0.262C0.04,-0.348 0.065,-0.419 0.116,-0.472C0.167,-0.526 0.23,-0.553 0.307,-0.553C0.384,-0.553 0.443,-0.53 0.487,-0.484C0.53,-0.437 0.551,-0.374 0.551,-0.292L0.551,-0.226ZM0.404,-0.324C0.404,-0.405 0.372,-0.445 0.306,-0.445C0.279,-0.445 0.255,-0.434 0.234,-0.412C0.214,-0.39 0.201,-0.361 0.195,-0.324L0.404,-0.324Z" style="fill:rgb(10,1,1);fill-rule:nonzero;"/>
                </g>
                <g transform="matrix(9,0,0,9,92.6386,347.267)">
                    <path d="M0.416,-0.397C0.397,-0.408 0.374,-0.414 0.346,-0.414C0.31,-0.414 0.282,-0.4 0.261,-0.373C0.24,-0.345 0.229,-0.308 0.229,-0.26L0.229,-0L0.072,-0L0.072,-0.54L0.229,-0.54L0.229,-0.438L0.231,-0.438C0.257,-0.512 0.305,-0.549 0.374,-0.549C0.392,-0.549 0.406,-0.547 0.416,-0.543L0.416,-0.397Z" style="fill:rgb(10,1,1);fill-rule:nonzero;"/>
                </g>
            </g>
            <g transform="matrix(1.198,0,0,0.958552,893.495,-231.786)">
                <g transform="matrix(9,0,0,9,68.6657,347.267)">
                    <path d="M0.058,-0.145C0.112,-0.112 0.165,-0.096 0.216,-0.096C0.281,-0.096 0.314,-0.113 0.314,-0.148C0.314,-0.173 0.287,-0.193 0.233,-0.21C0.166,-0.231 0.12,-0.254 0.095,-0.28C0.07,-0.305 0.058,-0.34 0.058,-0.383C0.058,-0.436 0.079,-0.478 0.122,-0.508C0.165,-0.538 0.221,-0.553 0.291,-0.553C0.34,-0.553 0.388,-0.546 0.434,-0.531L0.434,-0.407C0.392,-0.432 0.346,-0.444 0.295,-0.444C0.27,-0.444 0.25,-0.44 0.235,-0.431C0.22,-0.422 0.212,-0.41 0.212,-0.396C0.212,-0.371 0.235,-0.351 0.28,-0.335C0.329,-0.319 0.366,-0.304 0.39,-0.291C0.415,-0.278 0.434,-0.26 0.447,-0.238C0.459,-0.216 0.466,-0.191 0.466,-0.163C0.466,-0.107 0.444,-0.064 0.399,-0.033C0.354,-0.002 0.295,0.013 0.22,0.013C0.162,0.013 0.107,0.004 0.058,-0.015L0.058,-0.145Z" style="fill:rgb(10,1,1);fill-rule:nonzero;"/>
                </g>
                <g transform="matrix(9,0,0,9,73.2436,347.267)">
                    <path d="M0.39,-0.006C0.366,0.007 0.33,0.013 0.282,0.013C0.167,0.013 0.11,-0.047 0.11,-0.167L0.11,-0.422L0.021,-0.422L0.021,-0.54L0.11,-0.54L0.11,-0.659L0.267,-0.704L0.267,-0.54L0.39,-0.54L0.39,-0.422L0.267,-0.422L0.267,-0.195C0.267,-0.137 0.289,-0.108 0.335,-0.108C0.353,-0.108 0.371,-0.114 0.39,-0.124L0.39,-0.006Z" style="fill:rgb(10,1,1);fill-rule:nonzero;"/>
                </g>
                <g transform="matrix(6.6,0,0,6.6,77.1051,347.267)">
                    <path d="M0.106,0.032L0.043,-0.021L0.122,-0.115C0.067,-0.183 0.04,-0.268 0.04,-0.368C0.04,-0.487 0.075,-0.584 0.144,-0.658C0.213,-0.732 0.305,-0.769 0.418,-0.769C0.5,-0.769 0.571,-0.748 0.63,-0.706L0.698,-0.785L0.761,-0.733L0.689,-0.65C0.748,-0.581 0.778,-0.493 0.778,-0.384C0.778,-0.266 0.743,-0.17 0.674,-0.097C0.605,-0.023 0.516,0.013 0.406,0.013C0.32,0.013 0.246,-0.011 0.182,-0.059L0.106,0.032ZM0.54,-0.6C0.506,-0.628 0.463,-0.642 0.413,-0.642C0.349,-0.642 0.297,-0.617 0.258,-0.569C0.218,-0.52 0.199,-0.455 0.199,-0.375C0.199,-0.319 0.208,-0.273 0.227,-0.234L0.54,-0.6ZM0.275,-0.165C0.311,-0.131 0.356,-0.114 0.409,-0.114C0.473,-0.114 0.524,-0.137 0.563,-0.184C0.601,-0.231 0.62,-0.294 0.62,-0.374C0.62,-0.435 0.61,-0.488 0.588,-0.533L0.275,-0.165Z" style="fill-rule:nonzero;"/>
                </g>
                <g transform="matrix(9,0,0,9,82.6053,347.267)">
                    <path d="M0.551,-0.226L0.196,-0.226C0.201,-0.142 0.252,-0.1 0.347,-0.1C0.407,-0.1 0.459,-0.115 0.505,-0.144L0.505,-0.028C0.456,-0.001 0.391,0.013 0.312,0.013C0.226,0.013 0.159,-0.011 0.111,-0.06C0.063,-0.108 0.04,-0.176 0.04,-0.262C0.04,-0.348 0.065,-0.419 0.116,-0.472C0.167,-0.526 0.23,-0.553 0.307,-0.553C0.384,-0.553 0.443,-0.53 0.487,-0.484C0.53,-0.437 0.551,-0.374 0.551,-0.292L0.551,-0.226ZM0.404,-0.324C0.404,-0.405 0.372,-0.445 0.306,-0.445C0.279,-0.445 0.255,-0.434 0.234,-0.412C0.214,-0.39 0.201,-0.361 0.195,-0.324L0.404,-0.324Z" style="fill:rgb(10,1,1);fill-rule:nonzero;"/>
                </g>
                <g transform="matrix(9,0,0,9,87.9786,347.267)">
                    <path d="M0.416,-0.397C0.397,-0.408 0.374,-0.414 0.346,-0.414C0.31,-0.414 0.282,-0.4 0.261,-0.373C0.24,-0.345 0.229,-0.308 0.229,-0.26L0.229,-0L0.072,-0L0.072,-0.54L0.229,-0.54L0.229,-0.438L0.231,-0.438C0.257,-0.512 0.305,-0.549 0.374,-0.549C0.392,-0.549 0.406,-0.547 0.416,-0.543L0.416,-0.397Z" style="fill:rgb(10,1,1);fill-rule:nonzero;"/>
                </g>
            </g>
        </g>
        <g transform="matrix(1.198,0,0,0.958552,983.469,-213.548)">
            <g transform="matrix(13,0,0,13,2.02808,0)">
                <path d="M0.039,-0.364C0.039,-0.466 0.067,-0.552 0.123,-0.622C0.179,-0.693 0.253,-0.728 0.347,-0.728C0.45,-0.728 0.528,-0.696 0.583,-0.632C0.637,-0.569 0.664,-0.479 0.664,-0.364C0.664,-0.249 0.636,-0.157 0.579,-0.089C0.522,-0.022 0.441,0.012 0.337,0.012C0.241,0.012 0.167,-0.021 0.116,-0.088C0.065,-0.155 0.039,-0.247 0.039,-0.364ZM0.171,-0.364C0.171,-0.28 0.185,-0.215 0.213,-0.169C0.242,-0.124 0.283,-0.101 0.337,-0.101C0.4,-0.101 0.449,-0.123 0.482,-0.168C0.516,-0.213 0.532,-0.278 0.532,-0.364C0.532,-0.531 0.47,-0.615 0.347,-0.615C0.29,-0.615 0.247,-0.593 0.216,-0.547C0.186,-0.502 0.171,-0.441 0.171,-0.364Z" style="fill-rule:nonzero;"/>
            </g>
            <g transform="matrix(13,0,0,13,11.1687,0)">
                <path d="M0.477,-0L0.286,-0.295C0.266,-0.296 0.24,-0.297 0.205,-0.299L0.205,-0L0.073,-0L0.073,-0.715C0.08,-0.715 0.108,-0.717 0.156,-0.719C0.204,-0.721 0.242,-0.723 0.271,-0.723C0.453,-0.723 0.544,-0.652 0.544,-0.512C0.544,-0.469 0.531,-0.431 0.506,-0.396C0.481,-0.361 0.45,-0.337 0.412,-0.322L0.623,-0L0.477,-0ZM0.205,-0.605L0.205,-0.406C0.229,-0.404 0.246,-0.403 0.259,-0.403C0.312,-0.403 0.351,-0.411 0.375,-0.426C0.4,-0.441 0.412,-0.47 0.412,-0.513C0.412,-0.548 0.399,-0.573 0.373,-0.587C0.346,-0.601 0.305,-0.608 0.248,-0.608C0.234,-0.608 0.22,-0.607 0.205,-0.605Z" style="fill-rule:nonzero;"/>
            </g>
            <g transform="matrix(13,0,0,13,19.1096,0)">
                <path d="M0.292,-0L0.073,-0L0.073,-0.715C0.17,-0.719 0.237,-0.722 0.276,-0.722C0.35,-0.722 0.408,-0.706 0.45,-0.674C0.492,-0.642 0.513,-0.597 0.513,-0.538C0.513,-0.481 0.483,-0.437 0.423,-0.404C0.512,-0.373 0.556,-0.309 0.556,-0.212C0.556,-0.147 0.532,-0.096 0.482,-0.057C0.433,-0.019 0.37,-0 0.292,-0ZM0.2,-0.613L0.2,-0.442C0.22,-0.441 0.24,-0.44 0.262,-0.44C0.344,-0.44 0.386,-0.471 0.386,-0.533C0.386,-0.588 0.348,-0.616 0.273,-0.616C0.253,-0.616 0.229,-0.615 0.2,-0.613ZM0.2,-0.343L0.2,-0.106C0.226,-0.104 0.247,-0.103 0.263,-0.103C0.319,-0.103 0.36,-0.113 0.386,-0.132C0.412,-0.151 0.424,-0.183 0.424,-0.228C0.424,-0.268 0.412,-0.298 0.389,-0.316C0.365,-0.335 0.323,-0.344 0.264,-0.344C0.252,-0.344 0.23,-0.344 0.2,-0.343Z" style="fill-rule:nonzero;"/>
            </g>
            <g transform="matrix(13,0,0,13,26.8474,0)">
                <rect x="0.076" y="-0.715" width="0.127" height="0.715" style="fill-rule:nonzero;"/>
            </g>
            <g transform="matrix(13,0,0,13,30.4656,0)">
                <path d="M0.364,-0.603L0.364,-0L0.237,-0L0.237,-0.603L0.01,-0.603L0.01,-0.715L0.602,-0.715L0.602,-0.603L0.364,-0.603Z" style="fill-rule:nonzero;"/>
            </g>
        </g>
        <g transform="matrix(1.064,0,0,1.42655,966.095,-30.6681)">
            <path d="M73.138,59.611C73.138,58.128 71.119,56.924 68.634,56.924L9.611,56.924C7.125,56.924 5.107,58.128 5.107,59.611L5.107,81.016C5.107,82.5 7.125,83.704 9.611,83.704L68.634,83.704C71.119,83.704 73.138,82.5 73.138,81.016L73.138,59.611Z" style="fill-opacity:0.8;"/>
        </g>
        <g transform="matrix(0.218476,0,0,0.174808,935.186,-107.979)">
            <g opacity="0.2">
                <circle cx="411.847" cy="256.051" r="33.755" style="fill:rgb(135,223,214);"/>
                <circle cx="82.939" cy="82.939" r="44.513" style="fill:rgb(74,125,186);"/>
                <circle cx="256.051" cy="256.051" r="66.77" style="fill:rgb(255,254,159);"/>
                <path d="M256.05,333.947C299.003,333.947 333.948,299.002 333.948,256.049C333.948,213.096 299.003,178.151 256.05,178.151C213.097,178.151 178.152,213.096 178.152,256.049C178.152,299.002 213.097,333.947 256.05,333.947ZM256.05,200.408C286.731,200.408 311.691,225.369 311.691,256.049C311.691,286.729 286.73,311.69 256.05,311.69C225.37,311.69 200.409,286.729 200.409,256.049C200.409,225.369 225.369,200.408 256.05,200.408Z" style="fill-rule:nonzero;"/>
                <path d="M182.113,380.452C181.512,380.051 180.867,379.706 180.188,379.428C179.52,379.15 178.819,378.938 178.107,378.794C176.671,378.505 175.203,378.505 173.767,378.794C173.055,378.939 172.354,379.15 171.686,379.428C171.007,379.706 170.362,380.051 169.761,380.452C169.149,380.853 168.581,381.32 168.07,381.832C167.558,382.344 167.091,382.911 166.69,383.523C166.289,384.124 165.944,384.769 165.666,385.448C165.388,386.116 165.176,386.817 165.032,387.529C164.887,388.241 164.809,388.976 164.809,389.699C164.809,392.637 166,395.497 168.07,397.567C168.582,398.079 169.149,398.546 169.761,398.958C170.362,399.359 171.007,399.704 171.686,399.982C172.354,400.26 173.055,400.472 173.767,400.616C174.479,400.761 175.214,400.827 175.937,400.827C176.66,400.827 177.395,400.76 178.107,400.616C178.819,400.471 179.52,400.26 180.188,399.982C180.867,399.704 181.512,399.359 182.113,398.958C182.725,398.546 183.293,398.079 183.804,397.567C185.874,395.497 187.065,392.626 187.065,389.699C187.065,386.772 185.874,383.901 183.804,381.831C183.293,381.32 182.725,380.853 182.113,380.452Z" style="fill-rule:nonzero;"/>
                <path d="M437.034,75.066C351.78,-10.188 219.239,-24.224 118.504,40.152C108.53,31.83 96.083,27.293 82.935,27.293C68.073,27.293 54.099,33.081 43.591,43.59C33.081,54.1 27.293,68.073 27.293,82.934C27.293,96.082 31.831,108.53 40.152,118.504C-24.225,219.239 -10.188,351.781 75.066,437.033C123.408,485.377 187.683,512 256.05,512C324.418,512 388.691,485.377 437.035,437.034C485.376,388.692 512,324.417 512,256.049C512,187.681 485.376,123.408 437.034,75.066ZM59.328,59.327C65.633,53.022 74.017,49.549 82.934,49.549C91.851,49.549 100.235,53.022 106.54,59.327C107.26,60.047 107.938,60.797 108.583,61.569C108.633,61.629 108.684,61.687 108.735,61.745C113.645,67.703 116.318,75.112 116.318,82.933C116.318,91.85 112.845,100.234 106.54,106.539C100.235,112.844 91.851,116.317 82.934,116.317C75.12,116.317 67.716,113.65 61.76,108.748C61.693,108.689 61.626,108.63 61.557,108.573C60.789,107.931 60.042,107.257 59.327,106.54C53.022,100.235 49.549,91.851 49.549,82.934C49.549,74.017 53.022,65.633 59.328,59.327ZM421.296,421.297C377.158,465.436 318.472,489.745 256.05,489.745C193.628,489.745 134.942,465.436 90.804,421.297C13.531,344.023 0.319,224.208 57.622,132.499C65.364,136.464 73.985,138.576 82.934,138.576C97.796,138.576 111.77,132.788 122.278,122.279C132.788,111.769 138.575,97.797 138.575,82.935C138.575,73.986 136.462,65.365 132.498,57.623C224.208,0.32 344.024,13.532 421.296,90.804C512.413,181.921 512.413,330.179 421.296,421.297Z" style="fill-rule:nonzero;"/>
                <path d="M416.937,211.463C407.743,178.314 388.238,148.406 361.351,126.523C331.72,102.407 294.324,89.125 256.051,89.125C164.009,89.125 89.127,164.007 89.127,256.049C89.127,301.278 106.921,343.622 139.23,375.283C141.396,377.405 144.208,378.462 147.019,378.462C149.905,378.462 152.789,377.347 154.968,375.122C159.269,370.732 159.198,363.687 154.808,359.384C126.805,331.945 111.384,295.246 111.384,256.048C111.384,176.278 176.282,111.38 256.052,111.38C319.919,111.38 376.592,154.192 394.679,214.584C378.425,221.339 366.964,237.378 366.964,256.048C366.964,274.718 378.426,290.757 394.68,297.512C376.592,357.903 319.919,400.716 256.052,400.716C241.975,400.716 228.067,398.701 214.712,394.726C208.823,392.973 202.624,396.326 200.872,402.218C199.119,408.109 202.472,414.306 208.364,416.058C223.781,420.646 239.826,422.973 256.053,422.973C294.327,422.973 331.723,409.691 361.354,385.575C388.24,363.692 407.746,333.785 416.94,300.636C439.299,298.099 456.733,279.076 456.733,256.049C456.729,233.023 439.296,213.999 416.937,211.463ZM411.846,278.677C399.369,278.677 389.219,268.527 389.219,256.05C389.219,243.573 399.369,233.423 411.846,233.423C424.323,233.423 434.473,243.573 434.473,256.05C434.473,268.526 424.323,278.677 411.846,278.677Z" style="fill-rule:nonzero;"/>
            </g>
        </g>
        <g transform="matrix(1.198,0,0,0.958552,975.004,9.23969)">
            <g transform="matrix(6.4,0,0,6.4,39.2825,51.8924)">
                <path d="M0.477,-0L0.286,-0.295C0.266,-0.296 0.24,-0.297 0.205,-0.299L0.205,-0L0.073,-0L0.073,-0.715C0.08,-0.715 0.108,-0.717 0.156,-0.719C0.204,-0.721 0.242,-0.723 0.271,-0.723C0.453,-0.723 0.544,-0.652 0.544,-0.512C0.544,-0.469 0.531,-0.431 0.506,-0.396C0.481,-0.361 0.45,-0.337 0.412,-0.322L0.623,-0L0.477,-0ZM0.205,-0.605L0.205,-0.406C0.229,-0.404 0.246,-0.403 0.259,-0.403C0.312,-0.403 0.351,-0.411 0.375,-0.426C0.4,-0.441 0.412,-0.47 0.412,-0.513C0.412,-0.548 0.399,-0.573 0.373,-0.587C0.346,-0.601 0.305,-0.608 0.248,-0.608C0.234,-0.608 0.22,-0.607 0.205,-0.605Z" style="fill:white;fill-rule:nonzero;"/>
            </g>
        </g>
        <g transform="matrix(0.552947,0,0,1.4499,986.292,-119.694)">
            <path d="M73.138,59.568C73.138,58.109 69.254,56.924 64.471,56.924L13.773,56.924C8.99,56.924 5.107,58.109 5.107,59.568L5.107,81.06C5.107,82.519 8.99,83.704 13.773,83.704L64.471,83.704C69.254,83.704 73.138,82.519 73.138,81.06L73.138,59.568Z" style="fill:white;fill-opacity:0.7;"/>
        </g>
        <g transform="matrix(1.198,0,0,0.958552,958.279,-78.756)">
            <g transform="matrix(6.4,0,0,6.4,34.5046,51.8924)">
                <path d="M0.232,-0L0.073,-0L0.073,-0.715C0.174,-0.718 0.238,-0.72 0.264,-0.72C0.368,-0.72 0.451,-0.69 0.512,-0.629C0.573,-0.568 0.604,-0.487 0.604,-0.386C0.604,-0.129 0.48,-0 0.232,-0ZM0.2,-0.604L0.2,-0.116C0.221,-0.114 0.243,-0.113 0.267,-0.113C0.331,-0.113 0.381,-0.136 0.417,-0.183C0.454,-0.229 0.472,-0.294 0.472,-0.378C0.472,-0.531 0.401,-0.607 0.258,-0.607C0.245,-0.607 0.225,-0.606 0.2,-0.604Z" style="fill-rule:nonzero;"/>
            </g>
            <g transform="matrix(6.4,0,0,6.4,38.7451,51.8924)">
                <rect x="0.076" y="-0.715" width="0.127" height="0.715" style="fill-rule:nonzero;"/>
            </g>
            <g transform="matrix(6.4,0,0,6.4,40.6543,51.8924)">
                <path d="M0.039,-0.04L0.086,-0.153C0.136,-0.118 0.185,-0.101 0.234,-0.101C0.308,-0.101 0.346,-0.127 0.346,-0.179C0.346,-0.203 0.337,-0.226 0.319,-0.249C0.302,-0.271 0.266,-0.295 0.211,-0.323C0.156,-0.351 0.119,-0.373 0.1,-0.391C0.081,-0.409 0.066,-0.43 0.056,-0.454C0.046,-0.479 0.041,-0.506 0.041,-0.535C0.041,-0.59 0.061,-0.636 0.101,-0.673C0.142,-0.709 0.194,-0.728 0.257,-0.728C0.34,-0.728 0.401,-0.712 0.439,-0.681L0.401,-0.572C0.356,-0.604 0.309,-0.62 0.26,-0.62C0.23,-0.62 0.208,-0.612 0.192,-0.596C0.176,-0.581 0.167,-0.561 0.167,-0.536C0.167,-0.495 0.213,-0.452 0.304,-0.408C0.352,-0.385 0.386,-0.363 0.407,-0.344C0.428,-0.324 0.444,-0.301 0.456,-0.275C0.467,-0.248 0.472,-0.219 0.472,-0.187C0.472,-0.129 0.449,-0.081 0.404,-0.044C0.358,-0.007 0.297,0.012 0.22,0.012C0.153,0.012 0.093,-0.005 0.039,-0.04Z" style="fill-rule:nonzero;"/>
            </g>
            <g transform="matrix(6.4,0,0,6.4,44.0542,51.8924)">
                <path d="M0.364,-0.603L0.364,-0L0.237,-0L0.237,-0.603L0.01,-0.603L0.01,-0.715L0.602,-0.715L0.602,-0.603L0.364,-0.603Z" style="fill-rule:nonzero;"/>
            </g>
        </g>
        <g transform="matrix(1.064,0,0,1.42181,966.095,-73.9383)">
            <path d="M73.138,59.62C73.138,58.132 71.119,56.924 68.634,56.924L9.611,56.924C7.125,56.924 5.107,58.132 5.107,59.62L5.107,81.007C5.107,82.496 7.125,83.704 9.611,83.704L68.634,83.704C71.119,83.704 73.138,82.496 73.138,81.007L73.138,59.62Z" style="fill:white;fill-opacity:0.7;"/>
        </g>
        <g transform="matrix(1.198,0,0,0.958552,941.704,-34.7429)">
            <g transform="matrix(6.4,0,0,6.4,38.1466,51.8924)">
                <rect x="0.076" y="-0.715" width="0.127" height="0.715" style="fill-rule:nonzero;"/>
            </g>
            <g transform="matrix(6.4,0,0,6.4,40.0559,51.8924)">
                <path d="M0.542,0.01L0.195,-0.443L0.195,0L0.073,0L0.073,-0.715L0.134,-0.715L0.472,-0.284L0.472,-0.715L0.594,-0.715L0.594,0.01L0.542,0.01Z" style="fill-rule:nonzero;"/>
            </g>
        </g>
        <g transform="matrix(1.198,0,0,0.958552,941.545,9.23969)">
            <g transform="matrix(6.4,0,0,6.4,39.4684,51.8924)">
                <path d="M0.073,-0L0.073,-0.715L0.2,-0.715L0.2,-0.113L0.523,-0.113L0.523,-0L0.073,-0Z" style="fill:white;fill-rule:nonzero;"/>
            </g>
        </g>
        <g transform="matrix(1.198,0,0,0.958552,975.444,-34.7578)">
            <g transform="matrix(6.4,0,0,6.4,34.0936,51.8924)">
                <path d="M0.364,-0.603L0.364,-0L0.237,-0L0.237,-0.603L0.01,-0.603L0.01,-0.715L0.602,-0.715L0.602,-0.603L0.364,-0.603Z" style="fill-rule:nonzero;"/>
            </g>
            <g transform="matrix(6.4,0,0,6.4,38.1372,51.8924)">
                <path d="M0.477,-0L0.286,-0.295C0.266,-0.296 0.24,-0.297 0.205,-0.299L0.205,-0L0.073,-0L0.073,-0.715C0.08,-0.715 0.108,-0.717 0.156,-0.719C0.204,-0.721 0.242,-0.723 0.271,-0.723C0.453,-0.723 0.544,-0.652 0.544,-0.512C0.544,-0.469 0.531,-0.431 0.506,-0.396C0.481,-0.361 0.45,-0.337 0.412,-0.322L0.623,-0L0.477,-0ZM0.205,-0.605L0.205,-0.406C0.229,-0.404 0.246,-0.403 0.259,-0.403C0.312,-0.403 0.351,-0.411 0.375,-0.426C0.4,-0.441 0.412,-0.47 0.412,-0.513C0.412,-0.548 0.399,-0.573 0.373,-0.587C0.346,-0.601 0.305,-0.608 0.248,-0.608C0.234,-0.608 0.22,-0.607 0.205,-0.605Z" style="fill-rule:nonzero;"/>
            </g>
            <g transform="matrix(6.4,0,0,6.4,42.1746,51.8924)">
                <rect x="0.076" y="-0.715" width="0.127" height="0.715" style="fill-rule:nonzero;"/>
            </g>
            <g transform="matrix(6.4,0,0,6.4,44.0839,51.8924)">
                <path d="M0.602,-0.657L0.548,-0.555C0.533,-0.569 0.51,-0.582 0.479,-0.595C0.448,-0.608 0.421,-0.615 0.398,-0.615C0.328,-0.615 0.273,-0.591 0.232,-0.543C0.191,-0.496 0.171,-0.432 0.171,-0.352C0.171,-0.275 0.191,-0.215 0.231,-0.169C0.271,-0.123 0.325,-0.101 0.394,-0.101C0.439,-0.101 0.476,-0.113 0.505,-0.138L0.505,-0.278L0.406,-0.278L0.406,-0.387L0.632,-0.387L0.632,-0.066C0.602,-0.042 0.563,-0.022 0.515,-0.009C0.468,0.005 0.42,0.012 0.373,0.012C0.271,0.012 0.189,-0.021 0.129,-0.089C0.069,-0.156 0.039,-0.245 0.039,-0.355C0.039,-0.465 0.072,-0.555 0.137,-0.624C0.203,-0.693 0.291,-0.728 0.401,-0.728C0.48,-0.728 0.547,-0.704 0.602,-0.657Z" style="fill-rule:nonzero;"/>
            </g>
        </g>
        <g transform="matrix(0.552947,0,0,2.4068,986.292,-342.348)">
            <path d="M73.138,58.517C73.138,57.637 69.254,56.924 64.471,56.924L13.773,56.924C8.99,56.924 5.107,57.637 5.107,58.517L5.107,82.111C5.107,82.99 8.99,83.704 13.773,83.704L64.471,83.704C69.254,83.704 73.138,82.99 73.138,82.111L73.138,58.517Z" style="fill:white;fill-opacity:0.7;"/>
        </g>
        <g transform="matrix(1.198,0,0,0.958552,958.523,-246.644)">
            <g transform="matrix(6.4,0,0,6.4,29.5453,51.8924)">
                <path d="M0.039,-0.04L0.086,-0.153C0.136,-0.118 0.185,-0.101 0.234,-0.101C0.308,-0.101 0.346,-0.127 0.346,-0.179C0.346,-0.203 0.337,-0.226 0.319,-0.249C0.302,-0.271 0.266,-0.295 0.211,-0.323C0.156,-0.351 0.119,-0.373 0.1,-0.391C0.081,-0.409 0.066,-0.43 0.056,-0.454C0.046,-0.479 0.041,-0.506 0.041,-0.535C0.041,-0.59 0.061,-0.636 0.101,-0.673C0.142,-0.709 0.194,-0.728 0.257,-0.728C0.34,-0.728 0.401,-0.712 0.439,-0.681L0.401,-0.572C0.356,-0.604 0.309,-0.62 0.26,-0.62C0.23,-0.62 0.208,-0.612 0.192,-0.596C0.176,-0.581 0.167,-0.561 0.167,-0.536C0.167,-0.495 0.213,-0.452 0.304,-0.408C0.352,-0.385 0.386,-0.363 0.407,-0.344C0.428,-0.324 0.444,-0.301 0.456,-0.275C0.467,-0.248 0.472,-0.219 0.472,-0.187C0.472,-0.129 0.449,-0.081 0.404,-0.044C0.358,-0.007 0.297,0.012 0.22,0.012C0.153,0.012 0.093,-0.005 0.039,-0.04Z" style="fill-rule:nonzero;"/>
            </g>
            <g transform="matrix(6.4,0,0,6.4,32.9452,51.8924)">
                <path d="M0.2,-0.263L0.2,-0L0.073,-0L0.073,-0.715C0.158,-0.718 0.207,-0.72 0.222,-0.72C0.335,-0.72 0.417,-0.703 0.469,-0.668C0.522,-0.634 0.548,-0.579 0.548,-0.506C0.548,-0.342 0.451,-0.26 0.258,-0.26C0.243,-0.26 0.224,-0.261 0.2,-0.263ZM0.2,-0.605L0.2,-0.376C0.222,-0.374 0.239,-0.373 0.251,-0.373C0.309,-0.373 0.351,-0.382 0.378,-0.402C0.405,-0.421 0.418,-0.452 0.418,-0.496C0.418,-0.57 0.358,-0.607 0.239,-0.607C0.225,-0.607 0.213,-0.607 0.2,-0.605Z" style="fill-rule:nonzero;"/>
            </g>
            <g transform="matrix(6.4,0,0,6.4,36.8294,51.8924)">
                <path d="M0.477,-0L0.286,-0.295C0.266,-0.296 0.24,-0.297 0.205,-0.299L0.205,-0L0.073,-0L0.073,-0.715C0.08,-0.715 0.108,-0.717 0.156,-0.719C0.204,-0.721 0.242,-0.723 0.271,-0.723C0.453,-0.723 0.544,-0.652 0.544,-0.512C0.544,-0.469 0.531,-0.431 0.506,-0.396C0.481,-0.361 0.45,-0.337 0.412,-0.322L0.623,-0L0.477,-0ZM0.205,-0.605L0.205,-0.406C0.229,-0.404 0.246,-0.403 0.259,-0.403C0.312,-0.403 0.351,-0.411 0.375,-0.426C0.4,-0.441 0.412,-0.47 0.412,-0.513C0.412,-0.548 0.399,-0.573 0.373,-0.587C0.346,-0.601 0.305,-0.608 0.248,-0.608C0.234,-0.608 0.22,-0.607 0.205,-0.605Z" style="fill-rule:nonzero;"/>
            </g>
            <g transform="matrix(6.4,0,0,6.4,40.8668,51.8924)">
                <path d="M0.2,-0.603L0.2,-0.435L0.437,-0.435L0.437,-0.327L0.2,-0.327L0.2,-0.113L0.524,-0.113L0.524,-0L0.073,-0L0.073,-0.715L0.53,-0.715L0.53,-0.603L0.2,-0.603Z" style="fill-rule:nonzero;"/>
            </g>
            <g transform="matrix(6.4,0,0,6.4,44.6354,51.8924)">
                <path d="M0.491,-0L0.438,-0.145L0.193,-0.145L0.144,-0L0.002,-0L0.288,-0.725L0.343,-0.725L0.631,-0L0.491,-0ZM0.315,-0.506L0.229,-0.242L0.401,-0.242L0.315,-0.506Z" style="fill-rule:nonzero;"/>
            </g>
            <g transform="matrix(6.4,0,0,6.4,48.8166,51.8924)">
                <path d="M0.232,-0L0.073,-0L0.073,-0.715C0.174,-0.718 0.238,-0.72 0.264,-0.72C0.368,-0.72 0.451,-0.69 0.512,-0.629C0.573,-0.568 0.604,-0.487 0.604,-0.386C0.604,-0.129 0.48,-0 0.232,-0ZM0.2,-0.604L0.2,-0.116C0.221,-0.114 0.243,-0.113 0.267,-0.113C0.331,-0.113 0.381,-0.136 0.417,-0.183C0.454,-0.229 0.472,-0.294 0.472,-0.378C0.472,-0.531 0.401,-0.607 0.258,-0.607C0.245,-0.607 0.225,-0.606 0.2,-0.604Z" style="fill-rule:nonzero;"/>
            </g>
        </g>
        <g transform="matrix(1.198,0,0,0.958552,958.523,-246.644)">
            <g transform="matrix(6.4,0,0,6.4,29.5453,51.8924)">
                <path d="M0.039,-0.04L0.086,-0.153C0.136,-0.118 0.185,-0.101 0.234,-0.101C0.308,-0.101 0.346,-0.127 0.346,-0.179C0.346,-0.203 0.337,-0.226 0.319,-0.249C0.302,-0.271 0.266,-0.295 0.211,-0.323C0.156,-0.351 0.119,-0.373 0.1,-0.391C0.081,-0.409 0.066,-0.43 0.056,-0.454C0.046,-0.479 0.041,-0.506 0.041,-0.535C0.041,-0.59 0.061,-0.636 0.101,-0.673C0.142,-0.709 0.194,-0.728 0.257,-0.728C0.34,-0.728 0.401,-0.712 0.439,-0.681L0.401,-0.572C0.356,-0.604 0.309,-0.62 0.26,-0.62C0.23,-0.62 0.208,-0.612 0.192,-0.596C0.176,-0.581 0.167,-0.561 0.167,-0.536C0.167,-0.495 0.213,-0.452 0.304,-0.408C0.352,-0.385 0.386,-0.363 0.407,-0.344C0.428,-0.324 0.444,-0.301 0.456,-0.275C0.467,-0.248 0.472,-0.219 0.472,-0.187C0.472,-0.129 0.449,-0.081 0.404,-0.044C0.358,-0.007 0.297,0.012 0.22,0.012C0.153,0.012 0.093,-0.005 0.039,-0.04Z" style="fill-rule:nonzero;"/>
            </g>
            <g transform="matrix(6.4,0,0,6.4,32.9452,51.8924)">
                <path d="M0.2,-0.263L0.2,-0L0.073,-0L0.073,-0.715C0.158,-0.718 0.207,-0.72 0.222,-0.72C0.335,-0.72 0.417,-0.703 0.469,-0.668C0.522,-0.634 0.548,-0.579 0.548,-0.506C0.548,-0.342 0.451,-0.26 0.258,-0.26C0.243,-0.26 0.224,-0.261 0.2,-0.263ZM0.2,-0.605L0.2,-0.376C0.222,-0.374 0.239,-0.373 0.251,-0.373C0.309,-0.373 0.351,-0.382 0.378,-0.402C0.405,-0.421 0.418,-0.452 0.418,-0.496C0.418,-0.57 0.358,-0.607 0.239,-0.607C0.225,-0.607 0.213,-0.607 0.2,-0.605Z" style="fill-rule:nonzero;"/>
            </g>
            <g transform="matrix(6.4,0,0,6.4,36.8294,51.8924)">
                <path d="M0.477,-0L0.286,-0.295C0.266,-0.296 0.24,-0.297 0.205,-0.299L0.205,-0L0.073,-0L0.073,-0.715C0.08,-0.715 0.108,-0.717 0.156,-0.719C0.204,-0.721 0.242,-0.723 0.271,-0.723C0.453,-0.723 0.544,-0.652 0.544,-0.512C0.544,-0.469 0.531,-0.431 0.506,-0.396C0.481,-0.361 0.45,-0.337 0.412,-0.322L0.623,-0L0.477,-0ZM0.205,-0.605L0.205,-0.406C0.229,-0.404 0.246,-0.403 0.259,-0.403C0.312,-0.403 0.351,-0.411 0.375,-0.426C0.4,-0.441 0.412,-0.47 0.412,-0.513C0.412,-0.548 0.399,-0.573 0.373,-0.587C0.346,-0.601 0.305,-0.608 0.248,-0.608C0.234,-0.608 0.22,-0.607 0.205,-0.605Z" style="fill-rule:nonzero;"/>
            </g>
            <g transform="matrix(6.4,0,0,6.4,40.8668,51.8924)">
                <path d="M0.2,-0.603L0.2,-0.435L0.437,-0.435L0.437,-0.327L0.2,-0.327L0.2,-0.113L0.524,-0.113L0.524,-0L0.073,-0L0.073,-0.715L0.53,-0.715L0.53,-0.603L0.2,-0.603Z" style="fill-rule:nonzero;"/>
            </g>
            <g transform="matrix(6.4,0,0,6.4,44.6354,51.8924)">
                <path d="M0.491,-0L0.438,-0.145L0.193,-0.145L0.144,-0L0.002,-0L0.288,-0.725L0.343,-0.725L0.631,-0L0.491,-0ZM0.315,-0.506L0.229,-0.242L0.401,-0.242L0.315,-0.506Z" style="fill-rule:nonzero;"/>
            </g>
            <g transform="matrix(6.4,0,0,6.4,48.8166,51.8924)">
                <path d="M0.232,-0L0.073,-0L0.073,-0.715C0.174,-0.718 0.238,-0.72 0.264,-0.72C0.368,-0.72 0.451,-0.69 0.512,-0.629C0.573,-0.568 0.604,-0.487 0.604,-0.386C0.604,-0.129 0.48,-0 0.232,-0ZM0.2,-0.604L0.2,-0.116C0.221,-0.114 0.243,-0.113 0.267,-0.113C0.331,-0.113 0.381,-0.136 0.417,-0.183C0.454,-0.229 0.472,-0.294 0.472,-0.378C0.472,-0.531 0.401,-0.607 0.258,-0.607C0.245,-0.607 0.225,-0.606 0.2,-0.604Z" style="fill-rule:nonzero;"/>
            </g>
        </g>
        <g transform="matrix(0.552947,0,0,1.44962,986.292,-218.208)">
            <path d="M73.138,59.569C73.138,58.109 69.254,56.924 64.471,56.924L13.773,56.924C8.99,56.924 5.107,58.109 5.107,59.569L5.107,81.059C5.107,82.519 8.99,83.704 13.773,83.704L64.471,83.704C69.254,83.704 73.138,82.519 73.138,81.059L73.138,59.569Z" style="fill:white;fill-opacity:0.3;"/>
        </g>
        <g transform="matrix(1.198,0,0,0.958552,958.279,-176.656)">
            <g transform="matrix(6.4,0,0,6.4,32.2546,51.8924)">
                <path d="M0.232,-0L0.073,-0L0.073,-0.715C0.174,-0.718 0.238,-0.72 0.264,-0.72C0.368,-0.72 0.451,-0.69 0.512,-0.629C0.573,-0.568 0.604,-0.487 0.604,-0.386C0.604,-0.129 0.48,-0 0.232,-0ZM0.2,-0.604L0.2,-0.116C0.221,-0.114 0.243,-0.113 0.267,-0.113C0.331,-0.113 0.381,-0.136 0.417,-0.183C0.454,-0.229 0.472,-0.294 0.472,-0.378C0.472,-0.531 0.401,-0.607 0.258,-0.607C0.245,-0.607 0.225,-0.606 0.2,-0.604Z" style="fill-rule:nonzero;"/>
            </g>
            <g transform="matrix(6.4,0,0,6.4,36.4951,51.8924)">
                <path d="M0.477,-0L0.286,-0.295C0.266,-0.296 0.24,-0.297 0.205,-0.299L0.205,-0L0.073,-0L0.073,-0.715C0.08,-0.715 0.108,-0.717 0.156,-0.719C0.204,-0.721 0.242,-0.723 0.271,-0.723C0.453,-0.723 0.544,-0.652 0.544,-0.512C0.544,-0.469 0.531,-0.431 0.506,-0.396C0.481,-0.361 0.45,-0.337 0.412,-0.322L0.623,-0L0.477,-0ZM0.205,-0.605L0.205,-0.406C0.229,-0.404 0.246,-0.403 0.259,-0.403C0.312,-0.403 0.351,-0.411 0.375,-0.426C0.4,-0.441 0.412,-0.47 0.412,-0.513C0.412,-0.548 0.399,-0.573 0.373,-0.587C0.346,-0.601 0.305,-0.608 0.248,-0.608C0.234,-0.608 0.22,-0.607 0.205,-0.605Z" style="fill-rule:nonzero;"/>
            </g>
            <g transform="matrix(6.4,0,0,6.4,40.5325,51.8924)">
                <rect x="0.076" y="-0.715" width="0.127" height="0.715" style="fill-rule:nonzero;"/>
            </g>
            <g transform="matrix(6.4,0,0,6.4,42.4417,51.8924)">
                <path d="M0.2,-0.603L0.2,-0.435L0.452,-0.435L0.452,-0.327L0.2,-0.327L0.2,-0L0.073,-0L0.073,-0.715L0.544,-0.715L0.544,-0.603L0.2,-0.603Z" style="fill-rule:nonzero;"/>
            </g>
            <g transform="matrix(6.4,0,0,6.4,46.3041,51.8924)">
                <path d="M0.364,-0.603L0.364,-0L0.237,-0L0.237,-0.603L0.01,-0.603L0.01,-0.715L0.602,-0.715L0.602,-0.603L0.364,-0.603Z" style="fill-rule:nonzero;"/>
            </g>
        </g>
        <g transform="matrix(1.4175,0,0,4.81855,954.768,-454.07)">
            <path d="M11.969,57.675C11.969,57.675 12.168,55.451 37.68,55.424C62.993,55.398 63.031,57.675 63.031,57.675" style="fill:none;stroke:black;stroke-opacity:0.6;stroke-width:0.16px;"/>
        </g>
        <g transform="matrix(1.24171,0,0,4.22098,961.361,-419.605)">
            <path d="M11.969,57.675C11.969,57.675 12.168,55.451 37.68,55.424C62.993,55.398 63.031,57.675 63.031,57.675" style="fill:none;stroke:black;stroke-opacity:0.6;stroke-width:0.16px;"/>
        </g>
        <g>
            <g transform="matrix(1.53623,0,0,0.992708,960.534,-248.414)">
                <ellipse cx="8.071" cy="240.424" rx="0.78" ry="0.966" style="fill-opacity:0.6;"/>
            </g>
            <g transform="matrix(1.53623,0,0,0.992708,963.742,-248.414)">
                <ellipse cx="8.071" cy="240.424" rx="0.78" ry="0.966" style="fill-opacity:0.6;"/>
            </g>
            <g transform="matrix(1.53623,0,0,0.992708,966.95,-248.414)">
                <ellipse cx="8.071" cy="240.424" rx="0.78" ry="0.966" style="fill-opacity:0.2;"/>
            </g>
            <g transform="matrix(1.53623,0,0,0.992708,971.417,-248.414)">
                <ellipse cx="8.071" cy="240.424" rx="0.78" ry="0.966" style="fill-opacity:0.6;"/>
            </g>
            <g transform="matrix(1.53623,0,0,0.992708,969.346,-248.414)">
                <ellipse cx="8.071" cy="240.424" rx="0.78" ry="0.966" style="fill-opacity:0.4;"/>
            </g>
            <g transform="matrix(1.53623,0,0,0.992708,975.52,-248.414)">
                <ellipse cx="8.071" cy="240.424" rx="0.78" ry="0.966" style="fill-opacity:0.6;"/>
            </g>
            <g transform="matrix(1.53623,0,0,0.992708,976.56,-248.414)">
                <ellipse cx="8.071" cy="240.424" rx="0.78" ry="0.966" style="fill-opacity:0.6;"/>
            </g>
            <g transform="matrix(1.53623,0,0,0.992708,1012.57,-248.414)">
                <ellipse cx="8.071" cy="240.424" rx="0.78" ry="0.966" style="fill-opacity:0.4;"/>
            </g>
            <g transform="matrix(1.53623,0,0,0.992708,979.245,-248.414)">
                <ellipse cx="8.071" cy="240.424" rx="0.78" ry="0.966" style="fill-opacity:0.6;"/>
            </g>
            <g transform="matrix(1.53623,0,0,0.992708,962.482,-248.414)">
                <ellipse cx="8.071" cy="240.424" rx="0.78" ry="0.966" style="fill:rgb(51,75,102);fill-opacity:0.6;"/>
            </g>
            <g transform="matrix(1.53623,0,0,0.992708,1016.34,-248.414)">
                <ellipse cx="8.071" cy="240.424" rx="0.78" ry="0.966" style="fill-opacity:0.2;"/>
            </g>
            <g transform="matrix(1.53623,0,0,0.992708,1019.55,-248.414)">
                <ellipse cx="8.071" cy="240.424" rx="0.78" ry="0.966" style="fill-opacity:0.6;"/>
            </g>
            <g transform="matrix(1.53623,0,0,0.992708,1021.05,-248.414)">
                <ellipse cx="8.071" cy="240.424" rx="0.78" ry="0.966" style="fill-opacity:0.4;"/>
            </g>
            <g transform="matrix(1.53623,0,0,0.992708,1027.23,-248.414)">
                <ellipse cx="8.071" cy="240.424" rx="0.78" ry="0.966" style="fill-opacity:0.6;"/>
            </g>
            <g transform="matrix(1.53623,0,0,0.992708,1025.16,-248.414)">
                <ellipse cx="8.071" cy="240.424" rx="0.78" ry="0.966" style="fill-opacity:0.5;"/>
            </g>
            <g transform="matrix(1.53623,0,0,0.992708,1031.33,-248.414)">
                <ellipse cx="8.071" cy="240.424" rx="0.78" ry="0.966" style="fill-opacity:0.4;"/>
            </g>
            <g transform="matrix(1.53623,0,0,0.992708,1010.72,-248.414)">
                <ellipse cx="8.071" cy="240.424" rx="0.78" ry="0.966" style="fill-opacity:0.6;"/>
            </g>
            <g transform="matrix(1.53623,0,0,0.992708,1028.43,-248.414)">
                <ellipse cx="8.071" cy="240.424" rx="0.78" ry="0.966" style="fill-opacity:0.5;"/>
            </g>
        </g>
    </g>
</svg>
