<?xml version="1.0" encoding="UTF-8" standalone="no"?>
<!DOCTYPE svg PUBLIC "-//W3C//DTD SVG 1.1//EN" "http://www.w3.org/Graphics/SVG/1.1/DTD/svg11.dtd">
<svg width="100%" height="100%" viewBox="0 0 76 380" version="1.1" xmlns="http://www.w3.org/2000/svg" xmlns:xlink="http://www.w3.org/1999/xlink" xml:space="preserve" xmlns:serif="http://www.serif.com/" style="fill-rule:evenodd;clip-rule:evenodd;stroke-linejoin:round;stroke-miterlimit:1.41421;">
    <g transform="matrix(1.25112,0,0,1.0005,0.000286,0.0624553)">
        <rect x="0" y="0" width="60" height="380" style="fill:rgb(128,187,254);"/>
    </g>
    <g id="Layer-1" serif:id="Layer 1" transform="matrix(0.834722,0,0,1.04324,-803.837,250.623)">
        <g transform="matrix(0.664818,0,0,1.44687,968.643,-653.268)">
            <rect x="-30.034" y="347.456" width="169.102" height="16.91" style="fill-opacity:0.3;"/>
        </g>
        <g transform="matrix(0.532619,0,0,1.55539,978.816,-450.668)">
            <rect x="-30.034" y="347.456" width="169.102" height="16.91" style="fill:rgb(4,4,4);fill-opacity:0.3;"/>
        </g>
        <g id="path3052" transform="matrix(0.627102,0,0,1.06342,359.099,-7.69969)">
            <rect x="963.532" y="121.41" width="142.941" height="2.074" style="fill:url(#_Linear1);"/>
        </g>
        <g id="path40444" transform="matrix(0.624376,0,0,1.00043,361.729,-0.0169315)">
            <path d="M1107,-240.235L963,-240.235L963,124.015L1107,124.015L1107,-240.235ZM1106.47,123.484L963.531,123.484L963.531,-239.708L1106.47,-239.708L1106.47,123.484Z" style="fill:rgb(81,85,88);fill-rule:nonzero;"/>
        </g>
        <g transform="matrix(1.198,0,0,0.958552,971.008,-213.398)">
            <g>
                <g transform="matrix(13,0,0,13,1.78687,0)">
                    <path d="M0.711,0L0.526,0L0.407,-0.197C0.383,-0.237 0.363,-0.264 0.347,-0.275C0.332,-0.287 0.315,-0.293 0.297,-0.293L0.249,-0.293L0.249,0L0.087,0L0.087,-0.756L0.353,-0.756C0.533,-0.756 0.623,-0.688 0.623,-0.551C0.623,-0.5 0.608,-0.456 0.577,-0.419C0.547,-0.382 0.506,-0.356 0.453,-0.341L0.453,-0.339C0.488,-0.328 0.527,-0.289 0.569,-0.224L0.711,0ZM0.249,-0.634L0.249,-0.416L0.328,-0.416C0.365,-0.416 0.396,-0.427 0.419,-0.449C0.442,-0.471 0.453,-0.498 0.453,-0.531C0.453,-0.6 0.412,-0.634 0.331,-0.634L0.249,-0.634Z" style="fill-rule:nonzero;"/>
                </g>
                <g transform="matrix(13,0,0,13,10.5085,0)">
                    <path d="M0.551,-0.226L0.196,-0.226C0.201,-0.142 0.252,-0.1 0.347,-0.1C0.407,-0.1 0.459,-0.115 0.505,-0.144L0.505,-0.028C0.456,-0.001 0.391,0.013 0.312,0.013C0.226,0.013 0.159,-0.011 0.111,-0.06C0.063,-0.108 0.04,-0.176 0.04,-0.262C0.04,-0.348 0.065,-0.419 0.116,-0.472C0.167,-0.526 0.23,-0.553 0.307,-0.553C0.384,-0.553 0.443,-0.53 0.487,-0.484C0.53,-0.437 0.551,-0.374 0.551,-0.292L0.551,-0.226ZM0.404,-0.324C0.404,-0.405 0.372,-0.445 0.306,-0.445C0.279,-0.445 0.255,-0.434 0.234,-0.412C0.214,-0.39 0.201,-0.361 0.195,-0.324L0.404,-0.324Z" style="fill-rule:nonzero;"/>
                </g>
                <g transform="matrix(13,0,0,13,18.075,0)">
                    <path d="M0.78,0L0.78,-0.459C0.78,-0.501 0.782,-0.555 0.786,-0.619L0.782,-0.619C0.772,-0.57 0.765,-0.538 0.759,-0.521L0.572,0L0.444,0L0.255,-0.517C0.25,-0.529 0.242,-0.563 0.231,-0.619L0.227,-0.619C0.231,-0.555 0.233,-0.492 0.233,-0.428L0.233,0L0.087,0L0.087,-0.756L0.322,-0.756L0.485,-0.299C0.499,-0.262 0.508,-0.226 0.513,-0.193L0.516,-0.193C0.526,-0.234 0.537,-0.27 0.547,-0.3L0.711,-0.756L0.939,-0.756L0.939,0L0.78,0Z" style="fill-rule:nonzero;"/>
                </g>
                <g transform="matrix(13,0,0,13,31.4431,0)">
                    <path d="M0.04,-0.368C0.04,-0.487 0.075,-0.583 0.144,-0.657C0.213,-0.732 0.304,-0.769 0.418,-0.769C0.526,-0.769 0.613,-0.733 0.679,-0.661C0.745,-0.589 0.778,-0.497 0.778,-0.384C0.778,-0.266 0.744,-0.17 0.675,-0.097C0.607,-0.024 0.517,0.013 0.406,0.013C0.297,0.013 0.209,-0.022 0.142,-0.094C0.074,-0.165 0.04,-0.256 0.04,-0.368ZM0.209,-0.377C0.209,-0.303 0.227,-0.243 0.263,-0.197C0.298,-0.15 0.347,-0.126 0.409,-0.126C0.472,-0.126 0.521,-0.149 0.556,-0.194C0.591,-0.238 0.609,-0.299 0.609,-0.374C0.609,-0.453 0.592,-0.515 0.558,-0.561C0.523,-0.607 0.475,-0.629 0.413,-0.629C0.35,-0.629 0.3,-0.606 0.264,-0.559C0.228,-0.512 0.209,-0.451 0.209,-0.377Z" style="fill-rule:nonzero;"/>
                </g>
                <g transform="matrix(13,0,0,13,42.0818,0)">
                    <path d="M0.709,-0.756L0.447,0L0.265,0L0.005,-0.756L0.179,-0.756L0.343,-0.222C0.351,-0.195 0.356,-0.17 0.358,-0.147L0.361,-0.147C0.363,-0.171 0.369,-0.197 0.377,-0.224L0.541,-0.756L0.709,-0.756Z" style="fill-rule:nonzero;"/>
                </g>
                <g transform="matrix(13,0,0,13,51.3748,0)">
                    <path d="M0.535,0L0.087,0L0.087,-0.756L0.518,-0.756L0.518,-0.625L0.249,-0.625L0.249,-0.446L0.499,-0.446L0.499,-0.315L0.249,-0.315L0.249,-0.132L0.535,-0.132L0.535,0Z" style="fill-rule:nonzero;"/>
                </g>
            </g>
        </g>
        <g transform="matrix(1.198,0,0,0.958552,911.579,-223.245)">
            <g transform="matrix(9,0,0,9,52.3635,347.267)">
                <path d="M0.058,-0.145C0.112,-0.112 0.165,-0.096 0.216,-0.096C0.281,-0.096 0.314,-0.113 0.314,-0.148C0.314,-0.173 0.287,-0.193 0.233,-0.21C0.166,-0.231 0.12,-0.254 0.095,-0.28C0.07,-0.305 0.058,-0.34 0.058,-0.383C0.058,-0.436 0.079,-0.478 0.122,-0.508C0.165,-0.538 0.221,-0.553 0.291,-0.553C0.34,-0.553 0.388,-0.546 0.434,-0.531L0.434,-0.407C0.392,-0.432 0.346,-0.444 0.295,-0.444C0.27,-0.444 0.25,-0.44 0.235,-0.431C0.22,-0.422 0.212,-0.41 0.212,-0.396C0.212,-0.371 0.235,-0.351 0.28,-0.335C0.329,-0.319 0.366,-0.304 0.39,-0.291C0.415,-0.278 0.434,-0.26 0.447,-0.238C0.459,-0.216 0.466,-0.191 0.466,-0.163C0.466,-0.107 0.444,-0.064 0.399,-0.033C0.354,-0.002 0.295,0.013 0.22,0.013C0.162,0.013 0.107,0.004 0.058,-0.015L0.058,-0.145Z" style="fill:rgb(10,1,1);fill-rule:nonzero;"/>
            </g>
            <g transform="matrix(9,0,0,9,56.9414,347.267)">
                <path d="M0.39,-0.006C0.366,0.007 0.33,0.013 0.282,0.013C0.167,0.013 0.11,-0.047 0.11,-0.167L0.11,-0.422L0.021,-0.422L0.021,-0.54L0.11,-0.54L0.11,-0.659L0.267,-0.704L0.267,-0.54L0.39,-0.54L0.39,-0.422L0.267,-0.422L0.267,-0.195C0.267,-0.137 0.289,-0.108 0.335,-0.108C0.353,-0.108 0.371,-0.114 0.39,-0.124L0.39,-0.006Z" style="fill:rgb(10,1,1);fill-rule:nonzero;"/>
            </g>
            <g transform="matrix(6.6,0,0,6.6,60.8029,347.267)">
                <path d="M0.106,0.032L0.043,-0.021L0.122,-0.115C0.067,-0.183 0.04,-0.268 0.04,-0.368C0.04,-0.487 0.075,-0.584 0.144,-0.658C0.213,-0.732 0.305,-0.769 0.418,-0.769C0.5,-0.769 0.571,-0.748 0.63,-0.706L0.698,-0.785L0.761,-0.733L0.689,-0.65C0.748,-0.581 0.778,-0.493 0.778,-0.384C0.778,-0.266 0.743,-0.17 0.674,-0.097C0.605,-0.023 0.516,0.013 0.406,0.013C0.32,0.013 0.246,-0.011 0.182,-0.059L0.106,0.032ZM0.54,-0.6C0.506,-0.628 0.463,-0.642 0.413,-0.642C0.349,-0.642 0.297,-0.617 0.258,-0.569C0.218,-0.52 0.199,-0.455 0.199,-0.375C0.199,-0.319 0.208,-0.273 0.227,-0.234L0.54,-0.6ZM0.275,-0.165C0.311,-0.131 0.356,-0.114 0.409,-0.114C0.473,-0.114 0.524,-0.137 0.563,-0.184C0.601,-0.231 0.62,-0.294 0.62,-0.374C0.62,-0.435 0.61,-0.488 0.588,-0.533L0.275,-0.165Z" style="fill-rule:nonzero;"/>
            </g>
            <g transform="matrix(9,0,0,9,66.3031,347.267)">
                <path d="M0.551,-0.226L0.196,-0.226C0.201,-0.142 0.252,-0.1 0.347,-0.1C0.407,-0.1 0.459,-0.115 0.505,-0.144L0.505,-0.028C0.456,-0.001 0.391,0.013 0.312,0.013C0.226,0.013 0.159,-0.011 0.111,-0.06C0.063,-0.108 0.04,-0.176 0.04,-0.262C0.04,-0.348 0.065,-0.419 0.116,-0.472C0.167,-0.526 0.23,-0.553 0.307,-0.553C0.384,-0.553 0.443,-0.53 0.487,-0.484C0.53,-0.437 0.551,-0.374 0.551,-0.292L0.551,-0.226ZM0.404,-0.324C0.404,-0.405 0.372,-0.445 0.306,-0.445C0.279,-0.445 0.255,-0.434 0.234,-0.412C0.214,-0.39 0.201,-0.361 0.195,-0.324L0.404,-0.324Z" style="fill:rgb(10,1,1);fill-rule:nonzero;"/>
            </g>
            <g transform="matrix(9,0,0,9,71.6764,347.267)">
                <path d="M0.416,-0.397C0.397,-0.408 0.374,-0.414 0.346,-0.414C0.31,-0.414 0.282,-0.4 0.261,-0.373C0.24,-0.345 0.229,-0.308 0.229,-0.26L0.229,0L0.072,0L0.072,-0.54L0.229,-0.54L0.229,-0.438L0.231,-0.438C0.257,-0.512 0.305,-0.549 0.374,-0.549C0.392,-0.549 0.406,-0.547 0.416,-0.543L0.416,-0.397Z" style="fill:rgb(10,1,1);fill-rule:nonzero;"/>
            </g>
            <g transform="matrix(9,0,0,9,75.6478,347.267)">
                <path d="M0.919,0L0.762,0L0.762,-0.308C0.762,-0.391 0.732,-0.432 0.671,-0.432C0.643,-0.432 0.62,-0.42 0.602,-0.395C0.583,-0.369 0.574,-0.339 0.574,-0.303L0.574,0L0.417,0L0.417,-0.312C0.417,-0.392 0.387,-0.432 0.327,-0.432C0.298,-0.432 0.274,-0.42 0.256,-0.396C0.238,-0.372 0.229,-0.341 0.229,-0.301L0.229,0L0.072,0L0.072,-0.54L0.229,-0.54L0.229,-0.456L0.231,-0.456C0.25,-0.486 0.275,-0.51 0.307,-0.528C0.338,-0.545 0.371,-0.553 0.405,-0.553C0.481,-0.553 0.533,-0.519 0.561,-0.451C0.603,-0.519 0.663,-0.553 0.743,-0.553C0.86,-0.553 0.919,-0.481 0.919,-0.335L0.919,0Z" style="fill:rgb(10,1,1);fill-rule:nonzero;"/>
            </g>
            <g transform="matrix(9,0,0,9,84.6202,347.267)">
                <path d="M0.551,-0.226L0.196,-0.226C0.201,-0.142 0.252,-0.1 0.347,-0.1C0.407,-0.1 0.459,-0.115 0.505,-0.144L0.505,-0.028C0.456,-0.001 0.391,0.013 0.312,0.013C0.226,0.013 0.159,-0.011 0.111,-0.06C0.063,-0.108 0.04,-0.176 0.04,-0.262C0.04,-0.348 0.065,-0.419 0.116,-0.472C0.167,-0.526 0.23,-0.553 0.307,-0.553C0.384,-0.553 0.443,-0.53 0.487,-0.484C0.53,-0.437 0.551,-0.374 0.551,-0.292L0.551,-0.226ZM0.404,-0.324C0.404,-0.405 0.372,-0.445 0.306,-0.445C0.279,-0.445 0.255,-0.434 0.234,-0.412C0.214,-0.39 0.201,-0.361 0.195,-0.324L0.404,-0.324Z" style="fill:rgb(10,1,1);fill-rule:nonzero;"/>
            </g>
            <g transform="matrix(9,0,0,9,89.9935,347.267)">
                <rect x="0.069" y="-0.799" width="0.157" height="0.799" style="fill:rgb(10,1,1);fill-rule:nonzero;"/>
            </g>
            <g transform="matrix(9,0,0,9,92.7916,347.267)">
                <path d="M0.593,0L0.436,0L0.436,-0.076L0.433,-0.076C0.395,-0.017 0.339,0.013 0.264,0.013C0.195,0.013 0.141,-0.011 0.1,-0.06C0.06,-0.108 0.04,-0.174 0.04,-0.258C0.04,-0.346 0.062,-0.418 0.108,-0.472C0.153,-0.526 0.212,-0.553 0.286,-0.553C0.356,-0.553 0.405,-0.528 0.433,-0.477L0.436,-0.477L0.436,-0.799L0.593,-0.799L0.593,0ZM0.438,-0.306C0.438,-0.342 0.427,-0.372 0.405,-0.396C0.383,-0.42 0.356,-0.432 0.323,-0.432C0.284,-0.432 0.254,-0.417 0.232,-0.386C0.21,-0.356 0.199,-0.315 0.199,-0.263C0.199,-0.213 0.21,-0.175 0.231,-0.148C0.252,-0.121 0.281,-0.108 0.318,-0.108C0.353,-0.108 0.382,-0.122 0.404,-0.15C0.427,-0.179 0.438,-0.215 0.438,-0.261L0.438,-0.306Z" style="fill:rgb(10,1,1);fill-rule:nonzero;"/>
            </g>
            <g transform="matrix(9,0,0,9,98.9075,347.267)">
                <path d="M0.551,-0.226L0.196,-0.226C0.201,-0.142 0.252,-0.1 0.347,-0.1C0.407,-0.1 0.459,-0.115 0.505,-0.144L0.505,-0.028C0.456,-0.001 0.391,0.013 0.312,0.013C0.226,0.013 0.159,-0.011 0.111,-0.06C0.063,-0.108 0.04,-0.176 0.04,-0.262C0.04,-0.348 0.065,-0.419 0.116,-0.472C0.167,-0.526 0.23,-0.553 0.307,-0.553C0.384,-0.553 0.443,-0.53 0.487,-0.484C0.53,-0.437 0.551,-0.374 0.551,-0.292L0.551,-0.226ZM0.404,-0.324C0.404,-0.405 0.372,-0.445 0.306,-0.445C0.279,-0.445 0.255,-0.434 0.234,-0.412C0.214,-0.39 0.201,-0.361 0.195,-0.324L0.404,-0.324Z" style="fill:rgb(10,1,1);fill-rule:nonzero;"/>
            </g>
            <g transform="matrix(9,0,0,9,104.281,347.267)">
                <path d="M0.416,-0.397C0.397,-0.408 0.374,-0.414 0.346,-0.414C0.31,-0.414 0.282,-0.4 0.261,-0.373C0.24,-0.345 0.229,-0.308 0.229,-0.26L0.229,0L0.072,0L0.072,-0.54L0.229,-0.54L0.229,-0.438L0.231,-0.438C0.257,-0.512 0.305,-0.549 0.374,-0.549C0.392,-0.549 0.406,-0.547 0.416,-0.543L0.416,-0.397Z" style="fill:rgb(10,1,1);fill-rule:nonzero;"/>
            </g>
        </g>
        <g transform="matrix(1.198,0,0,0.958552,939.919,-278.202)">
            <g transform="matrix(6,0,0,6,66.3126,53.3564)">
                <path d="M0.22,-0.64L0.22,-0.119L0.514,-0.119C0.538,-0.119 0.556,-0.113 0.568,-0.102C0.581,-0.091 0.587,-0.076 0.587,-0.059C0.587,-0.042 0.581,-0.027 0.568,-0.016C0.556,-0.005 0.538,0 0.514,0L0.164,0C0.132,0 0.11,-0.007 0.096,-0.021C0.082,-0.035 0.075,-0.058 0.075,-0.089L0.075,-0.64C0.075,-0.669 0.082,-0.691 0.095,-0.706C0.108,-0.721 0.125,-0.728 0.147,-0.728C0.169,-0.728 0.186,-0.721 0.2,-0.706C0.213,-0.692 0.22,-0.67 0.22,-0.64Z" style="fill:rgb(5,5,5);fill-opacity:0.8;fill-rule:nonzero;"/>
            </g>
            <g transform="matrix(6,0,0,6,69.9366,53.3564)">
                <path d="M0.084,-0.076L0.084,-0.64C0.084,-0.669 0.091,-0.691 0.104,-0.706C0.117,-0.721 0.135,-0.728 0.156,-0.728C0.178,-0.728 0.195,-0.721 0.209,-0.706C0.222,-0.692 0.229,-0.67 0.229,-0.64L0.229,-0.076C0.229,-0.047 0.222,-0.024 0.209,-0.01C0.195,0.005 0.178,0.012 0.156,0.012C0.135,0.012 0.118,0.005 0.104,-0.01C0.091,-0.025 0.084,-0.047 0.084,-0.076Z" style="fill:rgb(5,5,5);fill-opacity:0.8;fill-rule:nonzero;"/>
            </g>
            <g transform="matrix(6,0,0,6,71.8145,53.3564)">
                <path d="M0.732,-0.291L0.732,-0.154C0.732,-0.136 0.73,-0.121 0.727,-0.11C0.723,-0.099 0.716,-0.089 0.707,-0.081C0.697,-0.072 0.685,-0.063 0.67,-0.055C0.627,-0.032 0.585,-0.015 0.545,-0.004C0.505,0.007 0.461,0.012 0.414,0.012C0.359,0.012 0.309,0.004 0.264,-0.013C0.218,-0.03 0.18,-0.055 0.148,-0.087C0.116,-0.119 0.092,-0.158 0.074,-0.204C0.057,-0.25 0.049,-0.301 0.049,-0.358C0.049,-0.414 0.057,-0.465 0.074,-0.511C0.09,-0.557 0.115,-0.596 0.147,-0.628C0.179,-0.661 0.218,-0.685 0.265,-0.702C0.311,-0.719 0.363,-0.728 0.422,-0.728C0.47,-0.728 0.513,-0.722 0.55,-0.709C0.587,-0.696 0.617,-0.68 0.64,-0.66C0.663,-0.641 0.681,-0.62 0.692,-0.598C0.704,-0.576 0.71,-0.557 0.71,-0.54C0.71,-0.522 0.703,-0.506 0.69,-0.493C0.676,-0.481 0.66,-0.474 0.641,-0.474C0.631,-0.474 0.621,-0.477 0.611,-0.481C0.601,-0.486 0.593,-0.493 0.587,-0.502C0.569,-0.53 0.554,-0.551 0.542,-0.565C0.529,-0.58 0.512,-0.592 0.491,-0.602C0.47,-0.611 0.444,-0.616 0.411,-0.616C0.378,-0.616 0.348,-0.61 0.321,-0.599C0.295,-0.587 0.272,-0.571 0.254,-0.549C0.235,-0.527 0.221,-0.5 0.211,-0.468C0.201,-0.436 0.196,-0.401 0.196,-0.362C0.196,-0.278 0.215,-0.213 0.254,-0.168C0.292,-0.123 0.346,-0.1 0.415,-0.1C0.449,-0.1 0.48,-0.104 0.51,-0.113C0.539,-0.122 0.569,-0.135 0.599,-0.151L0.599,-0.267L0.487,-0.267C0.46,-0.267 0.439,-0.271 0.426,-0.279C0.412,-0.287 0.405,-0.301 0.405,-0.321C0.405,-0.337 0.411,-0.35 0.422,-0.36C0.434,-0.371 0.449,-0.376 0.469,-0.376L0.634,-0.376C0.654,-0.376 0.671,-0.374 0.685,-0.371C0.699,-0.367 0.71,-0.359 0.719,-0.347C0.728,-0.334 0.732,-0.316 0.732,-0.291Z" style="fill:rgb(5,5,5);fill-opacity:0.8;fill-rule:nonzero;"/>
            </g>
            <g transform="matrix(6,0,0,6,76.5665,53.3564)">
                <path d="M0.224,-0.64L0.224,-0.435L0.537,-0.435L0.537,-0.64C0.537,-0.669 0.544,-0.691 0.557,-0.706C0.57,-0.721 0.587,-0.728 0.609,-0.728C0.631,-0.728 0.648,-0.721 0.662,-0.706C0.675,-0.692 0.682,-0.67 0.682,-0.64L0.682,-0.076C0.682,-0.047 0.675,-0.024 0.662,-0.01C0.648,0.005 0.63,0.012 0.609,0.012C0.587,0.012 0.57,0.005 0.557,-0.01C0.544,-0.025 0.537,-0.047 0.537,-0.076L0.537,-0.317L0.224,-0.317L0.224,-0.076C0.224,-0.047 0.217,-0.024 0.204,-0.01C0.19,0.005 0.172,0.012 0.151,0.012C0.129,0.012 0.112,0.005 0.099,-0.01C0.086,-0.025 0.079,-0.047 0.079,-0.076L0.079,-0.64C0.079,-0.669 0.086,-0.691 0.098,-0.706C0.111,-0.721 0.129,-0.728 0.151,-0.728C0.173,-0.728 0.19,-0.721 0.204,-0.706C0.217,-0.692 0.224,-0.67 0.224,-0.64Z" style="fill:rgb(5,5,5);fill-opacity:0.8;fill-rule:nonzero;"/>
            </g>
            <g transform="matrix(6,0,0,6,81.1251,53.3564)">
                <path d="M0.543,-0.596L0.385,-0.596L0.385,-0.076C0.385,-0.046 0.378,-0.024 0.365,-0.01C0.351,0.005 0.334,0.012 0.313,0.012C0.292,0.012 0.274,0.005 0.26,-0.01C0.247,-0.024 0.24,-0.047 0.24,-0.076L0.24,-0.596L0.082,-0.596C0.057,-0.596 0.039,-0.602 0.027,-0.613C0.015,-0.623 0.009,-0.638 0.009,-0.656C0.009,-0.674 0.015,-0.689 0.028,-0.7C0.04,-0.71 0.058,-0.716 0.082,-0.716L0.543,-0.716C0.568,-0.716 0.587,-0.71 0.599,-0.699C0.611,-0.688 0.617,-0.674 0.617,-0.656C0.617,-0.638 0.611,-0.623 0.599,-0.613C0.586,-0.602 0.568,-0.596 0.543,-0.596Z" style="fill:rgb(5,5,5);fill-opacity:0.8;fill-rule:nonzero;"/>
            </g>
        </g>
        <g transform="matrix(1.083,0,0,1.44236,965.623,-22.1432)">
            <path d="M73.138,58.53C73.138,57.644 71.939,56.924 70.463,56.924L7.781,56.924C6.305,56.924 5.107,57.644 5.107,58.53L5.107,82.097C5.107,82.984 6.305,83.704 7.781,83.704L70.463,83.704C71.939,83.704 73.138,82.984 73.138,82.097L73.138,58.53Z" style="fill-opacity:0.8;"/>
        </g>
        <g transform="matrix(1.083,0,0,1.4141,965.623,-101.57)">
            <path d="M73.138,58.53C73.138,57.644 71.963,56.924 70.515,56.924L7.729,56.924C6.282,56.924 5.107,57.644 5.107,58.53L5.107,82.097C5.107,82.984 6.282,83.704 7.729,83.704L70.515,83.704C71.963,83.704 73.138,82.984 73.138,82.097L73.138,58.53Z" style="fill:white;fill-opacity:0.7;"/>
        </g>
        <g transform="matrix(1.083,0,0,1.93868,965.623,-246.898)">
            <path d="M73.138,58.53C73.138,57.644 71.527,56.924 69.543,56.924L8.702,56.924C6.718,56.924 5.107,57.644 5.107,58.53L5.107,82.097C5.107,82.984 6.718,83.704 8.702,83.704L69.543,83.704C71.527,83.704 73.138,82.984 73.138,82.097L73.138,58.53Z" style="fill:white;fill-opacity:0.7;"/>
        </g>
        <g transform="matrix(1.083,0,0,2.17794,965.623,-206)">
            <path d="M73.138,58.53C73.138,57.644 71.328,56.924 69.099,56.924L9.145,56.924C6.917,56.924 5.107,57.644 5.107,58.53L5.107,82.097C5.107,82.984 6.917,83.704 9.145,83.704L69.099,83.704C71.328,83.704 73.138,82.984 73.138,82.097L73.138,58.53Z" style="fill:white;fill-opacity:0.7;"/>
        </g>
        <g transform="matrix(1.198,0,0,0.958552,976.347,-124.207)">
            <g transform="matrix(6.4,0,0,6.4,33.1122,51.8924)">
                <path d="M0.356,-0.279L0.223,-0.279L0.223,-0.076C0.223,-0.047 0.216,-0.025 0.203,-0.01C0.189,0.005 0.172,0.012 0.151,0.012C0.129,0.012 0.111,0.005 0.098,-0.01C0.085,-0.025 0.078,-0.047 0.078,-0.075L0.078,-0.627C0.078,-0.659 0.085,-0.682 0.1,-0.695C0.115,-0.709 0.138,-0.716 0.17,-0.716L0.356,-0.716C0.411,-0.716 0.453,-0.712 0.483,-0.703C0.512,-0.695 0.538,-0.681 0.559,-0.663C0.58,-0.644 0.596,-0.621 0.607,-0.593C0.618,-0.566 0.624,-0.535 0.624,-0.501C0.624,-0.428 0.602,-0.373 0.557,-0.335C0.512,-0.298 0.445,-0.279 0.356,-0.279ZM0.321,-0.607L0.223,-0.607L0.223,-0.388L0.321,-0.388C0.355,-0.388 0.384,-0.392 0.406,-0.399C0.429,-0.406 0.447,-0.418 0.459,-0.434C0.471,-0.45 0.477,-0.472 0.477,-0.498C0.477,-0.53 0.468,-0.555 0.449,-0.575C0.428,-0.596 0.386,-0.607 0.321,-0.607Z" style="fill-rule:nonzero;"/>
            </g>
            <g transform="matrix(6.4,0,0,6.4,37.3809,51.8924)">
                <path d="M0.22,-0.64L0.22,-0.119L0.514,-0.119C0.538,-0.119 0.556,-0.113 0.568,-0.102C0.581,-0.091 0.587,-0.076 0.587,-0.059C0.587,-0.042 0.581,-0.027 0.568,-0.016C0.556,-0.005 0.538,0 0.514,0L0.164,0C0.132,0 0.11,-0.007 0.096,-0.021C0.082,-0.035 0.075,-0.058 0.075,-0.089L0.075,-0.64C0.075,-0.669 0.082,-0.691 0.095,-0.706C0.108,-0.721 0.125,-0.728 0.147,-0.728C0.169,-0.728 0.186,-0.721 0.2,-0.706C0.213,-0.692 0.22,-0.67 0.22,-0.64Z" style="fill-rule:nonzero;"/>
            </g>
            <g transform="matrix(6.4,0,0,6.4,41.1622,51.8924)">
                <path d="M0.536,-0.081L0.502,-0.171L0.211,-0.171L0.177,-0.079C0.163,-0.043 0.152,-0.019 0.143,-0.007C0.133,0.006 0.118,0.012 0.096,0.012C0.078,0.012 0.062,0.006 0.048,-0.008C0.034,-0.021 0.027,-0.036 0.027,-0.053C0.027,-0.063 0.028,-0.073 0.032,-0.083C0.035,-0.094 0.04,-0.108 0.048,-0.127L0.231,-0.592C0.236,-0.605 0.242,-0.621 0.25,-0.64C0.257,-0.659 0.265,-0.674 0.273,-0.687C0.281,-0.699 0.292,-0.709 0.306,-0.717C0.319,-0.724 0.336,-0.728 0.356,-0.728C0.376,-0.728 0.393,-0.724 0.406,-0.717C0.42,-0.709 0.431,-0.699 0.439,-0.687C0.448,-0.675 0.455,-0.662 0.46,-0.648C0.466,-0.634 0.473,-0.616 0.482,-0.593L0.669,-0.131C0.684,-0.096 0.691,-0.07 0.691,-0.054C0.691,-0.038 0.684,-0.022 0.67,-0.009C0.656,0.005 0.64,0.012 0.62,0.012C0.609,0.012 0.599,0.01 0.591,0.006C0.583,0.002 0.576,-0.003 0.57,-0.01C0.565,-0.017 0.559,-0.028 0.552,-0.043C0.546,-0.057 0.541,-0.07 0.536,-0.081ZM0.249,-0.28L0.463,-0.28L0.355,-0.575L0.249,-0.28Z" style="fill-rule:nonzero;"/>
            </g>
            <g transform="matrix(6.4,0,0,6.4,45.3622,51.8924)">
                <path d="M0.238,-0.076L0.238,-0.303L0.063,-0.574C0.048,-0.599 0.037,-0.618 0.031,-0.631C0.024,-0.645 0.021,-0.657 0.021,-0.667C0.021,-0.684 0.027,-0.698 0.04,-0.71C0.053,-0.722 0.069,-0.728 0.088,-0.728C0.108,-0.728 0.123,-0.722 0.133,-0.711C0.143,-0.7 0.159,-0.678 0.179,-0.644L0.313,-0.427L0.448,-0.644C0.456,-0.657 0.463,-0.669 0.469,-0.678C0.474,-0.687 0.48,-0.695 0.487,-0.703C0.494,-0.711 0.501,-0.717 0.509,-0.722C0.517,-0.726 0.527,-0.728 0.539,-0.728C0.557,-0.728 0.573,-0.722 0.585,-0.71C0.597,-0.698 0.603,-0.685 0.603,-0.669C0.603,-0.656 0.6,-0.644 0.594,-0.631C0.588,-0.618 0.577,-0.601 0.562,-0.578L0.383,-0.303L0.383,-0.076C0.383,-0.047 0.376,-0.024 0.362,-0.01C0.349,0.005 0.331,0.012 0.31,0.012C0.289,0.012 0.271,0.005 0.258,-0.01C0.244,-0.024 0.238,-0.046 0.238,-0.076Z" style="fill-rule:nonzero;"/>
            </g>
        </g>
        <g transform="matrix(1.198,0,0,0.958552,940.307,-124.399)">
            <g transform="matrix(6.4,0,0,6.4,30.2765,51.8924)">
                <path d="M0.273,-0.306L0.222,-0.306L0.222,-0.076C0.222,-0.046 0.215,-0.024 0.202,-0.009C0.189,0.005 0.171,0.012 0.15,0.012C0.127,0.012 0.109,0.005 0.096,-0.01C0.083,-0.025 0.077,-0.047 0.077,-0.076L0.077,-0.627C0.077,-0.658 0.084,-0.681 0.098,-0.695C0.112,-0.709 0.135,-0.716 0.166,-0.716L0.402,-0.716C0.434,-0.716 0.462,-0.714 0.485,-0.712C0.508,-0.709 0.529,-0.703 0.548,-0.695C0.57,-0.685 0.59,-0.672 0.607,-0.654C0.625,-0.637 0.638,-0.616 0.647,-0.593C0.656,-0.57 0.66,-0.545 0.66,-0.519C0.66,-0.466 0.645,-0.423 0.615,-0.391C0.585,-0.359 0.539,-0.337 0.478,-0.323C0.504,-0.31 0.528,-0.289 0.552,-0.263C0.575,-0.236 0.596,-0.208 0.615,-0.177C0.633,-0.147 0.647,-0.12 0.657,-0.096C0.668,-0.072 0.673,-0.055 0.673,-0.046C0.673,-0.036 0.67,-0.027 0.664,-0.018C0.658,-0.009 0.65,-0.001 0.639,0.004C0.629,0.01 0.617,0.012 0.603,0.012C0.587,0.012 0.573,0.008 0.562,0.001C0.551,-0.007 0.541,-0.017 0.533,-0.028C0.525,-0.04 0.515,-0.057 0.501,-0.08L0.443,-0.177C0.422,-0.212 0.403,-0.239 0.387,-0.258C0.371,-0.276 0.354,-0.289 0.337,-0.296C0.32,-0.303 0.299,-0.306 0.273,-0.306ZM0.356,-0.607L0.222,-0.607L0.222,-0.41L0.352,-0.41C0.387,-0.41 0.416,-0.413 0.44,-0.419C0.464,-0.425 0.482,-0.435 0.494,-0.45C0.507,-0.464 0.513,-0.484 0.513,-0.51C0.513,-0.53 0.508,-0.547 0.498,-0.562C0.488,-0.577 0.474,-0.589 0.456,-0.596C0.439,-0.603 0.406,-0.607 0.356,-0.607Z" style="fill-rule:nonzero;"/>
            </g>
            <g transform="matrix(6.4,0,0,6.4,35.0076,51.8924)">
                <path d="M0.55,-0.604L0.223,-0.604L0.223,-0.428L0.524,-0.428C0.546,-0.428 0.563,-0.423 0.573,-0.413C0.584,-0.403 0.59,-0.39 0.59,-0.374C0.59,-0.358 0.584,-0.344 0.574,-0.334C0.563,-0.324 0.546,-0.319 0.524,-0.319L0.223,-0.319L0.223,-0.115L0.561,-0.115C0.584,-0.115 0.601,-0.11 0.613,-0.099C0.624,-0.089 0.63,-0.075 0.63,-0.057C0.63,-0.04 0.624,-0.026 0.613,-0.016C0.601,-0.005 0.584,0 0.561,0L0.167,0C0.135,0 0.113,-0.007 0.099,-0.021C0.085,-0.035 0.078,-0.058 0.078,-0.089L0.078,-0.627C0.078,-0.648 0.081,-0.665 0.087,-0.678C0.094,-0.691 0.103,-0.701 0.116,-0.707C0.13,-0.713 0.146,-0.716 0.167,-0.716L0.55,-0.716C0.573,-0.716 0.59,-0.711 0.601,-0.7C0.613,-0.69 0.618,-0.677 0.618,-0.66C0.618,-0.643 0.613,-0.63 0.601,-0.619C0.59,-0.609 0.573,-0.604 0.55,-0.604Z" style="fill-rule:nonzero;"/>
            </g>
            <g transform="matrix(6.4,0,0,6.4,39.4044,51.8924)">
                <path d="M0.622,-0.215C0.622,-0.172 0.611,-0.133 0.589,-0.098C0.566,-0.064 0.534,-0.037 0.491,-0.017C0.448,0.002 0.397,0.012 0.338,0.012C0.267,0.012 0.209,-0.001 0.163,-0.028C0.131,-0.047 0.104,-0.073 0.084,-0.105C0.063,-0.137 0.053,-0.168 0.053,-0.198C0.053,-0.216 0.059,-0.231 0.072,-0.243C0.084,-0.256 0.099,-0.262 0.118,-0.262C0.133,-0.262 0.146,-0.257 0.157,-0.248C0.168,-0.238 0.177,-0.223 0.184,-0.204C0.193,-0.181 0.203,-0.162 0.214,-0.147C0.224,-0.132 0.239,-0.119 0.258,-0.109C0.278,-0.099 0.303,-0.094 0.334,-0.094C0.377,-0.094 0.412,-0.104 0.439,-0.124C0.466,-0.144 0.479,-0.169 0.479,-0.199C0.479,-0.223 0.472,-0.242 0.457,-0.257C0.443,-0.272 0.424,-0.283 0.401,-0.291C0.378,-0.299 0.347,-0.307 0.309,-0.316C0.258,-0.328 0.215,-0.342 0.18,-0.358C0.145,-0.374 0.118,-0.396 0.097,-0.424C0.077,-0.452 0.067,-0.486 0.067,-0.528C0.067,-0.567 0.078,-0.602 0.099,-0.633C0.121,-0.663 0.152,-0.687 0.192,-0.703C0.233,-0.72 0.281,-0.728 0.336,-0.728C0.38,-0.728 0.418,-0.723 0.45,-0.712C0.482,-0.701 0.509,-0.686 0.53,-0.668C0.551,-0.65 0.566,-0.631 0.576,-0.611C0.586,-0.591 0.591,-0.572 0.591,-0.553C0.591,-0.536 0.585,-0.52 0.573,-0.507C0.56,-0.493 0.545,-0.486 0.527,-0.486C0.51,-0.486 0.498,-0.49 0.489,-0.498C0.48,-0.507 0.471,-0.52 0.461,-0.539C0.448,-0.566 0.432,-0.587 0.414,-0.602C0.396,-0.617 0.367,-0.625 0.326,-0.625C0.289,-0.625 0.259,-0.617 0.236,-0.6C0.213,-0.584 0.201,-0.564 0.201,-0.541C0.201,-0.527 0.205,-0.514 0.213,-0.504C0.221,-0.493 0.231,-0.485 0.245,-0.477C0.259,-0.47 0.273,-0.464 0.287,-0.459C0.301,-0.455 0.324,-0.449 0.356,-0.441C0.396,-0.431 0.433,-0.421 0.466,-0.41C0.498,-0.398 0.526,-0.384 0.549,-0.368C0.572,-0.352 0.59,-0.331 0.603,-0.306C0.616,-0.281 0.622,-0.251 0.622,-0.215Z" style="fill-rule:nonzero;"/>
            </g>
            <g transform="matrix(6.4,0,0,6.4,43.8011,51.8924)">
                <path d="M0.55,-0.604L0.223,-0.604L0.223,-0.428L0.524,-0.428C0.546,-0.428 0.563,-0.423 0.573,-0.413C0.584,-0.403 0.59,-0.39 0.59,-0.374C0.59,-0.358 0.584,-0.344 0.574,-0.334C0.563,-0.324 0.546,-0.319 0.524,-0.319L0.223,-0.319L0.223,-0.115L0.561,-0.115C0.584,-0.115 0.601,-0.11 0.613,-0.099C0.624,-0.089 0.63,-0.075 0.63,-0.057C0.63,-0.04 0.624,-0.026 0.613,-0.016C0.601,-0.005 0.584,0 0.561,0L0.167,0C0.135,0 0.113,-0.007 0.099,-0.021C0.085,-0.035 0.078,-0.058 0.078,-0.089L0.078,-0.627C0.078,-0.648 0.081,-0.665 0.087,-0.678C0.094,-0.691 0.103,-0.701 0.116,-0.707C0.13,-0.713 0.146,-0.716 0.167,-0.716L0.55,-0.716C0.573,-0.716 0.59,-0.711 0.601,-0.7C0.613,-0.69 0.618,-0.677 0.618,-0.66C0.618,-0.643 0.613,-0.63 0.601,-0.619C0.59,-0.609 0.573,-0.604 0.55,-0.604Z" style="fill-rule:nonzero;"/>
            </g>
            <g transform="matrix(6.4,0,0,6.4,48.1979,51.8924)">
                <path d="M0.543,-0.596L0.385,-0.596L0.385,-0.076C0.385,-0.046 0.378,-0.024 0.365,-0.01C0.351,0.005 0.334,0.012 0.313,0.012C0.292,0.012 0.274,0.005 0.26,-0.01C0.247,-0.024 0.24,-0.047 0.24,-0.076L0.24,-0.596L0.082,-0.596C0.057,-0.596 0.039,-0.602 0.027,-0.613C0.015,-0.623 0.009,-0.638 0.009,-0.656C0.009,-0.674 0.015,-0.689 0.028,-0.7C0.04,-0.71 0.058,-0.716 0.082,-0.716L0.543,-0.716C0.568,-0.716 0.587,-0.71 0.599,-0.699C0.611,-0.688 0.617,-0.674 0.617,-0.656C0.617,-0.638 0.611,-0.623 0.599,-0.613C0.586,-0.602 0.568,-0.596 0.543,-0.596Z" style="fill-rule:nonzero;"/>
            </g>
        </g>
        <g transform="matrix(1.198,0,0,0.958552,979.549,-178.67)">
            <g transform="matrix(6.4,0,0,6.4,39.3716,51.8924)">
                <path d="M0.354,-0.103L0.228,-0.103L0.228,-0.289L0.041,-0.289L0.041,-0.417L0.228,-0.417L0.228,-0.604L0.354,-0.604L0.354,-0.417L0.542,-0.417L0.542,-0.289L0.354,-0.289L0.354,-0.103Z" style="fill-rule:nonzero;"/>
            </g>
        </g>
        <g transform="matrix(1.198,0,0,0.958552,937.447,-179.244)">
            <g transform="matrix(6.4,0,0,6.4,40.1716,51.8924)">
                <path d="M0.244,-0.201L0.09,-0.201C0.066,-0.201 0.049,-0.207 0.036,-0.218C0.024,-0.228 0.018,-0.243 0.018,-0.26C0.018,-0.277 0.024,-0.292 0.036,-0.302C0.048,-0.313 0.066,-0.319 0.09,-0.319L0.244,-0.319C0.268,-0.319 0.286,-0.313 0.298,-0.302C0.31,-0.292 0.316,-0.277 0.316,-0.26C0.316,-0.243 0.31,-0.228 0.298,-0.218C0.287,-0.207 0.269,-0.201 0.244,-0.201Z" style="fill-rule:nonzero;"/>
            </g>
        </g>
        <g transform="matrix(1.198,0,0,0.958552,958.321,-178.512)">
            <g transform="matrix(6.4,0,0,6.4,34.3061,51.8924)">
                <path d="M0.622,-0.215C0.622,-0.172 0.611,-0.133 0.589,-0.098C0.566,-0.064 0.534,-0.037 0.491,-0.017C0.448,0.002 0.397,0.012 0.338,0.012C0.267,0.012 0.209,-0.001 0.163,-0.028C0.131,-0.047 0.104,-0.073 0.084,-0.105C0.063,-0.137 0.053,-0.168 0.053,-0.198C0.053,-0.216 0.059,-0.231 0.072,-0.243C0.084,-0.256 0.099,-0.262 0.118,-0.262C0.133,-0.262 0.146,-0.257 0.157,-0.248C0.168,-0.238 0.177,-0.223 0.184,-0.204C0.193,-0.181 0.203,-0.162 0.214,-0.147C0.224,-0.132 0.239,-0.119 0.258,-0.109C0.278,-0.099 0.303,-0.094 0.334,-0.094C0.377,-0.094 0.412,-0.104 0.439,-0.124C0.466,-0.144 0.479,-0.169 0.479,-0.199C0.479,-0.223 0.472,-0.242 0.457,-0.257C0.443,-0.272 0.424,-0.283 0.401,-0.291C0.378,-0.299 0.347,-0.307 0.309,-0.316C0.258,-0.328 0.215,-0.342 0.18,-0.358C0.145,-0.374 0.118,-0.396 0.097,-0.424C0.077,-0.452 0.067,-0.486 0.067,-0.528C0.067,-0.567 0.078,-0.602 0.099,-0.633C0.121,-0.663 0.152,-0.687 0.192,-0.703C0.233,-0.72 0.281,-0.728 0.336,-0.728C0.38,-0.728 0.418,-0.723 0.45,-0.712C0.482,-0.701 0.509,-0.686 0.53,-0.668C0.551,-0.65 0.566,-0.631 0.576,-0.611C0.586,-0.591 0.591,-0.572 0.591,-0.553C0.591,-0.536 0.585,-0.52 0.573,-0.507C0.56,-0.493 0.545,-0.486 0.527,-0.486C0.51,-0.486 0.498,-0.49 0.489,-0.498C0.48,-0.507 0.471,-0.52 0.461,-0.539C0.448,-0.566 0.432,-0.587 0.414,-0.602C0.396,-0.617 0.367,-0.625 0.326,-0.625C0.289,-0.625 0.259,-0.617 0.236,-0.6C0.213,-0.584 0.201,-0.564 0.201,-0.541C0.201,-0.527 0.205,-0.514 0.213,-0.504C0.221,-0.493 0.231,-0.485 0.245,-0.477C0.259,-0.47 0.273,-0.464 0.287,-0.459C0.301,-0.455 0.324,-0.449 0.356,-0.441C0.396,-0.431 0.433,-0.421 0.466,-0.41C0.498,-0.398 0.526,-0.384 0.549,-0.368C0.572,-0.352 0.59,-0.331 0.603,-0.306C0.616,-0.281 0.622,-0.251 0.622,-0.215Z" style="fill-rule:nonzero;"/>
            </g>
            <g transform="matrix(6.4,0,0,6.4,38.7028,51.8924)">
                <path d="M0.55,-0.604L0.223,-0.604L0.223,-0.428L0.524,-0.428C0.546,-0.428 0.563,-0.423 0.573,-0.413C0.584,-0.403 0.59,-0.39 0.59,-0.374C0.59,-0.358 0.584,-0.344 0.574,-0.334C0.563,-0.324 0.546,-0.319 0.524,-0.319L0.223,-0.319L0.223,-0.115L0.561,-0.115C0.584,-0.115 0.601,-0.11 0.613,-0.099C0.624,-0.089 0.63,-0.075 0.63,-0.057C0.63,-0.04 0.624,-0.026 0.613,-0.016C0.601,-0.005 0.584,0 0.561,0L0.167,0C0.135,0 0.113,-0.007 0.099,-0.021C0.085,-0.035 0.078,-0.058 0.078,-0.089L0.078,-0.627C0.078,-0.648 0.081,-0.665 0.087,-0.678C0.094,-0.691 0.103,-0.701 0.116,-0.707C0.13,-0.713 0.146,-0.716 0.167,-0.716L0.55,-0.716C0.573,-0.716 0.59,-0.711 0.601,-0.7C0.613,-0.69 0.618,-0.677 0.618,-0.66C0.618,-0.643 0.613,-0.63 0.601,-0.619C0.59,-0.609 0.573,-0.604 0.55,-0.604Z" style="fill-rule:nonzero;"/>
            </g>
            <g transform="matrix(6.4,0,0,6.4,43.0996,51.8924)">
                <path d="M0.654,-0.089C0.675,-0.075 0.698,-0.061 0.723,-0.047C0.748,-0.034 0.765,-0.023 0.773,-0.015C0.781,-0.007 0.785,0.004 0.785,0.019C0.785,0.029 0.78,0.04 0.771,0.05C0.761,0.061 0.75,0.066 0.736,0.066C0.725,0.066 0.711,0.062 0.696,0.055C0.68,0.048 0.661,0.038 0.64,0.024C0.619,0.01 0.595,-0.006 0.57,-0.024C0.523,0 0.465,0.012 0.396,0.012C0.34,0.012 0.29,0.003 0.246,-0.014C0.202,-0.032 0.165,-0.058 0.135,-0.091C0.105,-0.124 0.083,-0.164 0.068,-0.21C0.052,-0.256 0.045,-0.306 0.045,-0.36C0.045,-0.415 0.053,-0.465 0.069,-0.511C0.084,-0.557 0.107,-0.596 0.137,-0.628C0.167,-0.661 0.204,-0.685 0.247,-0.702C0.29,-0.719 0.338,-0.728 0.393,-0.728C0.467,-0.728 0.531,-0.713 0.584,-0.683C0.637,-0.653 0.678,-0.61 0.705,-0.554C0.732,-0.499 0.746,-0.434 0.746,-0.359C0.746,-0.245 0.715,-0.155 0.654,-0.089ZM0.54,-0.168C0.56,-0.191 0.575,-0.218 0.585,-0.25C0.594,-0.282 0.599,-0.318 0.599,-0.36C0.599,-0.412 0.591,-0.458 0.574,-0.496C0.557,-0.535 0.533,-0.564 0.501,-0.583C0.47,-0.603 0.434,-0.613 0.393,-0.613C0.364,-0.613 0.337,-0.607 0.313,-0.596C0.288,-0.586 0.267,-0.57 0.249,-0.549C0.232,-0.528 0.218,-0.501 0.207,-0.469C0.197,-0.437 0.192,-0.4 0.192,-0.36C0.192,-0.278 0.211,-0.214 0.25,-0.17C0.288,-0.125 0.336,-0.103 0.395,-0.103C0.419,-0.103 0.444,-0.108 0.469,-0.118C0.454,-0.13 0.435,-0.141 0.412,-0.152C0.389,-0.164 0.373,-0.173 0.365,-0.179C0.356,-0.185 0.352,-0.194 0.352,-0.205C0.352,-0.215 0.356,-0.223 0.364,-0.231C0.372,-0.238 0.381,-0.242 0.391,-0.242C0.421,-0.242 0.47,-0.217 0.54,-0.168Z" style="fill-rule:nonzero;"/>
            </g>
        </g>
        <g transform="matrix(1.198,0,0,0.958552,958.599,-63.3595)">
            <g transform="matrix(6.4,0,0,6.4,25.0173,51.8924)">
                <path d="M0.356,-0.279L0.223,-0.279L0.223,-0.076C0.223,-0.047 0.216,-0.025 0.203,-0.01C0.189,0.005 0.172,0.012 0.151,0.012C0.129,0.012 0.111,0.005 0.098,-0.01C0.085,-0.025 0.078,-0.047 0.078,-0.075L0.078,-0.627C0.078,-0.659 0.085,-0.682 0.1,-0.695C0.115,-0.709 0.138,-0.716 0.17,-0.716L0.356,-0.716C0.411,-0.716 0.453,-0.712 0.483,-0.703C0.512,-0.695 0.538,-0.681 0.559,-0.663C0.58,-0.644 0.596,-0.621 0.607,-0.593C0.618,-0.566 0.624,-0.535 0.624,-0.501C0.624,-0.428 0.602,-0.373 0.557,-0.335C0.512,-0.298 0.445,-0.279 0.356,-0.279ZM0.321,-0.607L0.223,-0.607L0.223,-0.388L0.321,-0.388C0.355,-0.388 0.384,-0.392 0.406,-0.399C0.429,-0.406 0.447,-0.418 0.459,-0.434C0.471,-0.45 0.477,-0.472 0.477,-0.498C0.477,-0.53 0.468,-0.555 0.449,-0.575C0.428,-0.596 0.386,-0.607 0.321,-0.607Z" style="fill-rule:nonzero;"/>
            </g>
            <g transform="matrix(6.4,0,0,6.4,29.4141,51.8924)">
                <path d="M0.393,-0.728C0.467,-0.728 0.531,-0.713 0.584,-0.683C0.637,-0.653 0.678,-0.61 0.705,-0.554C0.732,-0.499 0.746,-0.434 0.746,-0.359C0.746,-0.304 0.739,-0.253 0.724,-0.208C0.709,-0.163 0.686,-0.124 0.656,-0.09C0.626,-0.057 0.59,-0.032 0.546,-0.014C0.502,0.003 0.452,0.012 0.396,0.012C0.34,0.012 0.29,0.003 0.246,-0.015C0.201,-0.033 0.164,-0.058 0.135,-0.091C0.105,-0.124 0.083,-0.164 0.068,-0.21C0.052,-0.256 0.045,-0.306 0.045,-0.36C0.045,-0.415 0.053,-0.465 0.069,-0.511C0.084,-0.557 0.107,-0.596 0.137,-0.628C0.167,-0.661 0.204,-0.685 0.247,-0.702C0.29,-0.719 0.338,-0.728 0.393,-0.728ZM0.599,-0.36C0.599,-0.412 0.591,-0.458 0.574,-0.496C0.557,-0.535 0.533,-0.564 0.501,-0.583C0.47,-0.603 0.434,-0.613 0.393,-0.613C0.364,-0.613 0.337,-0.607 0.313,-0.596C0.288,-0.586 0.267,-0.57 0.249,-0.549C0.232,-0.528 0.218,-0.501 0.207,-0.469C0.197,-0.437 0.192,-0.4 0.192,-0.36C0.192,-0.319 0.197,-0.282 0.207,-0.25C0.218,-0.217 0.232,-0.189 0.251,-0.168C0.269,-0.146 0.291,-0.13 0.315,-0.119C0.339,-0.108 0.366,-0.103 0.395,-0.103C0.432,-0.103 0.466,-0.112 0.497,-0.131C0.528,-0.149 0.553,-0.178 0.572,-0.217C0.59,-0.256 0.599,-0.303 0.599,-0.36Z" style="fill-rule:nonzero;"/>
            </g>
            <g transform="matrix(6.4,0,0,6.4,34.6108,51.8924)">
                <path d="M0.622,-0.215C0.622,-0.172 0.611,-0.133 0.589,-0.098C0.566,-0.064 0.534,-0.037 0.491,-0.017C0.448,0.002 0.397,0.012 0.338,0.012C0.267,0.012 0.209,-0.001 0.163,-0.028C0.131,-0.047 0.104,-0.073 0.084,-0.105C0.063,-0.137 0.053,-0.168 0.053,-0.198C0.053,-0.216 0.059,-0.231 0.072,-0.243C0.084,-0.256 0.099,-0.262 0.118,-0.262C0.133,-0.262 0.146,-0.257 0.157,-0.248C0.168,-0.238 0.177,-0.223 0.184,-0.204C0.193,-0.181 0.203,-0.162 0.214,-0.147C0.224,-0.132 0.239,-0.119 0.258,-0.109C0.278,-0.099 0.303,-0.094 0.334,-0.094C0.377,-0.094 0.412,-0.104 0.439,-0.124C0.466,-0.144 0.479,-0.169 0.479,-0.199C0.479,-0.223 0.472,-0.242 0.457,-0.257C0.443,-0.272 0.424,-0.283 0.401,-0.291C0.378,-0.299 0.347,-0.307 0.309,-0.316C0.258,-0.328 0.215,-0.342 0.18,-0.358C0.145,-0.374 0.118,-0.396 0.097,-0.424C0.077,-0.452 0.067,-0.486 0.067,-0.528C0.067,-0.567 0.078,-0.602 0.099,-0.633C0.121,-0.663 0.152,-0.687 0.192,-0.703C0.233,-0.72 0.281,-0.728 0.336,-0.728C0.38,-0.728 0.418,-0.723 0.45,-0.712C0.482,-0.701 0.509,-0.686 0.53,-0.668C0.551,-0.65 0.566,-0.631 0.576,-0.611C0.586,-0.591 0.591,-0.572 0.591,-0.553C0.591,-0.536 0.585,-0.52 0.573,-0.507C0.56,-0.493 0.545,-0.486 0.527,-0.486C0.51,-0.486 0.498,-0.49 0.489,-0.498C0.48,-0.507 0.471,-0.52 0.461,-0.539C0.448,-0.566 0.432,-0.587 0.414,-0.602C0.396,-0.617 0.367,-0.625 0.326,-0.625C0.289,-0.625 0.259,-0.617 0.236,-0.6C0.213,-0.584 0.201,-0.564 0.201,-0.541C0.201,-0.527 0.205,-0.514 0.213,-0.504C0.221,-0.493 0.231,-0.485 0.245,-0.477C0.259,-0.47 0.273,-0.464 0.287,-0.459C0.301,-0.455 0.324,-0.449 0.356,-0.441C0.396,-0.431 0.433,-0.421 0.466,-0.41C0.498,-0.398 0.526,-0.384 0.549,-0.368C0.572,-0.352 0.59,-0.331 0.603,-0.306C0.616,-0.281 0.622,-0.251 0.622,-0.215Z" style="fill-rule:nonzero;"/>
            </g>
            <g transform="matrix(6.4,0,0,6.4,39.0076,51.8924)">
                <path d="M0.084,-0.076L0.084,-0.64C0.084,-0.669 0.091,-0.691 0.104,-0.706C0.117,-0.721 0.135,-0.728 0.156,-0.728C0.178,-0.728 0.195,-0.721 0.209,-0.706C0.222,-0.692 0.229,-0.67 0.229,-0.64L0.229,-0.076C0.229,-0.047 0.222,-0.024 0.209,-0.01C0.195,0.005 0.178,0.012 0.156,0.012C0.135,0.012 0.118,0.005 0.104,-0.01C0.091,-0.025 0.084,-0.047 0.084,-0.076Z" style="fill-rule:nonzero;"/>
            </g>
            <g transform="matrix(6.4,0,0,6.4,41.1387,51.8924)">
                <path d="M0.543,-0.596L0.385,-0.596L0.385,-0.076C0.385,-0.046 0.378,-0.024 0.365,-0.01C0.351,0.005 0.334,0.012 0.313,0.012C0.292,0.012 0.274,0.005 0.26,-0.01C0.247,-0.024 0.24,-0.047 0.24,-0.076L0.24,-0.596L0.082,-0.596C0.057,-0.596 0.039,-0.602 0.027,-0.613C0.015,-0.623 0.009,-0.638 0.009,-0.656C0.009,-0.674 0.015,-0.689 0.028,-0.7C0.04,-0.71 0.058,-0.716 0.082,-0.716L0.543,-0.716C0.568,-0.716 0.587,-0.71 0.599,-0.699C0.611,-0.688 0.617,-0.674 0.617,-0.656C0.617,-0.638 0.611,-0.623 0.599,-0.613C0.586,-0.602 0.568,-0.596 0.543,-0.596Z" style="fill-rule:nonzero;"/>
            </g>
            <g transform="matrix(6.4,0,0,6.4,45.2667,51.8924)">
                <path d="M0.084,-0.076L0.084,-0.64C0.084,-0.669 0.091,-0.691 0.104,-0.706C0.117,-0.721 0.135,-0.728 0.156,-0.728C0.178,-0.728 0.195,-0.721 0.209,-0.706C0.222,-0.692 0.229,-0.67 0.229,-0.64L0.229,-0.076C0.229,-0.047 0.222,-0.024 0.209,-0.01C0.195,0.005 0.178,0.012 0.156,0.012C0.135,0.012 0.118,0.005 0.104,-0.01C0.091,-0.025 0.084,-0.047 0.084,-0.076Z" style="fill-rule:nonzero;"/>
            </g>
            <g transform="matrix(6.4,0,0,6.4,47.3978,51.8924)">
                <path d="M0.393,-0.728C0.467,-0.728 0.531,-0.713 0.584,-0.683C0.637,-0.653 0.678,-0.61 0.705,-0.554C0.732,-0.499 0.746,-0.434 0.746,-0.359C0.746,-0.304 0.739,-0.253 0.724,-0.208C0.709,-0.163 0.686,-0.124 0.656,-0.09C0.626,-0.057 0.59,-0.032 0.546,-0.014C0.502,0.003 0.452,0.012 0.396,0.012C0.34,0.012 0.29,0.003 0.246,-0.015C0.201,-0.033 0.164,-0.058 0.135,-0.091C0.105,-0.124 0.083,-0.164 0.068,-0.21C0.052,-0.256 0.045,-0.306 0.045,-0.36C0.045,-0.415 0.053,-0.465 0.069,-0.511C0.084,-0.557 0.107,-0.596 0.137,-0.628C0.167,-0.661 0.204,-0.685 0.247,-0.702C0.29,-0.719 0.338,-0.728 0.393,-0.728ZM0.599,-0.36C0.599,-0.412 0.591,-0.458 0.574,-0.496C0.557,-0.535 0.533,-0.564 0.501,-0.583C0.47,-0.603 0.434,-0.613 0.393,-0.613C0.364,-0.613 0.337,-0.607 0.313,-0.596C0.288,-0.586 0.267,-0.57 0.249,-0.549C0.232,-0.528 0.218,-0.501 0.207,-0.469C0.197,-0.437 0.192,-0.4 0.192,-0.36C0.192,-0.319 0.197,-0.282 0.207,-0.25C0.218,-0.217 0.232,-0.189 0.251,-0.168C0.269,-0.146 0.291,-0.13 0.315,-0.119C0.339,-0.108 0.366,-0.103 0.395,-0.103C0.432,-0.103 0.466,-0.112 0.497,-0.131C0.528,-0.149 0.553,-0.178 0.572,-0.217C0.59,-0.256 0.599,-0.303 0.599,-0.36Z" style="fill-rule:nonzero;"/>
            </g>
            <g transform="matrix(6.4,0,0,6.4,52.5946,51.8924)">
                <path d="M0.267,-0.641L0.546,-0.219L0.546,-0.645C0.546,-0.673 0.552,-0.693 0.564,-0.707C0.576,-0.721 0.592,-0.728 0.612,-0.728C0.633,-0.728 0.649,-0.721 0.661,-0.707C0.673,-0.693 0.679,-0.673 0.679,-0.645L0.679,-0.082C0.679,-0.019 0.653,0.012 0.601,0.012C0.588,0.012 0.576,0.01 0.566,0.007C0.556,0.003 0.546,-0.003 0.537,-0.011C0.528,-0.019 0.519,-0.029 0.511,-0.04C0.503,-0.051 0.496,-0.062 0.488,-0.073L0.216,-0.49L0.216,-0.071C0.216,-0.043 0.209,-0.023 0.197,-0.009C0.184,0.005 0.168,0.012 0.148,0.012C0.127,0.012 0.111,0.005 0.099,-0.009C0.086,-0.023 0.08,-0.044 0.08,-0.071L0.08,-0.623C0.08,-0.646 0.083,-0.665 0.088,-0.678C0.094,-0.693 0.104,-0.705 0.119,-0.714C0.133,-0.723 0.148,-0.728 0.165,-0.728C0.178,-0.728 0.189,-0.726 0.198,-0.722C0.208,-0.717 0.216,-0.712 0.223,-0.705C0.23,-0.697 0.237,-0.688 0.244,-0.677C0.252,-0.665 0.259,-0.653 0.267,-0.641Z" style="fill-rule:nonzero;"/>
            </g>
        </g>
        <g transform="matrix(1.198,0,0,0.958552,958.448,17.6576)">
            <g transform="matrix(6.4,0,0,6.4,34.1436,51.8924)">
                <path d="M0.393,-0.728C0.467,-0.728 0.531,-0.713 0.584,-0.683C0.637,-0.653 0.678,-0.61 0.705,-0.554C0.732,-0.499 0.746,-0.434 0.746,-0.359C0.746,-0.304 0.739,-0.253 0.724,-0.208C0.709,-0.163 0.686,-0.124 0.656,-0.09C0.626,-0.057 0.59,-0.032 0.546,-0.014C0.502,0.003 0.452,0.012 0.396,0.012C0.34,0.012 0.29,0.003 0.246,-0.015C0.201,-0.033 0.164,-0.058 0.135,-0.091C0.105,-0.124 0.083,-0.164 0.068,-0.21C0.052,-0.256 0.045,-0.306 0.045,-0.36C0.045,-0.415 0.053,-0.465 0.069,-0.511C0.084,-0.557 0.107,-0.596 0.137,-0.628C0.167,-0.661 0.204,-0.685 0.247,-0.702C0.29,-0.719 0.338,-0.728 0.393,-0.728ZM0.599,-0.36C0.599,-0.412 0.591,-0.458 0.574,-0.496C0.557,-0.535 0.533,-0.564 0.501,-0.583C0.47,-0.603 0.434,-0.613 0.393,-0.613C0.364,-0.613 0.337,-0.607 0.313,-0.596C0.288,-0.586 0.267,-0.57 0.249,-0.549C0.232,-0.528 0.218,-0.501 0.207,-0.469C0.197,-0.437 0.192,-0.4 0.192,-0.36C0.192,-0.319 0.197,-0.282 0.207,-0.25C0.218,-0.217 0.232,-0.189 0.251,-0.168C0.269,-0.146 0.291,-0.13 0.315,-0.119C0.339,-0.108 0.366,-0.103 0.395,-0.103C0.432,-0.103 0.466,-0.112 0.497,-0.131C0.528,-0.149 0.553,-0.178 0.572,-0.217C0.59,-0.256 0.599,-0.303 0.599,-0.36Z" style="fill:white;fill-rule:nonzero;"/>
            </g>
            <g transform="matrix(6.4,0,0,6.4,39.3403,51.8924)">
                <path d="M0.079,-0.296L0.079,-0.64C0.079,-0.669 0.086,-0.691 0.099,-0.706C0.112,-0.721 0.129,-0.728 0.151,-0.728C0.173,-0.728 0.191,-0.721 0.204,-0.706C0.218,-0.691 0.224,-0.669 0.224,-0.64L0.224,-0.288C0.224,-0.248 0.229,-0.215 0.238,-0.188C0.247,-0.161 0.262,-0.14 0.285,-0.125C0.308,-0.11 0.34,-0.103 0.381,-0.103C0.438,-0.103 0.478,-0.118 0.501,-0.148C0.524,-0.178 0.536,-0.224 0.536,-0.285L0.536,-0.64C0.536,-0.67 0.543,-0.692 0.556,-0.706C0.569,-0.721 0.586,-0.728 0.608,-0.728C0.63,-0.728 0.647,-0.721 0.661,-0.706C0.674,-0.692 0.681,-0.67 0.681,-0.64L0.681,-0.296C0.681,-0.24 0.676,-0.193 0.665,-0.156C0.654,-0.118 0.633,-0.085 0.603,-0.057C0.577,-0.033 0.547,-0.015 0.512,-0.004C0.478,0.007 0.437,0.012 0.391,0.012C0.336,0.012 0.289,0.006 0.249,-0.006C0.209,-0.017 0.177,-0.036 0.152,-0.061C0.127,-0.086 0.108,-0.118 0.097,-0.156C0.085,-0.195 0.079,-0.242 0.079,-0.296Z" style="fill:white;fill-rule:nonzero;"/>
            </g>
            <g transform="matrix(6.4,0,0,6.4,44.3308,51.8924)">
                <path d="M0.543,-0.596L0.385,-0.596L0.385,-0.076C0.385,-0.046 0.378,-0.024 0.365,-0.01C0.351,0.005 0.334,0.012 0.313,0.012C0.292,0.012 0.274,0.005 0.26,-0.01C0.247,-0.024 0.24,-0.047 0.24,-0.076L0.24,-0.596L0.082,-0.596C0.057,-0.596 0.039,-0.602 0.027,-0.613C0.015,-0.623 0.009,-0.638 0.009,-0.656C0.009,-0.674 0.015,-0.689 0.028,-0.7C0.04,-0.71 0.058,-0.716 0.082,-0.716L0.543,-0.716C0.568,-0.716 0.587,-0.71 0.599,-0.699C0.611,-0.688 0.617,-0.674 0.617,-0.656C0.617,-0.638 0.611,-0.623 0.599,-0.613C0.586,-0.602 0.568,-0.596 0.543,-0.596Z" style="fill:white;fill-rule:nonzero;"/>
            </g>
        </g>
    </g>
    <defs>
        <linearGradient id="_Linear1" x1="0" y1="0" x2="1" y2="0" gradientUnits="userSpaceOnUse" gradientTransform="matrix(9.31062e-17,1.52054,-1.52054,9.31062e-17,1036.87,122.284)"><stop offset="0" style="stop-color:rgb(165,165,165);stop-opacity:1"/><stop offset="1" style="stop-color:black;stop-opacity:1"/></linearGradient>
    </defs>
</svg>
