<?xml version="1.0" encoding="UTF-8" standalone="no"?>
<!DOCTYPE svg PUBLIC "-//W3C//DTD SVG 1.1//EN" "http://www.w3.org/Graphics/SVG/1.1/DTD/svg11.dtd">
<svg width="100%" height="100%" viewBox="0 0 15 380" version="1.1" xmlns="http://www.w3.org/2000/svg" xmlns:xlink="http://www.w3.org/1999/xlink" xml:space="preserve" xmlns:serif="http://www.serif.com/" style="fill-rule:evenodd;clip-rule:evenodd;stroke-linecap:round;stroke-linejoin:round;stroke-miterlimit:1.5;">
    <g id="panel" transform="matrix(0.834722,0,0,1.04324,-818.837,250.623)">
        <g transform="matrix(0.299501,0,0,0.958552,980.97,-240.242)">
            <rect x="0" y="0" width="60" height="380" style="fill:rgb(128,187,254);"/>
        </g>
        <g transform="matrix(0.106268,0,0,1.81961,984.161,-538.829)">
            <rect x="-30.034" y="347.456" width="169.102" height="16.91" style="fill:rgb(4,4,4);fill-opacity:0.3;"/>
        </g>
        <g transform="matrix(0.106268,0,0,1.76292,984.161,-852.772)">
            <rect x="-30.034" y="347.456" width="169.102" height="16.91" style="fill:rgb(4,4,4);fill-opacity:0.3;"/>
        </g>
        <g transform="matrix(0.802347,0,0,25.5659,950.972,-292.473)">
            <rect x="37.388" y="2.043" width="22.397" height="14.247" style="fill:none;stroke:black;stroke-opacity:0.6;stroke-width:0.03px;"/>
        </g>
        <g transform="matrix(0.00355698,4.55219e-35,5.68935e-35,-0.00284603,965.34,-196.678)">
            <path d="M4830,9020L4830,8180L6830,8180L6830,9020L4830,9020Z" style="fill-rule:nonzero;"/>
        </g>
        <g transform="matrix(0.00355698,4.55219e-35,5.68935e-35,-0.00284603,965.34,-196.678)">
            <path d="M7007,9013C7003,9010 7000,8821 7000,8593L7000,8180L9010,8180L9008,8598L9005,9015L8009,9018C7462,9019 7010,9017 7007,9013Z" style="fill-rule:nonzero;"/>
        </g>
        <g transform="matrix(0.00355698,4.55219e-35,5.68935e-35,-0.00284603,965.34,-196.172)">
            <path d="M6070,8070L6070,7240L8080,7240L8080,8070L6070,8070Z" style="fill-rule:nonzero;"/>
        </g>
        <g transform="matrix(0.00355698,4.55219e-35,5.68935e-35,-0.00284603,965.34,-195.694)">
            <path d="M4830,7120L4830,6290L6830,6290L6830,7120L4830,7120Z" style="fill-rule:nonzero;"/>
        </g>
        <g transform="matrix(0.00355698,4.55219e-35,5.68935e-35,-0.00284603,965.34,-195.694)">
            <path d="M7000,7120L7000,6290L9010,6290L9010,7120L7000,7120Z" style="fill-rule:nonzero;"/>
        </g>
    </g>
    <g id="components">
    </g>
</svg>
