<?xml version="1.0" encoding="UTF-8" standalone="no"?>
<!DOCTYPE svg PUBLIC "-//W3C//DTD SVG 1.1//EN" "http://www.w3.org/Graphics/SVG/1.1/DTD/svg11.dtd">
<svg width="100%" height="100%" viewBox="0 0 45 380" version="1.1" xmlns="http://www.w3.org/2000/svg" xmlns:xlink="http://www.w3.org/1999/xlink" xml:space="preserve" xmlns:serif="http://www.serif.com/" style="fill-rule:evenodd;clip-rule:evenodd;stroke-linecap:round;stroke-linejoin:round;stroke-miterlimit:1.5;">
    <g id="panel" transform="matrix(0.834722,0,0,1.04324,-803.837,250.623)">
        <g transform="matrix(1.198,0,0,0.958552,963,-240.242)">
            <rect x="0" y="0" width="60" height="380" style="fill:rgb(128,187,254);"/>
        </g>
        <g transform="matrix(0.318803,0,0,1.55539,972.575,-450.668)">
            <rect x="-30.034" y="347.456" width="169.102" height="16.91" style="fill:rgb(4,4,4);fill-opacity:0.3;"/>
        </g>
        <g transform="matrix(0.318803,0,0,1.44687,972.575,-653.268)">
            <rect x="-30.034" y="347.456" width="169.102" height="16.91" style="fill-opacity:0.3;"/>
        </g>
        <g transform="matrix(2.40704,0,0,25.5659,873.006,-292.473)">
            <rect x="37.388" y="2.043" width="22.397" height="14.247" style="fill:none;stroke:black;stroke-opacity:0.6;stroke-width:0.03px;"/>
        </g>
        <g id="path3052" transform="matrix(0.37715,0,0,1.06342,599.604,-7.50798)">
            <rect x="963.532" y="121.41" width="142.941" height="2.074" style="fill:url(#_Linear1);"/>
        </g>
        <g transform="matrix(1.198,0,0,0.958552,967.978,-213.398)">
            <g transform="matrix(13,0,0,13,-0.768067,0)">
                <path d="M0.053,-0.19C0.114,-0.14 0.183,-0.115 0.26,-0.115C0.304,-0.115 0.337,-0.122 0.359,-0.137C0.382,-0.153 0.393,-0.172 0.393,-0.196C0.393,-0.216 0.384,-0.236 0.366,-0.254C0.349,-0.272 0.302,-0.297 0.227,-0.328C0.109,-0.378 0.05,-0.451 0.05,-0.547C0.05,-0.617 0.077,-0.672 0.13,-0.711C0.184,-0.75 0.255,-0.769 0.343,-0.769C0.417,-0.769 0.479,-0.759 0.529,-0.74L0.529,-0.589C0.478,-0.623 0.419,-0.641 0.351,-0.641C0.311,-0.641 0.279,-0.633 0.255,-0.619C0.232,-0.604 0.22,-0.585 0.22,-0.561C0.22,-0.541 0.228,-0.523 0.244,-0.507C0.26,-0.49 0.301,-0.468 0.365,-0.44C0.44,-0.408 0.492,-0.374 0.52,-0.338C0.548,-0.302 0.562,-0.259 0.562,-0.21C0.562,-0.137 0.536,-0.082 0.485,-0.044C0.433,-0.006 0.36,0.013 0.266,0.013C0.179,0.013 0.108,-0.001 0.053,-0.029L0.053,-0.19Z" style="fill-rule:nonzero;"/>
            </g>
            <g transform="matrix(13,0,0,13,7.05225,0)">
                <path d="M0.609,-0.625L0.394,-0.625L0.394,0L0.232,0L0.232,-0.625L0.017,-0.625L0.017,-0.756L0.609,-0.756L0.609,-0.625Z" style="fill-rule:nonzero;"/>
            </g>
            <g transform="matrix(13,0,0,13,15.1836,0)">
                <path d="M0.711,0L0.526,0L0.407,-0.197C0.383,-0.237 0.363,-0.264 0.347,-0.275C0.332,-0.287 0.315,-0.293 0.297,-0.293L0.249,-0.293L0.249,0L0.087,0L0.087,-0.756L0.353,-0.756C0.533,-0.756 0.623,-0.688 0.623,-0.551C0.623,-0.5 0.608,-0.456 0.577,-0.419C0.547,-0.382 0.506,-0.356 0.453,-0.341L0.453,-0.339C0.488,-0.328 0.527,-0.289 0.569,-0.224L0.711,0ZM0.249,-0.634L0.249,-0.416L0.328,-0.416C0.365,-0.416 0.396,-0.427 0.419,-0.449C0.442,-0.471 0.453,-0.498 0.453,-0.531C0.453,-0.6 0.412,-0.634 0.331,-0.634L0.249,-0.634Z" style="fill-rule:nonzero;"/>
            </g>
            <g transform="matrix(13,0,0,13,24.2607,0)">
                <rect x="0.087" y="-0.756" width="0.161" height="0.756" style="fill-rule:nonzero;"/>
            </g>
            <g transform="matrix(13,0,0,13,28.6216,0)">
                <path d="M0.249,-0.264L0.249,0L0.087,0L0.087,-0.756L0.348,-0.756C0.536,-0.756 0.63,-0.677 0.63,-0.517C0.63,-0.44 0.601,-0.378 0.545,-0.331C0.488,-0.284 0.417,-0.262 0.332,-0.264L0.249,-0.264ZM0.249,-0.631L0.249,-0.387L0.318,-0.387C0.413,-0.387 0.46,-0.428 0.46,-0.511C0.46,-0.591 0.414,-0.631 0.32,-0.631L0.249,-0.631Z" style="fill-rule:nonzero;"/>
            </g>
        </g>
        <g transform="matrix(1.198,0,0,0.958552,893.495,-231.786)">
            <g transform="matrix(9,0,0,9,68.6657,347.267)">
                <path d="M0.058,-0.145C0.112,-0.112 0.165,-0.096 0.216,-0.096C0.281,-0.096 0.314,-0.113 0.314,-0.148C0.314,-0.173 0.287,-0.193 0.233,-0.21C0.166,-0.231 0.12,-0.254 0.095,-0.28C0.07,-0.305 0.058,-0.34 0.058,-0.383C0.058,-0.436 0.079,-0.478 0.122,-0.508C0.165,-0.538 0.221,-0.553 0.291,-0.553C0.34,-0.553 0.388,-0.546 0.434,-0.531L0.434,-0.407C0.392,-0.432 0.346,-0.444 0.295,-0.444C0.27,-0.444 0.25,-0.44 0.235,-0.431C0.22,-0.422 0.212,-0.41 0.212,-0.396C0.212,-0.371 0.235,-0.351 0.28,-0.335C0.329,-0.319 0.366,-0.304 0.39,-0.291C0.415,-0.278 0.434,-0.26 0.447,-0.238C0.459,-0.216 0.466,-0.191 0.466,-0.163C0.466,-0.107 0.444,-0.064 0.399,-0.033C0.354,-0.002 0.295,0.013 0.22,0.013C0.162,0.013 0.107,0.004 0.058,-0.015L0.058,-0.145Z" style="fill:rgb(10,1,1);fill-rule:nonzero;"/>
            </g>
            <g transform="matrix(9,0,0,9,73.2436,347.267)">
                <path d="M0.39,-0.006C0.366,0.007 0.33,0.013 0.282,0.013C0.167,0.013 0.11,-0.047 0.11,-0.167L0.11,-0.422L0.021,-0.422L0.021,-0.54L0.11,-0.54L0.11,-0.659L0.267,-0.704L0.267,-0.54L0.39,-0.54L0.39,-0.422L0.267,-0.422L0.267,-0.195C0.267,-0.137 0.289,-0.108 0.335,-0.108C0.353,-0.108 0.371,-0.114 0.39,-0.124L0.39,-0.006Z" style="fill:rgb(10,1,1);fill-rule:nonzero;"/>
            </g>
            <g transform="matrix(6.6,0,0,6.6,77.1051,347.267)">
                <path d="M0.106,0.032L0.043,-0.021L0.122,-0.115C0.067,-0.183 0.04,-0.268 0.04,-0.368C0.04,-0.487 0.075,-0.584 0.144,-0.658C0.213,-0.732 0.305,-0.769 0.418,-0.769C0.5,-0.769 0.571,-0.748 0.63,-0.706L0.698,-0.785L0.761,-0.733L0.689,-0.65C0.748,-0.581 0.778,-0.493 0.778,-0.384C0.778,-0.266 0.743,-0.17 0.674,-0.097C0.605,-0.023 0.516,0.013 0.406,0.013C0.32,0.013 0.246,-0.011 0.182,-0.059L0.106,0.032ZM0.54,-0.6C0.506,-0.628 0.463,-0.642 0.413,-0.642C0.349,-0.642 0.297,-0.617 0.258,-0.569C0.218,-0.52 0.199,-0.455 0.199,-0.375C0.199,-0.319 0.208,-0.273 0.227,-0.234L0.54,-0.6ZM0.275,-0.165C0.311,-0.131 0.356,-0.114 0.409,-0.114C0.473,-0.114 0.524,-0.137 0.563,-0.184C0.601,-0.231 0.62,-0.294 0.62,-0.374C0.62,-0.435 0.61,-0.488 0.588,-0.533L0.275,-0.165Z" style="fill-rule:nonzero;"/>
            </g>
            <g transform="matrix(9,0,0,9,82.6053,347.267)">
                <path d="M0.551,-0.226L0.196,-0.226C0.201,-0.142 0.252,-0.1 0.347,-0.1C0.407,-0.1 0.459,-0.115 0.505,-0.144L0.505,-0.028C0.456,-0.001 0.391,0.013 0.312,0.013C0.226,0.013 0.159,-0.011 0.111,-0.06C0.063,-0.108 0.04,-0.176 0.04,-0.262C0.04,-0.348 0.065,-0.419 0.116,-0.472C0.167,-0.526 0.23,-0.553 0.307,-0.553C0.384,-0.553 0.443,-0.53 0.487,-0.484C0.53,-0.437 0.551,-0.374 0.551,-0.292L0.551,-0.226ZM0.404,-0.324C0.404,-0.405 0.372,-0.445 0.306,-0.445C0.279,-0.445 0.255,-0.434 0.234,-0.412C0.214,-0.39 0.201,-0.361 0.195,-0.324L0.404,-0.324Z" style="fill:rgb(10,1,1);fill-rule:nonzero;"/>
            </g>
            <g transform="matrix(9,0,0,9,87.9786,347.267)">
                <path d="M0.416,-0.397C0.397,-0.408 0.374,-0.414 0.346,-0.414C0.31,-0.414 0.282,-0.4 0.261,-0.373C0.24,-0.345 0.229,-0.308 0.229,-0.26L0.229,0L0.072,0L0.072,-0.54L0.229,-0.54L0.229,-0.438L0.231,-0.438C0.257,-0.512 0.305,-0.549 0.374,-0.549C0.392,-0.549 0.406,-0.547 0.416,-0.543L0.416,-0.397Z" style="fill:rgb(10,1,1);fill-rule:nonzero;"/>
            </g>
            <g transform="matrix(9,0,0,9,64.0056,356.267)">
                <path d="M0.919,0L0.762,0L0.762,-0.308C0.762,-0.391 0.732,-0.432 0.671,-0.432C0.643,-0.432 0.62,-0.42 0.602,-0.395C0.583,-0.369 0.574,-0.339 0.574,-0.303L0.574,0L0.417,0L0.417,-0.312C0.417,-0.392 0.387,-0.432 0.327,-0.432C0.298,-0.432 0.274,-0.42 0.256,-0.396C0.238,-0.372 0.229,-0.341 0.229,-0.301L0.229,0L0.072,0L0.072,-0.54L0.229,-0.54L0.229,-0.456L0.231,-0.456C0.25,-0.486 0.275,-0.51 0.307,-0.528C0.338,-0.545 0.371,-0.553 0.405,-0.553C0.481,-0.553 0.533,-0.519 0.561,-0.451C0.603,-0.519 0.663,-0.553 0.743,-0.553C0.86,-0.553 0.919,-0.481 0.919,-0.335L0.919,0Z" style="fill:rgb(10,1,1);fill-rule:nonzero;"/>
            </g>
            <g transform="matrix(9,0,0,9,72.978,356.267)">
                <path d="M0.551,-0.226L0.196,-0.226C0.201,-0.142 0.252,-0.1 0.347,-0.1C0.407,-0.1 0.459,-0.115 0.505,-0.144L0.505,-0.028C0.456,-0.001 0.391,0.013 0.312,0.013C0.226,0.013 0.159,-0.011 0.111,-0.06C0.063,-0.108 0.04,-0.176 0.04,-0.262C0.04,-0.348 0.065,-0.419 0.116,-0.472C0.167,-0.526 0.23,-0.553 0.307,-0.553C0.384,-0.553 0.443,-0.53 0.487,-0.484C0.53,-0.437 0.551,-0.374 0.551,-0.292L0.551,-0.226ZM0.404,-0.324C0.404,-0.405 0.372,-0.445 0.306,-0.445C0.279,-0.445 0.255,-0.434 0.234,-0.412C0.214,-0.39 0.201,-0.361 0.195,-0.324L0.404,-0.324Z" style="fill:rgb(10,1,1);fill-rule:nonzero;"/>
            </g>
            <g transform="matrix(9,0,0,9,78.3513,356.267)">
                <rect x="0.069" y="-0.799" width="0.157" height="0.799" style="fill:rgb(10,1,1);fill-rule:nonzero;"/>
            </g>
            <g transform="matrix(9,0,0,9,81.1494,356.267)">
                <path d="M0.593,0L0.436,0L0.436,-0.076L0.433,-0.076C0.395,-0.017 0.339,0.013 0.264,0.013C0.195,0.013 0.141,-0.011 0.1,-0.06C0.06,-0.108 0.04,-0.174 0.04,-0.258C0.04,-0.346 0.062,-0.418 0.108,-0.472C0.153,-0.526 0.212,-0.553 0.286,-0.553C0.356,-0.553 0.405,-0.528 0.433,-0.477L0.436,-0.477L0.436,-0.799L0.593,-0.799L0.593,0ZM0.438,-0.306C0.438,-0.342 0.427,-0.372 0.405,-0.396C0.383,-0.42 0.356,-0.432 0.323,-0.432C0.284,-0.432 0.254,-0.417 0.232,-0.386C0.21,-0.356 0.199,-0.315 0.199,-0.263C0.199,-0.213 0.21,-0.175 0.231,-0.148C0.252,-0.121 0.281,-0.108 0.318,-0.108C0.353,-0.108 0.382,-0.122 0.404,-0.15C0.427,-0.179 0.438,-0.215 0.438,-0.261L0.438,-0.306Z" style="fill:rgb(10,1,1);fill-rule:nonzero;"/>
            </g>
            <g transform="matrix(9,0,0,9,87.2654,356.267)">
                <path d="M0.551,-0.226L0.196,-0.226C0.201,-0.142 0.252,-0.1 0.347,-0.1C0.407,-0.1 0.459,-0.115 0.505,-0.144L0.505,-0.028C0.456,-0.001 0.391,0.013 0.312,0.013C0.226,0.013 0.159,-0.011 0.111,-0.06C0.063,-0.108 0.04,-0.176 0.04,-0.262C0.04,-0.348 0.065,-0.419 0.116,-0.472C0.167,-0.526 0.23,-0.553 0.307,-0.553C0.384,-0.553 0.443,-0.53 0.487,-0.484C0.53,-0.437 0.551,-0.374 0.551,-0.292L0.551,-0.226ZM0.404,-0.324C0.404,-0.405 0.372,-0.445 0.306,-0.445C0.279,-0.445 0.255,-0.434 0.234,-0.412C0.214,-0.39 0.201,-0.361 0.195,-0.324L0.404,-0.324Z" style="fill:rgb(10,1,1);fill-rule:nonzero;"/>
            </g>
            <g transform="matrix(9,0,0,9,92.6386,356.267)">
                <path d="M0.416,-0.397C0.397,-0.408 0.374,-0.414 0.346,-0.414C0.31,-0.414 0.282,-0.4 0.261,-0.373C0.24,-0.345 0.229,-0.308 0.229,-0.26L0.229,0L0.072,0L0.072,-0.54L0.229,-0.54L0.229,-0.438L0.231,-0.438C0.257,-0.512 0.305,-0.549 0.374,-0.549C0.392,-0.549 0.406,-0.547 0.416,-0.543L0.416,-0.397Z" style="fill:rgb(10,1,1);fill-rule:nonzero;"/>
            </g>
        </g>
        <g transform="matrix(0.552947,0,0,2.12148,968.322,-326.106)">
            <path d="M73.138,57.827C73.138,57.329 71.196,56.924 68.804,56.924L9.44,56.924C7.049,56.924 5.107,57.329 5.107,57.827L5.107,82.8C5.107,83.299 7.049,83.704 9.44,83.704L68.804,83.704C71.196,83.704 73.138,83.299 73.138,82.8L73.138,57.827Z" style="fill:white;fill-opacity:0.7;"/>
        </g>
        <g transform="matrix(1.198,0,0,0.958552,940.545,-247.552)">
            <g transform="matrix(6.4,0,0,6.4,36.2076,51.8924)">
                <path d="M0.393,-0.728C0.467,-0.728 0.531,-0.713 0.584,-0.683C0.637,-0.653 0.678,-0.61 0.705,-0.554C0.732,-0.499 0.746,-0.434 0.746,-0.359C0.746,-0.304 0.739,-0.253 0.724,-0.208C0.709,-0.163 0.686,-0.124 0.656,-0.09C0.626,-0.057 0.59,-0.032 0.546,-0.014C0.502,0.003 0.452,0.012 0.396,0.012C0.34,0.012 0.29,0.003 0.246,-0.015C0.201,-0.033 0.164,-0.058 0.135,-0.091C0.105,-0.124 0.083,-0.164 0.068,-0.21C0.052,-0.256 0.045,-0.306 0.045,-0.36C0.045,-0.415 0.053,-0.465 0.069,-0.511C0.084,-0.557 0.107,-0.596 0.137,-0.628C0.167,-0.661 0.204,-0.685 0.247,-0.702C0.29,-0.719 0.338,-0.728 0.393,-0.728ZM0.599,-0.36C0.599,-0.412 0.591,-0.458 0.574,-0.496C0.557,-0.535 0.533,-0.564 0.501,-0.583C0.47,-0.603 0.434,-0.613 0.393,-0.613C0.364,-0.613 0.337,-0.607 0.313,-0.596C0.288,-0.586 0.267,-0.57 0.249,-0.549C0.232,-0.528 0.218,-0.501 0.207,-0.469C0.197,-0.437 0.192,-0.4 0.192,-0.36C0.192,-0.319 0.197,-0.282 0.207,-0.25C0.218,-0.217 0.232,-0.189 0.251,-0.168C0.269,-0.146 0.291,-0.13 0.315,-0.119C0.339,-0.108 0.366,-0.103 0.395,-0.103C0.432,-0.103 0.466,-0.112 0.497,-0.131C0.528,-0.149 0.553,-0.178 0.572,-0.217C0.59,-0.256 0.599,-0.303 0.599,-0.36Z" style="fill-rule:nonzero;"/>
            </g>
            <g transform="matrix(6.4,0,0,6.4,41.4043,51.8924)">
                <path d="M0.267,-0.641L0.546,-0.219L0.546,-0.645C0.546,-0.673 0.552,-0.693 0.564,-0.707C0.576,-0.721 0.592,-0.728 0.612,-0.728C0.633,-0.728 0.649,-0.721 0.661,-0.707C0.673,-0.693 0.679,-0.673 0.679,-0.645L0.679,-0.082C0.679,-0.019 0.653,0.012 0.601,0.012C0.588,0.012 0.576,0.01 0.566,0.007C0.556,0.003 0.546,-0.003 0.537,-0.011C0.528,-0.019 0.519,-0.029 0.511,-0.04C0.503,-0.051 0.496,-0.062 0.488,-0.073L0.216,-0.49L0.216,-0.071C0.216,-0.043 0.209,-0.023 0.197,-0.009C0.184,0.005 0.168,0.012 0.148,0.012C0.127,0.012 0.111,0.005 0.099,-0.009C0.086,-0.023 0.08,-0.044 0.08,-0.071L0.08,-0.623C0.08,-0.646 0.083,-0.665 0.088,-0.678C0.094,-0.693 0.104,-0.705 0.119,-0.714C0.133,-0.723 0.148,-0.728 0.165,-0.728C0.178,-0.728 0.189,-0.726 0.198,-0.722C0.208,-0.717 0.216,-0.712 0.223,-0.705C0.23,-0.697 0.237,-0.688 0.244,-0.677C0.252,-0.665 0.259,-0.653 0.267,-0.641Z" style="fill-rule:nonzero;"/>
            </g>
        </g>
        <g transform="matrix(0.552947,0,0,2.09785,968.322,-260.733)">
            <path d="M73.138,57.838C73.138,57.333 71.196,56.924 68.804,56.924L9.44,56.924C7.049,56.924 5.107,57.333 5.107,57.838L5.107,82.79C5.107,83.295 7.049,83.704 9.44,83.704L68.804,83.704C71.196,83.704 73.138,83.295 73.138,82.79L73.138,57.838Z" style="fill:white;fill-opacity:0.7;"/>
        </g>
        <g transform="matrix(1.198,0,0,0.958552,940.545,-183.524)">
            <g transform="matrix(6.4,0,0,6.4,34.7092,51.8924)">
                <path d="M0.393,-0.728C0.467,-0.728 0.531,-0.713 0.584,-0.683C0.637,-0.653 0.678,-0.61 0.705,-0.554C0.732,-0.499 0.746,-0.434 0.746,-0.359C0.746,-0.304 0.739,-0.253 0.724,-0.208C0.709,-0.163 0.686,-0.124 0.656,-0.09C0.626,-0.057 0.59,-0.032 0.546,-0.014C0.502,0.003 0.452,0.012 0.396,0.012C0.34,0.012 0.29,0.003 0.246,-0.015C0.201,-0.033 0.164,-0.058 0.135,-0.091C0.105,-0.124 0.083,-0.164 0.068,-0.21C0.052,-0.256 0.045,-0.306 0.045,-0.36C0.045,-0.415 0.053,-0.465 0.069,-0.511C0.084,-0.557 0.107,-0.596 0.137,-0.628C0.167,-0.661 0.204,-0.685 0.247,-0.702C0.29,-0.719 0.338,-0.728 0.393,-0.728ZM0.599,-0.36C0.599,-0.412 0.591,-0.458 0.574,-0.496C0.557,-0.535 0.533,-0.564 0.501,-0.583C0.47,-0.603 0.434,-0.613 0.393,-0.613C0.364,-0.613 0.337,-0.607 0.313,-0.596C0.288,-0.586 0.267,-0.57 0.249,-0.549C0.232,-0.528 0.218,-0.501 0.207,-0.469C0.197,-0.437 0.192,-0.4 0.192,-0.36C0.192,-0.319 0.197,-0.282 0.207,-0.25C0.218,-0.217 0.232,-0.189 0.251,-0.168C0.269,-0.146 0.291,-0.13 0.315,-0.119C0.339,-0.108 0.366,-0.103 0.395,-0.103C0.432,-0.103 0.466,-0.112 0.497,-0.131C0.528,-0.149 0.553,-0.178 0.572,-0.217C0.59,-0.256 0.599,-0.303 0.599,-0.36Z" style="fill-rule:nonzero;"/>
            </g>
            <g transform="matrix(6.4,0,0,6.4,39.9059,51.8924)">
                <path d="M0.506,-0.604L0.22,-0.604L0.22,-0.421L0.459,-0.421C0.481,-0.421 0.498,-0.416 0.509,-0.406C0.519,-0.396 0.525,-0.383 0.525,-0.366C0.525,-0.35 0.519,-0.336 0.508,-0.327C0.497,-0.317 0.481,-0.312 0.459,-0.312L0.22,-0.312L0.22,-0.076C0.22,-0.046 0.213,-0.024 0.2,-0.01C0.186,0.005 0.169,0.012 0.148,0.012C0.126,0.012 0.109,0.005 0.095,-0.01C0.082,-0.024 0.075,-0.047 0.075,-0.076L0.075,-0.627C0.075,-0.648 0.078,-0.665 0.084,-0.678C0.091,-0.691 0.1,-0.701 0.114,-0.707C0.127,-0.713 0.144,-0.716 0.164,-0.716L0.506,-0.716C0.529,-0.716 0.546,-0.711 0.557,-0.7C0.569,-0.69 0.574,-0.677 0.574,-0.66C0.574,-0.643 0.569,-0.63 0.557,-0.619C0.546,-0.609 0.529,-0.604 0.506,-0.604Z" style="fill-rule:nonzero;"/>
            </g>
            <g transform="matrix(6.4,0,0,6.4,43.8996,51.8924)">
                <path d="M0.506,-0.604L0.22,-0.604L0.22,-0.421L0.459,-0.421C0.481,-0.421 0.498,-0.416 0.509,-0.406C0.519,-0.396 0.525,-0.383 0.525,-0.366C0.525,-0.35 0.519,-0.336 0.508,-0.327C0.497,-0.317 0.481,-0.312 0.459,-0.312L0.22,-0.312L0.22,-0.076C0.22,-0.046 0.213,-0.024 0.2,-0.01C0.186,0.005 0.169,0.012 0.148,0.012C0.126,0.012 0.109,0.005 0.095,-0.01C0.082,-0.024 0.075,-0.047 0.075,-0.076L0.075,-0.627C0.075,-0.648 0.078,-0.665 0.084,-0.678C0.091,-0.691 0.1,-0.701 0.114,-0.707C0.127,-0.713 0.144,-0.716 0.164,-0.716L0.506,-0.716C0.529,-0.716 0.546,-0.711 0.557,-0.7C0.569,-0.69 0.574,-0.677 0.574,-0.66C0.574,-0.643 0.569,-0.63 0.557,-0.619C0.546,-0.609 0.529,-0.604 0.506,-0.604Z" style="fill-rule:nonzero;"/>
            </g>
        </g>
    </g>
    <g id="components" opacity="0.65">
        <g transform="matrix(0.884051,0,0,0.911678,-3.29888,-70.075)">
            <ellipse cx="29.183" cy="141.909" rx="13.008" ry="12.614" style="fill:rgb(223,177,192);"/>
        </g>
        <g transform="matrix(0.59193,0,0,0.610428,5.22596,-3.97853)">
            <ellipse cx="29.183" cy="141.909" rx="13.008" ry="12.614" style="fill:rgb(223,177,192);"/>
        </g>
        <g transform="matrix(0.884051,0,0,0.911678,-3.29888,-3.27804)">
            <ellipse cx="29.183" cy="141.909" rx="13.008" ry="12.614" style="fill:rgb(223,177,192);"/>
        </g>
        <g transform="matrix(0.59193,0,0,0.610428,5.22596,62.8184)">
            <ellipse cx="29.183" cy="141.909" rx="13.008" ry="12.614" style="fill:rgb(223,177,192);"/>
        </g>
    </g>
    <defs>
        <linearGradient id="_Linear1" x1="0" y1="0" x2="1" y2="0" gradientUnits="userSpaceOnUse" gradientTransform="matrix(9.31062e-17,1.52054,-1.52054,9.31062e-17,1036.87,122.284)"><stop offset="0" style="stop-color:rgb(165,165,165);stop-opacity:1"/><stop offset="1" style="stop-color:black;stop-opacity:1"/></linearGradient>
    </defs>
</svg>
