<?xml version="1.0" encoding="UTF-8" standalone="no"?>
<!DOCTYPE svg PUBLIC "-//W3C//DTD SVG 1.1//EN" "http://www.w3.org/Graphics/SVG/1.1/DTD/svg11.dtd">
<svg width="100%" height="100%" viewBox="0 0 90 380" version="1.1" xmlns="http://www.w3.org/2000/svg" xmlns:xlink="http://www.w3.org/1999/xlink" xml:space="preserve" xmlns:serif="http://www.serif.com/" style="fill-rule:evenodd;clip-rule:evenodd;stroke-linecap:round;stroke-linejoin:round;stroke-miterlimit:1.5;">
    <g id="panel" transform="matrix(0.834722,0,0,1.04324,-773.837,250.623)">
        <g transform="matrix(1.79701,0,0,0.958552,927.06,-240.242)">
            <rect x="0" y="0" width="60" height="380" style="fill:rgb(128,187,254);"/>
        </g>
        <g transform="matrix(0.637605,0,0,1.81961,946.209,-538.829)">
            <rect x="-30.034" y="347.456" width="169.102" height="16.91" style="fill:rgb(4,4,4);fill-opacity:0.3;"/>
        </g>
        <g transform="matrix(0.637605,0,0,1.76292,946.209,-852.772)">
            <rect x="-30.034" y="347.456" width="169.102" height="16.91" style="fill:rgb(4,4,4);fill-opacity:0.3;"/>
        </g>
        <g transform="matrix(4.81408,0,0,25.5659,747.073,-292.473)">
            <rect x="37.388" y="2.043" width="22.397" height="14.247" style="fill:none;stroke:black;stroke-opacity:0.6;stroke-width:0.03px;"/>
        </g>
        <g transform="matrix(0.867979,0,0,0.840359,121.59,16.2108)">
            <g transform="matrix(1.198,0,0,0.958552,893.633,-224.914)">
                <g transform="matrix(9,0,0,9,64.0056,347.267)">
                    <path d="M0.919,0L0.762,0L0.762,-0.308C0.762,-0.391 0.732,-0.432 0.671,-0.432C0.643,-0.432 0.62,-0.42 0.602,-0.395C0.583,-0.369 0.574,-0.339 0.574,-0.303L0.574,0L0.417,0L0.417,-0.312C0.417,-0.392 0.387,-0.432 0.327,-0.432C0.298,-0.432 0.274,-0.42 0.256,-0.396C0.238,-0.372 0.229,-0.341 0.229,-0.301L0.229,0L0.072,0L0.072,-0.54L0.229,-0.54L0.229,-0.456L0.231,-0.456C0.25,-0.486 0.275,-0.51 0.307,-0.528C0.338,-0.545 0.371,-0.553 0.405,-0.553C0.481,-0.553 0.533,-0.519 0.561,-0.451C0.603,-0.519 0.663,-0.553 0.743,-0.553C0.86,-0.553 0.919,-0.481 0.919,-0.335L0.919,0Z" style="fill:rgb(10,1,1);fill-rule:nonzero;"/>
                </g>
                <g transform="matrix(9,0,0,9,72.978,347.267)">
                    <path d="M0.551,-0.226L0.196,-0.226C0.201,-0.142 0.252,-0.1 0.347,-0.1C0.407,-0.1 0.459,-0.115 0.505,-0.144L0.505,-0.028C0.456,-0.001 0.391,0.013 0.312,0.013C0.226,0.013 0.159,-0.011 0.111,-0.06C0.063,-0.108 0.04,-0.176 0.04,-0.262C0.04,-0.348 0.065,-0.419 0.116,-0.472C0.167,-0.526 0.23,-0.553 0.307,-0.553C0.384,-0.553 0.443,-0.53 0.487,-0.484C0.53,-0.437 0.551,-0.374 0.551,-0.292L0.551,-0.226ZM0.404,-0.324C0.404,-0.405 0.372,-0.445 0.306,-0.445C0.279,-0.445 0.255,-0.434 0.234,-0.412C0.214,-0.39 0.201,-0.361 0.195,-0.324L0.404,-0.324Z" style="fill:rgb(10,1,1);fill-rule:nonzero;"/>
                </g>
                <g transform="matrix(9,0,0,9,78.3513,347.267)">
                    <rect x="0.069" y="-0.799" width="0.157" height="0.799" style="fill:rgb(10,1,1);fill-rule:nonzero;"/>
                </g>
                <g transform="matrix(9,0,0,9,81.1494,347.267)">
                    <path d="M0.593,0L0.436,0L0.436,-0.076L0.433,-0.076C0.395,-0.017 0.339,0.013 0.264,0.013C0.195,0.013 0.141,-0.011 0.1,-0.06C0.06,-0.108 0.04,-0.174 0.04,-0.258C0.04,-0.346 0.062,-0.418 0.108,-0.472C0.153,-0.526 0.212,-0.553 0.286,-0.553C0.356,-0.553 0.405,-0.528 0.433,-0.477L0.436,-0.477L0.438,-0.707L0.593,-0.658L0.593,0ZM0.438,-0.306C0.438,-0.342 0.427,-0.372 0.405,-0.396C0.383,-0.42 0.356,-0.432 0.323,-0.432C0.284,-0.432 0.254,-0.417 0.232,-0.386C0.21,-0.356 0.199,-0.315 0.199,-0.263C0.199,-0.213 0.21,-0.175 0.231,-0.148C0.252,-0.121 0.281,-0.108 0.318,-0.108C0.353,-0.108 0.382,-0.122 0.404,-0.15C0.427,-0.179 0.438,-0.215 0.438,-0.261L0.438,-0.306Z" style="fill:rgb(10,1,1);fill-rule:nonzero;"/>
                </g>
                <g transform="matrix(9,0,0,9,87.2654,347.267)">
                    <path d="M0.551,-0.226L0.196,-0.226C0.201,-0.142 0.252,-0.1 0.347,-0.1C0.407,-0.1 0.459,-0.115 0.505,-0.144L0.505,-0.028C0.456,-0.001 0.391,0.013 0.312,0.013C0.226,0.013 0.159,-0.011 0.111,-0.06C0.063,-0.108 0.04,-0.176 0.04,-0.262C0.04,-0.348 0.065,-0.419 0.116,-0.472C0.167,-0.526 0.23,-0.553 0.307,-0.553C0.384,-0.553 0.443,-0.53 0.487,-0.484C0.53,-0.437 0.551,-0.374 0.551,-0.292L0.551,-0.226ZM0.404,-0.324C0.404,-0.405 0.372,-0.445 0.306,-0.445C0.279,-0.445 0.255,-0.434 0.234,-0.412C0.214,-0.39 0.201,-0.361 0.195,-0.324L0.404,-0.324Z" style="fill:rgb(10,1,1);fill-rule:nonzero;"/>
                </g>
                <g transform="matrix(9,0,0,9,92.6386,347.267)">
                    <path d="M0.416,-0.397C0.397,-0.408 0.374,-0.414 0.346,-0.414C0.31,-0.414 0.282,-0.4 0.261,-0.373C0.24,-0.345 0.229,-0.308 0.229,-0.26L0.229,0L0.072,0L0.072,-0.54L0.229,-0.54L0.229,-0.438L0.231,-0.438C0.257,-0.512 0.305,-0.549 0.374,-0.549C0.392,-0.549 0.406,-0.547 0.416,-0.543L0.416,-0.397Z" style="fill:rgb(10,1,1);fill-rule:nonzero;"/>
                </g>
            </g>
            <g transform="matrix(1.198,0,0,0.958552,893.495,-231.786)">
                <g transform="matrix(9,0,0,9,68.6657,347.267)">
                    <path d="M0.058,-0.145C0.112,-0.112 0.165,-0.096 0.216,-0.096C0.281,-0.096 0.314,-0.113 0.314,-0.148C0.314,-0.173 0.287,-0.193 0.233,-0.21C0.166,-0.231 0.12,-0.254 0.095,-0.28C0.07,-0.305 0.058,-0.34 0.058,-0.383C0.058,-0.436 0.079,-0.478 0.122,-0.508C0.165,-0.538 0.221,-0.553 0.291,-0.553C0.34,-0.553 0.388,-0.546 0.434,-0.531L0.434,-0.407C0.392,-0.432 0.346,-0.444 0.295,-0.444C0.27,-0.444 0.25,-0.44 0.235,-0.431C0.22,-0.422 0.212,-0.41 0.212,-0.396C0.212,-0.371 0.235,-0.351 0.28,-0.335C0.329,-0.319 0.366,-0.304 0.39,-0.291C0.415,-0.278 0.434,-0.26 0.447,-0.238C0.459,-0.216 0.466,-0.191 0.466,-0.163C0.466,-0.107 0.444,-0.064 0.399,-0.033C0.354,-0.002 0.295,0.013 0.22,0.013C0.162,0.013 0.107,0.004 0.058,-0.015L0.058,-0.145Z" style="fill:rgb(10,1,1);fill-rule:nonzero;"/>
                </g>
                <g transform="matrix(9,0,0,9,73.2436,347.267)">
                    <path d="M0.39,-0.006C0.366,0.007 0.33,0.013 0.282,0.013C0.167,0.013 0.11,-0.047 0.11,-0.167L0.11,-0.422L0.021,-0.422L0.021,-0.54L0.11,-0.54L0.11,-0.659L0.267,-0.704L0.267,-0.54L0.39,-0.54L0.39,-0.422L0.267,-0.422L0.267,-0.195C0.267,-0.137 0.289,-0.108 0.335,-0.108C0.353,-0.108 0.371,-0.114 0.39,-0.124L0.39,-0.006Z" style="fill:rgb(10,1,1);fill-rule:nonzero;"/>
                </g>
                <g transform="matrix(6.6,0,0,6.6,77.1051,347.267)">
                    <path d="M0.106,0.032L0.043,-0.021L0.122,-0.115C0.067,-0.183 0.04,-0.268 0.04,-0.368C0.04,-0.487 0.075,-0.584 0.144,-0.658C0.213,-0.732 0.305,-0.769 0.418,-0.769C0.5,-0.769 0.571,-0.748 0.63,-0.706L0.698,-0.785L0.761,-0.733L0.689,-0.65C0.748,-0.581 0.778,-0.493 0.778,-0.384C0.778,-0.266 0.743,-0.17 0.674,-0.097C0.605,-0.023 0.516,0.013 0.406,0.013C0.32,0.013 0.246,-0.011 0.182,-0.059L0.106,0.032ZM0.54,-0.6C0.506,-0.628 0.463,-0.642 0.413,-0.642C0.349,-0.642 0.297,-0.617 0.258,-0.569C0.218,-0.52 0.199,-0.455 0.199,-0.375C0.199,-0.319 0.208,-0.273 0.227,-0.234L0.54,-0.6ZM0.275,-0.165C0.311,-0.131 0.356,-0.114 0.409,-0.114C0.473,-0.114 0.524,-0.137 0.563,-0.184C0.601,-0.231 0.62,-0.294 0.62,-0.374C0.62,-0.435 0.61,-0.488 0.588,-0.533L0.275,-0.165Z" style="fill-rule:nonzero;"/>
                </g>
                <g transform="matrix(9,0,0,9,82.6053,347.267)">
                    <path d="M0.551,-0.226L0.196,-0.226C0.201,-0.142 0.252,-0.1 0.347,-0.1C0.407,-0.1 0.459,-0.115 0.505,-0.144L0.505,-0.028C0.456,-0.001 0.391,0.013 0.312,0.013C0.226,0.013 0.159,-0.011 0.111,-0.06C0.063,-0.108 0.04,-0.176 0.04,-0.262C0.04,-0.348 0.065,-0.419 0.116,-0.472C0.167,-0.526 0.23,-0.553 0.307,-0.553C0.384,-0.553 0.443,-0.53 0.487,-0.484C0.53,-0.437 0.551,-0.374 0.551,-0.292L0.551,-0.226ZM0.404,-0.324C0.404,-0.405 0.372,-0.445 0.306,-0.445C0.279,-0.445 0.255,-0.434 0.234,-0.412C0.214,-0.39 0.201,-0.361 0.195,-0.324L0.404,-0.324Z" style="fill:rgb(10,1,1);fill-rule:nonzero;"/>
                </g>
                <g transform="matrix(9,0,0,9,87.9786,347.267)">
                    <path d="M0.416,-0.397C0.397,-0.408 0.374,-0.414 0.346,-0.414C0.31,-0.414 0.282,-0.4 0.261,-0.373C0.24,-0.345 0.229,-0.308 0.229,-0.26L0.229,0L0.072,0L0.072,-0.54L0.229,-0.54L0.229,-0.438L0.231,-0.438C0.257,-0.512 0.305,-0.549 0.374,-0.549C0.392,-0.549 0.406,-0.547 0.416,-0.543L0.416,-0.397Z" style="fill:rgb(10,1,1);fill-rule:nonzero;"/>
                </g>
            </g>
        </g>
        <g transform="matrix(1.198,0,0,0.958552,944.673,-213.56)">
            <g transform="matrix(13,0,0,13,6.74756,0)">
                <path d="M0.039,-0.04L0.086,-0.153C0.136,-0.118 0.185,-0.101 0.234,-0.101C0.308,-0.101 0.346,-0.127 0.346,-0.179C0.346,-0.203 0.337,-0.226 0.319,-0.249C0.302,-0.271 0.266,-0.295 0.211,-0.323C0.156,-0.351 0.119,-0.373 0.1,-0.391C0.081,-0.409 0.066,-0.43 0.056,-0.454C0.046,-0.479 0.041,-0.506 0.041,-0.535C0.041,-0.59 0.061,-0.636 0.101,-0.673C0.142,-0.709 0.194,-0.728 0.257,-0.728C0.34,-0.728 0.401,-0.712 0.439,-0.681L0.401,-0.572C0.356,-0.604 0.309,-0.62 0.26,-0.62C0.23,-0.62 0.208,-0.612 0.192,-0.596C0.176,-0.581 0.167,-0.561 0.167,-0.536C0.167,-0.495 0.213,-0.452 0.304,-0.408C0.352,-0.385 0.386,-0.363 0.407,-0.344C0.428,-0.324 0.444,-0.301 0.456,-0.275C0.467,-0.248 0.472,-0.219 0.472,-0.187C0.472,-0.129 0.449,-0.081 0.404,-0.044C0.358,-0.007 0.297,0.012 0.22,0.012C0.153,0.012 0.093,-0.005 0.039,-0.04Z" style="fill-rule:nonzero;"/>
            </g>
            <g transform="matrix(13,0,0,13,13.3936,0)">
                <path d="M0.364,-0.603L0.364,0L0.237,0L0.237,-0.603L0.01,-0.603L0.01,-0.715L0.602,-0.715L0.602,-0.603L0.364,-0.603Z" style="fill-rule:nonzero;"/>
            </g>
            <g transform="matrix(13,0,0,13,21.3472,0)">
                <path d="M0.477,0L0.286,-0.295C0.266,-0.296 0.24,-0.297 0.205,-0.299L0.205,0L0.073,0L0.073,-0.715C0.08,-0.715 0.108,-0.717 0.156,-0.719C0.204,-0.721 0.242,-0.723 0.271,-0.723C0.453,-0.723 0.544,-0.652 0.544,-0.512C0.544,-0.469 0.531,-0.431 0.506,-0.396C0.481,-0.361 0.45,-0.337 0.412,-0.322L0.623,0L0.477,0ZM0.205,-0.605L0.205,-0.406C0.229,-0.404 0.246,-0.403 0.259,-0.403C0.312,-0.403 0.351,-0.411 0.375,-0.426C0.4,-0.441 0.412,-0.47 0.412,-0.513C0.412,-0.548 0.399,-0.573 0.373,-0.587C0.346,-0.601 0.305,-0.608 0.248,-0.608C0.234,-0.608 0.22,-0.607 0.205,-0.605Z" style="fill-rule:nonzero;"/>
            </g>
            <g transform="matrix(13,0,0,13,29.2881,0)">
                <path d="M0.039,-0.364C0.039,-0.466 0.067,-0.552 0.123,-0.622C0.179,-0.693 0.253,-0.728 0.347,-0.728C0.45,-0.728 0.528,-0.696 0.583,-0.632C0.637,-0.569 0.664,-0.479 0.664,-0.364C0.664,-0.249 0.636,-0.157 0.579,-0.089C0.522,-0.022 0.441,0.012 0.337,0.012C0.241,0.012 0.167,-0.021 0.116,-0.088C0.065,-0.155 0.039,-0.247 0.039,-0.364ZM0.171,-0.364C0.171,-0.28 0.185,-0.215 0.213,-0.169C0.242,-0.124 0.283,-0.101 0.337,-0.101C0.4,-0.101 0.449,-0.123 0.482,-0.168C0.516,-0.213 0.532,-0.278 0.532,-0.364C0.532,-0.531 0.47,-0.615 0.347,-0.615C0.29,-0.615 0.247,-0.593 0.216,-0.547C0.186,-0.502 0.171,-0.441 0.171,-0.364Z" style="fill-rule:nonzero;"/>
            </g>
            <g transform="matrix(13,0,0,13,38.4287,0)">
                <path d="M0.479,0L0.28,-0.305L0.2,-0.196L0.2,0L0.073,0L0.073,-0.715L0.2,-0.715L0.2,-0.373L0.443,-0.715L0.588,-0.715L0.364,-0.403L0.631,0L0.479,0Z" style="fill-rule:nonzero;"/>
            </g>
            <g transform="matrix(13,0,0,13,46.4522,0)">
                <path d="M0.2,-0.603L0.2,-0.435L0.437,-0.435L0.437,-0.327L0.2,-0.327L0.2,-0.113L0.524,-0.113L0.524,0L0.073,0L0.073,-0.715L0.53,-0.715L0.53,-0.603L0.2,-0.603Z" style="fill-rule:nonzero;"/>
            </g>
        </g>
        <g transform="matrix(1.85337,0,0,1.34672,933.747,-475.773)">
            <path d="M38.128,207.245C38.128,206.459 37.548,205.822 36.835,205.822L14.124,205.822C13.411,205.822 12.831,206.459 12.831,207.245L12.831,213.815C12.831,214.601 13.411,215.238 14.124,215.238L36.835,215.238C37.548,215.238 38.128,214.601 38.128,213.815L38.128,207.245Z" style="fill:rgb(0,16,90);stroke:rgb(77,77,77);stroke-width:0.29px;stroke-linecap:square;"/>
        </g>
        <g transform="matrix(1.85337,0,0,1.34672,933.747,-447.54)">
            <path d="M38.128,207.245C38.128,206.459 37.548,205.822 36.835,205.822L14.124,205.822C13.411,205.822 12.831,206.459 12.831,207.245L12.831,213.815C12.831,214.601 13.411,215.238 14.124,215.238L36.835,215.238C37.548,215.238 38.128,214.601 38.128,213.815L38.128,207.245Z" style="fill:rgb(0,16,90);stroke:rgb(77,77,77);stroke-width:0.29px;stroke-linecap:square;"/>
        </g>
        <g transform="matrix(1.85337,0,0,1.34672,933.747,-391.074)">
            <path d="M38.128,207.245C38.128,206.459 37.548,205.822 36.835,205.822L14.124,205.822C13.411,205.822 12.831,206.459 12.831,207.245L12.831,213.815C12.831,214.601 13.411,215.238 14.124,215.238L36.835,215.238C37.548,215.238 38.128,214.601 38.128,213.815L38.128,207.245Z" style="fill:rgb(0,16,90);stroke:rgb(77,77,77);stroke-width:0.29px;stroke-linecap:square;"/>
        </g>
        <g transform="matrix(1.85337,0,0,1.34672,933.747,-419.307)">
            <path d="M38.128,207.245C38.128,206.459 37.548,205.822 36.835,205.822L14.124,205.822C13.411,205.822 12.831,206.459 12.831,207.245L12.831,213.815C12.831,214.601 13.411,215.238 14.124,215.238L36.835,215.238C37.548,215.238 38.128,214.601 38.128,213.815L38.128,207.245Z" style="fill:rgb(0,16,90);stroke:rgb(77,77,77);stroke-width:0.29px;stroke-linecap:square;"/>
        </g>
        <g transform="matrix(1.85337,0,0,1.34672,933.747,-362.842)">
            <path d="M38.128,207.245C38.128,206.459 37.548,205.822 36.835,205.822L14.124,205.822C13.411,205.822 12.831,206.459 12.831,207.245L12.831,213.815C12.831,214.601 13.411,215.238 14.124,215.238L36.835,215.238C37.548,215.238 38.128,214.601 38.128,213.815L38.128,207.245Z" style="fill:rgb(0,16,90);stroke:rgb(77,77,77);stroke-width:0.29px;stroke-linecap:square;"/>
        </g>
        <g transform="matrix(1.85337,0,0,1.34672,933.747,-334.609)">
            <path d="M38.128,207.245C38.128,206.459 37.548,205.822 36.835,205.822L14.124,205.822C13.411,205.822 12.831,206.459 12.831,207.245L12.831,213.815C12.831,214.601 13.411,215.238 14.124,215.238L36.835,215.238C37.548,215.238 38.128,214.601 38.128,213.815L38.128,207.245Z" style="fill:rgb(0,16,90);stroke:rgb(77,77,77);stroke-width:0.29px;stroke-linecap:square;"/>
        </g>
        <g transform="matrix(1.85337,0,0,1.34672,933.747,-306.376)">
            <path d="M38.128,207.245C38.128,206.459 37.548,205.822 36.835,205.822L14.124,205.822C13.411,205.822 12.831,206.459 12.831,207.245L12.831,213.815C12.831,214.601 13.411,215.238 14.124,215.238L36.835,215.238C37.548,215.238 38.128,214.601 38.128,213.815L38.128,207.245Z" style="fill:rgb(0,16,90);stroke:rgb(77,77,77);stroke-width:0.29px;stroke-linecap:square;"/>
        </g>
        <g transform="matrix(1.85337,0,0,1.34672,933.747,-278.143)">
            <path d="M38.128,207.245C38.128,206.459 37.548,205.822 36.835,205.822L14.124,205.822C13.411,205.822 12.831,206.459 12.831,207.245L12.831,213.815C12.831,214.601 13.411,215.238 14.124,215.238L36.835,215.238C37.548,215.238 38.128,214.601 38.128,213.815L38.128,207.245Z" style="fill:rgb(0,16,90);stroke:rgb(77,77,77);stroke-width:0.29px;stroke-linecap:square;"/>
        </g>
        <g transform="matrix(1.85337,0,0,1.34672,933.747,-249.911)">
            <path d="M38.128,207.245C38.128,206.459 37.548,205.822 36.835,205.822L14.124,205.822C13.411,205.822 12.831,206.459 12.831,207.245L12.831,213.815C12.831,214.601 13.411,215.238 14.124,215.238L36.835,215.238C37.548,215.238 38.128,214.601 38.128,213.815L38.128,207.245Z" style="fill:rgb(0,16,90);stroke:rgb(77,77,77);stroke-width:0.29px;stroke-linecap:square;"/>
        </g>
        <g transform="matrix(1.85337,0,0,1.34672,933.747,-221.678)">
            <path d="M38.128,207.245C38.128,206.459 37.548,205.822 36.835,205.822L14.124,205.822C13.411,205.822 12.831,206.459 12.831,207.245L12.831,213.815C12.831,214.601 13.411,215.238 14.124,215.238L36.835,215.238C37.548,215.238 38.128,214.601 38.128,213.815L38.128,207.245Z" style="fill:rgb(0,16,90);stroke:rgb(77,77,77);stroke-width:0.29px;stroke-linecap:square;"/>
        </g>
        <g transform="matrix(1.198,0,0,0.958552,933.145,26.6186)">
            <g transform="matrix(5,0,0,5,35.5296,51.8924)">
                <path d="M0.491,0L0.438,-0.145L0.193,-0.145L0.144,0L0.002,0L0.288,-0.725L0.343,-0.725L0.631,0L0.491,0ZM0.315,-0.506L0.229,-0.242L0.401,-0.242L0.315,-0.506Z" style="fill-opacity:0.6;fill-rule:nonzero;"/>
            </g>
            <g transform="matrix(5,0,0,5,38.7961,51.8924)">
                <path d="M0.073,0L0.073,-0.715L0.2,-0.715L0.2,-0.113L0.523,-0.113L0.523,0L0.073,0Z" style="fill-opacity:0.6;fill-rule:nonzero;"/>
            </g>
            <g transform="matrix(5,0,0,5,41.2886,51.8924)">
                <path d="M0.364,-0.603L0.364,0L0.237,0L0.237,-0.603L0.01,-0.603L0.01,-0.715L0.602,-0.715L0.602,-0.603L0.364,-0.603Z" style="fill-opacity:0.6;fill-rule:nonzero;"/>
            </g>
        </g>
        <g transform="matrix(1.198,0,0,0.958552,923.679,32.2152)">
            <g transform="matrix(5,0,0,5,35.5296,51.8924)">
                <path d="M0.563,-0.677L0.511,-0.572C0.483,-0.601 0.437,-0.615 0.375,-0.615C0.315,-0.615 0.266,-0.59 0.228,-0.54C0.19,-0.49 0.171,-0.427 0.171,-0.35C0.171,-0.274 0.189,-0.213 0.224,-0.168C0.259,-0.123 0.306,-0.101 0.365,-0.101C0.433,-0.101 0.485,-0.125 0.523,-0.173L0.583,-0.07C0.531,-0.015 0.455,0.012 0.355,0.012C0.255,0.012 0.177,-0.021 0.122,-0.086C0.067,-0.152 0.039,-0.242 0.039,-0.355C0.039,-0.461 0.07,-0.55 0.131,-0.621C0.192,-0.692 0.271,-0.728 0.367,-0.728C0.449,-0.728 0.514,-0.711 0.563,-0.677Z" style="fill-opacity:0.6;fill-rule:nonzero;"/>
            </g>
            <g transform="matrix(5,0,0,5,38.6886,51.8924)">
                <path d="M0.364,-0.603L0.364,0L0.237,0L0.237,-0.603L0.01,-0.603L0.01,-0.715L0.602,-0.715L0.602,-0.603L0.364,-0.603Z" style="fill-opacity:0.6;fill-rule:nonzero;"/>
            </g>
            <g transform="matrix(5,0,0,5,41.8477,51.8924)">
                <path d="M0.477,0L0.286,-0.295C0.266,-0.296 0.24,-0.297 0.205,-0.299L0.205,0L0.073,0L0.073,-0.715C0.08,-0.715 0.108,-0.717 0.156,-0.719C0.204,-0.721 0.242,-0.723 0.271,-0.723C0.453,-0.723 0.544,-0.652 0.544,-0.512C0.544,-0.469 0.531,-0.431 0.506,-0.396C0.481,-0.361 0.45,-0.337 0.412,-0.322L0.623,0L0.477,0ZM0.205,-0.605L0.205,-0.406C0.229,-0.404 0.246,-0.403 0.259,-0.403C0.312,-0.403 0.351,-0.411 0.375,-0.426C0.4,-0.441 0.412,-0.47 0.412,-0.513C0.412,-0.548 0.399,-0.573 0.373,-0.587C0.346,-0.601 0.305,-0.608 0.248,-0.608C0.234,-0.608 0.22,-0.607 0.205,-0.605Z" style="fill-opacity:0.6;fill-rule:nonzero;"/>
            </g>
            <g transform="matrix(5,0,0,5,45.0019,51.8924)">
                <path d="M0.073,0L0.073,-0.715L0.2,-0.715L0.2,-0.113L0.523,-0.113L0.523,0L0.073,0Z" style="fill-opacity:0.6;fill-rule:nonzero;"/>
            </g>
            <g transform="matrix(5,0,0,5,47.8656,51.8924)">
                <path d="M0.118,0L0.008,0L0.278,-0.718L0.387,-0.718L0.118,0Z" style="fill-opacity:0.6;fill-rule:nonzero;"/>
            </g>
            <g transform="matrix(5,0,0,5,49.9163,51.8924)">
                <path d="M0.563,-0.677L0.511,-0.572C0.483,-0.601 0.437,-0.615 0.375,-0.615C0.315,-0.615 0.266,-0.59 0.228,-0.54C0.19,-0.49 0.171,-0.427 0.171,-0.35C0.171,-0.274 0.189,-0.213 0.224,-0.168C0.259,-0.123 0.306,-0.101 0.365,-0.101C0.433,-0.101 0.485,-0.125 0.523,-0.173L0.583,-0.07C0.531,-0.015 0.455,0.012 0.355,0.012C0.255,0.012 0.177,-0.021 0.122,-0.086C0.067,-0.152 0.039,-0.242 0.039,-0.355C0.039,-0.461 0.07,-0.55 0.131,-0.621C0.192,-0.692 0.271,-0.728 0.367,-0.728C0.449,-0.728 0.514,-0.711 0.563,-0.677Z" style="fill-opacity:0.6;fill-rule:nonzero;"/>
            </g>
            <g transform="matrix(5,0,0,5,53.0754,51.8924)">
                <path d="M0.74,0L0.617,0L0.543,-0.385L0.399,0.01L0.354,0.01L0.209,-0.385L0.132,0L0.01,0L0.154,-0.715L0.221,-0.715L0.376,-0.233L0.527,-0.715L0.594,-0.715L0.74,0Z" style="fill-opacity:0.6;fill-rule:nonzero;"/>
            </g>
            <g transform="matrix(5,0,0,5,56.9009,51.8924)">
                <path d="M0.232,0L0.073,0L0.073,-0.715C0.174,-0.718 0.238,-0.72 0.264,-0.72C0.368,-0.72 0.451,-0.69 0.512,-0.629C0.573,-0.568 0.604,-0.487 0.604,-0.386C0.604,-0.129 0.48,0 0.232,0ZM0.2,-0.604L0.2,-0.116C0.221,-0.114 0.243,-0.113 0.267,-0.113C0.331,-0.113 0.381,-0.136 0.417,-0.183C0.454,-0.229 0.472,-0.294 0.472,-0.378C0.472,-0.531 0.401,-0.607 0.258,-0.607C0.245,-0.607 0.225,-0.606 0.2,-0.604Z" style="fill-opacity:0.6;fill-rule:nonzero;"/>
            </g>
        </g>
        <g transform="matrix(1.198,0,0,0.958552,930.086,37.8703)">
            <g transform="matrix(5,0,0,5,35.5296,51.8924)">
                <path d="M0.039,-0.04L0.086,-0.153C0.136,-0.118 0.185,-0.101 0.234,-0.101C0.308,-0.101 0.346,-0.127 0.346,-0.179C0.346,-0.203 0.337,-0.226 0.319,-0.249C0.302,-0.271 0.266,-0.295 0.211,-0.323C0.156,-0.351 0.119,-0.373 0.1,-0.391C0.081,-0.409 0.066,-0.43 0.056,-0.454C0.046,-0.479 0.041,-0.506 0.041,-0.535C0.041,-0.59 0.061,-0.636 0.101,-0.673C0.142,-0.709 0.194,-0.728 0.257,-0.728C0.34,-0.728 0.401,-0.712 0.439,-0.681L0.401,-0.572C0.356,-0.604 0.309,-0.62 0.26,-0.62C0.23,-0.62 0.208,-0.612 0.192,-0.596C0.176,-0.581 0.167,-0.561 0.167,-0.536C0.167,-0.495 0.213,-0.452 0.304,-0.408C0.352,-0.385 0.386,-0.363 0.407,-0.344C0.428,-0.324 0.444,-0.301 0.456,-0.275C0.467,-0.248 0.472,-0.219 0.472,-0.187C0.472,-0.129 0.449,-0.081 0.404,-0.044C0.358,-0.007 0.297,0.012 0.22,0.012C0.153,0.012 0.093,-0.005 0.039,-0.04Z" style="fill-opacity:0.6;fill-rule:nonzero;"/>
            </g>
            <g transform="matrix(5,0,0,5,38.1857,51.8924)">
                <path d="M0.485,0L0.485,-0.322L0.2,-0.322L0.2,0L0.073,0L0.073,-0.715L0.2,-0.715L0.2,-0.435L0.485,-0.435L0.485,-0.715L0.61,-0.715L0.61,0L0.485,0Z" style="fill-opacity:0.6;fill-rule:nonzero;"/>
            </g>
            <g transform="matrix(5,0,0,5,41.7037,51.8924)">
                <rect x="0.076" y="-0.715" width="0.127" height="0.715" style="fill-opacity:0.6;fill-rule:nonzero;"/>
            </g>
            <g transform="matrix(5,0,0,5,43.1953,51.8924)">
                <path d="M0.2,-0.603L0.2,-0.435L0.452,-0.435L0.452,-0.327L0.2,-0.327L0.2,0L0.073,0L0.073,-0.715L0.544,-0.715L0.544,-0.603L0.2,-0.603Z" style="fill-opacity:0.6;fill-rule:nonzero;"/>
            </g>
            <g transform="matrix(5,0,0,5,46.2128,51.8924)">
                <path d="M0.364,-0.603L0.364,0L0.237,0L0.237,-0.603L0.01,-0.603L0.01,-0.715L0.602,-0.715L0.602,-0.603L0.364,-0.603Z" style="fill-opacity:0.6;fill-rule:nonzero;"/>
            </g>
        </g>
        <g transform="matrix(1.198,0,0,0.958552,927.06,-240.235)">
            <path d="M8.554,54.678L8.554,74.901" style="fill:none;stroke:black;stroke-opacity:0.2;stroke-width:0.4px;"/>
        </g>
        <g transform="matrix(1.198,0,0,0.958552,933.557,-240.235)">
            <path d="M8.554,54.678L8.554,74.901" style="fill:none;stroke:black;stroke-opacity:0.2;stroke-width:0.4px;"/>
        </g>
        <g transform="matrix(1.198,0,0,0.958552,940.054,-240.235)">
            <path d="M8.554,54.678L8.554,74.901" style="fill:none;stroke:black;stroke-opacity:0.2;stroke-width:0.4px;"/>
        </g>
        <g transform="matrix(1.198,0,0,0.958552,927.06,-212.002)">
            <path d="M8.554,54.678L8.554,74.901" style="fill:none;stroke:black;stroke-opacity:0.2;stroke-width:0.4px;"/>
        </g>
        <g transform="matrix(1.198,0,0,0.958552,933.557,-212.002)">
            <path d="M8.554,54.678L8.554,74.901" style="fill:none;stroke:black;stroke-opacity:0.2;stroke-width:0.4px;"/>
        </g>
        <g transform="matrix(1.198,0,0,0.958552,940.054,-212.002)">
            <path d="M8.554,54.678L8.554,74.901" style="fill:none;stroke:black;stroke-opacity:0.2;stroke-width:0.4px;"/>
        </g>
        <g transform="matrix(1.198,0,0,0.958552,927.06,-183.77)">
            <path d="M8.554,54.678L8.554,74.901" style="fill:none;stroke:black;stroke-opacity:0.2;stroke-width:0.4px;"/>
        </g>
        <g transform="matrix(1.198,0,0,0.958552,933.557,-183.77)">
            <path d="M8.554,54.678L8.554,74.901" style="fill:none;stroke:black;stroke-opacity:0.2;stroke-width:0.4px;"/>
        </g>
        <g transform="matrix(1.198,0,0,0.958552,940.054,-183.77)">
            <path d="M8.554,54.678L8.554,74.901" style="fill:none;stroke:black;stroke-opacity:0.2;stroke-width:0.4px;"/>
        </g>
        <g transform="matrix(1.198,0,0,0.958552,927.06,-155.537)">
            <path d="M8.554,54.678L8.554,74.901" style="fill:none;stroke:black;stroke-opacity:0.2;stroke-width:0.4px;"/>
        </g>
        <g transform="matrix(1.198,0,0,0.958552,933.557,-155.537)">
            <path d="M8.554,54.678L8.554,74.901" style="fill:none;stroke:black;stroke-opacity:0.2;stroke-width:0.4px;"/>
        </g>
        <g transform="matrix(1.198,0,0,0.958552,940.054,-155.537)">
            <path d="M8.554,54.678L8.554,74.901" style="fill:none;stroke:black;stroke-opacity:0.2;stroke-width:0.4px;"/>
        </g>
        <g transform="matrix(1.198,0,0,0.958552,927.06,-127.304)">
            <path d="M8.554,54.678L8.554,74.901" style="fill:none;stroke:black;stroke-opacity:0.2;stroke-width:0.4px;"/>
        </g>
        <g transform="matrix(1.198,0,0,0.958552,933.557,-127.304)">
            <path d="M8.554,54.678L8.554,74.901" style="fill:none;stroke:black;stroke-opacity:0.2;stroke-width:0.4px;"/>
        </g>
        <g transform="matrix(1.198,0,0,0.958552,940.054,-127.304)">
            <path d="M8.554,54.678L8.554,74.901" style="fill:none;stroke:black;stroke-opacity:0.2;stroke-width:0.4px;"/>
        </g>
        <g transform="matrix(1.198,0,0,0.958552,927.06,-70.8387)">
            <path d="M8.554,54.678L8.554,74.901" style="fill:none;stroke:black;stroke-opacity:0.2;stroke-width:0.4px;"/>
        </g>
        <g transform="matrix(1.198,0,0,0.958552,933.557,-70.8387)">
            <path d="M8.554,54.678L8.554,74.901" style="fill:none;stroke:black;stroke-opacity:0.2;stroke-width:0.4px;"/>
        </g>
        <g transform="matrix(1.198,0,0,0.958552,940.054,-70.8387)">
            <path d="M8.554,54.678L8.554,74.901" style="fill:none;stroke:black;stroke-opacity:0.2;stroke-width:0.4px;"/>
        </g>
        <g transform="matrix(1.198,0,0,0.958552,927.06,-99.0715)">
            <path d="M8.554,54.678L8.554,74.901" style="fill:none;stroke:black;stroke-opacity:0.2;stroke-width:0.4px;"/>
        </g>
        <g transform="matrix(1.198,0,0,0.958552,933.557,-99.0715)">
            <path d="M8.554,54.678L8.554,74.901" style="fill:none;stroke:black;stroke-opacity:0.2;stroke-width:0.4px;"/>
        </g>
        <g transform="matrix(1.198,0,0,0.958552,940.054,-99.0715)">
            <path d="M8.554,54.678L8.554,74.901" style="fill:none;stroke:black;stroke-opacity:0.2;stroke-width:0.4px;"/>
        </g>
        <g transform="matrix(1.198,0,0,0.958552,927.06,-42.606)">
            <path d="M8.554,54.678L8.554,74.901" style="fill:none;stroke:black;stroke-opacity:0.2;stroke-width:0.4px;"/>
        </g>
        <g transform="matrix(1.198,0,0,0.958552,933.557,-42.606)">
            <path d="M8.554,54.678L8.554,74.901" style="fill:none;stroke:black;stroke-opacity:0.2;stroke-width:0.4px;"/>
        </g>
        <g transform="matrix(1.198,0,0,0.958552,940.054,-42.606)">
            <path d="M8.554,54.678L8.554,74.901" style="fill:none;stroke:black;stroke-opacity:0.2;stroke-width:0.4px;"/>
        </g>
        <g transform="matrix(1.198,0,0,0.958552,927.06,-14.3732)">
            <path d="M8.554,54.678L8.554,74.901" style="fill:none;stroke:black;stroke-opacity:0.2;stroke-width:0.4px;"/>
        </g>
        <g transform="matrix(1.198,0,0,0.958552,933.557,-14.3732)">
            <path d="M8.554,54.678L8.554,74.901" style="fill:none;stroke:black;stroke-opacity:0.2;stroke-width:0.4px;"/>
        </g>
        <g transform="matrix(1.198,0,0,0.958552,940.054,-14.3732)">
            <path d="M8.554,54.678L8.554,74.901" style="fill:none;stroke:black;stroke-opacity:0.2;stroke-width:0.4px;"/>
        </g>
        <g transform="matrix(1.198,0,0,0.958552,927.06,13.8595)">
            <path d="M8.554,54.678L8.554,61.187C8.553,68.9 14.806,75.153 22.52,75.153C28.684,75.153 34.557,75.153 34.557,75.153" style="fill:none;stroke:black;stroke-opacity:0.2;stroke-width:0.4px;"/>
        </g>
        <g transform="matrix(1.198,0,0,0.958552,927.06,13.8595)">
            <path d="M19.401,54.678L19.401,56.548C19.401,60.327 22.464,63.39 26.243,63.39C31.173,63.39 36.962,63.39 36.962,63.39" style="fill:none;stroke:black;stroke-opacity:0.2;stroke-width:0.4px;"/>
        </g>
        <g transform="matrix(1.198,0,0,0.958552,933.557,13.8595)">
            <path d="M8.554,54.678L8.554,58.735C8.554,64.443 13.135,69.093 18.842,69.178C21.636,69.22 23.905,69.253 23.905,69.253" style="fill:none;stroke:black;stroke-opacity:0.2;stroke-width:0.4px;"/>
        </g>
    </g>
</svg>
