<?xml version="1.0" encoding="UTF-8" standalone="no"?>
<!DOCTYPE svg PUBLIC "-//W3C//DTD SVG 1.1//EN" "http://www.w3.org/Graphics/SVG/1.1/DTD/svg11.dtd">
<svg width="100%" height="100%" viewBox="0 0 180 380" version="1.1" xmlns="http://www.w3.org/2000/svg" xmlns:xlink="http://www.w3.org/1999/xlink" xml:space="preserve" xmlns:serif="http://www.serif.com/" style="fill-rule:evenodd;clip-rule:evenodd;stroke-linecap:round;stroke-linejoin:round;stroke-miterlimit:1.5;">
    <g id="panel" transform="matrix(0.834722,0,0,1.04324,-803.837,250.623)">
        <g transform="matrix(3.59401,0,0,0.958552,963,-240.235)">
            <rect x="0" y="0" width="60" height="380" style="fill:rgb(128,187,254);"/>
        </g>
        <g transform="matrix(1.198,0,0,0.958552,1034.52,-213.396)">
            <g transform="matrix(13,0,0,13,-0.743945,0)">
                <path d="M0.364,-0.603L0.364,0L0.237,0L0.237,-0.603L0.01,-0.603L0.01,-0.715L0.602,-0.715L0.602,-0.603L0.364,-0.603Z" style="fill-rule:nonzero;"/>
            </g>
            <g transform="matrix(13,0,0,13,7.20967,0)">
                <path d="M0.073,-0.715L0.2,-0.715L0.2,-0.23C0.2,-0.192 0.212,-0.161 0.235,-0.137C0.259,-0.113 0.291,-0.101 0.332,-0.101C0.378,-0.101 0.414,-0.112 0.439,-0.136C0.465,-0.16 0.478,-0.192 0.478,-0.233L0.478,-0.715L0.604,-0.715L0.604,-0.223C0.604,-0.15 0.58,-0.092 0.531,-0.05C0.481,-0.009 0.415,0.012 0.333,0.012C0.25,0.012 0.186,-0.008 0.141,-0.049C0.096,-0.09 0.073,-0.148 0.073,-0.224L0.073,-0.715Z" style="fill-rule:nonzero;"/>
            </g>
            <g transform="matrix(13,0,0,13,16.0202,0)">
                <path d="M0.477,0L0.286,-0.295C0.266,-0.296 0.24,-0.297 0.205,-0.299L0.205,0L0.073,0L0.073,-0.715C0.08,-0.715 0.108,-0.717 0.156,-0.719C0.204,-0.721 0.242,-0.723 0.271,-0.723C0.453,-0.723 0.544,-0.652 0.544,-0.512C0.544,-0.469 0.531,-0.431 0.506,-0.396C0.481,-0.361 0.45,-0.337 0.412,-0.322L0.623,0L0.477,0ZM0.205,-0.605L0.205,-0.406C0.229,-0.404 0.246,-0.403 0.259,-0.403C0.312,-0.403 0.351,-0.411 0.375,-0.426C0.4,-0.441 0.412,-0.47 0.412,-0.513C0.412,-0.548 0.399,-0.573 0.373,-0.587C0.346,-0.601 0.305,-0.608 0.248,-0.608C0.234,-0.608 0.22,-0.607 0.205,-0.605Z" style="fill-rule:nonzero;"/>
            </g>
            <g transform="matrix(13,0,0,13,23.9611,0)">
                <path d="M0.542,0.01L0.195,-0.443L0.195,0L0.073,0L0.073,-0.715L0.134,-0.715L0.472,-0.284L0.472,-0.715L0.594,-0.715L0.594,0.01L0.542,0.01Z" style="fill-rule:nonzero;"/>
            </g>
            <g transform="matrix(13,0,0,13,32.6384,0)">
                <rect x="0.053" y="-0.347" width="0.258" height="0.115" style="fill-rule:nonzero;"/>
            </g>
            <g transform="matrix(13,0,0,13,37.4118,0)">
                <path d="M0.039,-0.04L0.086,-0.153C0.136,-0.118 0.185,-0.101 0.234,-0.101C0.308,-0.101 0.346,-0.127 0.346,-0.179C0.346,-0.203 0.337,-0.226 0.319,-0.249C0.302,-0.271 0.266,-0.295 0.211,-0.323C0.156,-0.351 0.119,-0.373 0.1,-0.391C0.081,-0.409 0.066,-0.43 0.056,-0.454C0.046,-0.479 0.041,-0.506 0.041,-0.535C0.041,-0.59 0.061,-0.636 0.101,-0.673C0.142,-0.709 0.194,-0.728 0.257,-0.728C0.34,-0.728 0.401,-0.712 0.439,-0.681L0.401,-0.572C0.356,-0.604 0.309,-0.62 0.26,-0.62C0.23,-0.62 0.208,-0.612 0.192,-0.596C0.176,-0.581 0.167,-0.561 0.167,-0.536C0.167,-0.495 0.213,-0.452 0.304,-0.408C0.352,-0.385 0.386,-0.363 0.407,-0.344C0.428,-0.324 0.444,-0.301 0.456,-0.275C0.467,-0.248 0.472,-0.219 0.472,-0.187C0.472,-0.129 0.449,-0.081 0.404,-0.044C0.358,-0.007 0.297,0.012 0.22,0.012C0.153,0.012 0.093,-0.005 0.039,-0.04Z" style="fill-rule:nonzero;"/>
            </g>
            <g transform="matrix(13,0,0,13,44.0578,0)">
                <path d="M0.2,-0.603L0.2,-0.435L0.437,-0.435L0.437,-0.327L0.2,-0.327L0.2,-0.113L0.524,-0.113L0.524,0L0.073,0L0.073,-0.715L0.53,-0.715L0.53,-0.603L0.2,-0.603Z" style="fill-rule:nonzero;"/>
            </g>
            <g transform="matrix(13,0,0,13,51.4528,0)">
                <path d="M0.751,0.148C0.73,0.151 0.708,0.152 0.686,0.152C0.625,0.152 0.57,0.14 0.519,0.115C0.468,0.091 0.428,0.056 0.4,0.012C0.388,0.014 0.368,0.016 0.342,0.016C0.248,0.016 0.174,-0.02 0.12,-0.09C0.066,-0.16 0.039,-0.251 0.039,-0.361C0.039,-0.466 0.067,-0.553 0.122,-0.623C0.177,-0.693 0.25,-0.728 0.342,-0.728C0.445,-0.728 0.524,-0.696 0.58,-0.631C0.636,-0.566 0.664,-0.477 0.664,-0.361C0.664,-0.19 0.608,-0.076 0.496,-0.019C0.532,0.02 0.59,0.04 0.673,0.04C0.703,0.04 0.729,0.036 0.751,0.03L0.751,0.148ZM0.171,-0.361C0.171,-0.286 0.186,-0.224 0.216,-0.173C0.246,-0.123 0.288,-0.098 0.342,-0.098C0.404,-0.098 0.452,-0.121 0.484,-0.167C0.516,-0.213 0.532,-0.278 0.532,-0.361C0.532,-0.53 0.469,-0.615 0.342,-0.615C0.286,-0.615 0.243,-0.592 0.214,-0.547C0.185,-0.502 0.171,-0.44 0.171,-0.361Z" style="fill-rule:nonzero;"/>
            </g>
        </g>
        <g transform="matrix(0.840359,0,0,0.840359,238.786,16.2108)">
            <g transform="matrix(1.198,0,0,0.958552,893.633,-224.914)">
                <g transform="matrix(9,0,0,9,64.0056,347.267)">
                    <path d="M0.919,0L0.762,0L0.762,-0.308C0.762,-0.391 0.732,-0.432 0.671,-0.432C0.643,-0.432 0.62,-0.42 0.602,-0.395C0.583,-0.369 0.574,-0.339 0.574,-0.303L0.574,0L0.417,0L0.417,-0.312C0.417,-0.392 0.387,-0.432 0.327,-0.432C0.298,-0.432 0.274,-0.42 0.256,-0.396C0.238,-0.372 0.229,-0.341 0.229,-0.301L0.229,0L0.072,0L0.072,-0.54L0.229,-0.54L0.229,-0.456L0.231,-0.456C0.25,-0.486 0.275,-0.51 0.307,-0.528C0.338,-0.545 0.371,-0.553 0.405,-0.553C0.481,-0.553 0.533,-0.519 0.561,-0.451C0.603,-0.519 0.663,-0.553 0.743,-0.553C0.86,-0.553 0.919,-0.481 0.919,-0.335L0.919,0Z" style="fill:rgb(10,1,1);fill-rule:nonzero;"/>
                </g>
                <g transform="matrix(9,0,0,9,72.978,347.267)">
                    <path d="M0.551,-0.226L0.196,-0.226C0.201,-0.142 0.252,-0.1 0.347,-0.1C0.407,-0.1 0.459,-0.115 0.505,-0.144L0.505,-0.028C0.456,-0.001 0.391,0.013 0.312,0.013C0.226,0.013 0.159,-0.011 0.111,-0.06C0.063,-0.108 0.04,-0.176 0.04,-0.262C0.04,-0.348 0.065,-0.419 0.116,-0.472C0.167,-0.526 0.23,-0.553 0.307,-0.553C0.384,-0.553 0.443,-0.53 0.487,-0.484C0.53,-0.437 0.551,-0.374 0.551,-0.292L0.551,-0.226ZM0.404,-0.324C0.404,-0.405 0.372,-0.445 0.306,-0.445C0.279,-0.445 0.255,-0.434 0.234,-0.412C0.214,-0.39 0.201,-0.361 0.195,-0.324L0.404,-0.324Z" style="fill:rgb(10,1,1);fill-rule:nonzero;"/>
                </g>
                <g transform="matrix(9,0,0,9,78.3513,347.267)">
                    <rect x="0.069" y="-0.799" width="0.157" height="0.799" style="fill:rgb(10,1,1);fill-rule:nonzero;"/>
                </g>
                <g transform="matrix(9,0,0,9,81.1494,347.267)">
                    <path d="M0.593,0L0.436,0L0.436,-0.076L0.433,-0.076C0.395,-0.017 0.339,0.013 0.264,0.013C0.195,0.013 0.141,-0.011 0.1,-0.06C0.06,-0.108 0.04,-0.174 0.04,-0.258C0.04,-0.346 0.062,-0.418 0.108,-0.472C0.153,-0.526 0.212,-0.553 0.286,-0.553C0.356,-0.553 0.405,-0.528 0.433,-0.477L0.436,-0.477L0.438,-0.707L0.593,-0.658L0.593,0ZM0.438,-0.306C0.438,-0.342 0.427,-0.372 0.405,-0.396C0.383,-0.42 0.356,-0.432 0.323,-0.432C0.284,-0.432 0.254,-0.417 0.232,-0.386C0.21,-0.356 0.199,-0.315 0.199,-0.263C0.199,-0.213 0.21,-0.175 0.231,-0.148C0.252,-0.121 0.281,-0.108 0.318,-0.108C0.353,-0.108 0.382,-0.122 0.404,-0.15C0.427,-0.179 0.438,-0.215 0.438,-0.261L0.438,-0.306Z" style="fill:rgb(10,1,1);fill-rule:nonzero;"/>
                </g>
                <g transform="matrix(9,0,0,9,87.2654,347.267)">
                    <path d="M0.551,-0.226L0.196,-0.226C0.201,-0.142 0.252,-0.1 0.347,-0.1C0.407,-0.1 0.459,-0.115 0.505,-0.144L0.505,-0.028C0.456,-0.001 0.391,0.013 0.312,0.013C0.226,0.013 0.159,-0.011 0.111,-0.06C0.063,-0.108 0.04,-0.176 0.04,-0.262C0.04,-0.348 0.065,-0.419 0.116,-0.472C0.167,-0.526 0.23,-0.553 0.307,-0.553C0.384,-0.553 0.443,-0.53 0.487,-0.484C0.53,-0.437 0.551,-0.374 0.551,-0.292L0.551,-0.226ZM0.404,-0.324C0.404,-0.405 0.372,-0.445 0.306,-0.445C0.279,-0.445 0.255,-0.434 0.234,-0.412C0.214,-0.39 0.201,-0.361 0.195,-0.324L0.404,-0.324Z" style="fill:rgb(10,1,1);fill-rule:nonzero;"/>
                </g>
                <g transform="matrix(9,0,0,9,92.6386,347.267)">
                    <path d="M0.416,-0.397C0.397,-0.408 0.374,-0.414 0.346,-0.414C0.31,-0.414 0.282,-0.4 0.261,-0.373C0.24,-0.345 0.229,-0.308 0.229,-0.26L0.229,0L0.072,0L0.072,-0.54L0.229,-0.54L0.229,-0.438L0.231,-0.438C0.257,-0.512 0.305,-0.549 0.374,-0.549C0.392,-0.549 0.406,-0.547 0.416,-0.543L0.416,-0.397Z" style="fill:rgb(10,1,1);fill-rule:nonzero;"/>
                </g>
            </g>
            <g transform="matrix(1.198,0,0,0.958552,893.495,-231.786)">
                <g transform="matrix(9,0,0,9,68.6657,347.267)">
                    <path d="M0.058,-0.145C0.112,-0.112 0.165,-0.096 0.216,-0.096C0.281,-0.096 0.314,-0.113 0.314,-0.148C0.314,-0.173 0.287,-0.193 0.233,-0.21C0.166,-0.231 0.12,-0.254 0.095,-0.28C0.07,-0.305 0.058,-0.34 0.058,-0.383C0.058,-0.436 0.079,-0.478 0.122,-0.508C0.165,-0.538 0.221,-0.553 0.291,-0.553C0.34,-0.553 0.388,-0.546 0.434,-0.531L0.434,-0.407C0.392,-0.432 0.346,-0.444 0.295,-0.444C0.27,-0.444 0.25,-0.44 0.235,-0.431C0.22,-0.422 0.212,-0.41 0.212,-0.396C0.212,-0.371 0.235,-0.351 0.28,-0.335C0.329,-0.319 0.366,-0.304 0.39,-0.291C0.415,-0.278 0.434,-0.26 0.447,-0.238C0.459,-0.216 0.466,-0.191 0.466,-0.163C0.466,-0.107 0.444,-0.064 0.399,-0.033C0.354,-0.002 0.295,0.013 0.22,0.013C0.162,0.013 0.107,0.004 0.058,-0.015L0.058,-0.145Z" style="fill:rgb(10,1,1);fill-rule:nonzero;"/>
                </g>
                <g transform="matrix(9,0,0,9,73.2436,347.267)">
                    <path d="M0.39,-0.006C0.366,0.007 0.33,0.013 0.282,0.013C0.167,0.013 0.11,-0.047 0.11,-0.167L0.11,-0.422L0.021,-0.422L0.021,-0.54L0.11,-0.54L0.11,-0.659L0.267,-0.704L0.267,-0.54L0.39,-0.54L0.39,-0.422L0.267,-0.422L0.267,-0.195C0.267,-0.137 0.289,-0.108 0.335,-0.108C0.353,-0.108 0.371,-0.114 0.39,-0.124L0.39,-0.006Z" style="fill:rgb(10,1,1);fill-rule:nonzero;"/>
                </g>
                <g transform="matrix(6.6,0,0,6.6,77.1051,347.267)">
                    <path d="M0.106,0.032L0.043,-0.021L0.122,-0.115C0.067,-0.183 0.04,-0.268 0.04,-0.368C0.04,-0.487 0.075,-0.584 0.144,-0.658C0.213,-0.732 0.305,-0.769 0.418,-0.769C0.5,-0.769 0.571,-0.748 0.63,-0.706L0.698,-0.785L0.761,-0.733L0.689,-0.65C0.748,-0.581 0.778,-0.493 0.778,-0.384C0.778,-0.266 0.743,-0.17 0.674,-0.097C0.605,-0.023 0.516,0.013 0.406,0.013C0.32,0.013 0.246,-0.011 0.182,-0.059L0.106,0.032ZM0.54,-0.6C0.506,-0.628 0.463,-0.642 0.413,-0.642C0.349,-0.642 0.297,-0.617 0.258,-0.569C0.218,-0.52 0.199,-0.455 0.199,-0.375C0.199,-0.319 0.208,-0.273 0.227,-0.234L0.54,-0.6ZM0.275,-0.165C0.311,-0.131 0.356,-0.114 0.409,-0.114C0.473,-0.114 0.524,-0.137 0.563,-0.184C0.601,-0.231 0.62,-0.294 0.62,-0.374C0.62,-0.435 0.61,-0.488 0.588,-0.533L0.275,-0.165Z" style="fill-rule:nonzero;"/>
                </g>
                <g transform="matrix(9,0,0,9,82.6053,347.267)">
                    <path d="M0.551,-0.226L0.196,-0.226C0.201,-0.142 0.252,-0.1 0.347,-0.1C0.407,-0.1 0.459,-0.115 0.505,-0.144L0.505,-0.028C0.456,-0.001 0.391,0.013 0.312,0.013C0.226,0.013 0.159,-0.011 0.111,-0.06C0.063,-0.108 0.04,-0.176 0.04,-0.262C0.04,-0.348 0.065,-0.419 0.116,-0.472C0.167,-0.526 0.23,-0.553 0.307,-0.553C0.384,-0.553 0.443,-0.53 0.487,-0.484C0.53,-0.437 0.551,-0.374 0.551,-0.292L0.551,-0.226ZM0.404,-0.324C0.404,-0.405 0.372,-0.445 0.306,-0.445C0.279,-0.445 0.255,-0.434 0.234,-0.412C0.214,-0.39 0.201,-0.361 0.195,-0.324L0.404,-0.324Z" style="fill:rgb(10,1,1);fill-rule:nonzero;"/>
                </g>
                <g transform="matrix(9,0,0,9,87.9786,347.267)">
                    <path d="M0.416,-0.397C0.397,-0.408 0.374,-0.414 0.346,-0.414C0.31,-0.414 0.282,-0.4 0.261,-0.373C0.24,-0.345 0.229,-0.308 0.229,-0.26L0.229,0L0.072,0L0.072,-0.54L0.229,-0.54L0.229,-0.438L0.231,-0.438C0.257,-0.512 0.305,-0.549 0.374,-0.549C0.392,-0.549 0.406,-0.547 0.416,-0.543L0.416,-0.397Z" style="fill:rgb(10,1,1);fill-rule:nonzero;"/>
                </g>
            </g>
        </g>
        <g transform="matrix(1.27521,0,0,1.81823,1001.3,-538.329)">
            <rect x="-30.034" y="347.456" width="169.102" height="16.91" style="fill:rgb(4,4,4);fill-opacity:0.3;"/>
        </g>
        <g transform="matrix(1.27521,0,0,1.76292,1001.3,-852.772)">
            <rect x="-30.034" y="347.456" width="169.102" height="16.91" style="fill:rgb(4,4,4);fill-opacity:0.3;"/>
        </g>
        <g transform="matrix(9.62817,0,0,25.5659,603.026,-292.473)">
            <rect x="37.388" y="2.043" width="22.397" height="14.247" style="fill:none;stroke:black;stroke-opacity:0.6;stroke-width:0.03px;"/>
        </g>
        <g transform="matrix(1.07173,0,0,1.09885,1089.79,-3.35715)">
            <path d="M73.138,60.413C73.138,58.487 71.134,56.924 68.666,56.924L9.578,56.924C7.11,56.924 5.107,58.487 5.107,60.413L5.107,80.215C5.107,82.14 7.11,83.704 9.578,83.704L68.666,83.704C71.134,83.704 73.138,82.14 73.138,80.215L73.138,60.413Z" style="fill-opacity:0.8;"/>
        </g>
        <g transform="matrix(1.07173,0,0,1.09885,967.928,-3.35715)">
            <path d="M73.138,60.413C73.138,58.487 71.134,56.924 68.666,56.924L9.578,56.924C7.11,56.924 5.107,58.487 5.107,60.413L5.107,80.215C5.107,82.14 7.11,83.704 9.578,83.704L68.666,83.704C71.134,83.704 73.138,82.14 73.138,80.215L73.138,60.413Z" style="fill-opacity:0.8;"/>
        </g>
        <g transform="matrix(2.86301,0,0,2.32134,958.813,-171.411)">
            <path d="M73.138,58.575C73.138,57.664 72.388,56.924 71.464,56.924L6.781,56.924C5.857,56.924 5.107,57.664 5.107,58.575L5.107,83.704L73.138,83.704L73.138,58.575Z" style="fill:white;fill-opacity:0.8;"/>
        </g>
        <g transform="matrix(0.531684,0,0,1.34582,1050.26,-24.0298)">
            <path d="M73.138,59.773C73.138,58.2 69.099,56.924 64.125,56.924L14.12,56.924C9.145,56.924 5.107,58.2 5.107,59.773L5.107,80.855C5.107,82.427 9.145,83.704 14.12,83.704L64.125,83.704C69.099,83.704 73.138,82.427 73.138,80.855L73.138,59.773Z" style="fill:white;fill-opacity:0.8;"/>
        </g>
        <g transform="matrix(1.198,0,0,0.958552,963,-240.235)">
            <path d="M171.291,274.508L171.291,303.076C171.291,305.284 169.498,307.076 167.291,307.076L110.403,307.076C110.382,302.679 106.806,299.115 102.403,299.115L77.995,299.115C73.593,299.115 70.017,302.679 69.996,307.076L12.709,307.076C10.502,307.076 8.709,305.284 8.709,303.076L8.709,274.508L171.291,274.508Z" style="fill:white;fill-opacity:0.5;"/>
        </g>
        <g transform="matrix(1.05372,0,0,0.781717,948.978,-246.628)">
            <rect x="13.307" y="52.812" width="204.647" height="206.298"/>
        </g>
        <g transform="matrix(2.86301,0,0,5.81631,958.78,-533.727)">
            <rect x="5.107" y="56.924" width="68.031" height="26.78" style="fill:rgb(0,16,90);stroke:white;stroke-opacity:0.2;stroke-width:0.13px;stroke-linecap:butt;stroke-miterlimit:1.41421;"/>
        </g>
        <g transform="matrix(0.671635,0,0,0.644953,864.26,-233.077)">
            <path d="M162.555,167.946L452.499,167.946" style="fill:none;stroke:white;stroke-opacity:0.15;stroke-width:0.95px;stroke-linecap:butt;"/>
        </g>
        <g transform="matrix(0.671635,0,0,0.644953,864.26,-237.96)">
            <path d="M162.555,167.946L452.499,167.946" style="fill:none;stroke:white;stroke-opacity:0.05;stroke-width:0.95px;stroke-linecap:butt;"/>
        </g>
        <g transform="matrix(0.671635,0,0,0.644953,864.26,-247.725)">
            <path d="M162.555,167.946L452.499,167.946" style="fill:none;stroke:white;stroke-opacity:0.05;stroke-width:0.95px;stroke-linecap:butt;"/>
        </g>
        <g transform="matrix(0.671635,0,0,0.644953,864.26,-257.491)">
            <path d="M162.555,167.946L452.499,167.946" style="fill:none;stroke:white;stroke-opacity:0.05;stroke-width:0.95px;stroke-linecap:butt;"/>
        </g>
        <g transform="matrix(0.671635,0,0,0.644953,864.26,-267.256)">
            <path d="M162.555,167.946L452.499,167.946" style="fill:none;stroke:white;stroke-opacity:0.05;stroke-width:0.95px;stroke-linecap:butt;"/>
        </g>
        <g transform="matrix(0.671635,0,0,0.644953,864.26,-277.022)">
            <path d="M162.555,167.946L452.499,167.946" style="fill:none;stroke:white;stroke-opacity:0.05;stroke-width:0.95px;stroke-linecap:butt;"/>
        </g>
        <g transform="matrix(0.671635,0,0,0.644953,864.26,-286.787)">
            <path d="M162.555,167.946L452.499,167.946" style="fill:none;stroke:white;stroke-opacity:0.05;stroke-width:0.95px;stroke-linecap:butt;"/>
        </g>
        <g transform="matrix(0.671635,0,0,0.644953,864.26,-296.553)">
            <path d="M162.555,167.946L452.499,167.946" style="fill:none;stroke:white;stroke-opacity:0.05;stroke-width:0.95px;stroke-linecap:butt;"/>
        </g>
        <g transform="matrix(0.671635,0,0,0.644953,864.26,-306.318)">
            <path d="M162.555,167.946L452.499,167.946" style="fill:none;stroke:white;stroke-opacity:0.05;stroke-width:0.95px;stroke-linecap:butt;"/>
        </g>
        <g transform="matrix(0.671635,0,0,0.644953,864.26,-228.194)">
            <path d="M162.555,167.946L452.499,167.946" style="fill:none;stroke:white;stroke-opacity:0.05;stroke-width:0.95px;stroke-linecap:butt;"/>
        </g>
        <g transform="matrix(0.671635,0,0,0.644953,864.26,-218.429)">
            <path d="M162.555,167.946L452.499,167.946" style="fill:none;stroke:white;stroke-opacity:0.05;stroke-width:0.95px;stroke-linecap:butt;"/>
        </g>
        <g transform="matrix(0.671635,0,0,0.644953,864.26,-208.664)">
            <path d="M162.555,167.946L452.499,167.946" style="fill:none;stroke:white;stroke-opacity:0.05;stroke-width:0.95px;stroke-linecap:butt;"/>
        </g>
        <g transform="matrix(0.671635,0,0,0.644953,864.26,-198.898)">
            <path d="M162.555,167.946L452.499,167.946" style="fill:none;stroke:white;stroke-opacity:0.05;stroke-width:0.95px;stroke-linecap:butt;"/>
        </g>
        <g transform="matrix(0.671635,0,0,0.644953,864.26,-189.133)">
            <path d="M162.555,167.946L452.499,167.946" style="fill:none;stroke:white;stroke-opacity:0.05;stroke-width:0.95px;stroke-linecap:butt;"/>
        </g>
        <g transform="matrix(0.671635,0,0,0.644953,864.26,-179.367)">
            <path d="M162.555,167.946L452.499,167.946" style="fill:none;stroke:white;stroke-opacity:0.05;stroke-width:0.95px;stroke-linecap:butt;"/>
        </g>
        <g transform="matrix(0.671635,0,0,0.644953,864.26,-169.602)">
            <path d="M162.555,167.946L452.499,167.946" style="fill:none;stroke:white;stroke-opacity:0.05;stroke-width:0.95px;stroke-linecap:butt;"/>
        </g>
        <g transform="matrix(0.671635,0,0,0.644953,864.26,-159.836)">
            <path d="M162.555,167.946L452.499,167.946" style="fill:none;stroke:white;stroke-opacity:0.05;stroke-width:0.95px;stroke-linecap:butt;"/>
        </g>
        <g transform="matrix(0.671635,0,0,0.644953,864.26,-213.546)">
            <path d="M162.555,167.946L452.499,167.946" style="fill:none;stroke:white;stroke-opacity:0.15;stroke-width:0.95px;stroke-linecap:butt;"/>
        </g>
        <g transform="matrix(0.671635,0,0,0.644953,864.26,-194.015)">
            <path d="M162.555,167.946L452.499,167.946" style="fill:none;stroke:white;stroke-opacity:0.15;stroke-width:0.95px;stroke-linecap:butt;"/>
        </g>
        <g transform="matrix(0.671635,0,0,0.644953,864.26,-203.781)">
            <path d="M162.555,167.946L452.499,167.946" style="fill:none;stroke:white;stroke-opacity:0.05;stroke-width:0.95px;stroke-linecap:butt;"/>
        </g>
        <g transform="matrix(0.671635,0,0,0.644953,864.26,-223.312)">
            <path d="M162.555,167.946L452.499,167.946" style="fill:none;stroke:white;stroke-opacity:0.05;stroke-width:0.95px;stroke-linecap:butt;"/>
        </g>
        <g transform="matrix(0.671635,0,0,0.644953,864.26,-242.843)">
            <path d="M162.555,167.946L452.499,167.946" style="fill:none;stroke:white;stroke-opacity:0.05;stroke-width:0.95px;stroke-linecap:butt;"/>
        </g>
        <g transform="matrix(0.671635,0,0,0.644953,864.26,-262.374)">
            <path d="M162.555,167.946L452.499,167.946" style="fill:none;stroke:white;stroke-opacity:0.05;stroke-width:0.95px;stroke-linecap:butt;"/>
        </g>
        <g transform="matrix(0.671635,0,0,0.644953,864.26,-281.904)">
            <path d="M162.555,167.946L452.499,167.946" style="fill:none;stroke:white;stroke-opacity:0.05;stroke-width:0.95px;stroke-linecap:butt;"/>
        </g>
        <g transform="matrix(0.671635,0,0,0.644953,864.26,-301.435)">
            <path d="M162.555,167.946L452.499,167.946" style="fill:none;stroke:white;stroke-opacity:0.05;stroke-width:0.95px;stroke-linecap:butt;"/>
        </g>
        <g transform="matrix(0.671635,0,0,0.644953,864.26,-164.719)">
            <path d="M162.555,167.946L452.499,167.946" style="fill:none;stroke:white;stroke-opacity:0.05;stroke-width:0.95px;stroke-linecap:butt;"/>
        </g>
        <g transform="matrix(0.671635,0,0,0.644953,864.26,-184.25)">
            <path d="M162.555,167.946L452.499,167.946" style="fill:none;stroke:white;stroke-opacity:0.05;stroke-width:0.95px;stroke-linecap:butt;"/>
        </g>
        <g transform="matrix(0.671635,0,0,0.644953,864.26,-174.485)">
            <path d="M162.555,167.946L452.499,167.946" style="fill:none;stroke:white;stroke-opacity:0.15;stroke-width:0.95px;stroke-linecap:butt;"/>
        </g>
        <g transform="matrix(0.671635,0,0,0.644953,864.26,-252.608)">
            <path d="M162.555,167.946L452.499,167.946" style="fill:none;stroke:white;stroke-opacity:0.15;stroke-width:0.95px;stroke-linecap:butt;"/>
        </g>
        <g transform="matrix(0.671635,0,0,0.644953,864.26,-272.139)">
            <path d="M162.555,167.946L452.499,167.946" style="fill:none;stroke:white;stroke-opacity:0.15;stroke-width:0.95px;stroke-linecap:butt;"/>
        </g>
        <g transform="matrix(0.671635,0,0,0.644953,864.26,-291.67)">
            <path d="M162.555,167.946L452.499,167.946" style="fill:none;stroke:white;stroke-opacity:0.15;stroke-width:0.95px;stroke-linecap:butt;"/>
        </g>
        <g transform="matrix(0.671635,0,0,0.644953,867.04,-293.867)">
            <path d="M294.25,141.591L294.25,383.101" style="fill:none;stroke:white;stroke-opacity:0.05;stroke-width:0.95px;stroke-linecap:butt;"/>
        </g>
        <g transform="matrix(0.671635,0,0,0.644953,879.278,-293.867)">
            <path d="M294.25,141.591L294.25,383.101" style="fill:none;stroke:white;stroke-opacity:0.05;stroke-width:0.95px;stroke-linecap:butt;"/>
        </g>
        <g transform="matrix(0.671635,0,0,0.644953,903.754,-293.867)">
            <path d="M294.25,141.591L294.25,383.101" style="fill:none;stroke:white;stroke-opacity:0.05;stroke-width:0.95px;stroke-linecap:butt;"/>
        </g>
        <g transform="matrix(0.671635,0,0,0.644953,928.229,-293.867)">
            <path d="M294.25,141.591L294.25,383.101" style="fill:none;stroke:white;stroke-opacity:0.05;stroke-width:0.95px;stroke-linecap:butt;"/>
        </g>
        <g transform="matrix(0.671635,0,0,0.644953,952.705,-293.867)">
            <path d="M294.25,141.591L294.25,383.101" style="fill:none;stroke:white;stroke-opacity:0.05;stroke-width:0.95px;stroke-linecap:butt;"/>
        </g>
        <g transform="matrix(0.671635,0,0,0.644953,854.802,-293.867)">
            <path d="M294.25,141.591L294.25,383.101" style="fill:none;stroke:white;stroke-opacity:0.05;stroke-width:0.95px;stroke-linecap:butt;"/>
        </g>
        <g transform="matrix(0.671635,0,0,0.644953,830.326,-293.867)">
            <path d="M294.25,141.591L294.25,383.101" style="fill:none;stroke:white;stroke-opacity:0.05;stroke-width:0.95px;stroke-linecap:butt;"/>
        </g>
        <g transform="matrix(0.671635,0,0,0.644953,805.85,-293.867)">
            <path d="M294.25,141.591L294.25,383.101" style="fill:none;stroke:white;stroke-opacity:0.05;stroke-width:0.95px;stroke-linecap:butt;"/>
        </g>
        <g transform="matrix(0.671635,0,0,0.644953,781.374,-293.867)">
            <path d="M294.25,141.591L294.25,383.101" style="fill:none;stroke:white;stroke-opacity:0.05;stroke-width:0.95px;stroke-linecap:butt;"/>
        </g>
        <g transform="matrix(0.671635,0,0,0.644953,891.516,-293.867)">
            <path d="M294.25,141.591L294.25,383.101" style="fill:none;stroke:white;stroke-opacity:0.05;stroke-width:0.95px;stroke-linecap:butt;"/>
        </g>
        <g transform="matrix(0.671635,0,0,0.644953,915.992,-293.867)">
            <path d="M294.25,141.591L294.25,383.101" style="fill:none;stroke:white;stroke-opacity:0.05;stroke-width:0.95px;stroke-linecap:butt;"/>
        </g>
        <g transform="matrix(0.671635,0,0,0.644953,940.467,-293.863)">
            <path d="M294.25,141.591L294.25,383.101" style="fill:none;stroke:white;stroke-opacity:0.05;stroke-width:0.95px;stroke-linecap:butt;"/>
        </g>
        <g transform="matrix(0.671635,0,0,0.644953,793.612,-293.863)">
            <path d="M294.25,141.591L294.25,383.101" style="fill:none;stroke:white;stroke-opacity:0.05;stroke-width:0.95px;stroke-linecap:butt;"/>
        </g>
        <g transform="matrix(0.671635,0,0,0.644953,842.564,-293.867)">
            <path d="M294.25,141.591L294.25,383.101" style="fill:none;stroke:white;stroke-opacity:0.05;stroke-width:0.95px;stroke-linecap:butt;"/>
        </g>
        <g transform="matrix(0.671635,0,0,0.644953,818.088,-293.867)">
            <path d="M294.25,141.591L294.25,383.101" style="fill:none;stroke:white;stroke-opacity:0.05;stroke-width:0.95px;stroke-linecap:butt;"/>
        </g>
        <g transform="matrix(0.671635,0,0,0.644953,873.159,-293.867)">
            <path d="M294.25,141.591L294.25,383.101" style="fill:none;stroke:white;stroke-opacity:0.15;stroke-width:0.95px;stroke-linecap:butt;"/>
        </g>
        <g transform="matrix(0.671635,0,0,0.644953,885.397,-293.867)">
            <path d="M294.25,141.591L294.25,383.101" style="fill:none;stroke:white;stroke-opacity:0.05;stroke-width:0.95px;stroke-linecap:butt;"/>
        </g>
        <g transform="matrix(0.671635,0,0,0.644953,909.873,-293.867)">
            <path d="M294.25,141.591L294.25,383.101" style="fill:none;stroke:white;stroke-opacity:0.05;stroke-width:0.95px;stroke-linecap:butt;"/>
        </g>
        <g transform="matrix(0.671635,0,0,0.644953,934.348,-293.867)">
            <path d="M294.25,141.591L294.25,383.101" style="fill:none;stroke:white;stroke-opacity:0.05;stroke-width:0.95px;stroke-linecap:butt;"/>
        </g>
        <g transform="matrix(0.671635,0,0,0.644953,958.824,-293.867)">
            <path d="M294.25,141.591L294.25,383.101" style="fill:none;stroke:white;stroke-opacity:0.05;stroke-width:0.95px;stroke-linecap:butt;"/>
        </g>
        <g transform="matrix(0.671635,0,0,0.644953,964.943,-293.867)">
            <path d="M294.25,141.591L294.25,383.101" style="fill:none;stroke:white;stroke-opacity:0.05;stroke-width:0.95px;stroke-linecap:butt;"/>
        </g>
        <g transform="matrix(0.671635,0,0,0.644953,860.921,-293.867)">
            <path d="M294.25,141.591L294.25,383.101" style="fill:none;stroke:white;stroke-opacity:0.05;stroke-width:0.95px;stroke-linecap:butt;"/>
        </g>
        <g transform="matrix(0.671635,0,0,0.644953,836.445,-293.867)">
            <path d="M294.25,141.591L294.25,383.101" style="fill:none;stroke:white;stroke-opacity:0.05;stroke-width:0.95px;stroke-linecap:butt;"/>
        </g>
        <g transform="matrix(0.671635,0,0,0.644953,811.969,-293.867)">
            <path d="M294.25,141.591L294.25,383.101" style="fill:none;stroke:white;stroke-opacity:0.05;stroke-width:0.95px;stroke-linecap:butt;"/>
        </g>
        <g transform="matrix(0.671635,0,0,0.644953,787.493,-293.867)">
            <path d="M294.25,141.591L294.25,383.101" style="fill:none;stroke:white;stroke-opacity:0.05;stroke-width:0.95px;stroke-linecap:butt;"/>
        </g>
        <g transform="matrix(0.671635,0,0,0.644953,897.635,-293.867)">
            <path d="M294.25,141.591L294.25,383.101" style="fill:none;stroke:white;stroke-opacity:0.15;stroke-width:0.95px;stroke-linecap:butt;"/>
        </g>
        <g transform="matrix(0.671635,0,0,0.644953,922.11,-293.867)">
            <path d="M294.25,141.591L294.25,383.101" style="fill:none;stroke:white;stroke-opacity:0.15;stroke-width:0.95px;stroke-linecap:butt;"/>
        </g>
        <g transform="matrix(0.671635,0,0,0.644953,946.586,-293.863)">
            <path d="M294.25,141.591L294.25,383.101" style="fill:none;stroke:white;stroke-opacity:0.15;stroke-width:0.95px;stroke-linecap:butt;"/>
        </g>
        <g transform="matrix(0.671635,0,0,0.644953,799.731,-293.863)">
            <path d="M294.25,141.591L294.25,383.101" style="fill:none;stroke:white;stroke-opacity:0.15;stroke-width:0.95px;stroke-linecap:butt;"/>
        </g>
        <g transform="matrix(0.671635,0,0,0.644953,848.683,-293.867)">
            <path d="M294.25,141.591L294.25,383.101" style="fill:none;stroke:white;stroke-opacity:0.15;stroke-width:0.95px;stroke-linecap:butt;"/>
        </g>
        <g transform="matrix(0.671635,0,0,0.644953,824.207,-293.867)">
            <path d="M294.25,141.591L294.25,383.101" style="fill:none;stroke:white;stroke-opacity:0.15;stroke-width:0.95px;stroke-linecap:butt;"/>
        </g>
        <g transform="matrix(1.67494,0,0,0.356398,951.034,-42.58)">
            <path d="M25.865,68.325C25.865,66.84 25.544,65.635 25.149,65.635L23.719,65.635C23.324,65.635 23.004,66.84 23.004,68.325L23.004,323.688C23.004,325.172 23.324,326.377 23.719,326.377L25.149,326.377C25.544,326.377 25.865,325.172 25.865,323.688L25.865,68.325Z" style="fill:rgb(128,187,254);fill-opacity:0.8;"/>
        </g>
        <g transform="matrix(1.67494,0,0,0.356398,1108.94,-42.4132)">
            <path d="M25.865,68.325C25.865,66.84 25.544,65.635 25.149,65.635L23.719,65.635C23.324,65.635 23.004,66.84 23.004,68.325L23.004,323.688C23.004,325.172 23.324,326.377 23.719,326.377L25.149,326.377C25.544,326.377 25.865,325.172 25.865,323.688L25.865,68.325Z" style="fill:rgb(128,187,254);fill-opacity:0.9;"/>
        </g>
        <g transform="matrix(1.67494,0,0,0.356398,987.489,-42.4132)">
            <path d="M25.865,68.325C25.865,66.84 25.544,65.635 25.149,65.635L23.719,65.635C23.324,65.635 23.004,66.84 23.004,68.325L23.004,323.688C23.004,325.172 23.324,326.377 23.719,326.377L25.149,326.377C25.544,326.377 25.865,325.172 25.865,323.688L25.865,68.325Z" style="fill:rgb(128,187,254);fill-opacity:0.8;"/>
        </g>
        <g transform="matrix(1.67494,0,0,0.356398,1072.49,-42.4132)">
            <path d="M25.865,68.325C25.865,66.84 25.544,65.635 25.149,65.635L23.719,65.635C23.324,65.635 23.004,66.84 23.004,68.325L23.004,323.688C23.004,325.172 23.324,326.377 23.719,326.377L25.149,326.377C25.544,326.377 25.865,325.172 25.865,323.688L25.865,68.325Z" style="fill:rgb(128,187,254);fill-opacity:0.9;"/>
        </g>
        <g transform="matrix(1.198,0,0,0.958552,1021.17,-40.142)">
            <g transform="matrix(6.4,0,0,6.4,31.7921,51.8924)">
                <path d="M0.477,0L0.286,-0.295C0.266,-0.296 0.24,-0.297 0.205,-0.299L0.205,0L0.073,0L0.073,-0.715C0.08,-0.715 0.108,-0.717 0.156,-0.719C0.204,-0.721 0.242,-0.723 0.271,-0.723C0.453,-0.723 0.544,-0.652 0.544,-0.512C0.544,-0.469 0.531,-0.431 0.506,-0.396C0.481,-0.361 0.45,-0.337 0.412,-0.322L0.623,0L0.477,0ZM0.205,-0.605L0.205,-0.406C0.229,-0.404 0.246,-0.403 0.259,-0.403C0.312,-0.403 0.351,-0.411 0.375,-0.426C0.4,-0.441 0.412,-0.47 0.412,-0.513C0.412,-0.548 0.399,-0.573 0.373,-0.587C0.346,-0.601 0.305,-0.608 0.248,-0.608C0.234,-0.608 0.22,-0.607 0.205,-0.605Z" style="fill-rule:nonzero;"/>
            </g>
            <g transform="matrix(6.4,0,0,6.4,35.8295,51.8924)">
                <path d="M0.2,-0.603L0.2,-0.435L0.437,-0.435L0.437,-0.327L0.2,-0.327L0.2,-0.113L0.524,-0.113L0.524,0L0.073,0L0.073,-0.715L0.53,-0.715L0.53,-0.603L0.2,-0.603Z" style="fill-rule:nonzero;"/>
            </g>
            <g transform="matrix(6.4,0,0,6.4,39.5981,51.8924)">
                <path d="M0.039,-0.04L0.086,-0.153C0.136,-0.118 0.185,-0.101 0.234,-0.101C0.308,-0.101 0.346,-0.127 0.346,-0.179C0.346,-0.203 0.337,-0.226 0.319,-0.249C0.302,-0.271 0.266,-0.295 0.211,-0.323C0.156,-0.351 0.119,-0.373 0.1,-0.391C0.081,-0.409 0.066,-0.43 0.056,-0.454C0.046,-0.479 0.041,-0.506 0.041,-0.535C0.041,-0.59 0.061,-0.636 0.101,-0.673C0.142,-0.709 0.194,-0.728 0.257,-0.728C0.34,-0.728 0.401,-0.712 0.439,-0.681L0.401,-0.572C0.356,-0.604 0.309,-0.62 0.26,-0.62C0.23,-0.62 0.208,-0.612 0.192,-0.596C0.176,-0.581 0.167,-0.561 0.167,-0.536C0.167,-0.495 0.213,-0.452 0.304,-0.408C0.352,-0.385 0.386,-0.363 0.407,-0.344C0.428,-0.324 0.444,-0.301 0.456,-0.275C0.467,-0.248 0.472,-0.219 0.472,-0.187C0.472,-0.129 0.449,-0.081 0.404,-0.044C0.358,-0.007 0.297,0.012 0.22,0.012C0.153,0.012 0.093,-0.005 0.039,-0.04Z" style="fill-rule:nonzero;"/>
            </g>
            <g transform="matrix(6.4,0,0,6.4,42.998,51.8924)">
                <path d="M0.2,-0.603L0.2,-0.435L0.437,-0.435L0.437,-0.327L0.2,-0.327L0.2,-0.113L0.524,-0.113L0.524,0L0.073,0L0.073,-0.715L0.53,-0.715L0.53,-0.603L0.2,-0.603Z" style="fill-rule:nonzero;"/>
            </g>
            <g transform="matrix(6.4,0,0,6.4,46.7666,51.8924)">
                <path d="M0.364,-0.603L0.364,0L0.237,0L0.237,-0.603L0.01,-0.603L0.01,-0.715L0.602,-0.715L0.602,-0.603L0.364,-0.603Z" style="fill-rule:nonzero;"/>
            </g>
        </g>
        <g transform="matrix(1.198,0,0,0.958552,1021.66,-9.69504)">
            <g transform="matrix(6.4,0,0,6.4,32.828,51.8924)">
                <path d="M0.364,-0.603L0.364,0L0.237,0L0.237,-0.603L0.01,-0.603L0.01,-0.715L0.602,-0.715L0.602,-0.603L0.364,-0.603Z" style="fill-rule:nonzero;"/>
            </g>
            <g transform="matrix(6.4,0,0,6.4,36.8716,51.8924)">
                <path d="M0.073,-0.715L0.2,-0.715L0.2,-0.23C0.2,-0.192 0.212,-0.161 0.235,-0.137C0.259,-0.113 0.291,-0.101 0.332,-0.101C0.378,-0.101 0.414,-0.112 0.439,-0.136C0.465,-0.16 0.478,-0.192 0.478,-0.233L0.478,-0.715L0.604,-0.715L0.604,-0.223C0.604,-0.15 0.58,-0.092 0.531,-0.05C0.481,-0.009 0.415,0.012 0.333,0.012C0.25,0.012 0.186,-0.008 0.141,-0.049C0.096,-0.09 0.073,-0.148 0.073,-0.224L0.073,-0.715Z" style="fill-rule:nonzero;"/>
            </g>
            <g transform="matrix(6.4,0,0,6.4,41.3371,51.8924)">
                <path d="M0.477,0L0.286,-0.295C0.266,-0.296 0.24,-0.297 0.205,-0.299L0.205,0L0.073,0L0.073,-0.715C0.08,-0.715 0.108,-0.717 0.156,-0.719C0.204,-0.721 0.242,-0.723 0.271,-0.723C0.453,-0.723 0.544,-0.652 0.544,-0.512C0.544,-0.469 0.531,-0.431 0.506,-0.396C0.481,-0.361 0.45,-0.337 0.412,-0.322L0.623,0L0.477,0ZM0.205,-0.605L0.205,-0.406C0.229,-0.404 0.246,-0.403 0.259,-0.403C0.312,-0.403 0.351,-0.411 0.375,-0.426C0.4,-0.441 0.412,-0.47 0.412,-0.513C0.412,-0.548 0.399,-0.573 0.373,-0.587C0.346,-0.601 0.305,-0.608 0.248,-0.608C0.234,-0.608 0.22,-0.607 0.205,-0.605Z" style="fill-rule:nonzero;"/>
            </g>
            <g transform="matrix(6.4,0,0,6.4,45.3745,51.8924)">
                <path d="M0.542,0.01L0.195,-0.443L0.195,0L0.073,0L0.073,-0.715L0.134,-0.715L0.472,-0.284L0.472,-0.715L0.594,-0.715L0.594,0.01L0.542,0.01Z" style="fill-rule:nonzero;"/>
            </g>
        </g>
        <g transform="matrix(1.198,0,0,0.958552,1021.29,10.2925)">
            <g transform="matrix(6.4,0,0,6.4,32.8717,51.8924)">
                <path d="M0.477,0L0.286,-0.295C0.266,-0.296 0.24,-0.297 0.205,-0.299L0.205,0L0.073,0L0.073,-0.715C0.08,-0.715 0.108,-0.717 0.156,-0.719C0.204,-0.721 0.242,-0.723 0.271,-0.723C0.453,-0.723 0.544,-0.652 0.544,-0.512C0.544,-0.469 0.531,-0.431 0.506,-0.396C0.481,-0.361 0.45,-0.337 0.412,-0.322L0.623,0L0.477,0ZM0.205,-0.605L0.205,-0.406C0.229,-0.404 0.246,-0.403 0.259,-0.403C0.312,-0.403 0.351,-0.411 0.375,-0.426C0.4,-0.441 0.412,-0.47 0.412,-0.513C0.412,-0.548 0.399,-0.573 0.373,-0.587C0.346,-0.601 0.305,-0.608 0.248,-0.608C0.234,-0.608 0.22,-0.607 0.205,-0.605Z" style="fill-rule:nonzero;"/>
            </g>
            <g transform="matrix(6.4,0,0,6.4,36.9091,51.8924)">
                <path d="M0.491,0L0.438,-0.145L0.193,-0.145L0.144,0L0.002,0L0.288,-0.725L0.343,-0.725L0.631,0L0.491,0ZM0.315,-0.506L0.229,-0.242L0.401,-0.242L0.315,-0.506Z" style="fill-rule:nonzero;"/>
            </g>
            <g transform="matrix(6.4,0,0,6.4,41.0902,51.8924)">
                <path d="M0.542,0.01L0.195,-0.443L0.195,0L0.073,0L0.073,-0.715L0.134,-0.715L0.472,-0.284L0.472,-0.715L0.594,-0.715L0.594,0.01L0.542,0.01Z" style="fill-rule:nonzero;"/>
            </g>
            <g transform="matrix(6.4,0,0,6.4,45.4901,51.8924)">
                <path d="M0.232,0L0.073,0L0.073,-0.715C0.174,-0.718 0.238,-0.72 0.264,-0.72C0.368,-0.72 0.451,-0.69 0.512,-0.629C0.573,-0.568 0.604,-0.487 0.604,-0.386C0.604,-0.129 0.48,0 0.232,0ZM0.2,-0.604L0.2,-0.116C0.221,-0.114 0.243,-0.113 0.267,-0.113C0.331,-0.113 0.381,-0.136 0.417,-0.183C0.454,-0.229 0.472,-0.294 0.472,-0.378C0.472,-0.531 0.401,-0.607 0.258,-0.607C0.245,-0.607 0.225,-0.606 0.2,-0.604Z" style="fill-rule:nonzero;"/>
            </g>
        </g>
        <g transform="matrix(1.198,0,0,0.958552,1021.22,-66.6116)">
            <g transform="matrix(6.4,0,0,6.4,35.4076,51.8924)">
                <path d="M0.563,-0.677L0.511,-0.572C0.483,-0.601 0.437,-0.615 0.375,-0.615C0.315,-0.615 0.266,-0.59 0.228,-0.54C0.19,-0.49 0.171,-0.427 0.171,-0.35C0.171,-0.274 0.189,-0.213 0.224,-0.168C0.259,-0.123 0.306,-0.101 0.365,-0.101C0.433,-0.101 0.485,-0.125 0.523,-0.173L0.583,-0.07C0.531,-0.015 0.455,0.012 0.355,0.012C0.255,0.012 0.177,-0.021 0.122,-0.086C0.067,-0.152 0.039,-0.242 0.039,-0.355C0.039,-0.461 0.07,-0.55 0.131,-0.621C0.192,-0.692 0.271,-0.728 0.367,-0.728C0.449,-0.728 0.514,-0.711 0.563,-0.677Z" style="fill-rule:nonzero;"/>
            </g>
            <g transform="matrix(6.4,0,0,6.4,39.4512,51.8924)">
                <path d="M0.073,0L0.073,-0.715L0.2,-0.715L0.2,-0.113L0.523,-0.113L0.523,0L0.073,0Z" style="fill-rule:nonzero;"/>
            </g>
            <g transform="matrix(6.4,0,0,6.4,43.1167,51.8924)">
                <path d="M0.479,0L0.28,-0.305L0.2,-0.196L0.2,0L0.073,0L0.073,-0.715L0.2,-0.715L0.2,-0.373L0.443,-0.715L0.588,-0.715L0.364,-0.403L0.631,0L0.479,0Z" style="fill-rule:nonzero;"/>
            </g>
        </g>
        <g transform="matrix(1.11971,0,0,1.48453,968.176,-350.976)">
            <ellipse cx="21.24" cy="213.374" rx="2.14" ry="1.291" style="fill:rgb(229,242,13);stroke:white;stroke-opacity:0.1;stroke-width:0.46px;stroke-linecap:butt;"/>
        </g>
        <g transform="matrix(1.11971,0,0,1.48453,1004.75,-350.976)">
            <ellipse cx="21.24" cy="213.374" rx="2.14" ry="1.291" style="fill:rgb(242,13,13);stroke:white;stroke-opacity:0.1;stroke-width:0.46px;stroke-linecap:butt;"/>
        </g>
        <g transform="matrix(1.11971,0,0,1.48453,1089.86,-350.976)">
            <ellipse cx="21.24" cy="213.374" rx="2.14" ry="1.291" style="fill:rgb(0,216,227);stroke:white;stroke-opacity:0.1;stroke-width:0.46px;stroke-linecap:butt;"/>
        </g>
        <g transform="matrix(1.11971,0,0,1.48453,1125.9,-350.976)">
            <ellipse cx="21.24" cy="213.374" rx="2.14" ry="1.291" style="fill:rgb(66,13,242);stroke:white;stroke-opacity:0.1;stroke-width:0.46px;stroke-linecap:butt;"/>
        </g>
    </g>
</svg>
