<?xml version="1.0" encoding="UTF-8" standalone="no"?>
<!DOCTYPE svg PUBLIC "-//W3C//DTD SVG 1.1//EN" "http://www.w3.org/Graphics/SVG/1.1/DTD/svg11.dtd">
<svg width="100%" height="100%" viewBox="0 0 105 380" version="1.1" xmlns="http://www.w3.org/2000/svg" xmlns:xlink="http://www.w3.org/1999/xlink" xml:space="preserve" xmlns:serif="http://www.serif.com/" style="fill-rule:evenodd;clip-rule:evenodd;stroke-linecap:round;stroke-linejoin:round;stroke-miterlimit:1.5;">
    <g id="panel" transform="matrix(0.834722,0,0,1.04324,-796.337,250.623)">
        <g transform="matrix(2.09651,0,0,0.958552,954.015,-240.235)">
            <rect x="0" y="0" width="60" height="380" style="fill:rgb(128,187,254);"/>
        </g>
        <g transform="matrix(0.743873,0,0,1.76292,976.356,-852.772)">
            <rect x="-30.034" y="347.456" width="169.102" height="16.91" style="fill:rgb(4,4,4);fill-opacity:0.3;"/>
        </g>
        <g transform="matrix(0.743873,0,0,1.81961,976.356,-538.829)">
            <rect x="-30.034" y="347.456" width="169.102" height="16.91" style="fill:rgb(4,4,4);fill-opacity:0.3;"/>
        </g>
        <g transform="matrix(5.61643,0,0,25.5659,744.03,-292.473)">
            <rect x="37.388" y="2.043" width="22.397" height="14.247" style="fill:none;stroke:black;stroke-opacity:0.6;stroke-width:0.03px;"/>
        </g>
        <g transform="matrix(0.840359,0,0,0.840359,184.876,16.2108)">
            <g transform="matrix(1.198,0,0,0.958552,893.633,-224.914)">
                <g transform="matrix(9,0,0,9,64.0056,347.267)">
                    <path d="M0.919,-0L0.762,-0L0.762,-0.308C0.762,-0.391 0.732,-0.432 0.671,-0.432C0.643,-0.432 0.62,-0.42 0.602,-0.395C0.583,-0.369 0.574,-0.339 0.574,-0.303L0.574,-0L0.417,-0L0.417,-0.312C0.417,-0.392 0.387,-0.432 0.327,-0.432C0.298,-0.432 0.274,-0.42 0.256,-0.396C0.238,-0.372 0.229,-0.341 0.229,-0.301L0.229,-0L0.072,-0L0.072,-0.54L0.229,-0.54L0.229,-0.456L0.231,-0.456C0.25,-0.486 0.275,-0.51 0.307,-0.528C0.338,-0.545 0.371,-0.553 0.405,-0.553C0.481,-0.553 0.533,-0.519 0.561,-0.451C0.603,-0.519 0.663,-0.553 0.743,-0.553C0.86,-0.553 0.919,-0.481 0.919,-0.335L0.919,-0Z" style="fill:rgb(10,1,1);fill-rule:nonzero;"/>
                </g>
                <g transform="matrix(9,0,0,9,72.978,347.267)">
                    <path d="M0.551,-0.226L0.196,-0.226C0.201,-0.142 0.252,-0.1 0.347,-0.1C0.407,-0.1 0.459,-0.115 0.505,-0.144L0.505,-0.028C0.456,-0.001 0.391,0.013 0.312,0.013C0.226,0.013 0.159,-0.011 0.111,-0.06C0.063,-0.108 0.04,-0.176 0.04,-0.262C0.04,-0.348 0.065,-0.419 0.116,-0.472C0.167,-0.526 0.23,-0.553 0.307,-0.553C0.384,-0.553 0.443,-0.53 0.487,-0.484C0.53,-0.437 0.551,-0.374 0.551,-0.292L0.551,-0.226ZM0.404,-0.324C0.404,-0.405 0.372,-0.445 0.306,-0.445C0.279,-0.445 0.255,-0.434 0.234,-0.412C0.214,-0.39 0.201,-0.361 0.195,-0.324L0.404,-0.324Z" style="fill:rgb(10,1,1);fill-rule:nonzero;"/>
                </g>
                <g transform="matrix(9,0,0,9,78.3513,347.267)">
                    <rect x="0.069" y="-0.799" width="0.157" height="0.799" style="fill:rgb(10,1,1);fill-rule:nonzero;"/>
                </g>
                <g transform="matrix(9,0,0,9,81.1494,347.267)">
                    <path d="M0.593,-0L0.436,-0L0.436,-0.076L0.433,-0.076C0.395,-0.017 0.339,0.013 0.264,0.013C0.195,0.013 0.141,-0.011 0.1,-0.06C0.06,-0.108 0.04,-0.174 0.04,-0.258C0.04,-0.346 0.062,-0.418 0.108,-0.472C0.153,-0.526 0.212,-0.553 0.286,-0.553C0.356,-0.553 0.405,-0.528 0.433,-0.477L0.436,-0.477L0.438,-0.707L0.593,-0.658L0.593,-0ZM0.438,-0.306C0.438,-0.342 0.427,-0.372 0.405,-0.396C0.383,-0.42 0.356,-0.432 0.323,-0.432C0.284,-0.432 0.254,-0.417 0.232,-0.386C0.21,-0.356 0.199,-0.315 0.199,-0.263C0.199,-0.213 0.21,-0.175 0.231,-0.148C0.252,-0.121 0.281,-0.108 0.318,-0.108C0.353,-0.108 0.382,-0.122 0.404,-0.15C0.427,-0.179 0.438,-0.215 0.438,-0.261L0.438,-0.306Z" style="fill:rgb(10,1,1);fill-rule:nonzero;"/>
                </g>
                <g transform="matrix(9,0,0,9,87.2654,347.267)">
                    <path d="M0.551,-0.226L0.196,-0.226C0.201,-0.142 0.252,-0.1 0.347,-0.1C0.407,-0.1 0.459,-0.115 0.505,-0.144L0.505,-0.028C0.456,-0.001 0.391,0.013 0.312,0.013C0.226,0.013 0.159,-0.011 0.111,-0.06C0.063,-0.108 0.04,-0.176 0.04,-0.262C0.04,-0.348 0.065,-0.419 0.116,-0.472C0.167,-0.526 0.23,-0.553 0.307,-0.553C0.384,-0.553 0.443,-0.53 0.487,-0.484C0.53,-0.437 0.551,-0.374 0.551,-0.292L0.551,-0.226ZM0.404,-0.324C0.404,-0.405 0.372,-0.445 0.306,-0.445C0.279,-0.445 0.255,-0.434 0.234,-0.412C0.214,-0.39 0.201,-0.361 0.195,-0.324L0.404,-0.324Z" style="fill:rgb(10,1,1);fill-rule:nonzero;"/>
                </g>
                <g transform="matrix(9,0,0,9,92.6386,347.267)">
                    <path d="M0.416,-0.397C0.397,-0.408 0.374,-0.414 0.346,-0.414C0.31,-0.414 0.282,-0.4 0.261,-0.373C0.24,-0.345 0.229,-0.308 0.229,-0.26L0.229,-0L0.072,-0L0.072,-0.54L0.229,-0.54L0.229,-0.438L0.231,-0.438C0.257,-0.512 0.305,-0.549 0.374,-0.549C0.392,-0.549 0.406,-0.547 0.416,-0.543L0.416,-0.397Z" style="fill:rgb(10,1,1);fill-rule:nonzero;"/>
                </g>
            </g>
            <g transform="matrix(1.198,0,0,0.958552,893.495,-231.786)">
                <g transform="matrix(9,0,0,9,68.6657,347.267)">
                    <path d="M0.058,-0.145C0.112,-0.112 0.165,-0.096 0.216,-0.096C0.281,-0.096 0.314,-0.113 0.314,-0.148C0.314,-0.173 0.287,-0.193 0.233,-0.21C0.166,-0.231 0.12,-0.254 0.095,-0.28C0.07,-0.305 0.058,-0.34 0.058,-0.383C0.058,-0.436 0.079,-0.478 0.122,-0.508C0.165,-0.538 0.221,-0.553 0.291,-0.553C0.34,-0.553 0.388,-0.546 0.434,-0.531L0.434,-0.407C0.392,-0.432 0.346,-0.444 0.295,-0.444C0.27,-0.444 0.25,-0.44 0.235,-0.431C0.22,-0.422 0.212,-0.41 0.212,-0.396C0.212,-0.371 0.235,-0.351 0.28,-0.335C0.329,-0.319 0.366,-0.304 0.39,-0.291C0.415,-0.278 0.434,-0.26 0.447,-0.238C0.459,-0.216 0.466,-0.191 0.466,-0.163C0.466,-0.107 0.444,-0.064 0.399,-0.033C0.354,-0.002 0.295,0.013 0.22,0.013C0.162,0.013 0.107,0.004 0.058,-0.015L0.058,-0.145Z" style="fill:rgb(10,1,1);fill-rule:nonzero;"/>
                </g>
                <g transform="matrix(9,0,0,9,73.2436,347.267)">
                    <path d="M0.39,-0.006C0.366,0.007 0.33,0.013 0.282,0.013C0.167,0.013 0.11,-0.047 0.11,-0.167L0.11,-0.422L0.021,-0.422L0.021,-0.54L0.11,-0.54L0.11,-0.659L0.267,-0.704L0.267,-0.54L0.39,-0.54L0.39,-0.422L0.267,-0.422L0.267,-0.195C0.267,-0.137 0.289,-0.108 0.335,-0.108C0.353,-0.108 0.371,-0.114 0.39,-0.124L0.39,-0.006Z" style="fill:rgb(10,1,1);fill-rule:nonzero;"/>
                </g>
                <g transform="matrix(6.6,0,0,6.6,77.1051,347.267)">
                    <path d="M0.106,0.032L0.043,-0.021L0.122,-0.115C0.067,-0.183 0.04,-0.268 0.04,-0.368C0.04,-0.487 0.075,-0.584 0.144,-0.658C0.213,-0.732 0.305,-0.769 0.418,-0.769C0.5,-0.769 0.571,-0.748 0.63,-0.706L0.698,-0.785L0.761,-0.733L0.689,-0.65C0.748,-0.581 0.778,-0.493 0.778,-0.384C0.778,-0.266 0.743,-0.17 0.674,-0.097C0.605,-0.023 0.516,0.013 0.406,0.013C0.32,0.013 0.246,-0.011 0.182,-0.059L0.106,0.032ZM0.54,-0.6C0.506,-0.628 0.463,-0.642 0.413,-0.642C0.349,-0.642 0.297,-0.617 0.258,-0.569C0.218,-0.52 0.199,-0.455 0.199,-0.375C0.199,-0.319 0.208,-0.273 0.227,-0.234L0.54,-0.6ZM0.275,-0.165C0.311,-0.131 0.356,-0.114 0.409,-0.114C0.473,-0.114 0.524,-0.137 0.563,-0.184C0.601,-0.231 0.62,-0.294 0.62,-0.374C0.62,-0.435 0.61,-0.488 0.588,-0.533L0.275,-0.165Z" style="fill-rule:nonzero;"/>
                </g>
                <g transform="matrix(9,0,0,9,82.6053,347.267)">
                    <path d="M0.551,-0.226L0.196,-0.226C0.201,-0.142 0.252,-0.1 0.347,-0.1C0.407,-0.1 0.459,-0.115 0.505,-0.144L0.505,-0.028C0.456,-0.001 0.391,0.013 0.312,0.013C0.226,0.013 0.159,-0.011 0.111,-0.06C0.063,-0.108 0.04,-0.176 0.04,-0.262C0.04,-0.348 0.065,-0.419 0.116,-0.472C0.167,-0.526 0.23,-0.553 0.307,-0.553C0.384,-0.553 0.443,-0.53 0.487,-0.484C0.53,-0.437 0.551,-0.374 0.551,-0.292L0.551,-0.226ZM0.404,-0.324C0.404,-0.405 0.372,-0.445 0.306,-0.445C0.279,-0.445 0.255,-0.434 0.234,-0.412C0.214,-0.39 0.201,-0.361 0.195,-0.324L0.404,-0.324Z" style="fill:rgb(10,1,1);fill-rule:nonzero;"/>
                </g>
                <g transform="matrix(9,0,0,9,87.9786,347.267)">
                    <path d="M0.416,-0.397C0.397,-0.408 0.374,-0.414 0.346,-0.414C0.31,-0.414 0.282,-0.4 0.261,-0.373C0.24,-0.345 0.229,-0.308 0.229,-0.26L0.229,-0L0.072,-0L0.072,-0.54L0.229,-0.54L0.229,-0.438L0.231,-0.438C0.257,-0.512 0.305,-0.549 0.374,-0.549C0.392,-0.549 0.406,-0.547 0.416,-0.543L0.416,-0.397Z" style="fill:rgb(10,1,1);fill-rule:nonzero;"/>
                </g>
            </g>
        </g>
        <g transform="matrix(0.196966,0,0,0.157597,929.552,-106.343)">
            <path d="M340.41,225.225C336.761,225.225 333.112,223.832 330.328,221.049L289.678,180.399C287.005,177.724 285.502,174.098 285.502,170.317C285.502,166.536 287.005,162.91 289.678,160.235L417.439,32.472C423.007,26.905 432.036,26.905 437.605,32.472C443.173,38.04 443.173,47.069 437.605,52.638L319.925,170.316L340.41,190.801L374.411,156.8C379.979,151.233 389.006,151.235 394.576,156.8C400.144,162.368 400.144,171.397 394.576,176.966L350.493,221.048C347.709,223.831 344.06,225.225 340.41,225.225Z" style="fill-opacity:0.15;fill-rule:nonzero;"/>
            <path d="M349.852,48.611L497.713,14.275L463.376,162.136L349.852,48.611Z" style="fill:rgb(207,240,158);fill-opacity:0.15;fill-rule:nonzero;"/>
            <path d="M463.378,176.394C459.648,176.394 456.006,174.93 453.294,172.218L339.769,58.693C336.107,55.03 334.719,49.669 336.143,44.69C337.567,39.709 341.58,35.894 346.626,34.722L494.487,0.384C499.282,-0.731 504.313,0.709 507.795,4.191C511.276,7.672 512.716,12.703 511.601,17.499L477.264,165.36C476.092,170.406 472.276,174.42 467.296,175.844C466.004,176.215 464.685,176.394 463.378,176.394ZM378.095,56.69L455.297,133.892L478.647,33.34L378.095,56.69Z" style="fill-opacity:0.15;fill-rule:nonzero;"/>
            <path d="M84.45,483.706C80.801,483.706 77.151,482.313 74.368,479.53C68.8,473.962 68.8,464.933 74.368,459.364L192.048,341.686L171.561,321.2L137.56,355.201C131.993,360.77 122.965,360.768 117.395,355.201C111.827,349.633 111.827,340.604 117.395,335.035L161.479,290.953C167.046,285.386 176.074,285.386 181.644,290.953L222.294,331.603C224.967,334.278 226.47,337.904 226.47,341.685C226.47,345.466 224.967,349.092 222.294,351.767L94.532,479.529C91.749,482.314 88.098,483.706 84.45,483.706Z" style="fill-opacity:0.15;fill-rule:nonzero;"/>
            <path d="M162.119,463.391L14.258,497.728L48.595,349.867L162.119,463.391Z" style="fill:rgb(207,240,158);fill-opacity:0.15;fill-rule:nonzero;"/>
            <path d="M14.258,511.986C10.519,511.986 6.881,510.514 4.176,507.81C0.695,504.329 -0.745,499.298 0.37,494.502L34.706,346.641C35.878,341.595 39.694,337.581 44.674,336.157C49.656,334.734 55.016,336.123 58.677,339.783L172.202,453.308C175.864,456.971 177.252,462.332 175.828,467.311C174.404,472.292 170.391,476.107 165.345,477.279L17.484,511.617C16.414,511.865 15.332,511.986 14.258,511.986ZM56.674,378.112L33.324,478.664L133.876,455.314L56.674,378.112Z" style="fill-opacity:0.15;fill-rule:nonzero;"/>
            <path d="M469.432,441.796C465.782,441.796 462.134,440.403 459.35,437.62L341.671,319.942L321.186,340.426L355.186,374.426C360.754,379.994 360.754,389.023 355.186,394.592C349.618,400.159 340.589,400.159 335.02,394.592L290.938,350.51C288.265,347.835 286.762,344.209 286.762,340.428C286.762,336.647 288.265,333.021 290.938,330.346L331.588,289.696C337.156,284.129 346.185,284.131 351.753,289.696L479.513,417.458C485.081,423.026 485.081,432.055 479.513,437.624C476.73,440.403 473.081,441.796 469.432,441.796Z" style="fill-opacity:0.15;fill-rule:nonzero;"/>
            <path d="M463.376,349.867L497.713,497.728L349.852,463.391L463.376,349.867Z" style="fill:rgb(207,240,158);fill-opacity:0.15;fill-rule:nonzero;"/>
            <path d="M497.713,511.986C496.639,511.986 495.557,511.865 494.488,511.617L346.627,477.281C341.581,476.109 337.568,472.293 336.144,467.313C334.72,462.334 336.108,456.973 339.77,453.31L453.295,339.785C456.958,336.125 462.321,334.737 467.298,336.159C472.279,337.583 476.094,341.596 477.266,346.643L511.39,493.587C511.788,494.899 512.002,496.289 512.002,497.729C512.002,505.561 505.685,511.919 497.867,511.988C497.815,511.986 497.762,511.986 497.713,511.986ZM378.095,455.312L478.647,478.662L455.297,378.11L378.095,455.312Z" style="fill-opacity:0.15;fill-rule:nonzero;"/>
            <path d="M170.299,226.485C166.649,226.485 163.001,225.093 160.217,222.309L32.457,94.55C26.889,88.982 26.889,79.953 32.457,74.384C38.025,68.817 47.054,68.817 52.623,74.384L170.301,192.062L190.786,171.577L156.786,137.577C151.218,132.009 151.218,122.98 156.786,117.411C162.354,111.844 171.383,111.844 176.952,117.411L221.034,161.493C223.707,164.168 225.21,167.794 225.21,171.575C225.21,175.356 223.707,178.982 221.034,181.657L180.384,222.307C177.598,225.092 173.948,226.485 170.299,226.485Z" style="fill-opacity:0.15;fill-rule:nonzero;"/>
            <path d="M48.595,162.136L14.258,14.275L162.119,48.611L48.595,162.136Z" style="fill:rgb(207,240,158);fill-opacity:0.15;fill-rule:nonzero;"/>
            <path d="M48.593,176.394C47.285,176.394 45.967,176.214 44.673,175.844C39.692,174.42 35.877,170.407 34.705,165.36L0.37,17.499C-0.744,12.704 0.695,7.672 4.176,4.191C7.658,0.71 12.69,-0.727 17.484,0.384L165.345,34.72C170.391,35.892 174.404,39.708 175.828,44.688C177.252,49.667 175.864,55.028 172.202,58.691L58.677,172.217C55.966,174.93 52.323,176.394 48.593,176.394ZM33.324,33.34L56.674,133.892L133.876,56.69L33.324,33.34Z" style="fill-opacity:0.15;fill-rule:nonzero;"/>
        </g>
        <g transform="matrix(1.198,0,0,0.958552,980.053,-221.104)">
            <g transform="matrix(13,0,0,13,18.1109,0)">
                <path d="M0.371,-0.293L0.371,-0L0.244,-0L0.244,-0.293L0.002,-0.715L0.137,-0.715L0.307,-0.41L0.477,-0.715L0.611,-0.715L0.371,-0.293Z" style="fill-rule:nonzero;"/>
            </g>
            <g transform="matrix(13,0,0,13,24.6619,0)">
                <path d="M0.491,-0L0.438,-0.145L0.193,-0.145L0.144,-0L0.002,-0L0.288,-0.725L0.343,-0.725L0.631,-0L0.491,-0ZM0.315,-0.506L0.229,-0.242L0.401,-0.242L0.315,-0.506Z" style="fill-rule:nonzero;"/>
            </g>
            <g transform="matrix(13,0,0,13,31.9302,0)">
                <path d="M0.65,0.01L0.598,0.01L0.441,-0.441L0.29,0.01L0.237,0.01L0.002,-0.715L0.135,-0.715L0.269,-0.284L0.414,-0.715L0.47,-0.715L0.615,-0.284L0.749,-0.715L0.881,-0.715L0.65,0.01Z" style="fill-rule:nonzero;"/>
            </g>
        </g>
        <g transform="matrix(1.198,0,0,0.958552,931.732,-264.571)">
            <g transform="matrix(5.6,0,0,5.6,47.12,53.3564)">
                <path d="M0.65,0.01L0.598,0.01L0.441,-0.441L0.29,0.01L0.237,0.01L0.002,-0.715L0.135,-0.715L0.269,-0.284L0.414,-0.715L0.47,-0.715L0.615,-0.284L0.749,-0.715L0.881,-0.715L0.65,0.01Z" style="fill:rgb(5,5,5);fill-opacity:0.8;fill-rule:nonzero;"/>
            </g>
            <g transform="matrix(5.6,0,0,5.6,51.8777,53.3564)">
                <path d="M0.491,-0L0.438,-0.145L0.193,-0.145L0.144,-0L0.002,-0L0.288,-0.725L0.343,-0.725L0.631,-0L0.491,-0ZM0.315,-0.506L0.229,-0.242L0.401,-0.242L0.315,-0.506Z" style="fill:rgb(5,5,5);fill-opacity:0.8;fill-rule:nonzero;"/>
            </g>
            <g transform="matrix(5.6,0,0,5.6,55.1206,53.3564)">
                <path d="M0.34,0.01L0.27,0.01L0.002,-0.715L0.142,-0.715L0.308,-0.232L0.482,-0.715L0.619,-0.715L0.34,0.01Z" style="fill:rgb(5,5,5);fill-opacity:0.8;fill-rule:nonzero;"/>
            </g>
            <g transform="matrix(5.6,0,0,5.6,58.7134,53.3564)">
                <path d="M0.2,-0.603L0.2,-0.435L0.437,-0.435L0.437,-0.327L0.2,-0.327L0.2,-0.113L0.524,-0.113L0.524,-0L0.073,-0L0.073,-0.715L0.53,-0.715L0.53,-0.603L0.2,-0.603Z" style="fill:rgb(5,5,5);fill-opacity:0.8;fill-rule:nonzero;"/>
            </g>
            <g transform="matrix(5.6,0,0,5.6,63.8101,53.3564)">
                <path d="M0.74,0L0.617,0L0.543,-0.385L0.399,0.01L0.354,0.01L0.209,-0.385L0.132,0L0.01,0L0.154,-0.715L0.221,-0.715L0.376,-0.233L0.527,-0.715L0.594,-0.715L0.74,0Z" style="fill:rgb(5,5,5);fill-opacity:0.8;fill-rule:nonzero;"/>
            </g>
            <g transform="matrix(5.6,0,0,5.6,68.0947,53.3564)">
                <path d="M0.073,-0.715L0.2,-0.715L0.2,-0.23C0.2,-0.192 0.212,-0.161 0.235,-0.137C0.259,-0.113 0.291,-0.101 0.332,-0.101C0.378,-0.101 0.414,-0.112 0.439,-0.136C0.465,-0.16 0.478,-0.192 0.478,-0.233L0.478,-0.715L0.604,-0.715L0.604,-0.223C0.604,-0.15 0.58,-0.092 0.531,-0.05C0.481,-0.009 0.415,0.012 0.333,0.012C0.25,0.012 0.186,-0.008 0.141,-0.049C0.096,-0.09 0.073,-0.148 0.073,-0.224L0.073,-0.715Z" style="fill:rgb(5,5,5);fill-opacity:0.8;fill-rule:nonzero;"/>
            </g>
            <g transform="matrix(5.6,0,0,5.6,72.002,53.3564)">
                <path d="M0.073,-0L0.073,-0.715L0.2,-0.715L0.2,-0.113L0.523,-0.113L0.523,-0L0.073,-0Z" style="fill:rgb(5,5,5);fill-opacity:0.8;fill-rule:nonzero;"/>
            </g>
            <g transform="matrix(5.6,0,0,5.6,74.7937,53.3564)">
                <path d="M0.364,-0.603L0.364,-0L0.237,-0L0.237,-0.603L0.01,-0.603L0.01,-0.715L0.602,-0.715L0.602,-0.603L0.364,-0.603Z" style="fill:rgb(5,5,5);fill-opacity:0.8;fill-rule:nonzero;"/>
            </g>
            <g transform="matrix(5.6,0,0,5.6,78.3319,53.3564)">
                <rect x="0.076" y="-0.715" width="0.127" height="0.715" style="fill:rgb(5,5,5);fill-opacity:0.8;fill-rule:nonzero;"/>
            </g>
            <g transform="matrix(5.6,0,0,5.6,80.0025,53.3564)">
                <path d="M0.2,-0.263L0.2,-0L0.073,-0L0.073,-0.715C0.158,-0.718 0.207,-0.72 0.222,-0.72C0.335,-0.72 0.417,-0.703 0.469,-0.668C0.522,-0.634 0.548,-0.579 0.548,-0.506C0.548,-0.342 0.451,-0.26 0.258,-0.26C0.243,-0.26 0.224,-0.261 0.2,-0.263ZM0.2,-0.605L0.2,-0.376C0.222,-0.374 0.239,-0.373 0.251,-0.373C0.309,-0.373 0.351,-0.382 0.378,-0.402C0.405,-0.421 0.418,-0.452 0.418,-0.496C0.418,-0.57 0.358,-0.607 0.239,-0.607C0.225,-0.607 0.213,-0.607 0.2,-0.605Z" style="fill:rgb(5,5,5);fill-opacity:0.8;fill-rule:nonzero;"/>
            </g>
            <g transform="matrix(5.6,0,0,5.6,83.4012,53.3564)">
                <path d="M0.073,-0L0.073,-0.715L0.2,-0.715L0.2,-0.113L0.523,-0.113L0.523,-0L0.073,-0Z" style="fill:rgb(5,5,5);fill-opacity:0.8;fill-rule:nonzero;"/>
            </g>
            <g transform="matrix(5.6,0,0,5.6,86.6085,53.3564)">
                <rect x="0.076" y="-0.715" width="0.127" height="0.715" style="fill:rgb(5,5,5);fill-opacity:0.8;fill-rule:nonzero;"/>
            </g>
            <g transform="matrix(5.6,0,0,5.6,88.2791,53.3564)">
                <path d="M0.2,-0.603L0.2,-0.435L0.437,-0.435L0.437,-0.327L0.2,-0.327L0.2,-0.113L0.524,-0.113L0.524,-0L0.073,-0L0.073,-0.715L0.53,-0.715L0.53,-0.603L0.2,-0.603Z" style="fill:rgb(5,5,5);fill-opacity:0.8;fill-rule:nonzero;"/>
            </g>
            <g transform="matrix(5.6,0,0,5.6,91.5767,53.3564)">
                <path d="M0.477,-0L0.286,-0.295C0.266,-0.296 0.24,-0.297 0.205,-0.299L0.205,-0L0.073,-0L0.073,-0.715C0.08,-0.715 0.108,-0.717 0.156,-0.719C0.204,-0.721 0.242,-0.723 0.271,-0.723C0.453,-0.723 0.544,-0.652 0.544,-0.512C0.544,-0.469 0.531,-0.431 0.506,-0.396C0.481,-0.361 0.45,-0.337 0.412,-0.322L0.623,-0L0.477,-0ZM0.205,-0.605L0.205,-0.406C0.229,-0.404 0.246,-0.403 0.259,-0.403C0.312,-0.403 0.351,-0.411 0.375,-0.426C0.4,-0.441 0.412,-0.47 0.412,-0.513C0.412,-0.548 0.399,-0.573 0.373,-0.587C0.346,-0.601 0.305,-0.608 0.248,-0.608C0.234,-0.608 0.22,-0.607 0.205,-0.605Z" style="fill:rgb(5,5,5);fill-opacity:0.8;fill-rule:nonzero;"/>
            </g>
        </g>
        <g transform="matrix(1.13803,0,0,1.39235,972.388,-134.493)">
            <path d="M73.138,59.677C73.138,58.158 71.251,56.924 68.927,56.924L9.318,56.924C6.994,56.924 5.107,58.158 5.107,59.677L5.107,80.95C5.107,82.47 6.994,83.704 9.318,83.704L68.927,83.704C71.251,83.704 73.138,82.47 73.138,80.95L73.138,59.677Z" style="fill-opacity:0.8;"/>
        </g>
        <g transform="matrix(1.198,0,0,0.958552,985.639,-96.7425)">
            <g transform="matrix(6.4,0,0,6.4,34.9201,51.8924)">
                <path d="M0.039,-0.04L0.086,-0.153C0.136,-0.118 0.185,-0.101 0.234,-0.101C0.308,-0.101 0.346,-0.127 0.346,-0.179C0.346,-0.203 0.337,-0.226 0.319,-0.249C0.302,-0.271 0.266,-0.295 0.211,-0.323C0.156,-0.351 0.119,-0.373 0.1,-0.391C0.081,-0.409 0.066,-0.43 0.056,-0.454C0.046,-0.479 0.041,-0.506 0.041,-0.535C0.041,-0.59 0.061,-0.636 0.101,-0.673C0.142,-0.709 0.194,-0.728 0.257,-0.728C0.34,-0.728 0.401,-0.712 0.439,-0.681L0.401,-0.572C0.356,-0.604 0.309,-0.62 0.26,-0.62C0.23,-0.62 0.208,-0.612 0.192,-0.596C0.176,-0.581 0.167,-0.561 0.167,-0.536C0.167,-0.495 0.213,-0.452 0.304,-0.408C0.352,-0.385 0.386,-0.363 0.407,-0.344C0.428,-0.324 0.444,-0.301 0.456,-0.275C0.467,-0.248 0.472,-0.219 0.472,-0.187C0.472,-0.129 0.449,-0.081 0.404,-0.044C0.358,-0.007 0.297,0.012 0.22,0.012C0.153,0.012 0.093,-0.005 0.039,-0.04Z" style="fill:white;fill-rule:nonzero;"/>
            </g>
            <g transform="matrix(6.4,0,0,6.4,38.32,51.8924)">
                <path d="M0.073,-0.715L0.2,-0.715L0.2,-0.23C0.2,-0.192 0.212,-0.161 0.235,-0.137C0.259,-0.113 0.291,-0.101 0.332,-0.101C0.378,-0.101 0.414,-0.112 0.439,-0.136C0.465,-0.16 0.478,-0.192 0.478,-0.233L0.478,-0.715L0.604,-0.715L0.604,-0.223C0.604,-0.15 0.58,-0.092 0.531,-0.05C0.481,-0.009 0.415,0.012 0.333,0.012C0.25,0.012 0.186,-0.008 0.141,-0.049C0.096,-0.09 0.073,-0.148 0.073,-0.224L0.073,-0.715Z" style="fill:white;fill-rule:nonzero;"/>
            </g>
            <g transform="matrix(6.4,0,0,6.4,42.7855,51.8924)">
                <path d="M0.74,0L0.617,0L0.543,-0.385L0.399,0.01L0.354,0.01L0.209,-0.385L0.132,0L0.01,0L0.154,-0.715L0.221,-0.715L0.376,-0.233L0.527,-0.715L0.594,-0.715L0.74,0Z" style="fill:white;fill-rule:nonzero;"/>
            </g>
        </g>
        <g transform="matrix(1.198,0,0,0.958552,948.489,-96.741)">
            <g transform="matrix(6.4,0,0,6.4,33.8286,51.8924)">
                <path d="M0.2,-0.263L0.2,-0L0.073,-0L0.073,-0.715C0.158,-0.718 0.207,-0.72 0.222,-0.72C0.335,-0.72 0.417,-0.703 0.469,-0.668C0.522,-0.634 0.548,-0.579 0.548,-0.506C0.548,-0.342 0.451,-0.26 0.258,-0.26C0.243,-0.26 0.224,-0.261 0.2,-0.263ZM0.2,-0.605L0.2,-0.376C0.222,-0.374 0.239,-0.373 0.251,-0.373C0.309,-0.373 0.351,-0.382 0.378,-0.402C0.405,-0.421 0.418,-0.452 0.418,-0.496C0.418,-0.57 0.358,-0.607 0.239,-0.607C0.225,-0.607 0.213,-0.607 0.2,-0.605Z" style="fill:white;fill-rule:nonzero;"/>
            </g>
            <g transform="matrix(6.4,0,0,6.4,37.7129,51.8924)">
                <path d="M0.039,-0.364C0.039,-0.466 0.067,-0.552 0.123,-0.622C0.179,-0.693 0.253,-0.728 0.347,-0.728C0.45,-0.728 0.528,-0.696 0.583,-0.632C0.637,-0.569 0.664,-0.479 0.664,-0.364C0.664,-0.249 0.636,-0.157 0.579,-0.089C0.522,-0.022 0.441,0.012 0.337,0.012C0.241,0.012 0.167,-0.021 0.116,-0.088C0.065,-0.155 0.039,-0.247 0.039,-0.364ZM0.171,-0.364C0.171,-0.28 0.185,-0.215 0.213,-0.169C0.242,-0.124 0.283,-0.101 0.337,-0.101C0.4,-0.101 0.449,-0.123 0.482,-0.168C0.516,-0.213 0.532,-0.278 0.532,-0.364C0.532,-0.531 0.47,-0.615 0.347,-0.615C0.29,-0.615 0.247,-0.593 0.216,-0.547C0.186,-0.502 0.171,-0.441 0.171,-0.364Z" style="fill:white;fill-rule:nonzero;"/>
            </g>
            <g transform="matrix(6.4,0,0,6.4,42.3409,51.8924)">
                <path d="M0.073,-0L0.073,-0.715L0.2,-0.715L0.2,-0.113L0.523,-0.113L0.523,-0L0.073,-0Z" style="fill:white;fill-rule:nonzero;"/>
            </g>
            <g transform="matrix(6.4,0,0,6.4,45.5314,51.8924)">
                <path d="M0.371,-0.293L0.371,-0L0.244,-0L0.244,-0.293L0.002,-0.715L0.137,-0.715L0.307,-0.41L0.477,-0.715L0.611,-0.715L0.371,-0.293Z" style="fill:white;fill-rule:nonzero;"/>
            </g>
        </g>
        <g transform="matrix(1.13803,0,0,1.39083,972.388,-177.06)">
            <path d="M73.138,59.68C73.138,58.159 71.251,56.924 68.927,56.924L9.318,56.924C6.994,56.924 5.107,58.159 5.107,59.68L5.107,80.947C5.107,82.469 6.994,83.704 9.318,83.704L68.927,83.704C71.251,83.704 73.138,82.469 73.138,80.947L73.138,59.68Z" style="fill:white;fill-opacity:0.7;"/>
        </g>
        <g transform="matrix(1.198,0,0,0.958552,985.601,-139.305)">
            <g transform="matrix(6.4,0,0,6.4,31.814,51.8924)">
                <path d="M0.073,-0L0.073,-0.715L0.2,-0.715L0.2,-0.113L0.523,-0.113L0.523,-0L0.073,-0Z" style="fill-rule:nonzero;"/>
            </g>
            <g transform="matrix(6.4,0,0,6.4,35.4795,51.8924)">
                <path d="M0.2,-0.603L0.2,-0.435L0.437,-0.435L0.437,-0.327L0.2,-0.327L0.2,-0.113L0.524,-0.113L0.524,-0L0.073,-0L0.073,-0.715L0.53,-0.715L0.53,-0.603L0.2,-0.603Z" style="fill-rule:nonzero;"/>
            </g>
            <g transform="matrix(6.4,0,0,6.4,39.2481,51.8924)">
                <path d="M0.34,0.01L0.27,0.01L0.002,-0.715L0.142,-0.715L0.308,-0.232L0.482,-0.715L0.619,-0.715L0.34,0.01Z" style="fill-rule:nonzero;"/>
            </g>
            <g transform="matrix(6.4,0,0,6.4,43.3542,51.8924)">
                <path d="M0.2,-0.603L0.2,-0.435L0.437,-0.435L0.437,-0.327L0.2,-0.327L0.2,-0.113L0.524,-0.113L0.524,-0L0.073,-0L0.073,-0.715L0.53,-0.715L0.53,-0.603L0.2,-0.603Z" style="fill-rule:nonzero;"/>
            </g>
            <g transform="matrix(6.4,0,0,6.4,47.1229,51.8924)">
                <path d="M0.073,-0L0.073,-0.715L0.2,-0.715L0.2,-0.113L0.523,-0.113L0.523,-0L0.073,-0Z" style="fill-rule:nonzero;"/>
            </g>
        </g>
        <g transform="matrix(1.198,0,0,0.958552,949.236,-139.305)">
            <g transform="matrix(6.4,0,0,6.4,38.1466,51.8924)">
                <rect x="0.076" y="-0.715" width="0.127" height="0.715" style="fill-rule:nonzero;"/>
            </g>
            <g transform="matrix(6.4,0,0,6.4,40.0559,51.8924)">
                <path d="M0.542,0.01L0.195,-0.443L0.195,0L0.073,0L0.073,-0.715L0.134,-0.715L0.472,-0.284L0.472,-0.715L0.594,-0.715L0.594,0.01L0.542,0.01Z" style="fill-rule:nonzero;"/>
            </g>
        </g>
        <g transform="matrix(-1.63702,-1.60407e-16,2.81319e-16,-1.838,1080.95,1.65652)">
            <path d="M73.138,59.01C73.138,57.858 71.826,56.924 70.21,56.924L8.034,56.924C6.419,56.924 5.107,57.858 5.107,59.01L5.107,81.618C5.107,82.769 6.419,83.704 8.034,83.704L70.21,83.704C71.826,83.704 73.138,82.769 73.138,81.618L73.138,59.01Z" style="fill:white;fill-opacity:0.3;"/>
        </g>
        <g transform="matrix(-1.63702,-1.60407e-16,2.81319e-16,-1.838,1080.95,193.366)">
            <path d="M73.138,59.01C73.138,57.858 71.826,56.924 70.21,56.924L8.034,56.924C6.419,56.924 5.107,57.858 5.107,59.01L5.107,81.618C5.107,82.769 6.419,83.704 8.034,83.704L70.21,83.704C71.826,83.704 73.138,82.769 73.138,81.618L73.138,59.01Z" style="fill:white;fill-opacity:0.3;"/>
        </g>
        <g transform="matrix(1.63702,0,0,1.838,952.866,-118.261)">
            <path d="M73.138,59.01C73.138,57.858 71.826,56.924 70.21,56.924L8.034,56.924C6.419,56.924 5.107,57.858 5.107,59.01L5.107,81.618C5.107,82.769 6.419,83.704 8.034,83.704L70.21,83.704C71.826,83.704 73.138,82.769 73.138,81.618L73.138,59.01Z" style="fill:white;fill-opacity:0.3;"/>
        </g>
        <g transform="matrix(1.63702,0,0,1.838,952.866,-309.97)">
            <path d="M73.138,59.01C73.138,57.858 71.826,56.924 70.21,56.924L8.034,56.924C6.419,56.924 5.107,57.858 5.107,59.01L5.107,81.618C5.107,82.769 6.419,83.704 8.034,83.704L70.21,83.704C71.826,83.704 73.138,82.769 73.138,81.618L73.138,59.01Z" style="fill:white;fill-opacity:0.3;"/>
        </g>
        <g transform="matrix(-1.198,-1.17389e-16,1.46713e-16,-0.958552,1079.81,-61.5538)">
            <path d="M76.974,56.821C82.42,62.783 85.923,70.728 86.404,79.521" style="fill:none;stroke:rgb(4,4,4);stroke-opacity:0.6;stroke-width:0.6px;stroke-linejoin:miter;stroke-miterlimit:1;"/>
        </g>
        <g transform="matrix(-1.198,-1.17389e-16,1.46713e-16,-0.958552,1079.81,-61.5538)">
            <path d="M18.596,79.521C19.076,70.728 22.58,62.782 28.026,56.821" style="fill:none;stroke:rgb(4,4,4);stroke-opacity:0.6;stroke-width:0.6px;stroke-linejoin:miter;stroke-miterlimit:1;"/>
        </g>
        <g transform="matrix(1.198,0,0,0.958552,954.015,-55.0503)">
            <path d="M76.974,56.821C82.42,62.783 85.923,70.728 86.404,79.521" style="fill:none;stroke:rgb(4,4,4);stroke-opacity:0.6;stroke-width:0.6px;stroke-linejoin:miter;stroke-miterlimit:1;"/>
        </g>
        <g transform="matrix(1.198,0,0,0.958552,954.015,-55.0503)">
            <path d="M18.596,79.521C19.076,70.728 22.58,62.782 28.026,56.821" style="fill:none;stroke:rgb(4,4,4);stroke-opacity:0.6;stroke-width:0.6px;stroke-linejoin:miter;stroke-miterlimit:1;"/>
        </g>
        <g transform="matrix(-1.198,-1.17389e-16,1.46713e-16,-0.958552,1079.81,130.155)">
            <path d="M76.974,56.821C82.42,62.783 85.923,70.728 86.404,79.521" style="fill:none;stroke:rgb(4,4,4);stroke-opacity:0.6;stroke-width:0.6px;stroke-linejoin:miter;stroke-miterlimit:1;"/>
        </g>
        <g transform="matrix(-1.198,-1.17389e-16,1.46713e-16,-0.958552,1079.81,130.155)">
            <path d="M18.596,79.521C19.076,70.728 22.58,62.782 28.026,56.821" style="fill:none;stroke:rgb(4,4,4);stroke-opacity:0.6;stroke-width:0.6px;stroke-linejoin:miter;stroke-miterlimit:1;"/>
        </g>
        <g transform="matrix(1.198,0,0,0.958552,954.015,-246.759)">
            <path d="M76.974,56.821C82.42,62.783 85.923,70.728 86.404,79.521" style="fill:none;stroke:rgb(4,4,4);stroke-opacity:0.6;stroke-width:0.6px;stroke-linejoin:miter;stroke-miterlimit:1;"/>
        </g>
        <g transform="matrix(1.198,0,0,0.958552,954.015,-246.759)">
            <path d="M18.596,79.521C19.076,70.728 22.58,62.782 28.026,56.821" style="fill:none;stroke:rgb(4,4,4);stroke-opacity:0.6;stroke-width:0.6px;stroke-linejoin:miter;stroke-miterlimit:1;"/>
        </g>
        <g transform="matrix(1,0,0,1,0,190.328)">
            <g transform="matrix(0.167245,0,0,0.764926,963.314,-284.97)">
                <path d="M18.664,131.018L25.854,132.275L17.395,132.275L8.936,130.796L17.395,129.316L25.854,129.316L18.664,130.574L56.514,130.574L49.324,129.316L57.783,129.316L66.241,130.796L57.783,132.275L49.324,132.275L56.514,131.018L18.664,131.018Z" style="fill-opacity:0.6;"/>
            </g>
            <g transform="matrix(1.54635,0,0,0.768629,894.824,-223.444)">
                <path d="M48.356,46.378L48.356,53.86" style="fill:none;stroke:rgb(4,4,4);stroke-opacity:0.6;stroke-width:0.56px;stroke-linejoin:miter;stroke-miterlimit:1;"/>
            </g>
        </g>
        <g transform="matrix(1,0,0,1,-0.321761,188.706)">
            <g transform="matrix(1.29078,0,0,1.24587,-294.577,47.0847)">
                <g transform="matrix(0.258245,0,0,0.764926,1003.55,-292.342)">
                    <path d="M15.017,131.018L19.511,132.275L14.224,132.275L8.936,130.796L14.224,129.316L19.511,129.316L15.017,130.574L60.161,130.574L55.666,129.316L60.954,129.316L66.241,130.796L60.954,132.275L55.666,132.275L60.161,131.018L15.017,131.018Z" style="fill-opacity:0.6;"/>
                </g>
                <g transform="matrix(0.258245,0,0,0.764926,1009.64,-290.767)">
                    <path d="M15.017,131.018L19.511,132.275L14.224,132.275L8.936,130.796L14.224,129.316L19.511,129.316L15.017,130.574L60.161,130.574L55.666,129.316L60.954,129.316L66.241,130.796L60.954,132.275L55.666,132.275L60.161,131.018L15.017,131.018Z" style="fill-opacity:0.6;"/>
                </g>
            </g>
            <g>
                <g transform="matrix(1.54635,0,0,1.19423,934.826,-251.359)">
                    <path d="M48.356,46.378L48.356,53.86" style="fill:none;stroke:rgb(4,4,4);stroke-opacity:0.6;stroke-width:0.47px;stroke-linejoin:miter;stroke-miterlimit:1;"/>
                </g>
                <g transform="matrix(1.54635,0,0,1.19423,950.109,-251.359)">
                    <path d="M48.356,46.378L48.356,53.86" style="fill:none;stroke:rgb(4,4,4);stroke-opacity:0.6;stroke-width:0.47px;stroke-linejoin:miter;stroke-miterlimit:1;"/>
                </g>
            </g>
        </g>
        <g transform="matrix(1,0,0,1,0,190.328)">
            <g transform="matrix(8.96073e-18,0.11709,-0.971488,4.75966e-17,1192.48,-189.323)">
                <path d="M20.233,131.018L28.584,132.275L18.76,132.275L8.936,130.796L18.76,129.316L28.584,129.316L20.233,130.574L54.944,130.574L46.594,129.316L56.418,129.316L66.241,130.796L56.418,132.275L46.594,132.275L54.944,131.018L20.233,131.018Z" style="fill-opacity:0.6;"/>
            </g>
            <g transform="matrix(9.46869e-17,-1.23728,0.960636,4.70649e-17,1017.27,-125.091)">
                <path d="M48.356,46.378L48.356,53.86" style="fill:none;stroke:rgb(4,4,4);stroke-opacity:0.6;stroke-width:0.56px;stroke-linejoin:miter;stroke-miterlimit:1;"/>
            </g>
        </g>
        <g transform="matrix(1,0,0,1,0,62.5189)">
            <g transform="matrix(0.167245,0,0,0.764926,963.314,-284.97)">
                <path d="M18.664,131.018L25.854,132.275L17.395,132.275L8.936,130.796L17.395,129.316L25.854,129.316L18.664,130.574L56.514,130.574L49.324,129.316L57.783,129.316L66.241,130.796L57.783,132.275L49.324,132.275L56.514,131.018L18.664,131.018Z" style="fill-opacity:0.6;"/>
            </g>
            <g transform="matrix(1.54635,0,0,0.768629,894.824,-223.444)">
                <path d="M48.356,46.378L48.356,53.86" style="fill:none;stroke:rgb(4,4,4);stroke-opacity:0.6;stroke-width:0.56px;stroke-linejoin:miter;stroke-miterlimit:1;"/>
            </g>
        </g>
        <g transform="matrix(1,0,0,1,-0.321761,77.7992)">
            <g transform="matrix(1.29078,0,0,1.24587,-294.577,47.0847)">
                <g transform="matrix(0.258245,0,0,0.764926,1003.55,-292.342)">
                    <path d="M15.017,131.018L19.511,132.275L14.224,132.275L8.936,130.796L14.224,129.316L19.511,129.316L15.017,130.574L60.161,130.574L55.666,129.316L60.954,129.316L66.241,130.796L60.954,132.275L55.666,132.275L60.161,131.018L15.017,131.018Z" style="fill-opacity:0.6;"/>
                </g>
                <g transform="matrix(0.258245,0,0,0.764926,1009.64,-290.767)">
                    <path d="M15.017,131.018L19.511,132.275L14.224,132.275L8.936,130.796L14.224,129.316L19.511,129.316L15.017,130.574L60.161,130.574L55.666,129.316L60.954,129.316L66.241,130.796L60.954,132.275L55.666,132.275L60.161,131.018L15.017,131.018Z" style="fill-opacity:0.6;"/>
                </g>
            </g>
            <g>
                <g transform="matrix(1.54635,0,0,1.19423,934.826,-251.359)">
                    <path d="M48.356,46.378L48.356,53.86" style="fill:none;stroke:rgb(4,4,4);stroke-opacity:0.6;stroke-width:0.47px;stroke-linejoin:miter;stroke-miterlimit:1;"/>
                </g>
                <g transform="matrix(1.54635,0,0,1.19423,950.109,-251.359)">
                    <path d="M48.356,46.378L48.356,53.86" style="fill:none;stroke:rgb(4,4,4);stroke-opacity:0.6;stroke-width:0.47px;stroke-linejoin:miter;stroke-miterlimit:1;"/>
                </g>
            </g>
        </g>
        <g transform="matrix(1,0,0,1,0,62.5189)">
            <g transform="matrix(8.96073e-18,0.11709,-0.971488,4.75966e-17,1192.48,-189.323)">
                <path d="M20.233,131.018L28.584,132.275L18.76,132.275L8.936,130.796L18.76,129.316L28.584,129.316L20.233,130.574L54.944,130.574L46.594,129.316L56.418,129.316L66.241,130.796L56.418,132.275L46.594,132.275L54.944,131.018L20.233,131.018Z" style="fill-opacity:0.6;"/>
            </g>
            <g transform="matrix(9.46869e-17,-1.23728,0.960636,4.70649e-17,1017.27,-125.091)">
                <path d="M48.356,46.378L48.356,53.86" style="fill:none;stroke:rgb(4,4,4);stroke-opacity:0.6;stroke-width:0.56px;stroke-linejoin:miter;stroke-miterlimit:1;"/>
            </g>
        </g>
    </g>
</svg>
