<?xml version="1.0" encoding="UTF-8" standalone="no"?>
<!DOCTYPE svg PUBLIC "-//W3C//DTD SVG 1.1//EN" "http://www.w3.org/Graphics/SVG/1.1/DTD/svg11.dtd">
<svg width="100%" height="100%" viewBox="0 0 54 54" version="1.1" xmlns="http://www.w3.org/2000/svg" xmlns:xlink="http://www.w3.org/1999/xlink" xml:space="preserve" xmlns:serif="http://www.serif.com/" style="fill-rule:evenodd;clip-rule:evenodd;stroke-linejoin:round;stroke-miterlimit:2;">
    <g transform="matrix(0.0979391,0,0,0.0979391,26.712,26.712)">
        <path id="zwickel" d="M0,0C-48.11,27.858 -77.827,79.407 -77.827,135C-77.827,190.593 -48.11,242.142 0,270C48.11,242.142 77.827,190.593 77.827,135C77.827,79.407 48.11,27.858 0,0" style="fill:rgb(255,0,0);fill-rule:nonzero;"/>
        <g id="zwickel1" serif:id="zwickel" transform="matrix(0.866025,0.5,-0.5,0.866025,0,0)">
            <path d="M0,0C-48.11,27.858 -77.827,79.407 -77.827,135C-77.827,190.593 -48.11,242.142 0,270C48.11,242.142 77.827,190.593 77.827,135C77.827,79.407 48.11,27.858 0,0" style="fill:rgb(255,136,0);fill-rule:nonzero;"/>
        </g>
        <g id="zwickel2" serif:id="zwickel" transform="matrix(0.5,0.866025,-0.866025,0.5,0,0)">
            <path d="M0,0C-48.11,27.858 -77.827,79.407 -77.827,135C-77.827,190.593 -48.11,242.142 0,270C48.11,242.142 77.827,190.593 77.827,135C77.827,79.407 48.11,27.858 0,0" style="fill:rgb(255,204,0);fill-rule:nonzero;"/>
        </g>
        <g id="zwickel3" serif:id="zwickel" transform="matrix(-3.82857e-16,1,-1,-3.82857e-16,0,0)">
            <path d="M0,0C-48.11,27.858 -77.827,79.407 -77.827,135C-77.827,190.593 -48.11,242.142 0,270C48.11,242.142 77.827,190.593 77.827,135C77.827,79.407 48.11,27.858 0,0" style="fill:rgb(136,255,0);fill-rule:nonzero;"/>
        </g>
        <g id="zwickel4" serif:id="zwickel" transform="matrix(-0.5,0.866025,-0.866025,-0.5,0,0)">
            <path d="M0,0C-48.11,27.858 -77.827,79.407 -77.827,135C-77.827,190.593 -48.11,242.142 0,270C48.11,242.142 77.827,190.593 77.827,135C77.827,79.407 48.11,27.858 0,0" style="fill:rgb(0,255,0);fill-rule:nonzero;"/>
        </g>
        <g id="zwickel5" serif:id="zwickel" transform="matrix(-0.866025,0.5,-0.5,-0.866025,0,0)">
            <path d="M0,0C-48.11,27.858 -77.827,79.407 -77.827,135C-77.827,190.593 -48.11,242.142 0,270C48.11,242.142 77.827,190.593 77.827,135C77.827,79.407 48.11,27.858 0,0" style="fill:rgb(0,255,136);fill-rule:nonzero;"/>
        </g>
        <g id="zwickel6" serif:id="zwickel" transform="matrix(-1,-7.65714e-16,7.65714e-16,-1,0,0)">
            <path d="M0,0C-48.11,27.858 -77.827,79.407 -77.827,135C-77.827,190.593 -48.11,242.142 0,270C48.11,242.142 77.827,190.593 77.827,135C77.827,79.407 48.11,27.858 0,0" style="fill:rgb(0,255,255);fill-rule:nonzero;"/>
        </g>
        <g id="zwickel7" serif:id="zwickel" transform="matrix(-0.866025,-0.5,0.5,-0.866025,0,0)">
            <path d="M0,0C-48.11,27.858 -77.827,79.407 -77.827,135C-77.827,190.593 -48.11,242.142 0,270C48.11,242.142 77.827,190.593 77.827,135C77.827,79.407 48.11,27.858 0,0" style="fill:rgb(0,136,255);fill-rule:nonzero;"/>
        </g>
        <g id="zwickel8" serif:id="zwickel" transform="matrix(-0.5,-0.866025,0.866025,-0.5,0,0)">
            <path d="M0,0C-48.11,27.858 -77.827,79.407 -77.827,135C-77.827,190.593 -48.11,242.142 0,270C48.11,242.142 77.827,190.593 77.827,135C77.827,79.407 48.11,27.858 0,0" style="fill:rgb(0,0,255);fill-rule:nonzero;"/>
        </g>
        <g>
            <g id="zwickel9" serif:id="zwickel" transform="matrix(7.04481e-16,-1,1,7.04481e-16,0,0)">
                <path d="M0,0C-48.11,27.858 -77.827,79.407 -77.827,135C-77.827,190.593 -48.11,242.142 0,270C48.11,242.142 77.827,190.593 77.827,135C77.827,79.407 48.11,27.858 0,0" style="fill:rgb(136,0,255);fill-rule:nonzero;"/>
            </g>
            <g id="zwickel10" serif:id="zwickel" transform="matrix(0.5,-0.866025,0.866025,0.5,0,0)">
                <path d="M0,0C-48.11,27.858 -77.827,79.407 -77.827,135C-77.827,190.593 -48.11,242.142 0,270C48.11,242.142 77.827,190.593 77.827,135C77.827,79.407 48.11,27.858 0,0" style="fill:rgb(255,0,255);fill-rule:nonzero;"/>
            </g>
            <g id="zwickel11" serif:id="zwickel" transform="matrix(0.866025,-0.5,0.5,0.866025,0,0)">
                <path d="M0,0C-48.11,27.858 -77.827,79.407 -77.827,135C-77.827,190.593 -48.11,242.142 0,270C48.11,242.142 77.827,190.593 77.827,135C77.827,79.407 48.11,27.858 0,0" style="fill:rgb(255,0,136);fill-rule:nonzero;"/>
            </g>
        </g>
        <circle cx="0" cy="0" r="40" style="fill:rgb(255,255,0);"/>
    </g>
</svg>
