<?xml version="1.0" encoding="UTF-8" standalone="no"?>
<!DOCTYPE svg PUBLIC "-//W3C//DTD SVG 1.1//EN" "http://www.w3.org/Graphics/SVG/1.1/DTD/svg11.dtd">
<svg width="100%" height="100%" viewBox="0 0 27 27" version="1.1" xmlns="http://www.w3.org/2000/svg" xmlns:xlink="http://www.w3.org/1999/xlink" xml:space="preserve" xmlns:serif="http://www.serif.com/" style="fill-rule:evenodd;clip-rule:evenodd;stroke-linecap:round;stroke-linejoin:round;stroke-miterlimit:1.5;">
    <g transform="matrix(0.999576,0,0,1.01565,-0.334032,-0.508698)">
        <path d="M26.5,4.767C26.5,2.593 24.707,0.829 22.498,0.829L4.681,0.829C2.472,0.829 0.679,2.593 0.679,4.767L0.679,22.326C0.679,24.499 2.472,26.264 4.681,26.264L22.498,26.264C24.707,26.264 26.5,24.499 26.5,22.326L26.5,4.767Z" style="fill:rgb(133,133,133);stroke:black;stroke-width:0.64px;"/>
    </g>
    <g transform="matrix(0.976215,0,0,0.966144,-0.018377,-0.151931)">
        <path d="M26.5,4.607C26.5,2.521 24.825,0.829 22.761,0.829L4.418,0.829C2.354,0.829 0.679,2.521 0.679,4.607L0.679,22.486C0.679,24.571 2.354,26.264 4.418,26.264L22.761,26.264C24.825,26.264 26.5,24.571 26.5,22.486L26.5,4.607Z" style="fill:rgb(51,51,51);"/>
    </g>
</svg>
