<?xml version="1.0" encoding="UTF-8" standalone="no"?>
<!DOCTYPE svg PUBLIC "-//W3C//DTD SVG 1.1//EN" "http://www.w3.org/Graphics/SVG/1.1/DTD/svg11.dtd">
<svg width="100%" height="100%" viewBox="0 0 27 27" version="1.1" xmlns="http://www.w3.org/2000/svg" xmlns:xlink="http://www.w3.org/1999/xlink" xml:space="preserve" xmlns:serif="http://www.serif.com/" style="fill-rule:evenodd;clip-rule:evenodd;stroke-linejoin:round;stroke-miterlimit:2;">
    <g transform="matrix(1.0263,0,0,1.04186,-0.696902,-0.863349)">
        <path d="M26.5,4.668C26.5,2.549 24.754,0.829 22.602,0.829L4.577,0.829C2.425,0.829 0.679,2.549 0.679,4.668L0.679,22.425C0.679,24.544 2.425,26.264 4.577,26.264L22.602,26.264C24.754,26.264 26.5,24.544 26.5,22.425L26.5,4.668Z" style="fill:rgb(133,133,133);"/>
        <path d="M22.703,0.83L22.803,0.834L22.902,0.84L23.001,0.849L23.099,0.86L23.196,0.873L23.292,0.889L23.388,0.907L23.482,0.927L23.576,0.95L23.669,0.974L23.761,1.001L23.852,1.031L23.942,1.062L24.031,1.095L24.119,1.131L24.206,1.168L24.292,1.208L24.376,1.249L24.46,1.292L24.542,1.338L24.623,1.385L24.703,1.434L24.781,1.485L24.858,1.537L24.934,1.592L25.008,1.648L25.081,1.706L25.153,1.765L25.223,1.827L25.291,1.889L25.358,1.954L25.423,2.02L25.487,2.087L25.549,2.156L25.61,2.226L25.668,2.298L25.725,2.371L25.781,2.446L25.834,2.522L25.886,2.599L25.935,2.678L25.983,2.758L26.029,2.839L26.073,2.921L26.115,3.004L26.155,3.089L26.194,3.174L26.229,3.261L26.263,3.348L26.295,3.437L26.325,3.527L26.352,3.617L26.377,3.709L26.4,3.801L26.421,3.895L26.439,3.989L26.455,4.084L26.469,4.179L26.48,4.276L26.489,4.373L26.495,4.471L26.499,4.569L26.5,4.668L26.5,22.425L26.499,22.524L26.495,22.622L26.489,22.72L26.48,22.817L26.469,22.913L26.455,23.009L26.439,23.104L26.421,23.198L26.4,23.291L26.377,23.384L26.352,23.475L26.325,23.566L26.295,23.656L26.263,23.744L26.229,23.832L26.194,23.919L26.155,24.004L26.115,24.089L26.073,24.172L26.029,24.254L25.983,24.335L25.935,24.415L25.886,24.493L25.834,24.571L25.781,24.647L25.725,24.721L25.668,24.794L25.61,24.866L25.549,24.937L25.487,25.006L25.423,25.073L25.358,25.139L25.291,25.203L25.223,25.266L25.153,25.327L25.081,25.387L25.008,25.445L24.934,25.501L24.858,25.555L24.781,25.608L24.703,25.659L24.623,25.708L24.542,25.755L24.46,25.8L24.376,25.844L24.292,25.885L24.206,25.925L24.119,25.962L24.031,25.998L23.942,26.031L23.852,26.062L23.761,26.091L23.669,26.118L23.576,26.143L23.482,26.166L23.388,26.186L23.292,26.204L23.196,26.22L23.099,26.233L23.001,26.244L22.902,26.253L22.803,26.259L22.703,26.263L22.602,26.264L4.577,26.264L4.476,26.263L4.376,26.259L4.277,26.253L4.178,26.244L4.08,26.233L3.983,26.22L3.887,26.204L3.791,26.186L3.697,26.166L3.603,26.143L3.51,26.118L3.418,26.091L3.327,26.062L3.237,26.031L3.148,25.998L3.06,25.962L2.973,25.925L2.887,25.885L2.803,25.844L2.719,25.8L2.637,25.755L2.556,25.708L2.476,25.659L2.398,25.608L2.321,25.555L2.245,25.501L2.171,25.445L2.098,25.387L2.027,25.327L1.957,25.266L1.888,25.203L1.821,25.139L1.756,25.073L1.692,25.006L1.63,24.937L1.57,24.866L1.511,24.794L1.454,24.721L1.399,24.647L1.345,24.571L1.293,24.493L1.244,24.415L1.196,24.335L1.15,24.254L1.106,24.172L1.064,24.089L1.024,24.004L0.986,23.919L0.95,23.832L0.916,23.744L0.884,23.656L0.854,23.566L0.827,23.475L0.802,23.384L0.779,23.291L0.758,23.198L0.74,23.104L0.724,23.009L0.71,22.913L0.699,22.817L0.69,22.72L0.684,22.622L0.68,22.524L0.679,22.425L0.679,4.668L0.68,4.569L0.684,4.471L0.69,4.373L0.699,4.276L0.71,4.179L0.724,4.084L0.74,3.989L0.758,3.895L0.779,3.801L0.802,3.709L0.827,3.617L0.854,3.527L0.884,3.437L0.916,3.348L0.95,3.261L0.986,3.174L1.024,3.089L1.064,3.004L1.106,2.921L1.15,2.839L1.196,2.758L1.244,2.678L1.293,2.599L1.345,2.522L1.399,2.446L1.454,2.371L1.511,2.298L1.57,2.226L1.63,2.156L1.692,2.087L1.756,2.02L1.821,1.954L1.888,1.889L1.957,1.827L2.027,1.765L2.098,1.706L2.171,1.648L2.245,1.592L2.321,1.537L2.398,1.485L2.476,1.434L2.556,1.385L2.637,1.338L2.719,1.292L2.803,1.249L2.887,1.208L2.973,1.168L3.06,1.131L3.148,1.095L3.237,1.062L3.327,1.031L3.418,1.001L3.51,0.974L3.603,0.95L3.697,0.927L3.791,0.907L3.887,0.889L3.983,0.873L4.08,0.86L4.178,0.849L4.277,0.84L4.376,0.834L4.476,0.83L4.577,0.829L22.602,0.829L22.703,0.83ZM4.581,1.449L4.492,1.45L4.408,1.453L4.325,1.458L4.242,1.466L4.16,1.475L4.079,1.486L3.998,1.499L3.918,1.514L3.839,1.531L3.76,1.55L3.682,1.571L3.605,1.594L3.529,1.618L3.454,1.644L3.379,1.672L3.306,1.702L3.233,1.733L3.161,1.766L3.09,1.801L3.02,1.837L2.951,1.875L2.883,1.915L2.816,1.956L2.751,1.999L2.686,2.043L2.622,2.089L2.56,2.136L2.499,2.184L2.439,2.234L2.38,2.286L2.323,2.338L2.266,2.392L2.212,2.448L2.158,2.504L2.106,2.562L2.055,2.621L2.006,2.682L1.958,2.743L1.912,2.806L1.867,2.869L1.824,2.934L1.782,3L1.742,3.067L1.703,3.135L1.666,3.204L1.631,3.273L1.597,3.344L1.565,3.416L1.535,3.488L1.507,3.562L1.48,3.636L1.456,3.711L1.433,3.787L1.412,3.864L1.392,3.941L1.375,4.019L1.36,4.098L1.346,4.177L1.335,4.258L1.326,4.338L1.318,4.42L1.313,4.502L1.31,4.585L1.309,4.672L1.309,22.421L1.31,22.508L1.313,22.591L1.318,22.673L1.326,22.754L1.335,22.835L1.346,22.915L1.36,22.995L1.375,23.074L1.392,23.152L1.412,23.229L1.433,23.306L1.456,23.382L1.48,23.457L1.507,23.531L1.535,23.604L1.565,23.677L1.597,23.748L1.631,23.819L1.666,23.889L1.703,23.958L1.742,24.026L1.782,24.093L1.824,24.159L1.867,24.223L1.912,24.287L1.958,24.35L2.006,24.411L2.055,24.471L2.106,24.531L2.158,24.588L2.212,24.645L2.266,24.7L2.323,24.754L2.38,24.807L2.439,24.859L2.499,24.908L2.56,24.957L2.622,25.004L2.686,25.05L2.751,25.094L2.816,25.137L2.883,25.178L2.951,25.217L3.02,25.255L3.09,25.292L3.161,25.326L3.233,25.36L3.306,25.391L3.379,25.421L3.454,25.448L3.529,25.475L3.605,25.499L3.682,25.522L3.76,25.542L3.839,25.561L3.918,25.578L3.998,25.593L4.079,25.607L4.16,25.618L4.242,25.627L4.325,25.634L4.408,25.64L4.492,25.643L4.581,25.644L22.599,25.644L22.687,25.643L22.771,25.64L22.854,25.634L22.937,25.627L23.019,25.618L23.1,25.607L23.181,25.593L23.261,25.578L23.34,25.561L23.419,25.542L23.497,25.522L23.574,25.499L23.65,25.475L23.725,25.448L23.8,25.421L23.874,25.391L23.946,25.36L24.018,25.326L24.089,25.292L24.159,25.255L24.228,25.217L24.296,25.178L24.363,25.137L24.428,25.094L24.493,25.05L24.557,25.004L24.619,24.957L24.68,24.908L24.74,24.859L24.799,24.807L24.856,24.754L24.913,24.7L24.967,24.645L25.021,24.588L25.073,24.531L25.124,24.471L25.173,24.411L25.221,24.35L25.267,24.287L25.312,24.223L25.356,24.159L25.397,24.093L25.437,24.026L25.476,23.958L25.513,23.889L25.548,23.819L25.582,23.748L25.614,23.677L25.644,23.604L25.672,23.531L25.699,23.457L25.723,23.382L25.746,23.306L25.767,23.229L25.787,23.152L25.804,23.074L25.819,22.995L25.833,22.915L25.844,22.835L25.853,22.754L25.861,22.673L25.866,22.591L25.869,22.508L25.87,22.421L25.87,4.672L25.869,4.585L25.866,4.502L25.861,4.42L25.853,4.338L25.844,4.258L25.833,4.177L25.819,4.098L25.804,4.019L25.787,3.941L25.767,3.864L25.746,3.787L25.723,3.711L25.699,3.636L25.672,3.562L25.644,3.488L25.614,3.416L25.582,3.344L25.548,3.274L25.513,3.204L25.476,3.135L25.437,3.067L25.397,3L25.356,2.934L25.312,2.869L25.267,2.806L25.221,2.743L25.173,2.682L25.124,2.621L25.073,2.562L25.021,2.504L24.967,2.448L24.913,2.392L24.856,2.338L24.799,2.286L24.74,2.234L24.68,2.184L24.619,2.136L24.557,2.089L24.493,2.043L24.428,1.999L24.363,1.956L24.296,1.915L24.228,1.875L24.159,1.837L24.089,1.801L24.018,1.766L23.946,1.733L23.874,1.702L23.8,1.672L23.725,1.644L23.65,1.618L23.574,1.594L23.497,1.571L23.419,1.55L23.34,1.531L23.261,1.514L23.181,1.499L23.1,1.486L23.019,1.475L22.937,1.466L22.854,1.458L22.771,1.453L22.687,1.45L22.599,1.449L4.581,1.449Z"/>
    </g>
    <g transform="matrix(0.97562,0,0,0.960795,-0.0172633,0.630968)">
        <path d="M26.5,4.315C26.5,2.391 24.961,0.829 23.066,0.829L4.113,0.829C2.218,0.829 0.679,2.391 0.679,4.315L0.679,22.777C0.679,24.702 2.218,26.264 4.113,26.264L23.066,26.264C24.961,26.264 26.5,24.702 26.5,22.777L26.5,4.315Z" style="fill:rgb(95,95,95);"/>
    </g>
</svg>
