<?xml version="1.0" encoding="UTF-8" standalone="no"?>
<!DOCTYPE svg PUBLIC "-//W3C//DTD SVG 1.1//EN" "http://www.w3.org/Graphics/SVG/1.1/DTD/svg11.dtd">
<svg width="100%" height="100%" viewBox="0 0 27 27" version="1.1" xmlns="http://www.w3.org/2000/svg" xmlns:xlink="http://www.w3.org/1999/xlink" xml:space="preserve" xmlns:serif="http://www.serif.com/" style="fill-rule:evenodd;clip-rule:evenodd;stroke-linecap:round;stroke-linejoin:round;stroke-miterlimit:1.5;">
    <g transform="matrix(0.999576,0,0,1.01565,-0.334032,-0.508698)">
        <path d="M26.5,4.767C26.5,2.593 24.707,0.829 22.498,0.829L4.681,0.829C2.472,0.829 0.679,2.593 0.679,4.767L0.679,22.326C0.679,24.499 2.472,26.264 4.681,26.264L22.498,26.264C24.707,26.264 26.5,24.499 26.5,22.326L26.5,4.767Z" style="fill:rgb(133,133,133);stroke:black;stroke-width:0.64px;"/>
    </g>
    <g transform="matrix(0.974393,0,0,0.959871,-0.00169865,0.631734)">
        <path d="M26.5,4.631C26.5,2.533 24.822,0.829 22.754,0.829L4.425,0.829C2.358,0.829 0.679,2.533 0.679,4.631L0.679,22.461C0.679,24.56 2.358,26.264 4.425,26.264L22.754,26.264C24.822,26.264 26.5,24.56 26.5,22.461L26.5,4.631Z" style="fill:rgb(95,95,95);"/>
    </g>
</svg>
