<?xml version="1.0" encoding="UTF-8" standalone="no"?>
<!DOCTYPE svg PUBLIC "-//W3C//DTD SVG 1.1//EN" "http://www.w3.org/Graphics/SVG/1.1/DTD/svg11.dtd">
<svg width="100%" height="100%" viewBox="0 0 36 36" version="1.1" xmlns="http://www.w3.org/2000/svg" xmlns:xlink="http://www.w3.org/1999/xlink" xml:space="preserve" xmlns:serif="http://www.serif.com/" style="fill-rule:evenodd;clip-rule:evenodd;stroke-linejoin:round;stroke-miterlimit:2;">
    <g id="Layer-1" serif:id="Layer 1" transform="matrix(1,0,0,1,-469.822,-184.383)">
        <g transform="matrix(2.94123,0,0,2.55576,459.311,180.339)">
            <path d="M9.694,1.582L10.063,1.595L10.372,2.193L10.797,1.698L11.158,1.787L11.514,1.901L11.69,2.567L12.205,2.203L12.538,2.389L12.86,2.598L12.892,3.293L13.468,3.081L13.752,3.354L14.021,3.645L13.908,4.329L14.511,4.282L14.73,4.624L14.931,4.982L14.679,5.614L15.274,5.735L15.416,6.128L15.537,6.53L15.16,7.075L15.713,7.356L15.769,7.776L15.802,8.2L15.324,8.625L15.802,9.05L15.769,9.474L15.713,9.895L15.16,10.176L15.537,10.721L15.416,11.123L15.274,11.516L14.679,11.636L14.931,12.269L14.73,12.626L14.511,12.969L13.908,12.922L14.021,13.605L13.752,13.897L13.468,14.169L12.892,13.958L12.86,14.652L12.538,14.861L12.205,15.048L11.69,14.684L11.514,15.349L11.158,15.464L10.797,15.553L10.372,15.057L10.063,15.655L9.694,15.668L9.324,15.655L9.015,15.057L8.591,15.553L8.229,15.464L7.873,15.349L7.697,14.684L7.182,15.048L6.85,14.861L6.528,14.652L6.495,13.958L5.919,14.169L5.635,13.897L5.366,13.605L5.479,12.922L4.876,12.969L4.657,12.626L4.456,12.269L4.708,11.636L4.113,11.516L3.972,11.123L3.851,10.721L4.227,10.176L3.674,9.895L3.618,9.474L3.585,9.05L4.063,8.625L3.585,8.2L3.618,7.776L3.674,7.356L4.227,7.075L3.851,6.53L3.972,6.128L4.113,5.735L4.708,5.614L4.456,4.982L4.657,4.624L4.876,4.282L5.479,4.329L5.366,3.645L5.635,3.354L5.919,3.081L6.495,3.293L6.528,2.598L6.85,2.389L7.182,2.203L7.697,2.567L7.873,1.901L8.229,1.787L8.591,1.698L9.015,2.193L9.324,1.595L9.694,1.582Z" style="fill:rgb(27,27,27);"/>
        </g>
        <g id="path108216" transform="matrix(1.94094,0,0,1.71317,-541.502,-188.538)">
            <path d="M530.904,219.287C530.713,219.272 530.521,219.256 530.326,219.256C530.13,219.256 529.935,219.271 529.744,219.287L529.744,228.186L530.904,228.186L530.904,219.287Z" style="fill:rgb(201,201,201);fill-rule:nonzero;"/>
        </g>
    </g>
</svg>
