<?xml version="1.0" encoding="UTF-8" standalone="no"?>
<!DOCTYPE svg PUBLIC "-//W3C//DTD SVG 1.1//EN" "http://www.w3.org/Graphics/SVG/1.1/DTD/svg11.dtd">
<svg width="23px" height="23px" version="1.1" xmlns="http://www.w3.org/2000/svg" xmlns:xlink="http://www.w3.org/1999/xlink" xml:space="preserve" xmlns:serif="http://www.serif.com/" style="fill-rule:evenodd;clip-rule:evenodd;stroke-linejoin:round;stroke-miterlimit:2;">
    <g id="Layer-1" serif:id="Layer 1">
        <path d="M11.35,0.05L12.335,0.093L13.155,1.112L14.275,0.435L15.215,0.731L16.126,1.109L16.548,2.347L17.831,2.094L18.613,2.694L19.34,3.36L19.314,4.668L20.606,4.869L21.136,5.7L21.591,6.574L21.119,7.794L22.265,8.425L22.478,9.388L22.607,10.365L21.746,11.35L22.607,12.335L22.478,13.312L22.265,14.275L21.119,14.906L21.591,16.126L21.136,17L20.606,17.831L19.314,18.032L19.34,19.34L18.613,20.006L17.831,20.606L16.548,20.353L16.126,21.591L15.215,21.969L14.275,22.265L13.155,21.588L12.335,22.607L11.35,22.65L10.365,22.607L9.545,21.588L8.425,22.265L7.485,21.969L6.574,21.591L6.152,20.353L4.869,20.606L4.087,20.006L3.36,19.34L3.386,18.032L2.094,17.831L1.564,17L1.109,16.126L1.581,14.906L0.435,14.275L0.222,13.312L0.093,12.335L0.954,11.35L0.093,10.365L0.222,9.388L0.435,8.425L1.581,7.794L1.109,6.574L1.564,5.7L2.094,4.869L3.386,4.668L3.36,3.36L4.087,2.694L4.869,2.094L6.152,2.347L6.574,1.109L7.485,0.731L8.425,0.435L9.545,1.112L10.365,0.093L11.35,0.05Z" style="fill:rgb(27,27,27);"/>
        <path id="path108216" d="M12.25,2.317C11.953,2.301 11.656,2.285 11.353,2.285C11.05,2.285 10.747,2.301 10.45,2.317L10.45,11.35L12.25,11.35L12.25,2.317Z" style="fill:rgb(201,201,201);fill-rule:nonzero;"/>
    </g>
</svg>
