<?xml version="1.0" encoding="UTF-8" standalone="no"?>
<!DOCTYPE svg PUBLIC "-//W3C//DTD SVG 1.1//EN" "http://www.w3.org/Graphics/SVG/1.1/DTD/svg11.dtd">
<svg width="17px" height="17px" version="1.1" xmlns="http://www.w3.org/2000/svg" xmlns:xlink="http://www.w3.org/1999/xlink" xml:space="preserve" xmlns:serif="http://www.serif.com/" style="fill-rule:evenodd;clip-rule:evenodd;stroke-linejoin:round;stroke-miterlimit:2;">
    <g id="compoment">
        <path d="M8.3,0.033L9.021,0.064L9.621,0.81L10.44,0.314L11.128,0.531L11.794,0.807L12.103,1.713L13.042,1.528L13.614,1.967L14.146,2.454L14.127,3.411L15.072,3.558L15.46,4.166L15.793,4.806L15.447,5.699L16.286,6.16L16.442,6.864L16.536,7.579L15.906,8.3L16.536,9.021L16.442,9.736L16.286,10.44L15.447,10.901L15.793,11.794L15.46,12.434L15.072,13.042L14.127,13.189L14.146,14.146L13.614,14.633L13.042,15.072L12.103,14.887L11.794,15.793L11.128,16.069L10.44,16.286L9.621,15.79L9.021,16.536L8.3,16.567L7.579,16.536L6.979,15.79L6.16,16.286L5.472,16.069L4.806,15.793L4.497,14.887L3.558,15.072L2.986,14.633L2.454,14.146L2.473,13.189L1.528,13.042L1.14,12.434L0.807,11.794L1.153,10.901L0.314,10.44L0.158,9.736L0.064,9.021L0.694,8.3L0.064,7.579L0.158,6.864L0.314,6.16L1.153,5.699L0.807,4.806L1.14,4.166L1.528,3.558L2.473,3.411L2.454,2.454L2.986,1.967L3.558,1.528L4.497,1.713L4.806,0.807L5.472,0.531L6.16,0.314L6.979,0.81L7.579,0.064L8.3,0.033Z" style="fill:rgb(27,27,27);"/>
        <path id="path108216" d="M9.1,1.241C8.836,1.229 8.572,1.216 8.303,1.216C8.033,1.216 7.764,1.229 7.5,1.241L7.5,8.3L9.1,8.3L9.1,1.241Z" style="fill:rgb(201,201,201);fill-rule:nonzero;"/>
    </g>
</svg>
