<?xml version="1.0" encoding="UTF-8" standalone="no"?>
<!DOCTYPE svg PUBLIC "-//W3C//DTD SVG 1.1//EN" "http://www.w3.org/Graphics/SVG/1.1/DTD/svg11.dtd">
<svg width="100%" height="100%" viewBox="0 0 151 380" version="1.1" xmlns="http://www.w3.org/2000/svg" xmlns:xlink="http://www.w3.org/1999/xlink" xml:space="preserve" xmlns:serif="http://www.serif.com/" style="fill-rule:evenodd;clip-rule:evenodd;stroke-linejoin:round;stroke-miterlimit:1.41421;">
    <g id="Layer-1" serif:id="Layer 1" transform="matrix(0.834722,0,0,1.04324,-803.837,250.623)">
        <g transform="matrix(3.01847,0,0,0.959028,963,-240.415)">
            <rect x="0" y="0" width="60" height="380" style="fill:rgb(229,229,229);"/>
        </g>
        <g transform="matrix(1.03899,0,0,1.44687,996.707,-653.268)">
            <rect x="-30.034" y="347.456" width="169.102" height="16.91" style="fill:rgb(161,158,158);"/>
        </g>
        <g transform="matrix(1.03909,0,0,1.55539,996.655,-450.668)">
            <rect x="-30.034" y="347.456" width="169.102" height="16.91" style="fill:rgb(161,158,158);"/>
        </g>
        <g id="path3052" transform="matrix(1.25724,0,0,1.0755,-247.861,-9.16649)">
            <rect x="963.532" y="121.41" width="142.941" height="2.074" style="fill:url(#_Linear1);"/>
        </g>
        <g id="path40444" transform="matrix(1.2559,0,0,1.0005,-246.426,-0.0614164)">
            <path d="M1107,-240.235L963,-240.235L963,124.015L1107,124.015L1107,-240.235ZM1106.47,123.484L963.531,123.484L963.531,-239.708L1106.47,-239.708L1106.47,123.484Z" style="fill:rgb(81,85,88);fill-rule:nonzero;"/>
        </g>
        <g id="text1122" transform="matrix(1.198,0,0,0.958553,1053.08,113.185)">
            <path d="M-11.644,-3.338L-11.644,-2.997L-12.471,-2.997L-12.471,-7.191L-11.644,-7.191L-11.644,-5.398L-11.633,-5.398C-11.417,-5.732 -11.107,-5.9 -10.706,-5.9C-10.349,-5.9 -10.069,-5.775 -9.867,-5.526C-9.665,-5.276 -9.563,-4.932 -9.563,-4.493C-9.563,-4.024 -9.68,-3.645 -9.912,-3.358C-10.144,-3.071 -10.452,-2.928 -10.837,-2.928C-11.189,-2.928 -11.454,-3.064 -11.633,-3.338L-11.644,-3.338ZM-11.657,-4.222C-11.657,-4.035 -11.601,-3.879 -11.49,-3.753C-11.379,-3.626 -11.238,-3.563 -11.067,-3.563C-10.861,-3.563 -10.7,-3.643 -10.584,-3.804C-10.469,-3.965 -10.411,-4.192 -10.411,-4.486C-10.411,-4.73 -10.464,-4.921 -10.569,-5.058C-10.674,-5.196 -10.824,-5.264 -11.019,-5.264C-11.203,-5.264 -11.356,-5.195 -11.476,-5.057C-11.596,-4.919 -11.657,-4.741 -11.657,-4.524L-11.657,-4.222Z" style="fill-rule:nonzero;"/>
            <path d="M-7.244,-1.182L-4.357,-1.182L-4.357,0L-8.883,0L-8.883,-0.505C-8.883,-0.86 -8.818,-1.184 -8.688,-1.477C-8.557,-1.77 -8.378,-2.043 -8.149,-2.296C-7.921,-2.55 -7.566,-2.846 -7.086,-3.186C-6.646,-3.514 -6.339,-3.805 -6.163,-4.058C-5.987,-4.312 -5.899,-4.581 -5.899,-4.865C-5.899,-5.477 -6.233,-5.783 -6.901,-5.783C-7.487,-5.783 -8.047,-5.549 -8.58,-5.08L-8.58,-6.346C-7.985,-6.729 -7.317,-6.921 -6.576,-6.921C-5.896,-6.921 -5.359,-6.748 -4.963,-6.401C-4.568,-6.053 -4.37,-5.575 -4.37,-4.966C-4.37,-4.626 -4.427,-4.319 -4.541,-4.045C-4.656,-3.771 -4.821,-3.514 -5.038,-3.274C-5.255,-3.034 -5.602,-2.745 -6.079,-2.408C-6.539,-2.08 -6.848,-1.827 -7.007,-1.648C-7.165,-1.469 -7.244,-1.314 -7.244,-1.182Z" style="fill-rule:nonzero;"/>
            <path d="M-3.46,-3.292C-3.46,-4.469 -3.243,-5.369 -2.81,-5.99C-2.376,-6.611 -1.749,-6.921 -0.929,-6.921C0.635,-6.921 1.418,-5.764 1.418,-3.45C1.418,-2.31 1.205,-1.43 0.78,-0.811C0.356,-0.191 -0.258,0.119 -1.061,0.119C-2.66,0.119 -3.46,-1.018 -3.46,-3.292ZM-2.023,-3.327C-2.023,-1.756 -1.688,-0.971 -1.017,-0.971C-0.358,-0.971 -0.028,-1.78 -0.028,-3.397C-0.028,-5.02 -0.349,-5.832 -0.991,-5.832C-1.679,-5.832 -2.023,-4.997 -2.023,-3.327Z" style="fill-rule:nonzero;"/>
            <path d="M5.566,-6.957L5.566,0L4.138,0L4.138,-5.357C3.962,-5.205 3.722,-5.068 3.417,-4.946C3.113,-4.824 2.833,-4.749 2.578,-4.72L2.578,-5.937C3.381,-6.171 4.075,-6.511 4.661,-6.957L5.566,-6.957Z" style="fill-rule:nonzero;"/>
            <path d="M9.407,-1.182L12.294,-1.182L12.294,0L7.768,0L7.768,-0.505C7.768,-0.86 7.833,-1.184 7.963,-1.477C8.094,-1.77 8.273,-2.043 8.502,-2.296C8.73,-2.55 9.085,-2.846 9.565,-3.186C10.005,-3.514 10.312,-3.805 10.488,-4.058C10.664,-4.312 10.752,-4.581 10.752,-4.865C10.752,-5.477 10.418,-5.783 9.75,-5.783C9.164,-5.783 8.604,-5.549 8.071,-5.08L8.071,-6.346C8.666,-6.729 9.334,-6.921 10.075,-6.921C10.755,-6.921 11.292,-6.748 11.688,-6.401C12.083,-6.053 12.281,-5.575 12.281,-4.966C12.281,-4.626 12.224,-4.319 12.11,-4.045C11.995,-3.771 11.83,-3.514 11.613,-3.274C11.396,-3.034 11.049,-2.745 10.572,-2.408C10.112,-2.08 9.802,-1.827 9.644,-1.648C9.486,-1.469 9.407,-1.314 9.407,-1.182Z" style="fill-rule:nonzero;"/>
        </g>
        <g transform="matrix(1.198,0,0,0.958552,1022.24,-215.123)">
            <text x="0px" y="0px" style="font-family:'MicrosoftYaHeiUI-Bold', 'Microsoft YaHei UI', sans-serif;font-weight:700;font-size:12px;">CV-MAP</text>
        </g>
        <g transform="matrix(1.198,0,0,0.958552,963.611,-250.864)">
            <g transform="matrix(1,0,0,1,18.836,56.275)">
                <text x="0px" y="0px" style="font-family:'MicrosoftYaHeiUI-Bold', 'Microsoft YaHei UI', sans-serif;font-weight:700;font-size:6px;">POL</text>
            </g>
            <g transform="matrix(1,0,0,1,30.514,56.275)">
                <text x="0px" y="0px" style="font-family:'MicrosoftYaHeiUI-Bold', 'Microsoft YaHei UI', sans-serif;font-weight:700;font-size:6px;">Y 1-16</text>
            </g>
        </g>
        <g transform="matrix(1.198,0,0,0.958552,1055.92,-250.864)">
            <g transform="matrix(1,0,0,1,18.836,56.275)">
                <text x="0px" y="0px" style="font-family:'MicrosoftYaHeiUI-Bold', 'Microsoft YaHei UI', sans-serif;font-weight:700;font-size:6px;">POL</text>
            </g>
            <g transform="matrix(1,0,0,1,30.514,56.275)">
                <text x="0px" y="0px" style="font-family:'MicrosoftYaHeiUI-Bold', 'Microsoft YaHei UI', sans-serif;font-weight:700;font-size:6px;">Y 17-32</text>
            </g>
        </g>
        <g transform="matrix(1.198,0,0,0.958552,971.101,-247.125)">
            <g transform="matrix(1,0,0,1,17.203,40.103)">
                <text x="0px" y="0px" style="font-family:'MicrosoftYaHeiUI-Bold', 'Microsoft YaHei UI', sans-serif;font-weight:700;font-size:5px;fill:rgb(107,107,107);">VOL</text>
            </g>
            <g transform="matrix(1,0,0,1,27.242,40.103)">
                <text x="0px" y="0px" style="font-family:'MicrosoftYaHeiUI-Bold', 'Microsoft YaHei UI', sans-serif;font-weight:700;font-size:5px;fill:rgb(107,107,107);">T<tspan x="2.749px 6.45px " y="0px 0px ">AG</tspan>E CONTROLLED P</text>
            </g>
            <g transform="matrix(1,0,0,1,80.884,40.103)">
                <text x="0px" y="0px" style="font-family:'MicrosoftYaHeiUI-Bold', 'Microsoft YaHei UI', sans-serif;font-weight:700;font-size:5px;fill:rgb(107,107,107);">ARA-O-MA</text>
            </g>
            <g transform="matrix(1,0,0,1,108.875,40.103)">
                <text x="0px" y="0px" style="font-family:'MicrosoftYaHeiUI-Bold', 'Microsoft YaHei UI', sans-serif;font-weight:700;font-size:5px;fill:rgb(107,107,107);">T<tspan x="2.922px 7.014px " y="0px 0px ">OR</tspan></text>
            </g>
        </g>
    </g>
    <defs>
        <linearGradient id="_Linear1" x1="0" y1="0" x2="1" y2="0" gradientUnits="userSpaceOnUse" gradientTransform="matrix(9.31062e-17,1.52054,-1.52054,9.31062e-17,1036.87,122.284)"><stop offset="0" style="stop-color:rgb(165,165,165);stop-opacity:1"/><stop offset="1" style="stop-color:black;stop-opacity:1"/></linearGradient>
    </defs>
</svg>
