<?xml version="1.0" encoding="UTF-8" standalone="no"?>
<!DOCTYPE svg PUBLIC "-//W3C//DTD SVG 1.1//EN" "http://www.w3.org/Graphics/SVG/1.1/DTD/svg11.dtd">
<svg width="100%" height="100%" viewBox="0 0 720 380" version="1.1" xmlns="http://www.w3.org/2000/svg" xmlns:xlink="http://www.w3.org/1999/xlink" xml:space="preserve" xmlns:serif="http://www.serif.com/" style="fill-rule:evenodd;clip-rule:evenodd;stroke-linecap:round;stroke-linejoin:round;stroke-miterlimit:1.5;">
    <g id="panel" transform="matrix(0.834722,0,0,1.04324,-758.837,250.623)">
        <g transform="matrix(14.376,0,0,0.958552,909.09,-240.235)">
            <rect x="0" y="0" width="60" height="380" style="fill:rgb(64,64,64);"/>
        </g>
        <g transform="matrix(5.10084,0,0,1.81823,1062.29,-538.329)">
            <rect x="-30.034" y="347.456" width="169.102" height="16.91" style="fill:rgb(10,10,44);fill-opacity:0.8;"/>
        </g>
        <g transform="matrix(5.10084,0,0,1.76292,1062.29,-852.772)">
            <rect x="-30.034" y="347.456" width="169.102" height="16.91" style="fill:rgb(10,10,44);fill-opacity:0.8;"/>
        </g>
        <g transform="matrix(38.5127,0,0,25.5659,-530.806,-292.473)">
            <rect x="37.388" y="2.043" width="22.397" height="14.247" style="fill:none;stroke:rgb(32,6,118);stroke-opacity:0.7;stroke-width:0.02px;"/>
        </g>
        <g transform="matrix(1.198,0,0,0.958552,1304.07,-213.396)">
            <g transform="matrix(13,0,0,13,10.0579,0)">
                <path d="M0.491,0L0.438,-0.145L0.193,-0.145L0.144,0L0.002,0L0.288,-0.725L0.343,-0.725L0.631,0L0.491,0ZM0.315,-0.506L0.229,-0.242L0.401,-0.242L0.315,-0.506Z" style="fill:white;fill-opacity:0.9;fill-rule:nonzero;"/>
            </g>
            <g transform="matrix(13,0,0,13,18.2908,0)">
                <path d="M0.477,0L0.286,-0.295C0.266,-0.296 0.24,-0.297 0.205,-0.299L0.205,0L0.073,0L0.073,-0.715C0.08,-0.715 0.108,-0.717 0.156,-0.719C0.204,-0.721 0.242,-0.723 0.271,-0.723C0.453,-0.723 0.544,-0.652 0.544,-0.512C0.544,-0.469 0.531,-0.431 0.506,-0.396C0.481,-0.361 0.45,-0.337 0.412,-0.322L0.623,0L0.477,0ZM0.205,-0.605L0.205,-0.406C0.229,-0.404 0.246,-0.403 0.259,-0.403C0.312,-0.403 0.351,-0.411 0.375,-0.426C0.4,-0.441 0.412,-0.47 0.412,-0.513C0.412,-0.548 0.399,-0.573 0.373,-0.587C0.346,-0.601 0.305,-0.608 0.248,-0.608C0.234,-0.608 0.22,-0.607 0.205,-0.605Z" style="fill:white;fill-opacity:0.9;fill-rule:nonzero;"/>
            </g>
            <g transform="matrix(13,0,0,13,26.2317,0)">
                <path d="M0.2,-0.603L0.2,-0.435L0.437,-0.435L0.437,-0.327L0.2,-0.327L0.2,-0.113L0.524,-0.113L0.524,0L0.073,0L0.073,-0.715L0.53,-0.715L0.53,-0.603L0.2,-0.603Z" style="fill:white;fill-opacity:0.9;fill-rule:nonzero;"/>
            </g>
            <g transform="matrix(13,0,0,13,33.6267,0)">
                <path d="M0.542,0.01L0.195,-0.443L0.195,0L0.073,0L0.073,-0.715L0.134,-0.715L0.472,-0.284L0.472,-0.715L0.594,-0.715L0.594,0.01L0.542,0.01Z" style="fill:white;fill-opacity:0.9;fill-rule:nonzero;"/>
            </g>
            <g transform="matrix(13,0,0,13,42.304,0)">
                <path d="M0.491,0L0.438,-0.145L0.193,-0.145L0.144,0L0.002,0L0.288,-0.725L0.343,-0.725L0.631,0L0.491,0ZM0.315,-0.506L0.229,-0.242L0.401,-0.242L0.315,-0.506Z" style="fill:white;fill-opacity:0.9;fill-rule:nonzero;"/>
            </g>
        </g>
        <g transform="matrix(0.840359,0,0,0.840359,508.337,16.2108)">
            <g transform="matrix(1.198,0,0,0.958552,893.633,-224.914)">
                <g transform="matrix(9,0,0,9,64.0056,347.267)">
                    <path d="M0.919,0L0.762,0L0.762,-0.308C0.762,-0.391 0.732,-0.432 0.671,-0.432C0.643,-0.432 0.62,-0.42 0.602,-0.395C0.583,-0.369 0.574,-0.339 0.574,-0.303L0.574,0L0.417,0L0.417,-0.312C0.417,-0.392 0.387,-0.432 0.327,-0.432C0.298,-0.432 0.274,-0.42 0.256,-0.396C0.238,-0.372 0.229,-0.341 0.229,-0.301L0.229,0L0.072,0L0.072,-0.54L0.229,-0.54L0.229,-0.456L0.231,-0.456C0.25,-0.486 0.275,-0.51 0.307,-0.528C0.338,-0.545 0.371,-0.553 0.405,-0.553C0.481,-0.553 0.533,-0.519 0.561,-0.451C0.603,-0.519 0.663,-0.553 0.743,-0.553C0.86,-0.553 0.919,-0.481 0.919,-0.335L0.919,0Z" style="fill:white;fill-opacity:0.9;fill-rule:nonzero;"/>
                </g>
                <g transform="matrix(9,0,0,9,72.978,347.267)">
                    <path d="M0.551,-0.226L0.196,-0.226C0.201,-0.142 0.252,-0.1 0.347,-0.1C0.407,-0.1 0.459,-0.115 0.505,-0.144L0.505,-0.028C0.456,-0.001 0.391,0.013 0.312,0.013C0.226,0.013 0.159,-0.011 0.111,-0.06C0.063,-0.108 0.04,-0.176 0.04,-0.262C0.04,-0.348 0.065,-0.419 0.116,-0.472C0.167,-0.526 0.23,-0.553 0.307,-0.553C0.384,-0.553 0.443,-0.53 0.487,-0.484C0.53,-0.437 0.551,-0.374 0.551,-0.292L0.551,-0.226ZM0.404,-0.324C0.404,-0.405 0.372,-0.445 0.306,-0.445C0.279,-0.445 0.255,-0.434 0.234,-0.412C0.214,-0.39 0.201,-0.361 0.195,-0.324L0.404,-0.324Z" style="fill:white;fill-opacity:0.9;fill-rule:nonzero;"/>
                </g>
                <g transform="matrix(9,0,0,9,78.3513,347.267)">
                    <rect x="0.069" y="-0.799" width="0.157" height="0.799" style="fill:white;fill-opacity:0.9;fill-rule:nonzero;"/>
                </g>
                <g transform="matrix(9,0,0,9,81.1494,347.267)">
                    <path d="M0.593,0L0.436,0L0.436,-0.076L0.433,-0.076C0.395,-0.017 0.339,0.013 0.264,0.013C0.195,0.013 0.141,-0.011 0.1,-0.06C0.06,-0.108 0.04,-0.174 0.04,-0.258C0.04,-0.346 0.062,-0.418 0.108,-0.472C0.153,-0.526 0.212,-0.553 0.286,-0.553C0.356,-0.553 0.405,-0.528 0.433,-0.477L0.436,-0.477L0.438,-0.707L0.593,-0.658L0.593,0ZM0.438,-0.306C0.438,-0.342 0.427,-0.372 0.405,-0.396C0.383,-0.42 0.356,-0.432 0.323,-0.432C0.284,-0.432 0.254,-0.417 0.232,-0.386C0.21,-0.356 0.199,-0.315 0.199,-0.263C0.199,-0.213 0.21,-0.175 0.231,-0.148C0.252,-0.121 0.281,-0.108 0.318,-0.108C0.353,-0.108 0.382,-0.122 0.404,-0.15C0.427,-0.179 0.438,-0.215 0.438,-0.261L0.438,-0.306Z" style="fill:white;fill-opacity:0.9;fill-rule:nonzero;"/>
                </g>
                <g transform="matrix(9,0,0,9,87.2654,347.267)">
                    <path d="M0.551,-0.226L0.196,-0.226C0.201,-0.142 0.252,-0.1 0.347,-0.1C0.407,-0.1 0.459,-0.115 0.505,-0.144L0.505,-0.028C0.456,-0.001 0.391,0.013 0.312,0.013C0.226,0.013 0.159,-0.011 0.111,-0.06C0.063,-0.108 0.04,-0.176 0.04,-0.262C0.04,-0.348 0.065,-0.419 0.116,-0.472C0.167,-0.526 0.23,-0.553 0.307,-0.553C0.384,-0.553 0.443,-0.53 0.487,-0.484C0.53,-0.437 0.551,-0.374 0.551,-0.292L0.551,-0.226ZM0.404,-0.324C0.404,-0.405 0.372,-0.445 0.306,-0.445C0.279,-0.445 0.255,-0.434 0.234,-0.412C0.214,-0.39 0.201,-0.361 0.195,-0.324L0.404,-0.324Z" style="fill:white;fill-opacity:0.9;fill-rule:nonzero;"/>
                </g>
                <g transform="matrix(9,0,0,9,92.6386,347.267)">
                    <path d="M0.416,-0.397C0.397,-0.408 0.374,-0.414 0.346,-0.414C0.31,-0.414 0.282,-0.4 0.261,-0.373C0.24,-0.345 0.229,-0.308 0.229,-0.26L0.229,0L0.072,0L0.072,-0.54L0.229,-0.54L0.229,-0.438L0.231,-0.438C0.257,-0.512 0.305,-0.549 0.374,-0.549C0.392,-0.549 0.406,-0.547 0.416,-0.543L0.416,-0.397Z" style="fill:white;fill-opacity:0.9;fill-rule:nonzero;"/>
                </g>
            </g>
            <g transform="matrix(1.198,0,0,0.958552,893.495,-231.786)">
                <g transform="matrix(9,0,0,9,68.6657,347.267)">
                    <path d="M0.058,-0.145C0.112,-0.112 0.165,-0.096 0.216,-0.096C0.281,-0.096 0.314,-0.113 0.314,-0.148C0.314,-0.173 0.287,-0.193 0.233,-0.21C0.166,-0.231 0.12,-0.254 0.095,-0.28C0.07,-0.305 0.058,-0.34 0.058,-0.383C0.058,-0.436 0.079,-0.478 0.122,-0.508C0.165,-0.538 0.221,-0.553 0.291,-0.553C0.34,-0.553 0.388,-0.546 0.434,-0.531L0.434,-0.407C0.392,-0.432 0.346,-0.444 0.295,-0.444C0.27,-0.444 0.25,-0.44 0.235,-0.431C0.22,-0.422 0.212,-0.41 0.212,-0.396C0.212,-0.371 0.235,-0.351 0.28,-0.335C0.329,-0.319 0.366,-0.304 0.39,-0.291C0.415,-0.278 0.434,-0.26 0.447,-0.238C0.459,-0.216 0.466,-0.191 0.466,-0.163C0.466,-0.107 0.444,-0.064 0.399,-0.033C0.354,-0.002 0.295,0.013 0.22,0.013C0.162,0.013 0.107,0.004 0.058,-0.015L0.058,-0.145Z" style="fill:white;fill-opacity:0.9;fill-rule:nonzero;"/>
                </g>
                <g transform="matrix(9,0,0,9,73.2436,347.267)">
                    <path d="M0.39,-0.006C0.366,0.007 0.33,0.013 0.282,0.013C0.167,0.013 0.11,-0.047 0.11,-0.167L0.11,-0.422L0.021,-0.422L0.021,-0.54L0.11,-0.54L0.11,-0.659L0.267,-0.704L0.267,-0.54L0.39,-0.54L0.39,-0.422L0.267,-0.422L0.267,-0.195C0.267,-0.137 0.289,-0.108 0.335,-0.108C0.353,-0.108 0.371,-0.114 0.39,-0.124L0.39,-0.006Z" style="fill:white;fill-opacity:0.9;fill-rule:nonzero;"/>
                </g>
                <g transform="matrix(6.6,0,0,6.6,77.1051,347.267)">
                    <path d="M0.106,0.032L0.043,-0.021L0.122,-0.115C0.067,-0.183 0.04,-0.268 0.04,-0.368C0.04,-0.487 0.075,-0.584 0.144,-0.658C0.213,-0.732 0.305,-0.769 0.418,-0.769C0.5,-0.769 0.571,-0.748 0.63,-0.706L0.698,-0.785L0.761,-0.733L0.689,-0.65C0.748,-0.581 0.778,-0.493 0.778,-0.384C0.778,-0.266 0.743,-0.17 0.674,-0.097C0.605,-0.023 0.516,0.013 0.406,0.013C0.32,0.013 0.246,-0.011 0.182,-0.059L0.106,0.032ZM0.54,-0.6C0.506,-0.628 0.463,-0.642 0.413,-0.642C0.349,-0.642 0.297,-0.617 0.258,-0.569C0.218,-0.52 0.199,-0.455 0.199,-0.375C0.199,-0.319 0.208,-0.273 0.227,-0.234L0.54,-0.6ZM0.275,-0.165C0.311,-0.131 0.356,-0.114 0.409,-0.114C0.473,-0.114 0.524,-0.137 0.563,-0.184C0.601,-0.231 0.62,-0.294 0.62,-0.374C0.62,-0.435 0.61,-0.488 0.588,-0.533L0.275,-0.165Z" style="fill:white;fill-opacity:0.9;fill-rule:nonzero;"/>
                </g>
                <g transform="matrix(9,0,0,9,82.6053,347.267)">
                    <path d="M0.551,-0.226L0.196,-0.226C0.201,-0.142 0.252,-0.1 0.347,-0.1C0.407,-0.1 0.459,-0.115 0.505,-0.144L0.505,-0.028C0.456,-0.001 0.391,0.013 0.312,0.013C0.226,0.013 0.159,-0.011 0.111,-0.06C0.063,-0.108 0.04,-0.176 0.04,-0.262C0.04,-0.348 0.065,-0.419 0.116,-0.472C0.167,-0.526 0.23,-0.553 0.307,-0.553C0.384,-0.553 0.443,-0.53 0.487,-0.484C0.53,-0.437 0.551,-0.374 0.551,-0.292L0.551,-0.226ZM0.404,-0.324C0.404,-0.405 0.372,-0.445 0.306,-0.445C0.279,-0.445 0.255,-0.434 0.234,-0.412C0.214,-0.39 0.201,-0.361 0.195,-0.324L0.404,-0.324Z" style="fill:white;fill-opacity:0.9;fill-rule:nonzero;"/>
                </g>
                <g transform="matrix(9,0,0,9,87.9786,347.267)">
                    <path d="M0.416,-0.397C0.397,-0.408 0.374,-0.414 0.346,-0.414C0.31,-0.414 0.282,-0.4 0.261,-0.373C0.24,-0.345 0.229,-0.308 0.229,-0.26L0.229,0L0.072,0L0.072,-0.54L0.229,-0.54L0.229,-0.438L0.231,-0.438C0.257,-0.512 0.305,-0.549 0.374,-0.549C0.392,-0.549 0.406,-0.547 0.416,-0.543L0.416,-0.397Z" style="fill:white;fill-opacity:0.9;fill-rule:nonzero;"/>
                </g>
            </g>
        </g>
        <g transform="matrix(1.12733,0,0,1.34527,1068.09,-23.865)">
            <path d="M73.138,56.924L5.107,56.924L5.107,80.854C5.107,82.427 7.012,83.704 9.358,83.704L68.887,83.704C71.233,83.704 73.138,82.427 73.138,80.854L73.138,56.924Z" style="fill-opacity:0.5;"/>
        </g>
        <g transform="matrix(1.12733,0,0,3.26382,1068.09,-220.482)">
            <rect x="5.107" y="56.924" width="68.031" height="26.78" style="fill:white;fill-opacity:0.5;"/>
        </g>
        <g transform="matrix(2.19107,0,0,1.34527,906.897,-23.865)">
            <path d="M73.138,59.774C73.138,58.201 72.158,56.924 70.95,56.924L7.294,56.924C6.087,56.924 5.107,58.201 5.107,59.774L5.107,80.854C5.107,82.427 6.087,83.704 7.294,83.704L70.95,83.704C72.158,83.704 73.138,82.427 73.138,80.854L73.138,59.774Z" style="fill-opacity:0.5;"/>
        </g>
        <g transform="matrix(2.19107,0,0,4.7847,906.897,-435.208)">
            <path d="M73.138,57.725C73.138,57.283 72.158,56.924 70.95,56.924L7.294,56.924C6.087,56.924 5.107,57.283 5.107,57.725L5.107,83.704L73.138,83.704L73.138,57.725Z" style="fill:white;fill-opacity:0.3;"/>
        </g>
        <g transform="matrix(1.12733,0,0,4.7847,1068.09,-435.208)">
            <rect x="5.107" y="56.924" width="68.031" height="26.78" style="fill:white;fill-opacity:0.3;"/>
        </g>
        <g transform="matrix(2.19107,0,0,3.2644,906.897,-220.53)">
            <path d="M73.138,56.924L5.107,56.924L5.107,82.529C5.107,83.178 6.087,83.704 7.294,83.704L70.95,83.704C72.158,83.704 73.138,83.178 73.138,82.529L73.138,56.924Z" style="fill:white;fill-opacity:0.5;"/>
        </g>
        <g transform="matrix(2.19107,0,0,1.58696,906.897,-295.68)">
            <path d="M73.138,59.34C73.138,58.006 72.158,56.924 70.95,56.924L7.294,56.924C6.087,56.924 5.107,58.006 5.107,59.34L5.107,81.288C5.107,82.621 6.087,83.704 7.294,83.704L70.95,83.704C72.158,83.704 73.138,82.621 73.138,81.288L73.138,59.34Z" style="fill:white;fill-opacity:0.5;"/>
        </g>
        <g transform="matrix(1.12733,0,0,0.357931,1068.09,-225.719)">
            <path d="M73.138,67.636C73.138,61.724 71.233,56.924 68.887,56.924L9.358,56.924C7.012,56.924 5.107,61.724 5.107,67.636L5.107,83.704L73.138,83.704L73.138,67.636Z" style="fill-opacity:0.5;"/>
        </g>
        <g transform="matrix(1.12733,0,0,1.34527,1524.13,-23.865)">
            <path d="M73.138,56.924L5.107,56.924L5.107,80.854C5.107,82.427 7.012,83.704 9.358,83.704L68.887,83.704C71.233,83.704 73.138,82.427 73.138,80.854L73.138,56.924Z" style="fill-opacity:0.5;"/>
        </g>
        <g transform="matrix(2.19107,0,0,1.34527,1602.45,-23.865)">
            <path d="M73.138,59.774C73.138,58.201 72.158,56.924 70.95,56.924L7.294,56.924C6.087,56.924 5.107,58.201 5.107,59.774L5.107,80.854C5.107,82.427 6.087,83.704 7.294,83.704L70.95,83.704C72.158,83.704 73.138,82.427 73.138,80.854L73.138,59.774Z" style="fill-opacity:0.5;"/>
        </g>
        <g transform="matrix(2.19107,0,0,4.7847,1602.45,-435.208)">
            <path d="M73.138,57.725C73.138,57.283 72.158,56.924 70.95,56.924L7.294,56.924C6.087,56.924 5.107,57.283 5.107,57.725L5.107,83.704L73.138,83.704L73.138,57.725Z" style="fill:white;fill-opacity:0.3;"/>
        </g>
        <g transform="matrix(2.19107,0,0,3.26382,1602.45,-220.498)">
            <path d="M73.138,56.924L5.107,56.924L5.107,82.529C5.107,83.178 6.087,83.704 7.294,83.704L70.95,83.704C72.158,83.704 73.138,83.178 73.138,82.529L73.138,56.924Z" style="fill:white;fill-opacity:0.5;"/>
        </g>
        <g transform="matrix(2.19107,0,0,1.58696,1602.45,-295.68)">
            <path d="M73.138,59.34C73.138,58.006 72.158,56.924 70.95,56.924L7.294,56.924C6.087,56.924 5.107,58.006 5.107,59.34L5.107,81.288C5.107,82.621 6.087,83.704 7.294,83.704L70.95,83.704C72.158,83.704 73.138,82.621 73.138,81.288L73.138,59.34Z" style="fill:white;fill-opacity:0.5;"/>
        </g>
        <g transform="matrix(1.12733,0,0,3.26382,1524.13,-220.482)">
            <rect x="5.107" y="56.924" width="68.031" height="26.78" style="fill:white;fill-opacity:0.5;"/>
        </g>
        <g transform="matrix(1.12733,0,0,1.22903,1524.13,-265.719)">
            <rect x="5.107" y="56.924" width="68.031" height="26.78" style="fill:white;fill-opacity:0.5;"/>
        </g>
        <g transform="matrix(1.12733,0,0,1.22903,1068.09,-265.719)">
            <rect x="5.107" y="56.924" width="68.031" height="26.78" style="fill:white;fill-opacity:0.5;"/>
        </g>
        <g transform="matrix(1.12733,0,0,4.7847,1524.13,-435.208)">
            <rect x="5.107" y="56.924" width="68.031" height="26.78" style="fill:white;fill-opacity:0.3;"/>
        </g>
        <g transform="matrix(1.78972,0,0,1.42553,1133.42,-280.629)">
            <path d="M217.954,55.502C217.954,54.017 216.755,52.812 215.277,52.812L15.985,52.812C14.507,52.812 13.307,54.017 13.307,55.502L13.307,256.42C13.307,257.904 14.507,259.11 15.985,259.11L215.277,259.11C216.755,259.11 217.954,257.904 217.954,256.42L217.954,55.502Z" style="fill-opacity:0.9;"/>
        </g>
        <g transform="matrix(0.983557,0,0,1.18403,22.0392,38.0876)">
            <g transform="matrix(5.25667,0,0,8.94815,1134.72,-710.331)">
                <rect x="5.107" y="56.924" width="68.031" height="26.78" style="fill:rgb(0,16,90);"/>
                <path d="M73.138,83.704L5.107,83.704L5.107,56.924L73.138,56.924L73.138,83.704ZM5.339,57.014L5.339,83.614L72.906,83.614L72.906,57.014L5.339,57.014Z" style="fill:white;fill-opacity:0.1;"/>
            </g>
            <g transform="matrix(1.02935,0,0,1.03514,-30.089,-3.81206)">
                <g transform="matrix(1.198,0,0,0.958552,963,-235.7)">
                    <path d="M162.555,167.946L452.499,167.946" style="fill:none;stroke:white;stroke-opacity:0.1;stroke-width:0.67px;stroke-linecap:butt;"/>
                </g>
                <g transform="matrix(1.198,0,0,0.958552,963,-206.397)">
                    <path d="M162.555,167.946L452.499,167.946" style="fill:none;stroke:white;stroke-opacity:0.1;stroke-width:0.67px;stroke-linecap:butt;"/>
                </g>
                <g transform="matrix(1.198,0,0,0.958552,963,-177.095)">
                    <path d="M162.555,167.946L452.499,167.946" style="fill:none;stroke:white;stroke-opacity:0.1;stroke-width:0.67px;stroke-linecap:butt;"/>
                </g>
                <g transform="matrix(1.198,0,0,0.958552,963,-147.793)">
                    <path d="M162.555,167.946L452.499,167.946" style="fill:none;stroke:white;stroke-opacity:0.1;stroke-width:0.67px;stroke-linecap:butt;"/>
                </g>
                <g transform="matrix(1.198,0,0,0.958552,963,-265.002)">
                    <path d="M162.555,167.946L452.499,167.946" style="fill:none;stroke:white;stroke-opacity:0.1;stroke-width:0.67px;stroke-linecap:butt;"/>
                </g>
                <g transform="matrix(1.198,0,0,0.958552,963,-294.304)">
                    <path d="M162.555,167.946L452.499,167.946" style="fill:none;stroke:white;stroke-opacity:0.1;stroke-width:0.67px;stroke-linecap:butt;"/>
                </g>
                <g transform="matrix(1.198,0,0,0.958552,963,-323.606)">
                    <path d="M162.555,167.946L452.499,167.946" style="fill:none;stroke:white;stroke-opacity:0.1;stroke-width:0.67px;stroke-linecap:butt;"/>
                </g>
            </g>
            <g transform="matrix(1.02935,0,0,1.03514,-22.3359,-6.48294)">
                <g transform="matrix(1.198,0,0,0.958552,971.341,-323.606)">
                    <path d="M294.25,141.591L294.25,383.101" style="fill:none;stroke:white;stroke-opacity:0.1;stroke-width:0.75px;stroke-linecap:butt;"/>
                </g>
                <g transform="matrix(1.198,0,0,0.958552,1015,-323.606)">
                    <path d="M294.25,141.591L294.25,383.101" style="fill:none;stroke:white;stroke-opacity:0.1;stroke-width:0.75px;stroke-linecap:butt;"/>
                </g>
                <g transform="matrix(1.198,0,0,0.958552,1058.66,-323.606)">
                    <path d="M294.25,141.591L294.25,383.101" style="fill:none;stroke:white;stroke-opacity:0.1;stroke-width:0.75px;stroke-linecap:butt;"/>
                </g>
                <g transform="matrix(1.198,0,0,0.958552,1102.31,-323.599)">
                    <path d="M294.25,141.591L294.25,383.101" style="fill:none;stroke:white;stroke-opacity:0.1;stroke-width:0.75px;stroke-linecap:butt;"/>
                </g>
                <g transform="matrix(1.198,0,0,0.958552,840.367,-323.599)">
                    <path d="M294.25,141.591L294.25,383.101" style="fill:none;stroke:white;stroke-opacity:0.1;stroke-width:0.75px;stroke-linecap:butt;"/>
                </g>
                <g transform="matrix(1.198,0,0,0.958552,927.683,-323.606)">
                    <path d="M294.25,141.591L294.25,383.101" style="fill:none;stroke:white;stroke-opacity:0.1;stroke-width:0.75px;stroke-linecap:butt;"/>
                </g>
                <g transform="matrix(1.198,0,0,0.958552,884.025,-323.606)">
                    <path d="M294.25,141.591L294.25,383.101" style="fill:none;stroke:white;stroke-opacity:0.1;stroke-width:0.75px;stroke-linecap:butt;"/>
                </g>
            </g>
        </g>
        <g transform="matrix(1.67494,0,0,0.982374,897.009,-246.19)">
            <path d="M25.865,66.611C25.865,66.072 25.544,65.635 25.149,65.635L23.719,65.635C23.324,65.635 23.004,66.072 23.004,66.611L23.004,325.401C23.004,325.94 23.324,326.377 23.719,326.377L25.149,326.377C25.544,326.377 25.865,325.94 25.865,325.401L25.865,66.611Z" style="fill:white;fill-opacity:0.4;"/>
        </g>
        <g transform="matrix(1.67494,0,0,0.982374,1006.37,-246.19)">
            <path d="M25.865,66.611C25.865,66.072 25.544,65.635 25.149,65.635L23.719,65.635C23.324,65.635 23.004,66.072 23.004,66.611L23.004,325.401C23.004,325.94 23.324,326.377 23.719,326.377L25.149,326.377C25.544,326.377 25.865,325.94 25.865,325.401L25.865,66.611Z" style="fill:white;fill-opacity:0.4;"/>
        </g>
        <g transform="matrix(1.67494,0,0,0.982374,933.464,-246.19)">
            <path d="M25.865,66.611C25.865,66.072 25.544,65.635 25.149,65.635L23.719,65.635C23.324,65.635 23.004,66.072 23.004,66.611L23.004,325.401C23.004,325.94 23.324,326.377 23.719,326.377L25.149,326.377C25.544,326.377 25.865,325.94 25.865,325.401L25.865,66.611Z" style="fill:white;fill-opacity:0.4;"/>
        </g>
        <g transform="matrix(1.67494,0,0,0.982374,969.919,-246.19)">
            <path d="M25.865,66.611C25.865,66.072 25.544,65.635 25.149,65.635L23.719,65.635C23.324,65.635 23.004,66.072 23.004,66.611L23.004,325.401C23.004,325.94 23.324,326.377 23.719,326.377L25.149,326.377C25.544,326.377 25.865,325.94 25.865,325.401L25.865,66.611Z" style="fill:white;fill-opacity:0.4;"/>
        </g>
        <g transform="matrix(1.67494,0,0,0.982374,1052.98,-246.19)">
            <path d="M25.865,66.611C25.865,66.072 25.544,65.635 25.149,65.635L23.719,65.635C23.324,65.635 23.004,66.072 23.004,66.611L23.004,325.401C23.004,325.94 23.324,326.377 23.719,326.377L25.149,326.377C25.544,326.377 25.865,325.94 25.865,325.401L25.865,66.611Z" style="fill:white;fill-opacity:0.4;"/>
        </g>
        <g transform="matrix(1.67494,0,0,0.982374,1089.55,-246.19)">
            <path d="M25.865,66.611C25.865,66.072 25.544,65.635 25.149,65.635L23.719,65.635C23.324,65.635 23.004,66.072 23.004,66.611L23.004,325.401C23.004,325.94 23.324,326.377 23.719,326.377L25.149,326.377C25.544,326.377 25.865,325.94 25.865,325.401L25.865,66.611Z" style="fill:white;fill-opacity:0.4;"/>
        </g>
        <g transform="matrix(1.67494,0,0,0.982374,1701.92,-246.19)">
            <path d="M25.865,66.611C25.865,66.072 25.544,65.635 25.149,65.635L23.719,65.635C23.324,65.635 23.004,66.072 23.004,66.611L23.004,325.401C23.004,325.94 23.324,326.377 23.719,326.377L25.149,326.377C25.544,326.377 25.865,325.94 25.865,325.401L25.865,66.611Z" style="fill:white;fill-opacity:0.4;"/>
        </g>
        <g transform="matrix(1.67494,0,0,0.982374,1629.01,-246.19)">
            <path d="M25.865,66.611C25.865,66.072 25.544,65.635 25.149,65.635L23.719,65.635C23.324,65.635 23.004,66.072 23.004,66.611L23.004,325.401C23.004,325.94 23.324,326.377 23.719,326.377L25.149,326.377C25.544,326.377 25.865,325.94 25.865,325.401L25.865,66.611Z" style="fill:white;fill-opacity:0.4;"/>
        </g>
        <g transform="matrix(1.67494,0,0,0.982374,1665.47,-246.19)">
            <path d="M25.865,66.611C25.865,66.072 25.544,65.635 25.149,65.635L23.719,65.635C23.324,65.635 23.004,66.072 23.004,66.611L23.004,325.401C23.004,325.94 23.324,326.377 23.719,326.377L25.149,326.377C25.544,326.377 25.865,325.94 25.865,325.401L25.865,66.611Z" style="fill:white;fill-opacity:0.4;"/>
        </g>
        <g transform="matrix(1.67494,0,0,0.982374,1592.56,-246.19)">
            <path d="M25.865,66.611C25.865,66.072 25.544,65.635 25.149,65.635L23.719,65.635C23.324,65.635 23.004,66.072 23.004,66.611L23.004,325.401C23.004,325.94 23.324,326.377 23.719,326.377L25.149,326.377C25.544,326.377 25.865,325.94 25.865,325.401L25.865,66.611Z" style="fill:white;fill-opacity:0.4;"/>
        </g>
        <g transform="matrix(1.67494,0,0,0.982374,1509.02,-246.19)">
            <path d="M25.865,66.611C25.865,66.072 25.544,65.635 25.149,65.635L23.719,65.635C23.324,65.635 23.004,66.072 23.004,66.611L23.004,325.401C23.004,325.94 23.324,326.377 23.719,326.377L25.149,326.377C25.544,326.377 25.865,325.94 25.865,325.401L25.865,66.611Z" style="fill:white;fill-opacity:0.4;"/>
        </g>
        <g transform="matrix(1.67494,0,0,0.982374,1545.59,-246.19)">
            <path d="M25.865,66.611C25.865,66.072 25.544,65.635 25.149,65.635L23.719,65.635C23.324,65.635 23.004,66.072 23.004,66.611L23.004,325.401C23.004,325.94 23.324,326.377 23.719,326.377L25.149,326.377C25.544,326.377 25.865,325.94 25.865,325.401L25.865,66.611Z" style="fill:white;fill-opacity:0.4;"/>
        </g>
        <g transform="matrix(1.25309,0,0,1.34672,906.006,-306.143)">
            <path d="M38.128,207.245C38.128,206.459 37.271,205.822 36.216,205.822L14.743,205.822C13.688,205.822 12.831,206.459 12.831,207.245L12.831,213.815C12.831,214.601 13.688,215.238 14.743,215.238L36.216,215.238C37.271,215.238 38.128,214.601 38.128,213.815L38.128,207.245Z" style="fill:rgb(0,16,90);stroke:rgb(77,77,77);stroke-width:0.34px;stroke-linecap:square;"/>
        </g>
        <g transform="matrix(1.255,0,0,1.34672,942.412,-306.143)">
            <path d="M38.128,207.245C38.128,206.459 37.272,205.822 36.218,205.822L14.74,205.822C13.687,205.822 12.831,206.459 12.831,207.245L12.831,213.815C12.831,214.601 13.687,215.238 14.74,215.238L36.218,215.238C37.272,215.238 38.128,214.601 38.128,213.815L38.128,207.245Z" style="fill:rgb(0,16,90);stroke:rgb(77,77,77);stroke-width:0.34px;stroke-linecap:square;"/>
        </g>
        <g transform="matrix(1.255,0,0,1.34672,978.868,-306.143)">
            <path d="M38.128,207.245C38.128,206.459 37.272,205.822 36.218,205.822L14.74,205.822C13.687,205.822 12.831,206.459 12.831,207.245L12.831,213.815C12.831,214.601 13.687,215.238 14.74,215.238L36.218,215.238C37.272,215.238 38.128,214.601 38.128,213.815L38.128,207.245Z" style="fill:rgb(0,16,90);stroke:rgb(77,77,77);stroke-width:0.34px;stroke-linecap:square;"/>
        </g>
        <g transform="matrix(1.255,0,0,1.34672,1015.32,-306.143)">
            <path d="M38.128,207.245C38.128,206.459 37.272,205.822 36.218,205.822L14.74,205.822C13.687,205.822 12.831,206.459 12.831,207.245L12.831,213.815C12.831,214.601 13.687,215.238 14.74,215.238L36.218,215.238C37.272,215.238 38.128,214.601 38.128,213.815L38.128,207.245Z" style="fill:rgb(0,16,90);stroke:rgb(77,77,77);stroke-width:0.34px;stroke-linecap:square;"/>
        </g>
        <g transform="matrix(0.799203,0,0,1.34672,1073.54,-306.143)">
            <path d="M38.128,207.245C38.128,206.459 36.784,205.822 35.13,205.822L15.829,205.822C14.175,205.822 12.831,206.459 12.831,207.245L12.831,213.815C12.831,214.601 14.175,215.238 15.829,215.238L35.13,215.238C36.784,215.238 38.128,214.601 38.128,213.815L38.128,207.245Z" style="fill:rgb(0,16,90);stroke:rgb(77,77,77);stroke-width:0.39px;stroke-linecap:square;"/>
        </g>
        <g transform="matrix(0.799203,0,0,1.34672,1110.12,-306.143)">
            <path d="M38.128,207.245C38.128,206.459 36.784,205.822 35.13,205.822L15.829,205.822C14.175,205.822 12.831,206.459 12.831,207.245L12.831,213.815C12.831,214.601 14.175,215.238 15.829,215.238L35.13,215.238C36.784,215.238 38.128,214.601 38.128,213.815L38.128,207.245Z" style="fill:rgb(0,16,90);stroke:rgb(77,77,77);stroke-width:0.39px;stroke-linecap:square;"/>
        </g>
        <g transform="matrix(1.25309,0,0,1.34672,1601.55,-306.143)">
            <path d="M38.128,207.245C38.128,206.459 37.271,205.822 36.216,205.822L14.743,205.822C13.688,205.822 12.831,206.459 12.831,207.245L12.831,213.815C12.831,214.601 13.688,215.238 14.743,215.238L36.216,215.238C37.271,215.238 38.128,214.601 38.128,213.815L38.128,207.245Z" style="fill:rgb(0,16,90);stroke:rgb(77,77,77);stroke-width:0.34px;stroke-linecap:square;"/>
        </g>
        <g transform="matrix(1.255,0,0,1.34672,1637.96,-306.143)">
            <path d="M38.128,207.245C38.128,206.459 37.272,205.822 36.218,205.822L14.74,205.822C13.687,205.822 12.831,206.459 12.831,207.245L12.831,213.815C12.831,214.601 13.687,215.238 14.74,215.238L36.218,215.238C37.272,215.238 38.128,214.601 38.128,213.815L38.128,207.245Z" style="fill:rgb(0,16,90);stroke:rgb(77,77,77);stroke-width:0.34px;stroke-linecap:square;"/>
        </g>
        <g transform="matrix(1.255,0,0,1.34672,1674.42,-306.143)">
            <path d="M38.128,207.245C38.128,206.459 37.272,205.822 36.218,205.822L14.74,205.822C13.687,205.822 12.831,206.459 12.831,207.245L12.831,213.815C12.831,214.601 13.687,215.238 14.74,215.238L36.218,215.238C37.272,215.238 38.128,214.601 38.128,213.815L38.128,207.245Z" style="fill:rgb(0,16,90);stroke:rgb(77,77,77);stroke-width:0.34px;stroke-linecap:square;"/>
        </g>
        <g transform="matrix(1.255,0,0,1.34672,1710.87,-306.143)">
            <path d="M38.128,207.245C38.128,206.459 37.272,205.822 36.218,205.822L14.74,205.822C13.687,205.822 12.831,206.459 12.831,207.245L12.831,213.815C12.831,214.601 13.687,215.238 14.74,215.238L36.218,215.238C37.272,215.238 38.128,214.601 38.128,213.815L38.128,207.245Z" style="fill:rgb(0,16,90);stroke:rgb(77,77,77);stroke-width:0.34px;stroke-linecap:square;"/>
        </g>
        <g transform="matrix(0.799203,0,0,1.34672,1529.58,-306.143)">
            <path d="M38.128,207.245C38.128,206.459 36.784,205.822 35.13,205.822L15.829,205.822C14.175,205.822 12.831,206.459 12.831,207.245L12.831,213.815C12.831,214.601 14.175,215.238 15.829,215.238L35.13,215.238C36.784,215.238 38.128,214.601 38.128,213.815L38.128,207.245Z" style="fill:rgb(0,16,90);stroke:rgb(77,77,77);stroke-width:0.39px;stroke-linecap:square;"/>
        </g>
        <g transform="matrix(0.799203,0,0,1.34672,1566.15,-306.143)">
            <path d="M38.128,207.245C38.128,206.459 36.784,205.822 35.13,205.822L15.829,205.822C14.175,205.822 12.831,206.459 12.831,207.245L12.831,213.815C12.831,214.601 14.175,215.238 15.829,215.238L35.13,215.238C36.784,215.238 38.128,214.601 38.128,213.815L38.128,207.245Z" style="fill:rgb(0,16,90);stroke:rgb(77,77,77);stroke-width:0.39px;stroke-linecap:square;"/>
        </g>
        <g transform="matrix(1.198,-1.2326e-32,0,0.958552,1062.48,-58.0776)">
            <g transform="matrix(6.4,0,0,6.4,35.3842,51.8924)">
                <path d="M0.039,-0.04L0.086,-0.153C0.136,-0.118 0.185,-0.101 0.234,-0.101C0.308,-0.101 0.346,-0.127 0.346,-0.179C0.346,-0.203 0.337,-0.226 0.319,-0.249C0.302,-0.271 0.266,-0.295 0.211,-0.323C0.156,-0.351 0.119,-0.373 0.1,-0.391C0.081,-0.409 0.066,-0.43 0.056,-0.454C0.046,-0.479 0.041,-0.506 0.041,-0.535C0.041,-0.59 0.061,-0.636 0.101,-0.673C0.142,-0.709 0.194,-0.728 0.257,-0.728C0.34,-0.728 0.401,-0.712 0.439,-0.681L0.401,-0.572C0.356,-0.604 0.309,-0.62 0.26,-0.62C0.23,-0.62 0.208,-0.612 0.192,-0.596C0.176,-0.581 0.167,-0.561 0.167,-0.536C0.167,-0.495 0.213,-0.452 0.304,-0.408C0.352,-0.385 0.386,-0.363 0.407,-0.344C0.428,-0.324 0.444,-0.301 0.456,-0.275C0.467,-0.248 0.472,-0.219 0.472,-0.187C0.472,-0.129 0.449,-0.081 0.404,-0.044C0.358,-0.007 0.297,0.012 0.22,0.012C0.153,0.012 0.093,-0.005 0.039,-0.04Z" style="fill-rule:nonzero;"/>
            </g>
            <g transform="matrix(6.4,0,0,6.4,38.7841,51.8924)">
                <path d="M0.2,-0.603L0.2,-0.435L0.437,-0.435L0.437,-0.327L0.2,-0.327L0.2,-0.113L0.524,-0.113L0.524,0L0.073,0L0.073,-0.715L0.53,-0.715L0.53,-0.603L0.2,-0.603Z" style="fill-rule:nonzero;"/>
            </g>
            <g transform="matrix(6.4,0,0,6.4,42.5527,51.8924)">
                <path d="M0.751,0.148C0.73,0.151 0.708,0.152 0.686,0.152C0.625,0.152 0.57,0.14 0.519,0.115C0.468,0.091 0.428,0.056 0.4,0.012C0.388,0.014 0.368,0.016 0.342,0.016C0.248,0.016 0.174,-0.02 0.12,-0.09C0.066,-0.16 0.039,-0.251 0.039,-0.361C0.039,-0.466 0.067,-0.553 0.122,-0.623C0.177,-0.693 0.25,-0.728 0.342,-0.728C0.445,-0.728 0.524,-0.696 0.58,-0.631C0.636,-0.566 0.664,-0.477 0.664,-0.361C0.664,-0.19 0.608,-0.076 0.496,-0.019C0.532,0.02 0.59,0.04 0.673,0.04C0.703,0.04 0.729,0.036 0.751,0.03L0.751,0.148ZM0.171,-0.361C0.171,-0.286 0.186,-0.224 0.216,-0.173C0.246,-0.123 0.288,-0.098 0.342,-0.098C0.404,-0.098 0.452,-0.121 0.484,-0.167C0.516,-0.213 0.532,-0.278 0.532,-0.361C0.532,-0.53 0.469,-0.615 0.342,-0.615C0.286,-0.615 0.243,-0.592 0.214,-0.547C0.185,-0.502 0.171,-0.44 0.171,-0.361Z" style="fill-rule:nonzero;"/>
            </g>
        </g>
        <g transform="matrix(1.198,-1.2326e-32,0,0.958552,1062.66,-26.8199)">
            <g transform="matrix(6.4,0,0,6.4,31.4327,51.8924)">
                <path d="M0.2,-0.263L0.2,0L0.073,0L0.073,-0.715C0.158,-0.718 0.207,-0.72 0.222,-0.72C0.335,-0.72 0.417,-0.703 0.469,-0.668C0.522,-0.634 0.548,-0.579 0.548,-0.506C0.548,-0.342 0.451,-0.26 0.258,-0.26C0.243,-0.26 0.224,-0.261 0.2,-0.263ZM0.2,-0.605L0.2,-0.376C0.222,-0.374 0.239,-0.373 0.251,-0.373C0.309,-0.373 0.351,-0.382 0.378,-0.402C0.405,-0.421 0.418,-0.452 0.418,-0.496C0.418,-0.57 0.358,-0.607 0.239,-0.607C0.225,-0.607 0.213,-0.607 0.2,-0.605Z" style="fill-rule:nonzero;"/>
            </g>
            <g transform="matrix(6.4,0,0,6.4,35.317,51.8924)">
                <path d="M0.485,0L0.485,-0.322L0.2,-0.322L0.2,0L0.073,0L0.073,-0.715L0.2,-0.715L0.2,-0.435L0.485,-0.435L0.485,-0.715L0.61,-0.715L0.61,0L0.485,0Z" style="fill-rule:nonzero;"/>
            </g>
            <g transform="matrix(6.4,0,0,6.4,39.82,51.8924)">
                <path d="M0.491,0L0.438,-0.145L0.193,-0.145L0.144,0L0.002,0L0.288,-0.725L0.343,-0.725L0.631,0L0.491,0ZM0.315,-0.506L0.229,-0.242L0.401,-0.242L0.315,-0.506Z" style="fill-rule:nonzero;"/>
            </g>
            <g transform="matrix(6.4,0,0,6.4,44.0011,51.8924)">
                <path d="M0.039,-0.04L0.086,-0.153C0.136,-0.118 0.185,-0.101 0.234,-0.101C0.308,-0.101 0.346,-0.127 0.346,-0.179C0.346,-0.203 0.337,-0.226 0.319,-0.249C0.302,-0.271 0.266,-0.295 0.211,-0.323C0.156,-0.351 0.119,-0.373 0.1,-0.391C0.081,-0.409 0.066,-0.43 0.056,-0.454C0.046,-0.479 0.041,-0.506 0.041,-0.535C0.041,-0.59 0.061,-0.636 0.101,-0.673C0.142,-0.709 0.194,-0.728 0.257,-0.728C0.34,-0.728 0.401,-0.712 0.439,-0.681L0.401,-0.572C0.356,-0.604 0.309,-0.62 0.26,-0.62C0.23,-0.62 0.208,-0.612 0.192,-0.596C0.176,-0.581 0.167,-0.561 0.167,-0.536C0.167,-0.495 0.213,-0.452 0.304,-0.408C0.352,-0.385 0.386,-0.363 0.407,-0.344C0.428,-0.324 0.444,-0.301 0.456,-0.275C0.467,-0.248 0.472,-0.219 0.472,-0.187C0.472,-0.129 0.449,-0.081 0.404,-0.044C0.358,-0.007 0.297,0.012 0.22,0.012C0.153,0.012 0.093,-0.005 0.039,-0.04Z" style="fill-rule:nonzero;"/>
            </g>
            <g transform="matrix(6.4,0,0,6.4,47.401,51.8924)">
                <path d="M0.2,-0.603L0.2,-0.435L0.437,-0.435L0.437,-0.327L0.2,-0.327L0.2,-0.113L0.524,-0.113L0.524,0L0.073,0L0.073,-0.715L0.53,-0.715L0.53,-0.603L0.2,-0.603Z" style="fill-rule:nonzero;"/>
            </g>
        </g>
        <g transform="matrix(1.198,0,0,0.958552,1062.76,11.3072)">
            <g transform="matrix(6.4,0,0,6.4,35.9123,51.8924)">
                <path d="M0.74,0L0.617,0L0.543,-0.385L0.399,0.01L0.354,0.01L0.209,-0.385L0.132,0L0.01,0L0.154,-0.715L0.221,-0.715L0.376,-0.233L0.527,-0.715L0.594,-0.715L0.74,0Z" style="fill:white;fill-opacity:0.9;fill-rule:nonzero;"/>
            </g>
            <g transform="matrix(6.4,0,0,6.4,40.8091,51.8924)">
                <rect x="0.076" y="-0.715" width="0.127" height="0.715" style="fill:white;fill-opacity:0.9;fill-rule:nonzero;"/>
            </g>
            <g transform="matrix(6.4,0,0,6.4,42.7183,51.8924)">
                <path d="M0.46,0L0.291,-0.257L0.135,0L0.002,0L0.217,-0.371L0.02,-0.716L0.149,-0.715L0.294,-0.474L0.454,-0.715L0.587,-0.715L0.36,-0.369L0.598,0L0.46,0Z" style="fill:white;fill-opacity:0.9;fill-rule:nonzero;"/>
            </g>
        </g>
        <g transform="matrix(1.198,-1.2326e-32,0,0.958552,943.102,11.3821)">
            <g transform="matrix(6.4,0,0,6.4,34.7326,51.8924)">
                <path d="M0.039,-0.364C0.039,-0.466 0.067,-0.552 0.123,-0.622C0.179,-0.693 0.253,-0.728 0.347,-0.728C0.45,-0.728 0.528,-0.696 0.583,-0.632C0.637,-0.569 0.664,-0.479 0.664,-0.364C0.664,-0.249 0.636,-0.157 0.579,-0.089C0.522,-0.022 0.441,0.012 0.337,0.012C0.241,0.012 0.167,-0.021 0.116,-0.088C0.065,-0.155 0.039,-0.247 0.039,-0.364ZM0.171,-0.364C0.171,-0.28 0.185,-0.215 0.213,-0.169C0.242,-0.124 0.283,-0.101 0.337,-0.101C0.4,-0.101 0.449,-0.123 0.482,-0.168C0.516,-0.213 0.532,-0.278 0.532,-0.364C0.532,-0.531 0.47,-0.615 0.347,-0.615C0.29,-0.615 0.247,-0.593 0.216,-0.547C0.186,-0.502 0.171,-0.441 0.171,-0.364Z" style="fill:white;fill-opacity:0.9;fill-rule:nonzero;"/>
            </g>
            <g transform="matrix(6.4,0,0,6.4,39.3606,51.8924)">
                <path d="M0.073,-0.715L0.2,-0.715L0.2,-0.23C0.2,-0.192 0.212,-0.161 0.235,-0.137C0.259,-0.113 0.291,-0.101 0.332,-0.101C0.378,-0.101 0.414,-0.112 0.439,-0.136C0.465,-0.16 0.478,-0.192 0.478,-0.233L0.478,-0.715L0.604,-0.715L0.604,-0.223C0.604,-0.15 0.58,-0.092 0.531,-0.05C0.481,-0.009 0.415,0.012 0.333,0.012C0.25,0.012 0.186,-0.008 0.141,-0.049C0.096,-0.09 0.073,-0.148 0.073,-0.224L0.073,-0.715Z" style="fill:white;fill-opacity:0.9;fill-rule:nonzero;"/>
            </g>
            <g transform="matrix(6.4,0,0,6.4,43.8261,51.8924)">
                <path d="M0.364,-0.603L0.364,0L0.237,0L0.237,-0.603L0.01,-0.603L0.01,-0.715L0.602,-0.715L0.602,-0.603L0.364,-0.603Z" style="fill:white;fill-opacity:0.9;fill-rule:nonzero;"/>
            </g>
        </g>
        <g transform="matrix(1.198,0,0,0.958552,943.215,-182.693)">
            <g transform="matrix(6.4,0,0,6.4,39.3153,51.8924)">
                <path d="M0.46,0L0.291,-0.257L0.135,0L0.002,0L0.217,-0.371L0.02,-0.716L0.149,-0.715L0.294,-0.474L0.454,-0.715L0.587,-0.715L0.36,-0.369L0.598,0L0.46,0Z" style="fill-rule:nonzero;"/>
            </g>
        </g>
        <g transform="matrix(1.198,0,0,0.958552,1062.79,-182.693)">
            <g transform="matrix(6.4,0,0,6.4,39.3153,51.8924)">
                <path d="M0.46,0L0.291,-0.257L0.135,0L0.002,0L0.217,-0.371L0.02,-0.716L0.149,-0.715L0.294,-0.474L0.454,-0.715L0.587,-0.715L0.36,-0.369L0.598,0L0.46,0Z" style="fill-rule:nonzero;"/>
            </g>
        </g>
        <g transform="matrix(1.198,0,0,0.958552,943.215,-109.952)">
            <g transform="matrix(6.4,0,0,6.4,39.2747,51.8924)">
                <path d="M0.371,-0.293L0.371,0L0.244,0L0.244,-0.293L0.002,-0.715L0.137,-0.715L0.307,-0.41L0.477,-0.715L0.611,-0.715L0.371,-0.293Z" style="fill-rule:nonzero;"/>
            </g>
        </g>
        <g transform="matrix(1.198,0,0,0.958552,1062.79,-109.952)">
            <g transform="matrix(6.4,0,0,6.4,39.2747,51.8924)">
                <path d="M0.371,-0.293L0.371,0L0.244,0L0.244,-0.293L0.002,-0.715L0.137,-0.715L0.307,-0.41L0.477,-0.715L0.611,-0.715L0.371,-0.293Z" style="fill-rule:nonzero;"/>
            </g>
        </g>
        <g transform="matrix(1.198,0,0,0.958552,943.327,-58.0776)">
            <g transform="matrix(6.4,0,0,6.4,34.4186,51.8924)">
                <path d="M0.74,0L0.617,0L0.543,-0.385L0.399,0.01L0.354,0.01L0.209,-0.385L0.132,0L0.01,0L0.154,-0.715L0.221,-0.715L0.376,-0.233L0.527,-0.715L0.594,-0.715L0.74,0Z" style="fill-rule:nonzero;"/>
            </g>
            <g transform="matrix(6.4,0,0,6.4,39.3153,51.8924)">
                <path d="M0.039,-0.364C0.039,-0.466 0.067,-0.552 0.123,-0.622C0.179,-0.693 0.253,-0.728 0.347,-0.728C0.45,-0.728 0.528,-0.696 0.583,-0.632C0.637,-0.569 0.664,-0.479 0.664,-0.364C0.664,-0.249 0.636,-0.157 0.579,-0.089C0.522,-0.022 0.441,0.012 0.337,0.012C0.241,0.012 0.167,-0.021 0.116,-0.088C0.065,-0.155 0.039,-0.247 0.039,-0.364ZM0.171,-0.364C0.171,-0.28 0.185,-0.215 0.213,-0.169C0.242,-0.124 0.283,-0.101 0.337,-0.101C0.4,-0.101 0.449,-0.123 0.482,-0.168C0.516,-0.213 0.532,-0.278 0.532,-0.364C0.532,-0.531 0.47,-0.615 0.347,-0.615C0.29,-0.615 0.247,-0.593 0.216,-0.547C0.186,-0.502 0.171,-0.441 0.171,-0.364Z" style="fill-rule:nonzero;"/>
            </g>
            <g transform="matrix(6.4,0,0,6.4,43.9433,51.8924)">
                <path d="M0.232,0L0.073,0L0.073,-0.715C0.174,-0.718 0.238,-0.72 0.264,-0.72C0.368,-0.72 0.451,-0.69 0.512,-0.629C0.573,-0.568 0.604,-0.487 0.604,-0.386C0.604,-0.129 0.48,0 0.232,0ZM0.2,-0.604L0.2,-0.116C0.221,-0.114 0.243,-0.113 0.267,-0.113C0.331,-0.113 0.381,-0.136 0.417,-0.183C0.454,-0.229 0.472,-0.294 0.472,-0.378C0.472,-0.531 0.401,-0.607 0.258,-0.607C0.245,-0.607 0.225,-0.606 0.2,-0.604Z" style="fill-rule:nonzero;"/>
            </g>
        </g>
        <g transform="matrix(1.198,0,0,0.958552,943.205,-216.245)">
            <g transform="matrix(6.4,0,0,6.4,38.1466,51.8924)">
                <rect x="0.076" y="-0.715" width="0.127" height="0.715" style="fill-rule:nonzero;"/>
            </g>
            <g transform="matrix(6.4,0,0,6.4,40.0559,51.8924)">
                <path d="M0.542,0.01L0.195,-0.443L0.195,0L0.073,0L0.073,-0.715L0.134,-0.715L0.472,-0.284L0.472,-0.715L0.594,-0.715L0.594,0.01L0.542,0.01Z" style="fill-rule:nonzero;"/>
            </g>
        </g>
        <g transform="matrix(1.198,-1.2326e-32,0,0.958552,1638.65,11.3821)">
            <g transform="matrix(6.4,0,0,6.4,34.7326,51.8924)">
                <path d="M0.039,-0.364C0.039,-0.466 0.067,-0.552 0.123,-0.622C0.179,-0.693 0.253,-0.728 0.347,-0.728C0.45,-0.728 0.528,-0.696 0.583,-0.632C0.637,-0.569 0.664,-0.479 0.664,-0.364C0.664,-0.249 0.636,-0.157 0.579,-0.089C0.522,-0.022 0.441,0.012 0.337,0.012C0.241,0.012 0.167,-0.021 0.116,-0.088C0.065,-0.155 0.039,-0.247 0.039,-0.364ZM0.171,-0.364C0.171,-0.28 0.185,-0.215 0.213,-0.169C0.242,-0.124 0.283,-0.101 0.337,-0.101C0.4,-0.101 0.449,-0.123 0.482,-0.168C0.516,-0.213 0.532,-0.278 0.532,-0.364C0.532,-0.531 0.47,-0.615 0.347,-0.615C0.29,-0.615 0.247,-0.593 0.216,-0.547C0.186,-0.502 0.171,-0.441 0.171,-0.364Z" style="fill:white;fill-opacity:0.9;fill-rule:nonzero;"/>
            </g>
            <g transform="matrix(6.4,0,0,6.4,39.3606,51.8924)">
                <path d="M0.073,-0.715L0.2,-0.715L0.2,-0.23C0.2,-0.192 0.212,-0.161 0.235,-0.137C0.259,-0.113 0.291,-0.101 0.332,-0.101C0.378,-0.101 0.414,-0.112 0.439,-0.136C0.465,-0.16 0.478,-0.192 0.478,-0.233L0.478,-0.715L0.604,-0.715L0.604,-0.223C0.604,-0.15 0.58,-0.092 0.531,-0.05C0.481,-0.009 0.415,0.012 0.333,0.012C0.25,0.012 0.186,-0.008 0.141,-0.049C0.096,-0.09 0.073,-0.148 0.073,-0.224L0.073,-0.715Z" style="fill:white;fill-opacity:0.9;fill-rule:nonzero;"/>
            </g>
            <g transform="matrix(6.4,0,0,6.4,43.8261,51.8924)">
                <path d="M0.364,-0.603L0.364,0L0.237,0L0.237,-0.603L0.01,-0.603L0.01,-0.715L0.602,-0.715L0.602,-0.603L0.364,-0.603Z" style="fill:white;fill-opacity:0.9;fill-rule:nonzero;"/>
            </g>
        </g>
        <g transform="matrix(1.198,0,0,0.958552,1638.76,-182.693)">
            <g transform="matrix(6.4,0,0,6.4,39.3153,51.8924)">
                <path d="M0.46,0L0.291,-0.257L0.135,0L0.002,0L0.217,-0.371L0.02,-0.716L0.149,-0.715L0.294,-0.474L0.454,-0.715L0.587,-0.715L0.36,-0.369L0.598,0L0.46,0Z" style="fill-rule:nonzero;"/>
            </g>
        </g>
        <g transform="matrix(1.198,0,0,0.958552,1518.83,-182.693)">
            <g transform="matrix(6.4,0,0,6.4,39.3153,51.8924)">
                <path d="M0.46,0L0.291,-0.257L0.135,0L0.002,0L0.217,-0.371L0.02,-0.716L0.149,-0.715L0.294,-0.474L0.454,-0.715L0.587,-0.715L0.36,-0.369L0.598,0L0.46,0Z" style="fill-rule:nonzero;"/>
            </g>
        </g>
        <g transform="matrix(1.198,0,0,0.958552,1638.76,-109.952)">
            <g transform="matrix(6.4,0,0,6.4,39.2747,51.8924)">
                <path d="M0.371,-0.293L0.371,0L0.244,0L0.244,-0.293L0.002,-0.715L0.137,-0.715L0.307,-0.41L0.477,-0.715L0.611,-0.715L0.371,-0.293Z" style="fill-rule:nonzero;"/>
            </g>
        </g>
        <g transform="matrix(1.198,0,0,0.958552,1518.83,-109.952)">
            <g transform="matrix(6.4,0,0,6.4,39.2747,51.8924)">
                <path d="M0.371,-0.293L0.371,0L0.244,0L0.244,-0.293L0.002,-0.715L0.137,-0.715L0.307,-0.41L0.477,-0.715L0.611,-0.715L0.371,-0.293Z" style="fill-rule:nonzero;"/>
            </g>
        </g>
        <g transform="matrix(1.198,0,0,0.958552,1638.88,-58.0776)">
            <g transform="matrix(6.4,0,0,6.4,34.4186,51.8924)">
                <path d="M0.74,0L0.617,0L0.543,-0.385L0.399,0.01L0.354,0.01L0.209,-0.385L0.132,0L0.01,0L0.154,-0.715L0.221,-0.715L0.376,-0.233L0.527,-0.715L0.594,-0.715L0.74,0Z" style="fill-rule:nonzero;"/>
            </g>
            <g transform="matrix(6.4,0,0,6.4,39.3153,51.8924)">
                <path d="M0.039,-0.364C0.039,-0.466 0.067,-0.552 0.123,-0.622C0.179,-0.693 0.253,-0.728 0.347,-0.728C0.45,-0.728 0.528,-0.696 0.583,-0.632C0.637,-0.569 0.664,-0.479 0.664,-0.364C0.664,-0.249 0.636,-0.157 0.579,-0.089C0.522,-0.022 0.441,0.012 0.337,0.012C0.241,0.012 0.167,-0.021 0.116,-0.088C0.065,-0.155 0.039,-0.247 0.039,-0.364ZM0.171,-0.364C0.171,-0.28 0.185,-0.215 0.213,-0.169C0.242,-0.124 0.283,-0.101 0.337,-0.101C0.4,-0.101 0.449,-0.123 0.482,-0.168C0.516,-0.213 0.532,-0.278 0.532,-0.364C0.532,-0.531 0.47,-0.615 0.347,-0.615C0.29,-0.615 0.247,-0.593 0.216,-0.547C0.186,-0.502 0.171,-0.441 0.171,-0.364Z" style="fill-rule:nonzero;"/>
            </g>
            <g transform="matrix(6.4,0,0,6.4,43.9433,51.8924)">
                <path d="M0.232,0L0.073,0L0.073,-0.715C0.174,-0.718 0.238,-0.72 0.264,-0.72C0.368,-0.72 0.451,-0.69 0.512,-0.629C0.573,-0.568 0.604,-0.487 0.604,-0.386C0.604,-0.129 0.48,0 0.232,0ZM0.2,-0.604L0.2,-0.116C0.221,-0.114 0.243,-0.113 0.267,-0.113C0.331,-0.113 0.381,-0.136 0.417,-0.183C0.454,-0.229 0.472,-0.294 0.472,-0.378C0.472,-0.531 0.401,-0.607 0.258,-0.607C0.245,-0.607 0.225,-0.606 0.2,-0.604Z" style="fill-rule:nonzero;"/>
            </g>
        </g>
        <g transform="matrix(1.198,0,0,0.958552,1638.75,-216.245)">
            <g transform="matrix(6.4,0,0,6.4,38.1466,51.8924)">
                <rect x="0.076" y="-0.715" width="0.127" height="0.715" style="fill-rule:nonzero;"/>
            </g>
            <g transform="matrix(6.4,0,0,6.4,40.0559,51.8924)">
                <path d="M0.542,0.01L0.195,-0.443L0.195,0L0.073,0L0.073,-0.715L0.134,-0.715L0.472,-0.284L0.472,-0.715L0.594,-0.715L0.594,0.01L0.542,0.01Z" style="fill-rule:nonzero;"/>
            </g>
        </g>
        <g transform="matrix(1.198,-1.2326e-32,0,0.958552,1518.52,-58.0776)">
            <g transform="matrix(6.4,0,0,6.4,35.3842,51.8924)">
                <path d="M0.039,-0.04L0.086,-0.153C0.136,-0.118 0.185,-0.101 0.234,-0.101C0.308,-0.101 0.346,-0.127 0.346,-0.179C0.346,-0.203 0.337,-0.226 0.319,-0.249C0.302,-0.271 0.266,-0.295 0.211,-0.323C0.156,-0.351 0.119,-0.373 0.1,-0.391C0.081,-0.409 0.066,-0.43 0.056,-0.454C0.046,-0.479 0.041,-0.506 0.041,-0.535C0.041,-0.59 0.061,-0.636 0.101,-0.673C0.142,-0.709 0.194,-0.728 0.257,-0.728C0.34,-0.728 0.401,-0.712 0.439,-0.681L0.401,-0.572C0.356,-0.604 0.309,-0.62 0.26,-0.62C0.23,-0.62 0.208,-0.612 0.192,-0.596C0.176,-0.581 0.167,-0.561 0.167,-0.536C0.167,-0.495 0.213,-0.452 0.304,-0.408C0.352,-0.385 0.386,-0.363 0.407,-0.344C0.428,-0.324 0.444,-0.301 0.456,-0.275C0.467,-0.248 0.472,-0.219 0.472,-0.187C0.472,-0.129 0.449,-0.081 0.404,-0.044C0.358,-0.007 0.297,0.012 0.22,0.012C0.153,0.012 0.093,-0.005 0.039,-0.04Z" style="fill-rule:nonzero;"/>
            </g>
            <g transform="matrix(6.4,0,0,6.4,38.7841,51.8924)">
                <path d="M0.2,-0.603L0.2,-0.435L0.437,-0.435L0.437,-0.327L0.2,-0.327L0.2,-0.113L0.524,-0.113L0.524,0L0.073,0L0.073,-0.715L0.53,-0.715L0.53,-0.603L0.2,-0.603Z" style="fill-rule:nonzero;"/>
            </g>
            <g transform="matrix(6.4,0,0,6.4,42.5527,51.8924)">
                <path d="M0.751,0.148C0.73,0.151 0.708,0.152 0.686,0.152C0.625,0.152 0.57,0.14 0.519,0.115C0.468,0.091 0.428,0.056 0.4,0.012C0.388,0.014 0.368,0.016 0.342,0.016C0.248,0.016 0.174,-0.02 0.12,-0.09C0.066,-0.16 0.039,-0.251 0.039,-0.361C0.039,-0.466 0.067,-0.553 0.122,-0.623C0.177,-0.693 0.25,-0.728 0.342,-0.728C0.445,-0.728 0.524,-0.696 0.58,-0.631C0.636,-0.566 0.664,-0.477 0.664,-0.361C0.664,-0.19 0.608,-0.076 0.496,-0.019C0.532,0.02 0.59,0.04 0.673,0.04C0.703,0.04 0.729,0.036 0.751,0.03L0.751,0.148ZM0.171,-0.361C0.171,-0.286 0.186,-0.224 0.216,-0.173C0.246,-0.123 0.288,-0.098 0.342,-0.098C0.404,-0.098 0.452,-0.121 0.484,-0.167C0.516,-0.213 0.532,-0.278 0.532,-0.361C0.532,-0.53 0.469,-0.615 0.342,-0.615C0.286,-0.615 0.243,-0.592 0.214,-0.547C0.185,-0.502 0.171,-0.44 0.171,-0.361Z" style="fill-rule:nonzero;"/>
            </g>
        </g>
        <g transform="matrix(1.198,-1.2326e-32,0,0.958552,1518.7,-26.8199)">
            <g transform="matrix(6.4,0,0,6.4,31.4327,51.8924)">
                <path d="M0.2,-0.263L0.2,0L0.073,0L0.073,-0.715C0.158,-0.718 0.207,-0.72 0.222,-0.72C0.335,-0.72 0.417,-0.703 0.469,-0.668C0.522,-0.634 0.548,-0.579 0.548,-0.506C0.548,-0.342 0.451,-0.26 0.258,-0.26C0.243,-0.26 0.224,-0.261 0.2,-0.263ZM0.2,-0.605L0.2,-0.376C0.222,-0.374 0.239,-0.373 0.251,-0.373C0.309,-0.373 0.351,-0.382 0.378,-0.402C0.405,-0.421 0.418,-0.452 0.418,-0.496C0.418,-0.57 0.358,-0.607 0.239,-0.607C0.225,-0.607 0.213,-0.607 0.2,-0.605Z" style="fill-rule:nonzero;"/>
            </g>
            <g transform="matrix(6.4,0,0,6.4,35.317,51.8924)">
                <path d="M0.485,0L0.485,-0.322L0.2,-0.322L0.2,0L0.073,0L0.073,-0.715L0.2,-0.715L0.2,-0.435L0.485,-0.435L0.485,-0.715L0.61,-0.715L0.61,0L0.485,0Z" style="fill-rule:nonzero;"/>
            </g>
            <g transform="matrix(6.4,0,0,6.4,39.82,51.8924)">
                <path d="M0.491,0L0.438,-0.145L0.193,-0.145L0.144,0L0.002,0L0.288,-0.725L0.343,-0.725L0.631,0L0.491,0ZM0.315,-0.506L0.229,-0.242L0.401,-0.242L0.315,-0.506Z" style="fill-rule:nonzero;"/>
            </g>
            <g transform="matrix(6.4,0,0,6.4,44.0011,51.8924)">
                <path d="M0.039,-0.04L0.086,-0.153C0.136,-0.118 0.185,-0.101 0.234,-0.101C0.308,-0.101 0.346,-0.127 0.346,-0.179C0.346,-0.203 0.337,-0.226 0.319,-0.249C0.302,-0.271 0.266,-0.295 0.211,-0.323C0.156,-0.351 0.119,-0.373 0.1,-0.391C0.081,-0.409 0.066,-0.43 0.056,-0.454C0.046,-0.479 0.041,-0.506 0.041,-0.535C0.041,-0.59 0.061,-0.636 0.101,-0.673C0.142,-0.709 0.194,-0.728 0.257,-0.728C0.34,-0.728 0.401,-0.712 0.439,-0.681L0.401,-0.572C0.356,-0.604 0.309,-0.62 0.26,-0.62C0.23,-0.62 0.208,-0.612 0.192,-0.596C0.176,-0.581 0.167,-0.561 0.167,-0.536C0.167,-0.495 0.213,-0.452 0.304,-0.408C0.352,-0.385 0.386,-0.363 0.407,-0.344C0.428,-0.324 0.444,-0.301 0.456,-0.275C0.467,-0.248 0.472,-0.219 0.472,-0.187C0.472,-0.129 0.449,-0.081 0.404,-0.044C0.358,-0.007 0.297,0.012 0.22,0.012C0.153,0.012 0.093,-0.005 0.039,-0.04Z" style="fill-rule:nonzero;"/>
            </g>
            <g transform="matrix(6.4,0,0,6.4,47.401,51.8924)">
                <path d="M0.2,-0.603L0.2,-0.435L0.437,-0.435L0.437,-0.327L0.2,-0.327L0.2,-0.113L0.524,-0.113L0.524,0L0.073,0L0.073,-0.715L0.53,-0.715L0.53,-0.603L0.2,-0.603Z" style="fill-rule:nonzero;"/>
            </g>
        </g>
        <g transform="matrix(1.198,0,0,0.958552,1518.8,11.3072)">
            <g transform="matrix(6.4,0,0,6.4,35.9123,51.8924)">
                <path d="M0.74,0L0.617,0L0.543,-0.385L0.399,0.01L0.354,0.01L0.209,-0.385L0.132,0L0.01,0L0.154,-0.715L0.221,-0.715L0.376,-0.233L0.527,-0.715L0.594,-0.715L0.74,0Z" style="fill:white;fill-opacity:0.9;fill-rule:nonzero;"/>
            </g>
            <g transform="matrix(6.4,0,0,6.4,40.8091,51.8924)">
                <rect x="0.076" y="-0.715" width="0.127" height="0.715" style="fill:white;fill-opacity:0.9;fill-rule:nonzero;"/>
            </g>
            <g transform="matrix(6.4,0,0,6.4,42.7183,51.8924)">
                <path d="M0.46,0L0.291,-0.257L0.135,0L0.002,0L0.217,-0.371L0.02,-0.716L0.149,-0.715L0.294,-0.474L0.454,-0.715L0.587,-0.715L0.36,-0.369L0.598,0L0.46,0Z" style="fill:white;fill-opacity:0.9;fill-rule:nonzero;"/>
            </g>
        </g>
        <g transform="matrix(0.322334,0,0,0.265967,1084.5,-167.412)">
            <ellipse cx="29.183" cy="141.909" rx="13.008" ry="12.614" style="fill:none;stroke:black;stroke-opacity:0.7;stroke-width:3.66px;stroke-linecap:butt;stroke-miterlimit:1.41421;"/>
        </g>
        <g transform="matrix(0.322334,0,0,0.265967,1121.07,-167.412)">
            <ellipse cx="29.183" cy="141.909" rx="13.008" ry="12.614" style="fill:none;stroke:black;stroke-opacity:0.7;stroke-width:3.66px;stroke-linecap:butt;stroke-miterlimit:1.41421;"/>
        </g>
        <g transform="matrix(1,0,0,1,-84.1517,0)">
            <g transform="matrix(0.322334,0,0,0.265967,1012.6,-167.412)">
                <ellipse cx="29.183" cy="141.909" rx="13.008" ry="12.614" style="fill:none;stroke:black;stroke-opacity:0.7;stroke-width:3.66px;stroke-linecap:butt;stroke-miterlimit:1.41421;"/>
            </g>
            <g transform="matrix(0.322334,0,0,0.265967,1049.22,-167.412)">
                <ellipse cx="29.183" cy="141.909" rx="13.008" ry="12.614" style="fill:none;stroke:black;stroke-opacity:0.7;stroke-width:3.66px;stroke-linecap:butt;stroke-miterlimit:1.41421;"/>
            </g>
            <g transform="matrix(0.322334,0,0,0.265967,1085.67,-167.412)">
                <ellipse cx="29.183" cy="141.909" rx="13.008" ry="12.614" style="fill:none;stroke:black;stroke-opacity:0.7;stroke-width:3.66px;stroke-linecap:butt;stroke-miterlimit:1.41421;"/>
            </g>
            <g transform="matrix(0.322334,0,0,0.265967,1122.13,-167.412)">
                <ellipse cx="29.183" cy="141.909" rx="13.008" ry="12.614" style="fill:none;stroke:black;stroke-opacity:0.7;stroke-width:3.66px;stroke-linecap:butt;stroke-miterlimit:1.41421;"/>
            </g>
        </g>
        <g transform="matrix(0.322334,0,0,0.265967,1624.08,-167.412)">
            <ellipse cx="29.183" cy="141.909" rx="13.008" ry="12.614" style="fill:none;stroke:black;stroke-opacity:0.7;stroke-width:3.66px;stroke-linecap:butt;stroke-miterlimit:1.41421;"/>
        </g>
        <g transform="matrix(0.322334,0,0,0.265967,1660.53,-167.412)">
            <ellipse cx="29.183" cy="141.909" rx="13.008" ry="12.614" style="fill:none;stroke:black;stroke-opacity:0.7;stroke-width:3.66px;stroke-linecap:butt;stroke-miterlimit:1.41421;"/>
        </g>
        <g transform="matrix(0.322334,0,0,0.265967,1696.99,-167.412)">
            <ellipse cx="29.183" cy="141.909" rx="13.008" ry="12.614" style="fill:none;stroke:black;stroke-opacity:0.7;stroke-width:3.66px;stroke-linecap:butt;stroke-miterlimit:1.41421;"/>
        </g>
        <g transform="matrix(0.322334,0,0,0.265967,1733.44,-167.412)">
            <ellipse cx="29.183" cy="141.909" rx="13.008" ry="12.614" style="fill:none;stroke:black;stroke-opacity:0.7;stroke-width:3.66px;stroke-linecap:butt;stroke-miterlimit:1.41421;"/>
        </g>
        <g transform="matrix(0.322334,0,0,0.265967,1540.54,-167.412)">
            <ellipse cx="29.183" cy="141.909" rx="13.008" ry="12.614" style="fill:none;stroke:black;stroke-opacity:0.7;stroke-width:3.66px;stroke-linecap:butt;stroke-miterlimit:1.41421;"/>
        </g>
        <g transform="matrix(0.322334,0,0,0.265967,1577.11,-167.412)">
            <ellipse cx="29.183" cy="141.909" rx="13.008" ry="12.614" style="fill:none;stroke:black;stroke-opacity:0.7;stroke-width:3.66px;stroke-linecap:butt;stroke-miterlimit:1.41421;"/>
        </g>
        <g transform="matrix(1,0,0,1,-84.2347,0)">
            <g transform="matrix(0.322334,0,0,0.265967,1012.76,-105.628)">
                <ellipse cx="29.183" cy="141.909" rx="13.008" ry="12.614" style="fill:none;stroke:black;stroke-opacity:0.7;stroke-width:3.66px;stroke-linecap:butt;stroke-miterlimit:1.41421;"/>
            </g>
            <g transform="matrix(0.322334,0,0,0.265967,1049.22,-105.628)">
                <ellipse cx="29.183" cy="141.909" rx="13.008" ry="12.614" style="fill:none;stroke:black;stroke-opacity:0.7;stroke-width:3.66px;stroke-linecap:butt;stroke-miterlimit:1.41421;"/>
            </g>
            <g transform="matrix(0.322334,0,0,0.265967,1085.67,-105.628)">
                <ellipse cx="29.183" cy="141.909" rx="13.008" ry="12.614" style="fill:none;stroke:black;stroke-opacity:0.7;stroke-width:3.66px;stroke-linecap:butt;stroke-miterlimit:1.41421;"/>
            </g>
            <g transform="matrix(0.322334,0,0,0.265967,1122.13,-105.628)">
                <ellipse cx="29.183" cy="141.909" rx="13.008" ry="12.614" style="fill:none;stroke:black;stroke-opacity:0.7;stroke-width:3.66px;stroke-linecap:butt;stroke-miterlimit:1.41421;"/>
            </g>
        </g>
        <g transform="matrix(0.322334,0,0,0.265967,1084.5,-105.628)">
            <ellipse cx="29.183" cy="141.909" rx="13.008" ry="12.614" style="fill:none;stroke:black;stroke-opacity:0.7;stroke-width:3.66px;stroke-linecap:butt;stroke-miterlimit:1.41421;"/>
        </g>
        <g transform="matrix(0.322334,0,0,0.265967,1121.07,-105.628)">
            <ellipse cx="29.183" cy="141.909" rx="13.008" ry="12.614" style="fill:none;stroke:black;stroke-opacity:0.7;stroke-width:3.66px;stroke-linecap:butt;stroke-miterlimit:1.41421;"/>
        </g>
        <g transform="matrix(0.322334,0,0,0.265967,1624.08,-105.628)">
            <ellipse cx="29.183" cy="141.909" rx="13.008" ry="12.614" style="fill:none;stroke:black;stroke-opacity:0.7;stroke-width:3.66px;stroke-linecap:butt;stroke-miterlimit:1.41421;"/>
        </g>
        <g transform="matrix(0.322334,0,0,0.265967,1660.53,-105.628)">
            <ellipse cx="29.183" cy="141.909" rx="13.008" ry="12.614" style="fill:none;stroke:black;stroke-opacity:0.7;stroke-width:3.66px;stroke-linecap:butt;stroke-miterlimit:1.41421;"/>
        </g>
        <g transform="matrix(0.322334,0,0,0.265967,1696.99,-105.628)">
            <ellipse cx="29.183" cy="141.909" rx="13.008" ry="12.614" style="fill:none;stroke:black;stroke-opacity:0.7;stroke-width:3.66px;stroke-linecap:butt;stroke-miterlimit:1.41421;"/>
        </g>
        <g transform="matrix(0.322334,0,0,0.265967,1733.44,-105.628)">
            <ellipse cx="29.183" cy="141.909" rx="13.008" ry="12.614" style="fill:none;stroke:black;stroke-opacity:0.7;stroke-width:3.66px;stroke-linecap:butt;stroke-miterlimit:1.41421;"/>
        </g>
        <g transform="matrix(0.322334,0,0,0.265967,1540.54,-105.628)">
            <ellipse cx="29.183" cy="141.909" rx="13.008" ry="12.614" style="fill:none;stroke:black;stroke-opacity:0.7;stroke-width:3.66px;stroke-linecap:butt;stroke-miterlimit:1.41421;"/>
        </g>
        <g transform="matrix(0.322334,0,0,0.265967,1577.11,-105.628)">
            <ellipse cx="29.183" cy="141.909" rx="13.008" ry="12.614" style="fill:none;stroke:black;stroke-opacity:0.7;stroke-width:3.66px;stroke-linecap:butt;stroke-miterlimit:1.41421;"/>
        </g>
        <g transform="matrix(1.198,0,0,0.958552,1584.03,-247.766)">
            <g transform="matrix(6.4,0,0,6.4,39.3622,51.8924)">
                <path d="M0.081,-0.054L0.131,-0.159C0.183,-0.118 0.227,-0.098 0.264,-0.098C0.346,-0.098 0.387,-0.149 0.387,-0.25C0.387,-0.298 0.378,-0.333 0.359,-0.356C0.341,-0.378 0.31,-0.389 0.266,-0.389C0.227,-0.389 0.188,-0.37 0.151,-0.331L0.101,-0.364L0.101,-0.718L0.486,-0.718L0.486,-0.61L0.223,-0.61L0.223,-0.482C0.244,-0.492 0.27,-0.497 0.3,-0.497C0.37,-0.497 0.424,-0.477 0.462,-0.436C0.5,-0.395 0.519,-0.338 0.519,-0.263C0.519,-0.081 0.434,0.01 0.265,0.01C0.194,0.01 0.133,-0.012 0.081,-0.054Z" style="fill-rule:nonzero;"/>
            </g>
        </g>
        <g transform="matrix(1.198,0,0,0.958552,1620.48,-247.766)">
            <g transform="matrix(6.4,0,0,6.4,39.3622,51.8924)">
                <path d="M0.371,-0.729L0.438,-0.658C0.39,-0.633 0.346,-0.599 0.306,-0.558C0.266,-0.517 0.239,-0.476 0.224,-0.436C0.258,-0.451 0.287,-0.458 0.312,-0.458C0.379,-0.458 0.434,-0.438 0.474,-0.396C0.515,-0.354 0.536,-0.297 0.536,-0.226C0.536,-0.156 0.515,-0.099 0.473,-0.055C0.431,-0.012 0.378,0.01 0.314,0.01C0.148,0.01 0.064,-0.094 0.064,-0.302C0.064,-0.389 0.097,-0.478 0.161,-0.567C0.225,-0.656 0.295,-0.711 0.371,-0.729ZM0.196,-0.229C0.196,-0.142 0.233,-0.098 0.307,-0.098C0.337,-0.098 0.361,-0.109 0.379,-0.131C0.397,-0.152 0.406,-0.182 0.406,-0.221C0.406,-0.261 0.397,-0.292 0.378,-0.316C0.359,-0.339 0.335,-0.351 0.306,-0.351C0.233,-0.351 0.196,-0.31 0.196,-0.229Z" style="fill-rule:nonzero;"/>
            </g>
        </g>
        <g transform="matrix(1.198,0,0,0.958552,1656.82,-247.706)">
            <g transform="matrix(6.4,0,0,6.4,39.3622,51.8924)">
                <path d="M0.262,0L0.123,0C0.176,-0.163 0.267,-0.364 0.396,-0.601L0.069,-0.601L0.069,-0.718L0.562,-0.718L0.562,-0.664L0.498,-0.542C0.476,-0.501 0.454,-0.457 0.431,-0.408C0.407,-0.359 0.384,-0.31 0.362,-0.26C0.34,-0.209 0.321,-0.162 0.304,-0.118C0.287,-0.075 0.273,-0.035 0.262,0Z" style="fill-rule:nonzero;"/>
            </g>
        </g>
        <g transform="matrix(1.198,0,0,0.958552,1693.46,-247.766)">
            <g transform="matrix(6.4,0,0,6.4,39.3622,51.8924)">
                <path d="M0.172,-0.392C0.146,-0.409 0.125,-0.432 0.108,-0.461C0.091,-0.49 0.083,-0.519 0.083,-0.548C0.083,-0.603 0.102,-0.647 0.141,-0.679C0.18,-0.712 0.23,-0.728 0.291,-0.728C0.356,-0.728 0.408,-0.712 0.444,-0.679C0.481,-0.647 0.5,-0.603 0.5,-0.548C0.5,-0.519 0.489,-0.488 0.469,-0.456C0.448,-0.423 0.426,-0.401 0.401,-0.388C0.432,-0.373 0.461,-0.347 0.487,-0.31C0.513,-0.273 0.526,-0.237 0.526,-0.205C0.526,-0.137 0.505,-0.084 0.462,-0.047C0.42,-0.009 0.362,0.01 0.289,0.01C0.215,0.01 0.158,-0.009 0.117,-0.045C0.077,-0.082 0.057,-0.135 0.057,-0.205C0.057,-0.24 0.068,-0.276 0.089,-0.31C0.11,-0.345 0.138,-0.372 0.172,-0.392ZM0.303,-0.44C0.321,-0.449 0.337,-0.465 0.351,-0.488C0.365,-0.51 0.372,-0.531 0.372,-0.55C0.372,-0.571 0.365,-0.588 0.35,-0.601C0.335,-0.614 0.315,-0.62 0.291,-0.62C0.237,-0.62 0.21,-0.597 0.21,-0.549C0.21,-0.528 0.22,-0.507 0.24,-0.486C0.26,-0.464 0.281,-0.449 0.303,-0.44ZM0.277,-0.34C0.215,-0.305 0.184,-0.26 0.184,-0.205C0.184,-0.174 0.194,-0.149 0.213,-0.128C0.233,-0.108 0.258,-0.098 0.289,-0.098C0.321,-0.098 0.348,-0.107 0.368,-0.125C0.389,-0.142 0.399,-0.166 0.399,-0.195C0.399,-0.244 0.359,-0.293 0.277,-0.34Z" style="fill-rule:nonzero;"/>
            </g>
        </g>
        <g transform="matrix(1.198,0,0,0.958552,888.719,-247.706)">
            <g transform="matrix(6.4,0,0,6.4,39.3622,51.8924)">
                <path d="M0.278,0L0.278,-0.516L0.132,-0.428L0.132,-0.55C0.226,-0.596 0.3,-0.652 0.354,-0.718L0.405,-0.718L0.405,0L0.278,0Z" style="fill-rule:nonzero;"/>
            </g>
        </g>
        <g transform="matrix(1.198,0,0,0.958552,924.886,-247.706)">
            <g transform="matrix(6.4,0,0,6.4,39.3622,51.8924)">
                <path d="M0.076,0L0.076,-0.037L0.302,-0.371C0.347,-0.437 0.37,-0.493 0.37,-0.539C0.37,-0.593 0.338,-0.62 0.273,-0.62C0.223,-0.62 0.184,-0.594 0.153,-0.542L0.068,-0.609C0.085,-0.643 0.111,-0.671 0.148,-0.694C0.184,-0.717 0.224,-0.728 0.268,-0.728C0.341,-0.728 0.399,-0.711 0.44,-0.678C0.481,-0.645 0.502,-0.598 0.502,-0.539C0.502,-0.485 0.475,-0.417 0.422,-0.336L0.276,-0.113L0.544,-0.113L0.544,0L0.076,0Z" style="fill-rule:nonzero;"/>
            </g>
        </g>
        <g transform="matrix(1.198,0,0,0.958552,961.468,-247.766)">
            <g transform="matrix(6.4,0,0,6.4,39.3622,51.8924)">
                <path d="M0.07,-0.06L0.133,-0.158C0.171,-0.118 0.212,-0.098 0.256,-0.098C0.337,-0.098 0.377,-0.136 0.377,-0.212C0.377,-0.246 0.366,-0.274 0.342,-0.296C0.319,-0.318 0.287,-0.329 0.248,-0.329L0.225,-0.329L0.225,-0.433L0.244,-0.433C0.317,-0.433 0.354,-0.464 0.354,-0.524C0.354,-0.588 0.319,-0.62 0.251,-0.62C0.216,-0.62 0.182,-0.604 0.149,-0.57L0.089,-0.658C0.105,-0.677 0.129,-0.693 0.161,-0.707C0.194,-0.721 0.226,-0.728 0.259,-0.728C0.33,-0.728 0.386,-0.712 0.426,-0.679C0.465,-0.647 0.485,-0.601 0.485,-0.542C0.485,-0.473 0.455,-0.42 0.396,-0.383C0.471,-0.347 0.509,-0.287 0.509,-0.205C0.509,-0.137 0.487,-0.084 0.442,-0.046C0.397,-0.009 0.334,0.01 0.255,0.01C0.183,0.01 0.121,-0.014 0.07,-0.06Z" style="fill-rule:nonzero;"/>
            </g>
        </g>
        <g transform="matrix(1.198,0,0,0.958552,997.899,-247.706)">
            <g transform="matrix(6.4,0,0,6.4,39.3622,51.8924)">
                <path d="M0.48,-0.187L0.48,0L0.358,0L0.358,-0.187L0.033,-0.187L0.033,-0.26L0.425,-0.718L0.48,-0.718L0.48,-0.288L0.553,-0.288L0.553,-0.187L0.48,-0.187ZM0.358,-0.502L0.175,-0.288L0.358,-0.288L0.358,-0.502Z" style="fill-rule:nonzero;"/>
            </g>
        </g>
        <g transform="matrix(1.198,0,0,0.958552,1044.69,-247.706)">
            <g transform="matrix(6.4,0,0,6.4,39.3622,51.8924)">
                <path d="M0.278,0L0.278,-0.516L0.132,-0.428L0.132,-0.55C0.226,-0.596 0.3,-0.652 0.354,-0.718L0.405,-0.718L0.405,0L0.278,0Z" style="fill:white;fill-opacity:0.9;fill-rule:nonzero;"/>
            </g>
        </g>
        <g transform="matrix(1.198,0,0,0.958552,1080.98,-247.676)">
            <g transform="matrix(6.4,0,0,6.4,39.3622,51.8924)">
                <path d="M0.076,0L0.076,-0.037L0.302,-0.371C0.347,-0.437 0.37,-0.493 0.37,-0.539C0.37,-0.593 0.338,-0.62 0.273,-0.62C0.223,-0.62 0.184,-0.594 0.153,-0.542L0.068,-0.609C0.085,-0.643 0.111,-0.671 0.148,-0.694C0.184,-0.717 0.224,-0.728 0.268,-0.728C0.341,-0.728 0.399,-0.711 0.44,-0.678C0.481,-0.645 0.502,-0.598 0.502,-0.539C0.502,-0.485 0.475,-0.417 0.422,-0.336L0.276,-0.113L0.544,-0.113L0.544,0L0.076,0Z" style="fill:white;fill-opacity:0.9;fill-rule:nonzero;"/>
            </g>
        </g>
        <g transform="matrix(1.12733,0,0,0.357931,1524.13,-225.719)">
            <path d="M73.138,67.636C73.138,61.724 71.233,56.924 68.887,56.924L9.358,56.924C7.012,56.924 5.107,61.724 5.107,67.636L5.107,83.704L73.138,83.704L73.138,67.636Z" style="fill-opacity:0.5;"/>
        </g>
        <g transform="matrix(1.198,0,0,0.958552,1500.57,-247.706)">
            <g transform="matrix(6.4,0,0,6.4,39.3622,51.8924)">
                <path d="M0.07,-0.06L0.133,-0.158C0.171,-0.118 0.212,-0.098 0.256,-0.098C0.337,-0.098 0.377,-0.136 0.377,-0.212C0.377,-0.246 0.366,-0.274 0.342,-0.296C0.319,-0.318 0.287,-0.329 0.248,-0.329L0.225,-0.329L0.225,-0.433L0.244,-0.433C0.317,-0.433 0.354,-0.464 0.354,-0.524C0.354,-0.588 0.319,-0.62 0.251,-0.62C0.216,-0.62 0.182,-0.604 0.149,-0.57L0.089,-0.658C0.105,-0.677 0.129,-0.693 0.161,-0.707C0.194,-0.721 0.226,-0.728 0.259,-0.728C0.33,-0.728 0.386,-0.712 0.426,-0.679C0.465,-0.647 0.485,-0.601 0.485,-0.542C0.485,-0.473 0.455,-0.42 0.396,-0.383C0.471,-0.347 0.509,-0.287 0.509,-0.205C0.509,-0.137 0.487,-0.084 0.442,-0.046C0.397,-0.009 0.334,0.01 0.255,0.01C0.183,0.01 0.121,-0.014 0.07,-0.06Z" style="fill:white;fill-opacity:0.9;fill-rule:nonzero;"/>
            </g>
        </g>
        <g transform="matrix(1.198,0,0,0.958552,1537.12,-247.706)">
            <g transform="matrix(6.4,0,0,6.4,39.3622,51.8924)">
                <path d="M0.48,-0.187L0.48,0L0.358,0L0.358,-0.187L0.033,-0.187L0.033,-0.26L0.425,-0.718L0.48,-0.718L0.48,-0.288L0.553,-0.288L0.553,-0.187L0.48,-0.187ZM0.358,-0.502L0.175,-0.288L0.358,-0.288L0.358,-0.502Z" style="fill:white;fill-opacity:0.9;fill-rule:nonzero;"/>
            </g>
        </g>
    </g>
</svg>
