<?xml version="1.0" encoding="UTF-8" standalone="no"?>
<!DOCTYPE svg PUBLIC "-//W3C//DTD SVG 1.1//EN" "http://www.w3.org/Graphics/SVG/1.1/DTD/svg11.dtd">
<svg width="100%" height="100%" viewBox="0 0 60 380" version="1.1" xmlns="http://www.w3.org/2000/svg" xmlns:xlink="http://www.w3.org/1999/xlink" xml:space="preserve" xmlns:serif="http://www.serif.com/" style="fill-rule:evenodd;clip-rule:evenodd;stroke-linecap:round;stroke-linejoin:round;stroke-miterlimit:1.5;">
    <g id="panel" transform="matrix(0.834722,0,0,1.04324,-803.837,250.623)">
        <g transform="matrix(1.198,0,0,0.958552,963,-240.242)">
            <rect x="0" y="0" width="60" height="380" style="fill:rgb(64,64,64);"/>
        </g>
        <g transform="matrix(0.42507,0,0,1.76292,975.766,-852.772)">
            <rect x="-30.034" y="347.456" width="169.102" height="16.91" style="fill:rgb(10,10,44);fill-opacity:0.8;"/>
        </g>
        <g transform="matrix(0.42507,0,0,1.81961,975.766,-538.829)">
            <rect x="-30.034" y="347.456" width="169.102" height="16.91" style="fill:rgb(10,10,44);fill-opacity:0.8;"/>
        </g>
        <g transform="matrix(3.20939,0,0,25.5659,843.008,-292.473)">
            <rect x="37.388" y="2.043" width="22.397" height="14.247" style="fill:none;stroke:rgb(32,6,118);stroke-opacity:0.7;stroke-width:0.03px;"/>
        </g>
        <g transform="matrix(1,0,0,1,-2.2243,0)">
            <g transform="matrix(1.198,0,0,0.958552,973.753,-213.59)">
                <g transform="matrix(13,0,0,13,-0.834717,0)">
                    <path d="M0.172,-0.392C0.146,-0.409 0.125,-0.432 0.108,-0.461C0.091,-0.49 0.083,-0.519 0.083,-0.548C0.083,-0.603 0.102,-0.647 0.141,-0.679C0.18,-0.712 0.23,-0.728 0.291,-0.728C0.356,-0.728 0.408,-0.712 0.444,-0.679C0.481,-0.647 0.5,-0.603 0.5,-0.548C0.5,-0.519 0.489,-0.488 0.469,-0.456C0.448,-0.423 0.426,-0.401 0.401,-0.388C0.432,-0.373 0.461,-0.347 0.487,-0.31C0.513,-0.273 0.526,-0.237 0.526,-0.205C0.526,-0.137 0.505,-0.084 0.462,-0.047C0.42,-0.009 0.362,0.01 0.289,0.01C0.215,0.01 0.158,-0.009 0.117,-0.045C0.077,-0.082 0.057,-0.135 0.057,-0.205C0.057,-0.24 0.068,-0.276 0.089,-0.31C0.11,-0.345 0.138,-0.372 0.172,-0.392ZM0.303,-0.44C0.321,-0.449 0.337,-0.465 0.351,-0.488C0.365,-0.51 0.372,-0.531 0.372,-0.55C0.372,-0.571 0.365,-0.588 0.35,-0.601C0.335,-0.614 0.315,-0.62 0.291,-0.62C0.237,-0.62 0.21,-0.597 0.21,-0.549C0.21,-0.528 0.22,-0.507 0.24,-0.486C0.26,-0.464 0.281,-0.449 0.303,-0.44ZM0.277,-0.34C0.215,-0.305 0.184,-0.26 0.184,-0.205C0.184,-0.174 0.194,-0.149 0.213,-0.128C0.233,-0.108 0.258,-0.098 0.289,-0.098C0.321,-0.098 0.348,-0.107 0.368,-0.125C0.389,-0.142 0.399,-0.166 0.399,-0.195C0.399,-0.244 0.359,-0.293 0.277,-0.34Z" style="fill:white;fill-opacity:0.9;fill-rule:nonzero;"/>
                </g>
                <g transform="matrix(13,0,0,13,6.78247,0)">
                    <path d="M0.2,-0.603L0.2,-0.435L0.452,-0.435L0.452,-0.327L0.2,-0.327L0.2,-0L0.073,-0L0.073,-0.715L0.544,-0.715L0.544,-0.603L0.2,-0.603Z" style="fill:white;fill-opacity:0.9;fill-rule:nonzero;"/>
                </g>
                <g transform="matrix(13,0,0,13,13.6506,0)">
                    <path d="M0.491,-0L0.438,-0.145L0.193,-0.145L0.144,-0L0.002,-0L0.288,-0.725L0.343,-0.725L0.631,-0L0.491,-0ZM0.315,-0.506L0.229,-0.242L0.401,-0.242L0.315,-0.506Z" style="fill:white;fill-opacity:0.9;fill-rule:nonzero;"/>
                </g>
                <g transform="matrix(13,0,0,13,21.8835,0)">
                    <path d="M0.563,-0.677L0.511,-0.572C0.483,-0.601 0.437,-0.615 0.375,-0.615C0.315,-0.615 0.266,-0.59 0.228,-0.54C0.19,-0.49 0.171,-0.427 0.171,-0.35C0.171,-0.274 0.189,-0.213 0.224,-0.168C0.259,-0.123 0.306,-0.101 0.365,-0.101C0.433,-0.101 0.485,-0.125 0.523,-0.173L0.583,-0.07C0.531,-0.015 0.455,0.012 0.355,0.012C0.255,0.012 0.177,-0.021 0.122,-0.086C0.067,-0.152 0.039,-0.242 0.039,-0.355C0.039,-0.461 0.07,-0.55 0.131,-0.621C0.192,-0.692 0.271,-0.728 0.367,-0.728C0.449,-0.728 0.514,-0.711 0.563,-0.677Z" style="fill:white;fill-opacity:0.9;fill-rule:nonzero;"/>
                </g>
                <g transform="matrix(13,0,0,13,29.8372,0)">
                    <path d="M0.2,-0.603L0.2,-0.435L0.437,-0.435L0.437,-0.327L0.2,-0.327L0.2,-0.113L0.524,-0.113L0.524,-0L0.073,-0L0.073,-0.715L0.53,-0.715L0.53,-0.603L0.2,-0.603Z" style="fill:white;fill-opacity:0.9;fill-rule:nonzero;"/>
                </g>
            </g>
            <g transform="matrix(1.198,0,0,0.958552,1018.46,-224.825)">
                <g transform="matrix(8,0,0,8,1.03054,5.97656)">
                    <path d="M0.402,-0L0.268,-0.17L0.147,-0L0.002,-0L0.203,-0.268L0.019,-0.523L0.159,-0.523L0.269,-0.363L0.392,-0.523L0.531,-0.523L0.331,-0.268L0.55,-0L0.402,-0Z" style="fill:white;fill-opacity:0.9;fill-rule:nonzero;"/>
                </g>
                <g transform="matrix(8,0,0,8,5.44851,5.97656)">
                    <path d="M0.076,-0L0.076,-0.037L0.302,-0.371C0.347,-0.437 0.37,-0.493 0.37,-0.539C0.37,-0.593 0.338,-0.62 0.273,-0.62C0.223,-0.62 0.184,-0.594 0.153,-0.542L0.068,-0.609C0.085,-0.643 0.111,-0.671 0.148,-0.694C0.184,-0.717 0.224,-0.728 0.268,-0.728C0.341,-0.728 0.399,-0.711 0.44,-0.678C0.481,-0.645 0.502,-0.598 0.502,-0.539C0.502,-0.485 0.475,-0.417 0.422,-0.336L0.276,-0.113L0.544,-0.113L0.544,-0L0.076,-0Z" style="fill:white;fill-opacity:0.9;fill-rule:nonzero;"/>
                </g>
            </g>
        </g>
        <g transform="matrix(0.840359,0,0,0.840359,166.906,16.2108)">
            <g transform="matrix(1.198,0,0,0.958552,893.633,-224.914)">
                <g transform="matrix(9,0,0,9,64.0056,347.267)">
                    <path d="M0.919,-0L0.762,-0L0.762,-0.308C0.762,-0.391 0.732,-0.432 0.671,-0.432C0.643,-0.432 0.62,-0.42 0.602,-0.395C0.583,-0.369 0.574,-0.339 0.574,-0.303L0.574,-0L0.417,-0L0.417,-0.312C0.417,-0.392 0.387,-0.432 0.327,-0.432C0.298,-0.432 0.274,-0.42 0.256,-0.396C0.238,-0.372 0.229,-0.341 0.229,-0.301L0.229,-0L0.072,-0L0.072,-0.54L0.229,-0.54L0.229,-0.456L0.231,-0.456C0.25,-0.486 0.275,-0.51 0.307,-0.528C0.338,-0.545 0.371,-0.553 0.405,-0.553C0.481,-0.553 0.533,-0.519 0.561,-0.451C0.603,-0.519 0.663,-0.553 0.743,-0.553C0.86,-0.553 0.919,-0.481 0.919,-0.335L0.919,-0Z" style="fill:white;fill-opacity:0.9;fill-rule:nonzero;"/>
                </g>
                <g transform="matrix(9,0,0,9,72.978,347.267)">
                    <path d="M0.551,-0.226L0.196,-0.226C0.201,-0.142 0.252,-0.1 0.347,-0.1C0.407,-0.1 0.459,-0.115 0.505,-0.144L0.505,-0.028C0.456,-0.001 0.391,0.013 0.312,0.013C0.226,0.013 0.159,-0.011 0.111,-0.06C0.063,-0.108 0.04,-0.176 0.04,-0.262C0.04,-0.348 0.065,-0.419 0.116,-0.472C0.167,-0.526 0.23,-0.553 0.307,-0.553C0.384,-0.553 0.443,-0.53 0.487,-0.484C0.53,-0.437 0.551,-0.374 0.551,-0.292L0.551,-0.226ZM0.404,-0.324C0.404,-0.405 0.372,-0.445 0.306,-0.445C0.279,-0.445 0.255,-0.434 0.234,-0.412C0.214,-0.39 0.201,-0.361 0.195,-0.324L0.404,-0.324Z" style="fill:white;fill-opacity:0.9;fill-rule:nonzero;"/>
                </g>
                <g transform="matrix(9,0,0,9,78.3513,347.267)">
                    <rect x="0.069" y="-0.799" width="0.157" height="0.799" style="fill:white;fill-opacity:0.9;fill-rule:nonzero;"/>
                </g>
                <g transform="matrix(9,0,0,9,81.1494,347.267)">
                    <path d="M0.593,-0L0.436,-0L0.436,-0.076L0.433,-0.076C0.395,-0.017 0.339,0.013 0.264,0.013C0.195,0.013 0.141,-0.011 0.1,-0.06C0.06,-0.108 0.04,-0.174 0.04,-0.258C0.04,-0.346 0.062,-0.418 0.108,-0.472C0.153,-0.526 0.212,-0.553 0.286,-0.553C0.356,-0.553 0.405,-0.528 0.433,-0.477L0.436,-0.477L0.438,-0.707L0.593,-0.658L0.593,-0ZM0.438,-0.306C0.438,-0.342 0.427,-0.372 0.405,-0.396C0.383,-0.42 0.356,-0.432 0.323,-0.432C0.284,-0.432 0.254,-0.417 0.232,-0.386C0.21,-0.356 0.199,-0.315 0.199,-0.263C0.199,-0.213 0.21,-0.175 0.231,-0.148C0.252,-0.121 0.281,-0.108 0.318,-0.108C0.353,-0.108 0.382,-0.122 0.404,-0.15C0.427,-0.179 0.438,-0.215 0.438,-0.261L0.438,-0.306Z" style="fill:white;fill-opacity:0.9;fill-rule:nonzero;"/>
                </g>
                <g transform="matrix(9,0,0,9,87.2654,347.267)">
                    <path d="M0.551,-0.226L0.196,-0.226C0.201,-0.142 0.252,-0.1 0.347,-0.1C0.407,-0.1 0.459,-0.115 0.505,-0.144L0.505,-0.028C0.456,-0.001 0.391,0.013 0.312,0.013C0.226,0.013 0.159,-0.011 0.111,-0.06C0.063,-0.108 0.04,-0.176 0.04,-0.262C0.04,-0.348 0.065,-0.419 0.116,-0.472C0.167,-0.526 0.23,-0.553 0.307,-0.553C0.384,-0.553 0.443,-0.53 0.487,-0.484C0.53,-0.437 0.551,-0.374 0.551,-0.292L0.551,-0.226ZM0.404,-0.324C0.404,-0.405 0.372,-0.445 0.306,-0.445C0.279,-0.445 0.255,-0.434 0.234,-0.412C0.214,-0.39 0.201,-0.361 0.195,-0.324L0.404,-0.324Z" style="fill:white;fill-opacity:0.9;fill-rule:nonzero;"/>
                </g>
                <g transform="matrix(9,0,0,9,92.6386,347.267)">
                    <path d="M0.416,-0.397C0.397,-0.408 0.374,-0.414 0.346,-0.414C0.31,-0.414 0.282,-0.4 0.261,-0.373C0.24,-0.345 0.229,-0.308 0.229,-0.26L0.229,-0L0.072,-0L0.072,-0.54L0.229,-0.54L0.229,-0.438L0.231,-0.438C0.257,-0.512 0.305,-0.549 0.374,-0.549C0.392,-0.549 0.406,-0.547 0.416,-0.543L0.416,-0.397Z" style="fill:white;fill-opacity:0.9;fill-rule:nonzero;"/>
                </g>
            </g>
            <g transform="matrix(1.198,0,0,0.958552,893.495,-231.786)">
                <g transform="matrix(9,0,0,9,68.6657,347.267)">
                    <path d="M0.058,-0.145C0.112,-0.112 0.165,-0.096 0.216,-0.096C0.281,-0.096 0.314,-0.113 0.314,-0.148C0.314,-0.173 0.287,-0.193 0.233,-0.21C0.166,-0.231 0.12,-0.254 0.095,-0.28C0.07,-0.305 0.058,-0.34 0.058,-0.383C0.058,-0.436 0.079,-0.478 0.122,-0.508C0.165,-0.538 0.221,-0.553 0.291,-0.553C0.34,-0.553 0.388,-0.546 0.434,-0.531L0.434,-0.407C0.392,-0.432 0.346,-0.444 0.295,-0.444C0.27,-0.444 0.25,-0.44 0.235,-0.431C0.22,-0.422 0.212,-0.41 0.212,-0.396C0.212,-0.371 0.235,-0.351 0.28,-0.335C0.329,-0.319 0.366,-0.304 0.39,-0.291C0.415,-0.278 0.434,-0.26 0.447,-0.238C0.459,-0.216 0.466,-0.191 0.466,-0.163C0.466,-0.107 0.444,-0.064 0.399,-0.033C0.354,-0.002 0.295,0.013 0.22,0.013C0.162,0.013 0.107,0.004 0.058,-0.015L0.058,-0.145Z" style="fill:white;fill-opacity:0.9;fill-rule:nonzero;"/>
                </g>
                <g transform="matrix(9,0,0,9,73.2436,347.267)">
                    <path d="M0.39,-0.006C0.366,0.007 0.33,0.013 0.282,0.013C0.167,0.013 0.11,-0.047 0.11,-0.167L0.11,-0.422L0.021,-0.422L0.021,-0.54L0.11,-0.54L0.11,-0.659L0.267,-0.704L0.267,-0.54L0.39,-0.54L0.39,-0.422L0.267,-0.422L0.267,-0.195C0.267,-0.137 0.289,-0.108 0.335,-0.108C0.353,-0.108 0.371,-0.114 0.39,-0.124L0.39,-0.006Z" style="fill:white;fill-opacity:0.9;fill-rule:nonzero;"/>
                </g>
                <g transform="matrix(6.6,0,0,6.6,77.1051,347.267)">
                    <path d="M0.106,0.032L0.043,-0.021L0.122,-0.115C0.067,-0.183 0.04,-0.268 0.04,-0.368C0.04,-0.487 0.075,-0.584 0.144,-0.658C0.213,-0.732 0.305,-0.769 0.418,-0.769C0.5,-0.769 0.571,-0.748 0.63,-0.706L0.698,-0.785L0.761,-0.733L0.689,-0.65C0.748,-0.581 0.778,-0.493 0.778,-0.384C0.778,-0.266 0.743,-0.17 0.674,-0.097C0.605,-0.023 0.516,0.013 0.406,0.013C0.32,0.013 0.246,-0.011 0.182,-0.059L0.106,0.032ZM0.54,-0.6C0.506,-0.628 0.463,-0.642 0.413,-0.642C0.349,-0.642 0.297,-0.617 0.258,-0.569C0.218,-0.52 0.199,-0.455 0.199,-0.375C0.199,-0.319 0.208,-0.273 0.227,-0.234L0.54,-0.6ZM0.275,-0.165C0.311,-0.131 0.356,-0.114 0.409,-0.114C0.473,-0.114 0.524,-0.137 0.563,-0.184C0.601,-0.231 0.62,-0.294 0.62,-0.374C0.62,-0.435 0.61,-0.488 0.588,-0.533L0.275,-0.165Z" style="fill:white;fill-opacity:0.9;fill-rule:nonzero;"/>
                </g>
                <g transform="matrix(9,0,0,9,82.6053,347.267)">
                    <path d="M0.551,-0.226L0.196,-0.226C0.201,-0.142 0.252,-0.1 0.347,-0.1C0.407,-0.1 0.459,-0.115 0.505,-0.144L0.505,-0.028C0.456,-0.001 0.391,0.013 0.312,0.013C0.226,0.013 0.159,-0.011 0.111,-0.06C0.063,-0.108 0.04,-0.176 0.04,-0.262C0.04,-0.348 0.065,-0.419 0.116,-0.472C0.167,-0.526 0.23,-0.553 0.307,-0.553C0.384,-0.553 0.443,-0.53 0.487,-0.484C0.53,-0.437 0.551,-0.374 0.551,-0.292L0.551,-0.226ZM0.404,-0.324C0.404,-0.405 0.372,-0.445 0.306,-0.445C0.279,-0.445 0.255,-0.434 0.234,-0.412C0.214,-0.39 0.201,-0.361 0.195,-0.324L0.404,-0.324Z" style="fill:white;fill-opacity:0.9;fill-rule:nonzero;"/>
                </g>
                <g transform="matrix(9,0,0,9,87.9786,347.267)">
                    <path d="M0.416,-0.397C0.397,-0.408 0.374,-0.414 0.346,-0.414C0.31,-0.414 0.282,-0.4 0.261,-0.373C0.24,-0.345 0.229,-0.308 0.229,-0.26L0.229,-0L0.072,-0L0.072,-0.54L0.229,-0.54L0.229,-0.438L0.231,-0.438C0.257,-0.512 0.305,-0.549 0.374,-0.549C0.392,-0.549 0.406,-0.547 0.416,-0.543L0.416,-0.397Z" style="fill:white;fill-opacity:0.9;fill-rule:nonzero;"/>
                </g>
            </g>
        </g>
        <g transform="matrix(1,0,0,1,8.98503,0)">
            <g transform="matrix(0.552947,0,0,2.68149,968.322,-357.984)">
                <path d="M73.138,58.354C73.138,57.564 69.254,56.924 64.471,56.924L13.773,56.924C8.99,56.924 5.107,57.564 5.107,58.354L5.107,82.274C5.107,83.063 8.99,83.704 13.773,83.704L64.471,83.704C69.254,83.704 73.138,83.063 73.138,82.274L73.138,58.354Z" style="fill:white;fill-opacity:0.5;"/>
            </g>
            <g transform="matrix(1.198,0,0,0.958552,940.44,-247.552)">
                <g transform="matrix(6.4,0,0,6.4,33.4327,51.8924)">
                    <path d="M0.039,-0.04L0.086,-0.153C0.136,-0.118 0.185,-0.101 0.234,-0.101C0.308,-0.101 0.346,-0.127 0.346,-0.179C0.346,-0.203 0.337,-0.226 0.319,-0.249C0.302,-0.271 0.266,-0.295 0.211,-0.323C0.156,-0.351 0.119,-0.373 0.1,-0.391C0.081,-0.409 0.066,-0.43 0.056,-0.454C0.046,-0.479 0.041,-0.506 0.041,-0.535C0.041,-0.59 0.061,-0.636 0.101,-0.673C0.142,-0.709 0.194,-0.728 0.257,-0.728C0.34,-0.728 0.401,-0.712 0.439,-0.681L0.401,-0.572C0.356,-0.604 0.309,-0.62 0.26,-0.62C0.23,-0.62 0.208,-0.612 0.192,-0.596C0.176,-0.581 0.167,-0.561 0.167,-0.536C0.167,-0.495 0.213,-0.452 0.304,-0.408C0.352,-0.385 0.386,-0.363 0.407,-0.344C0.428,-0.324 0.444,-0.301 0.456,-0.275C0.467,-0.248 0.472,-0.219 0.472,-0.187C0.472,-0.129 0.449,-0.081 0.404,-0.044C0.358,-0.007 0.297,0.012 0.22,0.012C0.153,0.012 0.093,-0.005 0.039,-0.04Z" style="fill-rule:nonzero;"/>
                </g>
                <g transform="matrix(6.4,0,0,6.4,36.8326,51.8924)">
                    <path d="M0.073,-0L0.073,-0.715L0.2,-0.715L0.2,-0.113L0.523,-0.113L0.523,-0L0.073,-0Z" style="fill-rule:nonzero;"/>
                </g>
                <g transform="matrix(6.4,0,0,6.4,40.4981,51.8924)">
                    <path d="M0.039,-0.364C0.039,-0.466 0.067,-0.552 0.123,-0.622C0.179,-0.693 0.253,-0.728 0.347,-0.728C0.45,-0.728 0.528,-0.696 0.583,-0.632C0.637,-0.569 0.664,-0.479 0.664,-0.364C0.664,-0.249 0.636,-0.157 0.579,-0.089C0.522,-0.022 0.441,0.012 0.337,0.012C0.241,0.012 0.167,-0.021 0.116,-0.088C0.065,-0.155 0.039,-0.247 0.039,-0.364ZM0.171,-0.364C0.171,-0.28 0.185,-0.215 0.213,-0.169C0.242,-0.124 0.283,-0.101 0.337,-0.101C0.4,-0.101 0.449,-0.123 0.482,-0.168C0.516,-0.213 0.532,-0.278 0.532,-0.364C0.532,-0.531 0.47,-0.615 0.347,-0.615C0.29,-0.615 0.247,-0.593 0.216,-0.547C0.186,-0.502 0.171,-0.441 0.171,-0.364Z" style="fill-rule:nonzero;"/>
                </g>
                <g transform="matrix(6.4,0,0,6.4,45.1261,51.8924)">
                    <path d="M0.364,-0.603L0.364,-0L0.237,-0L0.237,-0.603L0.01,-0.603L0.01,-0.715L0.602,-0.715L0.602,-0.603L0.364,-0.603Z" style="fill-rule:nonzero;"/>
                </g>
            </g>
            <g transform="matrix(1.198,0,0,0.958552,940.309,-213.381)">
                <g transform="matrix(6.4,0,0,6.4,31.7921,51.8924)">
                    <path d="M0.477,-0L0.286,-0.295C0.266,-0.296 0.24,-0.297 0.205,-0.299L0.205,-0L0.073,-0L0.073,-0.715C0.08,-0.715 0.108,-0.717 0.156,-0.719C0.204,-0.721 0.242,-0.723 0.271,-0.723C0.453,-0.723 0.544,-0.652 0.544,-0.512C0.544,-0.469 0.531,-0.431 0.506,-0.396C0.481,-0.361 0.45,-0.337 0.412,-0.322L0.623,-0L0.477,-0ZM0.205,-0.605L0.205,-0.406C0.229,-0.404 0.246,-0.403 0.259,-0.403C0.312,-0.403 0.351,-0.411 0.375,-0.426C0.4,-0.441 0.412,-0.47 0.412,-0.513C0.412,-0.548 0.399,-0.573 0.373,-0.587C0.346,-0.601 0.305,-0.608 0.248,-0.608C0.234,-0.608 0.22,-0.607 0.205,-0.605Z" style="fill-rule:nonzero;"/>
                </g>
                <g transform="matrix(6.4,0,0,6.4,35.8295,51.8924)">
                    <path d="M0.2,-0.603L0.2,-0.435L0.437,-0.435L0.437,-0.327L0.2,-0.327L0.2,-0.113L0.524,-0.113L0.524,-0L0.073,-0L0.073,-0.715L0.53,-0.715L0.53,-0.603L0.2,-0.603Z" style="fill-rule:nonzero;"/>
                </g>
                <g transform="matrix(6.4,0,0,6.4,39.5981,51.8924)">
                    <path d="M0.039,-0.04L0.086,-0.153C0.136,-0.118 0.185,-0.101 0.234,-0.101C0.308,-0.101 0.346,-0.127 0.346,-0.179C0.346,-0.203 0.337,-0.226 0.319,-0.249C0.302,-0.271 0.266,-0.295 0.211,-0.323C0.156,-0.351 0.119,-0.373 0.1,-0.391C0.081,-0.409 0.066,-0.43 0.056,-0.454C0.046,-0.479 0.041,-0.506 0.041,-0.535C0.041,-0.59 0.061,-0.636 0.101,-0.673C0.142,-0.709 0.194,-0.728 0.257,-0.728C0.34,-0.728 0.401,-0.712 0.439,-0.681L0.401,-0.572C0.356,-0.604 0.309,-0.62 0.26,-0.62C0.23,-0.62 0.208,-0.612 0.192,-0.596C0.176,-0.581 0.167,-0.561 0.167,-0.536C0.167,-0.495 0.213,-0.452 0.304,-0.408C0.352,-0.385 0.386,-0.363 0.407,-0.344C0.428,-0.324 0.444,-0.301 0.456,-0.275C0.467,-0.248 0.472,-0.219 0.472,-0.187C0.472,-0.129 0.449,-0.081 0.404,-0.044C0.358,-0.007 0.297,0.012 0.22,0.012C0.153,0.012 0.093,-0.005 0.039,-0.04Z" style="fill-rule:nonzero;"/>
                </g>
                <g transform="matrix(6.4,0,0,6.4,42.998,51.8924)">
                    <path d="M0.2,-0.603L0.2,-0.435L0.437,-0.435L0.437,-0.327L0.2,-0.327L0.2,-0.113L0.524,-0.113L0.524,-0L0.073,-0L0.073,-0.715L0.53,-0.715L0.53,-0.603L0.2,-0.603Z" style="fill-rule:nonzero;"/>
                </g>
                <g transform="matrix(6.4,0,0,6.4,46.7666,51.8924)">
                    <path d="M0.364,-0.603L0.364,-0L0.237,-0L0.237,-0.603L0.01,-0.603L0.01,-0.715L0.602,-0.715L0.602,-0.603L0.364,-0.603Z" style="fill-rule:nonzero;"/>
                </g>
            </g>
        </g>
        <g transform="matrix(1.198,0,0,0.958552,949.266,21.5481)">
            <g transform="matrix(6.4,0,0,6.4,31.8218,51.8924)">
                <path d="M0.477,-0L0.286,-0.295C0.266,-0.296 0.24,-0.297 0.205,-0.299L0.205,-0L0.073,-0L0.073,-0.715C0.08,-0.715 0.108,-0.717 0.156,-0.719C0.204,-0.721 0.242,-0.723 0.271,-0.723C0.453,-0.723 0.544,-0.652 0.544,-0.512C0.544,-0.469 0.531,-0.431 0.506,-0.396C0.481,-0.361 0.45,-0.337 0.412,-0.322L0.623,-0L0.477,-0ZM0.205,-0.605L0.205,-0.406C0.229,-0.404 0.246,-0.403 0.259,-0.403C0.312,-0.403 0.351,-0.411 0.375,-0.426C0.4,-0.441 0.412,-0.47 0.412,-0.513C0.412,-0.548 0.399,-0.573 0.373,-0.587C0.346,-0.601 0.305,-0.608 0.248,-0.608C0.234,-0.608 0.22,-0.607 0.205,-0.605Z" style="fill:white;fill-opacity:0.9;fill-rule:nonzero;"/>
            </g>
            <g transform="matrix(6.4,0,0,6.4,35.8592,51.8924)">
                <rect x="0.053" y="-0.347" width="0.258" height="0.115" style="fill:white;fill-opacity:0.9;fill-rule:nonzero;"/>
            </g>
            <g transform="matrix(6.4,0,0,6.4,38.3372,51.8924)">
                <path d="M0.491,-0L0.438,-0.145L0.193,-0.145L0.144,-0L0.002,-0L0.288,-0.725L0.343,-0.725L0.631,-0L0.491,-0ZM0.315,-0.506L0.229,-0.242L0.401,-0.242L0.315,-0.506Z" style="fill:white;fill-opacity:0.9;fill-rule:nonzero;"/>
            </g>
            <g transform="matrix(6.4,0,0,6.4,42.5183,51.8924)">
                <rect x="0.053" y="-0.347" width="0.258" height="0.115" style="fill:white;fill-opacity:0.9;fill-rule:nonzero;"/>
            </g>
            <g transform="matrix(6.4,0,0,6.4,44.9963,51.8924)">
                <path d="M0.65,0.01L0.598,0.01L0.441,-0.441L0.29,0.01L0.237,0.01L0.002,-0.715L0.135,-0.715L0.269,-0.284L0.414,-0.715L0.47,-0.715L0.615,-0.284L0.749,-0.715L0.881,-0.715L0.65,0.01Z" style="fill:white;fill-opacity:0.9;fill-rule:nonzero;"/>
            </g>
        </g>
        <g transform="matrix(1,0,0,1,-5.79874,5.68434e-14)">
            <g transform="matrix(1.61915,0.976243,-1.1925,1.2662,1120.15,-272.548)">
                <ellipse cx="12.85" cy="131.479" rx="0.65" ry="0.665" style="fill:white;fill-opacity:0.9;"/>
            </g>
            <g transform="matrix(1.86611,0.634046,-0.774502,1.45933,1058.97,-292.108)">
                <ellipse cx="12.85" cy="131.479" rx="0.65" ry="0.665" style="fill:white;fill-opacity:0.9;"/>
            </g>
        </g>
        <g transform="matrix(1,0,0,1,-5.79874,5.68434e-14)">
            <g transform="matrix(1.61915,0.976243,-1.1925,1.2662,1120.15,-249.981)">
                <ellipse cx="12.85" cy="131.479" rx="0.65" ry="0.665" style="fill:white;fill-opacity:0.9;"/>
            </g>
            <g transform="matrix(2.00243,0.253763,-0.309977,1.56594,993.627,-276.687)">
                <ellipse cx="12.85" cy="131.479" rx="0.65" ry="0.665" style="fill:white;fill-opacity:0.9;"/>
            </g>
            <g transform="matrix(1.86611,0.634046,-0.774502,1.45933,1058.97,-269.541)">
                <ellipse cx="12.85" cy="131.479" rx="0.65" ry="0.665" style="fill:white;fill-opacity:0.9;"/>
            </g>
        </g>
        <g transform="matrix(1,0,0,1,-5.79874,5.68434e-14)">
            <g transform="matrix(1.61915,0.976243,-1.1925,1.2662,1120.15,-227.415)">
                <ellipse cx="12.85" cy="131.479" rx="0.65" ry="0.665" style="fill:white;fill-opacity:0.9;"/>
            </g>
            <g transform="matrix(2.01968,-0.141381,0.1727,1.57942,928.099,-248.404)">
                <ellipse cx="12.85" cy="131.479" rx="0.65" ry="0.665" style="fill:white;fill-opacity:0.9;"/>
            </g>
            <g transform="matrix(2.00243,0.253763,-0.309977,1.56594,993.627,-254.12)">
                <ellipse cx="12.85" cy="131.479" rx="0.65" ry="0.665" style="fill:white;fill-opacity:0.9;"/>
            </g>
            <g transform="matrix(1.86611,0.634046,-0.774502,1.45933,1058.97,-246.974)">
                <ellipse cx="12.85" cy="131.479" rx="0.65" ry="0.665" style="fill:white;fill-opacity:0.9;"/>
            </g>
        </g>
        <g transform="matrix(1,0,0,1,-5.79874,5.68434e-14)">
            <g transform="matrix(1.61915,0.976243,-1.1925,1.2662,1120.15,-204.848)">
                <ellipse cx="12.85" cy="131.479" rx="0.65" ry="0.665" style="fill:white;fill-opacity:0.9;"/>
            </g>
            <g transform="matrix(2.01968,-0.141381,0.1727,1.57942,928.099,-225.837)">
                <ellipse cx="12.85" cy="131.479" rx="0.65" ry="0.665" style="fill:white;fill-opacity:0.9;"/>
            </g>
            <g transform="matrix(1.91694,-0.528125,0.645118,1.49908,866.246,-207.607)">
                <ellipse cx="12.85" cy="131.479" rx="0.65" ry="0.665" style="fill:white;fill-opacity:0.9;"/>
            </g>
            <g transform="matrix(2.00243,0.253763,-0.309977,1.56594,993.627,-231.553)">
                <ellipse cx="12.85" cy="131.479" rx="0.65" ry="0.665" style="fill:white;fill-opacity:0.9;"/>
            </g>
            <g transform="matrix(1.86611,0.634046,-0.774502,1.45933,1058.97,-224.407)">
                <ellipse cx="12.85" cy="131.479" rx="0.65" ry="0.665" style="fill:white;fill-opacity:0.9;"/>
            </g>
        </g>
        <g transform="matrix(1,0,0,1,-5.79874,5.68434e-14)">
            <g transform="matrix(1.61915,0.976243,-1.1925,1.2662,1120.15,-182.281)">
                <ellipse cx="12.85" cy="131.479" rx="0.65" ry="0.665" style="fill:white;fill-opacity:0.9;"/>
            </g>
            <g transform="matrix(2.01968,-0.141381,0.1727,1.57942,928.099,-203.27)">
                <ellipse cx="12.85" cy="131.479" rx="0.65" ry="0.665" style="fill:white;fill-opacity:0.9;"/>
            </g>
            <g transform="matrix(1.91694,-0.528125,0.645118,1.49908,866.246,-185.04)">
                <ellipse cx="12.85" cy="131.479" rx="0.65" ry="0.665" style="fill:white;fill-opacity:0.9;"/>
            </g>
            <g transform="matrix(1.68078,-0.907103,1.10805,1.3144,808.219,-152.865)">
                <ellipse cx="12.85" cy="131.479" rx="0.65" ry="0.665" style="fill:white;fill-opacity:0.9;"/>
            </g>
            <g transform="matrix(2.00243,0.253763,-0.309977,1.56594,993.627,-208.986)">
                <ellipse cx="12.85" cy="131.479" rx="0.65" ry="0.665" style="fill:white;fill-opacity:0.9;"/>
            </g>
            <g transform="matrix(1.86611,0.634046,-0.774502,1.45933,1058.97,-201.84)">
                <ellipse cx="12.85" cy="131.479" rx="0.65" ry="0.665" style="fill:white;fill-opacity:0.9;"/>
            </g>
        </g>
        <g transform="matrix(1,0,0,1,-5.79874,5.68434e-14)">
            <g transform="matrix(1.61915,0.976243,-1.1925,1.2662,1120.15,-159.714)">
                <ellipse cx="12.85" cy="131.479" rx="0.65" ry="0.665" style="fill:white;fill-opacity:0.9;"/>
            </g>
            <g transform="matrix(2.01968,-0.141381,0.1727,1.57942,928.099,-180.703)">
                <ellipse cx="12.85" cy="131.479" rx="0.65" ry="0.665" style="fill:white;fill-opacity:0.9;"/>
            </g>
            <g transform="matrix(1.91694,-0.528125,0.645118,1.49908,866.246,-162.473)">
                <ellipse cx="12.85" cy="131.479" rx="0.65" ry="0.665" style="fill:white;fill-opacity:0.9;"/>
            </g>
            <g transform="matrix(1.68078,-0.907103,1.10805,1.3144,808.219,-130.298)">
                <ellipse cx="12.85" cy="131.479" rx="0.65" ry="0.665" style="fill:white;fill-opacity:0.9;"/>
            </g>
            <g transform="matrix(1.35659,-1.2055,1.47255,1.06088,765.167,-90.3595)">
                <ellipse cx="12.85" cy="131.479" rx="0.65" ry="0.665" style="fill:white;fill-opacity:0.9;"/>
            </g>
            <g transform="matrix(2.00243,0.253763,-0.309977,1.56594,993.627,-186.419)">
                <ellipse cx="12.85" cy="131.479" rx="0.65" ry="0.665" style="fill:white;fill-opacity:0.9;"/>
            </g>
            <g transform="matrix(1.86611,0.634046,-0.774502,1.45933,1058.97,-179.274)">
                <ellipse cx="12.85" cy="131.479" rx="0.65" ry="0.665" style="fill:white;fill-opacity:0.9;"/>
            </g>
        </g>
        <g transform="matrix(1,0,0,1,-5.79874,137.136)">
            <g transform="matrix(1.61915,0.976243,-1.1925,1.2662,1120.15,-274.283)">
                <ellipse cx="12.85" cy="131.479" rx="0.65" ry="0.665" style="fill:white;fill-opacity:0.9;"/>
            </g>
            <g transform="matrix(0.951802,-1.43229,1.74957,0.744327,735.469,-157.843)">
                <ellipse cx="12.85" cy="131.479" rx="0.65" ry="0.665" style="fill:white;fill-opacity:0.9;"/>
            </g>
            <g transform="matrix(2.01968,-0.141381,0.1727,1.57942,928.099,-295.272)">
                <ellipse cx="12.85" cy="131.479" rx="0.65" ry="0.665" style="fill:white;fill-opacity:0.9;"/>
            </g>
            <g transform="matrix(1.91694,-0.528125,0.645118,1.49908,866.246,-277.041)">
                <ellipse cx="12.85" cy="131.479" rx="0.65" ry="0.665" style="fill:white;fill-opacity:0.9;"/>
            </g>
            <g transform="matrix(1.68078,-0.907103,1.10805,1.3144,808.219,-244.866)">
                <ellipse cx="12.85" cy="131.479" rx="0.65" ry="0.665" style="fill:white;fill-opacity:0.9;"/>
            </g>
            <g transform="matrix(1.35659,-1.2055,1.47255,1.06088,765.167,-204.928)">
                <ellipse cx="12.85" cy="131.479" rx="0.65" ry="0.665" style="fill:white;fill-opacity:0.9;"/>
            </g>
            <g transform="matrix(2.00243,0.253763,-0.309977,1.56594,993.627,-300.988)">
                <ellipse cx="12.85" cy="131.479" rx="0.65" ry="0.665" style="fill:white;fill-opacity:0.9;"/>
            </g>
            <g transform="matrix(1.86611,0.634046,-0.774502,1.45933,1058.97,-293.842)">
                <ellipse cx="12.85" cy="131.479" rx="0.65" ry="0.665" style="fill:white;fill-opacity:0.9;"/>
            </g>
        </g>
        <g transform="matrix(1.61915,0.976243,-1.1925,1.2662,1114.35,-295.487)">
            <ellipse cx="12.85" cy="131.479" rx="0.65" ry="0.665" style="fill:white;fill-opacity:0.9;"/>
        </g>
        <g transform="matrix(-1,0,0,1,2003.68,0.212188)">
            <g transform="matrix(1.61915,0.976243,-1.1925,1.2662,1120.15,-272.548)">
                <ellipse cx="12.85" cy="131.479" rx="0.65" ry="0.665" style="fill:white;fill-opacity:0.9;"/>
            </g>
            <g transform="matrix(1.86611,0.634046,-0.774502,1.45933,1058.97,-292.108)">
                <ellipse cx="12.85" cy="131.479" rx="0.65" ry="0.665" style="fill:white;fill-opacity:0.9;"/>
            </g>
        </g>
        <g transform="matrix(-1,0,0,1,2003.68,0.212188)">
            <g transform="matrix(1.61915,0.976243,-1.1925,1.2662,1120.15,-249.981)">
                <ellipse cx="12.85" cy="131.479" rx="0.65" ry="0.665" style="fill:white;fill-opacity:0.9;"/>
            </g>
            <g transform="matrix(2.00243,0.253763,-0.309977,1.56594,993.627,-276.687)">
                <ellipse cx="12.85" cy="131.479" rx="0.65" ry="0.665" style="fill:white;fill-opacity:0.9;"/>
            </g>
            <g transform="matrix(1.86611,0.634046,-0.774502,1.45933,1058.97,-269.541)">
                <ellipse cx="12.85" cy="131.479" rx="0.65" ry="0.665" style="fill:white;fill-opacity:0.9;"/>
            </g>
        </g>
        <g transform="matrix(-1,0,0,1,2003.68,0.212188)">
            <g transform="matrix(1.61915,0.976243,-1.1925,1.2662,1120.15,-227.415)">
                <ellipse cx="12.85" cy="131.479" rx="0.65" ry="0.665" style="fill:white;fill-opacity:0.9;"/>
            </g>
            <g transform="matrix(2.01968,-0.141381,0.1727,1.57942,928.099,-248.404)">
                <ellipse cx="12.85" cy="131.479" rx="0.65" ry="0.665" style="fill:white;fill-opacity:0.9;"/>
            </g>
            <g transform="matrix(2.00243,0.253763,-0.309977,1.56594,993.627,-254.12)">
                <ellipse cx="12.85" cy="131.479" rx="0.65" ry="0.665" style="fill:white;fill-opacity:0.9;"/>
            </g>
            <g transform="matrix(1.86611,0.634046,-0.774502,1.45933,1058.97,-246.974)">
                <ellipse cx="12.85" cy="131.479" rx="0.65" ry="0.665" style="fill:white;fill-opacity:0.9;"/>
            </g>
        </g>
        <g transform="matrix(-1,0,0,1,2003.68,0.212188)">
            <g transform="matrix(1.61915,0.976243,-1.1925,1.2662,1120.15,-204.848)">
                <ellipse cx="12.85" cy="131.479" rx="0.65" ry="0.665" style="fill:white;fill-opacity:0.9;"/>
            </g>
            <g transform="matrix(2.01968,-0.141381,0.1727,1.57942,928.099,-225.837)">
                <ellipse cx="12.85" cy="131.479" rx="0.65" ry="0.665" style="fill:white;fill-opacity:0.9;"/>
            </g>
            <g transform="matrix(1.91694,-0.528125,0.645118,1.49908,866.246,-207.607)">
                <ellipse cx="12.85" cy="131.479" rx="0.65" ry="0.665" style="fill:white;fill-opacity:0.9;"/>
            </g>
            <g transform="matrix(2.00243,0.253763,-0.309977,1.56594,993.627,-231.553)">
                <ellipse cx="12.85" cy="131.479" rx="0.65" ry="0.665" style="fill:white;fill-opacity:0.9;"/>
            </g>
            <g transform="matrix(1.86611,0.634046,-0.774502,1.45933,1058.97,-224.407)">
                <ellipse cx="12.85" cy="131.479" rx="0.65" ry="0.665" style="fill:white;fill-opacity:0.9;"/>
            </g>
        </g>
        <g transform="matrix(-1,0,0,1,2003.68,0.212188)">
            <g transform="matrix(1.61915,0.976243,-1.1925,1.2662,1120.15,-182.281)">
                <ellipse cx="12.85" cy="131.479" rx="0.65" ry="0.665" style="fill:white;fill-opacity:0.9;"/>
            </g>
            <g transform="matrix(2.01968,-0.141381,0.1727,1.57942,928.099,-203.27)">
                <ellipse cx="12.85" cy="131.479" rx="0.65" ry="0.665" style="fill:white;fill-opacity:0.9;"/>
            </g>
            <g transform="matrix(1.91694,-0.528125,0.645118,1.49908,866.246,-185.04)">
                <ellipse cx="12.85" cy="131.479" rx="0.65" ry="0.665" style="fill:white;fill-opacity:0.9;"/>
            </g>
            <g transform="matrix(1.68078,-0.907103,1.10805,1.3144,808.219,-152.865)">
                <ellipse cx="12.85" cy="131.479" rx="0.65" ry="0.665" style="fill:white;fill-opacity:0.9;"/>
            </g>
            <g transform="matrix(2.00243,0.253763,-0.309977,1.56594,993.627,-208.986)">
                <ellipse cx="12.85" cy="131.479" rx="0.65" ry="0.665" style="fill:white;fill-opacity:0.9;"/>
            </g>
            <g transform="matrix(1.86611,0.634046,-0.774502,1.45933,1058.97,-201.84)">
                <ellipse cx="12.85" cy="131.479" rx="0.65" ry="0.665" style="fill:white;fill-opacity:0.9;"/>
            </g>
        </g>
        <g transform="matrix(-1,0,0,1,2003.68,0.212188)">
            <g transform="matrix(1.61915,0.976243,-1.1925,1.2662,1120.15,-159.714)">
                <ellipse cx="12.85" cy="131.479" rx="0.65" ry="0.665" style="fill:white;fill-opacity:0.9;"/>
            </g>
            <g transform="matrix(2.01968,-0.141381,0.1727,1.57942,928.099,-180.703)">
                <ellipse cx="12.85" cy="131.479" rx="0.65" ry="0.665" style="fill:white;fill-opacity:0.9;"/>
            </g>
            <g transform="matrix(1.91694,-0.528125,0.645118,1.49908,866.246,-162.473)">
                <ellipse cx="12.85" cy="131.479" rx="0.65" ry="0.665" style="fill:white;fill-opacity:0.9;"/>
            </g>
            <g transform="matrix(1.68078,-0.907103,1.10805,1.3144,808.219,-130.298)">
                <ellipse cx="12.85" cy="131.479" rx="0.65" ry="0.665" style="fill:white;fill-opacity:0.9;"/>
            </g>
            <g transform="matrix(1.35659,-1.2055,1.47255,1.06088,765.167,-90.3595)">
                <ellipse cx="12.85" cy="131.479" rx="0.65" ry="0.665" style="fill:white;fill-opacity:0.9;"/>
            </g>
            <g transform="matrix(2.00243,0.253763,-0.309977,1.56594,993.627,-186.419)">
                <ellipse cx="12.85" cy="131.479" rx="0.65" ry="0.665" style="fill:white;fill-opacity:0.9;"/>
            </g>
            <g transform="matrix(1.86611,0.634046,-0.774502,1.45933,1058.97,-179.274)">
                <ellipse cx="12.85" cy="131.479" rx="0.65" ry="0.665" style="fill:white;fill-opacity:0.9;"/>
            </g>
        </g>
        <g transform="matrix(-1,0,0,1,2003.68,137.348)">
            <g transform="matrix(1.61915,0.976243,-1.1925,1.2662,1120.15,-274.283)">
                <ellipse cx="12.85" cy="131.479" rx="0.65" ry="0.665" style="fill:white;fill-opacity:0.9;"/>
            </g>
            <g transform="matrix(0.951802,-1.43229,1.74957,0.744327,735.469,-157.843)">
                <ellipse cx="12.85" cy="131.479" rx="0.65" ry="0.665" style="fill:white;fill-opacity:0.9;"/>
            </g>
            <g transform="matrix(2.01968,-0.141381,0.1727,1.57942,928.099,-295.272)">
                <ellipse cx="12.85" cy="131.479" rx="0.65" ry="0.665" style="fill:white;fill-opacity:0.9;"/>
            </g>
            <g transform="matrix(1.91694,-0.528125,0.645118,1.49908,866.246,-277.041)">
                <ellipse cx="12.85" cy="131.479" rx="0.65" ry="0.665" style="fill:white;fill-opacity:0.9;"/>
            </g>
            <g transform="matrix(1.68078,-0.907103,1.10805,1.3144,808.219,-244.866)">
                <ellipse cx="12.85" cy="131.479" rx="0.65" ry="0.665" style="fill:white;fill-opacity:0.9;"/>
            </g>
            <g transform="matrix(1.35659,-1.2055,1.47255,1.06088,765.167,-204.928)">
                <ellipse cx="12.85" cy="131.479" rx="0.65" ry="0.665" style="fill:white;fill-opacity:0.9;"/>
            </g>
            <g transform="matrix(2.00243,0.253763,-0.309977,1.56594,993.627,-300.988)">
                <ellipse cx="12.85" cy="131.479" rx="0.65" ry="0.665" style="fill:white;fill-opacity:0.9;"/>
            </g>
            <g transform="matrix(1.86611,0.634046,-0.774502,1.45933,1058.97,-293.842)">
                <ellipse cx="12.85" cy="131.479" rx="0.65" ry="0.665" style="fill:white;fill-opacity:0.9;"/>
            </g>
        </g>
        <g transform="matrix(-1.61915,0.976243,1.1925,1.2662,883.529,-295.275)">
            <ellipse cx="12.85" cy="131.479" rx="0.65" ry="0.665" style="fill:white;fill-opacity:0.9;"/>
        </g>
        <g>
            <g transform="matrix(0.920594,0,0,0.759609,957.291,-168.117)">
                <ellipse cx="29.183" cy="141.909" rx="13.008" ry="12.614" style="fill:white;fill-opacity:0.3;"/>
            </g>
            <g transform="matrix(0.920594,0,0,0.759609,957.291,-213.251)">
                <ellipse cx="29.183" cy="141.909" rx="13.008" ry="12.614" style="fill:white;fill-opacity:0.3;"/>
            </g>
            <g transform="matrix(0.920594,0,0,0.759609,957.291,-190.684)">
                <ellipse cx="29.183" cy="141.909" rx="13.008" ry="12.614" style="fill:white;fill-opacity:0.3;"/>
            </g>
            <g transform="matrix(0.920594,0,0,0.759609,957.291,-145.55)">
                <ellipse cx="29.183" cy="141.909" rx="13.008" ry="12.614" style="fill:white;fill-opacity:0.3;"/>
            </g>
            <g transform="matrix(0.920594,0,0,0.759609,957.291,-122.983)">
                <ellipse cx="29.183" cy="141.909" rx="13.008" ry="12.614" style="fill:white;fill-opacity:0.3;"/>
            </g>
            <g transform="matrix(0.920594,0,0,0.759609,957.291,-100.416)">
                <ellipse cx="29.183" cy="141.909" rx="13.008" ry="12.614" style="fill:white;fill-opacity:0.3;"/>
            </g>
            <g transform="matrix(0.920594,0,0,0.759609,957.291,-77.8494)">
                <ellipse cx="29.183" cy="141.909" rx="13.008" ry="12.614" style="fill:white;fill-opacity:0.3;"/>
            </g>
            <g transform="matrix(0.920594,0,0,0.759609,957.291,-55.2825)">
                <ellipse cx="29.183" cy="141.909" rx="13.008" ry="12.614" style="fill:white;fill-opacity:0.3;"/>
            </g>
            <g transform="matrix(-0.920594,0,0,0.759609,1040.59,-167.905)">
                <ellipse cx="29.183" cy="141.909" rx="13.008" ry="12.614" style="fill:white;fill-opacity:0.3;"/>
            </g>
            <g transform="matrix(-0.920594,0,0,0.759609,1040.59,-213.039)">
                <ellipse cx="29.183" cy="141.909" rx="13.008" ry="12.614" style="fill:white;fill-opacity:0.3;"/>
            </g>
            <g transform="matrix(-0.920594,0,0,0.759609,1040.59,-190.472)">
                <ellipse cx="29.183" cy="141.909" rx="13.008" ry="12.614" style="fill:white;fill-opacity:0.3;"/>
            </g>
            <g transform="matrix(-0.920594,0,0,0.759609,1040.59,-145.338)">
                <ellipse cx="29.183" cy="141.909" rx="13.008" ry="12.614" style="fill:white;fill-opacity:0.3;"/>
            </g>
            <g transform="matrix(-0.920594,0,0,0.759609,1040.59,-122.771)">
                <ellipse cx="29.183" cy="141.909" rx="13.008" ry="12.614" style="fill:white;fill-opacity:0.3;"/>
            </g>
            <g transform="matrix(-0.920594,0,0,0.759609,1040.59,-100.204)">
                <ellipse cx="29.183" cy="141.909" rx="13.008" ry="12.614" style="fill:white;fill-opacity:0.3;"/>
            </g>
            <g transform="matrix(-0.920594,0,0,0.759609,1040.59,-77.6373)">
                <ellipse cx="29.183" cy="141.909" rx="13.008" ry="12.614" style="fill:white;fill-opacity:0.3;"/>
            </g>
            <g transform="matrix(-0.920594,0,0,0.759609,1040.59,-55.0703)">
                <ellipse cx="29.183" cy="141.909" rx="13.008" ry="12.614" style="fill:white;fill-opacity:0.3;"/>
            </g>
        </g>
    </g>
</svg>
