<?xml version="1.0" encoding="UTF-8" standalone="no"?>
<!DOCTYPE svg PUBLIC "-//W3C//DTD SVG 1.1//EN" "http://www.w3.org/Graphics/SVG/1.1/DTD/svg11.dtd">
<svg width="100%" height="100%" viewBox="0 0 390 380" version="1.1" xmlns="http://www.w3.org/2000/svg" xmlns:xlink="http://www.w3.org/1999/xlink" xml:space="preserve" xmlns:serif="http://www.serif.com/" style="fill-rule:evenodd;clip-rule:evenodd;stroke-linecap:round;stroke-linejoin:round;stroke-miterlimit:1.5;">
    <g id="panel" transform="matrix(0.834722,0,0,1.04324,-698.837,250.623)">
        <g transform="matrix(7.78702,0,0,0.958552,837.21,-240.235)">
            <rect x="0" y="0" width="60" height="380" style="fill:rgb(64,64,64);"/>
        </g>
        <g transform="matrix(20.861,0,0,25.5659,57.2661,-292.473)">
            <rect x="37.388" y="2.043" width="22.397" height="14.247" style="fill:none;stroke:rgb(32,6,118);stroke-opacity:0.7;stroke-width:0.03px;"/>
        </g>
        <g transform="matrix(2.76296,0,0,1.81823,920.192,-538.329)">
            <rect x="-30.034" y="347.456" width="169.102" height="16.91" style="fill:rgb(10,10,44);fill-opacity:0.8;"/>
        </g>
        <g transform="matrix(2.76296,0,0,1.76292,920.192,-852.772)">
            <rect x="-30.034" y="347.456" width="169.102" height="16.91" style="fill:rgb(10,10,44);fill-opacity:0.8;"/>
        </g>
        <g transform="matrix(1.198,0,0,0.958552,985.642,-264.571)">
            <g transform="matrix(5.6,0,0,5.6,19.5502,53.3564)">
                <path d="M0.2,-0.263L0.2,0L0.073,0L0.073,-0.715C0.158,-0.718 0.207,-0.72 0.222,-0.72C0.335,-0.72 0.417,-0.703 0.469,-0.668C0.522,-0.634 0.548,-0.579 0.548,-0.506C0.548,-0.342 0.451,-0.26 0.258,-0.26C0.243,-0.26 0.224,-0.261 0.2,-0.263ZM0.2,-0.605L0.2,-0.376C0.222,-0.374 0.239,-0.373 0.251,-0.373C0.309,-0.373 0.351,-0.382 0.378,-0.402C0.405,-0.421 0.418,-0.452 0.418,-0.496C0.418,-0.57 0.358,-0.607 0.239,-0.607C0.225,-0.607 0.213,-0.607 0.2,-0.605Z" style="fill:white;fill-opacity:0.7;fill-rule:nonzero;"/>
            </g>
            <g transform="matrix(5.6,0,0,5.6,22.5333,53.3564)">
                <path d="M0.491,0L0.438,-0.145L0.193,-0.145L0.144,0L0.002,0L0.288,-0.725L0.343,-0.725L0.631,0L0.491,0ZM0.315,-0.506L0.229,-0.242L0.401,-0.242L0.315,-0.506Z" style="fill:white;fill-opacity:0.7;fill-rule:nonzero;"/>
            </g>
            <g transform="matrix(5.6,0,0,5.6,25.6613,53.3564)">
                <path d="M0.364,-0.603L0.364,0L0.237,0L0.237,-0.603L0.01,-0.603L0.01,-0.715L0.602,-0.715L0.602,-0.603L0.364,-0.603Z" style="fill:white;fill-opacity:0.7;fill-rule:nonzero;"/>
            </g>
            <g transform="matrix(5.6,0,0,5.6,29.1995,53.3564)">
                <path d="M0.364,-0.603L0.364,0L0.237,0L0.237,-0.603L0.01,-0.603L0.01,-0.715L0.602,-0.715L0.602,-0.603L0.364,-0.603Z" style="fill:white;fill-opacity:0.7;fill-rule:nonzero;"/>
            </g>
            <g transform="matrix(5.6,0,0,5.6,32.7377,53.3564)">
                <path d="M0.2,-0.603L0.2,-0.435L0.437,-0.435L0.437,-0.327L0.2,-0.327L0.2,-0.113L0.524,-0.113L0.524,0L0.073,0L0.073,-0.715L0.53,-0.715L0.53,-0.603L0.2,-0.603Z" style="fill:white;fill-opacity:0.7;fill-rule:nonzero;"/>
            </g>
            <g transform="matrix(5.6,0,0,5.6,36.0352,53.3564)">
                <path d="M0.477,0L0.286,-0.295C0.266,-0.296 0.24,-0.297 0.205,-0.299L0.205,0L0.073,0L0.073,-0.715C0.08,-0.715 0.108,-0.717 0.156,-0.719C0.204,-0.721 0.242,-0.723 0.271,-0.723C0.453,-0.723 0.544,-0.652 0.544,-0.512C0.544,-0.469 0.531,-0.431 0.506,-0.396C0.481,-0.361 0.45,-0.337 0.412,-0.322L0.623,0L0.477,0ZM0.205,-0.605L0.205,-0.406C0.229,-0.404 0.246,-0.403 0.259,-0.403C0.312,-0.403 0.351,-0.411 0.375,-0.426C0.4,-0.441 0.412,-0.47 0.412,-0.513C0.412,-0.548 0.399,-0.573 0.373,-0.587C0.346,-0.601 0.305,-0.608 0.248,-0.608C0.234,-0.608 0.22,-0.607 0.205,-0.605Z" style="fill:white;fill-opacity:0.7;fill-rule:nonzero;"/>
            </g>
            <g transform="matrix(5.6,0,0,5.6,39.5679,53.3564)">
                <path d="M0.542,0.01L0.195,-0.443L0.195,0L0.073,0L0.073,-0.715L0.134,-0.715L0.472,-0.284L0.472,-0.715L0.594,-0.715L0.594,0.01L0.542,0.01Z" style="fill:white;fill-opacity:0.7;fill-rule:nonzero;"/>
            </g>
            <g transform="matrix(5.6,0,0,5.6,43.4178,53.3564)">
                <rect x="0.053" y="-0.347" width="0.258" height="0.115" style="fill:white;fill-opacity:0.7;fill-rule:nonzero;"/>
            </g>
            <g transform="matrix(5.6,0,0,5.6,45.5861,53.3564)">
                <path d="M0.232,0L0.073,0L0.073,-0.715C0.174,-0.718 0.238,-0.72 0.264,-0.72C0.368,-0.72 0.451,-0.69 0.512,-0.629C0.573,-0.568 0.604,-0.487 0.604,-0.386C0.604,-0.129 0.48,0 0.232,0ZM0.2,-0.604L0.2,-0.116C0.221,-0.114 0.243,-0.113 0.267,-0.113C0.331,-0.113 0.381,-0.136 0.417,-0.183C0.454,-0.229 0.472,-0.294 0.472,-0.378C0.472,-0.531 0.401,-0.607 0.258,-0.607C0.245,-0.607 0.225,-0.606 0.2,-0.604Z" style="fill:white;fill-opacity:0.7;fill-rule:nonzero;"/>
            </g>
            <g transform="matrix(5.6,0,0,5.6,49.2965,53.3564)">
                <path d="M0.477,0L0.286,-0.295C0.266,-0.296 0.24,-0.297 0.205,-0.299L0.205,0L0.073,0L0.073,-0.715C0.08,-0.715 0.108,-0.717 0.156,-0.719C0.204,-0.721 0.242,-0.723 0.271,-0.723C0.453,-0.723 0.544,-0.652 0.544,-0.512C0.544,-0.469 0.531,-0.431 0.506,-0.396C0.481,-0.361 0.45,-0.337 0.412,-0.322L0.623,0L0.477,0ZM0.205,-0.605L0.205,-0.406C0.229,-0.404 0.246,-0.403 0.259,-0.403C0.312,-0.403 0.351,-0.411 0.375,-0.426C0.4,-0.441 0.412,-0.47 0.412,-0.513C0.412,-0.548 0.399,-0.573 0.373,-0.587C0.346,-0.601 0.305,-0.608 0.248,-0.608C0.234,-0.608 0.22,-0.607 0.205,-0.605Z" style="fill:white;fill-opacity:0.7;fill-rule:nonzero;"/>
            </g>
            <g transform="matrix(5.6,0,0,5.6,52.8292,53.3564)">
                <rect x="0.076" y="-0.715" width="0.127" height="0.715" style="fill:white;fill-opacity:0.7;fill-rule:nonzero;"/>
            </g>
            <g transform="matrix(5.6,0,0,5.6,54.4998,53.3564)">
                <path d="M0.34,0.01L0.27,0.01L0.002,-0.715L0.142,-0.715L0.308,-0.232L0.482,-0.715L0.619,-0.715L0.34,0.01Z" style="fill:white;fill-opacity:0.7;fill-rule:nonzero;"/>
            </g>
            <g transform="matrix(5.6,0,0,5.6,58.0927,53.3564)">
                <path d="M0.2,-0.603L0.2,-0.435L0.437,-0.435L0.437,-0.327L0.2,-0.327L0.2,-0.113L0.524,-0.113L0.524,0L0.073,0L0.073,-0.715L0.53,-0.715L0.53,-0.603L0.2,-0.603Z" style="fill:white;fill-opacity:0.7;fill-rule:nonzero;"/>
            </g>
            <g transform="matrix(5.6,0,0,5.6,61.3902,53.3564)">
                <path d="M0.542,0.01L0.195,-0.443L0.195,0L0.073,0L0.073,-0.715L0.134,-0.715L0.472,-0.284L0.472,-0.715L0.594,-0.715L0.594,0.01L0.542,0.01Z" style="fill:white;fill-opacity:0.7;fill-rule:nonzero;"/>
            </g>
            <g transform="matrix(5.6,0,0,5.6,67.0392,53.3564)">
                <path d="M0.278,0L0.278,-0.516L0.132,-0.428L0.132,-0.55C0.226,-0.596 0.3,-0.652 0.354,-0.718L0.405,-0.718L0.405,0L0.278,0Z" style="fill:white;fill-opacity:0.7;fill-rule:nonzero;"/>
            </g>
            <g transform="matrix(5.6,0,0,5.6,70.4325,53.3564)">
                <path d="M0.371,-0.729L0.438,-0.658C0.39,-0.633 0.346,-0.599 0.306,-0.558C0.266,-0.517 0.239,-0.476 0.224,-0.436C0.258,-0.451 0.287,-0.458 0.312,-0.458C0.379,-0.458 0.434,-0.438 0.474,-0.396C0.515,-0.354 0.536,-0.297 0.536,-0.226C0.536,-0.156 0.515,-0.099 0.473,-0.055C0.431,-0.012 0.378,0.01 0.314,0.01C0.148,0.01 0.064,-0.094 0.064,-0.302C0.064,-0.389 0.097,-0.478 0.161,-0.567C0.225,-0.656 0.295,-0.711 0.371,-0.729ZM0.196,-0.229C0.196,-0.142 0.233,-0.098 0.307,-0.098C0.337,-0.098 0.361,-0.109 0.379,-0.131C0.397,-0.152 0.406,-0.182 0.406,-0.221C0.406,-0.261 0.397,-0.292 0.378,-0.316C0.359,-0.339 0.335,-0.351 0.306,-0.351C0.233,-0.351 0.196,-0.31 0.196,-0.229Z" style="fill:white;fill-opacity:0.7;fill-rule:nonzero;"/>
            </g>
            <g transform="matrix(5.6,0,0,5.6,73.8257,53.3564)">
                <rect x="0.053" y="-0.347" width="0.258" height="0.115" style="fill:white;fill-opacity:0.7;fill-rule:nonzero;"/>
            </g>
            <g transform="matrix(5.6,0,0,5.6,75.994,53.3564)">
                <path d="M0.039,-0.04L0.086,-0.153C0.136,-0.118 0.185,-0.101 0.234,-0.101C0.308,-0.101 0.346,-0.127 0.346,-0.179C0.346,-0.203 0.337,-0.226 0.319,-0.249C0.302,-0.271 0.266,-0.295 0.211,-0.323C0.156,-0.351 0.119,-0.373 0.1,-0.391C0.081,-0.409 0.066,-0.43 0.056,-0.454C0.046,-0.479 0.041,-0.506 0.041,-0.535C0.041,-0.59 0.061,-0.636 0.101,-0.673C0.142,-0.709 0.194,-0.728 0.257,-0.728C0.34,-0.728 0.401,-0.712 0.439,-0.681L0.401,-0.572C0.356,-0.604 0.309,-0.62 0.26,-0.62C0.23,-0.62 0.208,-0.612 0.192,-0.596C0.176,-0.581 0.167,-0.561 0.167,-0.536C0.167,-0.495 0.213,-0.452 0.304,-0.408C0.352,-0.385 0.386,-0.363 0.407,-0.344C0.428,-0.324 0.444,-0.301 0.456,-0.275C0.467,-0.248 0.472,-0.219 0.472,-0.187C0.472,-0.129 0.449,-0.081 0.404,-0.044C0.358,-0.007 0.297,0.012 0.22,0.012C0.153,0.012 0.093,-0.005 0.039,-0.04Z" style="fill:white;fill-opacity:0.7;fill-rule:nonzero;"/>
            </g>
            <g transform="matrix(5.6,0,0,5.6,78.9688,53.3564)">
                <path d="M0.364,-0.603L0.364,0L0.237,0L0.237,-0.603L0.01,-0.603L0.01,-0.715L0.602,-0.715L0.602,-0.603L0.364,-0.603Z" style="fill:white;fill-opacity:0.7;fill-rule:nonzero;"/>
            </g>
            <g transform="matrix(5.6,0,0,5.6,82.507,53.3564)">
                <path d="M0.2,-0.603L0.2,-0.435L0.437,-0.435L0.437,-0.327L0.2,-0.327L0.2,-0.113L0.524,-0.113L0.524,0L0.073,0L0.073,-0.715L0.53,-0.715L0.53,-0.603L0.2,-0.603Z" style="fill:white;fill-opacity:0.7;fill-rule:nonzero;"/>
            </g>
            <g transform="matrix(5.6,0,0,5.6,85.8046,53.3564)">
                <path d="M0.2,-0.263L0.2,0L0.073,0L0.073,-0.715C0.158,-0.718 0.207,-0.72 0.222,-0.72C0.335,-0.72 0.417,-0.703 0.469,-0.668C0.522,-0.634 0.548,-0.579 0.548,-0.506C0.548,-0.342 0.451,-0.26 0.258,-0.26C0.243,-0.26 0.224,-0.261 0.2,-0.263ZM0.2,-0.605L0.2,-0.376C0.222,-0.374 0.239,-0.373 0.251,-0.373C0.309,-0.373 0.351,-0.382 0.378,-0.402C0.405,-0.421 0.418,-0.452 0.418,-0.496C0.418,-0.57 0.358,-0.607 0.239,-0.607C0.225,-0.607 0.213,-0.607 0.2,-0.605Z" style="fill:white;fill-opacity:0.7;fill-rule:nonzero;"/>
            </g>
            <g transform="matrix(5.6,0,0,5.6,90.9012,53.3564)">
                <path d="M0.039,-0.04L0.086,-0.153C0.136,-0.118 0.185,-0.101 0.234,-0.101C0.308,-0.101 0.346,-0.127 0.346,-0.179C0.346,-0.203 0.337,-0.226 0.319,-0.249C0.302,-0.271 0.266,-0.295 0.211,-0.323C0.156,-0.351 0.119,-0.373 0.1,-0.391C0.081,-0.409 0.066,-0.43 0.056,-0.454C0.046,-0.479 0.041,-0.506 0.041,-0.535C0.041,-0.59 0.061,-0.636 0.101,-0.673C0.142,-0.709 0.194,-0.728 0.257,-0.728C0.34,-0.728 0.401,-0.712 0.439,-0.681L0.401,-0.572C0.356,-0.604 0.309,-0.62 0.26,-0.62C0.23,-0.62 0.208,-0.612 0.192,-0.596C0.176,-0.581 0.167,-0.561 0.167,-0.536C0.167,-0.495 0.213,-0.452 0.304,-0.408C0.352,-0.385 0.386,-0.363 0.407,-0.344C0.428,-0.324 0.444,-0.301 0.456,-0.275C0.467,-0.248 0.472,-0.219 0.472,-0.187C0.472,-0.129 0.449,-0.081 0.404,-0.044C0.358,-0.007 0.297,0.012 0.22,0.012C0.153,0.012 0.093,-0.005 0.039,-0.04Z" style="fill:white;fill-opacity:0.7;fill-rule:nonzero;"/>
            </g>
            <g transform="matrix(5.6,0,0,5.6,93.8761,53.3564)">
                <path d="M0.2,-0.603L0.2,-0.435L0.437,-0.435L0.437,-0.327L0.2,-0.327L0.2,-0.113L0.524,-0.113L0.524,0L0.073,0L0.073,-0.715L0.53,-0.715L0.53,-0.603L0.2,-0.603Z" style="fill:white;fill-opacity:0.7;fill-rule:nonzero;"/>
            </g>
            <g transform="matrix(5.6,0,0,5.6,97.1737,53.3564)">
                <path d="M0.751,0.148C0.73,0.151 0.708,0.152 0.686,0.152C0.625,0.152 0.57,0.14 0.519,0.115C0.468,0.091 0.428,0.056 0.4,0.012C0.388,0.014 0.368,0.016 0.342,0.016C0.248,0.016 0.174,-0.02 0.12,-0.09C0.066,-0.16 0.039,-0.251 0.039,-0.361C0.039,-0.466 0.067,-0.553 0.122,-0.623C0.177,-0.693 0.25,-0.728 0.342,-0.728C0.445,-0.728 0.524,-0.696 0.58,-0.631C0.636,-0.566 0.664,-0.477 0.664,-0.361C0.664,-0.19 0.608,-0.076 0.496,-0.019C0.532,0.02 0.59,0.04 0.673,0.04C0.703,0.04 0.729,0.036 0.751,0.03L0.751,0.148ZM0.171,-0.361C0.171,-0.286 0.186,-0.224 0.216,-0.173C0.246,-0.123 0.288,-0.098 0.342,-0.098C0.404,-0.098 0.452,-0.121 0.484,-0.167C0.516,-0.213 0.532,-0.278 0.532,-0.361C0.532,-0.53 0.469,-0.615 0.342,-0.615C0.286,-0.615 0.243,-0.592 0.214,-0.547C0.185,-0.502 0.171,-0.44 0.171,-0.361Z" style="fill:white;fill-opacity:0.7;fill-rule:nonzero;"/>
            </g>
            <g transform="matrix(5.6,0,0,5.6,101.256,53.3564)">
                <path d="M0.073,-0.715L0.2,-0.715L0.2,-0.23C0.2,-0.192 0.212,-0.161 0.235,-0.137C0.259,-0.113 0.291,-0.101 0.332,-0.101C0.378,-0.101 0.414,-0.112 0.439,-0.136C0.465,-0.16 0.478,-0.192 0.478,-0.233L0.478,-0.715L0.604,-0.715L0.604,-0.223C0.604,-0.15 0.58,-0.092 0.531,-0.05C0.481,-0.009 0.415,0.012 0.333,0.012C0.25,0.012 0.186,-0.008 0.141,-0.049C0.096,-0.09 0.073,-0.148 0.073,-0.224L0.073,-0.715Z" style="fill:white;fill-opacity:0.7;fill-rule:nonzero;"/>
            </g>
            <g transform="matrix(5.6,0,0,5.6,105.163,53.3564)">
                <path d="M0.2,-0.603L0.2,-0.435L0.437,-0.435L0.437,-0.327L0.2,-0.327L0.2,-0.113L0.524,-0.113L0.524,0L0.073,0L0.073,-0.715L0.53,-0.715L0.53,-0.603L0.2,-0.603Z" style="fill:white;fill-opacity:0.7;fill-rule:nonzero;"/>
            </g>
            <g transform="matrix(5.6,0,0,5.6,108.461,53.3564)">
                <path d="M0.542,0.01L0.195,-0.443L0.195,0L0.073,0L0.073,-0.715L0.134,-0.715L0.472,-0.284L0.472,-0.715L0.594,-0.715L0.594,0.01L0.542,0.01Z" style="fill:white;fill-opacity:0.7;fill-rule:nonzero;"/>
            </g>
            <g transform="matrix(5.6,0,0,5.6,112.311,53.3564)">
                <path d="M0.563,-0.677L0.511,-0.572C0.483,-0.601 0.437,-0.615 0.375,-0.615C0.315,-0.615 0.266,-0.59 0.228,-0.54C0.19,-0.49 0.171,-0.427 0.171,-0.35C0.171,-0.274 0.189,-0.213 0.224,-0.168C0.259,-0.123 0.306,-0.101 0.365,-0.101C0.433,-0.101 0.485,-0.125 0.523,-0.173L0.583,-0.07C0.531,-0.015 0.455,0.012 0.355,0.012C0.255,0.012 0.177,-0.021 0.122,-0.086C0.067,-0.152 0.039,-0.242 0.039,-0.355C0.039,-0.461 0.07,-0.55 0.131,-0.621C0.192,-0.692 0.271,-0.728 0.367,-0.728C0.449,-0.728 0.514,-0.711 0.563,-0.677Z" style="fill:white;fill-opacity:0.7;fill-rule:nonzero;"/>
            </g>
            <g transform="matrix(5.6,0,0,5.6,115.849,53.3564)">
                <path d="M0.2,-0.603L0.2,-0.435L0.437,-0.435L0.437,-0.327L0.2,-0.327L0.2,-0.113L0.524,-0.113L0.524,0L0.073,0L0.073,-0.715L0.53,-0.715L0.53,-0.603L0.2,-0.603Z" style="fill:white;fill-opacity:0.7;fill-rule:nonzero;"/>
            </g>
            <g transform="matrix(5.6,0,0,5.6,119.146,53.3564)">
                <path d="M0.477,0L0.286,-0.295C0.266,-0.296 0.24,-0.297 0.205,-0.299L0.205,0L0.073,0L0.073,-0.715C0.08,-0.715 0.108,-0.717 0.156,-0.719C0.204,-0.721 0.242,-0.723 0.271,-0.723C0.453,-0.723 0.544,-0.652 0.544,-0.512C0.544,-0.469 0.531,-0.431 0.506,-0.396C0.481,-0.361 0.45,-0.337 0.412,-0.322L0.623,0L0.477,0ZM0.205,-0.605L0.205,-0.406C0.229,-0.404 0.246,-0.403 0.259,-0.403C0.312,-0.403 0.351,-0.411 0.375,-0.426C0.4,-0.441 0.412,-0.47 0.412,-0.513C0.412,-0.548 0.399,-0.573 0.373,-0.587C0.346,-0.601 0.305,-0.608 0.248,-0.608C0.234,-0.608 0.22,-0.607 0.205,-0.605Z" style="fill:white;fill-opacity:0.7;fill-rule:nonzero;"/>
            </g>
        </g>
        <g transform="matrix(1.198,0,0,0.958552,1033.86,-221.098)">
            <g transform="matrix(13,0,0,13,4.92896,0)">
                <path d="M0.2,-0.603L0.2,-0.435L0.452,-0.435L0.452,-0.327L0.2,-0.327L0.2,0L0.073,0L0.073,-0.715L0.544,-0.715L0.544,-0.603L0.2,-0.603Z" style="fill:white;fill-opacity:0.9;fill-rule:nonzero;"/>
            </g>
            <g transform="matrix(13,0,0,13,12.5144,0)">
                <path d="M0.073,0L0.073,-0.715L0.2,-0.715L0.2,-0.113L0.523,-0.113L0.523,0L0.073,0Z" style="fill:white;fill-opacity:0.9;fill-rule:nonzero;"/>
            </g>
            <g transform="matrix(13,0,0,13,19.7,0)">
                <path d="M0.039,-0.364C0.039,-0.466 0.067,-0.552 0.123,-0.622C0.179,-0.693 0.253,-0.728 0.347,-0.728C0.45,-0.728 0.528,-0.696 0.583,-0.632C0.637,-0.569 0.664,-0.479 0.664,-0.364C0.664,-0.249 0.636,-0.157 0.579,-0.089C0.522,-0.022 0.441,0.012 0.337,0.012C0.241,0.012 0.167,-0.021 0.116,-0.088C0.065,-0.155 0.039,-0.247 0.039,-0.364ZM0.171,-0.364C0.171,-0.28 0.185,-0.215 0.213,-0.169C0.242,-0.124 0.283,-0.101 0.337,-0.101C0.4,-0.101 0.449,-0.123 0.482,-0.168C0.516,-0.213 0.532,-0.278 0.532,-0.364C0.532,-0.531 0.47,-0.615 0.347,-0.615C0.29,-0.615 0.247,-0.593 0.216,-0.547C0.186,-0.502 0.171,-0.441 0.171,-0.364Z" style="fill:white;fill-opacity:0.9;fill-rule:nonzero;"/>
            </g>
            <g transform="matrix(13,0,0,13,28.8406,0)">
                <path d="M0.65,0.01L0.598,0.01L0.441,-0.441L0.29,0.01L0.237,0.01L0.002,-0.715L0.135,-0.715L0.269,-0.284L0.414,-0.715L0.47,-0.715L0.615,-0.284L0.749,-0.715L0.881,-0.715L0.65,0.01Z" style="fill:white;fill-opacity:0.9;fill-rule:nonzero;"/>
            </g>
            <g transform="matrix(13,0,0,13,40.3298,0)">
                <path d="M0.2,-0.603L0.2,-0.435L0.437,-0.435L0.437,-0.327L0.2,-0.327L0.2,-0.113L0.524,-0.113L0.524,0L0.073,0L0.073,-0.715L0.53,-0.715L0.53,-0.603L0.2,-0.603Z" style="fill:white;fill-opacity:0.9;fill-rule:nonzero;"/>
            </g>
            <g transform="matrix(13,0,0,13,47.7249,0)">
                <path d="M0.477,0L0.286,-0.295C0.266,-0.296 0.24,-0.297 0.205,-0.299L0.205,0L0.073,0L0.073,-0.715C0.08,-0.715 0.108,-0.717 0.156,-0.719C0.204,-0.721 0.242,-0.723 0.271,-0.723C0.453,-0.723 0.544,-0.652 0.544,-0.512C0.544,-0.469 0.531,-0.431 0.506,-0.396C0.481,-0.361 0.45,-0.337 0.412,-0.322L0.623,0L0.477,0ZM0.205,-0.605L0.205,-0.406C0.229,-0.404 0.246,-0.403 0.259,-0.403C0.312,-0.403 0.351,-0.411 0.375,-0.426C0.4,-0.441 0.412,-0.47 0.412,-0.513C0.412,-0.548 0.399,-0.573 0.373,-0.587C0.346,-0.601 0.305,-0.608 0.248,-0.608C0.234,-0.608 0.22,-0.607 0.205,-0.605Z" style="fill:white;fill-opacity:0.9;fill-rule:nonzero;"/>
            </g>
        </g>
        <g transform="matrix(0.840359,0,0,0.840359,238.786,16.2108)">
            <g transform="matrix(1.198,0,0,0.958552,893.633,-224.914)">
                <g transform="matrix(9,0,0,9,64.0056,347.267)">
                    <path d="M0.919,0L0.762,0L0.762,-0.308C0.762,-0.391 0.732,-0.432 0.671,-0.432C0.643,-0.432 0.62,-0.42 0.602,-0.395C0.583,-0.369 0.574,-0.339 0.574,-0.303L0.574,0L0.417,0L0.417,-0.312C0.417,-0.392 0.387,-0.432 0.327,-0.432C0.298,-0.432 0.274,-0.42 0.256,-0.396C0.238,-0.372 0.229,-0.341 0.229,-0.301L0.229,0L0.072,0L0.072,-0.54L0.229,-0.54L0.229,-0.456L0.231,-0.456C0.25,-0.486 0.275,-0.51 0.307,-0.528C0.338,-0.545 0.371,-0.553 0.405,-0.553C0.481,-0.553 0.533,-0.519 0.561,-0.451C0.603,-0.519 0.663,-0.553 0.743,-0.553C0.86,-0.553 0.919,-0.481 0.919,-0.335L0.919,0Z" style="fill:white;fill-opacity:0.9;fill-rule:nonzero;"/>
                </g>
                <g transform="matrix(9,0,0,9,72.978,347.267)">
                    <path d="M0.551,-0.226L0.196,-0.226C0.201,-0.142 0.252,-0.1 0.347,-0.1C0.407,-0.1 0.459,-0.115 0.505,-0.144L0.505,-0.028C0.456,-0.001 0.391,0.013 0.312,0.013C0.226,0.013 0.159,-0.011 0.111,-0.06C0.063,-0.108 0.04,-0.176 0.04,-0.262C0.04,-0.348 0.065,-0.419 0.116,-0.472C0.167,-0.526 0.23,-0.553 0.307,-0.553C0.384,-0.553 0.443,-0.53 0.487,-0.484C0.53,-0.437 0.551,-0.374 0.551,-0.292L0.551,-0.226ZM0.404,-0.324C0.404,-0.405 0.372,-0.445 0.306,-0.445C0.279,-0.445 0.255,-0.434 0.234,-0.412C0.214,-0.39 0.201,-0.361 0.195,-0.324L0.404,-0.324Z" style="fill:white;fill-opacity:0.9;fill-rule:nonzero;"/>
                </g>
                <g transform="matrix(9,0,0,9,78.3513,347.267)">
                    <rect x="0.069" y="-0.799" width="0.157" height="0.799" style="fill:white;fill-opacity:0.9;fill-rule:nonzero;"/>
                </g>
                <g transform="matrix(9,0,0,9,81.1494,347.267)">
                    <path d="M0.593,0L0.436,0L0.436,-0.076L0.433,-0.076C0.395,-0.017 0.339,0.013 0.264,0.013C0.195,0.013 0.141,-0.011 0.1,-0.06C0.06,-0.108 0.04,-0.174 0.04,-0.258C0.04,-0.346 0.062,-0.418 0.108,-0.472C0.153,-0.526 0.212,-0.553 0.286,-0.553C0.356,-0.553 0.405,-0.528 0.433,-0.477L0.436,-0.477L0.438,-0.707L0.593,-0.658L0.593,0ZM0.438,-0.306C0.438,-0.342 0.427,-0.372 0.405,-0.396C0.383,-0.42 0.356,-0.432 0.323,-0.432C0.284,-0.432 0.254,-0.417 0.232,-0.386C0.21,-0.356 0.199,-0.315 0.199,-0.263C0.199,-0.213 0.21,-0.175 0.231,-0.148C0.252,-0.121 0.281,-0.108 0.318,-0.108C0.353,-0.108 0.382,-0.122 0.404,-0.15C0.427,-0.179 0.438,-0.215 0.438,-0.261L0.438,-0.306Z" style="fill:white;fill-opacity:0.9;fill-rule:nonzero;"/>
                </g>
                <g transform="matrix(9,0,0,9,87.2654,347.267)">
                    <path d="M0.551,-0.226L0.196,-0.226C0.201,-0.142 0.252,-0.1 0.347,-0.1C0.407,-0.1 0.459,-0.115 0.505,-0.144L0.505,-0.028C0.456,-0.001 0.391,0.013 0.312,0.013C0.226,0.013 0.159,-0.011 0.111,-0.06C0.063,-0.108 0.04,-0.176 0.04,-0.262C0.04,-0.348 0.065,-0.419 0.116,-0.472C0.167,-0.526 0.23,-0.553 0.307,-0.553C0.384,-0.553 0.443,-0.53 0.487,-0.484C0.53,-0.437 0.551,-0.374 0.551,-0.292L0.551,-0.226ZM0.404,-0.324C0.404,-0.405 0.372,-0.445 0.306,-0.445C0.279,-0.445 0.255,-0.434 0.234,-0.412C0.214,-0.39 0.201,-0.361 0.195,-0.324L0.404,-0.324Z" style="fill:white;fill-opacity:0.9;fill-rule:nonzero;"/>
                </g>
                <g transform="matrix(9,0,0,9,92.6386,347.267)">
                    <path d="M0.416,-0.397C0.397,-0.408 0.374,-0.414 0.346,-0.414C0.31,-0.414 0.282,-0.4 0.261,-0.373C0.24,-0.345 0.229,-0.308 0.229,-0.26L0.229,0L0.072,0L0.072,-0.54L0.229,-0.54L0.229,-0.438L0.231,-0.438C0.257,-0.512 0.305,-0.549 0.374,-0.549C0.392,-0.549 0.406,-0.547 0.416,-0.543L0.416,-0.397Z" style="fill:white;fill-opacity:0.9;fill-rule:nonzero;"/>
                </g>
            </g>
            <g transform="matrix(1.198,0,0,0.958552,893.495,-231.786)">
                <g transform="matrix(9,0,0,9,68.6657,347.267)">
                    <path d="M0.058,-0.145C0.112,-0.112 0.165,-0.096 0.216,-0.096C0.281,-0.096 0.314,-0.113 0.314,-0.148C0.314,-0.173 0.287,-0.193 0.233,-0.21C0.166,-0.231 0.12,-0.254 0.095,-0.28C0.07,-0.305 0.058,-0.34 0.058,-0.383C0.058,-0.436 0.079,-0.478 0.122,-0.508C0.165,-0.538 0.221,-0.553 0.291,-0.553C0.34,-0.553 0.388,-0.546 0.434,-0.531L0.434,-0.407C0.392,-0.432 0.346,-0.444 0.295,-0.444C0.27,-0.444 0.25,-0.44 0.235,-0.431C0.22,-0.422 0.212,-0.41 0.212,-0.396C0.212,-0.371 0.235,-0.351 0.28,-0.335C0.329,-0.319 0.366,-0.304 0.39,-0.291C0.415,-0.278 0.434,-0.26 0.447,-0.238C0.459,-0.216 0.466,-0.191 0.466,-0.163C0.466,-0.107 0.444,-0.064 0.399,-0.033C0.354,-0.002 0.295,0.013 0.22,0.013C0.162,0.013 0.107,0.004 0.058,-0.015L0.058,-0.145Z" style="fill:white;fill-opacity:0.9;fill-rule:nonzero;"/>
                </g>
                <g transform="matrix(9,0,0,9,73.2436,347.267)">
                    <path d="M0.39,-0.006C0.366,0.007 0.33,0.013 0.282,0.013C0.167,0.013 0.11,-0.047 0.11,-0.167L0.11,-0.422L0.021,-0.422L0.021,-0.54L0.11,-0.54L0.11,-0.659L0.267,-0.704L0.267,-0.54L0.39,-0.54L0.39,-0.422L0.267,-0.422L0.267,-0.195C0.267,-0.137 0.289,-0.108 0.335,-0.108C0.353,-0.108 0.371,-0.114 0.39,-0.124L0.39,-0.006Z" style="fill:white;fill-opacity:0.9;fill-rule:nonzero;"/>
                </g>
                <g transform="matrix(6.6,0,0,6.6,77.1051,347.267)">
                    <path d="M0.106,0.032L0.043,-0.021L0.122,-0.115C0.067,-0.183 0.04,-0.268 0.04,-0.368C0.04,-0.487 0.075,-0.584 0.144,-0.658C0.213,-0.732 0.305,-0.769 0.418,-0.769C0.5,-0.769 0.571,-0.748 0.63,-0.706L0.698,-0.785L0.761,-0.733L0.689,-0.65C0.748,-0.581 0.778,-0.493 0.778,-0.384C0.778,-0.266 0.743,-0.17 0.674,-0.097C0.605,-0.023 0.516,0.013 0.406,0.013C0.32,0.013 0.246,-0.011 0.182,-0.059L0.106,0.032ZM0.54,-0.6C0.506,-0.628 0.463,-0.642 0.413,-0.642C0.349,-0.642 0.297,-0.617 0.258,-0.569C0.218,-0.52 0.199,-0.455 0.199,-0.375C0.199,-0.319 0.208,-0.273 0.227,-0.234L0.54,-0.6ZM0.275,-0.165C0.311,-0.131 0.356,-0.114 0.409,-0.114C0.473,-0.114 0.524,-0.137 0.563,-0.184C0.601,-0.231 0.62,-0.294 0.62,-0.374C0.62,-0.435 0.61,-0.488 0.588,-0.533L0.275,-0.165Z" style="fill:white;fill-opacity:0.9;fill-rule:nonzero;"/>
                </g>
                <g transform="matrix(9,0,0,9,82.6053,347.267)">
                    <path d="M0.551,-0.226L0.196,-0.226C0.201,-0.142 0.252,-0.1 0.347,-0.1C0.407,-0.1 0.459,-0.115 0.505,-0.144L0.505,-0.028C0.456,-0.001 0.391,0.013 0.312,0.013C0.226,0.013 0.159,-0.011 0.111,-0.06C0.063,-0.108 0.04,-0.176 0.04,-0.262C0.04,-0.348 0.065,-0.419 0.116,-0.472C0.167,-0.526 0.23,-0.553 0.307,-0.553C0.384,-0.553 0.443,-0.53 0.487,-0.484C0.53,-0.437 0.551,-0.374 0.551,-0.292L0.551,-0.226ZM0.404,-0.324C0.404,-0.405 0.372,-0.445 0.306,-0.445C0.279,-0.445 0.255,-0.434 0.234,-0.412C0.214,-0.39 0.201,-0.361 0.195,-0.324L0.404,-0.324Z" style="fill:white;fill-opacity:0.9;fill-rule:nonzero;"/>
                </g>
                <g transform="matrix(9,0,0,9,87.9786,347.267)">
                    <path d="M0.416,-0.397C0.397,-0.408 0.374,-0.414 0.346,-0.414C0.31,-0.414 0.282,-0.4 0.261,-0.373C0.24,-0.345 0.229,-0.308 0.229,-0.26L0.229,0L0.072,0L0.072,-0.54L0.229,-0.54L0.229,-0.438L0.231,-0.438C0.257,-0.512 0.305,-0.549 0.374,-0.549C0.392,-0.549 0.406,-0.547 0.416,-0.543L0.416,-0.397Z" style="fill:white;fill-opacity:0.9;fill-rule:nonzero;"/>
                </g>
            </g>
        </g>
        <g transform="matrix(5.26079,0,0,10.9813,865.006,-830.442)">
            <path d="M73.138,57.273C73.138,57.08 72.729,56.924 72.227,56.924L6.018,56.924C5.515,56.924 5.107,57.08 5.107,57.273L5.107,83.355C5.107,83.548 5.515,83.704 6.018,83.704L72.227,83.704C72.729,83.704 73.138,83.548 73.138,83.355L73.138,57.273Z" style="fill:white;fill-opacity:0.1;"/>
        </g>
        <g transform="matrix(0.58177,0,0,10.9813,842.874,-830.442)">
            <path d="M73.138,57.273C73.138,57.08 69.447,56.924 64.901,56.924L13.344,56.924C8.798,56.924 5.107,57.08 5.107,57.273L5.107,83.355C5.107,83.548 8.798,83.704 13.344,83.704L64.901,83.704C69.447,83.704 73.138,83.548 73.138,83.355L73.138,57.273Z" style="fill:white;fill-opacity:0.4;"/>
        </g>
        <g transform="matrix(0.581122,0,0,10.9813,1253.29,-830.442)">
            <path d="M73.138,57.273C73.138,57.08 69.443,56.924 64.891,56.924L13.353,56.924C8.802,56.924 5.107,57.08 5.107,57.273L5.107,83.355C5.107,83.548 8.802,83.704 13.353,83.704L64.891,83.704C69.443,83.704 73.138,83.548 73.138,83.355L73.138,57.273Z" style="fill:white;fill-opacity:0.4;"/>
        </g>
        <g transform="matrix(4.73888,0,0,3.84758,325.392,-639.773)">
            <ellipse cx="157.301" cy="151.176" rx="35.516" ry="34.987" style="fill:white;fill-opacity:0.3;"/>
        </g>
        <g transform="matrix(1.198,0,0,0.958552,837.209,-240.235)">
            <path d="M335.357,198.451C337.296,196.544 339.236,194.637 341.209,192.765C341.821,192.185 342.435,191.607 343.062,191.042C343.312,190.817 343.564,190.594 343.823,190.38C343.968,190.26 344.118,190.124 344.287,190.039C344.306,190.03 344.371,189.997 344.371,190.042C344.372,239.761 344.372,289.481 344.371,339.2C344.371,340.222 343.972,341.219 343.266,341.959C342.516,342.746 341.459,343.2 340.371,343.2C291.951,343.2 243.53,343.201 195.109,343.2C195.074,343.2 195.087,343.156 195.095,343.136C195.163,342.954 195.315,342.788 195.433,342.638C195.64,342.372 195.858,342.114 196.076,341.857C196.797,341.011 197.542,340.185 198.289,339.361C200.839,336.55 203.44,333.784 206.041,331.02L207.077,329.922C276.155,324.029 331.034,268.087 335.229,198.577L335.357,198.451Z" style="fill-opacity:0.6;"/>
        </g>
        <g transform="matrix(1.198,0,0,0.958552,837.209,-240.235)">
            <path d="M194.969,122.406C232.289,122.406 262.588,152.694 262.588,190C262.588,227.306 232.289,257.594 194.969,257.594C157.65,257.594 127.35,227.306 127.35,190C127.35,152.694 157.65,122.406 194.969,122.406ZM194.969,156.334C213.557,156.334 228.648,171.419 228.648,190C228.648,208.581 213.557,223.666 194.969,223.666C176.382,223.666 161.291,208.581 161.291,190C161.291,171.419 176.382,156.334 194.969,156.334Z" style="fill:white;fill-opacity:0.3;"/>
        </g>
        <g transform="matrix(1.198,0,0,0.958552,837.209,-240.235)">
            <path d="M194.969,82.991C254.051,82.991 302.018,130.94 302.018,190C302.018,249.06 254.051,297.009 194.969,297.009C135.888,297.009 87.921,249.06 87.921,190C87.921,130.94 135.888,82.991 194.969,82.991ZM194.969,122.406C232.289,122.406 262.588,152.694 262.588,190C262.588,227.306 232.289,257.594 194.969,257.594C157.65,257.594 127.35,227.306 127.35,190C127.35,152.694 157.65,122.406 194.969,122.406Z" style="fill-opacity:0.6;"/>
        </g>
        <g transform="matrix(-0.475649,0,0,1.06143,1135.05,-248.509)">
            <path d="M134.757,132.481L135.128,67.535" style="fill:none;stroke:rgb(140,140,140);stroke-width:1.24px;"/>
        </g>
        <g transform="matrix(1.22465e-22,1.32271,-2e-06,8.09928e-17,1308.37,-58.1917)">
            <path d="M-2.14748e+06,132.406L-2.14748e+06,67.295" style="fill:none;stroke:rgb(140,140,140);stroke-width:1.32px;"/>
        </g>
        <g transform="matrix(-0.621002,-1.19957,1.2263,-0.406425,934.7,176.84)">
            <path d="M135.078,132.383L135.078,67.624" style="fill:none;stroke:rgb(204,204,204);stroke-width:0.68px;"/>
        </g>
        <g transform="matrix(-0.532934,1.02945,-1.28662,-0.426414,1366.79,-122.944)">
            <path d="M135.086,129.265L135.051,67.458" style="fill:none;stroke:rgb(204,204,204);stroke-width:0.72px;"/>
        </g>
        <g transform="matrix(1.92996,0.639633,0.503932,-0.973432,719.315,30.9888)">
            <path d="M135.058,132.88L135.058,67.605" style="fill:none;stroke:rgb(204,204,204);stroke-width:0.58px;"/>
        </g>
        <g transform="matrix(-2.48379,0.823185,-0.507252,-0.979845,1497.31,6.52546)">
            <path d="M135.064,132.349L135.064,67.501" style="fill:none;stroke:rgb(204,204,204);stroke-width:0.47px;"/>
        </g>
        <g transform="matrix(-0.470759,-4.61283e-17,1.62466e-16,-1.06147,1134.39,132.291)">
            <path d="M134.754,132.328L134.754,67.535" style="fill:none;stroke:rgb(140,140,140);stroke-width:1.24px;"/>
        </g>
        <g transform="matrix(5.70092e-16,-0.36863,1.32774,1.25294e-15,832.654,-8.305)">
            <path d="M135,132.369L135.109,67.63" style="fill:none;stroke:rgb(140,140,140);stroke-width:1.24px;"/>
        </g>
        <g transform="matrix(0.538395,-0.430783,0.936983,0.749703,829.919,-134.487)">
            <path d="M135.073,132.476L135.073,67.519" style="fill:none;stroke:rgb(140,140,140);stroke-width:1.14px;"/>
        </g>
        <g transform="matrix(0.295147,0.236155,-0.937764,0.750328,1199.19,-224.589)">
            <path d="M135.15,132.364L135.01,67.505" style="fill:none;stroke:rgb(140,140,140);stroke-width:1.26px;"/>
        </g>
        <g transform="matrix(0.0928309,-0.179319,1.22619,0.406388,838.261,-106.758)">
            <path d="M135.316,132.389L135.316,67.625" style="fill:none;stroke:rgb(204,204,204);stroke-width:1.05px;"/>
        </g>
        <g transform="matrix(0.807135,1.55912,-1.22769,0.406883,1182.15,-341.668)">
            <path d="M135.004,132.471L135.06,67.718" style="fill:none;stroke:rgb(204,204,204);stroke-width:0.57px;"/>
        </g>
        <g transform="matrix(1.96574,0.651492,-0.507252,0.979845,896.351,-321.918)">
            <path d="M135.057,132.349L135.057,67.501" style="fill:none;stroke:rgb(204,204,204);stroke-width:0.57px;"/>
        </g>
        <g transform="matrix(0.159359,-0.0528152,0.507717,0.980742,958.339,-226.893)">
            <path d="M134.465,132.295L134.465,67.506" style="fill:none;stroke:rgb(204,204,204);stroke-width:1.06px;"/>
        </g>
        <g transform="matrix(0.00616083,-0.00492943,-0.702355,-0.561972,1218.76,61.5875)">
            <path d="M135,148.976L135,62.438" style="fill:none;stroke:rgb(140,140,140);stroke-width:1.76px;"/>
        </g>
        <g transform="matrix(-1.56113,-1.2491,0.938807,-0.751162,1113.3,245.326)">
            <path d="M135.041,132.388L135.067,67.602" style="fill:none;stroke:rgb(140,140,140);stroke-width:0.68px;"/>
        </g>
        <g transform="matrix(1.198,0,0,0.958552,816.101,-244.64)">
            <g transform="matrix(6.4,0,0,6.4,29.4141,51.8924)">
                <path d="M0.2,-0.263L0.2,0L0.073,0L0.073,-0.715C0.158,-0.718 0.207,-0.72 0.222,-0.72C0.335,-0.72 0.417,-0.703 0.469,-0.668C0.522,-0.634 0.548,-0.579 0.548,-0.506C0.548,-0.342 0.451,-0.26 0.258,-0.26C0.243,-0.26 0.224,-0.261 0.2,-0.263ZM0.2,-0.605L0.2,-0.376C0.222,-0.374 0.239,-0.373 0.251,-0.373C0.309,-0.373 0.351,-0.382 0.378,-0.402C0.405,-0.421 0.418,-0.452 0.418,-0.496C0.418,-0.57 0.358,-0.607 0.239,-0.607C0.225,-0.607 0.213,-0.607 0.2,-0.605Z" style="fill-rule:nonzero;"/>
            </g>
            <g transform="matrix(6.4,0,0,6.4,33.2983,51.8924)">
                <path d="M0.485,0L0.485,-0.322L0.2,-0.322L0.2,0L0.073,0L0.073,-0.715L0.2,-0.715L0.2,-0.435L0.485,-0.435L0.485,-0.715L0.61,-0.715L0.61,0L0.485,0Z" style="fill-rule:nonzero;"/>
            </g>
            <g transform="matrix(6.4,0,0,6.4,37.8013,51.8924)">
                <path d="M0.477,0L0.286,-0.295C0.266,-0.296 0.24,-0.297 0.205,-0.299L0.205,0L0.073,0L0.073,-0.715C0.08,-0.715 0.108,-0.717 0.156,-0.719C0.204,-0.721 0.242,-0.723 0.271,-0.723C0.453,-0.723 0.544,-0.652 0.544,-0.512C0.544,-0.469 0.531,-0.431 0.506,-0.396C0.481,-0.361 0.45,-0.337 0.412,-0.322L0.623,0L0.477,0ZM0.205,-0.605L0.205,-0.406C0.229,-0.404 0.246,-0.403 0.259,-0.403C0.312,-0.403 0.351,-0.411 0.375,-0.426C0.4,-0.441 0.412,-0.47 0.412,-0.513C0.412,-0.548 0.399,-0.573 0.373,-0.587C0.346,-0.601 0.305,-0.608 0.248,-0.608C0.234,-0.608 0.22,-0.607 0.205,-0.605Z" style="fill-rule:nonzero;"/>
            </g>
            <g transform="matrix(6.4,0,0,6.4,41.8387,51.8924)">
                <path d="M0.491,0L0.438,-0.145L0.193,-0.145L0.144,0L0.002,0L0.288,-0.725L0.343,-0.725L0.631,0L0.491,0ZM0.315,-0.506L0.229,-0.242L0.401,-0.242L0.315,-0.506Z" style="fill-rule:nonzero;"/>
            </g>
            <g transform="matrix(6.4,0,0,6.4,46.0198,51.8924)">
                <path d="M0.039,-0.04L0.086,-0.153C0.136,-0.118 0.185,-0.101 0.234,-0.101C0.308,-0.101 0.346,-0.127 0.346,-0.179C0.346,-0.203 0.337,-0.226 0.319,-0.249C0.302,-0.271 0.266,-0.295 0.211,-0.323C0.156,-0.351 0.119,-0.373 0.1,-0.391C0.081,-0.409 0.066,-0.43 0.056,-0.454C0.046,-0.479 0.041,-0.506 0.041,-0.535C0.041,-0.59 0.061,-0.636 0.101,-0.673C0.142,-0.709 0.194,-0.728 0.257,-0.728C0.34,-0.728 0.401,-0.712 0.439,-0.681L0.401,-0.572C0.356,-0.604 0.309,-0.62 0.26,-0.62C0.23,-0.62 0.208,-0.612 0.192,-0.596C0.176,-0.581 0.167,-0.561 0.167,-0.536C0.167,-0.495 0.213,-0.452 0.304,-0.408C0.352,-0.385 0.386,-0.363 0.407,-0.344C0.428,-0.324 0.444,-0.301 0.456,-0.275C0.467,-0.248 0.472,-0.219 0.472,-0.187C0.472,-0.129 0.449,-0.081 0.404,-0.044C0.358,-0.007 0.297,0.012 0.22,0.012C0.153,0.012 0.093,-0.005 0.039,-0.04Z" style="fill-rule:nonzero;"/>
            </g>
            <g transform="matrix(6.4,0,0,6.4,49.4197,51.8924)">
                <path d="M0.2,-0.603L0.2,-0.435L0.437,-0.435L0.437,-0.327L0.2,-0.327L0.2,-0.113L0.524,-0.113L0.524,0L0.073,0L0.073,-0.715L0.53,-0.715L0.53,-0.603L0.2,-0.603Z" style="fill-rule:nonzero;"/>
            </g>
        </g>
        <g transform="matrix(1.198,0,0,0.958552,1226.63,-244.625)">
            <g transform="matrix(6.4,0,0,6.4,27.6626,51.8924)">
                <path d="M0.2,-0.263L0.2,0L0.073,0L0.073,-0.715C0.158,-0.718 0.207,-0.72 0.222,-0.72C0.335,-0.72 0.417,-0.703 0.469,-0.668C0.522,-0.634 0.548,-0.579 0.548,-0.506C0.548,-0.342 0.451,-0.26 0.258,-0.26C0.243,-0.26 0.224,-0.261 0.2,-0.263ZM0.2,-0.605L0.2,-0.376C0.222,-0.374 0.239,-0.373 0.251,-0.373C0.309,-0.373 0.351,-0.382 0.378,-0.402C0.405,-0.421 0.418,-0.452 0.418,-0.496C0.418,-0.57 0.358,-0.607 0.239,-0.607C0.225,-0.607 0.213,-0.607 0.2,-0.605Z" style="fill-rule:nonzero;"/>
            </g>
            <g transform="matrix(6.4,0,0,6.4,31.0718,51.8924)">
                <path d="M0.491,0L0.438,-0.145L0.193,-0.145L0.144,0L0.002,0L0.288,-0.725L0.343,-0.725L0.631,0L0.491,0ZM0.315,-0.506L0.229,-0.242L0.401,-0.242L0.315,-0.506Z" style="fill-rule:nonzero;"/>
            </g>
            <g transform="matrix(6.4,0,0,6.4,34.6467,51.8924)">
                <path d="M0.364,-0.603L0.364,0L0.237,0L0.237,-0.603L0.01,-0.603L0.01,-0.715L0.602,-0.715L0.602,-0.603L0.364,-0.603Z" style="fill-rule:nonzero;"/>
            </g>
            <g transform="matrix(6.4,0,0,6.4,38.6903,51.8924)">
                <path d="M0.364,-0.603L0.364,0L0.237,0L0.237,-0.603L0.01,-0.603L0.01,-0.715L0.602,-0.715L0.602,-0.603L0.364,-0.603Z" style="fill-rule:nonzero;"/>
            </g>
            <g transform="matrix(6.4,0,0,6.4,42.7339,51.8924)">
                <path d="M0.2,-0.603L0.2,-0.435L0.437,-0.435L0.437,-0.327L0.2,-0.327L0.2,-0.113L0.524,-0.113L0.524,0L0.073,0L0.073,-0.715L0.53,-0.715L0.53,-0.603L0.2,-0.603Z" style="fill-rule:nonzero;"/>
            </g>
            <g transform="matrix(6.4,0,0,6.4,46.5026,51.8924)">
                <path d="M0.477,0L0.286,-0.295C0.266,-0.296 0.24,-0.297 0.205,-0.299L0.205,0L0.073,0L0.073,-0.715C0.08,-0.715 0.108,-0.717 0.156,-0.719C0.204,-0.721 0.242,-0.723 0.271,-0.723C0.453,-0.723 0.544,-0.652 0.544,-0.512C0.544,-0.469 0.531,-0.431 0.506,-0.396C0.481,-0.361 0.45,-0.337 0.412,-0.322L0.623,0L0.477,0ZM0.205,-0.605L0.205,-0.406C0.229,-0.404 0.246,-0.403 0.259,-0.403C0.312,-0.403 0.351,-0.411 0.375,-0.426C0.4,-0.441 0.412,-0.47 0.412,-0.513C0.412,-0.548 0.399,-0.573 0.373,-0.587C0.346,-0.601 0.305,-0.608 0.248,-0.608C0.234,-0.608 0.22,-0.607 0.205,-0.605Z" style="fill-rule:nonzero;"/>
            </g>
            <g transform="matrix(6.4,0,0,6.4,50.5399,51.8924)">
                <path d="M0.542,0.01L0.195,-0.443L0.195,0L0.073,0L0.073,-0.715L0.134,-0.715L0.472,-0.284L0.472,-0.715L0.594,-0.715L0.594,0.01L0.542,0.01Z" style="fill-rule:nonzero;"/>
            </g>
        </g>
        <g transform="matrix(1.198,0,0,0.958552,1226.74,5.54419)">
            <g transform="matrix(6.4,0,0,6.4,29.2078,51.8924)">
                <path d="M0.74,0L0.617,0L0.543,-0.385L0.399,0.01L0.354,0.01L0.209,-0.385L0.132,0L0.01,0L0.154,-0.715L0.221,-0.715L0.376,-0.233L0.527,-0.715L0.594,-0.715L0.74,0Z" style="fill-rule:nonzero;"/>
            </g>
            <g transform="matrix(6.4,0,0,6.4,34.1046,51.8924)">
                <path d="M0.073,-0.715L0.2,-0.715L0.2,-0.23C0.2,-0.192 0.212,-0.161 0.235,-0.137C0.259,-0.113 0.291,-0.101 0.332,-0.101C0.378,-0.101 0.414,-0.112 0.439,-0.136C0.465,-0.16 0.478,-0.192 0.478,-0.233L0.478,-0.715L0.604,-0.715L0.604,-0.223C0.604,-0.15 0.58,-0.092 0.531,-0.05C0.481,-0.009 0.415,0.012 0.333,0.012C0.25,0.012 0.186,-0.008 0.141,-0.049C0.096,-0.09 0.073,-0.148 0.073,-0.224L0.073,-0.715Z" style="fill-rule:nonzero;"/>
            </g>
            <g transform="matrix(6.4,0,0,6.4,38.5701,51.8924)">
                <path d="M0.364,-0.603L0.364,0L0.237,0L0.237,-0.603L0.01,-0.603L0.01,-0.715L0.602,-0.715L0.602,-0.603L0.364,-0.603Z" style="fill-rule:nonzero;"/>
            </g>
            <g transform="matrix(6.4,0,0,6.4,42.0074,51.8924)">
                <path d="M0.491,0L0.438,-0.145L0.193,-0.145L0.144,0L0.002,0L0.288,-0.725L0.343,-0.725L0.631,0L0.491,0ZM0.315,-0.506L0.229,-0.242L0.401,-0.242L0.315,-0.506Z" style="fill-rule:nonzero;"/>
            </g>
            <g transform="matrix(6.4,0,0,6.4,45.5823,51.8924)">
                <path d="M0.364,-0.603L0.364,0L0.237,0L0.237,-0.603L0.01,-0.603L0.01,-0.715L0.602,-0.715L0.602,-0.603L0.364,-0.603Z" style="fill-rule:nonzero;"/>
            </g>
            <g transform="matrix(6.4,0,0,6.4,49.6259,51.8924)">
                <path d="M0.2,-0.603L0.2,-0.435L0.437,-0.435L0.437,-0.327L0.2,-0.327L0.2,-0.113L0.524,-0.113L0.524,0L0.073,0L0.073,-0.715L0.53,-0.715L0.53,-0.603L0.2,-0.603Z" style="fill-rule:nonzero;"/>
            </g>
        </g>
        <g transform="matrix(-0.762024,-0.739642,0.924409,-0.609714,812.571,156.269)">
            <g transform="matrix(-0.87933,-0.476212,0.476212,-0.87933,23.528,271.032)">
                <g transform="matrix(6.4,0,0,6.4,46.103,132.535)">
                    <path d="M0.563,-0.677L0.511,-0.572C0.483,-0.601 0.437,-0.615 0.375,-0.615C0.315,-0.615 0.266,-0.59 0.228,-0.54C0.19,-0.49 0.171,-0.427 0.171,-0.35C0.171,-0.274 0.189,-0.213 0.224,-0.168C0.259,-0.123 0.306,-0.101 0.365,-0.101C0.433,-0.101 0.485,-0.125 0.523,-0.173L0.583,-0.07C0.531,-0.015 0.455,0.012 0.355,0.012C0.255,0.012 0.177,-0.021 0.122,-0.086C0.067,-0.152 0.039,-0.242 0.039,-0.355C0.039,-0.461 0.07,-0.55 0.131,-0.621C0.192,-0.692 0.271,-0.728 0.367,-0.728C0.449,-0.728 0.514,-0.711 0.563,-0.677Z" style="fill:white;fill-opacity:0.9;fill-rule:nonzero;"/>
                </g>
            </g>
            <g transform="matrix(-0.968009,-0.250915,0.250915,-0.968009,49.7948,267.115)">
                <g transform="matrix(6.4,0,0,6.4,41.9256,130.383)">
                    <path d="M0.073,0L0.073,-0.715L0.2,-0.715L0.2,-0.113L0.523,-0.113L0.523,0L0.073,0Z" style="fill:white;fill-opacity:0.9;fill-rule:nonzero;"/>
                </g>
            </g>
            <g transform="matrix(-0.999947,-0.0103062,0.0103062,-0.999947,74.12,259.02)">
                <g transform="matrix(6.4,0,0,6.4,37.7274,129.319)">
                    <path d="M0.039,-0.364C0.039,-0.466 0.067,-0.552 0.123,-0.622C0.179,-0.693 0.253,-0.728 0.347,-0.728C0.45,-0.728 0.528,-0.696 0.583,-0.632C0.637,-0.569 0.664,-0.479 0.664,-0.364C0.664,-0.249 0.636,-0.157 0.579,-0.089C0.522,-0.022 0.441,0.012 0.337,0.012C0.241,0.012 0.167,-0.021 0.116,-0.088C0.065,-0.155 0.039,-0.247 0.039,-0.364ZM0.171,-0.364C0.171,-0.28 0.185,-0.215 0.213,-0.169C0.242,-0.124 0.283,-0.101 0.337,-0.101C0.4,-0.101 0.449,-0.123 0.482,-0.168C0.516,-0.213 0.532,-0.278 0.532,-0.364C0.532,-0.531 0.47,-0.615 0.347,-0.615C0.29,-0.615 0.247,-0.593 0.216,-0.547C0.186,-0.502 0.171,-0.441 0.171,-0.364Z" style="fill:white;fill-opacity:0.9;fill-rule:nonzero;"/>
                </g>
            </g>
            <g transform="matrix(-0.96869,0.248274,-0.248274,-0.96869,96.0169,246.685)">
                <g transform="matrix(6.4,0,0,6.4,32.4535,129.397)">
                    <path d="M0.563,-0.677L0.511,-0.572C0.483,-0.601 0.437,-0.615 0.375,-0.615C0.315,-0.615 0.266,-0.59 0.228,-0.54C0.19,-0.49 0.171,-0.427 0.171,-0.35C0.171,-0.274 0.189,-0.213 0.224,-0.168C0.259,-0.123 0.306,-0.101 0.365,-0.101C0.433,-0.101 0.485,-0.125 0.523,-0.173L0.583,-0.07C0.531,-0.015 0.455,0.012 0.355,0.012C0.255,0.012 0.177,-0.021 0.122,-0.086C0.067,-0.152 0.039,-0.242 0.039,-0.355C0.039,-0.461 0.07,-0.55 0.131,-0.621C0.192,-0.692 0.271,-0.728 0.367,-0.728C0.449,-0.728 0.514,-0.711 0.563,-0.677Z" style="fill:white;fill-opacity:0.9;fill-rule:nonzero;"/>
                </g>
            </g>
            <g transform="matrix(-0.872023,0.489465,-0.489465,-0.872023,116.188,230.87)">
                <g transform="matrix(6.4,0,0,6.4,27.912,130.624)">
                    <path d="M0.479,0L0.28,-0.305L0.2,-0.196L0.2,0L0.073,0L0.073,-0.715L0.2,-0.715L0.2,-0.373L0.443,-0.715L0.588,-0.715L0.364,-0.403L0.631,0L0.479,0Z" style="fill:white;fill-opacity:0.9;fill-rule:nonzero;"/>
                </g>
            </g>
        </g>
        <g transform="matrix(0.762024,-0.739642,0.924409,0.609714,758.689,-220.111)">
            <g transform="matrix(0.902249,-0.431215,0.431215,0.902249,-56.119,24.9779)">
                <g transform="matrix(6.4,0,0,6.4,27.0337,136.27)">
                    <path d="M0.477,0L0.286,-0.295C0.266,-0.296 0.24,-0.297 0.205,-0.299L0.205,0L0.073,0L0.073,-0.715C0.08,-0.715 0.108,-0.717 0.156,-0.719C0.204,-0.721 0.242,-0.723 0.271,-0.723C0.453,-0.723 0.544,-0.652 0.544,-0.512C0.544,-0.469 0.531,-0.431 0.506,-0.396C0.481,-0.361 0.45,-0.337 0.412,-0.322L0.623,0L0.477,0ZM0.205,-0.605L0.205,-0.406C0.229,-0.404 0.246,-0.403 0.259,-0.403C0.312,-0.403 0.351,-0.411 0.375,-0.426C0.4,-0.441 0.412,-0.47 0.412,-0.513C0.412,-0.548 0.399,-0.573 0.373,-0.587C0.346,-0.601 0.305,-0.608 0.248,-0.608C0.234,-0.608 0.22,-0.607 0.205,-0.605Z" style="fill:white;fill-opacity:0.9;fill-rule:nonzero;"/>
                </g>
            </g>
            <g transform="matrix(0.977065,-0.212942,0.212942,0.977065,-27.9768,9.53861)">
                <g transform="matrix(6.4,0,0,6.4,30.2924,134.645)">
                    <path d="M0.2,-0.603L0.2,-0.435L0.437,-0.435L0.437,-0.327L0.2,-0.327L0.2,-0.113L0.524,-0.113L0.524,0L0.073,0L0.073,-0.715L0.53,-0.715L0.53,-0.603L0.2,-0.603Z" style="fill:white;fill-opacity:0.9;fill-rule:nonzero;"/>
                </g>
            </g>
            <g transform="matrix(1,-0.000396422,0.000396422,1,-0.0530795,0.0133442)">
                <g transform="matrix(6.4,0,0,6.4,33.6352,133.903)">
                    <path d="M0.039,-0.04L0.086,-0.153C0.136,-0.118 0.185,-0.101 0.234,-0.101C0.308,-0.101 0.346,-0.127 0.346,-0.179C0.346,-0.203 0.337,-0.226 0.319,-0.249C0.302,-0.271 0.266,-0.295 0.211,-0.323C0.156,-0.351 0.119,-0.373 0.1,-0.391C0.081,-0.409 0.066,-0.43 0.056,-0.454C0.046,-0.479 0.041,-0.506 0.041,-0.535C0.041,-0.59 0.061,-0.636 0.101,-0.673C0.142,-0.709 0.194,-0.728 0.257,-0.728C0.34,-0.728 0.401,-0.712 0.439,-0.681L0.401,-0.572C0.356,-0.604 0.309,-0.62 0.26,-0.62C0.23,-0.62 0.208,-0.612 0.192,-0.596C0.176,-0.581 0.167,-0.561 0.167,-0.536C0.167,-0.495 0.213,-0.452 0.304,-0.408C0.352,-0.385 0.386,-0.363 0.407,-0.344C0.428,-0.324 0.444,-0.301 0.456,-0.275C0.467,-0.248 0.472,-0.219 0.472,-0.187C0.472,-0.129 0.449,-0.081 0.404,-0.044C0.358,-0.007 0.297,0.012 0.22,0.012C0.153,0.012 0.093,-0.005 0.039,-0.04Z" style="fill:white;fill-opacity:0.9;fill-rule:nonzero;"/>
                </g>
            </g>
            <g transform="matrix(0.9745,0.224387,-0.224387,0.9745,30.9664,-4.81316)">
                <g transform="matrix(6.4,0,0,6.4,36.66,133.838)">
                    <path d="M0.2,-0.603L0.2,-0.435L0.437,-0.435L0.437,-0.327L0.2,-0.327L0.2,-0.113L0.524,-0.113L0.524,0L0.073,0L0.073,-0.715L0.53,-0.715L0.53,-0.603L0.2,-0.603Z" style="fill:white;fill-opacity:0.9;fill-rule:nonzero;"/>
                </g>
            </g>
            <g transform="matrix(0.896089,0.443874,-0.443874,0.896089,63.8639,-3.74849)">
                <g transform="matrix(6.4,0,0,6.4,39.9381,134.529)">
                    <path d="M0.364,-0.603L0.364,0L0.237,0L0.237,-0.603L0.01,-0.603L0.01,-0.715L0.602,-0.715L0.602,-0.603L0.364,-0.603Z" style="fill:white;fill-opacity:0.9;fill-rule:nonzero;"/>
                </g>
            </g>
        </g>
        <g transform="matrix(0.924409,-0.609714,0.762024,0.739642,803.069,-264.807)">
            <g transform="matrix(0.96869,-0.248274,0.248274,0.96869,-32.5701,11.5512)">
                <g transform="matrix(6.4,0,0,6.4,29.5124,134.908)">
                    <path d="M0.477,0L0.286,-0.295C0.266,-0.296 0.24,-0.297 0.205,-0.299L0.205,0L0.073,0L0.073,-0.715C0.08,-0.715 0.108,-0.717 0.156,-0.719C0.204,-0.721 0.242,-0.723 0.271,-0.723C0.453,-0.723 0.544,-0.652 0.544,-0.512C0.544,-0.469 0.531,-0.431 0.506,-0.396C0.481,-0.361 0.45,-0.337 0.412,-0.322L0.623,0L0.477,0ZM0.205,-0.605L0.205,-0.406C0.229,-0.404 0.246,-0.403 0.259,-0.403C0.312,-0.403 0.351,-0.411 0.375,-0.426C0.4,-0.441 0.412,-0.47 0.412,-0.513C0.412,-0.548 0.399,-0.573 0.373,-0.587C0.346,-0.601 0.305,-0.608 0.248,-0.608C0.234,-0.608 0.22,-0.607 0.205,-0.605Z" style="fill:white;fill-opacity:0.9;fill-rule:nonzero;"/>
                </g>
            </g>
            <g transform="matrix(0.999955,-0.00951347,0.00951347,0.999955,-1.27259,0.319692)">
                <g transform="matrix(6.4,0,0,6.4,32.967,133.924)">
                    <path d="M0.073,-0.715L0.2,-0.715L0.2,-0.23C0.2,-0.192 0.212,-0.161 0.235,-0.137C0.259,-0.113 0.291,-0.101 0.332,-0.101C0.378,-0.101 0.414,-0.112 0.439,-0.136C0.465,-0.16 0.478,-0.192 0.478,-0.233L0.478,-0.715L0.604,-0.715L0.604,-0.223C0.604,-0.15 0.58,-0.092 0.531,-0.05C0.481,-0.009 0.415,0.012 0.333,0.012C0.25,0.012 0.186,-0.008 0.141,-0.049C0.096,-0.09 0.073,-0.148 0.073,-0.224L0.073,-0.715Z" style="fill:white;fill-opacity:0.9;fill-rule:nonzero;"/>
                </g>
            </g>
            <g transform="matrix(0.96742,0.253177,-0.253177,0.96742,35.085,-4.97873)">
                <g transform="matrix(6.4,0,0,6.4,36.8872,133.832)">
                    <path d="M0.542,0.01L0.195,-0.443L0.195,0L0.073,0L0.073,-0.715L0.134,-0.715L0.472,-0.284L0.472,-0.715L0.594,-0.715L0.594,0.01L0.542,0.01Z" style="fill:white;fill-opacity:0.9;fill-rule:nonzero;"/>
                </g>
            </g>
        </g>
        <g transform="matrix(0.924409,0.609714,-0.762024,0.739642,1273.47,-307.918)">
            <g transform="matrix(0.807639,-0.589677,0.589677,0.807639,-76.4132,41.3713)">
                <g transform="matrix(6.4,0,0,6.4,25.2047,137.807)">
                    <path d="M0.073,0L0.073,-0.715L0.2,-0.715L0.2,-0.113L0.523,-0.113L0.523,0L0.073,0Z" style="fill:white;fill-opacity:0.9;fill-rule:nonzero;"/>
                </g>
            </g>
            <g transform="matrix(0.919406,-0.393311,0.393311,0.919406,-51.178,21.8866)">
                <g transform="matrix(6.4,0,0,6.4,27.8157,135.821)">
                    <path d="M0.2,-0.603L0.2,-0.435L0.437,-0.435L0.437,-0.327L0.2,-0.327L0.2,-0.113L0.524,-0.113L0.524,0L0.073,0L0.073,-0.715L0.53,-0.715L0.53,-0.603L0.2,-0.603Z" style="fill:white;fill-opacity:0.9;fill-rule:nonzero;"/>
                </g>
            </g>
            <g transform="matrix(0.987155,-0.159768,0.159768,0.987155,-21.0816,6.65318)">
                <g transform="matrix(6.4,0,0,6.4,30.8344,134.431)">
                    <path d="M0.542,0.01L0.195,-0.443L0.195,0L0.073,0L0.073,-0.715L0.134,-0.715L0.472,-0.284L0.472,-0.715L0.594,-0.715L0.594,0.01L0.542,0.01Z" style="fill:white;fill-opacity:0.9;fill-rule:nonzero;"/>
                </g>
            </g>
            <g transform="matrix(0.99483,0.101558,-0.101558,0.99483,13.7634,-2.82548)">
                <g transform="matrix(6.4,0,0,6.4,34.6312,133.76)">
                    <path d="M0.602,-0.657L0.548,-0.555C0.533,-0.569 0.51,-0.582 0.479,-0.595C0.448,-0.608 0.421,-0.615 0.398,-0.615C0.328,-0.615 0.273,-0.591 0.232,-0.543C0.191,-0.496 0.171,-0.432 0.171,-0.352C0.171,-0.275 0.191,-0.215 0.231,-0.169C0.271,-0.123 0.325,-0.101 0.394,-0.101C0.439,-0.101 0.476,-0.113 0.505,-0.138L0.505,-0.278L0.406,-0.278L0.406,-0.387L0.632,-0.387L0.632,-0.066C0.602,-0.042 0.563,-0.022 0.515,-0.009C0.468,0.005 0.42,0.012 0.373,0.012C0.271,0.012 0.189,-0.021 0.129,-0.089C0.069,-0.156 0.039,-0.245 0.039,-0.355C0.039,-0.465 0.072,-0.555 0.137,-0.624C0.203,-0.693 0.291,-0.728 0.401,-0.728C0.48,-0.728 0.547,-0.704 0.602,-0.657Z" style="fill:white;fill-opacity:0.9;fill-rule:nonzero;"/>
                </g>
            </g>
            <g transform="matrix(0.936537,0.35057,-0.35057,0.936537,49.4661,-4.99043)">
                <g transform="matrix(6.4,0,0,6.4,38.5165,134.129)">
                    <path d="M0.364,-0.603L0.364,0L0.237,0L0.237,-0.603L0.01,-0.603L0.01,-0.715L0.602,-0.715L0.602,-0.603L0.364,-0.603Z" style="fill:white;fill-opacity:0.9;fill-rule:nonzero;"/>
                </g>
            </g>
            <g transform="matrix(0.816162,0.577823,-0.577823,0.816162,85.8688,0.690562)">
                <g transform="matrix(6.4,0,0,6.4,41.8491,135.293)">
                    <path d="M0.485,0L0.485,-0.322L0.2,-0.322L0.2,0L0.073,0L0.073,-0.715L0.2,-0.715L0.2,-0.435L0.485,-0.435L0.485,-0.715L0.61,-0.715L0.61,0L0.485,0Z" style="fill:white;fill-opacity:0.9;fill-rule:nonzero;"/>
                </g>
            </g>
        </g>
        <g transform="matrix(0.762024,0.739642,-0.924409,0.609714,1329.33,-272.409)">
            <g transform="matrix(0.890626,-0.454736,0.454736,0.890626,-58.9642,27.2894)">
                <g transform="matrix(6.4,0,0,6.4,27.2477,136.22)">
                    <path d="M0.039,-0.04L0.086,-0.153C0.136,-0.118 0.185,-0.101 0.234,-0.101C0.308,-0.101 0.346,-0.127 0.346,-0.179C0.346,-0.203 0.337,-0.226 0.319,-0.249C0.302,-0.271 0.266,-0.295 0.211,-0.323C0.156,-0.351 0.119,-0.373 0.1,-0.391C0.081,-0.409 0.066,-0.43 0.056,-0.454C0.046,-0.479 0.041,-0.506 0.041,-0.535C0.041,-0.59 0.061,-0.636 0.101,-0.673C0.142,-0.709 0.194,-0.728 0.257,-0.728C0.34,-0.728 0.401,-0.712 0.439,-0.681L0.401,-0.572C0.356,-0.604 0.309,-0.62 0.26,-0.62C0.23,-0.62 0.208,-0.612 0.192,-0.596C0.176,-0.581 0.167,-0.561 0.167,-0.536C0.167,-0.495 0.213,-0.452 0.304,-0.408C0.352,-0.385 0.386,-0.363 0.407,-0.344C0.428,-0.324 0.444,-0.301 0.456,-0.275C0.467,-0.248 0.472,-0.219 0.472,-0.187C0.472,-0.129 0.449,-0.081 0.404,-0.044C0.358,-0.007 0.297,0.012 0.22,0.012C0.153,0.012 0.093,-0.005 0.039,-0.04Z" style="fill:white;fill-opacity:0.9;fill-rule:nonzero;"/>
                </g>
            </g>
            <g transform="matrix(0.970784,-0.239956,0.239956,0.970784,-31.4715,11.1103)">
                <g transform="matrix(6.4,0,0,6.4,29.8895,134.794)">
                    <path d="M0.364,-0.603L0.364,0L0.237,0L0.237,-0.603L0.01,-0.603L0.01,-0.715L0.602,-0.715L0.602,-0.603L0.364,-0.603Z" style="fill:white;fill-opacity:0.9;fill-rule:nonzero;"/>
                </g>
            </g>
            <g transform="matrix(0.999678,-0.0253636,0.0253636,0.999678,-3.3871,0.87693)">
                <g transform="matrix(6.4,0,0,6.4,32.8752,133.959)">
                    <path d="M0.491,0L0.438,-0.145L0.193,-0.145L0.144,0L0.002,0L0.288,-0.725L0.343,-0.725L0.631,0L0.491,0ZM0.315,-0.506L0.229,-0.242L0.401,-0.242L0.315,-0.506Z" style="fill:white;fill-opacity:0.9;fill-rule:nonzero;"/>
                </g>
            </g>
            <g transform="matrix(0.972172,0.23427,-0.23427,0.972172,32.3575,-4.83168)">
                <g transform="matrix(6.4,0,0,6.4,36.5162,133.783)">
                    <path d="M0.477,0L0.286,-0.295C0.266,-0.296 0.24,-0.297 0.205,-0.299L0.205,0L0.073,0L0.073,-0.715C0.08,-0.715 0.108,-0.717 0.156,-0.719C0.204,-0.721 0.242,-0.723 0.271,-0.723C0.453,-0.723 0.544,-0.652 0.544,-0.512C0.544,-0.469 0.531,-0.431 0.506,-0.396C0.481,-0.361 0.45,-0.337 0.412,-0.322L0.623,0L0.477,0ZM0.205,-0.605L0.205,-0.406C0.229,-0.404 0.246,-0.403 0.259,-0.403C0.312,-0.403 0.351,-0.411 0.375,-0.426C0.4,-0.441 0.412,-0.47 0.412,-0.513C0.412,-0.548 0.399,-0.573 0.373,-0.587C0.346,-0.601 0.305,-0.608 0.248,-0.608C0.234,-0.608 0.22,-0.607 0.205,-0.605Z" style="fill:white;fill-opacity:0.9;fill-rule:nonzero;"/>
                </g>
            </g>
            <g transform="matrix(0.898105,0.439781,-0.439781,0.898105,63.2169,-3.83067)">
                <g transform="matrix(6.4,0,0,6.4,39.8751,134.508)">
                    <path d="M0.364,-0.603L0.364,0L0.237,0L0.237,-0.603L0.01,-0.603L0.01,-0.715L0.602,-0.715L0.602,-0.603L0.364,-0.603Z" style="fill:white;fill-opacity:0.9;fill-rule:nonzero;"/>
                </g>
            </g>
        </g>
        <g transform="matrix(-0.924409,0.609714,-0.762024,-0.739642,1338.82,148.626)">
            <g transform="matrix(-0.96742,-0.253177,0.253177,-0.96742,50.1799,267.427)">
                <g transform="matrix(6.4,0,0,6.4,42.2968,130.485)">
                    <path d="M0.039,-0.364C0.039,-0.466 0.067,-0.552 0.123,-0.622C0.179,-0.693 0.253,-0.728 0.347,-0.728C0.45,-0.728 0.528,-0.696 0.583,-0.632C0.637,-0.569 0.664,-0.479 0.664,-0.364C0.664,-0.249 0.636,-0.157 0.579,-0.089C0.522,-0.022 0.441,0.012 0.337,0.012C0.241,0.012 0.167,-0.021 0.116,-0.088C0.065,-0.155 0.039,-0.247 0.039,-0.364ZM0.171,-0.364C0.171,-0.28 0.185,-0.215 0.213,-0.169C0.242,-0.124 0.283,-0.101 0.337,-0.101C0.4,-0.101 0.449,-0.123 0.482,-0.168C0.516,-0.213 0.532,-0.278 0.532,-0.364C0.532,-0.531 0.47,-0.615 0.347,-0.615C0.29,-0.615 0.247,-0.593 0.216,-0.547C0.186,-0.502 0.171,-0.441 0.171,-0.364Z" style="fill:white;fill-opacity:0.9;fill-rule:nonzero;"/>
                </g>
            </g>
            <g transform="matrix(-0.999887,0.015062,-0.015062,-0.999887,76.2479,257.954)">
                <g transform="matrix(6.4,0,0,6.4,37.1526,129.264)">
                    <path d="M0.073,-0.715L0.2,-0.715L0.2,-0.23C0.2,-0.192 0.212,-0.161 0.235,-0.137C0.259,-0.113 0.291,-0.101 0.332,-0.101C0.378,-0.101 0.414,-0.112 0.439,-0.136C0.465,-0.16 0.478,-0.192 0.478,-0.233L0.478,-0.715L0.604,-0.715L0.604,-0.223C0.604,-0.15 0.58,-0.092 0.531,-0.05C0.481,-0.009 0.415,0.012 0.333,0.012C0.25,0.012 0.186,-0.008 0.141,-0.049C0.096,-0.09 0.073,-0.148 0.073,-0.224L0.073,-0.715Z" style="fill:white;fill-opacity:0.9;fill-rule:nonzero;"/>
                </g>
            </g>
            <g transform="matrix(-0.963362,0.268205,-0.268205,-0.963362,97.6203,245.598)">
                <g transform="matrix(6.4,0,0,6.4,32.0352,129.467)">
                    <path d="M0.364,-0.603L0.364,0L0.237,0L0.237,-0.603L0.01,-0.603L0.01,-0.715L0.602,-0.715L0.602,-0.603L0.364,-0.603Z" style="fill:white;fill-opacity:0.9;fill-rule:nonzero;"/>
                </g>
            </g>
        </g>
        <g transform="matrix(-0.762024,0.739642,-0.924409,-0.609714,1383.2,103.93)">
            <g transform="matrix(-0.992584,-0.12156,0.12156,-0.992584,63.1291,263.209)">
                <g transform="matrix(6.4,0,0,6.4,39.5932,129.679)">
                    <path d="M0.563,-0.677L0.511,-0.572C0.483,-0.601 0.437,-0.615 0.375,-0.615C0.315,-0.615 0.266,-0.59 0.228,-0.54C0.19,-0.49 0.171,-0.427 0.171,-0.35C0.171,-0.274 0.189,-0.213 0.224,-0.168C0.259,-0.123 0.306,-0.101 0.365,-0.101C0.433,-0.101 0.485,-0.125 0.523,-0.173L0.583,-0.07C0.531,-0.015 0.455,0.012 0.355,0.012C0.255,0.012 0.177,-0.021 0.122,-0.086C0.067,-0.152 0.039,-0.242 0.039,-0.355C0.039,-0.461 0.07,-0.55 0.131,-0.621C0.192,-0.692 0.271,-0.728 0.367,-0.728C0.449,-0.728 0.514,-0.711 0.563,-0.677Z" style="fill:white;fill-opacity:0.9;fill-rule:nonzero;"/>
                </g>
            </g>
            <g transform="matrix(-0.992584,0.12156,-0.12156,-0.992584,85.2648,253.189)">
                <g transform="matrix(6.4,0,0,6.4,34.9094,129.195)">
                    <path d="M0.34,0.01L0.27,0.01L0.002,-0.715L0.142,-0.715L0.308,-0.232L0.482,-0.715L0.619,-0.715L0.34,0.01Z" style="fill:white;fill-opacity:0.9;fill-rule:nonzero;"/>
                </g>
            </g>
        </g>
        <g transform="matrix(-0.924409,-0.609714,0.762024,-0.739642,868.432,191.778)">
            <g transform="matrix(-0.931594,-0.363499,0.363499,-0.931594,37.7782,269.917)">
                <g transform="matrix(6.4,0,0,6.4,44.2864,131.404)">
                    <path d="M0.477,0L0.286,-0.295C0.266,-0.296 0.24,-0.297 0.205,-0.299L0.205,0L0.073,0L0.073,-0.715C0.08,-0.715 0.108,-0.717 0.156,-0.719C0.204,-0.721 0.242,-0.723 0.271,-0.723C0.453,-0.723 0.544,-0.652 0.544,-0.512C0.544,-0.469 0.531,-0.431 0.506,-0.396C0.481,-0.361 0.45,-0.337 0.412,-0.322L0.623,0L0.477,0ZM0.205,-0.605L0.205,-0.406C0.229,-0.404 0.246,-0.403 0.259,-0.403C0.312,-0.403 0.351,-0.411 0.375,-0.426C0.4,-0.441 0.412,-0.47 0.412,-0.513C0.412,-0.548 0.399,-0.573 0.373,-0.587C0.346,-0.601 0.305,-0.608 0.248,-0.608C0.234,-0.608 0.22,-0.607 0.205,-0.605Z" style="fill:white;fill-opacity:0.9;fill-rule:nonzero;"/>
                </g>
            </g>
            <g transform="matrix(-0.990759,-0.135633,0.135633,-0.990759,61.824,263.706)">
                <g transform="matrix(6.4,0,0,6.4,39.8953,129.747)">
                    <path d="M0.491,0L0.438,-0.145L0.193,-0.145L0.144,0L0.002,0L0.288,-0.725L0.343,-0.725L0.631,0L0.491,0ZM0.315,-0.506L0.229,-0.242L0.401,-0.242L0.315,-0.506Z" style="fill:white;fill-opacity:0.9;fill-rule:nonzero;"/>
                </g>
            </g>
            <g transform="matrix(-0.992822,0.119602,-0.119602,-0.992822,85.3841,253.23)">
                <g transform="matrix(6.4,0,0,6.4,35.0931,129.177)">
                    <path d="M0.542,0.01L0.195,-0.443L0.195,0L0.073,0L0.073,-0.715L0.134,-0.715L0.472,-0.284L0.472,-0.715L0.594,-0.715L0.594,0.01L0.542,0.01Z" style="fill:white;fill-opacity:0.9;fill-rule:nonzero;"/>
                </g>
            </g>
            <g transform="matrix(-0.926049,0.377404,-0.377404,-0.926049,106.963,238.805)">
                <g transform="matrix(6.4,0,0,6.4,30.0849,129.882)">
                    <path d="M0.232,0L0.073,0L0.073,-0.715C0.174,-0.718 0.238,-0.72 0.264,-0.72C0.368,-0.72 0.451,-0.69 0.512,-0.629C0.573,-0.568 0.604,-0.487 0.604,-0.386C0.604,-0.129 0.48,0 0.232,0ZM0.2,-0.604L0.2,-0.116C0.221,-0.114 0.243,-0.113 0.267,-0.113C0.331,-0.113 0.381,-0.136 0.417,-0.183C0.454,-0.229 0.472,-0.294 0.472,-0.378C0.472,-0.531 0.401,-0.607 0.258,-0.607C0.245,-0.607 0.225,-0.606 0.2,-0.604Z" style="fill:white;fill-opacity:0.9;fill-rule:nonzero;"/>
                </g>
            </g>
        </g>
        <g transform="matrix(-0.433654,-0.893549,1.11676,-0.346977,1016.56,153.135)">
            <g transform="matrix(-0.938412,-0.345517,0.345517,-0.938412,33.5681,267.972)">
                <g transform="matrix(6.4,0,0,6.4,40.6667,130.994)">
                    <path d="M0.2,-0.603L0.2,-0.435L0.437,-0.435L0.437,-0.327L0.2,-0.327L0.2,-0.113L0.524,-0.113L0.524,0L0.073,0L0.073,-0.715L0.53,-0.715L0.53,-0.603L0.2,-0.603Z" style="fill:white;fill-opacity:0.9;fill-rule:nonzero;"/>
                </g>
            </g>
            <g transform="matrix(-0.99711,-0.0759706,0.0759706,-0.99711,63.0404,261.415)">
                <g transform="matrix(6.4,0,0,6.4,36.4924,129.508)">
                    <path d="M0.232,0L0.073,0L0.073,-0.715C0.174,-0.718 0.238,-0.72 0.264,-0.72C0.368,-0.72 0.451,-0.69 0.512,-0.629C0.573,-0.568 0.604,-0.487 0.604,-0.386C0.604,-0.129 0.48,0 0.232,0ZM0.2,-0.604L0.2,-0.116C0.221,-0.114 0.243,-0.113 0.267,-0.113C0.331,-0.113 0.381,-0.136 0.417,-0.183C0.454,-0.229 0.472,-0.294 0.472,-0.378C0.472,-0.531 0.401,-0.607 0.258,-0.607C0.245,-0.607 0.225,-0.606 0.2,-0.604Z" style="fill:white;fill-opacity:0.9;fill-rule:nonzero;"/>
                </g>
            </g>
            <g transform="matrix(-0.990866,0.134852,-0.134852,-0.990866,80.4069,253.212)">
                <g transform="matrix(6.4,0,0,6.4,31.6277,129.329)">
                    <rect x="0.076" y="-0.715" width="0.127" height="0.715" style="fill:white;fill-opacity:0.9;fill-rule:nonzero;"/>
                </g>
            </g>
            <g transform="matrix(-0.938944,0.344071,-0.344071,-0.938944,100.99,241.369)">
                <g transform="matrix(6.4,0,0,6.4,29.0794,129.645)">
                    <path d="M0.364,-0.603L0.364,0L0.237,0L0.237,-0.603L0.01,-0.603L0.01,-0.715L0.602,-0.715L0.602,-0.603L0.364,-0.603Z" style="fill:white;fill-opacity:0.9;fill-rule:nonzero;"/>
                </g>
            </g>
        </g>
    </g>
    <g transform="matrix(0.541618,0,0,0.541618,195,190)">
        <path id="zwickel" d="M0,0C-48.11,27.858 -77.827,79.407 -77.827,135C-77.827,190.593 -48.11,242.142 0,270C48.11,242.142 77.827,190.593 77.827,135C77.827,79.407 48.11,27.858 0,0" style="fill:none;fill-rule:nonzero;stroke:black;stroke-opacity:0.05;stroke-width:1.85px;stroke-linecap:butt;stroke-miterlimit:2;"/>
        <g id="zwickel1" serif:id="zwickel" transform="matrix(0.866025,0.5,-0.5,0.866025,0,0)">
            <path d="M0,0C-48.11,27.858 -77.827,79.407 -77.827,135C-77.827,190.593 -48.11,242.142 0,270C48.11,242.142 77.827,190.593 77.827,135C77.827,79.407 48.11,27.858 0,0" style="fill:none;fill-rule:nonzero;stroke:black;stroke-opacity:0.05;stroke-width:1.85px;stroke-linecap:butt;stroke-miterlimit:2;"/>
        </g>
        <g id="zwickel2" serif:id="zwickel" transform="matrix(0.5,0.866025,-0.866025,0.5,0,0)">
            <path d="M0,0C-48.11,27.858 -77.827,79.407 -77.827,135C-77.827,190.593 -48.11,242.142 0,270C48.11,242.142 77.827,190.593 77.827,135C77.827,79.407 48.11,27.858 0,0" style="fill:none;fill-rule:nonzero;stroke:black;stroke-opacity:0.05;stroke-width:1.85px;stroke-linecap:butt;stroke-miterlimit:2;"/>
        </g>
        <g id="zwickel3" serif:id="zwickel" transform="matrix(-3.82857e-16,1,-1,-3.82857e-16,0,0)">
            <path d="M0,0C-48.11,27.858 -77.827,79.407 -77.827,135C-77.827,190.593 -48.11,242.142 0,270C48.11,242.142 77.827,190.593 77.827,135C77.827,79.407 48.11,27.858 0,0" style="fill:none;fill-rule:nonzero;stroke:black;stroke-opacity:0.05;stroke-width:1.85px;stroke-linecap:butt;stroke-miterlimit:2;"/>
        </g>
        <g id="zwickel4" serif:id="zwickel" transform="matrix(-0.5,0.866025,-0.866025,-0.5,0,0)">
            <path d="M0,0C-48.11,27.858 -77.827,79.407 -77.827,135C-77.827,190.593 -48.11,242.142 0,270C48.11,242.142 77.827,190.593 77.827,135C77.827,79.407 48.11,27.858 0,0" style="fill:none;fill-rule:nonzero;stroke:black;stroke-opacity:0.05;stroke-width:1.85px;stroke-linecap:butt;stroke-miterlimit:2;"/>
        </g>
        <g id="zwickel5" serif:id="zwickel" transform="matrix(-0.866025,0.5,-0.5,-0.866025,0,0)">
            <path d="M0,0C-48.11,27.858 -77.827,79.407 -77.827,135C-77.827,190.593 -48.11,242.142 0,270C48.11,242.142 77.827,190.593 77.827,135C77.827,79.407 48.11,27.858 0,0" style="fill:none;fill-rule:nonzero;stroke:black;stroke-opacity:0.05;stroke-width:1.85px;stroke-linecap:butt;stroke-miterlimit:2;"/>
        </g>
        <g id="zwickel6" serif:id="zwickel" transform="matrix(-1,-7.65714e-16,7.65714e-16,-1,0,0)">
            <path d="M0,0C-48.11,27.858 -77.827,79.407 -77.827,135C-77.827,190.593 -48.11,242.142 0,270C48.11,242.142 77.827,190.593 77.827,135C77.827,79.407 48.11,27.858 0,0" style="fill:none;fill-rule:nonzero;stroke:black;stroke-opacity:0.05;stroke-width:1.85px;stroke-linecap:butt;stroke-miterlimit:2;"/>
        </g>
        <g id="zwickel7" serif:id="zwickel" transform="matrix(-0.866025,-0.5,0.5,-0.866025,0,0)">
            <path d="M0,0C-48.11,27.858 -77.827,79.407 -77.827,135C-77.827,190.593 -48.11,242.142 0,270C48.11,242.142 77.827,190.593 77.827,135C77.827,79.407 48.11,27.858 0,0" style="fill:none;fill-rule:nonzero;stroke:black;stroke-opacity:0.05;stroke-width:1.85px;stroke-linecap:butt;stroke-miterlimit:2;"/>
        </g>
        <g id="zwickel8" serif:id="zwickel" transform="matrix(-0.5,-0.866025,0.866025,-0.5,0,0)">
            <path d="M0,0C-48.11,27.858 -77.827,79.407 -77.827,135C-77.827,190.593 -48.11,242.142 0,270C48.11,242.142 77.827,190.593 77.827,135C77.827,79.407 48.11,27.858 0,0" style="fill:none;fill-rule:nonzero;stroke:black;stroke-opacity:0.05;stroke-width:1.85px;stroke-linecap:butt;stroke-miterlimit:2;"/>
        </g>
        <g>
            <g id="zwickel9" serif:id="zwickel" transform="matrix(7.04481e-16,-1,1,7.04481e-16,0,0)">
                <path d="M0,0C-48.11,27.858 -77.827,79.407 -77.827,135C-77.827,190.593 -48.11,242.142 0,270C48.11,242.142 77.827,190.593 77.827,135C77.827,79.407 48.11,27.858 0,0" style="fill:none;fill-rule:nonzero;stroke:black;stroke-opacity:0.05;stroke-width:1.85px;stroke-linecap:butt;stroke-miterlimit:2;"/>
            </g>
            <g id="zwickel10" serif:id="zwickel" transform="matrix(0.5,-0.866025,0.866025,0.5,0,0)">
                <path d="M0,0C-48.11,27.858 -77.827,79.407 -77.827,135C-77.827,190.593 -48.11,242.142 0,270C48.11,242.142 77.827,190.593 77.827,135C77.827,79.407 48.11,27.858 0,0" style="fill:none;fill-rule:nonzero;stroke:black;stroke-opacity:0.05;stroke-width:1.85px;stroke-linecap:butt;stroke-miterlimit:2;"/>
            </g>
            <g id="zwickel11" serif:id="zwickel" transform="matrix(0.866025,-0.5,0.5,0.866025,0,0)">
                <path d="M0,0C-48.11,27.858 -77.827,79.407 -77.827,135C-77.827,190.593 -48.11,242.142 0,270C48.11,242.142 77.827,190.593 77.827,135C77.827,79.407 48.11,27.858 0,0" style="fill:none;fill-rule:nonzero;stroke:black;stroke-opacity:0.05;stroke-width:1.85px;stroke-linecap:butt;stroke-miterlimit:2;"/>
            </g>
        </g>
        <circle cx="0" cy="0" r="40" style="fill:none;stroke:black;stroke-opacity:0.05;stroke-width:1.85px;stroke-linecap:butt;stroke-miterlimit:2;"/>
    </g>
</svg>
