<?xml version="1.0" encoding="UTF-8" standalone="no"?>
<svg
   xmlns:dc="http://purl.org/dc/elements/1.1/"
   xmlns:cc="http://creativecommons.org/ns#"
   xmlns:rdf="http://www.w3.org/1999/02/22-rdf-syntax-ns#"
   xmlns:svg="http://www.w3.org/2000/svg"
   xmlns="http://www.w3.org/2000/svg"
   xmlns:sodipodi="http://sodipodi.sourceforge.net/DTD/sodipodi-0.dtd"
   xmlns:inkscape="http://www.inkscape.org/namespaces/inkscape"
   width="100%"
   height="100%"
   viewBox="0 0 330 380"
   version="1.1"
   xml:space="preserve"
   style="fill-rule:evenodd;clip-rule:evenodd;stroke-linecap:round;stroke-linejoin:round;stroke-miterlimit:1.5;"
   id="svg3323"
   sodipodi:docname="Hive.svg"
   inkscape:version="1.0beta2 (368ca91, 2020-02-26)"><metadata
   id="metadata3329"><rdf:RDF><cc:Work
       rdf:about=""><dc:format>image/svg+xml</dc:format><dc:type
         rdf:resource="http://purl.org/dc/dcmitype/StillImage" /><dc:title /></cc:Work></rdf:RDF></metadata><defs
   id="defs3327"><inkscape:path-effect
   effect="fillet_chamfer"
   id="path-effect4770"
   is_visible="true"
   lpeversion="1"
   satellites_param="F,0,0,1,0,0,0,1 @ F,0,0,1,0,0,0,1 @ F,0,0,1,0,0,0,1 @ F,0,0,1,0,0,0,1 @ F,0,0,1,0,0,0,1 @ F,0,0,1,0,0,0,1"
   unit="px"
   method="auto"
   mode="F"
   radius="0"
   chamfer_steps="1"
   flexible="false"
   use_knot_distance="true"
   apply_no_radius="true"
   apply_with_radius="true"
   only_selected="false"
   hide_knots="false" /><inkscape:path-effect
   hide_knots="false"
   only_selected="false"
   apply_with_radius="true"
   apply_no_radius="true"
   use_knot_distance="true"
   flexible="false"
   chamfer_steps="1"
   radius="0"
   mode="F"
   method="auto"
   unit="px"
   satellites_param="F,0,0,1,0,0,0,1 @ F,0,0,1,0,0,0,1 @ F,0,0,1,0,0,0,1 @ F,0,0,1,0,0,0,1 @ F,0,0,1,0,0,0,1 @ F,0,0,1,0,0,0,1"
   lpeversion="1"
   is_visible="true"
   id="path-effect4766"
   effect="fillet_chamfer" /><inkscape:path-effect
   effect="fillet_chamfer"
   id="path-effect4758"
   is_visible="true"
   lpeversion="1"
   satellites_param="F,0,0,1,0,0,0,1 @ F,0,0,1,0,0,0,1 @ F,0,0,1,0,0,0,1 @ F,0,0,1,0,0,0,1 @ F,0,0,1,0,0,0,1 @ F,0,0,1,0,0,0,1"
   unit="px"
   method="auto"
   mode="F"
   radius="0"
   chamfer_steps="1"
   flexible="false"
   use_knot_distance="true"
   apply_no_radius="true"
   apply_with_radius="true"
   only_selected="false"
   hide_knots="false" /><filter
   inkscape:collect="always"
   style="color-interpolation-filters:sRGB"
   id="filter1585"
   x="-0.0011234181"
   width="1.0022469"
   y="-0.0012877866"
   height="1.0025756"><feGaussianBlur
     inkscape:collect="always"
     stdDeviation="0.12550345"
     id="feGaussianBlur1587" /></filter><inkscape:path-effect
   effect="fillet_chamfer"
   id="path-effect1583"
   is_visible="true"
   lpeversion="1"
   satellites_param="F,0,0,1,0,3.5,0,1 @ F,0,0,1,0,3.5,0,1 @ F,0,0,1,0,3.5,0,1 @ F,0,0,1,0,3.5,0,1 @ F,0,0,1,0,3.5,0,1 @ F,0,0,1,0,3.5,0,1"
   unit="px"
   method="auto"
   mode="F"
   radius="3.5"
   chamfer_steps="1"
   flexible="false"
   use_knot_distance="true"
   apply_no_radius="true"
   apply_with_radius="true"
   only_selected="false"
   hide_knots="false" />
        
        
        
        
        
        
        
        
        
        
        
        
        
        
        
        
        
        
        
        
        
        
        
        
        
        
        
        
        
        
        
        
        
        
        
        
        
        
    
            
            
            
            
            
            
            
            
            
            
            
            
            
            
            
            
            
            
            
            
            
            
            
            
            
            
            
            
            
            
            
            
            
            
            
            
            
            
            
            
            
            
            
            
        
            
        
            
            
            
            
            
            
            
            
            
            
            
            
            
            
            
            
            
            
            
            
            
            
            
            
            
            
            
            
            
            
            
            
            
            
            
            
            
            
            
            
            
            
            
            
        <filter
   inkscape:collect="always"
   style="color-interpolation-filters:sRGB"
   id="filter1585-7"
   x="-0.0011234181"
   width="1.0022469"
   y="-0.0012877866"
   height="1.0025756"><feGaussianBlur
     inkscape:collect="always"
     stdDeviation="0.12550345"
     id="feGaussianBlur1587-5" /></filter></defs><sodipodi:namedview
   inkscape:document-rotation="0"
   pagecolor="#ffffff"
   bordercolor="#666666"
   borderopacity="1"
   objecttolerance="10"
   gridtolerance="10"
   guidetolerance="10"
   inkscape:pageopacity="0"
   inkscape:pageshadow="2"
   inkscape:window-width="1920"
   inkscape:window-height="1058"
   id="namedview3325"
   showgrid="false"
   inkscape:zoom="2"
   inkscape:cx="234.00808"
   inkscape:cy="184.77779"
   inkscape:window-x="-8"
   inkscape:window-y="-8"
   inkscape:window-maximized="1"
   inkscape:current-layer="svg3323" />
    <rect
   x="-0.00047737302"
   y="4.2274733e-05"
   width="330"
   height="379.99991"
   style="fill:#404040;stroke-width:2.34521"
   id="rect2586" /><g
   id="g2592"
   transform="matrix(1.9514882,0,0,1.8968503,58.61052,-310.98335)">
            <rect
   id="rect2590"
   style="fill:#0a0a2c;fill-opacity:0.8"
   height="16.91"
   width="169.10201"
   y="347.45599"
   x="-30.033754" />
        </g><g
   id="g2596"
   transform="matrix(1.9514882,0,0,1.8391487,58.61052,-639.02286)">
            <rect
   id="rect2594"
   style="fill:#0a0a2c;fill-opacity:0.8"
   height="16.91"
   width="169.10201"
   y="347.45581"
   x="-30.034" />
        </g><g
   id="g2600"
   transform="matrix(14.734179,0,0,26.67137,-550.87677,-54.496533)">
            <rect
   id="rect2598"
   style="fill:none;stroke:#200676;stroke-width:0.03px;stroke-opacity:0.7"
   height="14.247"
   width="22.396999"
   y="2.043"
   x="37.388" />
        </g><g
   id="g2618"
   transform="matrix(0.99999696,0,0,0.99999979,134.89159,27.999757)">
            <g
   id="g2604"
   transform="matrix(13,0,0,13,13.9998,0)">
                
            </g>
            <g
   id="g2608"
   transform="matrix(13,0,0,13,23.6863,0)">
                
            </g>
            <g
   id="g2612"
   transform="matrix(13,0,0,13,31.9192,0)">
                
            </g>
            <g
   id="g2616"
   transform="matrix(13,0,0,13,39.2,0)">
                
            </g>
        </g><g
   id="g2668"
   transform="matrix(0.70146615,0,0,0.87669612,-529.51707,267.53475)">
            <g
   id="g2644"
   transform="matrix(1.198,0,0,0.958552,893.633,-224.914)">
                <g
   id="g2622"
   transform="matrix(9,0,0,9,64.0056,347.267)">
                    
                </g>
                <g
   id="g2626"
   transform="matrix(9,0,0,9,72.978,347.267)">
                    
                </g>
                <g
   id="g2630"
   transform="matrix(9,0,0,9,78.3513,347.267)">
                    
                </g>
                <g
   id="g2634"
   transform="matrix(9,0,0,9,81.1494,347.267)">
                    
                </g>
                <g
   id="g2638"
   transform="matrix(9,0,0,9,87.2654,347.267)">
                    
                </g>
                <g
   id="g2642"
   transform="matrix(9,0,0,9,92.6386,347.267)">
                    
                </g>
            </g>
            <g
   id="g2666"
   transform="matrix(1.198,0,0,0.958552,893.495,-231.786)">
                <g
   id="g2648"
   transform="matrix(9,0,0,9,68.6657,347.267)">
                    
                </g>
                <g
   id="g2652"
   transform="matrix(9,0,0,9,73.2436,347.267)">
                    
                </g>
                <g
   id="g2656"
   transform="matrix(6.6,0,0,6.6,77.1051,347.267)">
                    
                </g>
                <g
   id="g2660"
   transform="matrix(9,0,0,9,82.6053,347.267)">
                    
                </g>
                <g
   id="g2664"
   transform="matrix(9,0,0,9,87.9786,347.267)">
                    
                </g>
            </g>
        </g><g
   id="g2672"
   transform="matrix(0.85990556,0,0,2.4650092,258.45549,136.45812)">
            <path
   inkscape:connector-curvature="0"
   id="path2670"
   style="fill-opacity:0.5"
   d="m 73.138,58.546 c 0,-0.895 -2.085,-1.622 -4.652,-1.622 H 5.107 v 26.78 h 63.379 c 2.567,0 4.652,-0.727 4.652,-1.623 z" />
        </g><g
   id="g2676"
   transform="matrix(0.85937969,0,0,2.4650092,4.325209,136.45812)">
            <path
   inkscape:connector-curvature="0"
   id="path2674"
   style="fill-opacity:0.5"
   d="M 73.138,56.924 H 9.761 c -2.568,0 -4.654,0.727 -4.654,1.622 v 23.535 c 0,0.896 2.086,1.623 4.654,1.623 h 63.377 z" />
        </g><g
   id="g2680"
   transform="matrix(0.90547304,0,0,2.4650092,162.82139,136.45812)">
            <path
   inkscape:connector-curvature="0"
   id="path2678"
   style="fill:#ffffff;fill-opacity:0.5"
   d="M 73.138,56.924 H 9.524 c -2.438,0 -4.417,0.727 -4.417,1.622 v 23.535 c 0,0.896 1.979,1.623 4.417,1.623 h 63.614 z" />
        </g><g
   id="g2684"
   transform="matrix(0.90597387,0,0,2.4650092,96.353309,136.45812)">
            <path
   inkscape:connector-curvature="0"
   id="path2682"
   style="fill:#ffffff;fill-opacity:0.5"
   d="m 73.138,58.546 c 0,-0.895 -1.979,-1.622 -4.416,-1.622 H 5.107 v 26.78 h 63.615 c 2.437,0 4.416,-0.727 4.416,-1.623 z" />
        </g><g
   id="g2688"
   transform="matrix(0.49683488,0,0,2.4650092,226.54407,136.45812)">
            <rect
   id="rect2686"
   style="fill:#ffffff;fill-opacity:0.4"
   height="26.780001"
   width="68.030998"
   y="56.924"
   x="5.1069999" />
        </g><g
   id="g2692"
   transform="matrix(0.4963449,0,0,2.4650092,64.678948,136.45812)">
            <rect
   id="rect2690"
   style="fill:#ffffff;fill-opacity:0.4"
   height="26.780001"
   width="68.030998"
   y="56.924"
   x="5.1069999" />
        </g><g
   id="g2696"
   transform="matrix(0.44380833,0,0,1.4640934,288.8811,148.67227)">
            <path
   inkscape:connector-curvature="0"
   id="path2694"
   style="fill:#ffffff;fill-opacity:0.5"
   d="m 73.138,59.656 c 0,-1.508 -4.039,-2.732 -9.013,-2.732 H 14.12 c -4.975,0 -9.013,1.224 -9.013,2.732 v 21.316 c 0,1.508 4.038,2.732 9.013,2.732 h 50.005 c 4.974,0 9.013,-1.224 9.013,-2.732 z" />
        </g><g
   id="g2700"
   transform="matrix(1.1714822,0,0,1.1386234,29.540491,-23.806498)">
            
        </g><g
   id="g2704"
   transform="matrix(3.3372937,0,0,8.4763667,34.437805,-442.17912)">
            
        </g><g
   id="g2718"
   transform="matrix(0.99999696,0,0,0.99999979,169.3823,260.36559)">
            <g
   id="g2708"
   transform="matrix(6.4,0,0,6.4,35.2054,51.8924)">
                <path
   inkscape:connector-curvature="0"
   id="path2706"
   style="fill-rule:nonzero"
   d="M 0.563,-0.677 0.511,-0.572 C 0.483,-0.601 0.437,-0.615 0.375,-0.615 c -0.06,0 -0.109,0.025 -0.147,0.075 -0.038,0.05 -0.057,0.113 -0.057,0.19 0,0.076 0.018,0.137 0.053,0.182 0.035,0.045 0.082,0.067 0.141,0.067 0.068,0 0.12,-0.024 0.158,-0.072 l 0.06,0.103 c -0.052,0.055 -0.128,0.082 -0.228,0.082 -0.1,0 -0.178,-0.033 -0.233,-0.098 -0.055,-0.066 -0.083,-0.156 -0.083,-0.269 0,-0.106 0.031,-0.195 0.092,-0.266 0.061,-0.071 0.14,-0.107 0.236,-0.107 0.082,0 0.147,0.017 0.196,0.051 z" />
            </g>
            <g
   id="g2712"
   transform="matrix(6.4,0,0,6.4,39.2491,51.8924)">
                <path
   inkscape:connector-curvature="0"
   id="path2710"
   style="fill-rule:nonzero"
   d="M 0.073,0 V -0.715 H 0.2 v 0.602 H 0.523 V 0 Z" />
            </g>
            <g
   id="g2716"
   transform="matrix(6.4,0,0,6.4,42.9146,51.8924)">
                <path
   inkscape:connector-curvature="0"
   id="path2714"
   style="fill-rule:nonzero"
   d="M 0.479,0 0.28,-0.305 0.2,-0.196 V 0 H 0.073 V -0.715 H 0.2 v 0.342 L 0.443,-0.715 H 0.588 L 0.364,-0.403 0.631,0 Z" />
            </g>
        </g><g
   id="g2732"
   transform="matrix(0.99999696,0,0,0.99999979,78.238173,260.36559)">
            <g
   id="g2722"
   transform="matrix(6.4,0,0,6.4,35.2054,51.8924)">
                <path
   inkscape:connector-curvature="0"
   id="path2720"
   style="fill-rule:nonzero"
   d="M 0.563,-0.677 0.511,-0.572 C 0.483,-0.601 0.437,-0.615 0.375,-0.615 c -0.06,0 -0.109,0.025 -0.147,0.075 -0.038,0.05 -0.057,0.113 -0.057,0.19 0,0.076 0.018,0.137 0.053,0.182 0.035,0.045 0.082,0.067 0.141,0.067 0.068,0 0.12,-0.024 0.158,-0.072 l 0.06,0.103 c -0.052,0.055 -0.128,0.082 -0.228,0.082 -0.1,0 -0.178,-0.033 -0.233,-0.098 -0.055,-0.066 -0.083,-0.156 -0.083,-0.269 0,-0.106 0.031,-0.195 0.092,-0.266 0.061,-0.071 0.14,-0.107 0.236,-0.107 0.082,0 0.147,0.017 0.196,0.051 z" />
            </g>
            <g
   id="g2726"
   transform="matrix(6.4,0,0,6.4,39.2491,51.8924)">
                <path
   inkscape:connector-curvature="0"
   id="path2724"
   style="fill-rule:nonzero"
   d="M 0.073,0 V -0.715 H 0.2 v 0.602 H 0.523 V 0 Z" />
            </g>
            <g
   id="g2730"
   transform="matrix(6.4,0,0,6.4,42.9146,51.8924)">
                <path
   inkscape:connector-curvature="0"
   id="path2728"
   style="fill-rule:nonzero"
   d="M 0.479,0 0.28,-0.305 0.2,-0.196 V 0 H 0.073 V -0.715 H 0.2 v 0.342 L 0.443,-0.715 H 0.588 L 0.364,-0.403 0.631,0 Z" />
            </g>
        </g><g
   id="g2750"
   transform="matrix(0.99999696,0,0,0.99999979,206.15181,260.36559)">
            <g
   id="g2736"
   transform="matrix(6.4,0,0,6.4,32.828,51.8924)">
                <path
   inkscape:connector-curvature="0"
   id="path2734"
   style="fill-rule:nonzero"
   d="M 0.364,-0.603 V 0 H 0.237 V -0.603 H 0.01 v -0.112 h 0.592 v 0.112 z" />
            </g>
            <g
   id="g2740"
   transform="matrix(6.4,0,0,6.4,36.8716,51.8924)">
                <path
   inkscape:connector-curvature="0"
   id="path2738"
   style="fill-rule:nonzero"
   d="M 0.073,-0.715 H 0.2 v 0.485 c 0,0.038 0.012,0.069 0.035,0.093 0.024,0.024 0.056,0.036 0.097,0.036 0.046,0 0.082,-0.011 0.107,-0.035 0.026,-0.024 0.039,-0.056 0.039,-0.097 v -0.482 h 0.126 v 0.492 C 0.604,-0.15 0.58,-0.092 0.531,-0.05 0.481,-0.009 0.415,0.012 0.333,0.012 0.25,0.012 0.186,-0.008 0.141,-0.049 0.096,-0.09 0.073,-0.148 0.073,-0.224 Z" />
            </g>
            <g
   id="g2744"
   transform="matrix(6.4,0,0,6.4,41.3371,51.8924)">
                <path
   inkscape:connector-curvature="0"
   id="path2742"
   style="fill-rule:nonzero"
   d="M 0.477,0 0.286,-0.295 C 0.266,-0.296 0.24,-0.297 0.205,-0.299 V 0 H 0.073 v -0.715 c 0.007,0 0.035,-0.002 0.083,-0.004 0.048,-0.002 0.086,-0.004 0.115,-0.004 0.182,0 0.273,0.071 0.273,0.211 0,0.043 -0.013,0.081 -0.038,0.116 -0.025,0.035 -0.056,0.059 -0.094,0.074 L 0.623,0 Z M 0.205,-0.605 v 0.199 c 0.024,0.002 0.041,0.003 0.054,0.003 0.053,0 0.092,-0.008 0.116,-0.023 0.025,-0.015 0.037,-0.044 0.037,-0.087 0,-0.035 -0.013,-0.06 -0.039,-0.074 -0.027,-0.014 -0.068,-0.021 -0.125,-0.021 -0.014,0 -0.028,0.001 -0.043,0.003 z" />
            </g>
            <g
   id="g2748"
   transform="matrix(6.4,0,0,6.4,45.3745,51.8924)">
                <path
   inkscape:connector-curvature="0"
   id="path2746"
   style="fill-rule:nonzero"
   d="M 0.542,0.01 0.195,-0.443 V 0 H 0.073 v -0.715 h 0.061 l 0.338,0.431 V -0.715 H 0.594 V 0.01 Z" />
            </g>
        </g><g
   id="g2768"
   transform="matrix(0.99999696,0,0,0.99999979,41.786698,260.36559)">
            <g
   id="g2754"
   transform="matrix(6.4,0,0,6.4,32.828,51.8924)">
                <path
   inkscape:connector-curvature="0"
   id="path2752"
   style="fill-rule:nonzero"
   d="M 0.364,-0.603 V 0 H 0.237 V -0.603 H 0.01 v -0.112 h 0.592 v 0.112 z" />
            </g>
            <g
   id="g2758"
   transform="matrix(6.4,0,0,6.4,36.8716,51.8924)">
                <path
   inkscape:connector-curvature="0"
   id="path2756"
   style="fill-rule:nonzero"
   d="M 0.073,-0.715 H 0.2 v 0.485 c 0,0.038 0.012,0.069 0.035,0.093 0.024,0.024 0.056,0.036 0.097,0.036 0.046,0 0.082,-0.011 0.107,-0.035 0.026,-0.024 0.039,-0.056 0.039,-0.097 v -0.482 h 0.126 v 0.492 C 0.604,-0.15 0.58,-0.092 0.531,-0.05 0.481,-0.009 0.415,0.012 0.333,0.012 0.25,0.012 0.186,-0.008 0.141,-0.049 0.096,-0.09 0.073,-0.148 0.073,-0.224 Z" />
            </g>
            <g
   id="g2762"
   transform="matrix(6.4,0,0,6.4,41.3371,51.8924)">
                <path
   inkscape:connector-curvature="0"
   id="path2760"
   style="fill-rule:nonzero"
   d="M 0.477,0 0.286,-0.295 C 0.266,-0.296 0.24,-0.297 0.205,-0.299 V 0 H 0.073 v -0.715 c 0.007,0 0.035,-0.002 0.083,-0.004 0.048,-0.002 0.086,-0.004 0.115,-0.004 0.182,0 0.273,0.071 0.273,0.211 0,0.043 -0.013,0.081 -0.038,0.116 -0.025,0.035 -0.056,0.059 -0.094,0.074 L 0.623,0 Z M 0.205,-0.605 v 0.199 c 0.024,0.002 0.041,0.003 0.054,0.003 0.053,0 0.092,-0.008 0.116,-0.023 0.025,-0.015 0.037,-0.044 0.037,-0.087 0,-0.035 -0.013,-0.06 -0.039,-0.074 -0.027,-0.014 -0.068,-0.021 -0.125,-0.021 -0.014,0 -0.028,0.001 -0.043,0.003 z" />
            </g>
            <g
   id="g2766"
   transform="matrix(6.4,0,0,6.4,45.3745,51.8924)">
                <path
   inkscape:connector-curvature="0"
   id="path2764"
   style="fill-rule:nonzero"
   d="M 0.542,0.01 0.195,-0.443 V 0 H 0.073 v -0.715 h 0.061 l 0.338,0.431 V -0.715 H 0.594 V 0.01 Z" />
            </g>
        </g><g
   id="g2786"
   transform="matrix(0.99999696,0,0,0.99999979,237.05322,260.36559)">
            <g
   id="g2772"
   transform="matrix(6.4,0,0,6.4,34.0936,51.8924)">
                <path
   inkscape:connector-curvature="0"
   id="path2770"
   style="fill:#ffffff;fill-opacity:0.9;fill-rule:nonzero"
   d="M 0.364,-0.603 V 0 H 0.237 V -0.603 H 0.01 v -0.112 h 0.592 v 0.112 z" />
            </g>
            <g
   id="g2776"
   transform="matrix(6.4,0,0,6.4,38.1372,51.8924)">
                <path
   inkscape:connector-curvature="0"
   id="path2774"
   style="fill:#ffffff;fill-opacity:0.9;fill-rule:nonzero"
   d="M 0.477,0 0.286,-0.295 C 0.266,-0.296 0.24,-0.297 0.205,-0.299 V 0 H 0.073 v -0.715 c 0.007,0 0.035,-0.002 0.083,-0.004 0.048,-0.002 0.086,-0.004 0.115,-0.004 0.182,0 0.273,0.071 0.273,0.211 0,0.043 -0.013,0.081 -0.038,0.116 -0.025,0.035 -0.056,0.059 -0.094,0.074 L 0.623,0 Z M 0.205,-0.605 v 0.199 c 0.024,0.002 0.041,0.003 0.054,0.003 0.053,0 0.092,-0.008 0.116,-0.023 0.025,-0.015 0.037,-0.044 0.037,-0.087 0,-0.035 -0.013,-0.06 -0.039,-0.074 -0.027,-0.014 -0.068,-0.021 -0.125,-0.021 -0.014,0 -0.028,0.001 -0.043,0.003 z" />
            </g>
            <g
   id="g2780"
   transform="matrix(6.4,0,0,6.4,42.1746,51.8924)">
                <rect
   id="rect2778"
   style="fill:#ffffff;fill-opacity:0.9;fill-rule:nonzero"
   height="0.71499997"
   width="0.127"
   y="-0.71499997"
   x="0.075999998" />
            </g>
            <g
   id="g2784"
   transform="matrix(6.4,0,0,6.4,44.0839,51.8924)">
                <path
   inkscape:connector-curvature="0"
   id="path2782"
   style="fill:#ffffff;fill-opacity:0.9;fill-rule:nonzero"
   d="M 0.602,-0.657 0.548,-0.555 C 0.533,-0.569 0.51,-0.582 0.479,-0.595 0.448,-0.608 0.421,-0.615 0.398,-0.615 c -0.07,0 -0.125,0.024 -0.166,0.072 -0.041,0.047 -0.061,0.111 -0.061,0.191 0,0.077 0.02,0.137 0.06,0.183 0.04,0.046 0.094,0.068 0.163,0.068 0.045,0 0.082,-0.012 0.111,-0.037 v -0.14 H 0.406 v -0.109 h 0.226 v 0.321 C 0.602,-0.042 0.563,-0.022 0.515,-0.009 0.468,0.005 0.42,0.012 0.373,0.012 c -0.102,0 -0.184,-0.033 -0.244,-0.101 -0.06,-0.067 -0.09,-0.156 -0.09,-0.266 0,-0.11 0.033,-0.2 0.098,-0.269 0.066,-0.069 0.154,-0.104 0.264,-0.104 0.079,0 0.146,0.024 0.201,0.071 z" />
            </g>
        </g><g
   id="g2804"
   transform="matrix(0.99999696,0,0,0.99999979,10.711667,260.36559)">
            <g
   id="g2790"
   transform="matrix(6.4,0,0,6.4,34.0936,51.8924)">
                <path
   inkscape:connector-curvature="0"
   id="path2788"
   style="fill:#ffffff;fill-opacity:0.9;fill-rule:nonzero"
   d="M 0.364,-0.603 V 0 H 0.237 V -0.603 H 0.01 v -0.112 h 0.592 v 0.112 z" />
            </g>
            <g
   id="g2794"
   transform="matrix(6.4,0,0,6.4,38.1372,51.8924)">
                <path
   inkscape:connector-curvature="0"
   id="path2792"
   style="fill:#ffffff;fill-opacity:0.9;fill-rule:nonzero"
   d="M 0.477,0 0.286,-0.295 C 0.266,-0.296 0.24,-0.297 0.205,-0.299 V 0 H 0.073 v -0.715 c 0.007,0 0.035,-0.002 0.083,-0.004 0.048,-0.002 0.086,-0.004 0.115,-0.004 0.182,0 0.273,0.071 0.273,0.211 0,0.043 -0.013,0.081 -0.038,0.116 -0.025,0.035 -0.056,0.059 -0.094,0.074 L 0.623,0 Z M 0.205,-0.605 v 0.199 c 0.024,0.002 0.041,0.003 0.054,0.003 0.053,0 0.092,-0.008 0.116,-0.023 0.025,-0.015 0.037,-0.044 0.037,-0.087 0,-0.035 -0.013,-0.06 -0.039,-0.074 -0.027,-0.014 -0.068,-0.021 -0.125,-0.021 -0.014,0 -0.028,0.001 -0.043,0.003 z" />
            </g>
            <g
   id="g2798"
   transform="matrix(6.4,0,0,6.4,42.1746,51.8924)">
                <rect
   id="rect2796"
   style="fill:#ffffff;fill-opacity:0.9;fill-rule:nonzero"
   height="0.71499997"
   width="0.127"
   y="-0.71499997"
   x="0.075999998" />
            </g>
            <g
   id="g2802"
   transform="matrix(6.4,0,0,6.4,44.0839,51.8924)">
                <path
   inkscape:connector-curvature="0"
   id="path2800"
   style="fill:#ffffff;fill-opacity:0.9;fill-rule:nonzero"
   d="M 0.602,-0.657 0.548,-0.555 C 0.533,-0.569 0.51,-0.582 0.479,-0.595 0.448,-0.608 0.421,-0.615 0.398,-0.615 c -0.07,0 -0.125,0.024 -0.166,0.072 -0.041,0.047 -0.061,0.111 -0.061,0.191 0,0.077 0.02,0.137 0.06,0.183 0.04,0.046 0.094,0.068 0.163,0.068 0.045,0 0.082,-0.012 0.111,-0.037 v -0.14 H 0.406 v -0.109 h 0.226 v 0.321 C 0.602,-0.042 0.563,-0.022 0.515,-0.009 0.468,0.005 0.42,0.012 0.373,0.012 c -0.102,0 -0.184,-0.033 -0.244,-0.101 -0.06,-0.067 -0.09,-0.156 -0.09,-0.266 0,-0.11 0.033,-0.2 0.098,-0.269 0.066,-0.069 0.154,-0.104 0.264,-0.104 0.079,0 0.146,0.024 0.201,0.071 z" />
            </g>
        </g><g
   id="g2814"
   transform="matrix(0.99999696,0,0,0.99999979,264.89119,260.36559)">
            <g
   id="g2808"
   transform="matrix(6.4,0,0,6.4,37.2263,51.8924)">
                <path
   inkscape:connector-curvature="0"
   id="path2806"
   style="fill:#ffffff;fill-opacity:0.9;fill-rule:nonzero"
   d="M 0.563,-0.677 0.511,-0.572 C 0.483,-0.601 0.437,-0.615 0.375,-0.615 c -0.06,0 -0.109,0.025 -0.147,0.075 -0.038,0.05 -0.057,0.113 -0.057,0.19 0,0.076 0.018,0.137 0.053,0.182 0.035,0.045 0.082,0.067 0.141,0.067 0.068,0 0.12,-0.024 0.158,-0.072 l 0.06,0.103 c -0.052,0.055 -0.128,0.082 -0.228,0.082 -0.1,0 -0.178,-0.033 -0.233,-0.098 -0.055,-0.066 -0.083,-0.156 -0.083,-0.269 0,-0.106 0.031,-0.195 0.092,-0.266 0.061,-0.071 0.14,-0.107 0.236,-0.107 0.082,0 0.147,0.017 0.196,0.051 z" />
            </g>
            <g
   id="g2812"
   transform="matrix(6.4,0,0,6.4,41.2699,51.8924)">
                <path
   inkscape:connector-curvature="0"
   id="path2810"
   style="fill:#ffffff;fill-opacity:0.9;fill-rule:nonzero"
   d="M 0.34,0.01 H 0.27 L 0.002,-0.715 h 0.14 l 0.166,0.483 0.174,-0.483 h 0.137 z" />
            </g>
        </g><g
   id="g2824"
   transform="matrix(0.99999696,0,0,0.99999979,-17.544507,260.36559)">
            <g
   id="g2818"
   transform="matrix(6.4,0,0,6.4,37.2263,51.8924)">
                <path
   inkscape:connector-curvature="0"
   id="path2816"
   style="fill:#ffffff;fill-opacity:0.9;fill-rule:nonzero"
   d="M 0.563,-0.677 0.511,-0.572 C 0.483,-0.601 0.437,-0.615 0.375,-0.615 c -0.06,0 -0.109,0.025 -0.147,0.075 -0.038,0.05 -0.057,0.113 -0.057,0.19 0,0.076 0.018,0.137 0.053,0.182 0.035,0.045 0.082,0.067 0.141,0.067 0.068,0 0.12,-0.024 0.158,-0.072 l 0.06,0.103 c -0.052,0.055 -0.128,0.082 -0.228,0.082 -0.1,0 -0.178,-0.033 -0.233,-0.098 -0.055,-0.066 -0.083,-0.156 -0.083,-0.269 0,-0.106 0.031,-0.195 0.092,-0.266 0.061,-0.071 0.14,-0.107 0.236,-0.107 0.082,0 0.147,0.017 0.196,0.051 z" />
            </g>
            <g
   id="g2822"
   transform="matrix(6.4,0,0,6.4,41.2699,51.8924)">
                <path
   inkscape:connector-curvature="0"
   id="path2820"
   style="fill:#ffffff;fill-opacity:0.9;fill-rule:nonzero"
   d="M 0.34,0.01 H 0.27 L 0.002,-0.715 h 0.14 l 0.166,0.483 0.174,-0.483 h 0.137 z" />
            </g>
        </g><g
   id="g2854"
   transform="matrix(0.99999696,0,0,0.99999979,264.84946,188.61229)">
            <g
   id="g2828"
   transform="matrix(6.4,0,0,6.4,29.111,51.8924)">
                <path
   inkscape:connector-curvature="0"
   id="path2826"
   style="fill-rule:nonzero"
   d="m 0.039,-0.04 0.047,-0.113 c 0.05,0.035 0.099,0.052 0.148,0.052 0.074,0 0.112,-0.026 0.112,-0.078 0,-0.024 -0.009,-0.047 -0.027,-0.07 C 0.302,-0.271 0.266,-0.295 0.211,-0.323 0.156,-0.351 0.119,-0.373 0.1,-0.391 0.081,-0.409 0.066,-0.43 0.056,-0.454 0.046,-0.479 0.041,-0.506 0.041,-0.535 c 0,-0.055 0.02,-0.101 0.06,-0.138 0.041,-0.036 0.093,-0.055 0.156,-0.055 0.083,0 0.144,0.016 0.182,0.047 L 0.401,-0.572 C 0.356,-0.604 0.309,-0.62 0.26,-0.62 c -0.03,0 -0.052,0.008 -0.068,0.024 -0.016,0.015 -0.025,0.035 -0.025,0.06 0,0.041 0.046,0.084 0.137,0.128 0.048,0.023 0.082,0.045 0.103,0.064 0.021,0.02 0.037,0.043 0.049,0.069 0.011,0.027 0.016,0.056 0.016,0.088 0,0.058 -0.023,0.106 -0.068,0.143 C 0.358,-0.007 0.297,0.012 0.22,0.012 0.153,0.012 0.093,-0.005 0.039,-0.04 Z" />
            </g>
            <g
   id="g2832"
   transform="matrix(6.4,0,0,6.4,32.5109,51.8924)">
                <path
   inkscape:connector-curvature="0"
   id="path2830"
   style="fill-rule:nonzero"
   d="M 0.485,0 V -0.322 H 0.2 V 0 H 0.073 V -0.715 H 0.2 v 0.28 h 0.285 v -0.28 H 0.61 V 0 Z" />
            </g>
            <g
   id="g2836"
   transform="matrix(6.4,0,0,6.4,37.0139,51.8924)">
                <rect
   id="rect2834"
   style="fill-rule:nonzero"
   height="0.71499997"
   width="0.127"
   y="-0.71499997"
   x="0.075999998" />
            </g>
            <g
   id="g2840"
   transform="matrix(6.4,0,0,6.4,38.9231,51.8924)">
                <path
   inkscape:connector-curvature="0"
   id="path2838"
   style="fill-rule:nonzero"
   d="m 0.2,-0.603 v 0.168 h 0.252 v 0.108 H 0.2 V 0 H 0.073 v -0.715 h 0.471 v 0.112 z" />
            </g>
            <g
   id="g2844"
   transform="matrix(6.4,0,0,6.4,42.7855,51.8924)">
                <path
   inkscape:connector-curvature="0"
   id="path2842"
   style="fill-rule:nonzero"
   d="M 0.364,-0.603 V 0 H 0.237 V -0.603 H 0.01 v -0.112 h 0.592 v 0.112 z" />
            </g>
            <g
   id="g2848"
   transform="matrix(6.4,0,0,6.4,46.8291,51.8924)">
                <path
   inkscape:connector-curvature="0"
   id="path2846"
   style="fill-rule:nonzero"
   d="m 0.118,0 h -0.11 l 0.27,-0.718 h 0.109 z" />
            </g>
            <g
   id="g2852"
   transform="matrix(6.4,0,0,6.4,49.454,51.8924)">
                <path
   inkscape:connector-curvature="0"
   id="path2850"
   style="fill-rule:nonzero"
   d="M 0.477,0 0.286,-0.295 C 0.266,-0.296 0.24,-0.297 0.205,-0.299 V 0 H 0.073 v -0.715 c 0.007,0 0.035,-0.002 0.083,-0.004 0.048,-0.002 0.086,-0.004 0.115,-0.004 0.182,0 0.273,0.071 0.273,0.211 0,0.043 -0.013,0.081 -0.038,0.116 -0.025,0.035 -0.056,0.059 -0.094,0.074 L 0.623,0 Z M 0.205,-0.605 v 0.199 c 0.024,0.002 0.041,0.003 0.054,0.003 0.053,0 0.092,-0.008 0.116,-0.023 0.025,-0.015 0.037,-0.044 0.037,-0.087 0,-0.035 -0.013,-0.06 -0.039,-0.074 -0.027,-0.014 -0.068,-0.021 -0.125,-0.021 -0.014,0 -0.028,0.001 -0.043,0.003 z" />
            </g>
        </g><g
   id="g2876"
   transform="matrix(0.99999696,0,0,0.99999979,142.00342,260.36559)">
            <g
   id="g2858"
   transform="matrix(6.4,0,0,6.4,31.7921,51.8924)">
                <path
   inkscape:connector-curvature="0"
   id="path2856"
   style="fill-rule:nonzero"
   d="M 0.477,0 0.286,-0.295 C 0.266,-0.296 0.24,-0.297 0.205,-0.299 V 0 H 0.073 v -0.715 c 0.007,0 0.035,-0.002 0.083,-0.004 0.048,-0.002 0.086,-0.004 0.115,-0.004 0.182,0 0.273,0.071 0.273,0.211 0,0.043 -0.013,0.081 -0.038,0.116 -0.025,0.035 -0.056,0.059 -0.094,0.074 L 0.623,0 Z M 0.205,-0.605 v 0.199 c 0.024,0.002 0.041,0.003 0.054,0.003 0.053,0 0.092,-0.008 0.116,-0.023 0.025,-0.015 0.037,-0.044 0.037,-0.087 0,-0.035 -0.013,-0.06 -0.039,-0.074 -0.027,-0.014 -0.068,-0.021 -0.125,-0.021 -0.014,0 -0.028,0.001 -0.043,0.003 z" />
            </g>
            <g
   id="g2862"
   transform="matrix(6.4,0,0,6.4,35.8295,51.8924)">
                <path
   inkscape:connector-curvature="0"
   id="path2860"
   style="fill-rule:nonzero"
   d="m 0.2,-0.603 v 0.168 h 0.237 v 0.108 H 0.2 v 0.214 H 0.524 V 0 H 0.073 V -0.715 H 0.53 v 0.112 z" />
            </g>
            <g
   id="g2866"
   transform="matrix(6.4,0,0,6.4,39.5981,51.8924)">
                <path
   inkscape:connector-curvature="0"
   id="path2864"
   style="fill-rule:nonzero"
   d="m 0.039,-0.04 0.047,-0.113 c 0.05,0.035 0.099,0.052 0.148,0.052 0.074,0 0.112,-0.026 0.112,-0.078 0,-0.024 -0.009,-0.047 -0.027,-0.07 C 0.302,-0.271 0.266,-0.295 0.211,-0.323 0.156,-0.351 0.119,-0.373 0.1,-0.391 0.081,-0.409 0.066,-0.43 0.056,-0.454 0.046,-0.479 0.041,-0.506 0.041,-0.535 c 0,-0.055 0.02,-0.101 0.06,-0.138 0.041,-0.036 0.093,-0.055 0.156,-0.055 0.083,0 0.144,0.016 0.182,0.047 L 0.401,-0.572 C 0.356,-0.604 0.309,-0.62 0.26,-0.62 c -0.03,0 -0.052,0.008 -0.068,0.024 -0.016,0.015 -0.025,0.035 -0.025,0.06 0,0.041 0.046,0.084 0.137,0.128 0.048,0.023 0.082,0.045 0.103,0.064 0.021,0.02 0.037,0.043 0.049,0.069 0.011,0.027 0.016,0.056 0.016,0.088 0,0.058 -0.023,0.106 -0.068,0.143 C 0.358,-0.007 0.297,0.012 0.22,0.012 0.153,0.012 0.093,-0.005 0.039,-0.04 Z" />
            </g>
            <g
   id="g2870"
   transform="matrix(6.4,0,0,6.4,42.998,51.8924)">
                <path
   inkscape:connector-curvature="0"
   id="path2868"
   style="fill-rule:nonzero"
   d="m 0.2,-0.603 v 0.168 h 0.237 v 0.108 H 0.2 v 0.214 H 0.524 V 0 H 0.073 V -0.715 H 0.53 v 0.112 z" />
            </g>
            <g
   id="g2874"
   transform="matrix(6.4,0,0,6.4,46.7666,51.8924)">
                <path
   inkscape:connector-curvature="0"
   id="path2872"
   style="fill-rule:nonzero"
   d="M 0.364,-0.603 V 0 H 0.237 V -0.603 H 0.01 v -0.112 h 0.592 v 0.112 z" />
            </g>
        </g><g
   id="g2898"
   transform="matrix(0.99999696,0,0,0.99999979,105.14711,260.36559)">
            <g
   id="g2880"
   transform="matrix(6.4,0,0,6.4,31.7921,51.8924)">
                <path
   inkscape:connector-curvature="0"
   id="path2878"
   style="fill-rule:nonzero"
   d="M 0.477,0 0.286,-0.295 C 0.266,-0.296 0.24,-0.297 0.205,-0.299 V 0 H 0.073 v -0.715 c 0.007,0 0.035,-0.002 0.083,-0.004 0.048,-0.002 0.086,-0.004 0.115,-0.004 0.182,0 0.273,0.071 0.273,0.211 0,0.043 -0.013,0.081 -0.038,0.116 -0.025,0.035 -0.056,0.059 -0.094,0.074 L 0.623,0 Z M 0.205,-0.605 v 0.199 c 0.024,0.002 0.041,0.003 0.054,0.003 0.053,0 0.092,-0.008 0.116,-0.023 0.025,-0.015 0.037,-0.044 0.037,-0.087 0,-0.035 -0.013,-0.06 -0.039,-0.074 -0.027,-0.014 -0.068,-0.021 -0.125,-0.021 -0.014,0 -0.028,0.001 -0.043,0.003 z" />
            </g>
            <g
   id="g2884"
   transform="matrix(6.4,0,0,6.4,35.8295,51.8924)">
                <path
   inkscape:connector-curvature="0"
   id="path2882"
   style="fill-rule:nonzero"
   d="m 0.2,-0.603 v 0.168 h 0.237 v 0.108 H 0.2 v 0.214 H 0.524 V 0 H 0.073 V -0.715 H 0.53 v 0.112 z" />
            </g>
            <g
   id="g2888"
   transform="matrix(6.4,0,0,6.4,39.5981,51.8924)">
                <path
   inkscape:connector-curvature="0"
   id="path2886"
   style="fill-rule:nonzero"
   d="m 0.039,-0.04 0.047,-0.113 c 0.05,0.035 0.099,0.052 0.148,0.052 0.074,0 0.112,-0.026 0.112,-0.078 0,-0.024 -0.009,-0.047 -0.027,-0.07 C 0.302,-0.271 0.266,-0.295 0.211,-0.323 0.156,-0.351 0.119,-0.373 0.1,-0.391 0.081,-0.409 0.066,-0.43 0.056,-0.454 0.046,-0.479 0.041,-0.506 0.041,-0.535 c 0,-0.055 0.02,-0.101 0.06,-0.138 0.041,-0.036 0.093,-0.055 0.156,-0.055 0.083,0 0.144,0.016 0.182,0.047 L 0.401,-0.572 C 0.356,-0.604 0.309,-0.62 0.26,-0.62 c -0.03,0 -0.052,0.008 -0.068,0.024 -0.016,0.015 -0.025,0.035 -0.025,0.06 0,0.041 0.046,0.084 0.137,0.128 0.048,0.023 0.082,0.045 0.103,0.064 0.021,0.02 0.037,0.043 0.049,0.069 0.011,0.027 0.016,0.056 0.016,0.088 0,0.058 -0.023,0.106 -0.068,0.143 C 0.358,-0.007 0.297,0.012 0.22,0.012 0.153,0.012 0.093,-0.005 0.039,-0.04 Z" />
            </g>
            <g
   id="g2892"
   transform="matrix(6.4,0,0,6.4,42.998,51.8924)">
                <path
   inkscape:connector-curvature="0"
   id="path2890"
   style="fill-rule:nonzero"
   d="m 0.2,-0.603 v 0.168 h 0.237 v 0.108 H 0.2 v 0.214 H 0.524 V 0 H 0.073 V -0.715 H 0.53 v 0.112 z" />
            </g>
            <g
   id="g2896"
   transform="matrix(6.4,0,0,6.4,46.7666,51.8924)">
                <path
   inkscape:connector-curvature="0"
   id="path2894"
   style="fill-rule:nonzero"
   d="M 0.364,-0.603 V 0 H 0.237 V -0.603 H 0.01 v -0.112 h 0.592 v 0.112 z" />
            </g>
        </g><g
   id="g2902"
   transform="matrix(0,-1.3981085,0.47125232,0,152.51257,361.71345)">
            <path
   inkscape:connector-curvature="0"
   id="path2900"
   style="fill:#ffffff;fill-opacity:0.4"
   d="m 25.865,67.757 c 0,-1.171 -0.321,-2.122 -0.716,-2.122 h -1.43 c -0.395,0 -0.715,0.951 -0.715,2.122 v 256.498 c 0,1.171 0.32,2.122 0.715,2.122 h 1.43 c 0.395,0 0.716,-0.951 0.716,-2.122 z" />
        </g><g
   id="g2906"
   transform="matrix(0,-1.3981085,0.47098271,0,152.52927,326.5474)">
            <path
   inkscape:connector-curvature="0"
   id="path2904"
   style="fill:#ffffff;fill-opacity:0.4"
   d="m 25.865,67.758 c 0,-1.171 -0.321,-2.123 -0.716,-2.123 h -1.43 c -0.395,0 -0.715,0.952 -0.715,2.123 v 256.496 c 0,1.172 0.32,2.123 0.715,2.123 h 1.43 c 0.395,0 0.716,-0.951 0.716,-2.123 z" />
        </g><g
   id="g2910"
   transform="matrix(0,-1.3981085,0.47298687,0,-7.2974601,361.71345)">
            <path
   inkscape:connector-curvature="0"
   id="path2908"
   style="fill:#ffffff;fill-opacity:0.4"
   d="m 25.865,67.749 c 0,-1.166 -0.321,-2.114 -0.716,-2.114 h -1.43 c -0.395,0 -0.715,0.948 -0.715,2.114 v 256.514 c 0,1.167 0.32,2.114 0.715,2.114 h 1.43 c 0.395,0 0.716,-0.947 0.716,-2.114 z" />
        </g><g
   id="g2914"
   transform="matrix(0,-1.3981085,0.47298687,0,-7.5236698,326.5474)">
            <path
   inkscape:connector-curvature="0"
   id="path2912"
   style="fill:#ffffff;fill-opacity:0.4"
   d="m 25.865,67.749 c 0,-1.166 -0.321,-2.114 -0.716,-2.114 h -1.43 c -0.395,0 -0.715,0.948 -0.715,2.114 v 256.514 c 0,1.167 0.32,2.114 0.715,2.114 h 1.43 c 0.395,0 0.716,-0.947 0.716,-2.114 z" />
        </g><g
   id="g2918"
   transform="matrix(1.4019657,0,0,2.3230868,199.29874,-203.29907)">
            <ellipse
   id="ellipse2916"
   style="fill:#00d8e3;stroke:#ffffff;stroke-width:0.31px;stroke-linecap:butt;stroke-opacity:0.1"
   ry="1.291"
   rx="2.1400001"
   cy="213.37399"
   cx="21.24" />
        </g><g
   id="g2922"
   transform="matrix(1.4019657,0,0,2.3230868,199.29874,-168.13354)">
            <ellipse
   id="ellipse2920"
   style="fill:#420df2;stroke:#ffffff;stroke-width:0.31px;stroke-linecap:butt;stroke-opacity:0.1"
   ry="1.291"
   rx="2.1400001"
   cy="213.37399"
   cx="21.24" />
        </g><g
   id="g2926"
   transform="matrix(1.4019657,0,0,2.3230868,71.202301,-203.29907)">
            <ellipse
   id="ellipse2924"
   style="fill:#e5f20d;stroke:#ffffff;stroke-width:0.31px;stroke-linecap:butt;stroke-opacity:0.1"
   ry="1.291"
   rx="2.1400001"
   cy="213.37399"
   cx="21.24" />
        </g><g
   id="g2930"
   transform="matrix(1.4019657,0,0,2.3230868,71.202301,-168.13354)">
            <ellipse
   id="ellipse2928"
   style="fill:#f20d0d;stroke:#ffffff;stroke-width:0.31px;stroke-linecap:butt;stroke-opacity:0.1"
   ry="1.291"
   rx="2.1400001"
   cy="213.37399"
   cx="21.24" />
        </g><g
   id="g2934"
   transform="matrix(0.44380833,0,0,1.4640934,6.4470723,148.67227)">
            <path
   inkscape:connector-curvature="0"
   id="path2932"
   style="fill:#ffffff;fill-opacity:0.5"
   d="m 73.138,59.656 c 0,-1.508 -4.039,-2.732 -9.013,-2.732 H 14.12 c -4.975,0 -9.013,1.224 -9.013,2.732 v 21.316 c 0,1.508 4.038,2.732 9.013,2.732 h 50.005 c 4.974,0 9.013,-1.224 9.013,-2.732 z" />
        </g><g
   id="g2964"
   transform="matrix(0.99999696,0,0,0.99999979,-17.458531,188.61229)">
            <g
   id="g2938"
   transform="matrix(6.4,0,0,6.4,29.2969,51.8924)">
                <path
   inkscape:connector-curvature="0"
   id="path2936"
   style="fill-rule:nonzero"
   d="m 0.039,-0.04 0.047,-0.113 c 0.05,0.035 0.099,0.052 0.148,0.052 0.074,0 0.112,-0.026 0.112,-0.078 0,-0.024 -0.009,-0.047 -0.027,-0.07 C 0.302,-0.271 0.266,-0.295 0.211,-0.323 0.156,-0.351 0.119,-0.373 0.1,-0.391 0.081,-0.409 0.066,-0.43 0.056,-0.454 0.046,-0.479 0.041,-0.506 0.041,-0.535 c 0,-0.055 0.02,-0.101 0.06,-0.138 0.041,-0.036 0.093,-0.055 0.156,-0.055 0.083,0 0.144,0.016 0.182,0.047 L 0.401,-0.572 C 0.356,-0.604 0.309,-0.62 0.26,-0.62 c -0.03,0 -0.052,0.008 -0.068,0.024 -0.016,0.015 -0.025,0.035 -0.025,0.06 0,0.041 0.046,0.084 0.137,0.128 0.048,0.023 0.082,0.045 0.103,0.064 0.021,0.02 0.037,0.043 0.049,0.069 0.011,0.027 0.016,0.056 0.016,0.088 0,0.058 -0.023,0.106 -0.068,0.143 C 0.358,-0.007 0.297,0.012 0.22,0.012 0.153,0.012 0.093,-0.005 0.039,-0.04 Z" />
            </g>
            <g
   id="g2942"
   transform="matrix(6.4,0,0,6.4,32.6968,51.8924)">
                <path
   inkscape:connector-curvature="0"
   id="path2940"
   style="fill-rule:nonzero"
   d="M 0.485,0 V -0.322 H 0.2 V 0 H 0.073 V -0.715 H 0.2 v 0.28 h 0.285 v -0.28 H 0.61 V 0 Z" />
            </g>
            <g
   id="g2946"
   transform="matrix(6.4,0,0,6.4,37.1998,51.8924)">
                <rect
   id="rect2944"
   style="fill-rule:nonzero"
   height="0.71499997"
   width="0.127"
   y="-0.71499997"
   x="0.075999998" />
            </g>
            <g
   id="g2950"
   transform="matrix(6.4,0,0,6.4,39.1091,51.8924)">
                <path
   inkscape:connector-curvature="0"
   id="path2948"
   style="fill-rule:nonzero"
   d="m 0.2,-0.603 v 0.168 h 0.252 v 0.108 H 0.2 V 0 H 0.073 v -0.715 h 0.471 v 0.112 z" />
            </g>
            <g
   id="g2954"
   transform="matrix(6.4,0,0,6.4,42.9714,51.8924)">
                <path
   inkscape:connector-curvature="0"
   id="path2952"
   style="fill-rule:nonzero"
   d="M 0.364,-0.603 V 0 H 0.237 V -0.603 H 0.01 v -0.112 h 0.592 v 0.112 z" />
            </g>
            <g
   id="g2958"
   transform="matrix(6.4,0,0,6.4,47.0151,51.8924)">
                <path
   inkscape:connector-curvature="0"
   id="path2956"
   style="fill-rule:nonzero"
   d="m 0.118,0 h -0.11 l 0.27,-0.718 h 0.109 z" />
            </g>
            <g
   id="g2962"
   transform="matrix(6.4,0,0,6.4,49.6399,51.8924)">
                <path
   inkscape:connector-curvature="0"
   id="path2960"
   style="fill-rule:nonzero"
   d="M 0.073,0 V -0.715 H 0.2 v 0.602 H 0.523 V 0 Z" />
            </g>
        </g><g
   transform="matrix(1.0141371,0,0,1.0105699,0.15076426,43.38859)"
   id="g3012">
                
            </g><g
   transform="matrix(1.0141371,0,0,1.0105699,22.597274,80.748058)"
   id="g3048">
                
            </g><g
   transform="matrix(1.0141371,0,0,1.0105699,22.597274,88.219743)"
   id="g3052">
                
            </g><g
   transform="matrix(1.0141371,0,0,1.0105699,15.125677,95.691428)"
   id="g3056">
                
            </g><g
   transform="matrix(1.0141371,0,0,1.0105699,22.597274,103.16311)"
   id="g3072">
                
            </g><g
   transform="matrix(1.0141371,0,0,1.0105699,22.597274,118.10648)"
   id="g3088">
                
            </g><g
   transform="matrix(1.0141371,0,0,1.0105699,22.597274,125.57921)"
   id="g3092">
                
            </g><g
   transform="matrix(-1.0141371,0,0,-1.0105699,307.46202,207.60896)"
   id="g3206">
                
            </g><g
   transform="matrix(-1.0141371,0,0,-1.0105699,322.43693,200.13717)"
   id="g3210">
                
            </g><g
   transform="matrix(-1.0141371,0,0,-1.0105699,307.46202,200.13717)"
   id="g3214">
                
            </g><g
   transform="matrix(-1.0141371,0,0,-1.0105699,329.90769,192.66528)"
   id="g3218">
                
            </g><g
   transform="matrix(-1.0141371,0,0,-1.0105699,329.90769,185.19339)"
   id="g3222">
                
            </g><g
   transform="matrix(-1.0141371,0,0,-1.0105699,307.46202,185.19339)"
   id="g3226">
                
            </g><g
   transform="matrix(-1.0141371,0,0,-1.0105699,307.46202,177.7216)"
   id="g3230">
                
            </g><g
   transform="matrix(-1.0141371,0,0,-1.0105699,314.93278,170.2497)"
   id="g3234">
                
            </g><g
   transform="matrix(-1.0141371,0,0,-1.0105699,329.90769,162.77791)"
   id="g3238">
                
            </g><g
   transform="matrix(-1.0141371,0,0,-1.0105699,322.43693,177.7216)"
   id="g3242">
                
            </g><g
   transform="matrix(-1.0141371,0,0,-1.0105699,314.93278,162.77791)"
   id="g3246">
                
            </g><g
   transform="matrix(-1.0141371,0,0,-1.0105699,307.46202,162.77791)"
   id="g3250">
                
            </g><g
   transform="matrix(-1.0141371,0,0,-1.0105699,322.40354,155.30602)"
   id="g3254">
                
            </g><g
   transform="matrix(-1.0141371,0,0,-1.0105699,329.90769,147.83423)"
   id="g3262">
                
            </g>
<g
   id="g3929"
   transform="translate(56.238464,126.1431)"><path
     inkscape:original-d="M 243.75928,27.685017 176.23911,144.63308 H 41.198786 L -26.321369,27.685017 c 22.5067222,-38.982685 45.013434,-77.965372 67.520155,-116.948052 45.013445,0 90.026884,0 135.040324,0 z"
     inkscape:path-effect="#path-effect1583"
     sodipodi:nodetypes="ccccccc"
     inkscape:connector-curvature="0"
     id="path2677"
     d="M 242.00928,30.716104 177.98911,141.60199 a 6.0621857,6.0621857 150.00003 0 1 -5.25,3.03109 l -128.040324,0 a 6.062185,6.062185 29.999971 0 1 -5.250003,-3.03109 L -24.571366,30.716104 c -0.9665,-1.674023 -0.9665,-4.388151 0,-6.062174 21.3400531,-36.96196 42.680097,-73.923922 64.020149,-110.885878 0.9665,-1.674023 3.317006,-3.031087 5.250003,-3.031087 H 172.73911 a 6.0621859,6.0621859 29.999967 0 1 5.25,3.031087 L 242.00928,24.65393 a 6.0621619,6.0621619 89.999999 0 1 0,6.062174 z"
     style="clip-rule:evenodd;fill:#000000;fill-opacity:1;fill-rule:evenodd;stroke:none;stroke-width:1;stroke-linecap:round;stroke-linejoin:round;stroke-miterlimit:1.5;filter:url(#filter1585)" /></g><g
   transform="matrix(0.44380833,0,0,1.4640934,6.4474709,-40.281053)"
   id="g4514">
            <path
   d="m 73.138,59.656 c 0,-1.508 -4.039,-2.732 -9.013,-2.732 H 14.12 c -4.975,0 -9.013,1.224 -9.013,2.732 v 21.316 c 0,1.508 4.038,2.732 9.013,2.732 h 50.005 c 4.974,0 9.013,-1.224 9.013,-2.732 z"
   style="fill:#ffffff;fill-opacity:0.5"
   id="path4512"
   inkscape:connector-curvature="0" />
        </g><g
   transform="matrix(0.99999696,0,0,0.99999979,-17.45841,-0.3410327)"
   id="g4544">
            <g
   transform="matrix(6.4,0,0,6.4,29.2969,51.8924)"
   id="g4518">
                <path
   d="m 0.039,-0.04 0.047,-0.113 c 0.05,0.035 0.099,0.052 0.148,0.052 0.074,0 0.112,-0.026 0.112,-0.078 0,-0.024 -0.009,-0.047 -0.027,-0.07 C 0.302,-0.271 0.266,-0.295 0.211,-0.323 0.156,-0.351 0.119,-0.373 0.1,-0.391 0.081,-0.409 0.066,-0.43 0.056,-0.454 0.046,-0.479 0.041,-0.506 0.041,-0.535 c 0,-0.055 0.02,-0.101 0.06,-0.138 0.041,-0.036 0.093,-0.055 0.156,-0.055 0.083,0 0.144,0.016 0.182,0.047 L 0.401,-0.572 C 0.356,-0.604 0.309,-0.62 0.26,-0.62 c -0.03,0 -0.052,0.008 -0.068,0.024 -0.016,0.015 -0.025,0.035 -0.025,0.06 0,0.041 0.046,0.084 0.137,0.128 0.048,0.023 0.082,0.045 0.103,0.064 0.021,0.02 0.037,0.043 0.049,0.069 0.011,0.027 0.016,0.056 0.016,0.088 0,0.058 -0.023,0.106 -0.068,0.143 C 0.358,-0.007 0.297,0.012 0.22,0.012 0.153,0.012 0.093,-0.005 0.039,-0.04 Z"
   style="fill-rule:nonzero"
   id="path4516"
   inkscape:connector-curvature="0" />
            </g>
            <g
   transform="matrix(6.4,0,0,6.4,32.6968,51.8924)"
   id="g4522">
                <path
   d="M 0.485,0 V -0.322 H 0.2 V 0 H 0.073 V -0.715 H 0.2 v 0.28 h 0.285 v -0.28 H 0.61 V 0 Z"
   style="fill-rule:nonzero"
   id="path4520"
   inkscape:connector-curvature="0" />
            </g>
            <g
   transform="matrix(6.4,0,0,6.4,37.1998,51.8924)"
   id="g4526">
                <rect
   x="0.075999998"
   y="-0.71499997"
   width="0.127"
   height="0.71499997"
   style="fill-rule:nonzero"
   id="rect4524" />
            </g>
            <g
   transform="matrix(6.4,0,0,6.4,39.1091,51.8924)"
   id="g4530">
                <path
   d="m 0.2,-0.603 v 0.168 h 0.252 v 0.108 H 0.2 V 0 H 0.073 v -0.715 h 0.471 v 0.112 z"
   style="fill-rule:nonzero"
   id="path4528"
   inkscape:connector-curvature="0" />
            </g>
            <g
   transform="matrix(6.4,0,0,6.4,42.9714,51.8924)"
   id="g4534">
                <path
   d="M 0.364,-0.603 V 0 H 0.237 V -0.603 H 0.01 v -0.112 h 0.592 v 0.112 z"
   style="fill-rule:nonzero"
   id="path4532"
   inkscape:connector-curvature="0" />
            </g>
            <g
   transform="matrix(6.4,0,0,6.4,47.0151,51.8924)"
   id="g4538">
                <path
   d="m 0.118,0 h -0.11 l 0.27,-0.718 h 0.109 z"
   style="fill-rule:nonzero"
   id="path4536"
   inkscape:connector-curvature="0" />
            </g>
            <g
   transform="matrix(6.4,0,0,6.4,49.6399,51.8924)"
   id="g4542">
                <path
   d="M 0.073,0 V -0.715 H 0.2 v 0.602 H 0.523 V 0 Z"
   style="fill-rule:nonzero"
   id="path4540"
   inkscape:connector-curvature="0" />
            </g>
        </g><g
   transform="matrix(0.44380833,0,0,1.4640934,288.88147,-40.282053)"
   id="g4630">
            <path
   d="m 73.138,59.656 c 0,-1.508 -4.039,-2.732 -9.013,-2.732 H 14.12 c -4.975,0 -9.013,1.224 -9.013,2.732 v 21.316 c 0,1.508 4.038,2.732 9.013,2.732 h 50.005 c 4.974,0 9.013,-1.224 9.013,-2.732 z"
   style="fill:#ffffff;fill-opacity:0.5"
   id="path4628"
   inkscape:connector-curvature="0" />
        </g><g
   transform="matrix(0.99999696,0,0,0.99999979,264.84983,-0.3420327)"
   id="g4660">
            <g
   transform="matrix(6.4,0,0,6.4,29.111,51.8924)"
   id="g4634">
                <path
   d="m 0.039,-0.04 0.047,-0.113 c 0.05,0.035 0.099,0.052 0.148,0.052 0.074,0 0.112,-0.026 0.112,-0.078 0,-0.024 -0.009,-0.047 -0.027,-0.07 C 0.302,-0.271 0.266,-0.295 0.211,-0.323 0.156,-0.351 0.119,-0.373 0.1,-0.391 0.081,-0.409 0.066,-0.43 0.056,-0.454 0.046,-0.479 0.041,-0.506 0.041,-0.535 c 0,-0.055 0.02,-0.101 0.06,-0.138 0.041,-0.036 0.093,-0.055 0.156,-0.055 0.083,0 0.144,0.016 0.182,0.047 L 0.401,-0.572 C 0.356,-0.604 0.309,-0.62 0.26,-0.62 c -0.03,0 -0.052,0.008 -0.068,0.024 -0.016,0.015 -0.025,0.035 -0.025,0.06 0,0.041 0.046,0.084 0.137,0.128 0.048,0.023 0.082,0.045 0.103,0.064 0.021,0.02 0.037,0.043 0.049,0.069 0.011,0.027 0.016,0.056 0.016,0.088 0,0.058 -0.023,0.106 -0.068,0.143 C 0.358,-0.007 0.297,0.012 0.22,0.012 0.153,0.012 0.093,-0.005 0.039,-0.04 Z"
   style="fill-rule:nonzero"
   id="path4632"
   inkscape:connector-curvature="0" />
            </g>
            <g
   transform="matrix(6.4,0,0,6.4,32.5109,51.8924)"
   id="g4638">
                <path
   d="M 0.485,0 V -0.322 H 0.2 V 0 H 0.073 V -0.715 H 0.2 v 0.28 h 0.285 v -0.28 H 0.61 V 0 Z"
   style="fill-rule:nonzero"
   id="path4636"
   inkscape:connector-curvature="0" />
            </g>
            <g
   transform="matrix(6.4,0,0,6.4,37.0139,51.8924)"
   id="g4642">
                <rect
   x="0.075999998"
   y="-0.71499997"
   width="0.127"
   height="0.71499997"
   style="fill-rule:nonzero"
   id="rect4640" />
            </g>
            <g
   transform="matrix(6.4,0,0,6.4,38.9231,51.8924)"
   id="g4646">
                <path
   d="m 0.2,-0.603 v 0.168 h 0.252 v 0.108 H 0.2 V 0 H 0.073 v -0.715 h 0.471 v 0.112 z"
   style="fill-rule:nonzero"
   id="path4644"
   inkscape:connector-curvature="0" />
            </g>
            <g
   transform="matrix(6.4,0,0,6.4,42.7855,51.8924)"
   id="g4650">
                <path
   d="M 0.364,-0.603 V 0 H 0.237 V -0.603 H 0.01 v -0.112 h 0.592 v 0.112 z"
   style="fill-rule:nonzero"
   id="path4648"
   inkscape:connector-curvature="0" />
            </g>
            <g
   transform="matrix(6.4,0,0,6.4,46.8291,51.8924)"
   id="g4654">
                <path
   d="m 0.118,0 h -0.11 l 0.27,-0.718 h 0.109 z"
   style="fill-rule:nonzero"
   id="path4652"
   inkscape:connector-curvature="0" />
            </g>
            <g
   transform="matrix(6.4,0,0,6.4,49.454,51.8924)"
   id="g4658">
                <path
   d="M 0.477,0 0.286,-0.295 C 0.266,-0.296 0.24,-0.297 0.205,-0.299 V 0 H 0.073 v -0.715 c 0.007,0 0.035,-0.002 0.083,-0.004 0.048,-0.002 0.086,-0.004 0.115,-0.004 0.182,0 0.273,0.071 0.273,0.211 0,0.043 -0.013,0.081 -0.038,0.116 -0.025,0.035 -0.056,0.059 -0.094,0.074 L 0.623,0 Z M 0.205,-0.605 v 0.199 c 0.024,0.002 0.041,0.003 0.054,0.003 0.053,0 0.092,-0.008 0.116,-0.023 0.025,-0.015 0.037,-0.044 0.037,-0.087 0,-0.035 -0.013,-0.06 -0.039,-0.074 -0.027,-0.014 -0.068,-0.021 -0.125,-0.021 -0.014,0 -0.028,0.001 -0.043,0.003 z"
   style="fill-rule:nonzero"
   id="path4656"
   inkscape:connector-curvature="0" />
            </g>
        </g><path
   transform="matrix(0.96998567,0,0,0.96997582,4.9845099,4.6185596)"
   style="clip-rule:evenodd;fill:#00105a;fill-opacity:1;fill-rule:evenodd;stroke:none;stroke-width:1.03095;stroke-linecap:round;stroke-linejoin:round;stroke-miterlimit:1.5;filter:url(#filter1585-7)"
   d="M 300.00829,153.82812 232.48812,270.77618 H 97.447794 L 29.927639,153.82812 C 52.434361,114.84544 74.941073,75.862753 97.447794,36.880073 c 45.013446,0 90.026886,0 135.040326,0 z"
   id="path1589"
   inkscape:connector-curvature="0"
   sodipodi:nodetypes="ccccccc" /><path
   id="path1099"
   style="fill:none;fill-opacity:1;stroke:#999999;stroke-width:0.500001;stroke-miterlimit:1.5;stroke-dasharray:none;stroke-dashoffset:0;stroke-opacity:1"
   d="m 279.63273,215.76817 h 4.37209 l 2.18605,-3.73537 -2.18605,-3.73537 -4.37209,1e-5 -2.18604,3.73536 z"
   inkscape:connector-curvature="0"
   sodipodi:nodetypes="ccccccc" /><g
   id="g1790"><path
     id="path11446"
     style="fill:none;fill-opacity:1;stroke:#999999;stroke-width:0.500001;stroke-miterlimit:1.5;stroke-dasharray:none;stroke-dashoffset:0;stroke-opacity:1"
     d="M 19.919732,101.35573 H 15.54764 l -2.186044,-3.735363 2.186044,-3.735366 4.372092,10e-7 2.186044,3.735365 z"
     inkscape:connector-curvature="0"
     sodipodi:nodetypes="ccccccc" /><path
     sodipodi:nodetypes="ccccccc"
     inkscape:connector-curvature="0"
     d="m 83.158134,50.781732 h -4.372092 l -2.186045,-3.735365 2.186045,-3.735366 4.372092,1e-6 2.186044,3.735365 z"
     style="fill:none;fill-opacity:1;stroke:#999999;stroke-width:0.500001;stroke-miterlimit:1.5;stroke-dasharray:none;stroke-dashoffset:0;stroke-opacity:1"
     id="path11506" /><path
     id="path11508"
     style="fill:none;fill-opacity:1;stroke:#999999;stroke-width:0.500001;stroke-miterlimit:1.5;stroke-dasharray:none;stroke-dashoffset:0;stroke-opacity:1"
     d="m 26.477868,105.0911 h -4.372092 l -2.186044,-3.73537 2.186044,-3.735363 4.372092,10e-7 2.186044,3.735362 z"
     inkscape:connector-curvature="0"
     sodipodi:nodetypes="ccccccc" /><path
     sodipodi:nodetypes="ccccc"
     inkscape:connector-curvature="0"
     d="m 28.663912,101.35573 -2.186044,-3.735362 2.186044,-3.735366 4.372092,10e-7 2.186044,3.735365"
     style="fill:none;fill-opacity:1;stroke:#999999;stroke-width:0.500001;stroke-miterlimit:1.5;stroke-dasharray:none;stroke-dashoffset:0;stroke-opacity:1"
     id="path11510" /><path
     sodipodi:nodetypes="ccccccc"
     inkscape:connector-curvature="0"
     d="m 15.547641,118.03188 h -4.372092 l -2.1860447,-3.73537 2.1860447,-3.73537 4.372092,1e-5 2.186044,3.73536 z"
     style="fill:none;fill-opacity:1;stroke:#999999;stroke-width:0.500001;stroke-miterlimit:1.5;stroke-dasharray:none;stroke-dashoffset:0;stroke-opacity:1"
     id="path11512" /><path
     id="path11514"
     style="fill:none;fill-opacity:1;stroke:#999999;stroke-width:0.500001;stroke-miterlimit:1.5;stroke-dasharray:none;stroke-dashoffset:0;stroke-opacity:1"
     d="m 19.919733,125.50262 h -4.372092 l -2.186044,-3.73537 2.186044,-3.73537 4.372092,1e-5 2.186044,3.73536 z"
     inkscape:connector-curvature="0"
     sodipodi:nodetypes="ccccccc" /><path
     sodipodi:nodetypes="ccccccc"
     inkscape:connector-curvature="0"
     d="m 15.547641,132.97335 h -4.372092 l -2.1860444,-3.73537 2.1860444,-3.73537 4.372092,10e-6 2.186044,3.73536 z"
     style="fill:none;fill-opacity:1;stroke:#999999;stroke-width:0.500001;stroke-miterlimit:1.5;stroke-dasharray:none;stroke-dashoffset:0;stroke-opacity:1"
     id="path11516" /><path
     id="path11518"
     style="fill:none;fill-opacity:1;stroke:#999999;stroke-width:0.500001;stroke-miterlimit:1.5;stroke-dasharray:none;stroke-dashoffset:0;stroke-opacity:1"
     d="m 8.9895046,136.70871 2.1860444,-3.73537 4.372092,1e-5 2.186044,3.73536 -2.186044,3.73537"
     inkscape:connector-curvature="0"
     sodipodi:nodetypes="ccccc" /><path
     id="path11520"
     style="fill:none;fill-opacity:1;stroke:#999999;stroke-width:0.500001;stroke-miterlimit:1.5;stroke-dasharray:none;stroke-dashoffset:0;stroke-opacity:1"
     d="m 22.105777,144.17945 h -4.372092 l -2.186044,-3.73537 2.186044,-3.73537 4.372092,1e-5 2.186044,3.73536 z"
     inkscape:connector-curvature="0"
     sodipodi:nodetypes="ccccccc" /><path
     sodipodi:nodetypes="ccccccc"
     inkscape:connector-curvature="0"
     d="m 37.994151,118.03188 h -4.372092 l -2.186044,-3.73537 2.186044,-3.73537 4.372092,1e-5 2.186044,3.73536 z"
     style="fill:none;fill-opacity:1;stroke:#999999;stroke-width:0.500001;stroke-miterlimit:1.5;stroke-dasharray:none;stroke-dashoffset:0;stroke-opacity:1"
     id="path11522" /><path
     id="path11524"
     style="fill:none;fill-opacity:1;stroke:#999999;stroke-width:0.500001;stroke-miterlimit:1.5;stroke-dasharray:none;stroke-dashoffset:0;stroke-opacity:1"
     d="m 33.622059,118.03187 4.372092,1e-5 2.186044,3.73536 -2.186044,3.73537 h -4.372092"
     inkscape:connector-curvature="0"
     sodipodi:nodetypes="ccccc" /><path
     id="path11526"
     style="fill:none;fill-opacity:1;stroke:#999999;stroke-width:0.500001;stroke-miterlimit:1.5;stroke-dasharray:none;stroke-dashoffset:0;stroke-opacity:1"
     d="m 15.54764,155.38555 h -4.372092 l -2.1860449,-3.73536 2.1860449,-3.73537 h 4.372092 l 2.186044,3.73537 z"
     inkscape:connector-curvature="0"
     sodipodi:nodetypes="ccccccc" /><path
     sodipodi:nodetypes="ccccc"
     inkscape:connector-curvature="0"
     d="m 22.105777,144.17945 2.186044,3.73537 -2.186044,3.73536 h -4.372093 l -2.186044,-3.73536"
     style="fill:none;fill-opacity:1;stroke:#999999;stroke-width:0.500001;stroke-miterlimit:1.5;stroke-dasharray:none;stroke-dashoffset:0;stroke-opacity:1"
     id="path11528" /><path
     sodipodi:nodetypes="ccccc"
     inkscape:connector-curvature="0"
     d="m 15.54764,155.38555 h 4.372092 l 2.186044,3.73537 -2.186044,3.73536 H 15.54764"
     style="fill:none;fill-opacity:1;stroke:#999999;stroke-width:0.500001;stroke-miterlimit:1.5;stroke-dasharray:none;stroke-dashoffset:0;stroke-opacity:1"
     id="path11530" /><path
     sodipodi:nodetypes="ccccccc"
     inkscape:connector-curvature="0"
     d="m 26.477868,166.59165 h -4.372092 l -2.186044,-3.73536 2.186044,-3.73537 h 4.372092 l 2.186044,3.73537 z"
     style="fill:none;fill-opacity:1;stroke:#999999;stroke-width:0.500001;stroke-miterlimit:1.5;stroke-dasharray:none;stroke-dashoffset:0;stroke-opacity:1"
     id="path11532" /><path
     id="path11534"
     style="fill:none;fill-opacity:1;stroke:#999999;stroke-width:0.500001;stroke-miterlimit:1.5;stroke-dasharray:none;stroke-dashoffset:0;stroke-opacity:1"
     d="M 19.919732,170.32701 H 15.54764 l -2.186044,-3.73536 2.186044,-3.73537 h 4.372092 l 2.186044,3.73537 z"
     inkscape:connector-curvature="0"
     sodipodi:nodetypes="ccccccc" /><path
     sodipodi:nodetypes="ccccc"
     inkscape:connector-curvature="0"
     d="m 15.547133,185.27334 h -4.372092 l -2.1860445,-3.73536 2.1860445,-3.73537 h 4.372092"
     style="fill:none;fill-opacity:1;stroke:#999999;stroke-width:0.500001;stroke-miterlimit:1.5;stroke-dasharray:none;stroke-dashoffset:0;stroke-opacity:1"
     id="path11536" /><path
     sodipodi:nodetypes="ccccccc"
     inkscape:connector-curvature="0"
     d="m 30.522553,185.27334 h -4.372092 l -2.186044,-3.73536 2.186044,-3.73537 h 4.372092 l 2.186044,3.73537 z"
     style="fill:none;fill-opacity:1;stroke:#999999;stroke-width:0.500001;stroke-miterlimit:1.5;stroke-dasharray:none;stroke-dashoffset:0;stroke-opacity:1"
     id="path11538" /><path
     id="path11544"
     style="fill:none;fill-opacity:1;stroke:#999999;stroke-width:0.500001;stroke-miterlimit:1.5;stroke-dasharray:none;stroke-dashoffset:0;stroke-opacity:1"
     d="m 30.522553,185.27334 h -4.372092 l -2.186044,-3.73536 2.186044,-3.73537 h 4.372092 l 2.186044,3.73537 z"
     inkscape:connector-curvature="0"
     sodipodi:nodetypes="ccccccc" /><path
     sodipodi:nodetypes="ccccccc"
     inkscape:connector-curvature="0"
     d="m 37.080689,189.0087 h -4.372092 l -2.186044,-3.73536 2.186044,-3.73537 h 4.372092 l 2.186044,3.73537 z"
     style="fill:none;fill-opacity:1;stroke:#999999;stroke-width:0.500001;stroke-miterlimit:1.5;stroke-dasharray:none;stroke-dashoffset:0;stroke-opacity:1"
     id="path11546" /><path
     id="path11548"
     style="fill:none;fill-opacity:1;stroke:#999999;stroke-width:0.500001;stroke-miterlimit:1.5;stroke-dasharray:none;stroke-dashoffset:0;stroke-opacity:1"
     d="m 32.708597,196.47943 h -4.372092 l -2.186044,-3.73536 2.186044,-3.73537 h 4.372092 l 2.186044,3.73537 z"
     inkscape:connector-curvature="0"
     sodipodi:nodetypes="ccccccc" /><path
     sodipodi:nodetypes="cccc"
     inkscape:connector-curvature="0"
     d="m 19.592325,196.47943 2.186044,-3.73537 h 4.372092 l 2.186044,3.73537"
     style="fill:none;fill-opacity:1;stroke:#999999;stroke-width:0.500001;stroke-miterlimit:1.5;stroke-dasharray:none;stroke-dashoffset:0;stroke-opacity:1"
     id="path11550" /><path
     sodipodi:nodetypes="ccccccc"
     inkscape:connector-curvature="0"
     d="m 17.406281,200.21479 h -4.372092 l -2.186044,-3.73536 2.186044,-3.73537 h 4.372092 l 2.186044,3.73537 z"
     style="fill:none;fill-opacity:1;stroke:#999999;stroke-width:0.500001;stroke-miterlimit:1.5;stroke-dasharray:none;stroke-dashoffset:0;stroke-opacity:1"
     id="path11552" /><path
     sodipodi:nodetypes="cccccc"
     inkscape:connector-curvature="0"
     d="m 32.708597,203.95016 -2.186044,-3.73536 2.186044,-3.73537 h 4.372092 l 2.186044,3.73537 -2.186044,3.73536"
     style="fill:none;fill-opacity:1;stroke:#999999;stroke-width:0.500001;stroke-miterlimit:1.5;stroke-dasharray:none;stroke-dashoffset:0;stroke-opacity:1"
     id="path11554" /><path
     id="path11556"
     style="fill:none;fill-opacity:1;stroke:#999999;stroke-width:0.500001;stroke-miterlimit:1.5;stroke-dasharray:none;stroke-dashoffset:0;stroke-opacity:1"
     d="m 32.708597,203.95016 -2.186044,-3.73536 2.186044,-3.73537 h 4.372092 l 2.186044,3.73537 -2.186044,3.73536"
     inkscape:connector-curvature="0"
     sodipodi:nodetypes="cccccc" /><path
     sodipodi:nodetypes="cccccc"
     inkscape:connector-curvature="0"
     d="m 37.080689,203.95016 2.186044,3.73537 -2.186044,3.73536 h -4.372092 l -2.186044,-3.73536 2.186044,-3.73537"
     style="fill:none;fill-opacity:1;stroke:#999999;stroke-width:0.500001;stroke-miterlimit:1.5;stroke-dasharray:none;stroke-dashoffset:0;stroke-opacity:1"
     id="path11558" /><path
     sodipodi:nodetypes="ccccccc"
     inkscape:connector-curvature="0"
     d="m 30.522553,215.15626 h -4.372092 l -2.186044,-3.73536 2.186044,-3.73537 h 4.372092 l 2.186044,3.73537 z"
     style="fill:none;fill-opacity:1;stroke:#999999;stroke-width:0.500001;stroke-miterlimit:1.5;stroke-dasharray:none;stroke-dashoffset:0;stroke-opacity:1"
     id="path11560" /><path
     id="path11562"
     style="fill:none;fill-opacity:1;stroke:#999999;stroke-width:0.500001;stroke-miterlimit:1.5;stroke-dasharray:none;stroke-dashoffset:0;stroke-opacity:1"
     d="m 26.150461,207.68553 -2.186044,3.73536 h -4.372092 l -2.186044,-3.73536"
     inkscape:connector-curvature="0"
     sodipodi:nodetypes="cccc" /><path
     id="path11564"
     style="fill:none;fill-opacity:1;stroke:#999999;stroke-width:0.500001;stroke-miterlimit:1.5;stroke-dasharray:none;stroke-dashoffset:0;stroke-opacity:1"
     d="m 17.406281,215.15625 h -4.372092 l -2.186043,-3.73536 2.186043,-3.73537 h 4.372092 l 2.186044,3.73537 z"
     inkscape:connector-curvature="0"
     sodipodi:nodetypes="ccccccc" /><path
     sodipodi:nodetypes="ccccc"
     inkscape:connector-curvature="0"
     d="m 15.220238,218.89162 2.186043,-3.73537 h 4.372092 l 2.186044,3.73537 -2.186044,3.73536"
     style="fill:none;fill-opacity:1;stroke:#999999;stroke-width:0.500001;stroke-miterlimit:1.5;stroke-dasharray:none;stroke-dashoffset:0;stroke-opacity:1"
     id="path11566" /><path
     id="path11568"
     style="fill:none;fill-opacity:1;stroke:#999999;stroke-width:0.500001;stroke-miterlimit:1.5;stroke-dasharray:none;stroke-dashoffset:0;stroke-opacity:1"
     d="m 34.894645,222.62699 h -4.372092 l -2.186044,-3.73536 2.186044,-3.73537 h 4.372092 l 2.186044,3.73537 z"
     inkscape:connector-curvature="0"
     sodipodi:nodetypes="ccccccc" /><path
     id="path3194"
     style="fill:none;fill-opacity:1;stroke:#999999;stroke-width:0.500001;stroke-miterlimit:1.5;stroke-dasharray:none;stroke-dashoffset:0;stroke-opacity:1"
     d="m 74.41395,43.311 4.372092,10e-7"
     inkscape:connector-curvature="0"
     sodipodi:nodetypes="cc" /><path
     id="path3196"
     style="fill:none;fill-opacity:1;stroke:#999999;stroke-width:0.500001;stroke-miterlimit:1.5;stroke-dasharray:none;stroke-dashoffset:0;stroke-opacity:1"
     d="m 76.599998,54.517097 h -4.372092 m 4.372092,-7.47073 2.186044,3.735365"
     inkscape:connector-curvature="0"
     sodipodi:nodetypes="cccc" /><path
     sodipodi:nodetypes="ccccccc"
     inkscape:connector-curvature="0"
     d="m 76.599998,61.987827 h -4.372092 l -2.186045,-3.735365 2.186045,-3.735366 4.372092,10e-7 2.186044,3.735365 z"
     style="fill:none;fill-opacity:1;stroke:#999999;stroke-width:0.500001;stroke-miterlimit:1.5;stroke-dasharray:none;stroke-dashoffset:0;stroke-opacity:1"
     id="path3198" /><path
     id="path3200"
     style="fill:none;fill-opacity:1;stroke:#999999;stroke-width:0.500001;stroke-miterlimit:1.5;stroke-dasharray:none;stroke-dashoffset:0;stroke-opacity:1"
     d="m 70.041862,58.252462 2.186044,3.735365 -2.186044,3.735365 H 65.66977"
     inkscape:connector-curvature="0"
     sodipodi:nodetypes="cccc" /><path
     sodipodi:nodetypes="ccccccc"
     inkscape:connector-curvature="0"
     d="M 70.041862,73.193923 H 65.66977 l -2.186045,-3.735365 2.186045,-3.735366 4.372092,10e-7 2.186044,3.735365 z"
     style="fill:none;fill-opacity:1;stroke:#999999;stroke-width:0.500001;stroke-miterlimit:1.5;stroke-dasharray:none;stroke-dashoffset:0;stroke-opacity:1"
     id="path3202" /><path
     id="path3204"
     style="fill:none;fill-opacity:1;stroke:#999999;stroke-width:0.500001;stroke-miterlimit:1.5;stroke-dasharray:none;stroke-dashoffset:0;stroke-opacity:1"
     d="m 63.483726,76.929288 h -4.372092 l -2.186045,-3.735365 2.186045,-3.735366 4.372092,10e-7 2.186044,3.735365"
     inkscape:connector-curvature="0"
     sodipodi:nodetypes="cccccc" /><path
     sodipodi:nodetypes="cccccc"
     inkscape:connector-curvature="0"
     d="m 56.925589,80.664654 2.186045,-3.735366 4.372092,10e-7 2.186044,3.735365 -2.186044,3.735365 h -4.372092"
     style="fill:none;fill-opacity:1;stroke:#999999;stroke-width:0.500001;stroke-miterlimit:1.5;stroke-dasharray:none;stroke-dashoffset:0;stroke-opacity:1"
     id="path3206" /><path
     id="path3208"
     style="fill:none;fill-opacity:1;stroke:#999999;stroke-width:0.500001;stroke-miterlimit:1.5;stroke-dasharray:none;stroke-dashoffset:0;stroke-opacity:1"
     d="m 56.925589,80.664654 2.186045,-3.735366 4.372092,10e-7 2.186044,3.735365 -2.186044,3.735365 h -4.372092"
     inkscape:connector-curvature="0"
     sodipodi:nodetypes="cccccc" /><path
     sodipodi:nodetypes="cccccc"
     inkscape:connector-curvature="0"
     d="m 59.111634,84.400019 -2.186044,3.735365 h -4.372092 l -2.186045,-3.735365 2.186045,-3.735366 4.372092,10e-7"
     style="fill:none;fill-opacity:1;stroke:#999999;stroke-width:0.500001;stroke-miterlimit:1.5;stroke-dasharray:none;stroke-dashoffset:0;stroke-opacity:1"
     id="path3210" /><path
     id="path3212"
     style="fill:none;fill-opacity:1;stroke:#999999;stroke-width:0.500001;stroke-miterlimit:1.5;stroke-dasharray:none;stroke-dashoffset:0;stroke-opacity:1"
     d="m 59.111634,84.400019 -2.186044,3.735365 h -4.372092 l -2.186045,-3.735365 2.186045,-3.735366 4.372092,10e-7"
     inkscape:connector-curvature="0"
     sodipodi:nodetypes="cccccc" /><path
     sodipodi:nodetypes="cccccc"
     inkscape:connector-curvature="0"
     d="m 52.553498,88.135384 4.372092,10e-7 m 2.186044,3.735365 -2.186044,3.735365 H 52.553498 L 50.367453,91.87075"
     style="fill:none;fill-opacity:1;stroke:#999999;stroke-width:0.500001;stroke-miterlimit:1.5;stroke-dasharray:none;stroke-dashoffset:0;stroke-opacity:1"
     id="path3214" /><path
     sodipodi:nodetypes="ccccccc"
     inkscape:connector-curvature="0"
     d="m 56.92559,58.252459 h -4.372092 l -2.186045,-3.735365 2.186045,-3.735366 4.372092,10e-7 2.186044,3.735365 z"
     style="fill:none;fill-opacity:1;stroke:#999999;stroke-width:0.500001;stroke-miterlimit:1.5;stroke-dasharray:none;stroke-dashoffset:0;stroke-opacity:1"
     id="path3232" /><path
     sodipodi:nodetypes="cccccc"
     inkscape:connector-curvature="0"
     d="m 56.92559,50.781729 h -4.372092 l -2.186045,-3.735365 2.186045,-3.735366 4.372092,1e-6 2.186044,3.735365"
     style="fill:none;fill-opacity:1;stroke:#999999;stroke-width:0.500001;stroke-miterlimit:1.5;stroke-dasharray:none;stroke-dashoffset:0;stroke-opacity:1"
     id="path3236" /><path
     id="path3238"
     style="fill:none;fill-opacity:1;stroke:#999999;stroke-width:0.500001;stroke-miterlimit:1.5;stroke-dasharray:none;stroke-dashoffset:0;stroke-opacity:1"
     d="m 65.669771,50.781729 h -4.372092 l -2.186045,-3.735365 2.186045,-3.735366 4.372092,1e-6"
     inkscape:connector-curvature="0"
     sodipodi:nodetypes="ccccc" /><path
     sodipodi:nodetypes="ccccc"
     inkscape:connector-curvature="0"
     d="m 65.669771,50.781729 h -4.372092 l -2.186045,-3.735365 2.186045,-3.735366 4.372092,1e-6"
     style="fill:none;fill-opacity:1;stroke:#999999;stroke-width:0.500001;stroke-miterlimit:1.5;stroke-dasharray:none;stroke-dashoffset:0;stroke-opacity:1"
     id="path3240" /><path
     sodipodi:nodetypes="ccccccc"
     inkscape:connector-curvature="0"
     d="m 56.92559,73.193922 h -4.372092 l -2.186045,-3.735365 2.186045,-3.735366 4.372092,10e-7 2.186044,3.735365 z"
     style="fill:none;fill-opacity:1;stroke:#999999;stroke-width:0.500001;stroke-miterlimit:1.5;stroke-dasharray:none;stroke-dashoffset:0;stroke-opacity:1"
     id="path3242" /><path
     id="path3246"
     style="fill:none;fill-opacity:1;stroke:#999999;stroke-width:0.500001;stroke-miterlimit:1.5;stroke-dasharray:none;stroke-dashoffset:0;stroke-opacity:1"
     d="m 50.367454,99.34148 h -4.372092 l -2.186045,-3.735365 2.186045,-3.735366 4.372092,10e-7 2.186044,3.735365 z"
     inkscape:connector-curvature="0"
     sodipodi:nodetypes="ccccccc" /><g
     id="g1695"><g
       id="g11632"
       transform="translate(-2.8239567)"><path
         transform="matrix(0.34127292,0,0,0.33667831,190.79013,58.388774)"
         sodipodi:nodetypes="ccccccc"
         inkscape:connector-curvature="0"
         d="m 311.43596,110.55469 h -12.81113 l -6.40556,-11.09476 6.40556,-11.094762 12.81113,10e-7 6.40556,11.094762 z"
         style="fill:none;fill-opacity:1;stroke:#999999;stroke-width:1.47507;stroke-miterlimit:1.5;stroke-dasharray:none;stroke-dashoffset:0;stroke-opacity:1"
         id="path4823" /><path
         transform="matrix(0.34127292,0,0,0.33667831,190.79013,65.859505)"
         sodipodi:nodetypes="ccccc"
         inkscape:connector-curvature="0"
         d="m 311.43596,110.55469 h -12.81113 l -6.40556,-11.09476 6.40556,-11.094762 12.81113,10e-7"
         style="fill:none;fill-opacity:1;stroke:#999999;stroke-width:1.47507;stroke-miterlimit:1.5;stroke-dasharray:none;stroke-dashoffset:0;stroke-opacity:1"
         id="path4825" /><path
         id="path4829"
         style="fill:none;fill-opacity:1;stroke:#999999;stroke-width:0.500001;stroke-miterlimit:1.5;stroke-dasharray:none;stroke-dashoffset:0;stroke-opacity:1"
         d="m 319.52046,103.08245 h -4.37209 l -2.18604,-3.735364 2.18604,-3.735366 4.37209,10e-7 2.18605,3.735365 z"
         inkscape:connector-curvature="0"
         sodipodi:nodetypes="ccccccc" /><path
         sodipodi:nodetypes="ccccccc"
         inkscape:connector-curvature="0"
         d="m 312.96232,99.347084 h -4.37209 l -2.18604,-3.735364 2.18604,-3.735366 4.37209,10e-7 2.18605,3.735365 z"
         style="fill:none;fill-opacity:1;stroke:#999999;stroke-width:0.500001;stroke-miterlimit:1.5;stroke-dasharray:none;stroke-dashoffset:0;stroke-opacity:1"
         id="path4831" /><path
         id="path4833"
         style="fill:none;fill-opacity:1;stroke:#999999;stroke-width:0.500001;stroke-miterlimit:1.5;stroke-dasharray:none;stroke-dashoffset:0;stroke-opacity:1"
         d="m 308.59023,106.81781 -2.18604,-3.73536 2.18604,-3.735366 4.37209,1e-6 2.18605,3.735365"
         inkscape:connector-curvature="0"
         sodipodi:nodetypes="ccccc" /><path
         id="path4835"
         style="fill:none;fill-opacity:1;stroke:#999999;stroke-width:0.500001;stroke-miterlimit:1.5;stroke-dasharray:none;stroke-dashoffset:0;stroke-opacity:1"
         d="m 308.59023,114.28854 -2.18604,-3.73536 2.18604,-3.73537 h 4.37209 l 2.18605,3.73537"
         inkscape:connector-curvature="0"
         sodipodi:nodetypes="ccccc" /><path
         id="path4837"
         style="fill:none;fill-opacity:1;stroke:#999999;stroke-width:0.500001;stroke-miterlimit:1.5;stroke-dasharray:none;stroke-dashoffset:0;stroke-opacity:1"
         d="m 321.7065,114.28854 h -4.37209 l -2.18604,-3.73536 2.18604,-3.73537 h 4.37209 l 2.18605,3.73537 z"
         inkscape:connector-curvature="0"
         sodipodi:nodetypes="ccccccc" /><path
         id="path4839"
         style="fill:none;fill-opacity:1;stroke:#999999;stroke-width:0.500001;stroke-miterlimit:1.5;stroke-dasharray:none;stroke-dashoffset:0;stroke-opacity:1"
         d="m 308.59023,121.75927 h -4.37209 l -2.18604,-3.73536 2.18604,-3.73537 h 4.37209"
         inkscape:connector-curvature="0"
         sodipodi:nodetypes="ccccc" /><path
         sodipodi:nodetypes="ccccc"
         inkscape:connector-curvature="0"
         d="m 304.21814,114.28854 -2.18605,3.73536 H 297.66 l -2.18604,-3.73536 2.18604,-3.73537"
         style="fill:none;fill-opacity:1;stroke:#999999;stroke-width:0.500001;stroke-miterlimit:1.5;stroke-dasharray:none;stroke-dashoffset:0;stroke-opacity:1"
         id="path4841" /><path
         sodipodi:nodetypes="ccccccc"
         inkscape:connector-curvature="0"
         d="m 312.96232,129.23 h -4.37209 l -2.18604,-3.73536 2.18604,-3.73537 h 4.37209 l 2.18605,3.73537 z"
         style="fill:none;fill-opacity:1;stroke:#999999;stroke-width:0.500001;stroke-miterlimit:1.5;stroke-dasharray:none;stroke-dashoffset:0;stroke-opacity:1"
         id="path4843" /><path
         id="path4845"
         style="fill:none;fill-opacity:1;stroke:#999999;stroke-width:0.500001;stroke-miterlimit:1.5;stroke-dasharray:none;stroke-dashoffset:0;stroke-opacity:1"
         d="m 319.52046,132.96537 -2.18605,3.73536 h -4.37209 l -2.18604,-3.73536 2.18604,-3.73537"
         inkscape:connector-curvature="0"
         sodipodi:nodetypes="ccccc" /><path
         id="path4847"
         style="fill:none;fill-opacity:1;stroke:#999999;stroke-width:0.500001;stroke-miterlimit:1.5;stroke-dasharray:none;stroke-dashoffset:0;stroke-opacity:1"
         d="m 312.96232,144.17146 -2.18604,-3.73536 2.18604,-3.73537 h 4.37209"
         inkscape:connector-curvature="0"
         sodipodi:nodetypes="cccc" /><path
         sodipodi:nodetypes="ccccccc"
         inkscape:connector-curvature="0"
         d="m 312.96232,151.64219 h -4.37209 l -2.18604,-3.73536 2.18604,-3.73537 h 4.37209 l 2.18605,3.73537 z"
         style="fill:none;fill-opacity:1;stroke:#999999;stroke-width:0.500001;stroke-miterlimit:1.5;stroke-dasharray:none;stroke-dashoffset:0;stroke-opacity:1"
         id="path4849" /><path
         id="path4851"
         style="fill:none;fill-opacity:1;stroke:#999999;stroke-width:0.500001;stroke-miterlimit:1.5;stroke-dasharray:none;stroke-dashoffset:0;stroke-opacity:1"
         d="m 319.52046,155.37756 h -4.37209 l -2.18604,-3.73536 2.18604,-3.73537 h 4.37209 l 2.18605,3.73537 z"
         inkscape:connector-curvature="0"
         sodipodi:nodetypes="ccccccc" /><path
         sodipodi:nodetypes="ccccccc"
         inkscape:connector-curvature="0"
         d="m 297.07479,222.63202 h -4.37209 l -2.18604,-3.73536 2.18604,-3.73537 h 4.37209 l 2.18605,3.73537 z"
         style="fill:none;fill-opacity:1;stroke:#999999;stroke-width:0.500001;stroke-miterlimit:1.5;stroke-dasharray:none;stroke-dashoffset:0;stroke-opacity:1"
         id="path4853" /><path
         id="path4855"
         style="fill:none;fill-opacity:1;stroke:#999999;stroke-width:0.500001;stroke-miterlimit:1.5;stroke-dasharray:none;stroke-dashoffset:0;stroke-opacity:1"
         d="m 308.00502,218.89666 -2.18605,3.73536 h -4.37209 l -2.18604,-3.73536"
         inkscape:connector-curvature="0"
         sodipodi:nodetypes="cccc" /><path
         id="path4857"
         style="fill:none;fill-opacity:1;stroke:#999999;stroke-width:0.500001;stroke-miterlimit:1.5;stroke-dasharray:none;stroke-dashoffset:0;stroke-opacity:1"
         d="m 319.52046,207.68829 h -4.37209 l -2.18604,-3.73536 2.18604,-3.73537 h 4.37209 l 2.18605,3.73537 z"
         inkscape:connector-curvature="0"
         sodipodi:nodetypes="ccccccc" /><path
         sodipodi:nodetypes="ccccccc"
         inkscape:connector-curvature="0"
         d="m 319.52046,207.68829 h -4.37209 l -2.18604,-3.73536 2.18604,-3.73537 h 4.37209 l 2.18605,3.73537 z"
         style="fill:none;fill-opacity:1;stroke:#999999;stroke-width:0.500001;stroke-miterlimit:1.5;stroke-dasharray:none;stroke-dashoffset:0;stroke-opacity:1"
         id="path4863" /><path
         id="path4865"
         style="fill:none;fill-opacity:1;stroke:#999999;stroke-width:0.500001;stroke-miterlimit:1.5;stroke-dasharray:none;stroke-dashoffset:0;stroke-opacity:1"
         d="m 315.14837,207.68829 h 4.37209 l 2.18605,3.73537 -2.18605,3.73536 h -4.37209"
         inkscape:connector-curvature="0"
         sodipodi:nodetypes="ccccc" /><path
         id="path4867"
         style="fill:none;fill-opacity:1;stroke:#999999;stroke-width:0.500001;stroke-miterlimit:1.5;stroke-dasharray:none;stroke-dashoffset:0;stroke-opacity:1"
         d="m 312.96232,203.95292 h -4.37209 l -2.18604,-3.73536 2.18604,-3.73537 h 4.37209 l 2.18605,3.73537 z"
         inkscape:connector-curvature="0"
         sodipodi:nodetypes="ccccccc" /><path
         sodipodi:nodetypes="cccccc"
         inkscape:connector-curvature="0"
         d="m 315.14837,192.74683 h 4.37209 l 2.18605,3.73537 -2.18605,3.73536 h -4.37209 l -2.18604,-3.73536"
         style="fill:none;fill-opacity:1;stroke:#999999;stroke-width:0.500001;stroke-miterlimit:1.5;stroke-dasharray:none;stroke-dashoffset:0;stroke-opacity:1"
         id="path4869" /><path
         sodipodi:nodetypes="ccccc"
         inkscape:connector-curvature="0"
         d="m 302.0321,207.68829 -2.18604,-3.73536 2.18604,-3.73537 h 4.37209 l 2.18605,3.73537"
         style="fill:none;fill-opacity:1;stroke:#999999;stroke-width:0.500001;stroke-miterlimit:1.5;stroke-dasharray:none;stroke-dashoffset:0;stroke-opacity:1"
         id="path4871" /><path
         sodipodi:nodetypes="ccccccc"
         inkscape:connector-curvature="0"
         d="m 299.84605,203.95292 h -4.37209 l -2.18604,-3.73536 2.18604,-3.73537 h 4.37209 l 2.18605,3.73537 z"
         style="fill:none;fill-opacity:1;stroke:#999999;stroke-width:0.500001;stroke-miterlimit:1.5;stroke-dasharray:none;stroke-dashoffset:0;stroke-opacity:1"
         id="path4873" /><path
         id="path4875"
         style="fill:none;fill-opacity:1;stroke:#999999;stroke-width:0.500001;stroke-miterlimit:1.5;stroke-dasharray:none;stroke-dashoffset:0;stroke-opacity:1"
         d="m 295.47396,189.01146 h 4.37209 l 2.18605,3.73537 -2.18605,3.73536 h -4.37209"
         inkscape:connector-curvature="0"
         sodipodi:nodetypes="ccccc" /><path
         sodipodi:nodetypes="ccccc"
         inkscape:connector-curvature="0"
         d="m 295.47396,189.01146 h 4.37209 l 2.18605,3.73537 -2.18605,3.73536 h -4.37209"
         style="fill:none;fill-opacity:1;stroke:#999999;stroke-width:0.500001;stroke-miterlimit:1.5;stroke-dasharray:none;stroke-dashoffset:0;stroke-opacity:1"
         id="path4877" /><path
         id="path4879"
         style="fill:none;fill-opacity:1;stroke:#999999;stroke-width:0.500001;stroke-miterlimit:1.5;stroke-dasharray:none;stroke-dashoffset:0;stroke-opacity:1"
         d="m 299.84605,189.01146 h -4.37209 l -2.18604,-3.73536 2.18604,-3.73537 h 4.37209"
         inkscape:connector-curvature="0"
         sodipodi:nodetypes="ccccc" /><path
         id="path4881"
         style="fill:none;fill-opacity:1;stroke:#999999;stroke-width:0.500001;stroke-miterlimit:1.5;stroke-dasharray:none;stroke-dashoffset:0;stroke-opacity:1"
         d="m 299.84605,174.07 2.18605,3.73537 -2.18605,3.73536 h -4.37209"
         inkscape:connector-curvature="0"
         sodipodi:nodetypes="cccc" /><path
         id="path4883"
         style="fill:none;fill-opacity:1;stroke:#999999;stroke-width:0.500001;stroke-miterlimit:1.5;stroke-dasharray:none;stroke-dashoffset:0;stroke-opacity:1"
         d="m 306.12758,185.27231 h -4.37209 l -2.18604,-3.73536 2.18604,-3.73537 h 4.37209 l 2.18605,3.73537 z"
         inkscape:connector-curvature="0"
         sodipodi:nodetypes="ccccccc" /><path
         sodipodi:nodetypes="ccccccc"
         inkscape:connector-curvature="0"
         d="m 312.68571,181.53694 h -4.37209 l -2.18604,-3.73536 2.18604,-3.73537 h 4.37209 l 2.18605,3.73537 z"
         style="fill:none;fill-opacity:1;stroke:#999999;stroke-width:0.500001;stroke-miterlimit:1.5;stroke-dasharray:none;stroke-dashoffset:0;stroke-opacity:1"
         id="path4885" /></g><path
       id="path1075"
       style="fill:none;fill-opacity:1;stroke:#999999;stroke-width:0.500001;stroke-miterlimit:1.5;stroke-dasharray:none;stroke-dashoffset:0;stroke-opacity:1"
       d="m 246.84205,256.85725 -2.18605,3.73536 2.18605,3.73537 h 4.37209 l 2.18605,-3.73537 -2.18605,-3.73537"
       inkscape:connector-curvature="0"
       sodipodi:nodetypes="cccccc" /><path
       sodipodi:nodetypes="cccccc"
       inkscape:connector-curvature="0"
       d="m 257.77228,260.59261 2.18604,-3.73537 -2.18604,-3.73537 -4.37209,1e-5 -2.18605,3.73536 2.18605,3.73537"
       style="fill:none;fill-opacity:1;stroke:#999999;stroke-width:0.500001;stroke-miterlimit:1.5;stroke-dasharray:none;stroke-dashoffset:0;stroke-opacity:1"
       id="path1077" /><path
       id="path1079"
       style="fill:none;fill-opacity:1;stroke:#999999;stroke-width:0.500001;stroke-miterlimit:1.5;stroke-dasharray:none;stroke-dashoffset:0;stroke-opacity:1"
       d="m 259.95832,249.3865 -2.18604,-3.73537 -4.37209,1e-5 -2.18605,3.73536 2.18605,3.73537 h 4.37209"
       inkscape:connector-curvature="0"
       sodipodi:nodetypes="cccccc" /><path
       sodipodi:nodetypes="cccccc"
       inkscape:connector-curvature="0"
       d="m 257.77228,245.65113 2.18604,3.73537 h 4.37209 l 2.18605,-3.73537 -2.18605,-3.73537 -4.37209,1e-5"
       style="fill:none;fill-opacity:1;stroke:#999999;stroke-width:0.500001;stroke-miterlimit:1.5;stroke-dasharray:none;stroke-dashoffset:0;stroke-opacity:1"
       id="path1081" /><path
       id="path1083"
       style="fill:none;fill-opacity:1;stroke:#999999;stroke-width:0.500001;stroke-miterlimit:1.5;stroke-dasharray:none;stroke-dashoffset:0;stroke-opacity:1"
       d="m 259.95832,241.91576 h 4.37209 l 2.18605,-3.73537 -2.18605,-3.73537 -4.37209,1e-5 -2.18604,3.73536 z"
       inkscape:connector-curvature="0"
       sodipodi:nodetypes="ccccccc" /><path
       sodipodi:nodetypes="ccccc"
       inkscape:connector-curvature="0"
       d="m 266.51646,230.70966 -2.18605,3.73536 2.18605,3.73537 h 4.37209 l 2.18604,-3.73537"
       style="fill:none;fill-opacity:1;stroke:#999999;stroke-width:0.500001;stroke-miterlimit:1.5;stroke-dasharray:none;stroke-dashoffset:0;stroke-opacity:1"
       id="path1085" /><path
       sodipodi:nodetypes="ccccccc"
       inkscape:connector-curvature="0"
       d="m 273.07459,226.97428 h 4.3721 l 2.18604,-3.73537 -2.18604,-3.73537 -4.3721,1e-5 -2.18604,3.73536 z"
       style="fill:none;fill-opacity:1;stroke:#999999;stroke-width:0.500001;stroke-miterlimit:1.5;stroke-dasharray:none;stroke-dashoffset:0;stroke-opacity:1"
       id="path1087" /><path
       id="path1089"
       style="fill:none;fill-opacity:1;stroke:#999999;stroke-width:0.500001;stroke-miterlimit:1.5;stroke-dasharray:none;stroke-dashoffset:0;stroke-opacity:1"
       d="m 264.33041,249.3865 -2.18604,3.73536 2.18604,3.73537 m 4.3721,0 2.18604,-3.73537 -2.18604,-3.73537"
       inkscape:connector-curvature="0"
       sodipodi:nodetypes="cccccc" /><path
       sodipodi:nodetypes="cccccc"
       inkscape:connector-curvature="0"
       d="m 270.88855,253.12186 h 4.37209 l 2.18605,-3.73537 -2.18605,-3.73537 -4.37209,1e-5 -2.18604,3.73536"
       style="fill:none;fill-opacity:1;stroke:#999999;stroke-width:0.500001;stroke-miterlimit:1.5;stroke-dasharray:none;stroke-dashoffset:0;stroke-opacity:1"
       id="path1091" /><path
       id="path1093"
       style="fill:none;fill-opacity:1;stroke:#999999;stroke-width:0.500001;stroke-miterlimit:1.5;stroke-dasharray:none;stroke-dashoffset:0;stroke-opacity:1"
       d="m 270.88855,245.65112 h 4.37209 l 2.18605,-3.73537 -2.18605,-3.73537 -4.37209,10e-6 -2.18604,3.73536 z"
       inkscape:connector-curvature="0"
       sodipodi:nodetypes="ccccccc" /><path
       id="path1095"
       style="fill:none;fill-opacity:1;stroke:#999999;stroke-width:0.500001;stroke-miterlimit:1.5;stroke-dasharray:none;stroke-dashoffset:0;stroke-opacity:1"
       d="m 273.07459,226.97428 h 4.3721 l 2.18604,-3.73537 -2.18604,-3.73537 -4.3721,1e-5 -2.18604,3.73536 z"
       inkscape:connector-curvature="0"
       sodipodi:nodetypes="ccccccc" /><path
       sodipodi:nodetypes="ccccccc"
       inkscape:connector-curvature="0"
       d="m 273.07459,219.50354 h 4.3721 l 2.18604,-3.73537 -2.18604,-3.73537 -4.3721,1e-5 -2.18604,3.73536 z"
       style="fill:none;fill-opacity:1;stroke:#999999;stroke-width:0.500001;stroke-miterlimit:1.5;stroke-dasharray:none;stroke-dashoffset:0;stroke-opacity:1"
       id="path1097" /><path
       sodipodi:nodetypes="ccccccc"
       inkscape:connector-curvature="0"
       d="m 279.63273,215.76817 h 4.37209 l 2.18605,-3.73537 -2.18605,-3.73537 -4.37209,1e-5 -2.18604,3.73536 z"
       style="fill:none;fill-opacity:1;stroke:#999999;stroke-width:0.500001;stroke-miterlimit:1.5;stroke-dasharray:none;stroke-dashoffset:0;stroke-opacity:1"
       id="path1101" /><path
       sodipodi:nodetypes="cccccc"
       inkscape:connector-curvature="0"
       d="m 264.33041,256.85723 -2.18604,3.73536 2.18604,3.73537 h 4.3721 l 2.18604,-3.73537 -2.18604,-3.73537"
       style="fill:none;fill-opacity:1;stroke:#999999;stroke-width:0.500001;stroke-miterlimit:1.5;stroke-dasharray:none;stroke-dashoffset:0;stroke-opacity:1"
       id="path1103" /></g></g></svg>
