<?xml version="1.0" encoding="UTF-8" standalone="no"?>
<!DOCTYPE svg PUBLIC "-//W3C//DTD SVG 1.1//EN" "http://www.w3.org/Graphics/SVG/1.1/DTD/svg11.dtd">
<svg width="100%" height="100%" viewBox="0 0 75 380" version="1.1" xmlns="http://www.w3.org/2000/svg" xmlns:xlink="http://www.w3.org/1999/xlink" xml:space="preserve" xmlns:serif="http://www.serif.com/" style="fill-rule:evenodd;clip-rule:evenodd;stroke-linecap:round;stroke-linejoin:round;stroke-miterlimit:1.5;">
    <g id="panel" transform="matrix(0.834722,0,0,1.04324,-803.837,250.623)">
        <g transform="matrix(1.4975,0,0,0.958552,963,-240.235)">
            <rect x="0" y="0" width="60" height="380" style="fill:rgb(64,64,64);"/>
        </g>
        <g transform="matrix(0.531338,0,0,1.76292,978.958,-852.772)">
            <rect x="-30.034" y="347.456" width="169.102" height="16.91" style="fill:rgb(10,10,44);fill-opacity:0.8;"/>
        </g>
        <g transform="matrix(0.531338,0,0,1.81961,978.958,-538.829)">
            <rect x="-30.034" y="347.456" width="169.102" height="16.91" style="fill:rgb(10,10,44);fill-opacity:0.8;"/>
        </g>
        <g transform="matrix(4.01174,0,0,25.5659,813.011,-292.473)">
            <rect x="37.388" y="2.043" width="22.397" height="14.247" style="fill:none;stroke:rgb(32,6,118);stroke-opacity:0.7;stroke-width:0.03px;"/>
        </g>
        <g transform="matrix(0.840359,0,0,0.840359,175.891,16.2108)">
            <g transform="matrix(1.198,0,0,0.958552,893.633,-224.914)">
                <g transform="matrix(9,0,0,9,64.0056,347.267)">
                    <path d="M0.919,0L0.762,0L0.762,-0.308C0.762,-0.391 0.732,-0.432 0.671,-0.432C0.643,-0.432 0.62,-0.42 0.602,-0.395C0.583,-0.369 0.574,-0.339 0.574,-0.303L0.574,0L0.417,0L0.417,-0.312C0.417,-0.392 0.387,-0.432 0.327,-0.432C0.298,-0.432 0.274,-0.42 0.256,-0.396C0.238,-0.372 0.229,-0.341 0.229,-0.301L0.229,0L0.072,0L0.072,-0.54L0.229,-0.54L0.229,-0.456L0.231,-0.456C0.25,-0.486 0.275,-0.51 0.307,-0.528C0.338,-0.545 0.371,-0.553 0.405,-0.553C0.481,-0.553 0.533,-0.519 0.561,-0.451C0.603,-0.519 0.663,-0.553 0.743,-0.553C0.86,-0.553 0.919,-0.481 0.919,-0.335L0.919,0Z" style="fill:white;fill-opacity:0.9;fill-rule:nonzero;"/>
                </g>
                <g transform="matrix(9,0,0,9,72.978,347.267)">
                    <path d="M0.551,-0.226L0.196,-0.226C0.201,-0.142 0.252,-0.1 0.347,-0.1C0.407,-0.1 0.459,-0.115 0.505,-0.144L0.505,-0.028C0.456,-0.001 0.391,0.013 0.312,0.013C0.226,0.013 0.159,-0.011 0.111,-0.06C0.063,-0.108 0.04,-0.176 0.04,-0.262C0.04,-0.348 0.065,-0.419 0.116,-0.472C0.167,-0.526 0.23,-0.553 0.307,-0.553C0.384,-0.553 0.443,-0.53 0.487,-0.484C0.53,-0.437 0.551,-0.374 0.551,-0.292L0.551,-0.226ZM0.404,-0.324C0.404,-0.405 0.372,-0.445 0.306,-0.445C0.279,-0.445 0.255,-0.434 0.234,-0.412C0.214,-0.39 0.201,-0.361 0.195,-0.324L0.404,-0.324Z" style="fill:white;fill-opacity:0.9;fill-rule:nonzero;"/>
                </g>
                <g transform="matrix(9,0,0,9,78.3513,347.267)">
                    <rect x="0.069" y="-0.799" width="0.157" height="0.799" style="fill:white;fill-opacity:0.9;fill-rule:nonzero;"/>
                </g>
                <g transform="matrix(9,0,0,9,81.1494,347.267)">
                    <path d="M0.593,0L0.436,0L0.436,-0.076L0.433,-0.076C0.395,-0.017 0.339,0.013 0.264,0.013C0.195,0.013 0.141,-0.011 0.1,-0.06C0.06,-0.108 0.04,-0.174 0.04,-0.258C0.04,-0.346 0.062,-0.418 0.108,-0.472C0.153,-0.526 0.212,-0.553 0.286,-0.553C0.356,-0.553 0.405,-0.528 0.433,-0.477L0.436,-0.477L0.438,-0.707L0.593,-0.658L0.593,0ZM0.438,-0.306C0.438,-0.342 0.427,-0.372 0.405,-0.396C0.383,-0.42 0.356,-0.432 0.323,-0.432C0.284,-0.432 0.254,-0.417 0.232,-0.386C0.21,-0.356 0.199,-0.315 0.199,-0.263C0.199,-0.213 0.21,-0.175 0.231,-0.148C0.252,-0.121 0.281,-0.108 0.318,-0.108C0.353,-0.108 0.382,-0.122 0.404,-0.15C0.427,-0.179 0.438,-0.215 0.438,-0.261L0.438,-0.306Z" style="fill:white;fill-opacity:0.9;fill-rule:nonzero;"/>
                </g>
                <g transform="matrix(9,0,0,9,87.2654,347.267)">
                    <path d="M0.551,-0.226L0.196,-0.226C0.201,-0.142 0.252,-0.1 0.347,-0.1C0.407,-0.1 0.459,-0.115 0.505,-0.144L0.505,-0.028C0.456,-0.001 0.391,0.013 0.312,0.013C0.226,0.013 0.159,-0.011 0.111,-0.06C0.063,-0.108 0.04,-0.176 0.04,-0.262C0.04,-0.348 0.065,-0.419 0.116,-0.472C0.167,-0.526 0.23,-0.553 0.307,-0.553C0.384,-0.553 0.443,-0.53 0.487,-0.484C0.53,-0.437 0.551,-0.374 0.551,-0.292L0.551,-0.226ZM0.404,-0.324C0.404,-0.405 0.372,-0.445 0.306,-0.445C0.279,-0.445 0.255,-0.434 0.234,-0.412C0.214,-0.39 0.201,-0.361 0.195,-0.324L0.404,-0.324Z" style="fill:white;fill-opacity:0.9;fill-rule:nonzero;"/>
                </g>
                <g transform="matrix(9,0,0,9,92.6386,347.267)">
                    <path d="M0.416,-0.397C0.397,-0.408 0.374,-0.414 0.346,-0.414C0.31,-0.414 0.282,-0.4 0.261,-0.373C0.24,-0.345 0.229,-0.308 0.229,-0.26L0.229,0L0.072,0L0.072,-0.54L0.229,-0.54L0.229,-0.438L0.231,-0.438C0.257,-0.512 0.305,-0.549 0.374,-0.549C0.392,-0.549 0.406,-0.547 0.416,-0.543L0.416,-0.397Z" style="fill:white;fill-opacity:0.9;fill-rule:nonzero;"/>
                </g>
            </g>
            <g transform="matrix(1.198,0,0,0.958552,893.495,-231.786)">
                <g transform="matrix(9,0,0,9,68.6657,347.267)">
                    <path d="M0.058,-0.145C0.112,-0.112 0.165,-0.096 0.216,-0.096C0.281,-0.096 0.314,-0.113 0.314,-0.148C0.314,-0.173 0.287,-0.193 0.233,-0.21C0.166,-0.231 0.12,-0.254 0.095,-0.28C0.07,-0.305 0.058,-0.34 0.058,-0.383C0.058,-0.436 0.079,-0.478 0.122,-0.508C0.165,-0.538 0.221,-0.553 0.291,-0.553C0.34,-0.553 0.388,-0.546 0.434,-0.531L0.434,-0.407C0.392,-0.432 0.346,-0.444 0.295,-0.444C0.27,-0.444 0.25,-0.44 0.235,-0.431C0.22,-0.422 0.212,-0.41 0.212,-0.396C0.212,-0.371 0.235,-0.351 0.28,-0.335C0.329,-0.319 0.366,-0.304 0.39,-0.291C0.415,-0.278 0.434,-0.26 0.447,-0.238C0.459,-0.216 0.466,-0.191 0.466,-0.163C0.466,-0.107 0.444,-0.064 0.399,-0.033C0.354,-0.002 0.295,0.013 0.22,0.013C0.162,0.013 0.107,0.004 0.058,-0.015L0.058,-0.145Z" style="fill:white;fill-opacity:0.9;fill-rule:nonzero;"/>
                </g>
                <g transform="matrix(9,0,0,9,73.2436,347.267)">
                    <path d="M0.39,-0.006C0.366,0.007 0.33,0.013 0.282,0.013C0.167,0.013 0.11,-0.047 0.11,-0.167L0.11,-0.422L0.021,-0.422L0.021,-0.54L0.11,-0.54L0.11,-0.659L0.267,-0.704L0.267,-0.54L0.39,-0.54L0.39,-0.422L0.267,-0.422L0.267,-0.195C0.267,-0.137 0.289,-0.108 0.335,-0.108C0.353,-0.108 0.371,-0.114 0.39,-0.124L0.39,-0.006Z" style="fill:white;fill-opacity:0.9;fill-rule:nonzero;"/>
                </g>
                <g transform="matrix(6.6,0,0,6.6,77.1051,347.267)">
                    <path d="M0.106,0.032L0.043,-0.021L0.122,-0.115C0.067,-0.183 0.04,-0.268 0.04,-0.368C0.04,-0.487 0.075,-0.584 0.144,-0.658C0.213,-0.732 0.305,-0.769 0.418,-0.769C0.5,-0.769 0.571,-0.748 0.63,-0.706L0.698,-0.785L0.761,-0.733L0.689,-0.65C0.748,-0.581 0.778,-0.493 0.778,-0.384C0.778,-0.266 0.743,-0.17 0.674,-0.097C0.605,-0.023 0.516,0.013 0.406,0.013C0.32,0.013 0.246,-0.011 0.182,-0.059L0.106,0.032ZM0.54,-0.6C0.506,-0.628 0.463,-0.642 0.413,-0.642C0.349,-0.642 0.297,-0.617 0.258,-0.569C0.218,-0.52 0.199,-0.455 0.199,-0.375C0.199,-0.319 0.208,-0.273 0.227,-0.234L0.54,-0.6ZM0.275,-0.165C0.311,-0.131 0.356,-0.114 0.409,-0.114C0.473,-0.114 0.524,-0.137 0.563,-0.184C0.601,-0.231 0.62,-0.294 0.62,-0.374C0.62,-0.435 0.61,-0.488 0.588,-0.533L0.275,-0.165Z" style="fill:white;fill-opacity:0.9;fill-rule:nonzero;"/>
                </g>
                <g transform="matrix(9,0,0,9,82.6053,347.267)">
                    <path d="M0.551,-0.226L0.196,-0.226C0.201,-0.142 0.252,-0.1 0.347,-0.1C0.407,-0.1 0.459,-0.115 0.505,-0.144L0.505,-0.028C0.456,-0.001 0.391,0.013 0.312,0.013C0.226,0.013 0.159,-0.011 0.111,-0.06C0.063,-0.108 0.04,-0.176 0.04,-0.262C0.04,-0.348 0.065,-0.419 0.116,-0.472C0.167,-0.526 0.23,-0.553 0.307,-0.553C0.384,-0.553 0.443,-0.53 0.487,-0.484C0.53,-0.437 0.551,-0.374 0.551,-0.292L0.551,-0.226ZM0.404,-0.324C0.404,-0.405 0.372,-0.445 0.306,-0.445C0.279,-0.445 0.255,-0.434 0.234,-0.412C0.214,-0.39 0.201,-0.361 0.195,-0.324L0.404,-0.324Z" style="fill:white;fill-opacity:0.9;fill-rule:nonzero;"/>
                </g>
                <g transform="matrix(9,0,0,9,87.9786,347.267)">
                    <path d="M0.416,-0.397C0.397,-0.408 0.374,-0.414 0.346,-0.414C0.31,-0.414 0.282,-0.4 0.261,-0.373C0.24,-0.345 0.229,-0.308 0.229,-0.26L0.229,0L0.072,0L0.072,-0.54L0.229,-0.54L0.229,-0.438L0.231,-0.438C0.257,-0.512 0.305,-0.549 0.374,-0.549C0.392,-0.549 0.406,-0.547 0.416,-0.543L0.416,-0.397Z" style="fill:white;fill-opacity:0.9;fill-rule:nonzero;"/>
                </g>
            </g>
        </g>
        <g transform="matrix(1.198,0,0,0.958552,971.058,-213.748)">
            <g transform="matrix(13,0,0,13,14.644,0)">
                <rect x="0.076" y="-0.715" width="0.127" height="0.715" style="fill:white;fill-opacity:0.9;fill-rule:nonzero;"/>
            </g>
            <g transform="matrix(13,0,0,13,18.2622,0)">
                <path d="M0.542,0.01L0.195,-0.443L0.195,0L0.073,0L0.073,-0.715L0.134,-0.715L0.472,-0.284L0.472,-0.715L0.594,-0.715L0.594,0.01L0.542,0.01Z" style="fill:white;fill-opacity:0.9;fill-rule:nonzero;"/>
            </g>
            <g transform="matrix(13,0,0,13,26.9395,0)">
                <path d="M0.2,-0.603L0.2,-0.435L0.452,-0.435L0.452,-0.327L0.2,-0.327L0.2,0L0.073,0L0.073,-0.715L0.544,-0.715L0.544,-0.603L0.2,-0.603Z" style="fill:white;fill-opacity:0.9;fill-rule:nonzero;"/>
            </g>
            <g transform="matrix(13,0,0,13,34.5249,0)">
                <rect x="0.076" y="-0.715" width="0.127" height="0.715" style="fill:white;fill-opacity:0.9;fill-rule:nonzero;"/>
            </g>
            <g transform="matrix(13,0,0,13,38.1431,0)">
                <path d="M0.46,0L0.291,-0.257L0.135,0L0.002,0L0.217,-0.371L0.02,-0.716L0.149,-0.715L0.294,-0.474L0.454,-0.715L0.587,-0.715L0.36,-0.369L0.598,0L0.46,0Z" style="fill:white;fill-opacity:0.9;fill-rule:nonzero;"/>
            </g>
        </g>
        <g transform="matrix(0.542381,0,0,2.40284,1007.68,-342.122)">
            <path d="M73.138,58.519C73.138,57.639 69.179,56.924 64.302,56.924L13.942,56.924C9.066,56.924 5.107,57.639 5.107,58.519L5.107,82.108C5.107,82.989 9.066,83.704 13.942,83.704L64.302,83.704C69.179,83.704 73.138,82.989 73.138,82.108L73.138,58.519Z" style="fill-opacity:0.5;"/>
        </g>
        <g transform="matrix(0.542381,0,0,2.40284,965.732,-342.122)">
            <path d="M73.138,58.519C73.138,57.639 69.179,56.924 64.302,56.924L13.942,56.924C9.066,56.924 5.107,57.639 5.107,58.519L5.107,82.108C5.107,82.989 9.066,83.704 13.942,83.704L64.302,83.704C69.179,83.704 73.138,82.989 73.138,82.108L73.138,58.519Z" style="fill:white;fill-opacity:0.5;"/>
        </g>
        <g transform="matrix(1.198,0,0,0.958552,979.155,-246.593)">
            <g transform="matrix(6.4,0,0,6.4,33.8749,51.8924)">
                <path d="M0.2,-0.263L0.2,0L0.073,0L0.073,-0.715C0.158,-0.718 0.207,-0.72 0.222,-0.72C0.335,-0.72 0.417,-0.703 0.469,-0.668C0.522,-0.634 0.548,-0.579 0.548,-0.506C0.548,-0.342 0.451,-0.26 0.258,-0.26C0.243,-0.26 0.224,-0.261 0.2,-0.263ZM0.2,-0.605L0.2,-0.376C0.222,-0.374 0.239,-0.373 0.251,-0.373C0.309,-0.373 0.351,-0.382 0.378,-0.402C0.405,-0.421 0.418,-0.452 0.418,-0.496C0.418,-0.57 0.358,-0.607 0.239,-0.607C0.225,-0.607 0.213,-0.607 0.2,-0.605Z" style="fill:white;fill-opacity:0.9;fill-rule:nonzero;"/>
            </g>
            <g transform="matrix(6.4,0,0,6.4,37.7591,51.8924)">
                <path d="M0.039,-0.364C0.039,-0.466 0.067,-0.552 0.123,-0.622C0.179,-0.693 0.253,-0.728 0.347,-0.728C0.45,-0.728 0.528,-0.696 0.583,-0.632C0.637,-0.569 0.664,-0.479 0.664,-0.364C0.664,-0.249 0.636,-0.157 0.579,-0.089C0.522,-0.022 0.441,0.012 0.337,0.012C0.241,0.012 0.167,-0.021 0.116,-0.088C0.065,-0.155 0.039,-0.247 0.039,-0.364ZM0.171,-0.364C0.171,-0.28 0.185,-0.215 0.213,-0.169C0.242,-0.124 0.283,-0.101 0.337,-0.101C0.4,-0.101 0.449,-0.123 0.482,-0.168C0.516,-0.213 0.532,-0.278 0.532,-0.364C0.532,-0.531 0.47,-0.615 0.347,-0.615C0.29,-0.615 0.247,-0.593 0.216,-0.547C0.186,-0.502 0.171,-0.441 0.171,-0.364Z" style="fill:white;fill-opacity:0.9;fill-rule:nonzero;"/>
            </g>
            <g transform="matrix(6.4,0,0,6.4,42.3871,51.8924)">
                <path d="M0.073,0L0.073,-0.715L0.2,-0.715L0.2,-0.113L0.523,-0.113L0.523,0L0.073,0Z" style="fill:white;fill-opacity:0.9;fill-rule:nonzero;"/>
            </g>
            <g transform="matrix(6.4,0,0,6.4,45.5776,51.8924)">
                <path d="M0.371,-0.293L0.371,0L0.244,0L0.244,-0.293L0.002,-0.715L0.137,-0.715L0.307,-0.41L0.477,-0.715L0.611,-0.715L0.371,-0.293Z" style="fill:white;fill-opacity:0.9;fill-rule:nonzero;"/>
            </g>
        </g>
        <g transform="matrix(1.198,0,0,0.958552,937.277,-246.593)">
            <g transform="matrix(6.4,0,0,6.4,33.8286,51.8924)">
                <path d="M0.2,-0.263L0.2,0L0.073,0L0.073,-0.715C0.158,-0.718 0.207,-0.72 0.222,-0.72C0.335,-0.72 0.417,-0.703 0.469,-0.668C0.522,-0.634 0.548,-0.579 0.548,-0.506C0.548,-0.342 0.451,-0.26 0.258,-0.26C0.243,-0.26 0.224,-0.261 0.2,-0.263ZM0.2,-0.605L0.2,-0.376C0.222,-0.374 0.239,-0.373 0.251,-0.373C0.309,-0.373 0.351,-0.382 0.378,-0.402C0.405,-0.421 0.418,-0.452 0.418,-0.496C0.418,-0.57 0.358,-0.607 0.239,-0.607C0.225,-0.607 0.213,-0.607 0.2,-0.605Z" style="fill-rule:nonzero;"/>
            </g>
            <g transform="matrix(6.4,0,0,6.4,37.7129,51.8924)">
                <path d="M0.039,-0.364C0.039,-0.466 0.067,-0.552 0.123,-0.622C0.179,-0.693 0.253,-0.728 0.347,-0.728C0.45,-0.728 0.528,-0.696 0.583,-0.632C0.637,-0.569 0.664,-0.479 0.664,-0.364C0.664,-0.249 0.636,-0.157 0.579,-0.089C0.522,-0.022 0.441,0.012 0.337,0.012C0.241,0.012 0.167,-0.021 0.116,-0.088C0.065,-0.155 0.039,-0.247 0.039,-0.364ZM0.171,-0.364C0.171,-0.28 0.185,-0.215 0.213,-0.169C0.242,-0.124 0.283,-0.101 0.337,-0.101C0.4,-0.101 0.449,-0.123 0.482,-0.168C0.516,-0.213 0.532,-0.278 0.532,-0.364C0.532,-0.531 0.47,-0.615 0.347,-0.615C0.29,-0.615 0.247,-0.593 0.216,-0.547C0.186,-0.502 0.171,-0.441 0.171,-0.364Z" style="fill-rule:nonzero;"/>
            </g>
            <g transform="matrix(6.4,0,0,6.4,42.3409,51.8924)">
                <path d="M0.073,0L0.073,-0.715L0.2,-0.715L0.2,-0.113L0.523,-0.113L0.523,0L0.073,0Z" style="fill-rule:nonzero;"/>
            </g>
            <g transform="matrix(6.4,0,0,6.4,45.5314,51.8924)">
                <path d="M0.371,-0.293L0.371,0L0.244,0L0.244,-0.293L0.002,-0.715L0.137,-0.715L0.307,-0.41L0.477,-0.715L0.611,-0.715L0.371,-0.293Z" style="fill-rule:nonzero;"/>
            </g>
        </g>
        <g transform="matrix(0.542381,0,0,8.33264,965.732,-608.736)">
            <path d="M73.138,57.384C73.138,57.13 69.179,56.924 64.302,56.924L13.942,56.924C9.066,56.924 5.107,57.13 5.107,57.384L5.107,83.244C5.107,83.498 9.066,83.704 13.942,83.704L64.302,83.704C69.179,83.704 73.138,83.498 73.138,83.244L73.138,57.384Z" style="fill:white;fill-opacity:0.5;"/>
        </g>
        <g transform="matrix(0.542381,0,0,8.33264,1007.68,-608.736)">
            <path d="M73.138,57.384C73.138,57.13 69.179,56.924 64.302,56.924L13.942,56.924C9.066,56.924 5.107,57.13 5.107,57.384L5.107,83.244C5.107,83.498 9.066,83.704 13.942,83.704L64.302,83.704C69.179,83.704 73.138,83.498 73.138,83.244L73.138,57.384Z" style="fill:white;fill-opacity:0.5;"/>
        </g>
        <g transform="matrix(1.198,0,0,0.958552,937.637,-175.025)">
            <g transform="matrix(6.4,0,0,6.4,32.3062,51.8924)">
                <path d="M0.037,-0.379C0.037,-0.477 0.06,-0.56 0.108,-0.627C0.156,-0.694 0.22,-0.728 0.299,-0.728C0.466,-0.728 0.549,-0.607 0.549,-0.364C0.549,-0.25 0.526,-0.16 0.481,-0.092C0.437,-0.024 0.374,0.01 0.292,0.01C0.205,0.01 0.141,-0.021 0.099,-0.084C0.057,-0.146 0.037,-0.245 0.037,-0.379ZM0.168,-0.371C0.168,-0.275 0.178,-0.205 0.196,-0.16C0.215,-0.115 0.246,-0.093 0.289,-0.093C0.335,-0.093 0.368,-0.113 0.388,-0.154C0.407,-0.194 0.417,-0.266 0.417,-0.37C0.417,-0.467 0.408,-0.534 0.389,-0.57C0.37,-0.607 0.34,-0.625 0.297,-0.625C0.211,-0.625 0.168,-0.541 0.168,-0.371Z" style="fill-rule:nonzero;"/>
            </g>
            <g transform="matrix(6.4,0,0,6.4,36.1842,51.8924)">
                <path d="M0.278,0L0.278,-0.516L0.132,-0.428L0.132,-0.55C0.226,-0.596 0.3,-0.652 0.354,-0.718L0.405,-0.718L0.405,0L0.278,0Z" style="fill-rule:nonzero;"/>
            </g>
            <g transform="matrix(6.4,0,0,6.4,40.0622,51.8924)">
                <rect x="0.053" y="-0.347" width="0.258" height="0.115" style="fill-rule:nonzero;"/>
            </g>
            <g transform="matrix(6.4,0,0,6.4,42.5402,51.8924)">
                <path d="M0.037,-0.379C0.037,-0.477 0.06,-0.56 0.108,-0.627C0.156,-0.694 0.22,-0.728 0.299,-0.728C0.466,-0.728 0.549,-0.607 0.549,-0.364C0.549,-0.25 0.526,-0.16 0.481,-0.092C0.437,-0.024 0.374,0.01 0.292,0.01C0.205,0.01 0.141,-0.021 0.099,-0.084C0.057,-0.146 0.037,-0.245 0.037,-0.379ZM0.168,-0.371C0.168,-0.275 0.178,-0.205 0.196,-0.16C0.215,-0.115 0.246,-0.093 0.289,-0.093C0.335,-0.093 0.368,-0.113 0.388,-0.154C0.407,-0.194 0.417,-0.266 0.417,-0.37C0.417,-0.467 0.408,-0.534 0.389,-0.57C0.37,-0.607 0.34,-0.625 0.297,-0.625C0.211,-0.625 0.168,-0.541 0.168,-0.371Z" style="fill-rule:nonzero;"/>
            </g>
            <g transform="matrix(6.4,0,0,6.4,46.4182,51.8924)">
                <path d="M0.172,-0.392C0.146,-0.409 0.125,-0.432 0.108,-0.461C0.091,-0.49 0.083,-0.519 0.083,-0.548C0.083,-0.603 0.102,-0.647 0.141,-0.679C0.18,-0.712 0.23,-0.728 0.291,-0.728C0.356,-0.728 0.408,-0.712 0.444,-0.679C0.481,-0.647 0.5,-0.603 0.5,-0.548C0.5,-0.519 0.489,-0.488 0.469,-0.456C0.448,-0.423 0.426,-0.401 0.401,-0.388C0.432,-0.373 0.461,-0.347 0.487,-0.31C0.513,-0.273 0.526,-0.237 0.526,-0.205C0.526,-0.137 0.505,-0.084 0.462,-0.047C0.42,-0.009 0.362,0.01 0.289,0.01C0.215,0.01 0.158,-0.009 0.117,-0.045C0.077,-0.082 0.057,-0.135 0.057,-0.205C0.057,-0.24 0.068,-0.276 0.089,-0.31C0.11,-0.345 0.138,-0.372 0.172,-0.392ZM0.303,-0.44C0.321,-0.449 0.337,-0.465 0.351,-0.488C0.365,-0.51 0.372,-0.531 0.372,-0.55C0.372,-0.571 0.365,-0.588 0.35,-0.601C0.335,-0.614 0.315,-0.62 0.291,-0.62C0.237,-0.62 0.21,-0.597 0.21,-0.549C0.21,-0.528 0.22,-0.507 0.24,-0.486C0.26,-0.464 0.281,-0.449 0.303,-0.44ZM0.277,-0.34C0.215,-0.305 0.184,-0.26 0.184,-0.205C0.184,-0.174 0.194,-0.149 0.213,-0.128C0.233,-0.108 0.258,-0.098 0.289,-0.098C0.321,-0.098 0.348,-0.107 0.368,-0.125C0.389,-0.142 0.399,-0.166 0.399,-0.195C0.399,-0.244 0.359,-0.293 0.277,-0.34Z" style="fill-rule:nonzero;"/>
            </g>
        </g>
        <g transform="matrix(1.198,0,0,0.958552,979.549,-175.025)">
            <g transform="matrix(6.4,0,0,6.4,32.3062,51.8924)">
                <path d="M0.037,-0.379C0.037,-0.477 0.06,-0.56 0.108,-0.627C0.156,-0.694 0.22,-0.728 0.299,-0.728C0.466,-0.728 0.549,-0.607 0.549,-0.364C0.549,-0.25 0.526,-0.16 0.481,-0.092C0.437,-0.024 0.374,0.01 0.292,0.01C0.205,0.01 0.141,-0.021 0.099,-0.084C0.057,-0.146 0.037,-0.245 0.037,-0.379ZM0.168,-0.371C0.168,-0.275 0.178,-0.205 0.196,-0.16C0.215,-0.115 0.246,-0.093 0.289,-0.093C0.335,-0.093 0.368,-0.113 0.388,-0.154C0.407,-0.194 0.417,-0.266 0.417,-0.37C0.417,-0.467 0.408,-0.534 0.389,-0.57C0.37,-0.607 0.34,-0.625 0.297,-0.625C0.211,-0.625 0.168,-0.541 0.168,-0.371Z" style="fill-rule:nonzero;"/>
            </g>
            <g transform="matrix(6.4,0,0,6.4,36.1842,51.8924)">
                <path d="M0.221,0.014L0.154,-0.058C0.253,-0.112 0.323,-0.184 0.364,-0.272C0.342,-0.262 0.314,-0.257 0.28,-0.257C0.213,-0.257 0.159,-0.278 0.118,-0.32C0.077,-0.361 0.057,-0.418 0.057,-0.49C0.057,-0.561 0.078,-0.618 0.12,-0.662C0.162,-0.706 0.214,-0.728 0.278,-0.728C0.444,-0.728 0.528,-0.623 0.528,-0.414C0.528,-0.326 0.496,-0.238 0.431,-0.149C0.367,-0.059 0.297,-0.005 0.221,0.014ZM0.186,-0.495C0.186,-0.455 0.195,-0.423 0.214,-0.4C0.233,-0.377 0.257,-0.365 0.287,-0.365C0.36,-0.365 0.396,-0.406 0.396,-0.487C0.396,-0.576 0.359,-0.62 0.285,-0.62C0.255,-0.62 0.231,-0.609 0.213,-0.587C0.195,-0.564 0.186,-0.534 0.186,-0.495Z" style="fill-rule:nonzero;"/>
            </g>
            <g transform="matrix(6.4,0,0,6.4,40.0622,51.8924)">
                <rect x="0.053" y="-0.347" width="0.258" height="0.115" style="fill-rule:nonzero;"/>
            </g>
            <g transform="matrix(6.4,0,0,6.4,42.5402,51.8924)">
                <path d="M0.278,0L0.278,-0.516L0.132,-0.428L0.132,-0.55C0.226,-0.596 0.3,-0.652 0.354,-0.718L0.405,-0.718L0.405,0L0.278,0Z" style="fill-rule:nonzero;"/>
            </g>
            <g transform="matrix(6.4,0,0,6.4,46.4182,51.8924)">
                <path d="M0.371,-0.729L0.438,-0.658C0.39,-0.633 0.346,-0.599 0.306,-0.558C0.266,-0.517 0.239,-0.476 0.224,-0.436C0.258,-0.451 0.287,-0.458 0.312,-0.458C0.379,-0.458 0.434,-0.438 0.474,-0.396C0.515,-0.354 0.536,-0.297 0.536,-0.226C0.536,-0.156 0.515,-0.099 0.473,-0.055C0.431,-0.012 0.378,0.01 0.314,0.01C0.148,0.01 0.064,-0.094 0.064,-0.302C0.064,-0.389 0.097,-0.478 0.161,-0.567C0.225,-0.656 0.295,-0.711 0.371,-0.729ZM0.196,-0.229C0.196,-0.142 0.233,-0.098 0.307,-0.098C0.337,-0.098 0.361,-0.109 0.379,-0.131C0.397,-0.152 0.406,-0.182 0.406,-0.221C0.406,-0.261 0.397,-0.292 0.378,-0.316C0.359,-0.339 0.335,-0.351 0.306,-0.351C0.233,-0.351 0.196,-0.31 0.196,-0.229Z" style="fill-rule:nonzero;"/>
            </g>
        </g>
    </g>
</svg>
