<?xml version="1.0" encoding="UTF-8" standalone="no"?>
<!DOCTYPE svg PUBLIC "-//W3C//DTD SVG 1.1//EN" "http://www.w3.org/Graphics/SVG/1.1/DTD/svg11.dtd">
<svg width="100%" height="100%" viewBox="0 0 330 380" version="1.1" xmlns="http://www.w3.org/2000/svg" xmlns:xlink="http://www.w3.org/1999/xlink" xml:space="preserve" xmlns:serif="http://www.serif.com/" style="fill-rule:evenodd;clip-rule:evenodd;stroke-linecap:round;stroke-linejoin:round;stroke-miterlimit:1.5;">
    <g id="panel" transform="matrix(0.834722,0,0,1.04324,-728.837,250.623)">
        <g transform="matrix(6.58902,0,0,0.958552,873.15,-240.235)">
            <rect x="0" y="0" width="60" height="380" style="fill:rgb(64,64,64);"/>
        </g>
        <g transform="matrix(2.33789,0,0,1.81823,943.365,-538.329)">
            <rect x="-30.034" y="347.456" width="169.102" height="16.91" style="fill:rgb(10,10,44);fill-opacity:0.8;"/>
        </g>
        <g transform="matrix(2.33789,0,0,1.76292,943.365,-852.772)">
            <rect x="-30.034" y="347.456" width="169.102" height="16.91" style="fill:rgb(10,10,44);fill-opacity:0.8;"/>
        </g>
        <g transform="matrix(17.6516,0,0,25.5659,213.197,-292.473)">
            <rect x="37.388" y="2.043" width="22.397" height="14.247" style="fill:none;stroke:rgb(32,6,118);stroke-opacity:0.7;stroke-width:0.03px;"/>
        </g>
        <g transform="matrix(1.198,0,0,0.958552,1034.75,-213.396)">
            <g transform="matrix(13,0,0,13,13.9998,0)">
                <path d="M0.74,0L0.617,0L0.543,-0.385L0.399,0.01L0.354,0.01L0.209,-0.385L0.132,0L0.01,0L0.154,-0.715L0.221,-0.715L0.376,-0.233L0.527,-0.715L0.594,-0.715L0.74,0Z" style="fill:white;fill-opacity:0.9;fill-rule:nonzero;"/>
            </g>
            <g transform="matrix(13,0,0,13,23.6863,0)">
                <path d="M0.491,0L0.438,-0.145L0.193,-0.145L0.144,0L0.002,0L0.288,-0.725L0.343,-0.725L0.631,0L0.491,0ZM0.315,-0.506L0.229,-0.242L0.401,-0.242L0.315,-0.506Z" style="fill:white;fill-opacity:0.9;fill-rule:nonzero;"/>
            </g>
            <g transform="matrix(13,0,0,13,31.9192,0)">
                <path d="M0.039,0L0.039,-0.041L0.337,-0.603L0.044,-0.603L0.044,-0.715L0.51,-0.715L0.51,-0.674L0.211,-0.113L0.521,-0.113L0.521,0L0.039,0Z" style="fill:white;fill-opacity:0.9;fill-rule:nonzero;"/>
            </g>
            <g transform="matrix(13,0,0,13,39.2,0)">
                <path d="M0.2,-0.603L0.2,-0.435L0.437,-0.435L0.437,-0.327L0.2,-0.327L0.2,-0.113L0.524,-0.113L0.524,0L0.073,0L0.073,-0.715L0.53,-0.715L0.53,-0.603L0.2,-0.603Z" style="fill:white;fill-opacity:0.9;fill-rule:nonzero;"/>
            </g>
        </g>
        <g transform="matrix(0.840359,0,0,0.840359,238.786,16.2108)">
            <g transform="matrix(1.198,0,0,0.958552,893.633,-224.914)">
                <g transform="matrix(9,0,0,9,64.0056,347.267)">
                    <path d="M0.919,0L0.762,0L0.762,-0.308C0.762,-0.391 0.732,-0.432 0.671,-0.432C0.643,-0.432 0.62,-0.42 0.602,-0.395C0.583,-0.369 0.574,-0.339 0.574,-0.303L0.574,0L0.417,0L0.417,-0.312C0.417,-0.392 0.387,-0.432 0.327,-0.432C0.298,-0.432 0.274,-0.42 0.256,-0.396C0.238,-0.372 0.229,-0.341 0.229,-0.301L0.229,0L0.072,0L0.072,-0.54L0.229,-0.54L0.229,-0.456L0.231,-0.456C0.25,-0.486 0.275,-0.51 0.307,-0.528C0.338,-0.545 0.371,-0.553 0.405,-0.553C0.481,-0.553 0.533,-0.519 0.561,-0.451C0.603,-0.519 0.663,-0.553 0.743,-0.553C0.86,-0.553 0.919,-0.481 0.919,-0.335L0.919,0Z" style="fill:white;fill-opacity:0.9;fill-rule:nonzero;"/>
                </g>
                <g transform="matrix(9,0,0,9,72.978,347.267)">
                    <path d="M0.551,-0.226L0.196,-0.226C0.201,-0.142 0.252,-0.1 0.347,-0.1C0.407,-0.1 0.459,-0.115 0.505,-0.144L0.505,-0.028C0.456,-0.001 0.391,0.013 0.312,0.013C0.226,0.013 0.159,-0.011 0.111,-0.06C0.063,-0.108 0.04,-0.176 0.04,-0.262C0.04,-0.348 0.065,-0.419 0.116,-0.472C0.167,-0.526 0.23,-0.553 0.307,-0.553C0.384,-0.553 0.443,-0.53 0.487,-0.484C0.53,-0.437 0.551,-0.374 0.551,-0.292L0.551,-0.226ZM0.404,-0.324C0.404,-0.405 0.372,-0.445 0.306,-0.445C0.279,-0.445 0.255,-0.434 0.234,-0.412C0.214,-0.39 0.201,-0.361 0.195,-0.324L0.404,-0.324Z" style="fill:white;fill-opacity:0.9;fill-rule:nonzero;"/>
                </g>
                <g transform="matrix(9,0,0,9,78.3513,347.267)">
                    <rect x="0.069" y="-0.799" width="0.157" height="0.799" style="fill:white;fill-opacity:0.9;fill-rule:nonzero;"/>
                </g>
                <g transform="matrix(9,0,0,9,81.1494,347.267)">
                    <path d="M0.593,0L0.436,0L0.436,-0.076L0.433,-0.076C0.395,-0.017 0.339,0.013 0.264,0.013C0.195,0.013 0.141,-0.011 0.1,-0.06C0.06,-0.108 0.04,-0.174 0.04,-0.258C0.04,-0.346 0.062,-0.418 0.108,-0.472C0.153,-0.526 0.212,-0.553 0.286,-0.553C0.356,-0.553 0.405,-0.528 0.433,-0.477L0.436,-0.477L0.438,-0.707L0.593,-0.658L0.593,0ZM0.438,-0.306C0.438,-0.342 0.427,-0.372 0.405,-0.396C0.383,-0.42 0.356,-0.432 0.323,-0.432C0.284,-0.432 0.254,-0.417 0.232,-0.386C0.21,-0.356 0.199,-0.315 0.199,-0.263C0.199,-0.213 0.21,-0.175 0.231,-0.148C0.252,-0.121 0.281,-0.108 0.318,-0.108C0.353,-0.108 0.382,-0.122 0.404,-0.15C0.427,-0.179 0.438,-0.215 0.438,-0.261L0.438,-0.306Z" style="fill:white;fill-opacity:0.9;fill-rule:nonzero;"/>
                </g>
                <g transform="matrix(9,0,0,9,87.2654,347.267)">
                    <path d="M0.551,-0.226L0.196,-0.226C0.201,-0.142 0.252,-0.1 0.347,-0.1C0.407,-0.1 0.459,-0.115 0.505,-0.144L0.505,-0.028C0.456,-0.001 0.391,0.013 0.312,0.013C0.226,0.013 0.159,-0.011 0.111,-0.06C0.063,-0.108 0.04,-0.176 0.04,-0.262C0.04,-0.348 0.065,-0.419 0.116,-0.472C0.167,-0.526 0.23,-0.553 0.307,-0.553C0.384,-0.553 0.443,-0.53 0.487,-0.484C0.53,-0.437 0.551,-0.374 0.551,-0.292L0.551,-0.226ZM0.404,-0.324C0.404,-0.405 0.372,-0.445 0.306,-0.445C0.279,-0.445 0.255,-0.434 0.234,-0.412C0.214,-0.39 0.201,-0.361 0.195,-0.324L0.404,-0.324Z" style="fill:white;fill-opacity:0.9;fill-rule:nonzero;"/>
                </g>
                <g transform="matrix(9,0,0,9,92.6386,347.267)">
                    <path d="M0.416,-0.397C0.397,-0.408 0.374,-0.414 0.346,-0.414C0.31,-0.414 0.282,-0.4 0.261,-0.373C0.24,-0.345 0.229,-0.308 0.229,-0.26L0.229,0L0.072,0L0.072,-0.54L0.229,-0.54L0.229,-0.438L0.231,-0.438C0.257,-0.512 0.305,-0.549 0.374,-0.549C0.392,-0.549 0.406,-0.547 0.416,-0.543L0.416,-0.397Z" style="fill:white;fill-opacity:0.9;fill-rule:nonzero;"/>
                </g>
            </g>
            <g transform="matrix(1.198,0,0,0.958552,893.495,-231.786)">
                <g transform="matrix(9,0,0,9,68.6657,347.267)">
                    <path d="M0.058,-0.145C0.112,-0.112 0.165,-0.096 0.216,-0.096C0.281,-0.096 0.314,-0.113 0.314,-0.148C0.314,-0.173 0.287,-0.193 0.233,-0.21C0.166,-0.231 0.12,-0.254 0.095,-0.28C0.07,-0.305 0.058,-0.34 0.058,-0.383C0.058,-0.436 0.079,-0.478 0.122,-0.508C0.165,-0.538 0.221,-0.553 0.291,-0.553C0.34,-0.553 0.388,-0.546 0.434,-0.531L0.434,-0.407C0.392,-0.432 0.346,-0.444 0.295,-0.444C0.27,-0.444 0.25,-0.44 0.235,-0.431C0.22,-0.422 0.212,-0.41 0.212,-0.396C0.212,-0.371 0.235,-0.351 0.28,-0.335C0.329,-0.319 0.366,-0.304 0.39,-0.291C0.415,-0.278 0.434,-0.26 0.447,-0.238C0.459,-0.216 0.466,-0.191 0.466,-0.163C0.466,-0.107 0.444,-0.064 0.399,-0.033C0.354,-0.002 0.295,0.013 0.22,0.013C0.162,0.013 0.107,0.004 0.058,-0.015L0.058,-0.145Z" style="fill:white;fill-opacity:0.9;fill-rule:nonzero;"/>
                </g>
                <g transform="matrix(9,0,0,9,73.2436,347.267)">
                    <path d="M0.39,-0.006C0.366,0.007 0.33,0.013 0.282,0.013C0.167,0.013 0.11,-0.047 0.11,-0.167L0.11,-0.422L0.021,-0.422L0.021,-0.54L0.11,-0.54L0.11,-0.659L0.267,-0.704L0.267,-0.54L0.39,-0.54L0.39,-0.422L0.267,-0.422L0.267,-0.195C0.267,-0.137 0.289,-0.108 0.335,-0.108C0.353,-0.108 0.371,-0.114 0.39,-0.124L0.39,-0.006Z" style="fill:white;fill-opacity:0.9;fill-rule:nonzero;"/>
                </g>
                <g transform="matrix(6.6,0,0,6.6,77.1051,347.267)">
                    <path d="M0.106,0.032L0.043,-0.021L0.122,-0.115C0.067,-0.183 0.04,-0.268 0.04,-0.368C0.04,-0.487 0.075,-0.584 0.144,-0.658C0.213,-0.732 0.305,-0.769 0.418,-0.769C0.5,-0.769 0.571,-0.748 0.63,-0.706L0.698,-0.785L0.761,-0.733L0.689,-0.65C0.748,-0.581 0.778,-0.493 0.778,-0.384C0.778,-0.266 0.743,-0.17 0.674,-0.097C0.605,-0.023 0.516,0.013 0.406,0.013C0.32,0.013 0.246,-0.011 0.182,-0.059L0.106,0.032ZM0.54,-0.6C0.506,-0.628 0.463,-0.642 0.413,-0.642C0.349,-0.642 0.297,-0.617 0.258,-0.569C0.218,-0.52 0.199,-0.455 0.199,-0.375C0.199,-0.319 0.208,-0.273 0.227,-0.234L0.54,-0.6ZM0.275,-0.165C0.311,-0.131 0.356,-0.114 0.409,-0.114C0.473,-0.114 0.524,-0.137 0.563,-0.184C0.601,-0.231 0.62,-0.294 0.62,-0.374C0.62,-0.435 0.61,-0.488 0.588,-0.533L0.275,-0.165Z" style="fill:white;fill-opacity:0.9;fill-rule:nonzero;"/>
                </g>
                <g transform="matrix(9,0,0,9,82.6053,347.267)">
                    <path d="M0.551,-0.226L0.196,-0.226C0.201,-0.142 0.252,-0.1 0.347,-0.1C0.407,-0.1 0.459,-0.115 0.505,-0.144L0.505,-0.028C0.456,-0.001 0.391,0.013 0.312,0.013C0.226,0.013 0.159,-0.011 0.111,-0.06C0.063,-0.108 0.04,-0.176 0.04,-0.262C0.04,-0.348 0.065,-0.419 0.116,-0.472C0.167,-0.526 0.23,-0.553 0.307,-0.553C0.384,-0.553 0.443,-0.53 0.487,-0.484C0.53,-0.437 0.551,-0.374 0.551,-0.292L0.551,-0.226ZM0.404,-0.324C0.404,-0.405 0.372,-0.445 0.306,-0.445C0.279,-0.445 0.255,-0.434 0.234,-0.412C0.214,-0.39 0.201,-0.361 0.195,-0.324L0.404,-0.324Z" style="fill:white;fill-opacity:0.9;fill-rule:nonzero;"/>
                </g>
                <g transform="matrix(9,0,0,9,87.9786,347.267)">
                    <path d="M0.416,-0.397C0.397,-0.408 0.374,-0.414 0.346,-0.414C0.31,-0.414 0.282,-0.4 0.261,-0.373C0.24,-0.345 0.229,-0.308 0.229,-0.26L0.229,0L0.072,0L0.072,-0.54L0.229,-0.54L0.229,-0.438L0.231,-0.438C0.257,-0.512 0.305,-0.549 0.374,-0.549C0.392,-0.549 0.406,-0.547 0.416,-0.543L0.416,-0.397Z" style="fill:white;fill-opacity:0.9;fill-rule:nonzero;"/>
                </g>
            </g>
        </g>
        <g transform="matrix(1.03017,0,0,2.36284,1182.78,-109.433)">
            <path d="M73.138,58.546C73.138,57.651 71.053,56.924 68.486,56.924L5.107,56.924L5.107,83.704L68.486,83.704C71.053,83.704 73.138,82.977 73.138,82.081L73.138,58.546Z" style="fill-opacity:0.5;"/>
        </g>
        <g transform="matrix(1.02954,0,0,2.36284,878.331,-109.433)">
            <path d="M73.138,56.924L9.761,56.924C7.193,56.924 5.107,57.651 5.107,58.546L5.107,82.081C5.107,82.977 7.193,83.704 9.761,83.704L73.138,83.704L73.138,56.924Z" style="fill-opacity:0.5;"/>
        </g>
        <g transform="matrix(1.08476,0,0,2.36284,1068.21,-109.433)">
            <path d="M73.138,56.924L9.524,56.924C7.086,56.924 5.107,57.651 5.107,58.546L5.107,82.081C5.107,82.977 7.086,83.704 9.524,83.704L73.138,83.704L73.138,56.924Z" style="fill:white;fill-opacity:0.5;"/>
        </g>
        <g transform="matrix(1.08536,0,0,2.36284,988.581,-109.433)">
            <path d="M73.138,58.546C73.138,57.651 71.159,56.924 68.722,56.924L5.107,56.924L5.107,83.704L68.722,83.704C71.159,83.704 73.138,82.977 73.138,82.081L73.138,58.546Z" style="fill:white;fill-opacity:0.5;"/>
        </g>
        <g transform="matrix(0.59521,0,0,2.36284,1144.55,-109.433)">
            <rect x="5.107" y="56.924" width="68.031" height="26.78" style="fill:white;fill-opacity:0.4;"/>
        </g>
        <g transform="matrix(0.594623,0,0,2.36284,950.635,-109.433)">
            <rect x="5.107" y="56.924" width="68.031" height="26.78" style="fill:white;fill-opacity:0.4;"/>
        </g>
        <g transform="matrix(0.531684,0,0,1.40341,1219.23,-97.7251)">
            <path d="M73.138,59.656C73.138,58.148 69.099,56.924 64.125,56.924L14.12,56.924C9.145,56.924 5.107,58.148 5.107,59.656L5.107,80.972C5.107,82.48 9.145,83.704 14.12,83.704L64.125,83.704C69.099,83.704 73.138,82.48 73.138,80.972L73.138,59.656Z" style="fill:white;fill-opacity:0.5;"/>
        </g>
        <g transform="matrix(1.40344,0,-1.14761e-18,1.09143,908.539,-263.055)">
            <path d="M217.954,55.447C217.954,53.993 216.807,52.812 215.394,52.812L15.868,52.812C14.455,52.812 13.307,53.993 13.307,55.447L13.307,256.475C13.307,257.929 14.455,259.11 15.868,259.11L215.394,259.11C216.807,259.11 217.954,257.929 217.954,256.475L217.954,55.447Z"/>
        </g>
        <g transform="matrix(3.99809,0,0,8.12504,914.406,-664.087)">
            <rect x="5.107" y="56.924" width="68.031" height="26.78" style="fill:rgb(0,16,90);stroke:white;stroke-opacity:0.2;stroke-width:0.09px;stroke-linecap:butt;stroke-miterlimit:1.41421;"/>
        </g>
        <g transform="matrix(1.198,0,0,0.958552,1076.07,9.33878)">
            <g transform="matrix(6.4,0,0,6.4,35.2054,51.8924)">
                <path d="M0.563,-0.677L0.511,-0.572C0.483,-0.601 0.437,-0.615 0.375,-0.615C0.315,-0.615 0.266,-0.59 0.228,-0.54C0.19,-0.49 0.171,-0.427 0.171,-0.35C0.171,-0.274 0.189,-0.213 0.224,-0.168C0.259,-0.123 0.306,-0.101 0.365,-0.101C0.433,-0.101 0.485,-0.125 0.523,-0.173L0.583,-0.07C0.531,-0.015 0.455,0.012 0.355,0.012C0.255,0.012 0.177,-0.021 0.122,-0.086C0.067,-0.152 0.039,-0.242 0.039,-0.355C0.039,-0.461 0.07,-0.55 0.131,-0.621C0.192,-0.692 0.271,-0.728 0.367,-0.728C0.449,-0.728 0.514,-0.711 0.563,-0.677Z" style="fill-rule:nonzero;"/>
            </g>
            <g transform="matrix(6.4,0,0,6.4,39.2491,51.8924)">
                <path d="M0.073,0L0.073,-0.715L0.2,-0.715L0.2,-0.113L0.523,-0.113L0.523,0L0.073,0Z" style="fill-rule:nonzero;"/>
            </g>
            <g transform="matrix(6.4,0,0,6.4,42.9146,51.8924)">
                <path d="M0.479,0L0.28,-0.305L0.2,-0.196L0.2,0L0.073,0L0.073,-0.715L0.2,-0.715L0.2,-0.373L0.443,-0.715L0.588,-0.715L0.364,-0.403L0.631,0L0.479,0Z" style="fill-rule:nonzero;"/>
            </g>
        </g>
        <g transform="matrix(1.198,0,0,0.958552,966.879,9.33878)">
            <g transform="matrix(6.4,0,0,6.4,35.2054,51.8924)">
                <path d="M0.563,-0.677L0.511,-0.572C0.483,-0.601 0.437,-0.615 0.375,-0.615C0.315,-0.615 0.266,-0.59 0.228,-0.54C0.19,-0.49 0.171,-0.427 0.171,-0.35C0.171,-0.274 0.189,-0.213 0.224,-0.168C0.259,-0.123 0.306,-0.101 0.365,-0.101C0.433,-0.101 0.485,-0.125 0.523,-0.173L0.583,-0.07C0.531,-0.015 0.455,0.012 0.355,0.012C0.255,0.012 0.177,-0.021 0.122,-0.086C0.067,-0.152 0.039,-0.242 0.039,-0.355C0.039,-0.461 0.07,-0.55 0.131,-0.621C0.192,-0.692 0.271,-0.728 0.367,-0.728C0.449,-0.728 0.514,-0.711 0.563,-0.677Z" style="fill-rule:nonzero;"/>
            </g>
            <g transform="matrix(6.4,0,0,6.4,39.2491,51.8924)">
                <path d="M0.073,0L0.073,-0.715L0.2,-0.715L0.2,-0.113L0.523,-0.113L0.523,0L0.073,0Z" style="fill-rule:nonzero;"/>
            </g>
            <g transform="matrix(6.4,0,0,6.4,42.9146,51.8924)">
                <path d="M0.479,0L0.28,-0.305L0.2,-0.196L0.2,0L0.073,0L0.073,-0.715L0.2,-0.715L0.2,-0.373L0.443,-0.715L0.588,-0.715L0.364,-0.403L0.631,0L0.479,0Z" style="fill-rule:nonzero;"/>
            </g>
        </g>
        <g transform="matrix(1.198,0,0,0.958552,1120.12,9.33878)">
            <g transform="matrix(6.4,0,0,6.4,32.828,51.8924)">
                <path d="M0.364,-0.603L0.364,0L0.237,0L0.237,-0.603L0.01,-0.603L0.01,-0.715L0.602,-0.715L0.602,-0.603L0.364,-0.603Z" style="fill-rule:nonzero;"/>
            </g>
            <g transform="matrix(6.4,0,0,6.4,36.8716,51.8924)">
                <path d="M0.073,-0.715L0.2,-0.715L0.2,-0.23C0.2,-0.192 0.212,-0.161 0.235,-0.137C0.259,-0.113 0.291,-0.101 0.332,-0.101C0.378,-0.101 0.414,-0.112 0.439,-0.136C0.465,-0.16 0.478,-0.192 0.478,-0.233L0.478,-0.715L0.604,-0.715L0.604,-0.223C0.604,-0.15 0.58,-0.092 0.531,-0.05C0.481,-0.009 0.415,0.012 0.333,0.012C0.25,0.012 0.186,-0.008 0.141,-0.049C0.096,-0.09 0.073,-0.148 0.073,-0.224L0.073,-0.715Z" style="fill-rule:nonzero;"/>
            </g>
            <g transform="matrix(6.4,0,0,6.4,41.3371,51.8924)">
                <path d="M0.477,0L0.286,-0.295C0.266,-0.296 0.24,-0.297 0.205,-0.299L0.205,0L0.073,0L0.073,-0.715C0.08,-0.715 0.108,-0.717 0.156,-0.719C0.204,-0.721 0.242,-0.723 0.271,-0.723C0.453,-0.723 0.544,-0.652 0.544,-0.512C0.544,-0.469 0.531,-0.431 0.506,-0.396C0.481,-0.361 0.45,-0.337 0.412,-0.322L0.623,0L0.477,0ZM0.205,-0.605L0.205,-0.406C0.229,-0.404 0.246,-0.403 0.259,-0.403C0.312,-0.403 0.351,-0.411 0.375,-0.426C0.4,-0.441 0.412,-0.47 0.412,-0.513C0.412,-0.548 0.399,-0.573 0.373,-0.587C0.346,-0.601 0.305,-0.608 0.248,-0.608C0.234,-0.608 0.22,-0.607 0.205,-0.605Z" style="fill-rule:nonzero;"/>
            </g>
            <g transform="matrix(6.4,0,0,6.4,45.3745,51.8924)">
                <path d="M0.542,0.01L0.195,-0.443L0.195,0L0.073,0L0.073,-0.715L0.134,-0.715L0.472,-0.284L0.472,-0.715L0.594,-0.715L0.594,0.01L0.542,0.01Z" style="fill-rule:nonzero;"/>
            </g>
        </g>
        <g transform="matrix(1.198,0,0,0.958552,923.21,9.33878)">
            <g transform="matrix(6.4,0,0,6.4,32.828,51.8924)">
                <path d="M0.364,-0.603L0.364,0L0.237,0L0.237,-0.603L0.01,-0.603L0.01,-0.715L0.602,-0.715L0.602,-0.603L0.364,-0.603Z" style="fill-rule:nonzero;"/>
            </g>
            <g transform="matrix(6.4,0,0,6.4,36.8716,51.8924)">
                <path d="M0.073,-0.715L0.2,-0.715L0.2,-0.23C0.2,-0.192 0.212,-0.161 0.235,-0.137C0.259,-0.113 0.291,-0.101 0.332,-0.101C0.378,-0.101 0.414,-0.112 0.439,-0.136C0.465,-0.16 0.478,-0.192 0.478,-0.233L0.478,-0.715L0.604,-0.715L0.604,-0.223C0.604,-0.15 0.58,-0.092 0.531,-0.05C0.481,-0.009 0.415,0.012 0.333,0.012C0.25,0.012 0.186,-0.008 0.141,-0.049C0.096,-0.09 0.073,-0.148 0.073,-0.224L0.073,-0.715Z" style="fill-rule:nonzero;"/>
            </g>
            <g transform="matrix(6.4,0,0,6.4,41.3371,51.8924)">
                <path d="M0.477,0L0.286,-0.295C0.266,-0.296 0.24,-0.297 0.205,-0.299L0.205,0L0.073,0L0.073,-0.715C0.08,-0.715 0.108,-0.717 0.156,-0.719C0.204,-0.721 0.242,-0.723 0.271,-0.723C0.453,-0.723 0.544,-0.652 0.544,-0.512C0.544,-0.469 0.531,-0.431 0.506,-0.396C0.481,-0.361 0.45,-0.337 0.412,-0.322L0.623,0L0.477,0ZM0.205,-0.605L0.205,-0.406C0.229,-0.404 0.246,-0.403 0.259,-0.403C0.312,-0.403 0.351,-0.411 0.375,-0.426C0.4,-0.441 0.412,-0.47 0.412,-0.513C0.412,-0.548 0.399,-0.573 0.373,-0.587C0.346,-0.601 0.305,-0.608 0.248,-0.608C0.234,-0.608 0.22,-0.607 0.205,-0.605Z" style="fill-rule:nonzero;"/>
            </g>
            <g transform="matrix(6.4,0,0,6.4,45.3745,51.8924)">
                <path d="M0.542,0.01L0.195,-0.443L0.195,0L0.073,0L0.073,-0.715L0.134,-0.715L0.472,-0.284L0.472,-0.715L0.594,-0.715L0.594,0.01L0.542,0.01Z" style="fill-rule:nonzero;"/>
            </g>
        </g>
        <g transform="matrix(1.198,0,0,0.958552,1157.14,9.33878)">
            <g transform="matrix(6.4,0,0,6.4,34.0936,51.8924)">
                <path d="M0.364,-0.603L0.364,0L0.237,0L0.237,-0.603L0.01,-0.603L0.01,-0.715L0.602,-0.715L0.602,-0.603L0.364,-0.603Z" style="fill:white;fill-opacity:0.9;fill-rule:nonzero;"/>
            </g>
            <g transform="matrix(6.4,0,0,6.4,38.1372,51.8924)">
                <path d="M0.477,0L0.286,-0.295C0.266,-0.296 0.24,-0.297 0.205,-0.299L0.205,0L0.073,0L0.073,-0.715C0.08,-0.715 0.108,-0.717 0.156,-0.719C0.204,-0.721 0.242,-0.723 0.271,-0.723C0.453,-0.723 0.544,-0.652 0.544,-0.512C0.544,-0.469 0.531,-0.431 0.506,-0.396C0.481,-0.361 0.45,-0.337 0.412,-0.322L0.623,0L0.477,0ZM0.205,-0.605L0.205,-0.406C0.229,-0.404 0.246,-0.403 0.259,-0.403C0.312,-0.403 0.351,-0.411 0.375,-0.426C0.4,-0.441 0.412,-0.47 0.412,-0.513C0.412,-0.548 0.399,-0.573 0.373,-0.587C0.346,-0.601 0.305,-0.608 0.248,-0.608C0.234,-0.608 0.22,-0.607 0.205,-0.605Z" style="fill:white;fill-opacity:0.9;fill-rule:nonzero;"/>
            </g>
            <g transform="matrix(6.4,0,0,6.4,42.1746,51.8924)">
                <rect x="0.076" y="-0.715" width="0.127" height="0.715" style="fill:white;fill-opacity:0.9;fill-rule:nonzero;"/>
            </g>
            <g transform="matrix(6.4,0,0,6.4,44.0839,51.8924)">
                <path d="M0.602,-0.657L0.548,-0.555C0.533,-0.569 0.51,-0.582 0.479,-0.595C0.448,-0.608 0.421,-0.615 0.398,-0.615C0.328,-0.615 0.273,-0.591 0.232,-0.543C0.191,-0.496 0.171,-0.432 0.171,-0.352C0.171,-0.275 0.191,-0.215 0.231,-0.169C0.271,-0.123 0.325,-0.101 0.394,-0.101C0.439,-0.101 0.476,-0.113 0.505,-0.138L0.505,-0.278L0.406,-0.278L0.406,-0.387L0.632,-0.387L0.632,-0.066C0.602,-0.042 0.563,-0.022 0.515,-0.009C0.468,0.005 0.42,0.012 0.373,0.012C0.271,0.012 0.189,-0.021 0.129,-0.089C0.069,-0.156 0.039,-0.245 0.039,-0.355C0.039,-0.465 0.072,-0.555 0.137,-0.624C0.203,-0.693 0.291,-0.728 0.401,-0.728C0.48,-0.728 0.547,-0.704 0.602,-0.657Z" style="fill:white;fill-opacity:0.9;fill-rule:nonzero;"/>
            </g>
        </g>
        <g transform="matrix(1.198,0,0,0.958552,885.982,9.33878)">
            <g transform="matrix(6.4,0,0,6.4,34.0936,51.8924)">
                <path d="M0.364,-0.603L0.364,0L0.237,0L0.237,-0.603L0.01,-0.603L0.01,-0.715L0.602,-0.715L0.602,-0.603L0.364,-0.603Z" style="fill:white;fill-opacity:0.9;fill-rule:nonzero;"/>
            </g>
            <g transform="matrix(6.4,0,0,6.4,38.1372,51.8924)">
                <path d="M0.477,0L0.286,-0.295C0.266,-0.296 0.24,-0.297 0.205,-0.299L0.205,0L0.073,0L0.073,-0.715C0.08,-0.715 0.108,-0.717 0.156,-0.719C0.204,-0.721 0.242,-0.723 0.271,-0.723C0.453,-0.723 0.544,-0.652 0.544,-0.512C0.544,-0.469 0.531,-0.431 0.506,-0.396C0.481,-0.361 0.45,-0.337 0.412,-0.322L0.623,0L0.477,0ZM0.205,-0.605L0.205,-0.406C0.229,-0.404 0.246,-0.403 0.259,-0.403C0.312,-0.403 0.351,-0.411 0.375,-0.426C0.4,-0.441 0.412,-0.47 0.412,-0.513C0.412,-0.548 0.399,-0.573 0.373,-0.587C0.346,-0.601 0.305,-0.608 0.248,-0.608C0.234,-0.608 0.22,-0.607 0.205,-0.605Z" style="fill:white;fill-opacity:0.9;fill-rule:nonzero;"/>
            </g>
            <g transform="matrix(6.4,0,0,6.4,42.1746,51.8924)">
                <rect x="0.076" y="-0.715" width="0.127" height="0.715" style="fill:white;fill-opacity:0.9;fill-rule:nonzero;"/>
            </g>
            <g transform="matrix(6.4,0,0,6.4,44.0839,51.8924)">
                <path d="M0.602,-0.657L0.548,-0.555C0.533,-0.569 0.51,-0.582 0.479,-0.595C0.448,-0.608 0.421,-0.615 0.398,-0.615C0.328,-0.615 0.273,-0.591 0.232,-0.543C0.191,-0.496 0.171,-0.432 0.171,-0.352C0.171,-0.275 0.191,-0.215 0.231,-0.169C0.271,-0.123 0.325,-0.101 0.394,-0.101C0.439,-0.101 0.476,-0.113 0.505,-0.138L0.505,-0.278L0.406,-0.278L0.406,-0.387L0.632,-0.387L0.632,-0.066C0.602,-0.042 0.563,-0.022 0.515,-0.009C0.468,0.005 0.42,0.012 0.373,0.012C0.271,0.012 0.189,-0.021 0.129,-0.089C0.069,-0.156 0.039,-0.245 0.039,-0.355C0.039,-0.465 0.072,-0.555 0.137,-0.624C0.203,-0.693 0.291,-0.728 0.401,-0.728C0.48,-0.728 0.547,-0.704 0.602,-0.657Z" style="fill:white;fill-opacity:0.9;fill-rule:nonzero;"/>
            </g>
        </g>
        <g transform="matrix(1.198,0,0,0.958552,1190.49,9.33878)">
            <g transform="matrix(6.4,0,0,6.4,37.2263,51.8924)">
                <path d="M0.563,-0.677L0.511,-0.572C0.483,-0.601 0.437,-0.615 0.375,-0.615C0.315,-0.615 0.266,-0.59 0.228,-0.54C0.19,-0.49 0.171,-0.427 0.171,-0.35C0.171,-0.274 0.189,-0.213 0.224,-0.168C0.259,-0.123 0.306,-0.101 0.365,-0.101C0.433,-0.101 0.485,-0.125 0.523,-0.173L0.583,-0.07C0.531,-0.015 0.455,0.012 0.355,0.012C0.255,0.012 0.177,-0.021 0.122,-0.086C0.067,-0.152 0.039,-0.242 0.039,-0.355C0.039,-0.461 0.07,-0.55 0.131,-0.621C0.192,-0.692 0.271,-0.728 0.367,-0.728C0.449,-0.728 0.514,-0.711 0.563,-0.677Z" style="fill:white;fill-opacity:0.9;fill-rule:nonzero;"/>
            </g>
            <g transform="matrix(6.4,0,0,6.4,41.2699,51.8924)">
                <path d="M0.34,0.01L0.27,0.01L0.002,-0.715L0.142,-0.715L0.308,-0.232L0.482,-0.715L0.619,-0.715L0.34,0.01Z" style="fill:white;fill-opacity:0.9;fill-rule:nonzero;"/>
            </g>
        </g>
        <g transform="matrix(1.198,0,0,0.958552,852.131,9.33878)">
            <g transform="matrix(6.4,0,0,6.4,37.2263,51.8924)">
                <path d="M0.563,-0.677L0.511,-0.572C0.483,-0.601 0.437,-0.615 0.375,-0.615C0.315,-0.615 0.266,-0.59 0.228,-0.54C0.19,-0.49 0.171,-0.427 0.171,-0.35C0.171,-0.274 0.189,-0.213 0.224,-0.168C0.259,-0.123 0.306,-0.101 0.365,-0.101C0.433,-0.101 0.485,-0.125 0.523,-0.173L0.583,-0.07C0.531,-0.015 0.455,0.012 0.355,0.012C0.255,0.012 0.177,-0.021 0.122,-0.086C0.067,-0.152 0.039,-0.242 0.039,-0.355C0.039,-0.461 0.07,-0.55 0.131,-0.621C0.192,-0.692 0.271,-0.728 0.367,-0.728C0.449,-0.728 0.514,-0.711 0.563,-0.677Z" style="fill:white;fill-opacity:0.9;fill-rule:nonzero;"/>
            </g>
            <g transform="matrix(6.4,0,0,6.4,41.2699,51.8924)">
                <path d="M0.34,0.01L0.27,0.01L0.002,-0.715L0.142,-0.715L0.308,-0.232L0.482,-0.715L0.619,-0.715L0.34,0.01Z" style="fill:white;fill-opacity:0.9;fill-rule:nonzero;"/>
            </g>
        </g>
        <g transform="matrix(1.198,0,0,0.958552,1190.44,-59.4405)">
            <g transform="matrix(6.4,0,0,6.4,29.111,51.8924)">
                <path d="M0.039,-0.04L0.086,-0.153C0.136,-0.118 0.185,-0.101 0.234,-0.101C0.308,-0.101 0.346,-0.127 0.346,-0.179C0.346,-0.203 0.337,-0.226 0.319,-0.249C0.302,-0.271 0.266,-0.295 0.211,-0.323C0.156,-0.351 0.119,-0.373 0.1,-0.391C0.081,-0.409 0.066,-0.43 0.056,-0.454C0.046,-0.479 0.041,-0.506 0.041,-0.535C0.041,-0.59 0.061,-0.636 0.101,-0.673C0.142,-0.709 0.194,-0.728 0.257,-0.728C0.34,-0.728 0.401,-0.712 0.439,-0.681L0.401,-0.572C0.356,-0.604 0.309,-0.62 0.26,-0.62C0.23,-0.62 0.208,-0.612 0.192,-0.596C0.176,-0.581 0.167,-0.561 0.167,-0.536C0.167,-0.495 0.213,-0.452 0.304,-0.408C0.352,-0.385 0.386,-0.363 0.407,-0.344C0.428,-0.324 0.444,-0.301 0.456,-0.275C0.467,-0.248 0.472,-0.219 0.472,-0.187C0.472,-0.129 0.449,-0.081 0.404,-0.044C0.358,-0.007 0.297,0.012 0.22,0.012C0.153,0.012 0.093,-0.005 0.039,-0.04Z" style="fill-rule:nonzero;"/>
            </g>
            <g transform="matrix(6.4,0,0,6.4,32.5109,51.8924)">
                <path d="M0.485,0L0.485,-0.322L0.2,-0.322L0.2,0L0.073,0L0.073,-0.715L0.2,-0.715L0.2,-0.435L0.485,-0.435L0.485,-0.715L0.61,-0.715L0.61,0L0.485,0Z" style="fill-rule:nonzero;"/>
            </g>
            <g transform="matrix(6.4,0,0,6.4,37.0139,51.8924)">
                <rect x="0.076" y="-0.715" width="0.127" height="0.715" style="fill-rule:nonzero;"/>
            </g>
            <g transform="matrix(6.4,0,0,6.4,38.9231,51.8924)">
                <path d="M0.2,-0.603L0.2,-0.435L0.452,-0.435L0.452,-0.327L0.2,-0.327L0.2,0L0.073,0L0.073,-0.715L0.544,-0.715L0.544,-0.603L0.2,-0.603Z" style="fill-rule:nonzero;"/>
            </g>
            <g transform="matrix(6.4,0,0,6.4,42.7855,51.8924)">
                <path d="M0.364,-0.603L0.364,0L0.237,0L0.237,-0.603L0.01,-0.603L0.01,-0.715L0.602,-0.715L0.602,-0.603L0.364,-0.603Z" style="fill-rule:nonzero;"/>
            </g>
            <g transform="matrix(6.4,0,0,6.4,46.8291,51.8924)">
                <path d="M0.118,0L0.008,0L0.278,-0.718L0.387,-0.718L0.118,0Z" style="fill-rule:nonzero;"/>
            </g>
            <g transform="matrix(6.4,0,0,6.4,49.454,51.8924)">
                <path d="M0.477,0L0.286,-0.295C0.266,-0.296 0.24,-0.297 0.205,-0.299L0.205,0L0.073,0L0.073,-0.715C0.08,-0.715 0.108,-0.717 0.156,-0.719C0.204,-0.721 0.242,-0.723 0.271,-0.723C0.453,-0.723 0.544,-0.652 0.544,-0.512C0.544,-0.469 0.531,-0.431 0.506,-0.396C0.481,-0.361 0.45,-0.337 0.412,-0.322L0.623,0L0.477,0ZM0.205,-0.605L0.205,-0.406C0.229,-0.404 0.246,-0.403 0.259,-0.403C0.312,-0.403 0.351,-0.411 0.375,-0.426C0.4,-0.441 0.412,-0.47 0.412,-0.513C0.412,-0.548 0.399,-0.573 0.373,-0.587C0.346,-0.601 0.305,-0.608 0.248,-0.608C0.234,-0.608 0.22,-0.607 0.205,-0.605Z" style="fill-rule:nonzero;"/>
            </g>
        </g>
        <g transform="matrix(1.198,0,0,0.958552,1043.27,9.33878)">
            <g transform="matrix(6.4,0,0,6.4,31.7921,51.8924)">
                <path d="M0.477,0L0.286,-0.295C0.266,-0.296 0.24,-0.297 0.205,-0.299L0.205,0L0.073,0L0.073,-0.715C0.08,-0.715 0.108,-0.717 0.156,-0.719C0.204,-0.721 0.242,-0.723 0.271,-0.723C0.453,-0.723 0.544,-0.652 0.544,-0.512C0.544,-0.469 0.531,-0.431 0.506,-0.396C0.481,-0.361 0.45,-0.337 0.412,-0.322L0.623,0L0.477,0ZM0.205,-0.605L0.205,-0.406C0.229,-0.404 0.246,-0.403 0.259,-0.403C0.312,-0.403 0.351,-0.411 0.375,-0.426C0.4,-0.441 0.412,-0.47 0.412,-0.513C0.412,-0.548 0.399,-0.573 0.373,-0.587C0.346,-0.601 0.305,-0.608 0.248,-0.608C0.234,-0.608 0.22,-0.607 0.205,-0.605Z" style="fill-rule:nonzero;"/>
            </g>
            <g transform="matrix(6.4,0,0,6.4,35.8295,51.8924)">
                <path d="M0.2,-0.603L0.2,-0.435L0.437,-0.435L0.437,-0.327L0.2,-0.327L0.2,-0.113L0.524,-0.113L0.524,0L0.073,0L0.073,-0.715L0.53,-0.715L0.53,-0.603L0.2,-0.603Z" style="fill-rule:nonzero;"/>
            </g>
            <g transform="matrix(6.4,0,0,6.4,39.5981,51.8924)">
                <path d="M0.039,-0.04L0.086,-0.153C0.136,-0.118 0.185,-0.101 0.234,-0.101C0.308,-0.101 0.346,-0.127 0.346,-0.179C0.346,-0.203 0.337,-0.226 0.319,-0.249C0.302,-0.271 0.266,-0.295 0.211,-0.323C0.156,-0.351 0.119,-0.373 0.1,-0.391C0.081,-0.409 0.066,-0.43 0.056,-0.454C0.046,-0.479 0.041,-0.506 0.041,-0.535C0.041,-0.59 0.061,-0.636 0.101,-0.673C0.142,-0.709 0.194,-0.728 0.257,-0.728C0.34,-0.728 0.401,-0.712 0.439,-0.681L0.401,-0.572C0.356,-0.604 0.309,-0.62 0.26,-0.62C0.23,-0.62 0.208,-0.612 0.192,-0.596C0.176,-0.581 0.167,-0.561 0.167,-0.536C0.167,-0.495 0.213,-0.452 0.304,-0.408C0.352,-0.385 0.386,-0.363 0.407,-0.344C0.428,-0.324 0.444,-0.301 0.456,-0.275C0.467,-0.248 0.472,-0.219 0.472,-0.187C0.472,-0.129 0.449,-0.081 0.404,-0.044C0.358,-0.007 0.297,0.012 0.22,0.012C0.153,0.012 0.093,-0.005 0.039,-0.04Z" style="fill-rule:nonzero;"/>
            </g>
            <g transform="matrix(6.4,0,0,6.4,42.998,51.8924)">
                <path d="M0.2,-0.603L0.2,-0.435L0.437,-0.435L0.437,-0.327L0.2,-0.327L0.2,-0.113L0.524,-0.113L0.524,0L0.073,0L0.073,-0.715L0.53,-0.715L0.53,-0.603L0.2,-0.603Z" style="fill-rule:nonzero;"/>
            </g>
            <g transform="matrix(6.4,0,0,6.4,46.7666,51.8924)">
                <path d="M0.364,-0.603L0.364,0L0.237,0L0.237,-0.603L0.01,-0.603L0.01,-0.715L0.602,-0.715L0.602,-0.603L0.364,-0.603Z" style="fill-rule:nonzero;"/>
            </g>
        </g>
        <g transform="matrix(1.198,0,0,0.958552,999.116,9.33878)">
            <g transform="matrix(6.4,0,0,6.4,31.7921,51.8924)">
                <path d="M0.477,0L0.286,-0.295C0.266,-0.296 0.24,-0.297 0.205,-0.299L0.205,0L0.073,0L0.073,-0.715C0.08,-0.715 0.108,-0.717 0.156,-0.719C0.204,-0.721 0.242,-0.723 0.271,-0.723C0.453,-0.723 0.544,-0.652 0.544,-0.512C0.544,-0.469 0.531,-0.431 0.506,-0.396C0.481,-0.361 0.45,-0.337 0.412,-0.322L0.623,0L0.477,0ZM0.205,-0.605L0.205,-0.406C0.229,-0.404 0.246,-0.403 0.259,-0.403C0.312,-0.403 0.351,-0.411 0.375,-0.426C0.4,-0.441 0.412,-0.47 0.412,-0.513C0.412,-0.548 0.399,-0.573 0.373,-0.587C0.346,-0.601 0.305,-0.608 0.248,-0.608C0.234,-0.608 0.22,-0.607 0.205,-0.605Z" style="fill-rule:nonzero;"/>
            </g>
            <g transform="matrix(6.4,0,0,6.4,35.8295,51.8924)">
                <path d="M0.2,-0.603L0.2,-0.435L0.437,-0.435L0.437,-0.327L0.2,-0.327L0.2,-0.113L0.524,-0.113L0.524,0L0.073,0L0.073,-0.715L0.53,-0.715L0.53,-0.603L0.2,-0.603Z" style="fill-rule:nonzero;"/>
            </g>
            <g transform="matrix(6.4,0,0,6.4,39.5981,51.8924)">
                <path d="M0.039,-0.04L0.086,-0.153C0.136,-0.118 0.185,-0.101 0.234,-0.101C0.308,-0.101 0.346,-0.127 0.346,-0.179C0.346,-0.203 0.337,-0.226 0.319,-0.249C0.302,-0.271 0.266,-0.295 0.211,-0.323C0.156,-0.351 0.119,-0.373 0.1,-0.391C0.081,-0.409 0.066,-0.43 0.056,-0.454C0.046,-0.479 0.041,-0.506 0.041,-0.535C0.041,-0.59 0.061,-0.636 0.101,-0.673C0.142,-0.709 0.194,-0.728 0.257,-0.728C0.34,-0.728 0.401,-0.712 0.439,-0.681L0.401,-0.572C0.356,-0.604 0.309,-0.62 0.26,-0.62C0.23,-0.62 0.208,-0.612 0.192,-0.596C0.176,-0.581 0.167,-0.561 0.167,-0.536C0.167,-0.495 0.213,-0.452 0.304,-0.408C0.352,-0.385 0.386,-0.363 0.407,-0.344C0.428,-0.324 0.444,-0.301 0.456,-0.275C0.467,-0.248 0.472,-0.219 0.472,-0.187C0.472,-0.129 0.449,-0.081 0.404,-0.044C0.358,-0.007 0.297,0.012 0.22,0.012C0.153,0.012 0.093,-0.005 0.039,-0.04Z" style="fill-rule:nonzero;"/>
            </g>
            <g transform="matrix(6.4,0,0,6.4,42.998,51.8924)">
                <path d="M0.2,-0.603L0.2,-0.435L0.437,-0.435L0.437,-0.327L0.2,-0.327L0.2,-0.113L0.524,-0.113L0.524,0L0.073,0L0.073,-0.715L0.53,-0.715L0.53,-0.603L0.2,-0.603Z" style="fill-rule:nonzero;"/>
            </g>
            <g transform="matrix(6.4,0,0,6.4,46.7666,51.8924)">
                <path d="M0.364,-0.603L0.364,0L0.237,0L0.237,-0.603L0.01,-0.603L0.01,-0.715L0.602,-0.715L0.602,-0.603L0.364,-0.603Z" style="fill-rule:nonzero;"/>
            </g>
        </g>
        <g transform="matrix(1.0256e-16,-1.34016,0.564562,2.76599e-17,1055.86,106.486)">
            <path d="M25.865,67.757C25.865,66.586 25.544,65.635 25.149,65.635L23.719,65.635C23.324,65.635 23.004,66.586 23.004,67.757L23.004,324.255C23.004,325.426 23.324,326.377 23.719,326.377L25.149,326.377C25.544,326.377 25.865,325.426 25.865,324.255L25.865,67.757Z" style="fill:white;fill-opacity:0.4;"/>
        </g>
        <g transform="matrix(1.0256e-16,-1.34016,0.564239,2.76441e-17,1055.88,72.7775)">
            <path d="M25.865,67.758C25.865,66.587 25.544,65.635 25.149,65.635L23.719,65.635C23.324,65.635 23.004,66.587 23.004,67.758L23.004,324.254C23.004,325.426 23.324,326.377 23.719,326.377L25.149,326.377C25.544,326.377 25.865,325.426 25.865,324.254L25.865,67.758Z" style="fill:white;fill-opacity:0.4;"/>
        </g>
        <g transform="matrix(1.0256e-16,-1.34016,0.56664,2.77617e-17,864.407,106.486)">
            <path d="M25.865,67.749C25.865,66.583 25.544,65.635 25.149,65.635L23.719,65.635C23.324,65.635 23.004,66.583 23.004,67.749L23.004,324.263C23.004,325.43 23.324,326.377 23.719,326.377L25.149,326.377C25.544,326.377 25.865,325.43 25.865,324.263L25.865,67.749Z" style="fill:white;fill-opacity:0.4;"/>
        </g>
        <g transform="matrix(1.0256e-16,-1.34016,0.56664,2.77617e-17,864.136,72.7775)">
            <path d="M25.865,67.749C25.865,66.583 25.544,65.635 25.149,65.635L23.719,65.635C23.324,65.635 23.004,66.583 23.004,67.749L23.004,324.263C23.004,325.43 23.324,326.377 23.719,326.377L25.149,326.377C25.544,326.377 25.865,325.43 25.865,324.263L25.865,67.749Z" style="fill:white;fill-opacity:0.4;"/>
        </g>
        <g transform="matrix(1.67956,0,0,2.2268,1111.91,-435.108)">
            <ellipse cx="21.24" cy="213.374" rx="2.14" ry="1.291" style="fill:rgb(0,216,227);stroke:white;stroke-opacity:0.1;stroke-width:0.31px;stroke-linecap:butt;"/>
        </g>
        <g transform="matrix(1.67956,0,0,2.2268,1111.91,-401.4)">
            <ellipse cx="21.24" cy="213.374" rx="2.14" ry="1.291" style="fill:rgb(66,13,242);stroke:white;stroke-opacity:0.1;stroke-width:0.31px;stroke-linecap:butt;"/>
        </g>
        <g transform="matrix(1.67956,0,0,2.2268,958.45,-435.108)">
            <ellipse cx="21.24" cy="213.374" rx="2.14" ry="1.291" style="fill:rgb(229,242,13);stroke:white;stroke-opacity:0.1;stroke-width:0.31px;stroke-linecap:butt;"/>
        </g>
        <g transform="matrix(1.67956,0,0,2.2268,958.45,-401.4)">
            <ellipse cx="21.24" cy="213.374" rx="2.14" ry="1.291" style="fill:rgb(242,13,13);stroke:white;stroke-opacity:0.1;stroke-width:0.31px;stroke-linecap:butt;"/>
        </g>
        <g transform="matrix(0.531684,0,0,1.40341,880.873,-97.7251)">
            <path d="M73.138,59.656C73.138,58.148 69.099,56.924 64.125,56.924L14.12,56.924C9.145,56.924 5.107,58.148 5.107,59.656L5.107,80.972C5.107,82.48 9.145,83.704 14.12,83.704L64.125,83.704C69.099,83.704 73.138,82.48 73.138,80.972L73.138,59.656Z" style="fill:white;fill-opacity:0.5;"/>
        </g>
        <g transform="matrix(1.198,0,0,0.958552,852.234,-59.4405)">
            <g transform="matrix(6.4,0,0,6.4,29.2969,51.8924)">
                <path d="M0.039,-0.04L0.086,-0.153C0.136,-0.118 0.185,-0.101 0.234,-0.101C0.308,-0.101 0.346,-0.127 0.346,-0.179C0.346,-0.203 0.337,-0.226 0.319,-0.249C0.302,-0.271 0.266,-0.295 0.211,-0.323C0.156,-0.351 0.119,-0.373 0.1,-0.391C0.081,-0.409 0.066,-0.43 0.056,-0.454C0.046,-0.479 0.041,-0.506 0.041,-0.535C0.041,-0.59 0.061,-0.636 0.101,-0.673C0.142,-0.709 0.194,-0.728 0.257,-0.728C0.34,-0.728 0.401,-0.712 0.439,-0.681L0.401,-0.572C0.356,-0.604 0.309,-0.62 0.26,-0.62C0.23,-0.62 0.208,-0.612 0.192,-0.596C0.176,-0.581 0.167,-0.561 0.167,-0.536C0.167,-0.495 0.213,-0.452 0.304,-0.408C0.352,-0.385 0.386,-0.363 0.407,-0.344C0.428,-0.324 0.444,-0.301 0.456,-0.275C0.467,-0.248 0.472,-0.219 0.472,-0.187C0.472,-0.129 0.449,-0.081 0.404,-0.044C0.358,-0.007 0.297,0.012 0.22,0.012C0.153,0.012 0.093,-0.005 0.039,-0.04Z" style="fill-rule:nonzero;"/>
            </g>
            <g transform="matrix(6.4,0,0,6.4,32.6968,51.8924)">
                <path d="M0.485,0L0.485,-0.322L0.2,-0.322L0.2,0L0.073,0L0.073,-0.715L0.2,-0.715L0.2,-0.435L0.485,-0.435L0.485,-0.715L0.61,-0.715L0.61,0L0.485,0Z" style="fill-rule:nonzero;"/>
            </g>
            <g transform="matrix(6.4,0,0,6.4,37.1998,51.8924)">
                <rect x="0.076" y="-0.715" width="0.127" height="0.715" style="fill-rule:nonzero;"/>
            </g>
            <g transform="matrix(6.4,0,0,6.4,39.1091,51.8924)">
                <path d="M0.2,-0.603L0.2,-0.435L0.452,-0.435L0.452,-0.327L0.2,-0.327L0.2,0L0.073,0L0.073,-0.715L0.544,-0.715L0.544,-0.603L0.2,-0.603Z" style="fill-rule:nonzero;"/>
            </g>
            <g transform="matrix(6.4,0,0,6.4,42.9714,51.8924)">
                <path d="M0.364,-0.603L0.364,0L0.237,0L0.237,-0.603L0.01,-0.603L0.01,-0.715L0.602,-0.715L0.602,-0.603L0.364,-0.603Z" style="fill-rule:nonzero;"/>
            </g>
            <g transform="matrix(6.4,0,0,6.4,47.0151,51.8924)">
                <path d="M0.118,0L0.008,0L0.278,-0.718L0.387,-0.718L0.118,0Z" style="fill-rule:nonzero;"/>
            </g>
            <g transform="matrix(6.4,0,0,6.4,49.6399,51.8924)">
                <path d="M0.073,0L0.073,-0.715L0.2,-0.715L0.2,-0.113L0.523,-0.113L0.523,0L0.073,0Z" style="fill-rule:nonzero;"/>
            </g>
        </g>
        <g>
            <g transform="matrix(1.21494,0,0,0.968684,891.27,-241.618)">
                <path d="M16.081,44.283L8.714,44.283L16.081,44.283Z" style="fill:none;stroke:rgb(153,153,153);stroke-width:0.49px;"/>
            </g>
            <g transform="matrix(1.21494,0,0,0.968684,900.221,-241.618)">
                <rect x="8.714" y="44.283" width="7.368" height="7.394" style="fill:none;stroke:rgb(153,153,153);stroke-width:0.49px;"/>
            </g>
            <g transform="matrix(1.21494,0,0,0.968684,873.33,-234.456)">
                <path d="M16.081,44.283L8.714,44.283L8.714,51.677L16.081,51.677" style="fill:none;stroke:rgb(153,153,153);stroke-width:0.49px;"/>
            </g>
            <g transform="matrix(1.21494,0,0,0.968684,873.33,-227.294)">
                <rect x="8.714" y="44.283" width="7.368" height="7.394" style="fill:none;stroke:rgb(153,153,153);stroke-width:0.49px;"/>
            </g>
            <g transform="matrix(1.21494,0,0,0.968684,891.27,-227.294)">
                <path d="M16.081,44.283L8.714,44.283" style="fill:none;stroke:rgb(153,153,153);stroke-width:0.49px;"/>
            </g>
            <g transform="matrix(1.21494,0,0,0.968684,891.27,-227.294)">
                <path d="M8.714,51.677L16.081,51.677L16.081,44.283" style="fill:none;stroke:rgb(153,153,153);stroke-width:0.49px;"/>
            </g>
            <g transform="matrix(1.21494,0,0,0.968684,882.281,-220.132)">
                <rect x="8.714" y="44.283" width="7.368" height="7.394" style="fill:none;stroke:rgb(153,153,153);stroke-width:0.49px;"/>
            </g>
            <g transform="matrix(1.21494,0,0,0.968684,900.221,-220.132)">
                <rect x="8.714" y="44.283" width="7.368" height="7.394" style="fill:none;stroke:rgb(153,153,153);stroke-width:0.49px;"/>
            </g>
            <g transform="matrix(1.21494,0,0,0.968684,873.33,-212.969)">
                <path d="M16.081,44.283L8.714,44.283L8.714,51.677L16.081,51.677" style="fill:none;stroke:rgb(153,153,153);stroke-width:0.49px;"/>
            </g>
            <g transform="matrix(1.21494,0,0,0.968684,900.221,-212.969)">
                <path d="M16.081,44.283L8.714,44.283L8.714,51.677" style="fill:none;stroke:rgb(153,153,153);stroke-width:0.49px;"/>
            </g>
            <g transform="matrix(1.21494,0,0,0.968684,900.221,-205.807)">
                <path d="M8.714,51.677L16.081,51.677L16.081,44.283L8.714,44.283" style="fill:none;stroke:rgb(153,153,153);stroke-width:0.49px;"/>
            </g>
            <g transform="matrix(1.21494,0,0,0.968684,873.33,-198.645)">
                <rect x="8.714" y="44.283" width="7.368" height="7.394" style="fill:none;stroke:rgb(153,153,153);stroke-width:0.49px;"/>
            </g>
            <g transform="matrix(1.21494,0,0,0.968684,882.281,-198.645)">
                <rect x="8.714" y="44.283" width="7.368" height="7.394" style="fill:none;stroke:rgb(153,153,153);stroke-width:0.49px;"/>
            </g>
            <g transform="matrix(1.21494,0,0,0.968684,891.27,-198.645)">
                <path d="M16.081,51.677L16.081,44.283L8.714,44.283" style="fill:none;stroke:rgb(153,153,153);stroke-width:0.49px;"/>
            </g>
            <g transform="matrix(1.21494,0,0,0.968684,873.33,-184.321)">
                <rect x="8.714" y="44.283" width="7.368" height="7.394" style="fill:none;stroke:rgb(153,153,153);stroke-width:0.49px;"/>
            </g>
            <g transform="matrix(1.21494,0,0,0.968684,900.221,-184.321)">
                <rect x="8.714" y="44.283" width="7.368" height="7.394" style="fill:none;stroke:rgb(153,153,153);stroke-width:0.49px;"/>
            </g>
            <g transform="matrix(1.21494,0,0,0.968684,882.281,-177.159)">
                <rect x="8.714" y="44.283" width="7.368" height="7.394" style="fill:none;stroke:rgb(153,153,153);stroke-width:0.49px;"/>
            </g>
            <g transform="matrix(1.21494,0,0,0.968684,900.221,-177.159)">
                <path d="M8.714,51.677L16.081,51.677L16.081,44.283L8.714,44.283" style="fill:none;stroke:rgb(153,153,153);stroke-width:0.49px;"/>
            </g>
            <g transform="matrix(1.21494,0,0,0.968684,873.33,-169.997)">
                <rect x="8.714" y="44.283" width="7.368" height="7.394" style="fill:none;stroke:rgb(153,153,153);stroke-width:0.49px;"/>
            </g>
            <g transform="matrix(1.21494,0,0,0.968684,873.33,-162.834)">
                <path d="M16.081,51.677L16.081,44.283L8.714,44.283L8.714,51.677" style="fill:none;stroke:rgb(153,153,153);stroke-width:0.49px;"/>
            </g>
            <g transform="matrix(1.21494,0,0,0.968684,900.221,-162.834)">
                <path d="M8.714,51.677L16.081,51.677L16.081,44.283L8.714,44.283" style="fill:none;stroke:rgb(153,153,153);stroke-width:0.49px;"/>
            </g>
            <g transform="matrix(1.21494,0,0,0.968684,900.221,-155.672)">
                <rect x="8.714" y="44.283" width="7.368" height="7.394" style="fill:none;stroke:rgb(153,153,153);stroke-width:0.49px;"/>
            </g>
            <g transform="matrix(1.21494,0,0,0.968684,891.27,-148.51)">
                <rect x="8.714" y="44.283" width="7.368" height="7.394" style="fill:none;stroke:rgb(153,153,153);stroke-width:0.49px;"/>
            </g>
            <g transform="matrix(1.21494,0,0,0.968684,873.33,-141.348)">
                <rect x="8.714" y="44.283" width="7.368" height="7.394" style="fill:none;stroke:rgb(153,153,153);stroke-width:0.49px;"/>
            </g>
            <g transform="matrix(1.21494,0,0,0.968684,882.281,-155.672)">
                <rect x="8.714" y="44.283" width="7.368" height="7.394" style="fill:none;stroke:rgb(153,153,153);stroke-width:0.49px;"/>
            </g>
            <g transform="matrix(1.21494,0,0,0.968684,891.27,-141.348)">
                <path d="M8.714,51.677L8.714,44.283L8.714,51.677" style="fill:none;stroke:rgb(153,153,153);stroke-width:0.49px;"/>
            </g>
            <g transform="matrix(1.21494,0,0,0.968684,900.221,-141.348)">
                <path d="M16.081,51.677L16.081,44.283L8.714,44.283L8.714,51.677" style="fill:none;stroke:rgb(153,153,153);stroke-width:0.49px;"/>
            </g>
            <g transform="matrix(1.21494,0,0,0.968684,882.319,-134.186)">
                <path d="M16.081,51.677L16.081,44.283L8.714,44.283" style="fill:none;stroke:rgb(153,153,153);stroke-width:0.49px;"/>
            </g>
            <g transform="matrix(1.21494,0,0,0.968684,882.319,-127.024)">
                <rect x="8.714" y="44.283" width="7.368" height="7.394" style="fill:none;stroke:rgb(153,153,153);stroke-width:0.49px;"/>
            </g>
            <g transform="matrix(1.21494,0,0,0.968684,873.33,-127.024)">
                <rect x="8.714" y="44.283" width="7.368" height="7.394" style="fill:none;stroke:rgb(153,153,153);stroke-width:0.49px;"/>
            </g>
            <g transform="matrix(1.21494,0,0,0.968684,900.221,-127.024)">
                <path d="M16.081,51.677L16.081,44.283L8.714,44.283" style="fill:none;stroke:rgb(153,153,153);stroke-width:0.49px;"/>
            </g>
            <g transform="matrix(1.21494,0,0,0.968684,900.221,-119.861)">
                <rect x="8.714" y="44.283" width="7.368" height="7.394" style="fill:none;stroke:rgb(153,153,153);stroke-width:0.49px;"/>
            </g>
            <g transform="matrix(1.21494,0,0,0.968684,873.33,-112.699)">
                <path d="M16.081,44.283L8.714,44.283L8.714,51.677L16.081,51.677" style="fill:none;stroke:rgb(153,153,153);stroke-width:0.49px;"/>
            </g>
            <g transform="matrix(1.21494,0,0,0.968684,891.27,-112.699)">
                <rect x="8.714" y="44.283" width="7.368" height="7.394" style="fill:none;stroke:rgb(153,153,153);stroke-width:0.49px;"/>
            </g>
            <g transform="matrix(1.21494,0,0,0.968684,900.221,-105.537)">
                <rect x="8.714" y="44.283" width="7.368" height="7.394" style="fill:none;stroke:rgb(153,153,153);stroke-width:0.49px;"/>
            </g>
            <g transform="matrix(1.21494,0,0,0.968684,873.33,-98.375)">
                <rect x="8.714" y="44.283" width="7.368" height="7.394" style="fill:none;stroke:rgb(153,153,153);stroke-width:0.49px;"/>
            </g>
            <g transform="matrix(1.21494,0,0,0.968684,882.281,-98.375)">
                <path d="M16.081,44.283L8.714,44.283L16.081,44.283Z" style="fill:none;stroke:rgb(153,153,153);stroke-width:0.49px;"/>
            </g>
            <g transform="matrix(1.21494,0,0,0.968684,891.27,-98.375)">
                <rect x="8.714" y="44.283" width="7.368" height="7.394" style="fill:none;stroke:rgb(153,153,153);stroke-width:0.49px;"/>
            </g>
            <g transform="matrix(1.21494,0,0,0.968684,900.221,-91.2128)">
                <path d="M16.081,51.677L16.081,44.283L8.714,44.283L8.714,51.677" style="fill:none;stroke:rgb(153,153,153);stroke-width:0.49px;"/>
            </g>
            <g transform="matrix(1.21494,0,0,0.968684,873.367,-84.0506)">
                <rect x="8.714" y="44.283" width="7.368" height="7.394" style="fill:none;stroke:rgb(153,153,153);stroke-width:0.49px;"/>
            </g>
            <g transform="matrix(1.21494,0,0,0.968684,900.221,-84.0506)">
                <path d="M8.714,44.283L8.714,51.677L16.081,51.677L16.081,44.283" style="fill:none;stroke:rgb(153,153,153);stroke-width:0.49px;"/>
            </g>
            <g transform="matrix(1.21494,0,0,0.968684,882.319,-76.8885)">
                <path d="M16.081,51.677L16.081,44.283L8.714,44.283L8.714,51.677" style="fill:none;stroke:rgb(153,153,153);stroke-width:0.49px;"/>
            </g>
            <g transform="matrix(1.21494,0,0,0.968684,900.221,-76.8885)">
                <rect x="8.714" y="44.283" width="7.368" height="7.394" style="fill:none;stroke:rgb(153,153,153);stroke-width:0.49px;"/>
            </g>
            <g transform="matrix(1.21494,0,0,0.968684,891.27,-84.0506)">
                <rect x="8.714" y="44.283" width="7.368" height="7.394" style="fill:none;stroke:rgb(153,153,153);stroke-width:0.49px;"/>
            </g>
        </g>
        <g>
            <g transform="matrix(-1.21494,-1.19048e-16,1.48264e-16,-0.968684,1250.44,16.0661)">
                <path d="M16.081,44.283L8.714,44.283L16.081,44.283Z" style="fill:none;stroke:rgb(152,152,152);stroke-width:0.49px;"/>
            </g>
            <g transform="matrix(-1.21494,-1.19048e-16,1.48264e-16,-0.968684,1241.49,16.0661)">
                <rect x="8.714" y="44.283" width="7.368" height="7.394" style="fill:none;stroke:rgb(152,152,152);stroke-width:0.49px;"/>
            </g>
            <g transform="matrix(-1.21494,-1.19048e-16,1.48264e-16,-0.968684,1268.38,8.90391)">
                <path d="M16.081,44.283L8.714,44.283L8.714,51.677L16.081,51.677" style="fill:none;stroke:rgb(152,152,152);stroke-width:0.49px;"/>
            </g>
            <g transform="matrix(-1.21494,-1.19048e-16,1.48264e-16,-0.968684,1268.38,1.74176)">
                <rect x="8.714" y="44.283" width="7.368" height="7.394" style="fill:none;stroke:rgb(152,152,152);stroke-width:0.49px;"/>
            </g>
            <g transform="matrix(-1.21494,-1.19048e-16,1.48264e-16,-0.968684,1250.44,1.74176)">
                <path d="M16.081,44.283L8.714,44.283" style="fill:none;stroke:rgb(152,152,152);stroke-width:0.49px;"/>
            </g>
            <g transform="matrix(-1.21494,-1.19048e-16,1.48264e-16,-0.968684,1250.44,1.74176)">
                <path d="M8.714,51.677L16.081,51.677L16.081,44.283" style="fill:none;stroke:rgb(152,152,152);stroke-width:0.49px;"/>
            </g>
            <g transform="matrix(-1.21494,-1.19048e-16,1.48264e-16,-0.968684,1259.43,-5.4204)">
                <rect x="8.714" y="44.283" width="7.368" height="7.394" style="fill:none;stroke:rgb(152,152,152);stroke-width:0.49px;"/>
            </g>
            <g transform="matrix(-1.21494,-1.19048e-16,1.48264e-16,-0.968684,1241.49,-5.4204)">
                <rect x="8.714" y="44.283" width="7.368" height="7.394" style="fill:none;stroke:rgb(152,152,152);stroke-width:0.49px;"/>
            </g>
            <g transform="matrix(-1.21494,-1.19048e-16,1.48264e-16,-0.968684,1268.38,-12.5826)">
                <path d="M16.081,44.283L8.714,44.283L8.714,51.677L16.081,51.677" style="fill:none;stroke:rgb(152,152,152);stroke-width:0.49px;"/>
            </g>
            <g transform="matrix(-1.21494,-1.19048e-16,1.48264e-16,-0.968684,1241.49,-12.5826)">
                <path d="M16.081,44.283L8.714,44.283L8.714,51.677" style="fill:none;stroke:rgb(152,152,152);stroke-width:0.49px;"/>
            </g>
            <g transform="matrix(-1.21494,-1.19048e-16,1.48264e-16,-0.968684,1241.49,-19.7447)">
                <path d="M8.714,51.677L16.081,51.677L16.081,44.283L8.714,44.283" style="fill:none;stroke:rgb(152,152,152);stroke-width:0.49px;"/>
            </g>
            <g transform="matrix(-1.21494,-1.19048e-16,1.48264e-16,-0.968684,1268.38,-26.9069)">
                <rect x="8.714" y="44.283" width="7.368" height="7.394" style="fill:none;stroke:rgb(152,152,152);stroke-width:0.49px;"/>
            </g>
            <g transform="matrix(-1.21494,-1.19048e-16,1.48264e-16,-0.968684,1259.43,-26.9069)">
                <rect x="8.714" y="44.283" width="7.368" height="7.394" style="fill:none;stroke:rgb(152,152,152);stroke-width:0.49px;"/>
            </g>
            <g transform="matrix(-1.21494,-1.19048e-16,1.48264e-16,-0.968684,1250.44,-26.9069)">
                <path d="M16.081,51.677L16.081,44.283L8.714,44.283" style="fill:none;stroke:rgb(152,152,152);stroke-width:0.49px;"/>
            </g>
            <g transform="matrix(-1.21494,-1.19048e-16,1.48264e-16,-0.968684,1268.38,-41.2312)">
                <rect x="8.714" y="44.283" width="7.368" height="7.394" style="fill:none;stroke:rgb(152,152,152);stroke-width:0.49px;"/>
            </g>
            <g transform="matrix(-1.21494,-1.19048e-16,1.48264e-16,-0.968684,1241.49,-41.2312)">
                <rect x="8.714" y="44.283" width="7.368" height="7.394" style="fill:none;stroke:rgb(152,152,152);stroke-width:0.49px;"/>
            </g>
            <g transform="matrix(-1.21494,-1.19048e-16,1.48264e-16,-0.968684,1259.43,-48.3933)">
                <rect x="8.714" y="44.283" width="7.368" height="7.394" style="fill:none;stroke:rgb(152,152,152);stroke-width:0.49px;"/>
            </g>
            <g transform="matrix(-1.21494,-1.19048e-16,1.48264e-16,-0.968684,1241.49,-48.3933)">
                <path d="M8.714,51.677L16.081,51.677L16.081,44.283L8.714,44.283" style="fill:none;stroke:rgb(152,152,152);stroke-width:0.49px;"/>
            </g>
            <g transform="matrix(-1.21494,-1.19048e-16,1.48264e-16,-0.968684,1268.38,-55.5555)">
                <rect x="8.714" y="44.283" width="7.368" height="7.394" style="fill:none;stroke:rgb(152,152,152);stroke-width:0.49px;"/>
            </g>
            <g transform="matrix(-1.21494,-1.19048e-16,1.48264e-16,-0.968684,1268.38,-62.7177)">
                <path d="M16.081,51.677L16.081,44.283L8.714,44.283L8.714,51.677" style="fill:none;stroke:rgb(152,152,152);stroke-width:0.49px;"/>
            </g>
            <g transform="matrix(-1.21494,-1.19048e-16,1.48264e-16,-0.968684,1241.49,-62.7177)">
                <path d="M8.714,51.677L16.081,51.677L16.081,44.283L8.714,44.283" style="fill:none;stroke:rgb(152,152,152);stroke-width:0.49px;"/>
            </g>
            <g transform="matrix(-1.21494,-1.19048e-16,1.48264e-16,-0.968684,1241.49,-69.8798)">
                <rect x="8.714" y="44.283" width="7.368" height="7.394" style="fill:none;stroke:rgb(152,152,152);stroke-width:0.49px;"/>
            </g>
            <g transform="matrix(-1.21494,-1.19048e-16,1.48264e-16,-0.968684,1250.44,-77.042)">
                <rect x="8.714" y="44.283" width="7.368" height="7.394" style="fill:none;stroke:rgb(152,152,152);stroke-width:0.49px;"/>
            </g>
            <g transform="matrix(-1.21494,-1.19048e-16,1.48264e-16,-0.968684,1268.38,-84.2041)">
                <rect x="8.714" y="44.283" width="7.368" height="7.394" style="fill:none;stroke:rgb(152,152,152);stroke-width:0.49px;"/>
            </g>
            <g transform="matrix(-1.21494,-1.19048e-16,1.48264e-16,-0.968684,1259.43,-69.8798)">
                <rect x="8.714" y="44.283" width="7.368" height="7.394" style="fill:none;stroke:rgb(152,152,152);stroke-width:0.49px;"/>
            </g>
            <g transform="matrix(-1.21494,-1.19048e-16,1.48264e-16,-0.968684,1250.44,-84.2041)">
                <path d="M8.714,51.677L8.714,44.283L8.714,51.677" style="fill:none;stroke:rgb(152,152,152);stroke-width:0.49px;"/>
            </g>
            <g transform="matrix(-1.21494,-1.19048e-16,1.48264e-16,-0.968684,1241.49,-84.2041)">
                <path d="M16.081,51.677L16.081,44.283L8.714,44.283L8.714,51.677" style="fill:none;stroke:rgb(152,152,152);stroke-width:0.49px;"/>
            </g>
            <g transform="matrix(-1.21494,-1.19048e-16,1.48264e-16,-0.968684,1259.39,-91.3663)">
                <path d="M16.081,51.677L16.081,44.283L8.714,44.283" style="fill:none;stroke:rgb(152,152,152);stroke-width:0.49px;"/>
            </g>
            <g transform="matrix(-1.21494,-1.19048e-16,1.48264e-16,-0.968684,1259.39,-98.5284)">
                <rect x="8.714" y="44.283" width="7.368" height="7.394" style="fill:none;stroke:rgb(152,152,152);stroke-width:0.49px;"/>
            </g>
            <g transform="matrix(-1.21494,-1.19048e-16,1.48264e-16,-0.968684,1268.38,-98.5284)">
                <rect x="8.714" y="44.283" width="7.368" height="7.394" style="fill:none;stroke:rgb(152,152,152);stroke-width:0.49px;"/>
            </g>
            <g transform="matrix(-1.21494,-1.19048e-16,1.48264e-16,-0.968684,1241.49,-98.5284)">
                <path d="M16.081,51.677L16.081,44.283L8.714,44.283" style="fill:none;stroke:rgb(152,152,152);stroke-width:0.49px;"/>
            </g>
            <g transform="matrix(-1.21494,-1.19048e-16,1.48264e-16,-0.968684,1241.49,-105.691)">
                <rect x="8.714" y="44.283" width="7.368" height="7.394" style="fill:none;stroke:rgb(152,152,152);stroke-width:0.49px;"/>
            </g>
            <g transform="matrix(-1.21494,-1.19048e-16,1.48264e-16,-0.968684,1268.38,-112.853)">
                <path d="M16.081,44.283L8.714,44.283L8.714,51.677L16.081,51.677" style="fill:none;stroke:rgb(152,152,152);stroke-width:0.49px;"/>
            </g>
            <g transform="matrix(-1.21494,-1.19048e-16,1.48264e-16,-0.968684,1250.44,-112.853)">
                <rect x="8.714" y="44.283" width="7.368" height="7.394" style="fill:none;stroke:rgb(152,152,152);stroke-width:0.49px;"/>
            </g>
            <g transform="matrix(-1.21494,-1.19048e-16,1.48264e-16,-0.968684,1241.49,-120.015)">
                <rect x="8.714" y="44.283" width="7.368" height="7.394" style="fill:none;stroke:rgb(152,152,152);stroke-width:0.49px;"/>
            </g>
            <g transform="matrix(-1.21494,-1.19048e-16,1.48264e-16,-0.968684,1268.38,-127.177)">
                <rect x="8.714" y="44.283" width="7.368" height="7.394" style="fill:none;stroke:rgb(152,152,152);stroke-width:0.49px;"/>
            </g>
            <g transform="matrix(-1.21494,-1.19048e-16,1.48264e-16,-0.968684,1259.43,-127.177)">
                <path d="M16.081,44.283L8.714,44.283L16.081,44.283Z" style="fill:none;stroke:rgb(152,152,152);stroke-width:0.49px;"/>
            </g>
            <g transform="matrix(-1.21494,-1.19048e-16,1.48264e-16,-0.968684,1250.44,-127.177)">
                <rect x="8.714" y="44.283" width="7.368" height="7.394" style="fill:none;stroke:rgb(152,152,152);stroke-width:0.49px;"/>
            </g>
            <g transform="matrix(-1.21494,-1.19048e-16,1.48264e-16,-0.968684,1241.49,-134.339)">
                <path d="M16.081,51.677L16.081,44.283L8.714,44.283L8.714,51.677" style="fill:none;stroke:rgb(152,152,152);stroke-width:0.49px;"/>
            </g>
            <g transform="matrix(-1.21494,-1.19048e-16,1.48264e-16,-0.968684,1268.34,-141.501)">
                <rect x="8.714" y="44.283" width="7.368" height="7.394" style="fill:none;stroke:rgb(152,152,152);stroke-width:0.49px;"/>
            </g>
            <g transform="matrix(-1.21494,-1.19048e-16,1.48264e-16,-0.968684,1241.49,-141.501)">
                <path d="M8.714,44.283L8.714,51.677L16.081,51.677L16.081,44.283" style="fill:none;stroke:rgb(152,152,152);stroke-width:0.49px;"/>
            </g>
            <g transform="matrix(-1.21494,-1.19048e-16,1.48264e-16,-0.968684,1259.39,-148.664)">
                <path d="M16.081,51.677L16.081,44.283L8.714,44.283L8.714,51.677" style="fill:none;stroke:rgb(152,152,152);stroke-width:0.49px;"/>
            </g>
            <g transform="matrix(-1.21494,-1.19048e-16,1.48264e-16,-0.968684,1241.49,-148.664)">
                <rect x="8.714" y="44.283" width="7.368" height="7.394" style="fill:none;stroke:rgb(152,152,152);stroke-width:0.49px;"/>
            </g>
            <g transform="matrix(-1.21494,-1.19048e-16,1.48264e-16,-0.968684,1250.44,-141.501)">
                <rect x="8.714" y="44.283" width="7.368" height="7.394" style="fill:none;stroke:rgb(152,152,152);stroke-width:0.49px;"/>
            </g>
        </g>
    </g>
</svg>
