<?xml version="1.0" encoding="UTF-8" standalone="no"?>
<!DOCTYPE svg PUBLIC "-//W3C//DTD SVG 1.1//EN" "http://www.w3.org/Graphics/SVG/1.1/DTD/svg11.dtd">
<svg width="100%" height="100%" viewBox="0 0 150 380" version="1.1" xmlns="http://www.w3.org/2000/svg" xmlns:xlink="http://www.w3.org/1999/xlink" xml:space="preserve" xmlns:serif="http://www.serif.com/" style="fill-rule:evenodd;clip-rule:evenodd;stroke-linecap:round;stroke-linejoin:round;stroke-miterlimit:1.5;">
    <g id="panel" transform="matrix(0.834722,0,0,1.04324,-803.837,250.623)">
        <g transform="matrix(2.99501,0,0,0.958552,963,-240.235)">
            <rect x="0" y="0" width="60" height="380" style="fill:rgb(64,64,64);"/>
        </g>
        <g transform="matrix(1.06268,0,0,1.76292,994.916,-852.772)">
            <rect x="-30.034" y="347.456" width="169.102" height="16.91" style="fill:rgb(10,10,44);fill-opacity:0.8;"/>
        </g>
        <g transform="matrix(1.06268,0,0,1.81961,994.916,-538.829)">
            <rect x="-30.034" y="347.456" width="169.102" height="16.91" style="fill:rgb(10,10,44);fill-opacity:0.8;"/>
        </g>
        <g transform="matrix(8.02347,0,0,25.5659,663.022,-292.473)">
            <rect x="37.388" y="2.043" width="22.397" height="14.247" style="fill:none;stroke:rgb(32,6,118);stroke-opacity:0.7;stroke-width:0.03px;"/>
        </g>
        <g transform="matrix(0.840359,0,0,0.840359,220.816,16.2108)">
            <g transform="matrix(1.198,0,0,0.958552,893.633,-224.914)">
                <g transform="matrix(9,0,0,9,64.0056,347.267)">
                    <path d="M0.919,0L0.762,0L0.762,-0.308C0.762,-0.391 0.732,-0.432 0.671,-0.432C0.643,-0.432 0.62,-0.42 0.602,-0.395C0.583,-0.369 0.574,-0.339 0.574,-0.303L0.574,0L0.417,0L0.417,-0.312C0.417,-0.392 0.387,-0.432 0.327,-0.432C0.298,-0.432 0.274,-0.42 0.256,-0.396C0.238,-0.372 0.229,-0.341 0.229,-0.301L0.229,0L0.072,0L0.072,-0.54L0.229,-0.54L0.229,-0.456L0.231,-0.456C0.25,-0.486 0.275,-0.51 0.307,-0.528C0.338,-0.545 0.371,-0.553 0.405,-0.553C0.481,-0.553 0.533,-0.519 0.561,-0.451C0.603,-0.519 0.663,-0.553 0.743,-0.553C0.86,-0.553 0.919,-0.481 0.919,-0.335L0.919,0Z" style="fill:white;fill-opacity:0.9;fill-rule:nonzero;"/>
                </g>
                <g transform="matrix(9,0,0,9,72.978,347.267)">
                    <path d="M0.551,-0.226L0.196,-0.226C0.201,-0.142 0.252,-0.1 0.347,-0.1C0.407,-0.1 0.459,-0.115 0.505,-0.144L0.505,-0.028C0.456,-0.001 0.391,0.013 0.312,0.013C0.226,0.013 0.159,-0.011 0.111,-0.06C0.063,-0.108 0.04,-0.176 0.04,-0.262C0.04,-0.348 0.065,-0.419 0.116,-0.472C0.167,-0.526 0.23,-0.553 0.307,-0.553C0.384,-0.553 0.443,-0.53 0.487,-0.484C0.53,-0.437 0.551,-0.374 0.551,-0.292L0.551,-0.226ZM0.404,-0.324C0.404,-0.405 0.372,-0.445 0.306,-0.445C0.279,-0.445 0.255,-0.434 0.234,-0.412C0.214,-0.39 0.201,-0.361 0.195,-0.324L0.404,-0.324Z" style="fill:white;fill-opacity:0.9;fill-rule:nonzero;"/>
                </g>
                <g transform="matrix(9,0,0,9,78.3513,347.267)">
                    <rect x="0.069" y="-0.799" width="0.157" height="0.799" style="fill:white;fill-opacity:0.9;fill-rule:nonzero;"/>
                </g>
                <g transform="matrix(9,0,0,9,81.1494,347.267)">
                    <path d="M0.593,0L0.436,0L0.436,-0.076L0.433,-0.076C0.395,-0.017 0.339,0.013 0.264,0.013C0.195,0.013 0.141,-0.011 0.1,-0.06C0.06,-0.108 0.04,-0.174 0.04,-0.258C0.04,-0.346 0.062,-0.418 0.108,-0.472C0.153,-0.526 0.212,-0.553 0.286,-0.553C0.356,-0.553 0.405,-0.528 0.433,-0.477L0.436,-0.477L0.438,-0.707L0.593,-0.658L0.593,0ZM0.438,-0.306C0.438,-0.342 0.427,-0.372 0.405,-0.396C0.383,-0.42 0.356,-0.432 0.323,-0.432C0.284,-0.432 0.254,-0.417 0.232,-0.386C0.21,-0.356 0.199,-0.315 0.199,-0.263C0.199,-0.213 0.21,-0.175 0.231,-0.148C0.252,-0.121 0.281,-0.108 0.318,-0.108C0.353,-0.108 0.382,-0.122 0.404,-0.15C0.427,-0.179 0.438,-0.215 0.438,-0.261L0.438,-0.306Z" style="fill:white;fill-opacity:0.9;fill-rule:nonzero;"/>
                </g>
                <g transform="matrix(9,0,0,9,87.2654,347.267)">
                    <path d="M0.551,-0.226L0.196,-0.226C0.201,-0.142 0.252,-0.1 0.347,-0.1C0.407,-0.1 0.459,-0.115 0.505,-0.144L0.505,-0.028C0.456,-0.001 0.391,0.013 0.312,0.013C0.226,0.013 0.159,-0.011 0.111,-0.06C0.063,-0.108 0.04,-0.176 0.04,-0.262C0.04,-0.348 0.065,-0.419 0.116,-0.472C0.167,-0.526 0.23,-0.553 0.307,-0.553C0.384,-0.553 0.443,-0.53 0.487,-0.484C0.53,-0.437 0.551,-0.374 0.551,-0.292L0.551,-0.226ZM0.404,-0.324C0.404,-0.405 0.372,-0.445 0.306,-0.445C0.279,-0.445 0.255,-0.434 0.234,-0.412C0.214,-0.39 0.201,-0.361 0.195,-0.324L0.404,-0.324Z" style="fill:white;fill-opacity:0.9;fill-rule:nonzero;"/>
                </g>
                <g transform="matrix(9,0,0,9,92.6386,347.267)">
                    <path d="M0.416,-0.397C0.397,-0.408 0.374,-0.414 0.346,-0.414C0.31,-0.414 0.282,-0.4 0.261,-0.373C0.24,-0.345 0.229,-0.308 0.229,-0.26L0.229,0L0.072,0L0.072,-0.54L0.229,-0.54L0.229,-0.438L0.231,-0.438C0.257,-0.512 0.305,-0.549 0.374,-0.549C0.392,-0.549 0.406,-0.547 0.416,-0.543L0.416,-0.397Z" style="fill:white;fill-opacity:0.9;fill-rule:nonzero;"/>
                </g>
            </g>
            <g transform="matrix(1.198,0,0,0.958552,893.495,-231.786)">
                <g transform="matrix(9,0,0,9,68.6657,347.267)">
                    <path d="M0.058,-0.145C0.112,-0.112 0.165,-0.096 0.216,-0.096C0.281,-0.096 0.314,-0.113 0.314,-0.148C0.314,-0.173 0.287,-0.193 0.233,-0.21C0.166,-0.231 0.12,-0.254 0.095,-0.28C0.07,-0.305 0.058,-0.34 0.058,-0.383C0.058,-0.436 0.079,-0.478 0.122,-0.508C0.165,-0.538 0.221,-0.553 0.291,-0.553C0.34,-0.553 0.388,-0.546 0.434,-0.531L0.434,-0.407C0.392,-0.432 0.346,-0.444 0.295,-0.444C0.27,-0.444 0.25,-0.44 0.235,-0.431C0.22,-0.422 0.212,-0.41 0.212,-0.396C0.212,-0.371 0.235,-0.351 0.28,-0.335C0.329,-0.319 0.366,-0.304 0.39,-0.291C0.415,-0.278 0.434,-0.26 0.447,-0.238C0.459,-0.216 0.466,-0.191 0.466,-0.163C0.466,-0.107 0.444,-0.064 0.399,-0.033C0.354,-0.002 0.295,0.013 0.22,0.013C0.162,0.013 0.107,0.004 0.058,-0.015L0.058,-0.145Z" style="fill:white;fill-opacity:0.9;fill-rule:nonzero;"/>
                </g>
                <g transform="matrix(9,0,0,9,73.2436,347.267)">
                    <path d="M0.39,-0.006C0.366,0.007 0.33,0.013 0.282,0.013C0.167,0.013 0.11,-0.047 0.11,-0.167L0.11,-0.422L0.021,-0.422L0.021,-0.54L0.11,-0.54L0.11,-0.659L0.267,-0.704L0.267,-0.54L0.39,-0.54L0.39,-0.422L0.267,-0.422L0.267,-0.195C0.267,-0.137 0.289,-0.108 0.335,-0.108C0.353,-0.108 0.371,-0.114 0.39,-0.124L0.39,-0.006Z" style="fill:white;fill-opacity:0.9;fill-rule:nonzero;"/>
                </g>
                <g transform="matrix(6.6,0,0,6.6,77.1051,347.267)">
                    <path d="M0.106,0.032L0.043,-0.021L0.122,-0.115C0.067,-0.183 0.04,-0.268 0.04,-0.368C0.04,-0.487 0.075,-0.584 0.144,-0.658C0.213,-0.732 0.305,-0.769 0.418,-0.769C0.5,-0.769 0.571,-0.748 0.63,-0.706L0.698,-0.785L0.761,-0.733L0.689,-0.65C0.748,-0.581 0.778,-0.493 0.778,-0.384C0.778,-0.266 0.743,-0.17 0.674,-0.097C0.605,-0.023 0.516,0.013 0.406,0.013C0.32,0.013 0.246,-0.011 0.182,-0.059L0.106,0.032ZM0.54,-0.6C0.506,-0.628 0.463,-0.642 0.413,-0.642C0.349,-0.642 0.297,-0.617 0.258,-0.569C0.218,-0.52 0.199,-0.455 0.199,-0.375C0.199,-0.319 0.208,-0.273 0.227,-0.234L0.54,-0.6ZM0.275,-0.165C0.311,-0.131 0.356,-0.114 0.409,-0.114C0.473,-0.114 0.524,-0.137 0.563,-0.184C0.601,-0.231 0.62,-0.294 0.62,-0.374C0.62,-0.435 0.61,-0.488 0.588,-0.533L0.275,-0.165Z" style="fill:white;fill-opacity:0.9;fill-rule:nonzero;"/>
                </g>
                <g transform="matrix(9,0,0,9,82.6053,347.267)">
                    <path d="M0.551,-0.226L0.196,-0.226C0.201,-0.142 0.252,-0.1 0.347,-0.1C0.407,-0.1 0.459,-0.115 0.505,-0.144L0.505,-0.028C0.456,-0.001 0.391,0.013 0.312,0.013C0.226,0.013 0.159,-0.011 0.111,-0.06C0.063,-0.108 0.04,-0.176 0.04,-0.262C0.04,-0.348 0.065,-0.419 0.116,-0.472C0.167,-0.526 0.23,-0.553 0.307,-0.553C0.384,-0.553 0.443,-0.53 0.487,-0.484C0.53,-0.437 0.551,-0.374 0.551,-0.292L0.551,-0.226ZM0.404,-0.324C0.404,-0.405 0.372,-0.445 0.306,-0.445C0.279,-0.445 0.255,-0.434 0.234,-0.412C0.214,-0.39 0.201,-0.361 0.195,-0.324L0.404,-0.324Z" style="fill:white;fill-opacity:0.9;fill-rule:nonzero;"/>
                </g>
                <g transform="matrix(9,0,0,9,87.9786,347.267)">
                    <path d="M0.416,-0.397C0.397,-0.408 0.374,-0.414 0.346,-0.414C0.31,-0.414 0.282,-0.4 0.261,-0.373C0.24,-0.345 0.229,-0.308 0.229,-0.26L0.229,0L0.072,0L0.072,-0.54L0.229,-0.54L0.229,-0.438L0.231,-0.438C0.257,-0.512 0.305,-0.549 0.374,-0.549C0.392,-0.549 0.406,-0.547 0.416,-0.543L0.416,-0.397Z" style="fill:white;fill-opacity:0.9;fill-rule:nonzero;"/>
                </g>
            </g>
        </g>
        <g transform="matrix(1.198,0,0,0.958552,1014.68,-221.067)">
            <g transform="matrix(13,0,0,13,5.38599,0)">
                <path d="M0.74,0L0.617,0L0.543,-0.385L0.399,0.01L0.354,0.01L0.209,-0.385L0.132,0L0.01,0L0.154,-0.715L0.221,-0.715L0.376,-0.233L0.527,-0.715L0.594,-0.715L0.74,0Z" style="fill:white;fill-opacity:0.9;fill-rule:nonzero;"/>
            </g>
            <g transform="matrix(13,0,0,13,15.0725,0)">
                <rect x="0.076" y="-0.715" width="0.127" height="0.715" style="fill:white;fill-opacity:0.9;fill-rule:nonzero;"/>
            </g>
            <g transform="matrix(13,0,0,13,18.6907,0)">
                <path d="M0.232,0L0.073,0L0.073,-0.715C0.174,-0.718 0.238,-0.72 0.264,-0.72C0.368,-0.72 0.451,-0.69 0.512,-0.629C0.573,-0.568 0.604,-0.487 0.604,-0.386C0.604,-0.129 0.48,0 0.232,0ZM0.2,-0.604L0.2,-0.116C0.221,-0.114 0.243,-0.113 0.267,-0.113C0.331,-0.113 0.381,-0.136 0.417,-0.183C0.454,-0.229 0.472,-0.294 0.472,-0.378C0.472,-0.531 0.401,-0.607 0.258,-0.607C0.245,-0.607 0.225,-0.606 0.2,-0.604Z" style="fill:white;fill-opacity:0.9;fill-rule:nonzero;"/>
            </g>
            <g transform="matrix(13,0,0,13,27.0442,0)">
                <rect x="0.076" y="-0.715" width="0.127" height="0.715" style="fill:white;fill-opacity:0.9;fill-rule:nonzero;"/>
            </g>
            <g transform="matrix(13,0,0,13,30.6624,0)">
                <rect x="0.053" y="-0.347" width="0.258" height="0.115" style="fill:white;fill-opacity:0.9;fill-rule:nonzero;"/>
            </g>
            <g transform="matrix(13,0,0,13,35.4358,0)">
                <path d="M0.563,-0.677L0.511,-0.572C0.483,-0.601 0.437,-0.615 0.375,-0.615C0.315,-0.615 0.266,-0.59 0.228,-0.54C0.19,-0.49 0.171,-0.427 0.171,-0.35C0.171,-0.274 0.189,-0.213 0.224,-0.168C0.259,-0.123 0.306,-0.101 0.365,-0.101C0.433,-0.101 0.485,-0.125 0.523,-0.173L0.583,-0.07C0.531,-0.015 0.455,0.012 0.355,0.012C0.255,0.012 0.177,-0.021 0.122,-0.086C0.067,-0.152 0.039,-0.242 0.039,-0.355C0.039,-0.461 0.07,-0.55 0.131,-0.621C0.192,-0.692 0.271,-0.728 0.367,-0.728C0.449,-0.728 0.514,-0.711 0.563,-0.677Z" style="fill:white;fill-opacity:0.9;fill-rule:nonzero;"/>
            </g>
            <g transform="matrix(13,0,0,13,43.3894,0)">
                <path d="M0.491,0L0.438,-0.145L0.193,-0.145L0.144,0L0.002,0L0.288,-0.725L0.343,-0.725L0.631,0L0.491,0ZM0.315,-0.506L0.229,-0.242L0.401,-0.242L0.315,-0.506Z" style="fill:white;fill-opacity:0.9;fill-rule:nonzero;"/>
            </g>
            <g transform="matrix(13,0,0,13,50.3909,0)">
                <path d="M0.364,-0.603L0.364,0L0.237,0L0.237,-0.603L0.01,-0.603L0.01,-0.715L0.602,-0.715L0.602,-0.603L0.364,-0.603Z" style="fill:white;fill-opacity:0.9;fill-rule:nonzero;"/>
            </g>
        </g>
        <g transform="matrix(1.198,0,0,0.958552,967.643,-264.611)">
            <g transform="matrix(5.6,0,0,5.6,26.6402,53.3564)">
                <path d="M0.74,0L0.617,0L0.543,-0.385L0.399,0.01L0.354,0.01L0.209,-0.385L0.132,0L0.01,0L0.154,-0.715L0.221,-0.715L0.376,-0.233L0.527,-0.715L0.594,-0.715L0.74,0Z" style="fill:white;fill-opacity:0.9;fill-rule:nonzero;"/>
            </g>
            <g transform="matrix(5.6,0,0,5.6,30.9249,53.3564)">
                <path d="M0.491,0L0.438,-0.145L0.193,-0.145L0.144,0L0.002,0L0.288,-0.725L0.343,-0.725L0.631,0L0.491,0ZM0.315,-0.506L0.229,-0.242L0.401,-0.242L0.315,-0.506Z" style="fill:white;fill-opacity:0.9;fill-rule:nonzero;"/>
            </g>
            <g transform="matrix(5.6,0,0,5.6,34.5834,53.3564)">
                <path d="M0.2,-0.263L0.2,0L0.073,0L0.073,-0.715C0.158,-0.718 0.207,-0.72 0.222,-0.72C0.335,-0.72 0.417,-0.703 0.469,-0.668C0.522,-0.634 0.548,-0.579 0.548,-0.506C0.548,-0.342 0.451,-0.26 0.258,-0.26C0.243,-0.26 0.224,-0.261 0.2,-0.263ZM0.2,-0.605L0.2,-0.376C0.222,-0.374 0.239,-0.373 0.251,-0.373C0.309,-0.373 0.351,-0.382 0.378,-0.402C0.405,-0.421 0.418,-0.452 0.418,-0.496C0.418,-0.57 0.358,-0.607 0.239,-0.607C0.225,-0.607 0.213,-0.607 0.2,-0.605Z" style="fill:white;fill-opacity:0.9;fill-rule:nonzero;"/>
            </g>
            <g transform="matrix(5.6,0,0,5.6,37.9821,53.3564)">
                <path d="M0.2,-0.263L0.2,0L0.073,0L0.073,-0.715C0.158,-0.718 0.207,-0.72 0.222,-0.72C0.335,-0.72 0.417,-0.703 0.469,-0.668C0.522,-0.634 0.548,-0.579 0.548,-0.506C0.548,-0.342 0.451,-0.26 0.258,-0.26C0.243,-0.26 0.224,-0.261 0.2,-0.263ZM0.2,-0.605L0.2,-0.376C0.222,-0.374 0.239,-0.373 0.251,-0.373C0.309,-0.373 0.351,-0.382 0.378,-0.402C0.405,-0.421 0.418,-0.452 0.418,-0.496C0.418,-0.57 0.358,-0.607 0.239,-0.607C0.225,-0.607 0.213,-0.607 0.2,-0.605Z" style="fill:white;fill-opacity:0.9;fill-rule:nonzero;"/>
            </g>
            <g transform="matrix(5.6,0,0,5.6,41.3808,53.3564)">
                <rect x="0.076" y="-0.715" width="0.127" height="0.715" style="fill:white;fill-opacity:0.9;fill-rule:nonzero;"/>
            </g>
            <g transform="matrix(5.6,0,0,5.6,43.0514,53.3564)">
                <path d="M0.542,0.01L0.195,-0.443L0.195,0L0.073,0L0.073,-0.715L0.134,-0.715L0.472,-0.284L0.472,-0.715L0.594,-0.715L0.594,0.01L0.542,0.01Z" style="fill:white;fill-opacity:0.9;fill-rule:nonzero;"/>
            </g>
            <g transform="matrix(5.6,0,0,5.6,46.9013,53.3564)">
                <path d="M0.602,-0.657L0.548,-0.555C0.533,-0.569 0.51,-0.582 0.479,-0.595C0.448,-0.608 0.421,-0.615 0.398,-0.615C0.328,-0.615 0.273,-0.591 0.232,-0.543C0.191,-0.496 0.171,-0.432 0.171,-0.352C0.171,-0.275 0.191,-0.215 0.231,-0.169C0.271,-0.123 0.325,-0.101 0.394,-0.101C0.439,-0.101 0.476,-0.113 0.505,-0.138L0.505,-0.278L0.406,-0.278L0.406,-0.387L0.632,-0.387L0.632,-0.066C0.602,-0.042 0.563,-0.022 0.515,-0.009C0.468,0.005 0.42,0.012 0.373,0.012C0.271,0.012 0.189,-0.021 0.129,-0.089C0.069,-0.156 0.039,-0.245 0.039,-0.355C0.039,-0.465 0.072,-0.555 0.137,-0.624C0.203,-0.693 0.291,-0.728 0.401,-0.728C0.48,-0.728 0.547,-0.704 0.602,-0.657Z" style="fill:white;fill-opacity:0.9;fill-rule:nonzero;"/>
            </g>
            <g transform="matrix(5.6,0,0,5.6,50.7731,53.3564)">
                <rect x="0.053" y="-0.347" width="0.258" height="0.115" style="fill:white;fill-opacity:0.9;fill-rule:nonzero;"/>
            </g>
            <g transform="matrix(5.6,0,0,5.6,52.9413,53.3564)">
                <path d="M0.232,0L0.073,0L0.073,-0.715C0.174,-0.718 0.238,-0.72 0.264,-0.72C0.368,-0.72 0.451,-0.69 0.512,-0.629C0.573,-0.568 0.604,-0.487 0.604,-0.386C0.604,-0.129 0.48,0 0.232,0ZM0.2,-0.604L0.2,-0.116C0.221,-0.114 0.243,-0.113 0.267,-0.113C0.331,-0.113 0.381,-0.136 0.417,-0.183C0.454,-0.229 0.472,-0.294 0.472,-0.378C0.472,-0.531 0.401,-0.607 0.258,-0.607C0.245,-0.607 0.225,-0.606 0.2,-0.604Z" style="fill:white;fill-opacity:0.9;fill-rule:nonzero;"/>
            </g>
            <g transform="matrix(5.6,0,0,5.6,56.6517,53.3564)">
                <path d="M0.2,-0.603L0.2,-0.435L0.437,-0.435L0.437,-0.327L0.2,-0.327L0.2,-0.113L0.524,-0.113L0.524,0L0.073,0L0.073,-0.715L0.53,-0.715L0.53,-0.603L0.2,-0.603Z" style="fill:white;fill-opacity:0.9;fill-rule:nonzero;"/>
            </g>
            <g transform="matrix(5.6,0,0,5.6,59.9493,53.3564)">
                <path d="M0.34,0.01L0.27,0.01L0.002,-0.715L0.142,-0.715L0.308,-0.232L0.482,-0.715L0.619,-0.715L0.34,0.01Z" style="fill:white;fill-opacity:0.9;fill-rule:nonzero;"/>
            </g>
            <g transform="matrix(5.6,0,0,5.6,63.5422,53.3564)">
                <rect x="0.076" y="-0.715" width="0.127" height="0.715" style="fill:white;fill-opacity:0.9;fill-rule:nonzero;"/>
            </g>
            <g transform="matrix(5.6,0,0,5.6,65.2127,53.3564)">
                <path d="M0.563,-0.677L0.511,-0.572C0.483,-0.601 0.437,-0.615 0.375,-0.615C0.315,-0.615 0.266,-0.59 0.228,-0.54C0.19,-0.49 0.171,-0.427 0.171,-0.35C0.171,-0.274 0.189,-0.213 0.224,-0.168C0.259,-0.123 0.306,-0.101 0.365,-0.101C0.433,-0.101 0.485,-0.125 0.523,-0.173L0.583,-0.07C0.531,-0.015 0.455,0.012 0.355,0.012C0.255,0.012 0.177,-0.021 0.122,-0.086C0.067,-0.152 0.039,-0.242 0.039,-0.355C0.039,-0.461 0.07,-0.55 0.131,-0.621C0.192,-0.692 0.271,-0.728 0.367,-0.728C0.449,-0.728 0.514,-0.711 0.563,-0.677Z" style="fill:white;fill-opacity:0.9;fill-rule:nonzero;"/>
            </g>
            <g transform="matrix(5.6,0,0,5.6,68.7509,53.3564)">
                <path d="M0.2,-0.603L0.2,-0.435L0.437,-0.435L0.437,-0.327L0.2,-0.327L0.2,-0.113L0.524,-0.113L0.524,0L0.073,0L0.073,-0.715L0.53,-0.715L0.53,-0.603L0.2,-0.603Z" style="fill:white;fill-opacity:0.9;fill-rule:nonzero;"/>
            </g>
            <g transform="matrix(5.6,0,0,5.6,73.8476,53.3564)">
                <path d="M0.58,0.01L0.535,0.01L0.392,-0.312L0.249,0.01L0.204,0.01L0.006,-0.523L0.135,-0.523L0.24,-0.211L0.368,-0.523L0.412,-0.523L0.544,-0.209L0.657,-0.523L0.777,-0.523L0.58,0.01Z" style="fill:white;fill-opacity:0.9;fill-rule:nonzero;"/>
            </g>
            <g transform="matrix(5.6,0,0,5.6,78.3482,53.3564)">
                <path d="M0.162,-0.726C0.181,-0.726 0.198,-0.719 0.212,-0.705C0.226,-0.691 0.232,-0.674 0.232,-0.655C0.232,-0.635 0.226,-0.619 0.212,-0.605C0.198,-0.591 0.181,-0.584 0.162,-0.584C0.142,-0.584 0.125,-0.591 0.112,-0.605C0.098,-0.619 0.091,-0.635 0.091,-0.655C0.091,-0.674 0.098,-0.691 0.112,-0.705C0.125,-0.719 0.142,-0.726 0.162,-0.726ZM0.099,0L0.099,-0.423L0.032,-0.423L0.032,-0.523L0.222,-0.523L0.222,0L0.099,0Z" style="fill:white;fill-opacity:0.9;fill-rule:nonzero;"/>
            </g>
            <g transform="matrix(5.6,0,0,5.6,80.131,53.3564)">
                <path d="M0.084,-0.425L0.024,-0.425L0.024,-0.523L0.084,-0.523L0.084,-0.629L0.207,-0.674L0.207,-0.523L0.35,-0.523L0.35,-0.425L0.207,-0.425L0.207,-0.196C0.207,-0.158 0.212,-0.132 0.224,-0.116C0.236,-0.101 0.256,-0.093 0.286,-0.093C0.315,-0.093 0.342,-0.101 0.368,-0.117L0.368,-0.005C0.339,0.005 0.299,0.01 0.247,0.01C0.194,0.01 0.154,-0.005 0.126,-0.034C0.098,-0.064 0.084,-0.106 0.084,-0.16L0.084,-0.425Z" style="fill:white;fill-opacity:0.9;fill-rule:nonzero;"/>
            </g>
            <g transform="matrix(5.6,0,0,5.6,82.4633,53.3564)">
                <path d="M0.404,0L0.404,-0.322C0.404,-0.354 0.394,-0.38 0.374,-0.4C0.354,-0.419 0.327,-0.429 0.295,-0.429C0.275,-0.429 0.254,-0.424 0.234,-0.413C0.213,-0.402 0.199,-0.389 0.19,-0.375L0.19,0L0.066,0L0.066,-0.718L0.19,-0.747L0.19,-0.49C0.222,-0.518 0.265,-0.533 0.32,-0.533C0.386,-0.533 0.437,-0.515 0.473,-0.478C0.509,-0.442 0.527,-0.39 0.527,-0.322L0.527,0L0.404,0Z" style="fill:white;fill-opacity:0.9;fill-rule:nonzero;"/>
            </g>
            <g transform="matrix(5.6,0,0,5.6,87.6939,53.3564)">
                <path d="M0.2,-0.603L0.2,-0.435L0.452,-0.435L0.452,-0.327L0.2,-0.327L0.2,0L0.073,0L0.073,-0.715L0.544,-0.715L0.544,-0.603L0.2,-0.603Z" style="fill:white;fill-opacity:0.9;fill-rule:nonzero;"/>
            </g>
            <g transform="matrix(5.6,0,0,5.6,91.0735,53.3564)">
                <path d="M0.2,-0.603L0.2,-0.435L0.437,-0.435L0.437,-0.327L0.2,-0.327L0.2,-0.113L0.524,-0.113L0.524,0L0.073,0L0.073,-0.715L0.53,-0.715L0.53,-0.603L0.2,-0.603Z" style="fill:white;fill-opacity:0.9;fill-rule:nonzero;"/>
            </g>
            <g transform="matrix(5.6,0,0,5.6,94.371,53.3564)">
                <path d="M0.2,-0.603L0.2,-0.435L0.437,-0.435L0.437,-0.327L0.2,-0.327L0.2,-0.113L0.524,-0.113L0.524,0L0.073,0L0.073,-0.715L0.53,-0.715L0.53,-0.603L0.2,-0.603Z" style="fill:white;fill-opacity:0.9;fill-rule:nonzero;"/>
            </g>
            <g transform="matrix(5.6,0,0,5.6,97.6686,53.3564)">
                <path d="M0.232,0L0.073,0L0.073,-0.715C0.174,-0.718 0.238,-0.72 0.264,-0.72C0.368,-0.72 0.451,-0.69 0.512,-0.629C0.573,-0.568 0.604,-0.487 0.604,-0.386C0.604,-0.129 0.48,0 0.232,0ZM0.2,-0.604L0.2,-0.116C0.221,-0.114 0.243,-0.113 0.267,-0.113C0.331,-0.113 0.381,-0.136 0.417,-0.183C0.454,-0.229 0.472,-0.294 0.472,-0.378C0.472,-0.531 0.401,-0.607 0.258,-0.607C0.245,-0.607 0.225,-0.606 0.2,-0.604Z" style="fill:white;fill-opacity:0.9;fill-rule:nonzero;"/>
            </g>
            <g transform="matrix(5.6,0,0,5.6,101.379,53.3564)">
                <path d="M0.292,0L0.073,0L0.073,-0.715C0.17,-0.719 0.237,-0.722 0.276,-0.722C0.35,-0.722 0.408,-0.706 0.45,-0.674C0.492,-0.642 0.513,-0.597 0.513,-0.538C0.513,-0.481 0.483,-0.437 0.423,-0.404C0.512,-0.373 0.556,-0.309 0.556,-0.212C0.556,-0.147 0.532,-0.096 0.482,-0.057C0.433,-0.019 0.37,0 0.292,0ZM0.2,-0.613L0.2,-0.442C0.22,-0.441 0.24,-0.44 0.262,-0.44C0.344,-0.44 0.386,-0.471 0.386,-0.533C0.386,-0.588 0.348,-0.616 0.273,-0.616C0.253,-0.616 0.229,-0.615 0.2,-0.613ZM0.2,-0.343L0.2,-0.106C0.226,-0.104 0.247,-0.103 0.263,-0.103C0.319,-0.103 0.36,-0.113 0.386,-0.132C0.412,-0.151 0.424,-0.183 0.424,-0.228C0.424,-0.268 0.412,-0.298 0.389,-0.316C0.365,-0.335 0.323,-0.344 0.264,-0.344C0.252,-0.344 0.23,-0.344 0.2,-0.343Z" style="fill:white;fill-opacity:0.9;fill-rule:nonzero;"/>
            </g>
            <g transform="matrix(5.6,0,0,5.6,104.824,53.3564)">
                <path d="M0.491,0L0.438,-0.145L0.193,-0.145L0.144,0L0.002,0L0.288,-0.725L0.343,-0.725L0.631,0L0.491,0ZM0.315,-0.506L0.229,-0.242L0.401,-0.242L0.315,-0.506Z" style="fill:white;fill-opacity:0.9;fill-rule:nonzero;"/>
            </g>
            <g transform="matrix(5.6,0,0,5.6,108.483,53.3564)">
                <path d="M0.563,-0.677L0.511,-0.572C0.483,-0.601 0.437,-0.615 0.375,-0.615C0.315,-0.615 0.266,-0.59 0.228,-0.54C0.19,-0.49 0.171,-0.427 0.171,-0.35C0.171,-0.274 0.189,-0.213 0.224,-0.168C0.259,-0.123 0.306,-0.101 0.365,-0.101C0.433,-0.101 0.485,-0.125 0.523,-0.173L0.583,-0.07C0.531,-0.015 0.455,0.012 0.355,0.012C0.255,0.012 0.177,-0.021 0.122,-0.086C0.067,-0.152 0.039,-0.242 0.039,-0.355C0.039,-0.461 0.07,-0.55 0.131,-0.621C0.192,-0.692 0.271,-0.728 0.367,-0.728C0.449,-0.728 0.514,-0.711 0.563,-0.677Z" style="fill:white;fill-opacity:0.9;fill-rule:nonzero;"/>
            </g>
            <g transform="matrix(5.6,0,0,5.6,112.021,53.3564)">
                <path d="M0.479,0L0.28,-0.305L0.2,-0.196L0.2,0L0.073,0L0.073,-0.715L0.2,-0.715L0.2,-0.373L0.443,-0.715L0.588,-0.715L0.364,-0.403L0.631,0L0.479,0Z" style="fill:white;fill-opacity:0.9;fill-rule:nonzero;"/>
            </g>
        </g>
    </g>
</svg>
