<?xml version="1.0" encoding="UTF-8" standalone="no"?>
<!DOCTYPE svg PUBLIC "-//W3C//DTD SVG 1.1//EN" "http://www.w3.org/Graphics/SVG/1.1/DTD/svg11.dtd">
<svg width="100%" height="100%" viewBox="0 0 45 380" version="1.1" xmlns="http://www.w3.org/2000/svg" xmlns:xlink="http://www.w3.org/1999/xlink" xml:space="preserve" xmlns:serif="http://www.serif.com/" style="fill-rule:evenodd;clip-rule:evenodd;stroke-linecap:round;stroke-linejoin:round;stroke-miterlimit:1.5;">
    <g id="panel" transform="matrix(0.834722,0,0,1.04324,-803.837,250.623)">
        <g transform="matrix(0.898503,0,0,0.958552,963,-240.242)">
            <rect x="0" y="0" width="60" height="380" style="fill:rgb(64,64,64);"/>
        </g>
        <g transform="matrix(0.318803,0,0,1.81961,972.575,-538.829)">
            <rect x="-30.034" y="347.456" width="169.102" height="16.91" style="fill:rgb(10,10,44);fill-opacity:0.8;"/>
        </g>
        <g transform="matrix(0.318803,0,0,1.76292,972.575,-852.772)">
            <rect x="-30.034" y="347.456" width="169.102" height="16.91" style="fill:rgb(10,10,44);fill-opacity:0.8;"/>
        </g>
        <g transform="matrix(2.40704,0,0,25.5659,873.006,-292.473)">
            <rect x="37.388" y="2.043" width="22.397" height="14.247" style="fill:none;stroke:rgb(32,6,118);stroke-opacity:0.7;stroke-width:0.03px;"/>
        </g>
        <g transform="matrix(0.840359,0,0,0.840359,157.921,16.2108)">
            <g transform="matrix(1.198,0,0,0.958552,893.633,-224.914)">
                <g transform="matrix(9,0,0,9,64.0056,347.267)">
                    <path d="M0.919,0L0.762,0L0.762,-0.308C0.762,-0.391 0.732,-0.432 0.671,-0.432C0.643,-0.432 0.62,-0.42 0.602,-0.395C0.583,-0.369 0.574,-0.339 0.574,-0.303L0.574,0L0.417,0L0.417,-0.312C0.417,-0.392 0.387,-0.432 0.327,-0.432C0.298,-0.432 0.274,-0.42 0.256,-0.396C0.238,-0.372 0.229,-0.341 0.229,-0.301L0.229,0L0.072,0L0.072,-0.54L0.229,-0.54L0.229,-0.456L0.231,-0.456C0.25,-0.486 0.275,-0.51 0.307,-0.528C0.338,-0.545 0.371,-0.553 0.405,-0.553C0.481,-0.553 0.533,-0.519 0.561,-0.451C0.603,-0.519 0.663,-0.553 0.743,-0.553C0.86,-0.553 0.919,-0.481 0.919,-0.335L0.919,0Z" style="fill:white;fill-opacity:0.9;fill-rule:nonzero;"/>
                </g>
                <g transform="matrix(9,0,0,9,72.978,347.267)">
                    <path d="M0.551,-0.226L0.196,-0.226C0.201,-0.142 0.252,-0.1 0.347,-0.1C0.407,-0.1 0.459,-0.115 0.505,-0.144L0.505,-0.028C0.456,-0.001 0.391,0.013 0.312,0.013C0.226,0.013 0.159,-0.011 0.111,-0.06C0.063,-0.108 0.04,-0.176 0.04,-0.262C0.04,-0.348 0.065,-0.419 0.116,-0.472C0.167,-0.526 0.23,-0.553 0.307,-0.553C0.384,-0.553 0.443,-0.53 0.487,-0.484C0.53,-0.437 0.551,-0.374 0.551,-0.292L0.551,-0.226ZM0.404,-0.324C0.404,-0.405 0.372,-0.445 0.306,-0.445C0.279,-0.445 0.255,-0.434 0.234,-0.412C0.214,-0.39 0.201,-0.361 0.195,-0.324L0.404,-0.324Z" style="fill:white;fill-opacity:0.9;fill-rule:nonzero;"/>
                </g>
                <g transform="matrix(9,0,0,9,78.3513,347.267)">
                    <rect x="0.069" y="-0.799" width="0.157" height="0.799" style="fill:white;fill-opacity:0.9;fill-rule:nonzero;"/>
                </g>
                <g transform="matrix(9,0,0,9,81.1494,347.267)">
                    <path d="M0.593,0L0.436,0L0.436,-0.076L0.433,-0.076C0.395,-0.017 0.339,0.013 0.264,0.013C0.195,0.013 0.141,-0.011 0.1,-0.06C0.06,-0.108 0.04,-0.174 0.04,-0.258C0.04,-0.346 0.062,-0.418 0.108,-0.472C0.153,-0.526 0.212,-0.553 0.286,-0.553C0.356,-0.553 0.405,-0.528 0.433,-0.477L0.436,-0.477L0.438,-0.707L0.593,-0.658L0.593,0ZM0.438,-0.306C0.438,-0.342 0.427,-0.372 0.405,-0.396C0.383,-0.42 0.356,-0.432 0.323,-0.432C0.284,-0.432 0.254,-0.417 0.232,-0.386C0.21,-0.356 0.199,-0.315 0.199,-0.263C0.199,-0.213 0.21,-0.175 0.231,-0.148C0.252,-0.121 0.281,-0.108 0.318,-0.108C0.353,-0.108 0.382,-0.122 0.404,-0.15C0.427,-0.179 0.438,-0.215 0.438,-0.261L0.438,-0.306Z" style="fill:white;fill-opacity:0.9;fill-rule:nonzero;"/>
                </g>
                <g transform="matrix(9,0,0,9,87.2654,347.267)">
                    <path d="M0.551,-0.226L0.196,-0.226C0.201,-0.142 0.252,-0.1 0.347,-0.1C0.407,-0.1 0.459,-0.115 0.505,-0.144L0.505,-0.028C0.456,-0.001 0.391,0.013 0.312,0.013C0.226,0.013 0.159,-0.011 0.111,-0.06C0.063,-0.108 0.04,-0.176 0.04,-0.262C0.04,-0.348 0.065,-0.419 0.116,-0.472C0.167,-0.526 0.23,-0.553 0.307,-0.553C0.384,-0.553 0.443,-0.53 0.487,-0.484C0.53,-0.437 0.551,-0.374 0.551,-0.292L0.551,-0.226ZM0.404,-0.324C0.404,-0.405 0.372,-0.445 0.306,-0.445C0.279,-0.445 0.255,-0.434 0.234,-0.412C0.214,-0.39 0.201,-0.361 0.195,-0.324L0.404,-0.324Z" style="fill:white;fill-opacity:0.9;fill-rule:nonzero;"/>
                </g>
                <g transform="matrix(9,0,0,9,92.6386,347.267)">
                    <path d="M0.416,-0.397C0.397,-0.408 0.374,-0.414 0.346,-0.414C0.31,-0.414 0.282,-0.4 0.261,-0.373C0.24,-0.345 0.229,-0.308 0.229,-0.26L0.229,0L0.072,0L0.072,-0.54L0.229,-0.54L0.229,-0.438L0.231,-0.438C0.257,-0.512 0.305,-0.549 0.374,-0.549C0.392,-0.549 0.406,-0.547 0.416,-0.543L0.416,-0.397Z" style="fill:white;fill-opacity:0.9;fill-rule:nonzero;"/>
                </g>
            </g>
            <g transform="matrix(1.198,0,0,0.958552,893.495,-231.786)">
                <g transform="matrix(9,0,0,9,68.6657,347.267)">
                    <path d="M0.058,-0.145C0.112,-0.112 0.165,-0.096 0.216,-0.096C0.281,-0.096 0.314,-0.113 0.314,-0.148C0.314,-0.173 0.287,-0.193 0.233,-0.21C0.166,-0.231 0.12,-0.254 0.095,-0.28C0.07,-0.305 0.058,-0.34 0.058,-0.383C0.058,-0.436 0.079,-0.478 0.122,-0.508C0.165,-0.538 0.221,-0.553 0.291,-0.553C0.34,-0.553 0.388,-0.546 0.434,-0.531L0.434,-0.407C0.392,-0.432 0.346,-0.444 0.295,-0.444C0.27,-0.444 0.25,-0.44 0.235,-0.431C0.22,-0.422 0.212,-0.41 0.212,-0.396C0.212,-0.371 0.235,-0.351 0.28,-0.335C0.329,-0.319 0.366,-0.304 0.39,-0.291C0.415,-0.278 0.434,-0.26 0.447,-0.238C0.459,-0.216 0.466,-0.191 0.466,-0.163C0.466,-0.107 0.444,-0.064 0.399,-0.033C0.354,-0.002 0.295,0.013 0.22,0.013C0.162,0.013 0.107,0.004 0.058,-0.015L0.058,-0.145Z" style="fill:white;fill-opacity:0.9;fill-rule:nonzero;"/>
                </g>
                <g transform="matrix(9,0,0,9,73.2436,347.267)">
                    <path d="M0.39,-0.006C0.366,0.007 0.33,0.013 0.282,0.013C0.167,0.013 0.11,-0.047 0.11,-0.167L0.11,-0.422L0.021,-0.422L0.021,-0.54L0.11,-0.54L0.11,-0.659L0.267,-0.704L0.267,-0.54L0.39,-0.54L0.39,-0.422L0.267,-0.422L0.267,-0.195C0.267,-0.137 0.289,-0.108 0.335,-0.108C0.353,-0.108 0.371,-0.114 0.39,-0.124L0.39,-0.006Z" style="fill:white;fill-opacity:0.9;fill-rule:nonzero;"/>
                </g>
                <g transform="matrix(6.6,0,0,6.6,77.1051,347.267)">
                    <path d="M0.106,0.032L0.043,-0.021L0.122,-0.115C0.067,-0.183 0.04,-0.268 0.04,-0.368C0.04,-0.487 0.075,-0.584 0.144,-0.658C0.213,-0.732 0.305,-0.769 0.418,-0.769C0.5,-0.769 0.571,-0.748 0.63,-0.706L0.698,-0.785L0.761,-0.733L0.689,-0.65C0.748,-0.581 0.778,-0.493 0.778,-0.384C0.778,-0.266 0.743,-0.17 0.674,-0.097C0.605,-0.023 0.516,0.013 0.406,0.013C0.32,0.013 0.246,-0.011 0.182,-0.059L0.106,0.032ZM0.54,-0.6C0.506,-0.628 0.463,-0.642 0.413,-0.642C0.349,-0.642 0.297,-0.617 0.258,-0.569C0.218,-0.52 0.199,-0.455 0.199,-0.375C0.199,-0.319 0.208,-0.273 0.227,-0.234L0.54,-0.6ZM0.275,-0.165C0.311,-0.131 0.356,-0.114 0.409,-0.114C0.473,-0.114 0.524,-0.137 0.563,-0.184C0.601,-0.231 0.62,-0.294 0.62,-0.374C0.62,-0.435 0.61,-0.488 0.588,-0.533L0.275,-0.165Z" style="fill:white;fill-opacity:0.9;fill-rule:nonzero;"/>
                </g>
                <g transform="matrix(9,0,0,9,82.6053,347.267)">
                    <path d="M0.551,-0.226L0.196,-0.226C0.201,-0.142 0.252,-0.1 0.347,-0.1C0.407,-0.1 0.459,-0.115 0.505,-0.144L0.505,-0.028C0.456,-0.001 0.391,0.013 0.312,0.013C0.226,0.013 0.159,-0.011 0.111,-0.06C0.063,-0.108 0.04,-0.176 0.04,-0.262C0.04,-0.348 0.065,-0.419 0.116,-0.472C0.167,-0.526 0.23,-0.553 0.307,-0.553C0.384,-0.553 0.443,-0.53 0.487,-0.484C0.53,-0.437 0.551,-0.374 0.551,-0.292L0.551,-0.226ZM0.404,-0.324C0.404,-0.405 0.372,-0.445 0.306,-0.445C0.279,-0.445 0.255,-0.434 0.234,-0.412C0.214,-0.39 0.201,-0.361 0.195,-0.324L0.404,-0.324Z" style="fill:white;fill-opacity:0.9;fill-rule:nonzero;"/>
                </g>
                <g transform="matrix(9,0,0,9,87.9786,347.267)">
                    <path d="M0.416,-0.397C0.397,-0.408 0.374,-0.414 0.346,-0.414C0.31,-0.414 0.282,-0.4 0.261,-0.373C0.24,-0.345 0.229,-0.308 0.229,-0.26L0.229,0L0.072,0L0.072,-0.54L0.229,-0.54L0.229,-0.438L0.231,-0.438C0.257,-0.512 0.305,-0.549 0.374,-0.549C0.392,-0.549 0.406,-0.547 0.416,-0.543L0.416,-0.397Z" style="fill:white;fill-opacity:0.9;fill-rule:nonzero;"/>
                </g>
            </g>
        </g>
        <g transform="matrix(1.198,0,0,0.958552,953.658,-213.56)">
            <g transform="matrix(13,0,0,13,16.78,0)">
                <path d="M0.039,-0.04L0.086,-0.153C0.136,-0.118 0.185,-0.101 0.234,-0.101C0.308,-0.101 0.346,-0.127 0.346,-0.179C0.346,-0.203 0.337,-0.226 0.319,-0.249C0.302,-0.271 0.266,-0.295 0.211,-0.323C0.156,-0.351 0.119,-0.373 0.1,-0.391C0.081,-0.409 0.066,-0.43 0.056,-0.454C0.046,-0.479 0.041,-0.506 0.041,-0.535C0.041,-0.59 0.061,-0.636 0.101,-0.673C0.142,-0.709 0.194,-0.728 0.257,-0.728C0.34,-0.728 0.401,-0.712 0.439,-0.681L0.401,-0.572C0.356,-0.604 0.309,-0.62 0.26,-0.62C0.23,-0.62 0.208,-0.612 0.192,-0.596C0.176,-0.581 0.167,-0.561 0.167,-0.536C0.167,-0.495 0.213,-0.452 0.304,-0.408C0.352,-0.385 0.386,-0.363 0.407,-0.344C0.428,-0.324 0.444,-0.301 0.456,-0.275C0.467,-0.248 0.472,-0.219 0.472,-0.187C0.472,-0.129 0.449,-0.081 0.404,-0.044C0.358,-0.007 0.297,0.012 0.22,0.012C0.153,0.012 0.093,-0.005 0.039,-0.04Z" style="fill:white;fill-opacity:0.9;fill-rule:nonzero;"/>
            </g>
            <g transform="matrix(13,0,0,13,23.426,0)">
                <rect x="0.076" y="-0.715" width="0.127" height="0.715" style="fill:white;fill-opacity:0.9;fill-rule:nonzero;"/>
            </g>
            <g transform="matrix(13,0,0,13,27.0442,0)">
                <path d="M0.2,-0.263L0.2,0L0.073,0L0.073,-0.715C0.158,-0.718 0.207,-0.72 0.222,-0.72C0.335,-0.72 0.417,-0.703 0.469,-0.668C0.522,-0.634 0.548,-0.579 0.548,-0.506C0.548,-0.342 0.451,-0.26 0.258,-0.26C0.243,-0.26 0.224,-0.261 0.2,-0.263ZM0.2,-0.605L0.2,-0.376C0.222,-0.374 0.239,-0.373 0.251,-0.373C0.309,-0.373 0.351,-0.382 0.378,-0.402C0.405,-0.421 0.418,-0.452 0.418,-0.496C0.418,-0.57 0.358,-0.607 0.239,-0.607C0.225,-0.607 0.213,-0.607 0.2,-0.605Z" style="fill:white;fill-opacity:0.9;fill-rule:nonzero;"/>
            </g>
            <g transform="matrix(13,0,0,13,34.6741,0)">
                <path d="M0.039,-0.364C0.039,-0.466 0.067,-0.552 0.123,-0.622C0.179,-0.693 0.253,-0.728 0.347,-0.728C0.45,-0.728 0.528,-0.696 0.583,-0.632C0.637,-0.569 0.664,-0.479 0.664,-0.364C0.664,-0.249 0.636,-0.157 0.579,-0.089C0.522,-0.022 0.441,0.012 0.337,0.012C0.241,0.012 0.167,-0.021 0.116,-0.088C0.065,-0.155 0.039,-0.247 0.039,-0.364ZM0.171,-0.364C0.171,-0.28 0.185,-0.215 0.213,-0.169C0.242,-0.124 0.283,-0.101 0.337,-0.101C0.4,-0.101 0.449,-0.123 0.482,-0.168C0.516,-0.213 0.532,-0.278 0.532,-0.364C0.532,-0.531 0.47,-0.615 0.347,-0.615C0.29,-0.615 0.247,-0.593 0.216,-0.547C0.186,-0.502 0.171,-0.441 0.171,-0.364Z" style="fill:white;fill-opacity:0.9;fill-rule:nonzero;"/>
            </g>
        </g>
        <g transform="matrix(1,0,0,1,0,-5.69388)">
            <g>
                <g transform="matrix(0.552947,0,0,1.41025,968.322,-95.9712)">
                    <path d="M73.138,59.642C73.138,58.142 69.254,56.924 64.471,56.924L13.773,56.924C8.99,56.924 5.107,58.142 5.107,59.642L5.107,80.985C5.107,82.486 8.99,83.704 13.773,83.704L64.471,83.704C69.254,83.704 73.138,82.486 73.138,80.985L73.138,59.642Z" style="fill:white;fill-opacity:0.5;"/>
                </g>
                <g transform="matrix(1.198,0,0,0.958552,940.543,-57.401)">
                    <g transform="matrix(6.4,0,0,6.4,38.1466,51.8924)">
                        <rect x="0.076" y="-0.715" width="0.127" height="0.715" style="fill-rule:nonzero;"/>
                    </g>
                    <g transform="matrix(6.4,0,0,6.4,40.0559,51.8924)">
                        <path d="M0.542,0.01L0.195,-0.443L0.195,0L0.073,0L0.073,-0.715L0.134,-0.715L0.472,-0.284L0.472,-0.715L0.594,-0.715L0.594,0.01L0.542,0.01Z" style="fill-rule:nonzero;"/>
                    </g>
                </g>
            </g>
        </g>
        <g transform="matrix(1,0,0,1,0,-10.7805)">
            <g>
                <g transform="matrix(0.552947,0,0,2.22633,968.322,-274.297)">
                    <path d="M73.138,58.646C73.138,57.695 69.254,56.924 64.471,56.924L13.773,56.924C8.99,56.924 5.107,57.695 5.107,58.646L5.107,81.982C5.107,82.932 8.99,83.704 13.773,83.704L64.471,83.704C69.254,83.704 73.138,82.932 73.138,81.982L73.138,58.646Z" style="fill:white;fill-opacity:0.5;"/>
                </g>
                <g transform="matrix(1.198,0,0,0.958552,940.552,-189.722)">
                    <g transform="matrix(6.4,0,0,6.4,34.6655,51.8924)">
                        <path d="M0.039,-0.04L0.086,-0.153C0.136,-0.118 0.185,-0.101 0.234,-0.101C0.308,-0.101 0.346,-0.127 0.346,-0.179C0.346,-0.203 0.337,-0.226 0.319,-0.249C0.302,-0.271 0.266,-0.295 0.211,-0.323C0.156,-0.351 0.119,-0.373 0.1,-0.391C0.081,-0.409 0.066,-0.43 0.056,-0.454C0.046,-0.479 0.041,-0.506 0.041,-0.535C0.041,-0.59 0.061,-0.636 0.101,-0.673C0.142,-0.709 0.194,-0.728 0.257,-0.728C0.34,-0.728 0.401,-0.712 0.439,-0.681L0.401,-0.572C0.356,-0.604 0.309,-0.62 0.26,-0.62C0.23,-0.62 0.208,-0.612 0.192,-0.596C0.176,-0.581 0.167,-0.561 0.167,-0.536C0.167,-0.495 0.213,-0.452 0.304,-0.408C0.352,-0.385 0.386,-0.363 0.407,-0.344C0.428,-0.324 0.444,-0.301 0.456,-0.275C0.467,-0.248 0.472,-0.219 0.472,-0.187C0.472,-0.129 0.449,-0.081 0.404,-0.044C0.358,-0.007 0.297,0.012 0.22,0.012C0.153,0.012 0.093,-0.005 0.039,-0.04Z" style="fill-rule:nonzero;"/>
                    </g>
                    <g transform="matrix(6.4,0,0,6.4,38.0654,51.8924)">
                        <path d="M0.479,0L0.28,-0.305L0.2,-0.196L0.2,0L0.073,0L0.073,-0.715L0.2,-0.715L0.2,-0.373L0.443,-0.715L0.588,-0.715L0.364,-0.403L0.631,0L0.479,0Z" style="fill-rule:nonzero;"/>
                    </g>
                    <g transform="matrix(6.4,0,0,6.4,42.1434,51.8924)">
                        <rect x="0.076" y="-0.715" width="0.127" height="0.715" style="fill-rule:nonzero;"/>
                    </g>
                    <g transform="matrix(6.4,0,0,6.4,44.0526,51.8924)">
                        <path d="M0.2,-0.263L0.2,0L0.073,0L0.073,-0.715C0.158,-0.718 0.207,-0.72 0.222,-0.72C0.335,-0.72 0.417,-0.703 0.469,-0.668C0.522,-0.634 0.548,-0.579 0.548,-0.506C0.548,-0.342 0.451,-0.26 0.258,-0.26C0.243,-0.26 0.224,-0.261 0.2,-0.263ZM0.2,-0.605L0.2,-0.376C0.222,-0.374 0.239,-0.373 0.251,-0.373C0.309,-0.373 0.351,-0.382 0.378,-0.402C0.405,-0.421 0.418,-0.452 0.418,-0.496C0.418,-0.57 0.358,-0.607 0.239,-0.607C0.225,-0.607 0.213,-0.607 0.2,-0.605Z" style="fill-rule:nonzero;"/>
                    </g>
                </g>
            </g>
        </g>
        <g transform="matrix(1,0,0,1,0,-13.3239)">
            <g>
                <g transform="matrix(0.552947,0,0,1.42348,968.322,-273.05)">
                    <path d="M73.138,59.617C73.138,58.131 69.254,56.924 64.471,56.924L13.773,56.924C8.99,56.924 5.107,58.131 5.107,59.617L5.107,81.01C5.107,82.497 8.99,83.704 13.773,83.704L64.471,83.704C69.254,83.704 73.138,82.497 73.138,81.01L73.138,59.617Z" style="fill:white;fill-opacity:0.5;"/>
                </g>
                <g transform="matrix(1.198,0,0,0.958552,940.665,-233.296)">
                    <g transform="matrix(6.4,0,0,6.4,34.0936,51.8924)">
                        <path d="M0.364,-0.603L0.364,0L0.237,0L0.237,-0.603L0.01,-0.603L0.01,-0.715L0.602,-0.715L0.602,-0.603L0.364,-0.603Z" style="fill-rule:nonzero;"/>
                    </g>
                    <g transform="matrix(6.4,0,0,6.4,38.1372,51.8924)">
                        <path d="M0.477,0L0.286,-0.295C0.266,-0.296 0.24,-0.297 0.205,-0.299L0.205,0L0.073,0L0.073,-0.715C0.08,-0.715 0.108,-0.717 0.156,-0.719C0.204,-0.721 0.242,-0.723 0.271,-0.723C0.453,-0.723 0.544,-0.652 0.544,-0.512C0.544,-0.469 0.531,-0.431 0.506,-0.396C0.481,-0.361 0.45,-0.337 0.412,-0.322L0.623,0L0.477,0ZM0.205,-0.605L0.205,-0.406C0.229,-0.404 0.246,-0.403 0.259,-0.403C0.312,-0.403 0.351,-0.411 0.375,-0.426C0.4,-0.441 0.412,-0.47 0.412,-0.513C0.412,-0.548 0.399,-0.573 0.373,-0.587C0.346,-0.601 0.305,-0.608 0.248,-0.608C0.234,-0.608 0.22,-0.607 0.205,-0.605Z" style="fill-rule:nonzero;"/>
                    </g>
                    <g transform="matrix(6.4,0,0,6.4,42.1746,51.8924)">
                        <rect x="0.076" y="-0.715" width="0.127" height="0.715" style="fill-rule:nonzero;"/>
                    </g>
                    <g transform="matrix(6.4,0,0,6.4,44.0839,51.8924)">
                        <path d="M0.602,-0.657L0.548,-0.555C0.533,-0.569 0.51,-0.582 0.479,-0.595C0.448,-0.608 0.421,-0.615 0.398,-0.615C0.328,-0.615 0.273,-0.591 0.232,-0.543C0.191,-0.496 0.171,-0.432 0.171,-0.352C0.171,-0.275 0.191,-0.215 0.231,-0.169C0.271,-0.123 0.325,-0.101 0.394,-0.101C0.439,-0.101 0.476,-0.113 0.505,-0.138L0.505,-0.278L0.406,-0.278L0.406,-0.387L0.632,-0.387L0.632,-0.066C0.602,-0.042 0.563,-0.022 0.515,-0.009C0.468,0.005 0.42,0.012 0.373,0.012C0.271,0.012 0.189,-0.021 0.129,-0.089C0.069,-0.156 0.039,-0.245 0.039,-0.355C0.039,-0.465 0.072,-0.555 0.137,-0.624C0.203,-0.693 0.291,-0.728 0.401,-0.728C0.48,-0.728 0.547,-0.704 0.602,-0.657Z" style="fill-rule:nonzero;"/>
                    </g>
                </g>
            </g>
        </g>
        <g transform="matrix(0.552947,0,0,2.10977,968.322,-87.8564)">
            <path d="M73.138,58.741C73.138,57.738 69.254,56.924 64.471,56.924L13.773,56.924C8.99,56.924 5.107,57.738 5.107,58.741L5.107,81.887C5.107,82.89 8.99,83.704 13.773,83.704L64.471,83.704C69.254,83.704 73.138,82.89 73.138,81.887L73.138,58.741Z" style="fill-opacity:0.5;"/>
        </g>
        <g transform="matrix(1,0,0,1,0,-8.23721)">
            <g>
                <g transform="matrix(0.552947,0,0,2.2249,968.322,-208.26)">
                    <path d="M73.138,58.647C73.138,57.696 69.254,56.924 64.471,56.924L13.773,56.924C8.99,56.924 5.107,57.696 5.107,58.647L5.107,81.981C5.107,82.932 8.99,83.704 13.773,83.704L64.471,83.704C69.254,83.704 73.138,82.932 73.138,81.981L73.138,58.647Z" style="fill:white;fill-opacity:0.5;"/>
                </g>
                <g transform="matrix(1.198,0,0,0.958552,940.216,-123.6)">
                    <g transform="matrix(6.4,0,0,6.4,34.1061,51.8924)">
                        <rect x="0.076" y="-0.715" width="0.127" height="0.715" style="fill-rule:nonzero;"/>
                    </g>
                    <g transform="matrix(6.4,0,0,6.4,36.0154,51.8924)">
                        <path d="M0.542,0.01L0.195,-0.443L0.195,0L0.073,0L0.073,-0.715L0.134,-0.715L0.472,-0.284L0.472,-0.715L0.594,-0.715L0.594,0.01L0.542,0.01Z" style="fill-rule:nonzero;"/>
                    </g>
                    <g transform="matrix(6.4,0,0,6.4,40.4152,51.8924)">
                        <path d="M0.563,-0.677L0.511,-0.572C0.483,-0.601 0.437,-0.615 0.375,-0.615C0.315,-0.615 0.266,-0.59 0.228,-0.54C0.19,-0.49 0.171,-0.427 0.171,-0.35C0.171,-0.274 0.189,-0.213 0.224,-0.168C0.259,-0.123 0.306,-0.101 0.365,-0.101C0.433,-0.101 0.485,-0.125 0.523,-0.173L0.583,-0.07C0.531,-0.015 0.455,0.012 0.355,0.012C0.255,0.012 0.177,-0.021 0.122,-0.086C0.067,-0.152 0.039,-0.242 0.039,-0.355C0.039,-0.461 0.07,-0.55 0.131,-0.621C0.192,-0.692 0.271,-0.728 0.367,-0.728C0.449,-0.728 0.514,-0.711 0.563,-0.677Z" style="fill-rule:nonzero;"/>
                    </g>
                    <g transform="matrix(6.4,0,0,6.4,44.4589,51.8924)">
                        <path d="M0.477,0L0.286,-0.295C0.266,-0.296 0.24,-0.297 0.205,-0.299L0.205,0L0.073,0L0.073,-0.715C0.08,-0.715 0.108,-0.717 0.156,-0.719C0.204,-0.721 0.242,-0.723 0.271,-0.723C0.453,-0.723 0.544,-0.652 0.544,-0.512C0.544,-0.469 0.531,-0.431 0.506,-0.396C0.481,-0.361 0.45,-0.337 0.412,-0.322L0.623,0L0.477,0ZM0.205,-0.605L0.205,-0.406C0.229,-0.404 0.246,-0.403 0.259,-0.403C0.312,-0.403 0.351,-0.411 0.375,-0.426C0.4,-0.441 0.412,-0.47 0.412,-0.513C0.412,-0.548 0.399,-0.573 0.373,-0.587C0.346,-0.601 0.305,-0.608 0.248,-0.608C0.234,-0.608 0.22,-0.607 0.205,-0.605Z" style="fill-rule:nonzero;"/>
                    </g>
                </g>
            </g>
        </g>
    </g>
</svg>
