<?xml version="1.0" encoding="UTF-8" standalone="no"?>
<!DOCTYPE svg PUBLIC "-//W3C//DTD SVG 1.1//EN" "http://www.w3.org/Graphics/SVG/1.1/DTD/svg11.dtd">
<svg width="100%" height="100%" viewBox="0 0 45 380" version="1.1" xmlns="http://www.w3.org/2000/svg" xmlns:xlink="http://www.w3.org/1999/xlink" xml:space="preserve" xmlns:serif="http://www.serif.com/" style="fill-rule:evenodd;clip-rule:evenodd;stroke-linecap:round;stroke-linejoin:round;stroke-miterlimit:1.5;">
    <g id="panel" transform="matrix(0.834722,0,0,1.04324,-803.837,250.623)">
        <g transform="matrix(0.898503,0,0,0.958552,963,-240.242)">
            <rect x="0" y="0" width="60" height="380" style="fill:rgb(64,64,64);"/>
        </g>
        <g transform="matrix(0.318803,0,0,1.81961,972.575,-538.829)">
            <rect x="-30.034" y="347.456" width="169.102" height="16.91" style="fill:rgb(10,10,44);fill-opacity:0.8;"/>
        </g>
        <g transform="matrix(0.318803,0,0,1.76292,972.575,-852.772)">
            <rect x="-30.034" y="347.456" width="169.102" height="16.91" style="fill:rgb(10,10,44);fill-opacity:0.8;"/>
        </g>
        <g transform="matrix(2.40704,0,0,25.5659,873.006,-292.473)">
            <rect x="37.388" y="2.043" width="22.397" height="14.247" style="fill:none;stroke:rgb(32,6,118);stroke-opacity:0.7;stroke-width:0.03px;"/>
        </g>
        <g transform="matrix(0.840359,0,0,0.840359,157.921,16.2108)">
            <g transform="matrix(1.198,0,0,0.958552,893.633,-224.914)">
                <g transform="matrix(9,0,0,9,64.0056,347.267)">
                    <path d="M0.919,-0L0.762,-0L0.762,-0.308C0.762,-0.391 0.732,-0.432 0.671,-0.432C0.643,-0.432 0.62,-0.42 0.602,-0.395C0.583,-0.369 0.574,-0.339 0.574,-0.303L0.574,-0L0.417,-0L0.417,-0.312C0.417,-0.392 0.387,-0.432 0.327,-0.432C0.298,-0.432 0.274,-0.42 0.256,-0.396C0.238,-0.372 0.229,-0.341 0.229,-0.301L0.229,-0L0.072,-0L0.072,-0.54L0.229,-0.54L0.229,-0.456L0.231,-0.456C0.25,-0.486 0.275,-0.51 0.307,-0.528C0.338,-0.545 0.371,-0.553 0.405,-0.553C0.481,-0.553 0.533,-0.519 0.561,-0.451C0.603,-0.519 0.663,-0.553 0.743,-0.553C0.86,-0.553 0.919,-0.481 0.919,-0.335L0.919,-0Z" style="fill:white;fill-opacity:0.9;fill-rule:nonzero;"/>
                </g>
                <g transform="matrix(9,0,0,9,72.978,347.267)">
                    <path d="M0.551,-0.226L0.196,-0.226C0.201,-0.142 0.252,-0.1 0.347,-0.1C0.407,-0.1 0.459,-0.115 0.505,-0.144L0.505,-0.028C0.456,-0.001 0.391,0.013 0.312,0.013C0.226,0.013 0.159,-0.011 0.111,-0.06C0.063,-0.108 0.04,-0.176 0.04,-0.262C0.04,-0.348 0.065,-0.419 0.116,-0.472C0.167,-0.526 0.23,-0.553 0.307,-0.553C0.384,-0.553 0.443,-0.53 0.487,-0.484C0.53,-0.437 0.551,-0.374 0.551,-0.292L0.551,-0.226ZM0.404,-0.324C0.404,-0.405 0.372,-0.445 0.306,-0.445C0.279,-0.445 0.255,-0.434 0.234,-0.412C0.214,-0.39 0.201,-0.361 0.195,-0.324L0.404,-0.324Z" style="fill:white;fill-opacity:0.9;fill-rule:nonzero;"/>
                </g>
                <g transform="matrix(9,0,0,9,78.3513,347.267)">
                    <rect x="0.069" y="-0.799" width="0.157" height="0.799" style="fill:white;fill-opacity:0.9;fill-rule:nonzero;"/>
                </g>
                <g transform="matrix(9,0,0,9,81.1494,347.267)">
                    <path d="M0.593,-0L0.436,-0L0.436,-0.076L0.433,-0.076C0.395,-0.017 0.339,0.013 0.264,0.013C0.195,0.013 0.141,-0.011 0.1,-0.06C0.06,-0.108 0.04,-0.174 0.04,-0.258C0.04,-0.346 0.062,-0.418 0.108,-0.472C0.153,-0.526 0.212,-0.553 0.286,-0.553C0.356,-0.553 0.405,-0.528 0.433,-0.477L0.436,-0.477L0.438,-0.707L0.593,-0.658L0.593,-0ZM0.438,-0.306C0.438,-0.342 0.427,-0.372 0.405,-0.396C0.383,-0.42 0.356,-0.432 0.323,-0.432C0.284,-0.432 0.254,-0.417 0.232,-0.386C0.21,-0.356 0.199,-0.315 0.199,-0.263C0.199,-0.213 0.21,-0.175 0.231,-0.148C0.252,-0.121 0.281,-0.108 0.318,-0.108C0.353,-0.108 0.382,-0.122 0.404,-0.15C0.427,-0.179 0.438,-0.215 0.438,-0.261L0.438,-0.306Z" style="fill:white;fill-opacity:0.9;fill-rule:nonzero;"/>
                </g>
                <g transform="matrix(9,0,0,9,87.2654,347.267)">
                    <path d="M0.551,-0.226L0.196,-0.226C0.201,-0.142 0.252,-0.1 0.347,-0.1C0.407,-0.1 0.459,-0.115 0.505,-0.144L0.505,-0.028C0.456,-0.001 0.391,0.013 0.312,0.013C0.226,0.013 0.159,-0.011 0.111,-0.06C0.063,-0.108 0.04,-0.176 0.04,-0.262C0.04,-0.348 0.065,-0.419 0.116,-0.472C0.167,-0.526 0.23,-0.553 0.307,-0.553C0.384,-0.553 0.443,-0.53 0.487,-0.484C0.53,-0.437 0.551,-0.374 0.551,-0.292L0.551,-0.226ZM0.404,-0.324C0.404,-0.405 0.372,-0.445 0.306,-0.445C0.279,-0.445 0.255,-0.434 0.234,-0.412C0.214,-0.39 0.201,-0.361 0.195,-0.324L0.404,-0.324Z" style="fill:white;fill-opacity:0.9;fill-rule:nonzero;"/>
                </g>
                <g transform="matrix(9,0,0,9,92.6386,347.267)">
                    <path d="M0.416,-0.397C0.397,-0.408 0.374,-0.414 0.346,-0.414C0.31,-0.414 0.282,-0.4 0.261,-0.373C0.24,-0.345 0.229,-0.308 0.229,-0.26L0.229,-0L0.072,-0L0.072,-0.54L0.229,-0.54L0.229,-0.438L0.231,-0.438C0.257,-0.512 0.305,-0.549 0.374,-0.549C0.392,-0.549 0.406,-0.547 0.416,-0.543L0.416,-0.397Z" style="fill:white;fill-opacity:0.9;fill-rule:nonzero;"/>
                </g>
            </g>
            <g transform="matrix(1.198,0,0,0.958552,893.495,-231.786)">
                <g transform="matrix(9,0,0,9,68.6657,347.267)">
                    <path d="M0.058,-0.145C0.112,-0.112 0.165,-0.096 0.216,-0.096C0.281,-0.096 0.314,-0.113 0.314,-0.148C0.314,-0.173 0.287,-0.193 0.233,-0.21C0.166,-0.231 0.12,-0.254 0.095,-0.28C0.07,-0.305 0.058,-0.34 0.058,-0.383C0.058,-0.436 0.079,-0.478 0.122,-0.508C0.165,-0.538 0.221,-0.553 0.291,-0.553C0.34,-0.553 0.388,-0.546 0.434,-0.531L0.434,-0.407C0.392,-0.432 0.346,-0.444 0.295,-0.444C0.27,-0.444 0.25,-0.44 0.235,-0.431C0.22,-0.422 0.212,-0.41 0.212,-0.396C0.212,-0.371 0.235,-0.351 0.28,-0.335C0.329,-0.319 0.366,-0.304 0.39,-0.291C0.415,-0.278 0.434,-0.26 0.447,-0.238C0.459,-0.216 0.466,-0.191 0.466,-0.163C0.466,-0.107 0.444,-0.064 0.399,-0.033C0.354,-0.002 0.295,0.013 0.22,0.013C0.162,0.013 0.107,0.004 0.058,-0.015L0.058,-0.145Z" style="fill:white;fill-opacity:0.9;fill-rule:nonzero;"/>
                </g>
                <g transform="matrix(9,0,0,9,73.2436,347.267)">
                    <path d="M0.39,-0.006C0.366,0.007 0.33,0.013 0.282,0.013C0.167,0.013 0.11,-0.047 0.11,-0.167L0.11,-0.422L0.021,-0.422L0.021,-0.54L0.11,-0.54L0.11,-0.659L0.267,-0.704L0.267,-0.54L0.39,-0.54L0.39,-0.422L0.267,-0.422L0.267,-0.195C0.267,-0.137 0.289,-0.108 0.335,-0.108C0.353,-0.108 0.371,-0.114 0.39,-0.124L0.39,-0.006Z" style="fill:white;fill-opacity:0.9;fill-rule:nonzero;"/>
                </g>
                <g transform="matrix(6.6,0,0,6.6,77.1051,347.267)">
                    <path d="M0.106,0.032L0.043,-0.021L0.122,-0.115C0.067,-0.183 0.04,-0.268 0.04,-0.368C0.04,-0.487 0.075,-0.584 0.144,-0.658C0.213,-0.732 0.305,-0.769 0.418,-0.769C0.5,-0.769 0.571,-0.748 0.63,-0.706L0.698,-0.785L0.761,-0.733L0.689,-0.65C0.748,-0.581 0.778,-0.493 0.778,-0.384C0.778,-0.266 0.743,-0.17 0.674,-0.097C0.605,-0.023 0.516,0.013 0.406,0.013C0.32,0.013 0.246,-0.011 0.182,-0.059L0.106,0.032ZM0.54,-0.6C0.506,-0.628 0.463,-0.642 0.413,-0.642C0.349,-0.642 0.297,-0.617 0.258,-0.569C0.218,-0.52 0.199,-0.455 0.199,-0.375C0.199,-0.319 0.208,-0.273 0.227,-0.234L0.54,-0.6ZM0.275,-0.165C0.311,-0.131 0.356,-0.114 0.409,-0.114C0.473,-0.114 0.524,-0.137 0.563,-0.184C0.601,-0.231 0.62,-0.294 0.62,-0.374C0.62,-0.435 0.61,-0.488 0.588,-0.533L0.275,-0.165Z" style="fill:white;fill-opacity:0.9;fill-rule:nonzero;"/>
                </g>
                <g transform="matrix(9,0,0,9,82.6053,347.267)">
                    <path d="M0.551,-0.226L0.196,-0.226C0.201,-0.142 0.252,-0.1 0.347,-0.1C0.407,-0.1 0.459,-0.115 0.505,-0.144L0.505,-0.028C0.456,-0.001 0.391,0.013 0.312,0.013C0.226,0.013 0.159,-0.011 0.111,-0.06C0.063,-0.108 0.04,-0.176 0.04,-0.262C0.04,-0.348 0.065,-0.419 0.116,-0.472C0.167,-0.526 0.23,-0.553 0.307,-0.553C0.384,-0.553 0.443,-0.53 0.487,-0.484C0.53,-0.437 0.551,-0.374 0.551,-0.292L0.551,-0.226ZM0.404,-0.324C0.404,-0.405 0.372,-0.445 0.306,-0.445C0.279,-0.445 0.255,-0.434 0.234,-0.412C0.214,-0.39 0.201,-0.361 0.195,-0.324L0.404,-0.324Z" style="fill:white;fill-opacity:0.9;fill-rule:nonzero;"/>
                </g>
                <g transform="matrix(9,0,0,9,87.9786,347.267)">
                    <path d="M0.416,-0.397C0.397,-0.408 0.374,-0.414 0.346,-0.414C0.31,-0.414 0.282,-0.4 0.261,-0.373C0.24,-0.345 0.229,-0.308 0.229,-0.26L0.229,-0L0.072,-0L0.072,-0.54L0.229,-0.54L0.229,-0.438L0.231,-0.438C0.257,-0.512 0.305,-0.549 0.374,-0.549C0.392,-0.549 0.406,-0.547 0.416,-0.543L0.416,-0.397Z" style="fill:white;fill-opacity:0.9;fill-rule:nonzero;"/>
                </g>
            </g>
        </g>
        <g transform="matrix(1.198,0,0,0.958552,953.925,-213.56)">
            <g transform="matrix(13,0,0,13,17.0117,0)">
                <path d="M0.039,-0.04L0.086,-0.153C0.136,-0.118 0.185,-0.101 0.234,-0.101C0.308,-0.101 0.346,-0.127 0.346,-0.179C0.346,-0.203 0.337,-0.226 0.319,-0.249C0.302,-0.271 0.266,-0.295 0.211,-0.323C0.156,-0.351 0.119,-0.373 0.1,-0.391C0.081,-0.409 0.066,-0.43 0.056,-0.454C0.046,-0.479 0.041,-0.506 0.041,-0.535C0.041,-0.59 0.061,-0.636 0.101,-0.673C0.142,-0.709 0.194,-0.728 0.257,-0.728C0.34,-0.728 0.401,-0.712 0.439,-0.681L0.401,-0.572C0.356,-0.604 0.309,-0.62 0.26,-0.62C0.23,-0.62 0.208,-0.612 0.192,-0.596C0.176,-0.581 0.167,-0.561 0.167,-0.536C0.167,-0.495 0.213,-0.452 0.304,-0.408C0.352,-0.385 0.386,-0.363 0.407,-0.344C0.428,-0.324 0.444,-0.301 0.456,-0.275C0.467,-0.248 0.472,-0.219 0.472,-0.187C0.472,-0.129 0.449,-0.081 0.404,-0.044C0.358,-0.007 0.297,0.012 0.22,0.012C0.153,0.012 0.093,-0.005 0.039,-0.04Z" style="fill:white;fill-opacity:0.9;fill-rule:nonzero;"/>
            </g>
            <g transform="matrix(13,0,0,13,23.6577,0)">
                <path d="M0.2,-0.263L0.2,-0L0.073,-0L0.073,-0.715C0.158,-0.718 0.207,-0.72 0.222,-0.72C0.335,-0.72 0.417,-0.703 0.469,-0.668C0.522,-0.634 0.548,-0.579 0.548,-0.506C0.548,-0.342 0.451,-0.26 0.258,-0.26C0.243,-0.26 0.224,-0.261 0.2,-0.263ZM0.2,-0.605L0.2,-0.376C0.222,-0.374 0.239,-0.373 0.251,-0.373C0.309,-0.373 0.351,-0.382 0.378,-0.402C0.405,-0.421 0.418,-0.452 0.418,-0.496C0.418,-0.57 0.358,-0.607 0.239,-0.607C0.225,-0.607 0.213,-0.607 0.2,-0.605Z" style="fill:white;fill-opacity:0.9;fill-rule:nonzero;"/>
            </g>
            <g transform="matrix(13,0,0,13,31.2876,0)">
                <rect x="0.076" y="-0.715" width="0.127" height="0.715" style="fill:white;fill-opacity:0.9;fill-rule:nonzero;"/>
            </g>
            <g transform="matrix(13,0,0,13,34.9058,0)">
                <path d="M0.542,0.01L0.195,-0.443L0.195,0L0.073,0L0.073,-0.715L0.134,-0.715L0.472,-0.284L0.472,-0.715L0.594,-0.715L0.594,0.01L0.542,0.01Z" style="fill:white;fill-opacity:0.9;fill-rule:nonzero;"/>
            </g>
        </g>
        <g transform="matrix(0.552947,0,0,2.38411,968.322,-146.525)">
            <path d="M73.138,58.532C73.138,57.644 69.254,56.924 64.471,56.924L13.773,56.924C8.99,56.924 5.107,57.644 5.107,58.532L5.107,82.096C5.107,82.983 8.99,83.704 13.773,83.704L64.471,83.704C69.254,83.704 73.138,82.983 73.138,82.096L73.138,58.532Z" style="fill-opacity:0.5;"/>
        </g>
        <g transform="matrix(1.198,0,0,0.958552,940.375,-26.4382)">
            <g transform="matrix(6.4,0,0,6.4,28.786,51.8924)">
                <rect x="0.076" y="-0.715" width="0.127" height="0.715" style="fill:white;fill-opacity:0.9;fill-rule:nonzero;"/>
            </g>
            <g transform="matrix(6.4,0,0,6.4,30.6952,51.8924)">
                <path d="M0.542,0.01L0.195,-0.443L0.195,0L0.073,0L0.073,-0.715L0.134,-0.715L0.472,-0.284L0.472,-0.715L0.594,-0.715L0.594,0.01L0.542,0.01Z" style="fill:white;fill-opacity:0.9;fill-rule:nonzero;"/>
            </g>
            <g transform="matrix(6.4,0,0,6.4,35.0951,51.8924)">
                <path d="M0.563,-0.677L0.511,-0.572C0.483,-0.601 0.437,-0.615 0.375,-0.615C0.315,-0.615 0.266,-0.59 0.228,-0.54C0.19,-0.49 0.171,-0.427 0.171,-0.35C0.171,-0.274 0.189,-0.213 0.224,-0.168C0.259,-0.123 0.306,-0.101 0.365,-0.101C0.433,-0.101 0.485,-0.125 0.523,-0.173L0.583,-0.07C0.531,-0.015 0.455,0.012 0.355,0.012C0.255,0.012 0.177,-0.021 0.122,-0.086C0.067,-0.152 0.039,-0.242 0.039,-0.355C0.039,-0.461 0.07,-0.55 0.131,-0.621C0.192,-0.692 0.271,-0.728 0.367,-0.728C0.449,-0.728 0.514,-0.711 0.563,-0.677Z" style="fill:white;fill-opacity:0.9;fill-rule:nonzero;"/>
            </g>
            <g transform="matrix(6.4,0,0,6.4,39.1387,51.8924)">
                <path d="M0.118,-0L0.008,-0L0.278,-0.718L0.387,-0.718L0.118,-0Z" style="fill:white;fill-opacity:0.9;fill-rule:nonzero;"/>
            </g>
            <g transform="matrix(6.4,0,0,6.4,41.7636,51.8924)">
                <path d="M0.232,-0L0.073,-0L0.073,-0.715C0.174,-0.718 0.238,-0.72 0.264,-0.72C0.368,-0.72 0.451,-0.69 0.512,-0.629C0.573,-0.568 0.604,-0.487 0.604,-0.386C0.604,-0.129 0.48,-0 0.232,-0ZM0.2,-0.604L0.2,-0.116C0.221,-0.114 0.243,-0.113 0.267,-0.113C0.331,-0.113 0.381,-0.136 0.417,-0.183C0.454,-0.229 0.472,-0.294 0.472,-0.378C0.472,-0.531 0.401,-0.607 0.258,-0.607C0.245,-0.607 0.225,-0.606 0.2,-0.604Z" style="fill:white;fill-opacity:0.9;fill-rule:nonzero;"/>
            </g>
            <g transform="matrix(6.4,0,0,6.4,46.0041,51.8924)">
                <path d="M0.2,-0.603L0.2,-0.435L0.437,-0.435L0.437,-0.327L0.2,-0.327L0.2,-0.113L0.524,-0.113L0.524,-0L0.073,-0L0.073,-0.715L0.53,-0.715L0.53,-0.603L0.2,-0.603Z" style="fill:white;fill-opacity:0.9;fill-rule:nonzero;"/>
            </g>
            <g transform="matrix(6.4,0,0,6.4,49.7727,51.8924)">
                <path d="M0.563,-0.677L0.511,-0.572C0.483,-0.601 0.437,-0.615 0.375,-0.615C0.315,-0.615 0.266,-0.59 0.228,-0.54C0.19,-0.49 0.171,-0.427 0.171,-0.35C0.171,-0.274 0.189,-0.213 0.224,-0.168C0.259,-0.123 0.306,-0.101 0.365,-0.101C0.433,-0.101 0.485,-0.125 0.523,-0.173L0.583,-0.07C0.531,-0.015 0.455,0.012 0.355,0.012C0.255,0.012 0.177,-0.021 0.122,-0.086C0.067,-0.152 0.039,-0.242 0.039,-0.355C0.039,-0.461 0.07,-0.55 0.131,-0.621C0.192,-0.692 0.271,-0.728 0.367,-0.728C0.449,-0.728 0.514,-0.711 0.563,-0.677Z" style="fill:white;fill-opacity:0.9;fill-rule:nonzero;"/>
            </g>
        </g>
        <g transform="matrix(1.198,0,0,0.958552,940.375,14.6033)">
            <g transform="matrix(6.4,0,0,6.4,30.9484,51.8924)">
                <path d="M0.2,-0.263L0.2,-0L0.073,-0L0.073,-0.715C0.158,-0.718 0.207,-0.72 0.222,-0.72C0.335,-0.72 0.417,-0.703 0.469,-0.668C0.522,-0.634 0.548,-0.579 0.548,-0.506C0.548,-0.342 0.451,-0.26 0.258,-0.26C0.243,-0.26 0.224,-0.261 0.2,-0.263ZM0.2,-0.605L0.2,-0.376C0.222,-0.374 0.239,-0.373 0.251,-0.373C0.309,-0.373 0.351,-0.382 0.378,-0.402C0.405,-0.421 0.418,-0.452 0.418,-0.496C0.418,-0.57 0.358,-0.607 0.239,-0.607C0.225,-0.607 0.213,-0.607 0.2,-0.605Z" style="fill:white;fill-opacity:0.9;fill-rule:nonzero;"/>
            </g>
            <g transform="matrix(6.4,0,0,6.4,34.3576,51.8924)">
                <path d="M0.491,-0L0.438,-0.145L0.193,-0.145L0.144,-0L0.002,-0L0.288,-0.725L0.343,-0.725L0.631,-0L0.491,-0ZM0.315,-0.506L0.229,-0.242L0.401,-0.242L0.315,-0.506Z" style="fill:white;fill-opacity:0.9;fill-rule:nonzero;"/>
            </g>
            <g transform="matrix(6.4,0,0,6.4,38.5387,51.8924)">
                <path d="M0.477,-0L0.286,-0.295C0.266,-0.296 0.24,-0.297 0.205,-0.299L0.205,-0L0.073,-0L0.073,-0.715C0.08,-0.715 0.108,-0.717 0.156,-0.719C0.204,-0.721 0.242,-0.723 0.271,-0.723C0.453,-0.723 0.544,-0.652 0.544,-0.512C0.544,-0.469 0.531,-0.431 0.506,-0.396C0.481,-0.361 0.45,-0.337 0.412,-0.322L0.623,-0L0.477,-0ZM0.205,-0.605L0.205,-0.406C0.229,-0.404 0.246,-0.403 0.259,-0.403C0.312,-0.403 0.351,-0.411 0.375,-0.426C0.4,-0.441 0.412,-0.47 0.412,-0.513C0.412,-0.548 0.399,-0.573 0.373,-0.587C0.346,-0.601 0.305,-0.608 0.248,-0.608C0.234,-0.608 0.22,-0.607 0.205,-0.605Z" style="fill:white;fill-opacity:0.9;fill-rule:nonzero;"/>
            </g>
            <g transform="matrix(6.4,0,0,6.4,42.5761,51.8924)">
                <path d="M0.491,-0L0.438,-0.145L0.193,-0.145L0.144,-0L0.002,-0L0.288,-0.725L0.343,-0.725L0.631,-0L0.491,-0ZM0.315,-0.506L0.229,-0.242L0.401,-0.242L0.315,-0.506Z" style="fill:white;fill-opacity:0.9;fill-rule:nonzero;"/>
            </g>
            <g transform="matrix(6.4,0,0,6.4,46.7572,51.8924)">
                <path d="M0.74,0L0.617,0L0.543,-0.385L0.399,0.01L0.354,0.01L0.209,-0.385L0.132,0L0.01,0L0.154,-0.715L0.221,-0.715L0.376,-0.233L0.527,-0.715L0.594,-0.715L0.74,0Z" style="fill:white;fill-opacity:0.9;fill-rule:nonzero;"/>
            </g>
        </g>
        <g transform="matrix(0.552947,0,0,1.41025,968.322,-134.095)">
            <path d="M73.138,59.642C73.138,58.142 69.254,56.924 64.471,56.924L13.773,56.924C8.99,56.924 5.107,58.142 5.107,59.642L5.107,80.985C5.107,82.486 8.99,83.704 13.773,83.704L64.471,83.704C69.254,83.704 73.138,82.486 73.138,80.985L73.138,59.642Z" style="fill-opacity:0.5;"/>
        </g>
        <g transform="matrix(1.198,0,0,0.958552,940.665,-95.5249)">
            <g transform="matrix(6.4,0,0,6.4,28.7438,51.8924)">
                <path d="M0.74,0L0.617,0L0.543,-0.385L0.399,0.01L0.354,0.01L0.209,-0.385L0.132,0L0.01,0L0.154,-0.715L0.221,-0.715L0.376,-0.233L0.527,-0.715L0.594,-0.715L0.74,0Z" style="fill:white;fill-opacity:0.9;fill-rule:nonzero;"/>
            </g>
            <g transform="matrix(6.4,0,0,6.4,33.6406,51.8924)">
                <rect x="0.053" y="-0.347" width="0.258" height="0.115" style="fill:white;fill-opacity:0.9;fill-rule:nonzero;"/>
            </g>
            <g transform="matrix(6.4,0,0,6.4,36.1186,51.8924)">
                <path d="M0.563,-0.677L0.511,-0.572C0.483,-0.601 0.437,-0.615 0.375,-0.615C0.315,-0.615 0.266,-0.59 0.228,-0.54C0.19,-0.49 0.171,-0.427 0.171,-0.35C0.171,-0.274 0.189,-0.213 0.224,-0.168C0.259,-0.123 0.306,-0.101 0.365,-0.101C0.433,-0.101 0.485,-0.125 0.523,-0.173L0.583,-0.07C0.531,-0.015 0.455,0.012 0.355,0.012C0.255,0.012 0.177,-0.021 0.122,-0.086C0.067,-0.152 0.039,-0.242 0.039,-0.355C0.039,-0.461 0.07,-0.55 0.131,-0.621C0.192,-0.692 0.271,-0.728 0.367,-0.728C0.449,-0.728 0.514,-0.711 0.563,-0.677Z" style="fill:white;fill-opacity:0.9;fill-rule:nonzero;"/>
            </g>
            <g transform="matrix(6.4,0,0,6.4,40.1622,51.8924)">
                <path d="M0.073,-0L0.073,-0.715L0.2,-0.715L0.2,-0.113L0.523,-0.113L0.523,-0L0.073,-0Z" style="fill:white;fill-opacity:0.9;fill-rule:nonzero;"/>
            </g>
            <g transform="matrix(6.4,0,0,6.4,43.8277,51.8924)">
                <rect x="0.076" y="-0.715" width="0.127" height="0.715" style="fill:white;fill-opacity:0.9;fill-rule:nonzero;"/>
            </g>
            <g transform="matrix(6.4,0,0,6.4,45.7369,51.8924)">
                <path d="M0.563,-0.677L0.511,-0.572C0.483,-0.601 0.437,-0.615 0.375,-0.615C0.315,-0.615 0.266,-0.59 0.228,-0.54C0.19,-0.49 0.171,-0.427 0.171,-0.35C0.171,-0.274 0.189,-0.213 0.224,-0.168C0.259,-0.123 0.306,-0.101 0.365,-0.101C0.433,-0.101 0.485,-0.125 0.523,-0.173L0.583,-0.07C0.531,-0.015 0.455,0.012 0.355,0.012C0.255,0.012 0.177,-0.021 0.122,-0.086C0.067,-0.152 0.039,-0.242 0.039,-0.355C0.039,-0.461 0.07,-0.55 0.131,-0.621C0.192,-0.692 0.271,-0.728 0.367,-0.728C0.449,-0.728 0.514,-0.711 0.563,-0.677Z" style="fill:white;fill-opacity:0.9;fill-rule:nonzero;"/>
            </g>
            <g transform="matrix(6.4,0,0,6.4,49.7806,51.8924)">
                <path d="M0.479,-0L0.28,-0.305L0.2,-0.196L0.2,-0L0.073,-0L0.073,-0.715L0.2,-0.715L0.2,-0.373L0.443,-0.715L0.588,-0.715L0.364,-0.403L0.631,-0L0.479,-0Z" style="fill:white;fill-opacity:0.9;fill-rule:nonzero;"/>
            </g>
        </g>
        <g transform="matrix(0.102295,0,0,0.0818487,965.711,-103.106)">
            <path d="M406.224,242.114C406.268,242.044 406.308,241.973 406.35,241.902C406.668,241.358 406.927,240.783 407.11,240.18C407.141,240.077 407.162,239.973 407.189,239.869C407.228,239.721 407.269,239.573 407.299,239.422C407.325,239.293 407.34,239.163 407.359,239.033C407.378,238.905 407.401,238.777 407.414,238.648C407.427,238.516 407.43,238.384 407.436,238.252C407.442,238.123 407.452,237.995 407.452,237.866C407.452,237.737 407.442,237.608 407.436,237.48C407.43,237.348 407.427,237.216 407.414,237.084C407.401,236.955 407.378,236.827 407.359,236.699C407.34,236.569 407.325,236.44 407.299,236.31C407.269,236.159 407.228,236.012 407.189,235.863C407.162,235.759 407.141,235.655 407.11,235.552C406.956,235.045 406.753,234.555 406.504,234.088C406.452,233.992 406.393,233.902 406.338,233.809C406.261,233.677 406.186,233.545 406.101,233.418C406.028,233.309 405.948,233.208 405.871,233.104C405.793,232.999 405.718,232.892 405.635,232.79C405.552,232.689 405.462,232.595 405.375,232.499C405.287,232.402 405.202,232.302 405.108,232.209C405.019,232.12 404.924,232.039 404.832,231.955C404.731,231.863 404.633,231.769 404.527,231.683C404.43,231.604 404.328,231.533 404.228,231.459C404.119,231.378 404.012,231.294 403.898,231.218C403.777,231.137 403.65,231.066 403.525,230.992C403.426,230.933 403.331,230.87 403.228,230.816C402.994,230.691 402.754,230.576 402.508,230.475L328.603,199.863L359.302,125.749C359.403,125.505 359.492,125.256 359.569,125.003C359.584,124.953 359.593,124.903 359.607,124.853C359.664,124.652 359.718,124.45 359.759,124.244C359.769,124.192 359.774,124.14 359.783,124.088C359.82,123.883 359.854,123.677 359.875,123.468C359.879,123.43 359.878,123.393 359.881,123.355C359.9,123.133 359.913,122.91 359.914,122.686C359.914,122.659 359.911,122.631 359.911,122.604C359.909,122.372 359.9,122.139 359.877,121.906C359.874,121.872 359.867,121.839 359.863,121.805C359.838,121.581 359.808,121.358 359.764,121.134C359.749,121.058 359.726,120.984 359.708,120.908C359.667,120.729 359.628,120.55 359.574,120.372C359.497,120.117 359.408,119.866 359.305,119.618L311.808,4.946C311.706,4.699 311.591,4.458 311.465,4.222C311.411,4.121 311.349,4.027 311.291,3.93C311.216,3.804 311.145,3.675 311.063,3.553C310.987,3.439 310.903,3.332 310.821,3.223C310.747,3.124 310.676,3.022 310.598,2.926C310.511,2.82 310.417,2.722 310.325,2.621C310.241,2.528 310.16,2.434 310.071,2.345C309.978,2.252 309.88,2.168 309.783,2.08C309.686,1.992 309.592,1.902 309.49,1.818C309.39,1.736 309.285,1.663 309.181,1.586C309.075,1.507 308.972,1.425 308.861,1.351C308.738,1.269 308.611,1.198 308.484,1.123C308.386,1.065 308.292,1.003 308.191,0.949C307.726,0.7 307.237,0.498 306.733,0.345C306.612,0.308 306.49,0.283 306.368,0.252C306.237,0.219 306.108,0.182 305.975,0.155C305.835,0.127 305.694,0.11 305.554,0.09C305.436,0.073 305.32,0.052 305.201,0.04C305.062,0.026 304.924,0.023 304.786,0.017C304.662,0.01 304.539,0 304.416,0C304.285,0 304.156,0.01 304.026,0.016C303.895,0.022 303.764,0.025 303.632,0.038C303.505,0.051 303.38,0.073 303.254,0.092C303.122,0.111 302.989,0.127 302.857,0.153C302.715,0.181 302.576,0.221 302.437,0.256C302.324,0.285 302.21,0.308 302.098,0.342C301.846,0.419 301.597,0.506 301.353,0.607L301.352,0.607C301.344,0.61 301.336,0.615 301.328,0.618C301.093,0.716 300.863,0.825 300.639,0.945C300.532,1.002 300.433,1.067 300.33,1.128C300.209,1.2 300.086,1.268 299.969,1.347C299.854,1.424 299.746,1.509 299.635,1.591C299.536,1.664 299.436,1.734 299.34,1.813C299.234,1.9 299.136,1.994 299.035,2.085C298.942,2.169 298.847,2.251 298.758,2.34C298.666,2.432 298.581,2.53 298.494,2.627C298.405,2.724 298.315,2.819 298.231,2.921C298.148,3.022 298.075,3.128 297.997,3.232C297.919,3.337 297.838,3.439 297.765,3.549C297.68,3.676 297.606,3.808 297.529,3.94C297.474,4.034 297.414,4.123 297.363,4.22C297.237,4.456 297.122,4.697 297.02,4.944L266.408,78.847L192.289,48.146C192.047,48.046 191.8,47.958 191.549,47.881C191.495,47.865 191.441,47.855 191.387,47.84C191.189,47.784 190.991,47.731 190.789,47.691C190.74,47.681 190.69,47.677 190.641,47.668C190.433,47.63 190.224,47.596 190.013,47.575C189.98,47.572 189.946,47.572 189.912,47.569C189.686,47.549 189.458,47.536 189.23,47.536C189.212,47.536 189.195,47.538 189.177,47.538C188.935,47.539 188.693,47.55 188.45,47.574C188.433,47.576 188.416,47.579 188.399,47.581C188.158,47.606 187.918,47.64 187.677,47.687C187.632,47.696 187.588,47.71 187.543,47.72C187.333,47.765 187.124,47.814 186.915,47.877C186.661,47.954 186.411,48.043 186.164,48.145L71.489,95.645C71.244,95.746 71.005,95.86 70.771,95.985C70.668,96.04 70.573,96.103 70.473,96.162C70.348,96.236 70.221,96.307 70.1,96.388C69.987,96.463 69.882,96.546 69.774,96.627C69.673,96.702 69.57,96.774 69.472,96.854C69.368,96.939 69.272,97.031 69.173,97.121C69.078,97.207 68.981,97.29 68.89,97.381C68.8,97.471 68.718,97.567 68.632,97.661C68.542,97.76 68.449,97.857 68.363,97.962C68.283,98.06 68.211,98.164 68.135,98.265C68.055,98.373 67.972,98.477 67.897,98.59C67.815,98.713 67.742,98.842 67.667,98.97C67.61,99.067 67.548,99.16 67.495,99.26C67.245,99.727 67.042,100.217 66.889,100.723C66.858,100.826 66.837,100.93 66.81,101.034C66.771,101.182 66.73,101.33 66.7,101.481C66.674,101.61 66.659,101.74 66.64,101.87C66.621,101.998 66.598,102.126 66.585,102.255C66.572,102.388 66.569,102.519 66.563,102.652C66.557,102.781 66.547,102.909 66.547,103.038C66.547,103.167 66.557,103.295 66.563,103.424C66.569,103.556 66.572,103.688 66.585,103.821C66.598,103.95 66.621,104.078 66.64,104.206C66.659,104.336 66.674,104.465 66.7,104.595C66.73,104.746 66.771,104.893 66.81,105.042C66.837,105.146 66.858,105.25 66.889,105.353C67.071,105.955 67.331,106.531 67.648,107.075C67.69,107.146 67.731,107.218 67.774,107.287C67.957,107.579 68.156,107.862 68.377,108.13C68.417,108.179 68.461,108.223 68.502,108.271C68.696,108.495 68.903,108.708 69.123,108.911C69.183,108.966 69.241,109.023 69.302,109.076C69.559,109.299 69.83,109.509 70.118,109.701C70.166,109.733 70.217,109.76 70.266,109.791C70.508,109.944 70.761,110.084 71.023,110.213C71.111,110.256 71.199,110.299 71.288,110.339C71.354,110.368 71.415,110.403 71.483,110.431L145.393,141.046L114.694,215.161C114.593,215.405 114.504,215.654 114.427,215.907C114.412,215.957 114.403,216.008 114.389,216.058C114.332,216.259 114.278,216.461 114.237,216.666C114.227,216.718 114.222,216.771 114.213,216.823C114.176,217.028 114.142,217.234 114.122,217.442C114.118,217.48 114.119,217.519 114.116,217.557C114.097,217.778 114.084,218 114.083,218.224C114.083,218.254 114.087,218.284 114.087,218.314C114.089,218.544 114.098,218.774 114.121,219.005C114.124,219.039 114.131,219.072 114.135,219.106C114.16,219.33 114.19,219.554 114.234,219.777C114.249,219.852 114.272,219.925 114.289,220C114.33,220.18 114.369,220.36 114.424,220.539C114.501,220.794 114.59,221.045 114.693,221.293L162.192,335.964C162.332,336.303 162.503,336.629 162.688,336.946C162.73,337.017 162.771,337.089 162.814,337.158C162.997,337.45 163.196,337.733 163.417,338.001C163.457,338.05 163.501,338.094 163.542,338.142C163.736,338.366 163.943,338.579 164.163,338.782C164.223,338.837 164.281,338.894 164.342,338.947C164.599,339.17 164.87,339.38 165.158,339.572C165.206,339.604 165.257,339.631 165.306,339.662C165.548,339.815 165.801,339.955 166.063,340.084C166.151,340.127 166.239,340.17 166.328,340.21C166.394,340.239 166.455,340.274 166.523,340.302C166.775,340.406 167.03,340.497 167.286,340.574C167.289,340.575 167.292,340.575 167.295,340.576C167.629,340.676 167.966,340.746 168.304,340.801C168.384,340.814 168.464,340.826 168.544,340.836C168.891,340.882 169.237,340.913 169.582,340.913L169.588,340.913C169.933,340.913 170.28,340.882 170.627,340.836C170.707,340.825 170.786,340.814 170.866,340.801C171.205,340.746 171.543,340.676 171.879,340.575C171.88,340.575 171.881,340.574 171.883,340.574C172.139,340.497 172.394,340.406 172.647,340.302C172.715,340.274 172.777,340.239 172.843,340.209C172.931,340.17 173.017,340.128 173.104,340.085C173.369,339.955 173.624,339.814 173.869,339.659C173.916,339.629 173.965,339.604 174.011,339.573C174.301,339.381 174.572,339.17 174.83,338.946C174.89,338.894 174.947,338.839 175.006,338.785C175.227,338.581 175.436,338.367 175.631,338.141C175.672,338.094 175.715,338.051 175.754,338.003C175.975,337.735 176.174,337.452 176.357,337.159C176.401,337.089 176.441,337.018 176.483,336.947C176.668,336.629 176.839,336.304 176.979,335.965L207.59,262.062L229.113,270.977L229.113,466.004C229.113,470.422 232.695,474.004 237.113,474.004C241.531,474.004 245.113,470.422 245.113,466.004L245.113,277.604L281.712,292.764C281.96,292.867 282.212,292.956 282.466,293.033C282.486,293.039 282.506,293.042 282.526,293.048C282.836,293.139 283.15,293.205 283.466,293.258C283.562,293.274 283.658,293.288 283.755,293.301C284.07,293.341 284.386,293.368 284.703,293.371C284.728,293.371 284.752,293.376 284.776,293.376C285.797,293.376 286.834,293.18 287.835,292.765L402.514,245.263C402.582,245.235 402.644,245.2 402.71,245.17C402.798,245.131 402.884,245.089 402.971,245.046C403.236,244.916 403.491,244.775 403.736,244.62C403.783,244.59 403.832,244.565 403.878,244.534C404.168,244.342 404.439,244.131 404.697,243.907C404.757,243.855 404.814,243.8 404.873,243.746C405.094,243.542 405.303,243.328 405.498,243.102C405.539,243.055 405.582,243.012 405.621,242.964C405.842,242.69 406.041,242.407 406.224,242.114ZM276.172,178.143C277.73,170.429 276.972,162.429 273.893,154.996C270.875,147.71 265.892,141.62 259.521,137.282L304.413,28.903L341.463,118.349L295.285,137.477C291.203,139.167 289.264,143.847 290.956,147.929C292.231,151.01 295.21,152.869 298.35,152.869C299.371,152.869 300.408,152.673 301.409,152.258L337.135,137.46L313.824,193.739L276.172,178.143ZM227.753,192.476C221.83,190.024 217.217,185.411 214.764,179.488C212.311,173.565 212.311,167.043 214.765,161.12C218.494,152.114 227.203,146.296 236.95,146.296C240.096,146.296 243.181,146.913 246.122,148.132C252.045,150.584 256.658,155.197 259.111,161.12C261.564,167.043 261.564,173.565 259.11,179.488C255.381,188.494 246.672,194.312 236.925,194.312C233.78,194.312 230.694,193.694 227.753,192.476ZM244.777,131.071C242.208,130.555 239.593,130.295 236.95,130.295C223.434,130.295 211.123,137.014 203.788,147.914L95.451,103.038L184.896,65.989L204.023,112.166C205.298,115.247 208.277,117.106 211.417,117.106C212.438,117.106 213.475,116.91 214.476,116.495C218.558,114.805 220.497,110.125 218.805,106.043L204.007,70.318L260.286,93.629L244.777,131.071ZM197.659,162.693C196.161,170.336 196.934,178.251 199.982,185.611C203.03,192.971 208.082,199.114 214.545,203.46L169.585,312.003L132.535,222.557L178.713,203.429C182.795,201.739 184.734,197.059 183.042,192.977C181.353,188.895 176.672,186.957 172.59,188.648L136.864,203.446L160.175,147.167L197.659,162.693ZM229.328,209.577C231.823,210.063 234.36,210.311 236.925,210.311C250.361,210.311 262.606,203.672 269.956,192.885L378.549,237.865L289.104,274.915L269.977,228.737C268.288,224.655 263.606,222.716 259.525,224.408C255.443,226.098 253.504,230.778 255.196,234.86L269.994,270.586L213.715,247.275L229.328,209.577Z" style="fill:white;fill-opacity:0.5;fill-rule:nonzero;"/>
        </g>
    </g>
</svg>
