<?xml version="1.0" encoding="UTF-8" standalone="no"?>
<!DOCTYPE svg PUBLIC "-//W3C//DTD SVG 1.1//EN" "http://www.w3.org/Graphics/SVG/1.1/DTD/svg11.dtd">
<svg width="100%" height="100%" viewBox="0 0 45 380" version="1.1" xmlns="http://www.w3.org/2000/svg" xmlns:xlink="http://www.w3.org/1999/xlink" xml:space="preserve" xmlns:serif="http://www.serif.com/" style="fill-rule:evenodd;clip-rule:evenodd;stroke-linecap:round;stroke-linejoin:round;stroke-miterlimit:1.5;">
    <g id="panel" transform="matrix(0.834722,0,0,1.04324,-803.837,250.623)">
        <g transform="matrix(0.898503,0,0,0.958552,963,-240.242)">
            <rect x="0" y="0" width="60" height="380" style="fill:rgb(64,64,64);"/>
        </g>
        <g transform="matrix(0.318803,0,0,1.81961,972.575,-538.829)">
            <rect x="-30.034" y="347.456" width="169.102" height="16.91" style="fill:rgb(10,10,44);fill-opacity:0.8;"/>
        </g>
        <g transform="matrix(0.318803,0,0,1.76292,972.575,-852.772)">
            <rect x="-30.034" y="347.456" width="169.102" height="16.91" style="fill:rgb(10,10,44);fill-opacity:0.8;"/>
        </g>
        <g transform="matrix(2.40704,0,0,25.5659,873.006,-292.473)">
            <rect x="37.388" y="2.043" width="22.397" height="14.247" style="fill:none;stroke:rgb(32,6,118);stroke-opacity:0.7;stroke-width:0.03px;"/>
        </g>
        <g transform="matrix(1,0,0,1,6.04315,0)">
            <g transform="matrix(1.198,0,0,0.958552,953.392,-213.56)">
                <g transform="matrix(13,0,0,13,17.4116,0)">
                    <path d="M0.292,-0L0.073,-0L0.073,-0.715C0.17,-0.719 0.237,-0.722 0.276,-0.722C0.35,-0.722 0.408,-0.706 0.45,-0.674C0.492,-0.642 0.513,-0.597 0.513,-0.538C0.513,-0.481 0.483,-0.437 0.423,-0.404C0.512,-0.373 0.556,-0.309 0.556,-0.212C0.556,-0.147 0.532,-0.096 0.482,-0.057C0.433,-0.019 0.37,-0 0.292,-0ZM0.2,-0.613L0.2,-0.442C0.22,-0.441 0.24,-0.44 0.262,-0.44C0.344,-0.44 0.386,-0.471 0.386,-0.533C0.386,-0.588 0.348,-0.616 0.273,-0.616C0.253,-0.616 0.229,-0.615 0.2,-0.613ZM0.2,-0.343L0.2,-0.106C0.226,-0.104 0.247,-0.103 0.263,-0.103C0.319,-0.103 0.36,-0.113 0.386,-0.132C0.412,-0.151 0.424,-0.183 0.424,-0.228C0.424,-0.268 0.412,-0.298 0.389,-0.316C0.365,-0.335 0.323,-0.344 0.264,-0.344C0.252,-0.344 0.23,-0.344 0.2,-0.343Z" style="fill:white;fill-opacity:0.9;fill-rule:nonzero;"/>
                </g>
                <g transform="matrix(13,0,0,13,25.1494,0)">
                    <path d="M0.491,-0L0.438,-0.145L0.193,-0.145L0.144,-0L0.002,-0L0.288,-0.725L0.343,-0.725L0.631,-0L0.491,-0ZM0.315,-0.506L0.229,-0.242L0.401,-0.242L0.315,-0.506Z" style="fill:white;fill-opacity:0.9;fill-rule:nonzero;"/>
                </g>
                <g transform="matrix(13,0,0,13,32.2207,0)">
                    <path d="M0.371,-0.293L0.371,-0L0.244,-0L0.244,-0.293L0.002,-0.715L0.137,-0.715L0.307,-0.41L0.477,-0.715L0.611,-0.715L0.371,-0.293Z" style="fill:white;fill-opacity:0.9;fill-rule:nonzero;"/>
                </g>
            </g>
            <g transform="matrix(7.33563e-17,-0.958549,1.198,5.86942e-17,973.29,-189.3)">
                <g transform="matrix(8.00002,0,0,8.00002,24.9428,0)">
                    <path d="M0.041,-0.033L0.077,-0.123C0.095,-0.109 0.118,-0.098 0.145,-0.089C0.172,-0.08 0.196,-0.076 0.218,-0.076C0.256,-0.076 0.286,-0.086 0.31,-0.107C0.333,-0.128 0.344,-0.154 0.344,-0.187C0.344,-0.211 0.338,-0.233 0.325,-0.254C0.312,-0.274 0.28,-0.297 0.228,-0.321L0.17,-0.348C0.122,-0.371 0.087,-0.398 0.068,-0.429C0.049,-0.46 0.039,-0.498 0.039,-0.542C0.039,-0.595 0.058,-0.64 0.096,-0.675C0.133,-0.71 0.182,-0.728 0.241,-0.728C0.32,-0.728 0.375,-0.715 0.406,-0.689L0.377,-0.604C0.364,-0.613 0.345,-0.623 0.318,-0.631C0.291,-0.64 0.266,-0.645 0.244,-0.645C0.21,-0.645 0.184,-0.635 0.165,-0.616C0.146,-0.597 0.137,-0.573 0.137,-0.543C0.137,-0.525 0.14,-0.509 0.147,-0.494C0.154,-0.479 0.163,-0.466 0.176,-0.456C0.188,-0.446 0.213,-0.432 0.25,-0.414L0.309,-0.386C0.358,-0.363 0.392,-0.335 0.412,-0.303C0.432,-0.271 0.441,-0.23 0.441,-0.181C0.441,-0.127 0.42,-0.081 0.377,-0.044C0.334,-0.007 0.276,0.012 0.204,0.012C0.14,0.012 0.086,-0.003 0.041,-0.033Z" style="fill:white;fill-opacity:0.9;fill-rule:nonzero;"/>
                </g>
                <g transform="matrix(8.00002,0,0,8.00002,28.6304,0)">
                    <path d="M0.334,-0.627L0.334,-0L0.236,-0L0.236,-0.627L0.009,-0.627L0.009,-0.715L0.572,-0.715L0.572,-0.627L0.334,-0.627Z" style="fill:white;fill-opacity:0.9;fill-rule:nonzero;"/>
                </g>
                <g transform="matrix(8.00002,0,0,8.00002,33.115,0)">
                    <path d="M0.47,-0L0.279,-0.307C0.257,-0.307 0.223,-0.309 0.176,-0.312L0.176,-0L0.078,-0L0.078,-0.715C0.082,-0.715 0.107,-0.717 0.154,-0.719C0.201,-0.721 0.235,-0.723 0.257,-0.723C0.429,-0.723 0.515,-0.654 0.515,-0.518C0.515,-0.473 0.501,-0.432 0.473,-0.396C0.445,-0.36 0.413,-0.338 0.375,-0.329L0.582,-0L0.47,-0ZM0.176,-0.627L0.176,-0.395C0.199,-0.392 0.222,-0.39 0.244,-0.39C0.303,-0.39 0.345,-0.4 0.372,-0.418C0.399,-0.437 0.412,-0.471 0.412,-0.52C0.412,-0.56 0.398,-0.588 0.369,-0.606C0.34,-0.624 0.295,-0.632 0.233,-0.632C0.224,-0.632 0.204,-0.631 0.176,-0.627Z" style="fill:white;fill-opacity:0.9;fill-rule:nonzero;"/>
                </g>
                <g transform="matrix(8.00002,0,0,8.00002,37.6112,0)">
                    <rect x="0.09" y="-0.715" width="0.098" height="0.715" style="fill:white;fill-opacity:0.9;fill-rule:nonzero;"/>
                </g>
                <g transform="matrix(8.00002,0,0,8.00002,39.6778,0)">
                    <path d="M0.171,-0.275L0.171,-0L0.073,-0L0.073,-0.715C0.147,-0.719 0.192,-0.72 0.207,-0.72C0.415,-0.72 0.519,-0.651 0.519,-0.512C0.519,-0.351 0.427,-0.271 0.243,-0.271C0.232,-0.271 0.208,-0.272 0.171,-0.275ZM0.171,-0.627L0.171,-0.363C0.212,-0.36 0.234,-0.358 0.236,-0.358C0.357,-0.358 0.418,-0.406 0.418,-0.501C0.418,-0.589 0.353,-0.632 0.224,-0.632C0.211,-0.632 0.193,-0.631 0.171,-0.627Z" style="fill:white;fill-opacity:0.9;fill-rule:nonzero;"/>
                </g>
            </g>
        </g>
        <g transform="matrix(0.72137,0,0,0.72137,275.731,27.4823)">
            <g transform="matrix(1.198,0,0,0.958552,893.633,-224.914)">
                <g transform="matrix(9,0,0,9,64.0056,347.267)">
                    <path d="M0.919,-0L0.762,-0L0.762,-0.308C0.762,-0.391 0.732,-0.432 0.671,-0.432C0.643,-0.432 0.62,-0.42 0.602,-0.395C0.583,-0.369 0.574,-0.339 0.574,-0.303L0.574,-0L0.417,-0L0.417,-0.312C0.417,-0.392 0.387,-0.432 0.327,-0.432C0.298,-0.432 0.274,-0.42 0.256,-0.396C0.238,-0.372 0.229,-0.341 0.229,-0.301L0.229,-0L0.072,-0L0.072,-0.54L0.229,-0.54L0.229,-0.456L0.231,-0.456C0.25,-0.486 0.275,-0.51 0.307,-0.528C0.338,-0.545 0.371,-0.553 0.405,-0.553C0.481,-0.553 0.533,-0.519 0.561,-0.451C0.603,-0.519 0.663,-0.553 0.743,-0.553C0.86,-0.553 0.919,-0.481 0.919,-0.335L0.919,-0Z" style="fill:white;fill-opacity:0.9;fill-rule:nonzero;"/>
                </g>
                <g transform="matrix(9,0,0,9,72.978,347.267)">
                    <path d="M0.551,-0.226L0.196,-0.226C0.201,-0.142 0.252,-0.1 0.347,-0.1C0.407,-0.1 0.459,-0.115 0.505,-0.144L0.505,-0.028C0.456,-0.001 0.391,0.013 0.312,0.013C0.226,0.013 0.159,-0.011 0.111,-0.06C0.063,-0.108 0.04,-0.176 0.04,-0.262C0.04,-0.348 0.065,-0.419 0.116,-0.472C0.167,-0.526 0.23,-0.553 0.307,-0.553C0.384,-0.553 0.443,-0.53 0.487,-0.484C0.53,-0.437 0.551,-0.374 0.551,-0.292L0.551,-0.226ZM0.404,-0.324C0.404,-0.405 0.372,-0.445 0.306,-0.445C0.279,-0.445 0.255,-0.434 0.234,-0.412C0.214,-0.39 0.201,-0.361 0.195,-0.324L0.404,-0.324Z" style="fill:white;fill-opacity:0.9;fill-rule:nonzero;"/>
                </g>
                <g transform="matrix(9,0,0,9,78.3513,347.267)">
                    <rect x="0.069" y="-0.799" width="0.157" height="0.799" style="fill:white;fill-opacity:0.9;fill-rule:nonzero;"/>
                </g>
                <g transform="matrix(9,0,0,9,81.1494,347.267)">
                    <path d="M0.593,-0L0.436,-0L0.436,-0.076L0.433,-0.076C0.395,-0.017 0.339,0.013 0.264,0.013C0.195,0.013 0.141,-0.011 0.1,-0.06C0.06,-0.108 0.04,-0.174 0.04,-0.258C0.04,-0.346 0.062,-0.418 0.108,-0.472C0.153,-0.526 0.212,-0.553 0.286,-0.553C0.356,-0.553 0.405,-0.528 0.433,-0.477L0.436,-0.477L0.438,-0.707L0.593,-0.658L0.593,-0ZM0.438,-0.306C0.438,-0.342 0.427,-0.372 0.405,-0.396C0.383,-0.42 0.356,-0.432 0.323,-0.432C0.284,-0.432 0.254,-0.417 0.232,-0.386C0.21,-0.356 0.199,-0.315 0.199,-0.263C0.199,-0.213 0.21,-0.175 0.231,-0.148C0.252,-0.121 0.281,-0.108 0.318,-0.108C0.353,-0.108 0.382,-0.122 0.404,-0.15C0.427,-0.179 0.438,-0.215 0.438,-0.261L0.438,-0.306Z" style="fill:white;fill-opacity:0.9;fill-rule:nonzero;"/>
                </g>
                <g transform="matrix(9,0,0,9,87.2654,347.267)">
                    <path d="M0.551,-0.226L0.196,-0.226C0.201,-0.142 0.252,-0.1 0.347,-0.1C0.407,-0.1 0.459,-0.115 0.505,-0.144L0.505,-0.028C0.456,-0.001 0.391,0.013 0.312,0.013C0.226,0.013 0.159,-0.011 0.111,-0.06C0.063,-0.108 0.04,-0.176 0.04,-0.262C0.04,-0.348 0.065,-0.419 0.116,-0.472C0.167,-0.526 0.23,-0.553 0.307,-0.553C0.384,-0.553 0.443,-0.53 0.487,-0.484C0.53,-0.437 0.551,-0.374 0.551,-0.292L0.551,-0.226ZM0.404,-0.324C0.404,-0.405 0.372,-0.445 0.306,-0.445C0.279,-0.445 0.255,-0.434 0.234,-0.412C0.214,-0.39 0.201,-0.361 0.195,-0.324L0.404,-0.324Z" style="fill:white;fill-opacity:0.9;fill-rule:nonzero;"/>
                </g>
                <g transform="matrix(9,0,0,9,92.6386,347.267)">
                    <path d="M0.416,-0.397C0.397,-0.408 0.374,-0.414 0.346,-0.414C0.31,-0.414 0.282,-0.4 0.261,-0.373C0.24,-0.345 0.229,-0.308 0.229,-0.26L0.229,-0L0.072,-0L0.072,-0.54L0.229,-0.54L0.229,-0.438L0.231,-0.438C0.257,-0.512 0.305,-0.549 0.374,-0.549C0.392,-0.549 0.406,-0.547 0.416,-0.543L0.416,-0.397Z" style="fill:white;fill-opacity:0.9;fill-rule:nonzero;"/>
                </g>
            </g>
            <g transform="matrix(1.198,0,0,0.958552,893.495,-231.786)">
                <g transform="matrix(9,0,0,9,68.6657,347.267)">
                    <path d="M0.058,-0.145C0.112,-0.112 0.165,-0.096 0.216,-0.096C0.281,-0.096 0.314,-0.113 0.314,-0.148C0.314,-0.173 0.287,-0.193 0.233,-0.21C0.166,-0.231 0.12,-0.254 0.095,-0.28C0.07,-0.305 0.058,-0.34 0.058,-0.383C0.058,-0.436 0.079,-0.478 0.122,-0.508C0.165,-0.538 0.221,-0.553 0.291,-0.553C0.34,-0.553 0.388,-0.546 0.434,-0.531L0.434,-0.407C0.392,-0.432 0.346,-0.444 0.295,-0.444C0.27,-0.444 0.25,-0.44 0.235,-0.431C0.22,-0.422 0.212,-0.41 0.212,-0.396C0.212,-0.371 0.235,-0.351 0.28,-0.335C0.329,-0.319 0.366,-0.304 0.39,-0.291C0.415,-0.278 0.434,-0.26 0.447,-0.238C0.459,-0.216 0.466,-0.191 0.466,-0.163C0.466,-0.107 0.444,-0.064 0.399,-0.033C0.354,-0.002 0.295,0.013 0.22,0.013C0.162,0.013 0.107,0.004 0.058,-0.015L0.058,-0.145Z" style="fill:white;fill-opacity:0.9;fill-rule:nonzero;"/>
                </g>
                <g transform="matrix(9,0,0,9,73.2436,347.267)">
                    <path d="M0.39,-0.006C0.366,0.007 0.33,0.013 0.282,0.013C0.167,0.013 0.11,-0.047 0.11,-0.167L0.11,-0.422L0.021,-0.422L0.021,-0.54L0.11,-0.54L0.11,-0.659L0.267,-0.704L0.267,-0.54L0.39,-0.54L0.39,-0.422L0.267,-0.422L0.267,-0.195C0.267,-0.137 0.289,-0.108 0.335,-0.108C0.353,-0.108 0.371,-0.114 0.39,-0.124L0.39,-0.006Z" style="fill:white;fill-opacity:0.9;fill-rule:nonzero;"/>
                </g>
                <g transform="matrix(6.6,0,0,6.6,77.1051,347.267)">
                    <path d="M0.106,0.032L0.043,-0.021L0.122,-0.115C0.067,-0.183 0.04,-0.268 0.04,-0.368C0.04,-0.487 0.075,-0.584 0.144,-0.658C0.213,-0.732 0.305,-0.769 0.418,-0.769C0.5,-0.769 0.571,-0.748 0.63,-0.706L0.698,-0.785L0.761,-0.733L0.689,-0.65C0.748,-0.581 0.778,-0.493 0.778,-0.384C0.778,-0.266 0.743,-0.17 0.674,-0.097C0.605,-0.023 0.516,0.013 0.406,0.013C0.32,0.013 0.246,-0.011 0.182,-0.059L0.106,0.032ZM0.54,-0.6C0.506,-0.628 0.463,-0.642 0.413,-0.642C0.349,-0.642 0.297,-0.617 0.258,-0.569C0.218,-0.52 0.199,-0.455 0.199,-0.375C0.199,-0.319 0.208,-0.273 0.227,-0.234L0.54,-0.6ZM0.275,-0.165C0.311,-0.131 0.356,-0.114 0.409,-0.114C0.473,-0.114 0.524,-0.137 0.563,-0.184C0.601,-0.231 0.62,-0.294 0.62,-0.374C0.62,-0.435 0.61,-0.488 0.588,-0.533L0.275,-0.165Z" style="fill:white;fill-opacity:0.9;fill-rule:nonzero;"/>
                </g>
                <g transform="matrix(9,0,0,9,82.6053,347.267)">
                    <path d="M0.551,-0.226L0.196,-0.226C0.201,-0.142 0.252,-0.1 0.347,-0.1C0.407,-0.1 0.459,-0.115 0.505,-0.144L0.505,-0.028C0.456,-0.001 0.391,0.013 0.312,0.013C0.226,0.013 0.159,-0.011 0.111,-0.06C0.063,-0.108 0.04,-0.176 0.04,-0.262C0.04,-0.348 0.065,-0.419 0.116,-0.472C0.167,-0.526 0.23,-0.553 0.307,-0.553C0.384,-0.553 0.443,-0.53 0.487,-0.484C0.53,-0.437 0.551,-0.374 0.551,-0.292L0.551,-0.226ZM0.404,-0.324C0.404,-0.405 0.372,-0.445 0.306,-0.445C0.279,-0.445 0.255,-0.434 0.234,-0.412C0.214,-0.39 0.201,-0.361 0.195,-0.324L0.404,-0.324Z" style="fill:white;fill-opacity:0.9;fill-rule:nonzero;"/>
                </g>
                <g transform="matrix(9,0,0,9,87.9786,347.267)">
                    <path d="M0.416,-0.397C0.397,-0.408 0.374,-0.414 0.346,-0.414C0.31,-0.414 0.282,-0.4 0.261,-0.373C0.24,-0.345 0.229,-0.308 0.229,-0.26L0.229,-0L0.072,-0L0.072,-0.54L0.229,-0.54L0.229,-0.438L0.231,-0.438C0.257,-0.512 0.305,-0.549 0.374,-0.549C0.392,-0.549 0.406,-0.547 0.416,-0.543L0.416,-0.397Z" style="fill:white;fill-opacity:0.9;fill-rule:nonzero;"/>
                </g>
            </g>
        </g>
        <g transform="matrix(1.47204,0,0,1.34672,952.638,-482.528)">
            <path d="M38.128,207.245C38.128,206.459 37.398,205.822 36.5,205.822L14.459,205.822C13.561,205.822 12.831,206.459 12.831,207.245L12.831,213.815C12.831,214.601 13.561,215.238 14.459,215.238L36.5,215.238C37.398,215.238 38.128,214.601 38.128,213.815L38.128,207.245Z" style="stroke:rgb(77,77,77);stroke-width:0.32px;stroke-linecap:square;"/>
        </g>
        <g transform="matrix(0.552947,0,0,1.12581,968.322,-5.49479)">
            <path d="M73.138,60.329C73.138,58.45 69.254,56.924 64.471,56.924L13.773,56.924C8.99,56.924 5.107,58.45 5.107,60.329L5.107,80.298C5.107,82.178 8.99,83.704 13.773,83.704L64.471,83.704C69.254,83.704 73.138,82.178 73.138,80.298L73.138,60.329Z" style="fill-opacity:0.5;"/>
        </g>
        <g transform="matrix(0.552947,0,0,1.12581,968.322,-40.3823)">
            <path d="M73.138,60.329C73.138,58.45 69.254,56.924 64.471,56.924L13.773,56.924C8.99,56.924 5.107,58.45 5.107,60.329L5.107,80.298C5.107,82.178 8.99,83.704 13.773,83.704L64.471,83.704C69.254,83.704 73.138,82.178 73.138,80.298L73.138,60.329Z" style="fill-opacity:0.5;"/>
        </g>
        <g transform="matrix(0.552947,0,0,1.12581,968.322,-75.2698)">
            <path d="M73.138,60.329C73.138,58.45 69.254,56.924 64.471,56.924L13.773,56.924C8.99,56.924 5.107,58.45 5.107,60.329L5.107,80.298C5.107,82.178 8.99,83.704 13.773,83.704L64.471,83.704C69.254,83.704 73.138,82.178 73.138,80.298L73.138,60.329Z" style="fill-opacity:0.5;"/>
        </g>
        <g transform="matrix(0.552947,0,0,1.12581,968.322,-110.157)">
            <path d="M73.138,60.329C73.138,58.45 69.254,56.924 64.471,56.924L13.773,56.924C8.99,56.924 5.107,58.45 5.107,60.329L5.107,80.298C5.107,82.178 8.99,83.704 13.773,83.704L64.471,83.704C69.254,83.704 73.138,82.178 73.138,80.298L73.138,60.329Z" style="fill-opacity:0.5;"/>
        </g>
        <g transform="matrix(0.552947,0,0,1.12581,968.322,-145.045)">
            <path d="M73.138,60.329C73.138,58.45 69.254,56.924 64.471,56.924L13.773,56.924C8.99,56.924 5.107,58.45 5.107,60.329L5.107,80.298C5.107,82.178 8.99,83.704 13.773,83.704L64.471,83.704C69.254,83.704 73.138,82.178 73.138,80.298L73.138,60.329Z" style="fill:white;fill-opacity:0.5;"/>
        </g>
        <g transform="matrix(0.552947,0,0,1.12581,968.322,-179.932)">
            <path d="M73.138,60.329C73.138,58.45 69.254,56.924 64.471,56.924L13.773,56.924C8.99,56.924 5.107,58.45 5.107,60.329L5.107,80.298C5.107,82.178 8.99,83.704 13.773,83.704L64.471,83.704C69.254,83.704 73.138,82.178 73.138,80.298L73.138,60.329Z" style="fill:white;fill-opacity:0.5;"/>
        </g>
        <g transform="matrix(0.552947,0,0,1.12581,968.322,-214.82)">
            <path d="M73.138,60.329C73.138,58.45 69.254,56.924 64.471,56.924L13.773,56.924C8.99,56.924 5.107,58.45 5.107,60.329L5.107,80.298C5.107,82.178 8.99,83.704 13.773,83.704L64.471,83.704C69.254,83.704 73.138,82.178 73.138,80.298L73.138,60.329Z" style="fill:white;fill-opacity:0.5;"/>
        </g>
        <g transform="matrix(0.552947,0,0,1.12581,968.322,-249.707)">
            <path d="M73.138,60.329C73.138,58.45 69.254,56.924 64.471,56.924L13.773,56.924C8.99,56.924 5.107,58.45 5.107,60.329L5.107,80.298C5.107,82.178 8.99,83.704 13.773,83.704L64.471,83.704C69.254,83.704 73.138,82.178 73.138,80.298L73.138,60.329Z" style="fill:white;fill-opacity:0.5;"/>
        </g>
    </g>
</svg>
